<svg xmlns="http://www.w3.org/2000/svg" width="282.633" height="71.625" viewBox="0 0 74.78 18.951"><g aria-label="colorio" style="line-height:0%;-inkscape-font-specification:'Baskerville Bold'" font-weight="700" font-size="12.75" font-family="Auto 1" letter-spacing="0" word-spacing="0"><path d="M8.992 9.804q-.639-.192-1.253-.273-.608-.08-1.085-.08-.62 0-1.06.186-.435.18-.714.576-.279.391-.409 1.017-.13.62-.13 1.495 0 .694.118 1.234.117.54.372.911.26.366.663.559.41.192.98.192.713 0 1.37-.143.664-.143 1.297-.39l1.017 2.945q-.9.415-2.022.67-1.122.248-2.474.248-1.42 0-2.48-.329-1.061-.335-1.768-1.048-.707-.713-1.06-1.83Q0 14.623 0 13.055q0-1.762.459-3.052T1.73 7.87q.819-.85 1.935-1.259 1.116-.409 2.43-.409.515 0 1.005.031.496.025.968.093.471.062.911.174.44.111.85.285z" style="-inkscape-font-specification:'Auto 1 Bold'" fill="#1f77b4"/><path d="M23.533 12.322q0 1.426-.427 2.641-.428 1.216-1.272 2.103-.837.886-2.077 1.389-1.234.496-2.853.496-1.55 0-2.685-.385-1.128-.384-1.866-1.153-.738-.775-1.092-1.935-.353-1.166-.353-2.728 0-1.476.446-2.685.453-1.21 1.296-2.065.85-.862 2.065-1.328 1.216-.47 2.747-.47 1.563 0 2.704.371 1.147.366 1.892 1.129.75.756 1.11 1.91.365 1.147.365 2.71zm-4.47.124q0-.906-.106-1.52-.1-.62-.322-.998-.218-.378-.559-.54-.34-.167-.818-.167-.893 0-1.39.781-.49.782-.49 2.419 0 .998.088 1.68.093.683.297 1.104.205.416.54.596.335.18.83.18.534 0 .9-.199.372-.205.595-.633.23-.427.329-1.097.105-.67.105-1.606z" style="-inkscape-font-specification:'Auto 1 Bold'" fill="#ff7f0e"/><path d="M31.173 18.566q-.217.075-.545.137-.33.062-.714.105-.378.044-.787.068-.41.025-.794.025-.694 0-1.234-.155-.533-.155-.899-.484-.36-.334-.552-.862-.186-.527-.186-1.27V.23L29.728 0v15.267q0 .106.038.174.043.068.192.112.149.037.434.055.291.013.781.013v2.945z" style="-inkscape-font-specification:'Auto 1 Bold'" fill="#2ca02c"/><path d="M44.915 12.322q0 1.426-.428 2.641-.428 1.216-1.271 2.103-.837.886-2.077 1.389-1.234.496-2.853.496-1.55 0-2.685-.385-1.129-.384-1.867-1.153-.738-.775-1.091-1.935-.353-1.166-.353-2.728 0-1.476.446-2.685.453-1.21 1.296-2.065.85-.862 2.065-1.328 1.215-.47 2.747-.47 1.563 0 2.704.371 1.147.366 1.891 1.129.75.756 1.11 1.91.366 1.147.366 2.71zm-4.471.124q0-.906-.105-1.52-.1-.62-.323-.998-.217-.378-.558-.54-.341-.167-.818-.167-.893 0-1.39.781-.49.782-.49 2.419 0 .998.087 1.68.093.683.298 1.104.205.416.54.596.334.18.83.18.534 0 .9-.199.372-.205.595-.633.23-.427.329-1.097.105-.67.105-1.606z" style="-inkscape-font-specification:'Auto 1 Bold'" fill="#d62728"/><path d="M54.415 10.238q-.384-.037-.67-.068-.285-.037-.551-.037-.354 0-.602.056-.242.05-.465.186-.217.136-.453.378-.23.242-.564.626v7.367H46.82V6.48l3.43-.204q.067.142.123.384.062.242.112.533.056.292.099.602.043.31.068.589.335-.657.626-1.067.292-.409.59-.632.297-.23.614-.304.322-.08.713-.08.421 0 .862.068.446.068.812.186z" style="-inkscape-font-specification:'Auto 1 Bold'" fill="#9467bd"/><path d="M56.046 18.746V6.58l4.267-.204v12.371zm.05-14.2V.942h4.117v3.602z" style="-inkscape-font-specification:'Auto 1 Bold'" fill="#8c564b"/><path d="M74.78 12.322q0 1.426-.428 2.641-.428 1.216-1.271 2.103-.837.886-2.078 1.389-1.234.496-2.852.496-1.55 0-2.685-.385-1.129-.384-1.867-1.153-.738-.775-1.091-1.935-.354-1.166-.354-2.728 0-1.476.447-2.685.453-1.21 1.296-2.065.85-.862 2.065-1.328 1.215-.47 2.747-.47 1.563 0 2.704.371 1.147.366 1.891 1.129.75.756 1.11 1.91.366 1.147.366 2.71zm-4.471.124q0-.906-.106-1.52-.099-.62-.322-.998-.217-.378-.558-.54-.341-.167-.819-.167-.893 0-1.389.781-.49.782-.49 2.419 0 .998.087 1.68.093.683.298 1.104.205.416.54.596.334.18.83.18.534 0 .9-.199.372-.205.595-.633.23-.427.328-1.097.106-.67.106-1.606z" style="-inkscape-font-specification:'Auto 1 Bold'" fill="#e377c2"/></g></svg>