<svg xmlns:xlink="http://www.w3.org/1999/xlink" width="536.394" height="318.779" viewBox="0 0 402.296 239.084" xmlns="http://www.w3.org/2000/svg"><defs><style>*{stroke-linejoin:round;stroke-linecap:butt}</style></defs><g id="figure_1"><path d="M0 239.084h402.296V0H0v239.084z" style="fill:none" id="patch_1"/><g id="axes_1"><path d="M37.976 213.08h357.12V7.2H37.976v205.88z" style="fill:none" id="patch_2"/><g id="matplotlib.axis_1"><g id="xtick_1"><path d="M75.852 213.08V7.2" clip-path="url(#p971557ade7)" style="fill:none;stroke:#b0b0b0;stroke-width:.8;stroke-linecap:square" id="line2d_1"/><g id="line2d_2"><defs><path id="md2c1016e31" d="M0 0v3.5" style="stroke:#000;stroke-width:.8"/></defs><use xlink:href="#md2c1016e31" x="75.852" y="213.081" style="stroke:#000;stroke-width:.8"/></g><g transform="matrix(.13 0 0 -.13 67.838 229.31)" id="text_1"><defs><path id="MyriadPro-Regular-34" d="M2560 0v1133h582v441h-582v2586h-608L96 1504v-371h1933V0h531zM666 1574v13l1017 1415c115 192 218 371 346 614h19c-13-218-19-435-19-653V1574H666z" transform="scale(.01563)"/><path id="MyriadPro-Regular-2e" d="M710-70c237 0 384 172 384 403 0 237-153 403-377 403S333 570 333 333c0-231 153-403 371-403h6z" transform="scale(.01563)"/><path id="MyriadPro-Regular-32" d="M2944 0v467H1075v13l333 307c877 845 1434 1466 1434 2234 0 595-378 1209-1274 1209-480 0-890-179-1178-422l180-397c192 160 505 352 883 352 621 0 825-390 825-813-6-627-486-1164-1548-2176L288 346V0h2656z" transform="scale(.01563)"/></defs><use xlink:href="#MyriadPro-Regular-34"/><use xlink:href="#MyriadPro-Regular-2e" x="51.3"/><use xlink:href="#MyriadPro-Regular-32" x="72"/></g></g><g id="xtick_2"><path d="M119.14 213.08V7.2" clip-path="url(#p971557ade7)" style="fill:none;stroke:#b0b0b0;stroke-width:.8;stroke-linecap:square" id="line2d_3"/><use xlink:href="#md2c1016e31" x="119.139" y="213.081" style="stroke:#000;stroke-width:.8" id="line2d_4"/><g transform="matrix(.13 0 0 -.13 111.125 229.31)" id="text_2"><use xlink:href="#MyriadPro-Regular-34"/><use xlink:href="#MyriadPro-Regular-2e" x="51.3"/><use xlink:href="#MyriadPro-Regular-34" x="72"/></g></g><g id="xtick_3"><path d="M162.427 213.08V7.2" clip-path="url(#p971557ade7)" style="fill:none;stroke:#b0b0b0;stroke-width:.8;stroke-linecap:square" id="line2d_5"/><use xlink:href="#md2c1016e31" x="162.427" y="213.081" style="stroke:#000;stroke-width:.8" id="line2d_6"/><g transform="matrix(.13 0 0 -.13 154.412 229.31)" id="text_3"><defs><path id="MyriadPro-Regular-36" d="M2662 4224c-102 0-243-6-409-32-525-64-986-275-1331-614-410-410-704-1056-704-1876C218 621 800-70 1690-70c864 0 1382 704 1382 1465 0 813-518 1344-1254 1344-461 0-807-217-1005-480h-19c96 685 563 1331 1446 1479 160 25 307 32 422 25v461zM1690 365c-589 0-903 505-916 1190 0 103 26 186 64 250 154 301 468 512 807 512 518 0 857-359 857-954s-326-998-806-998h-6z" transform="scale(.01563)"/></defs><use xlink:href="#MyriadPro-Regular-34"/><use xlink:href="#MyriadPro-Regular-2e" x="51.3"/><use xlink:href="#MyriadPro-Regular-36" x="72"/></g></g><g id="xtick_4"><path d="M205.714 213.08V7.2" clip-path="url(#p971557ade7)" style="fill:none;stroke:#b0b0b0;stroke-width:.8;stroke-linecap:square" id="line2d_7"/><use xlink:href="#md2c1016e31" x="205.714" y="213.081" style="stroke:#000;stroke-width:.8" id="line2d_8"/><g transform="matrix(.13 0 0 -.13 197.7 229.31)" id="text_4"><defs><path id="MyriadPro-Regular-38" d="M1062 2170c-512-218-825-589-825-1114C237 448 762-70 1632-70c794 0 1414 486 1414 1209 0 506-320 871-838 1075v20c512 243 685 620 685 972 0 519-403 1024-1210 1024-729 0-1286-448-1286-1107 0-358 198-717 659-934l6-19zm583-1831c-531 0-851 371-832 794 0 397 262 717 749 857 563-160 915-403 915-908 0-423-327-743-832-743zm6 3488c506 0 704-345 704-678 0-378-275-634-633-755-480 128-794 352-794 768 0 358 256 665 723 665z" transform="scale(.01563)"/></defs><use xlink:href="#MyriadPro-Regular-34"/><use xlink:href="#MyriadPro-Regular-2e" x="51.3"/><use xlink:href="#MyriadPro-Regular-38" x="72"/></g></g><g id="xtick_5"><path d="M249.001 213.08V7.2" clip-path="url(#p971557ade7)" style="fill:none;stroke:#b0b0b0;stroke-width:.8;stroke-linecap:square" id="line2d_9"/><use xlink:href="#md2c1016e31" x="249.001" y="213.081" style="stroke:#000;stroke-width:.8" id="line2d_10"/><g transform="matrix(.13 0 0 -.13 240.987 229.31)" id="text_5"><defs><path id="MyriadPro-Regular-35" d="M2771 4160H781L512 2163c154 19 339 45 576 45 832 0 1190-384 1197-922 0-556-455-902-986-902-377 0-717 128-889 230L269 186C467 58 851-70 1306-70c902 0 1548 608 1548 1420 0 525-268 884-595 1069-256 154-576 224-896 224-153 0-243-13-339-25l160 1068h1587v474z" transform="scale(.01563)"/><path id="MyriadPro-Regular-30" d="M1677 4230c-845 0-1447-768-1447-2163C243 691 794-70 1606-70c922 0 1447 780 1447 2195 0 1325-499 2105-1376 2105zm-32-435c582 0 845-672 845-1696 0-1062-276-1734-852-1734-512 0-844 614-844 1696 0 1133 358 1734 851 1734z" transform="scale(.01563)"/></defs><use xlink:href="#MyriadPro-Regular-35"/><use xlink:href="#MyriadPro-Regular-2e" x="51.3"/><use xlink:href="#MyriadPro-Regular-30" x="72"/></g></g><g id="xtick_6"><path d="M292.289 213.08V7.2" clip-path="url(#p971557ade7)" style="fill:none;stroke:#b0b0b0;stroke-width:.8;stroke-linecap:square" id="line2d_11"/><use xlink:href="#md2c1016e31" x="292.289" y="213.081" style="stroke:#000;stroke-width:.8" id="line2d_12"/><g transform="matrix(.13 0 0 -.13 284.274 229.31)" id="text_6"><use xlink:href="#MyriadPro-Regular-35"/><use xlink:href="#MyriadPro-Regular-2e" x="51.3"/><use xlink:href="#MyriadPro-Regular-32" x="72"/></g></g><g id="xtick_7"><path d="M335.576 213.08V7.2" clip-path="url(#p971557ade7)" style="fill:none;stroke:#b0b0b0;stroke-width:.8;stroke-linecap:square" id="line2d_13"/><use xlink:href="#md2c1016e31" x="335.576" y="213.081" style="stroke:#000;stroke-width:.8" id="line2d_14"/><g transform="matrix(.13 0 0 -.13 327.561 229.31)" id="text_7"><use xlink:href="#MyriadPro-Regular-35"/><use xlink:href="#MyriadPro-Regular-2e" x="51.3"/><use xlink:href="#MyriadPro-Regular-34" x="72"/></g></g><g id="xtick_8"><path d="M378.863 213.08V7.2" clip-path="url(#p971557ade7)" style="fill:none;stroke:#b0b0b0;stroke-width:.8;stroke-linecap:square" id="line2d_15"/><use xlink:href="#md2c1016e31" x="378.863" y="213.081" style="stroke:#000;stroke-width:.8" id="line2d_16"/><g transform="matrix(.13 0 0 -.13 370.849 229.31)" id="text_8"><use xlink:href="#MyriadPro-Regular-35"/><use xlink:href="#MyriadPro-Regular-2e" x="51.3"/><use xlink:href="#MyriadPro-Regular-36" x="72"/></g></g></g><g id="matplotlib.axis_2"><g id="ytick_1"><path d="M37.976 171.688h357.12" clip-path="url(#p971557ade7)" style="fill:none;stroke:#b0b0b0;stroke-width:.8;stroke-linecap:square" id="line2d_17"/><g id="line2d_18"><defs><path id="mdd4a4a4f0c" d="M0 0h-3.5" style="stroke:#000;stroke-width:.8"/></defs><use xlink:href="#mdd4a4a4f0c" x="37.976" y="171.688" style="stroke:#000;stroke-width:.8"/></g><g transform="matrix(.13 0 0 -.13 7.2 176.303)" id="text_9"><defs><path id="MyriadPro-Regular-2212" d="M256 1901v-384h3302v384H256z" transform="scale(.01563)"/></defs><use xlink:href="#MyriadPro-Regular-2212"/><use xlink:href="#MyriadPro-Regular-30" x="59.6"/><use xlink:href="#MyriadPro-Regular-2e" x="110.9"/><use xlink:href="#MyriadPro-Regular-32" x="131.6"/></g></g><g id="ytick_2"><path d="M37.976 128.401h357.12" clip-path="url(#p971557ade7)" style="fill:none;stroke:#b0b0b0;stroke-width:.8;stroke-linecap:square" id="line2d_19"/><use xlink:href="#mdd4a4a4f0c" x="37.976" y="128.401" style="stroke:#000;stroke-width:.8" id="line2d_20"/><g transform="matrix(.13 0 0 -.13 14.947 133.016)" id="text_10"><use xlink:href="#MyriadPro-Regular-30"/><use xlink:href="#MyriadPro-Regular-2e" x="51.3"/><use xlink:href="#MyriadPro-Regular-30" x="72"/></g></g><g id="ytick_3"><path d="M37.976 85.114h357.12" clip-path="url(#p971557ade7)" style="fill:none;stroke:#b0b0b0;stroke-width:.8;stroke-linecap:square" id="line2d_21"/><use xlink:href="#mdd4a4a4f0c" x="37.976" y="85.114" style="stroke:#000;stroke-width:.8" id="line2d_22"/><g transform="matrix(.13 0 0 -.13 14.947 89.729)" id="text_11"><use xlink:href="#MyriadPro-Regular-30"/><use xlink:href="#MyriadPro-Regular-2e" x="51.3"/><use xlink:href="#MyriadPro-Regular-32" x="72"/></g></g><g id="ytick_4"><path d="M37.976 41.827h357.12" clip-path="url(#p971557ade7)" style="fill:none;stroke:#b0b0b0;stroke-width:.8;stroke-linecap:square" id="line2d_23"/><use xlink:href="#mdd4a4a4f0c" x="37.976" y="41.827" style="stroke:#000;stroke-width:.8" id="line2d_24"/><g transform="matrix(.13 0 0 -.13 14.947 46.442)" id="text_12"><use xlink:href="#MyriadPro-Regular-30"/><use xlink:href="#MyriadPro-Regular-2e" x="51.3"/><use xlink:href="#MyriadPro-Regular-34" x="72"/></g></g></g><path d="m54.209 16.558 3.279 6.252 3.28 6.017 3.279 5.786 3.279 5.56 3.28 5.34 3.279 5.121 3.279 4.91 3.28 4.7 3.279 4.499 3.279 4.299 3.28 4.104 3.279 3.915 3.279 3.73 3.28 3.548 3.279 3.372 3.279 3.2 3.28 3.033 3.279 2.87 3.279 2.712 3.28 2.558 3.279 2.409 3.279 2.264 3.28 2.124 3.279 1.988 3.279 1.857 3.28 1.73 3.279 1.609 3.279 1.49 3.28 1.378 3.279 1.27 3.279 1.164 3.28 1.066 3.279.97 3.279.88 3.28.794 3.279.712 3.279.635 3.28.563 3.279.495 3.28.432 3.278.373 3.28.318 3.28.269 3.278.223 3.28.182 3.28.146 3.278.114 3.28.087 3.28.064 3.278.046 3.28.033 3.28.023 3.278.018 3.28.018 3.28.023 3.278.031 3.28.045 3.28.063 3.279.085 3.279.112 3.28.143 3.279.18 3.279.22 3.28.265 3.279.314 3.279.369 3.28.427 3.279.49 3.279.558 3.28.63 3.279.706 3.279.788 3.28.873 3.279.964 3.279 1.058 3.28 1.157 3.279 1.262 3.279 1.369 3.28 1.482 3.279 1.6 3.279 1.72 3.28 1.848 3.279 1.979 3.279 2.113 3.28 2.254 3.279 2.398 3.279 2.547 3.28 2.7 3.279 2.859 3.279 3.02 3.28 3.188 3.279 3.36 3.279 3.534 3.28 3.716 3.279 3.9 3.279 4.091 3.28 4.285 3.279 4.483 3.28 4.686" clip-path="url(#p971557ade7)" style="fill:none;stroke:#1f77b4;stroke-width:1.5;stroke-linecap:square" id="line2d_25"/><path d="M37.976 213.08V7.2" style="fill:none;stroke:#000;stroke-width:.8;stroke-linejoin:miter;stroke-linecap:square" id="patch_3"/><path d="M395.096 213.08V7.2" style="fill:none;stroke:#000;stroke-width:.8;stroke-linejoin:miter;stroke-linecap:square" id="patch_4"/><path d="M37.976 213.08h357.12" style="fill:none;stroke:#000;stroke-width:.8;stroke-linejoin:miter;stroke-linecap:square" id="patch_5"/><path d="M37.976 7.2h357.12" style="fill:none;stroke:#000;stroke-width:.8;stroke-linejoin:miter;stroke-linecap:square" id="patch_6"/></g></g><defs><clipPath id="p971557ade7"><path d="M37.976 7.2h357.12v205.881H37.976z"/></clipPath></defs></svg>