<svg height="476.965" viewBox="0 0 410.788 357.724" width="547.717" xmlns="http://www.w3.org/2000/svg" xmlns:xlink="http://www.w3.org/1999/xlink"><defs><style>*{stroke-linecap:butt;stroke-linejoin:round}</style></defs><g id="figure_1"><path d="M0 357.724h410.788V0H0z" fill="none" id="patch_1"/><g id="axes_1"><path d="M46.468 313.628h357.12V47.516H46.468z" fill="none" id="patch_2"/><g id="matplotlib.axis_1"><g id="xtick_1"><g id="line2d_1"><defs><path d="M0 0v3.5" id="m406a5a36ae" stroke="#969696" stroke-width=".4"/></defs><use x="46.468" xlink:href="#m406a5a36ae" y="313.628" fill="#969696" stroke="#969696" stroke-width=".4"/></g><g transform="matrix(.14 0 0 -.14 42.575 330.678)" fill="#969696" id="text_1"><defs><path d="M42.484 34.188q0 14.109-3.734 21.156-3.734 7.062-10.969 7.062-7.078 0-10.89-7.062-3.797-7.047-3.797-21.157 0-13.671 3.75-20.937Q20.609 6 27.78 6q7.235 0 10.969 7 3.734 7.016 3.734 21.188zm9.422 0q0-17.297-6.25-26.704-6.25-9.39-17.875-9.39-12.062 0-18.062 9.734-6 9.75-6 26.36 0 17.03 6.14 26.578 6.157 9.547 17.922 9.547 11.625 0 17.875-9.5t6.25-26.626z" id="HelveticaWorld-Regular-48"/></defs><use xlink:href="#HelveticaWorld-Regular-48"/></g></g><g id="xtick_2"><use x="94.521" xlink:href="#m406a5a36ae" y="313.628" fill="#969696" stroke="#969696" stroke-width=".4" id="line2d_2"/><g transform="matrix(.14 0 0 -.14 78.95 330.678)" fill="#969696" id="text_2"><defs><path d="M35.89 0h-9.374v49.906H10.109v6.985q8.594.28 12.782 2.75Q27.094 62.109 29 70.313h6.89z" id="HelveticaWorld-Regular-49"/></defs><use xlink:href="#HelveticaWorld-Regular-49"/><use x="55.615" xlink:href="#HelveticaWorld-Regular-48"/><use x="111.23" xlink:href="#HelveticaWorld-Regular-48"/><use x="166.846" xlink:href="#HelveticaWorld-Regular-48"/></g></g><g id="xtick_3"><use x="142.574" xlink:href="#m406a5a36ae" y="313.628" fill="#969696" stroke="#969696" stroke-width=".4" id="line2d_3"/><g transform="matrix(.14 0 0 -.14 127.004 330.678)" fill="#969696" id="text_3"><defs><path d="M4.39 45.125q0 12.39 6.391 18.781 6.406 6.407 17.938 6.407 9.656 0 15.812-5.86 6.157-5.86 6.157-15.14 0-7.22-3.547-12.188-3.532-4.953-10.422-8.703l-12.11-6.64Q13.922 15.921 12.5 8.296h38.188V0H2.593q.39 9.906 4.297 16.5 3.906 6.594 12.203 11.375l12.593 7.328q5.032 2.89 7.329 5.984 2.297 3.094 2.297 8.516 0 5.375-3.766 9.031-3.75 3.672-10.156 3.672-7.078 0-10.594-4.672-3.516-4.656-3.61-12.609z" id="HelveticaWorld-Regular-50"/></defs><use xlink:href="#HelveticaWorld-Regular-50"/><use x="55.615" xlink:href="#HelveticaWorld-Regular-48"/><use x="111.23" xlink:href="#HelveticaWorld-Regular-48"/><use x="166.846" xlink:href="#HelveticaWorld-Regular-48"/></g></g><g id="xtick_4"><use x="190.628" xlink:href="#m406a5a36ae" y="313.628" fill="#969696" stroke="#969696" stroke-width=".4" id="line2d_4"/><g transform="matrix(.14 0 0 -.14 175.057 330.678)" fill="#969696" id="text_4"><defs><path d="M22.406 39.984q2.203-.187 4.594-.187 6.203 0 9.781 2.86 3.594 2.859 3.594 8.656 0 4.687-3.344 7.89-3.343 3.203-9.64 3.203-6.985 0-10.235-4.11-3.234-4.093-3.437-10.983h-8.64q0 10.984 5.765 16.984 5.765 6.016 16.937 6.016 9.922 0 15.828-5.11 5.907-5.094 5.907-13.39 0-10.704-9.032-14.5v-.204q11.72-4 11.72-16.406 0-9.906-6.595-16.265-6.593-6.344-18.703-6.344-9.906 0-16.312 5.203Q4.204 8.5 3.422 21.484H12.5q.203-8.109 4-11.797Q20.313 6 27.484 6q6.938 0 11.141 3.86 4.203 3.859 4.203 9.718 0 6.406-4.016 9.672-4 3.266-12.39 3.266-2 0-4.016-.094z" id="HelveticaWorld-Regular-51"/></defs><use xlink:href="#HelveticaWorld-Regular-51"/><use x="55.615" xlink:href="#HelveticaWorld-Regular-48"/><use x="111.23" xlink:href="#HelveticaWorld-Regular-48"/><use x="166.846" xlink:href="#HelveticaWorld-Regular-48"/></g></g><g id="xtick_5"><use x="238.681" xlink:href="#m406a5a36ae" y="313.628" fill="#969696" stroke="#969696" stroke-width=".4" id="line2d_5"/><g transform="matrix(.14 0 0 -.14 223.11 330.678)" fill="#969696" id="text_5"><defs><path d="M10.594 24.703h22.61v31.89h-.188zM42 17.093V0h-8.797v17.094H2.484v8.593L34.72 70.314H42v-45.61h10.297v-7.61z" id="HelveticaWorld-Regular-52"/></defs><use xlink:href="#HelveticaWorld-Regular-52"/><use x="55.615" xlink:href="#HelveticaWorld-Regular-48"/><use x="111.23" xlink:href="#HelveticaWorld-Regular-48"/><use x="166.846" xlink:href="#HelveticaWorld-Regular-48"/></g></g><g id="xtick_6"><use x="286.734" xlink:href="#m406a5a36ae" y="313.628" fill="#969696" stroke="#969696" stroke-width=".4" id="line2d_6"/><g transform="matrix(.14 0 0 -.14 271.163 330.678)" fill="#969696" id="text_6"><defs><path d="M14.703 40.922q5.813 4.39 13.625 4.39 9.469 0 16.281-6.296 6.813-6.297 6.813-16.22 0-10.78-6.578-17.796-6.563-7-18.422-7-10.313 0-16.266 5.047Q4.203 8.109 3.22 17.39h9.094q.671-5.672 4.437-8.672 3.766-3 10.453-3 6.485 0 10.64 4.484Q42 14.703 42 21.688q0 7.125-4.36 11.421-4.343 4.297-11.218 4.297-7.813 0-13.047-6.687l-7.563.39 5.266 37.594h36.438v-8.5H17.672z" id="HelveticaWorld-Regular-53"/></defs><use xlink:href="#HelveticaWorld-Regular-53"/><use x="55.615" xlink:href="#HelveticaWorld-Regular-48"/><use x="111.23" xlink:href="#HelveticaWorld-Regular-48"/><use x="166.846" xlink:href="#HelveticaWorld-Regular-48"/></g></g><g id="xtick_7"><use x="334.787" xlink:href="#m406a5a36ae" y="313.628" fill="#969696" stroke="#969696" stroke-width=".4" id="line2d_7"/><g transform="matrix(.14 0 0 -.14 319.217 330.678)" fill="#969696" id="text_7"><defs><path d="M14.11 21.578q0-6.875 4.093-11.234Q22.313 6 28.906 6q6.297 0 10.032 4.438 3.734 4.453 3.734 11.687 0 6.297-3.688 10.547-3.687 4.25-10.468 4.25-6.594 0-10.5-4.156-3.907-4.157-3.907-11.188zM41.702 51.61q-.984 5.375-3.984 8.078-3 2.72-8.125 2.72-8.11 0-12.36-7.923-4.25-7.906-4.343-18.109l.203-.188q5.61 8.641 16.687 8.641 8.844 0 15.438-5.86 6.593-5.859 6.593-16.452 0-10.5-6.25-17.47-6.25-6.952-16.843-6.952-12.219 0-18.563 8.687-6.344 8.703-6.344 25.938 0 16.593 6.485 27.093 6.5 10.5 19.484 10.5 8.407 0 14.219-5.015 5.813-5 6.297-13.688z" id="HelveticaWorld-Regular-54"/></defs><use xlink:href="#HelveticaWorld-Regular-54"/><use x="55.615" xlink:href="#HelveticaWorld-Regular-48"/><use x="111.23" xlink:href="#HelveticaWorld-Regular-48"/><use x="166.846" xlink:href="#HelveticaWorld-Regular-48"/></g></g><g id="xtick_8"><use x="382.841" xlink:href="#m406a5a36ae" y="313.628" fill="#969696" stroke="#969696" stroke-width=".4" id="line2d_8"/><g transform="matrix(.14 0 0 -.14 367.27 330.678)" fill="#969696" id="text_8"><defs><path d="M3.719 68.797h48.578v-7.719Q42.28 50.875 33.984 33.484 25.687 16.11 23.391 0h-9.672q1.469 13.281 9.719 30.531 8.25 17.266 18.953 29.672H3.719z" id="HelveticaWorld-Regular-55"/></defs><use xlink:href="#HelveticaWorld-Regular-55"/><use x="55.615" xlink:href="#HelveticaWorld-Regular-48"/><use x="111.23" xlink:href="#HelveticaWorld-Regular-48"/><use x="166.846" xlink:href="#HelveticaWorld-Regular-48"/></g></g><g transform="matrix(.14 0 0 -.14 220.492 347.625)" fill="#969696" id="text_9"><defs><path d="M37.313 0h-9.72v28.906L.485 71.781h11.329l20.609-34.469 20.562 34.47h11.422L37.312 28.905z" id="HelveticaWorld-Regular-89"/></defs><use xlink:href="#HelveticaWorld-Regular-89"/></g></g><g id="matplotlib.axis_2"><g id="ytick_1"><path clip-path="url(#p80a7589fbe)" d="M46.468 313.628h357.12" fill="none" stroke="#969696" stroke-linecap="square" stroke-width=".3" id="line2d_9"/><g id="line2d_10"><defs><path d="M0 0h-3.5" id="m589b0aa169" stroke="#969696" stroke-width=".3"/></defs><use x="46.468" xlink:href="#m589b0aa169" y="313.628" fill="#969696" stroke="#969696" stroke-width=".3"/></g><use xlink:href="#HelveticaWorld-Regular-48" transform="matrix(.14 0 0 -.14 31.683 318.653)" fill="#969696" id="text_10"/></g><g id="ytick_2"><path clip-path="url(#p80a7589fbe)" d="M46.468 264.025h357.12" fill="none" stroke="#969696" stroke-linecap="square" stroke-width=".3" id="line2d_11"/><use x="46.468" xlink:href="#m589b0aa169" y="264.025" fill="#969696" stroke="#969696" stroke-width=".3" id="line2d_12"/><g transform="matrix(.14 0 0 -.14 23.897 269.05)" fill="#969696" id="text_11"><use xlink:href="#HelveticaWorld-Regular-53"/><use x="55.615" xlink:href="#HelveticaWorld-Regular-48"/></g></g><g id="ytick_3"><path clip-path="url(#p80a7589fbe)" d="M46.468 214.421h357.12" fill="none" stroke="#969696" stroke-linecap="square" stroke-width=".3" id="line2d_13"/><use x="46.468" xlink:href="#m589b0aa169" y="214.421" fill="#969696" stroke="#969696" stroke-width=".3" id="line2d_14"/><g transform="matrix(.14 0 0 -.14 16.112 219.446)" fill="#969696" id="text_12"><use xlink:href="#HelveticaWorld-Regular-49"/><use x="55.615" xlink:href="#HelveticaWorld-Regular-48"/><use x="111.23" xlink:href="#HelveticaWorld-Regular-48"/></g></g><g id="ytick_4"><path clip-path="url(#p80a7589fbe)" d="M46.468 164.818h357.12" fill="none" stroke="#969696" stroke-linecap="square" stroke-width=".3" id="line2d_15"/><use x="46.468" xlink:href="#m589b0aa169" y="164.818" fill="#969696" stroke="#969696" stroke-width=".3" id="line2d_16"/><g transform="matrix(.14 0 0 -.14 16.112 169.842)" fill="#969696" id="text_13"><use xlink:href="#HelveticaWorld-Regular-49"/><use x="55.615" xlink:href="#HelveticaWorld-Regular-53"/><use x="111.23" xlink:href="#HelveticaWorld-Regular-48"/></g></g><g id="ytick_5"><path clip-path="url(#p80a7589fbe)" d="M46.468 115.214h357.12" fill="none" stroke="#969696" stroke-linecap="square" stroke-width=".3" id="line2d_17"/><use x="46.468" xlink:href="#m589b0aa169" y="115.214" fill="#969696" stroke="#969696" stroke-width=".3" id="line2d_18"/><g transform="matrix(.14 0 0 -.14 16.112 120.239)" fill="#969696" id="text_14"><use xlink:href="#HelveticaWorld-Regular-50"/><use x="55.615" xlink:href="#HelveticaWorld-Regular-48"/><use x="111.23" xlink:href="#HelveticaWorld-Regular-48"/></g></g><g id="ytick_6"><path clip-path="url(#p80a7589fbe)" d="M46.468 65.61h357.12" fill="none" stroke="#969696" stroke-linecap="square" stroke-width=".3" id="line2d_19"/><use x="46.468" xlink:href="#m589b0aa169" y="65.61" fill="#969696" stroke="#969696" stroke-width=".3" id="line2d_20"/><g transform="matrix(.14 0 0 -.14 16.112 70.635)" fill="#969696" id="text_15"><use xlink:href="#HelveticaWorld-Regular-50"/><use x="55.615" xlink:href="#HelveticaWorld-Regular-53"/><use x="111.23" xlink:href="#HelveticaWorld-Regular-48"/></g></g><g transform="matrix(.14 0 0 -.14 7.2 177.674)" fill="#969696" id="text_16"><defs><path d="M11.766 23.094v-4.875q0-5.813 2.562-8.828 2.563-3 8.235-3 5.906 0 8.703 3.093 2.812 3.11 2.812 9.313V71.78h9.719v-52.39q0-10.313-5.469-15.813-5.469-5.484-15.234-5.484-9.61 0-15.016 4.906-5.39 4.906-5.39 13.11v6.984z" id="HelveticaWorld-Regular-74"/><path d="M5.906 71.781h7.282V46.297H5.905z" id="HelveticaWorld-Regular-39"/></defs><use xlink:href="#HelveticaWorld-Regular-74"/><use x="51.074" xlink:href="#HelveticaWorld-Regular-39"/></g></g><g id="line2d_21"><defs><path d="M0 3a3 3 0 100-6 3 3 0 000 6z" id="me469ada869" stroke="#1f77b4"/></defs><g clip-path="url(#p80a7589fbe)" fill="#1f77b4" stroke="#1f77b4"><use x="403.588" xlink:href="#me469ada869" y="47.516"/><use x="267.569" xlink:href="#me469ada869" y="64.148"/><use x="223.558" xlink:href="#me469ada869" y="80.78"/><use x="196.62" xlink:href="#me469ada869" y="97.412"/><use x="169.654" xlink:href="#me469ada869" y="114.044"/><use x="131.748" xlink:href="#me469ada869" y="130.676"/><use x="118.045" xlink:href="#me469ada869" y="147.308"/><use x="100.898" xlink:href="#me469ada869" y="163.94"/><use x="94.376" xlink:href="#me469ada869" y="180.572"/><use x="87.58" xlink:href="#me469ada869" y="197.204"/><use x="77.877" xlink:href="#me469ada869" y="213.836"/><use x="68.198" xlink:href="#me469ada869" y="230.468"/><use x="61.107" xlink:href="#me469ada869" y="247.1"/><use x="56.435" xlink:href="#me469ada869" y="263.732"/><use x="52.61" xlink:href="#me469ada869" y="280.364"/><use x="49.343" xlink:href="#me469ada869" y="296.996"/><use x="46.468" xlink:href="#me469ada869" y="313.628"/></g></g><path clip-path="url(#p80a7589fbe)" d="M403.588 103.678l-136.019 7.045-44.011 3.746-26.938 2.985-26.966 3.83-37.906 7.8-13.703 4.03-17.147 6.727-6.522 3.21-6.796 4.1-9.703 7.56-9.679 10.969-7.091 12.396-4.672 12.449-3.825 15.788-3.267 23.805-2.875 83.51" fill="none" stroke="#ff7f0e" stroke-linecap="square" stroke-width="1.5" id="line2d_22"/><g transform="matrix(.14 0 0 -.14 121.367 17.516)" fill="#969696" id="text_17"><defs><path d="M17.828 0H8.11v71.781h49.703v-8.594H17.828V41.22h35.156v-8.594H17.828z" id="HelveticaWorld-Regular-70"/><path d="M38.375 26.703q-.969-1.015-3.828-1.656-2.86-.625-10.672-1.656-5.766-.688-8.469-2.844-2.703-2.14-2.703-5.656 0-4.297 2.281-6.688 2.297-2.39 7.329-2.39 6.296 0 11.171 3.578 4.891 3.593 4.891 8.718zM6.203 36.375q.297 8.844 5.734 13.14 5.454 4.297 15.844 4.297 8.297 0 13.907-3.765 5.624-3.75 5.624-10.844V9.078Q47.313 6 50.094 6q1.125 0 2.89.39V0Q50.594-.984 48-.984q-4.5 0-6.703 1.921-2.188 1.938-2.281 6.047-7.516-8.5-18.891-8.5-7.422 0-11.922 4.204Q3.72 6.89 3.72 13.624q0 6.89 3.906 11.125Q11.531 29 19 29.89l15.516 1.891q4.203.64 4.203 6.203 0 4.11-3.047 6.297-3.047 2.203-9.25 2.203-5.516 0-8.485-2.437-2.953-2.438-3.53-7.672z" id="HelveticaWorld-Regular-97"/><path d="M6.594 61.813v9.968h8.781v-9.969zM15.375 0H6.594v52.297h8.781z" id="HelveticaWorld-Regular-105"/><path d="M15.375 0H6.594v52.297h8.297v-8.688h.203q5.703 10.203 14.687 10.203 1.422 0 2.297-.296V44.39h-3.266q-5.906 0-9.671-4.016-3.766-4-3.766-9.953z" id="HelveticaWorld-Regular-114"/><path d="M39.594 34.719q-1.89 11.187-12.39 11.187-6.5 0-10.454-5.203-3.953-5.203-3.953-14.484 0-10.11 3.656-15.11 3.672-5 10.64-5 4.688 0 8.11 3.438 3.422 3.437 4.39 8.953h8.5q-1.312-9.703-6.859-14.86-5.547-5.156-14.328-5.156-10.297 0-16.89 7.047-6.594 7.063-6.594 19.172 0 13.281 6.594 21.188 6.593 7.922 18.5 7.922 8.687 0 13.843-5.204 5.157-5.203 5.735-13.89z" id="HelveticaWorld-Regular-99"/><path d="M49.219 0h-8.844v34.188q0 6.296-2.438 9-2.437 2.718-7.953 2.718-6.797 0-10.703-4.406-3.906-4.39-3.906-12.984V0H6.594v71.781h8.781V45.312h.203q6 8.5 15.328 8.5 8.594 0 13.453-4.5 4.86-4.484 4.86-13.718z" id="HelveticaWorld-Regular-104"/><path d="M15.375 0H6.594v71.781h8.781z" id="HelveticaWorld-Regular-108"/><path d="M13.094 26.313q0-9.704 3.844-14.954 3.859-5.25 10.265-5.25 6.094 0 10.188 4.485 4.109 4.5 4.109 13.094 0 11.03-3.5 16.625-3.484 5.593-10.61 5.593-6.78 0-10.546-4.453-3.75-4.437-3.75-15.14zM50.39 0h-8.297v7.172h-.203q-4.97-8.688-15.078-8.688-10.891 0-16.86 8.297Q4 15.094 4 27.688q0 11.625 5.906 18.875 5.922 7.25 15.875 7.25 9.813 0 15.625-8.891l.203.594V71.78h8.782z" id="HelveticaWorld-Regular-100"/><path d="M28.906 23.188H4.391v8.984h24.515z" id="HelveticaWorld-Regular-45"/><path d="M58.016 50.203q-1.625 7.313-6.782 11.094-5.14 3.797-13.343 3.797-10.594 0-17.047-7.703-6.438-7.688-6.438-20.766 0-15.14 6.094-22.547 6.11-7.39 17.688-7.39 7.609 0 13.093 5.046 5.5 5.063 7.407 14.688h9.421Q66.22 12.594 57.625 5.344t-20.906-7.25q-14.703 0-23.516 10.11Q4.391 18.311 4.391 36.28q0 17.328 9.203 27.36 9.203 10.047 24.297 10.047 12.5 0 20.265-6.454 7.766-6.437 9.235-17.03z" id="HelveticaWorld-Regular-67"/><path d="M42.484 30.328q-.687 8.485-4.5 12.031-3.797 3.547-10.109 3.547-6.39 0-10.328-4.5-3.922-4.484-4.172-11.078zm8.391-13.922q-1.453-8.11-7.953-13.422-5.719-4.5-15.047-4.593-10.984.093-17.438 7.203Q4 12.704 4 24.704q0 13.78 6.64 21.437 6.641 7.672 18.47 7.672 10.593 0 16.546-7.922 5.953-7.907 5.953-22.594H13.375q0-8.203 3.813-12.703Q21 6.109 28.608 6.109q5.375 0 9.235 3.235 3.86 3.25 4.25 7.062z" id="HelveticaWorld-Regular-101"/><path d="M49.219 0h-8.844v32.172q0 7.422-2.594 10.578-2.578 3.156-8.578 3.156-5.906 0-9.875-4.5-3.953-4.484-3.953-12.89V0H6.594v52.297h8.297v-7.375h.203q6.203 8.89 15.812 8.89 8.89 0 13.594-4.718 4.719-4.703 4.719-13.5z" id="HelveticaWorld-Regular-110"/><path d="M50.39 50.781q-.296 6.844-5.109 10.719-4.797 3.875-12.656 3.875-7.922 0-12.172-3.25-4.234-3.234-4.234-9.344 0-3.265 1.843-5.61 1.86-2.343 6.641-3.468l20.516-4.687q8.297-1.813 12.297-6.875 4.015-5.047 4.015-12.313 0-10.64-7.812-16.187-7.813-5.547-20.313-5.547-9.531 0-15.031 2.437-5.484 2.453-9.734 7.766-4.25 5.328-4.25 14.89h9.093q0-8 5.313-12.406 5.328-4.39 14.5-4.39 8.89 0 13.844 3.156 4.953 3.156 4.953 8.953 0 5.281-2.953 7.89Q46.188 29 37.594 31l-15.469 3.625q-7.719 1.75-11.531 6.125Q6.78 45.125 6.78 51.516q0 9.672 6.516 15.922 6.531 6.25 18.203 6.25 13.172 0 20.328-5.5 7.156-5.485 7.688-17.407z" id="HelveticaWorld-Regular-83"/><path d="M17.672 8.594h36.531V0H8.11v71.781h9.563z" id="HelveticaWorld-Regular-76"/><path d="M12.984 26.313q0-9.61 3.813-14.907Q20.609 6.11 27.094 6.11q6.312 0 10.312 4.579 4 4.593 4 13 0 11.03-3.5 16.625-3.484 5.593-10.61 5.593-7.171 0-10.75-4.765-3.562-4.766-3.562-14.828zM49.812 2.983q0-12.609-6.062-18.797-6.047-6.203-18.266-6.203-8.78 0-13.984 4.047Q6.297-13.922 5.516-6.39h8.796q.672-3.812 3.532-6.062 2.86-2.25 8.281-2.25 7.375 0 11.125 3.969 3.766 3.953 3.766 12.828v3.719h-.188q-4.937-7.329-13.922-7.329-11.187 0-17.093 8.25-5.907 8.25-5.907 20.953 0 11.625 5.953 18.875 5.97 7.25 15.829 7.25 9.906 0 15.625-8.89h.187v7.375h8.313z" id="HelveticaWorld-Regular-103"/><path d="M17.188 45.016V10.984q0-2 1.093-3.046 1.11-1.047 3.938-1.047h3.375V0Q20.797-.688 19-.688q-5.516 0-8.063 2.641-2.53 2.64-2.53 8.547v34.516H1.311v7.28h7.094v14.595h8.781V52.297h8.407v-7.281z" id="HelveticaWorld-Regular-116"/><path d="M36.078 37.406q-.187 4.688-3.344 6.735-3.14 2.047-9.047 2.047-4.296 0-7.359-1.907-3.047-1.89-3.047-5.468 0-2.829 1.797-4.172 1.813-1.344 7.828-2.86l8.688-2.187q7.906-2 11.297-5.11 3.406-3.093 3.406-8.656 0-7.719-5.64-12.531-5.641-4.813-15.063-4.813-11 0-16.64 4.563-5.626 4.578-5.735 13.75h8.5q.203-5.422 3.594-8.063 3.39-2.625 10.171-2.625 5.516 0 8.766 2.188 3.25 2.203 3.25 6.11 0 2.78-2.11 4.437-2.093 1.672-8.296 3.078l-10.203 2.5q-6.203 1.562-9.157 4.656-2.953 3.094-2.953 8.031 0 7.72 5.516 12.203 5.531 4.5 14.406 4.5 9.485 0 14.531-4.624 5.047-4.61 5.344-11.782z" id="HelveticaWorld-Regular-115"/></defs><use xlink:href="#HelveticaWorld-Regular-70"/><use x="54.891" xlink:href="#HelveticaWorld-Regular-97"/><use x="109.822" xlink:href="#HelveticaWorld-Regular-105"/><use x="131.844" xlink:href="#HelveticaWorld-Regular-114"/><use x="163.412" xlink:href="#HelveticaWorld-Regular-99"/><use x="214.682" xlink:href="#HelveticaWorld-Regular-104"/><use x="269.857" xlink:href="#HelveticaWorld-Regular-105"/><use x="291.879" xlink:href="#HelveticaWorld-Regular-108"/><use x="313.9" xlink:href="#HelveticaWorld-Regular-100"/><use x="370.883" xlink:href="#HelveticaWorld-Regular-45"/><use x="404.184" xlink:href="#HelveticaWorld-Regular-67"/><use x="476.498" xlink:href="#HelveticaWorld-Regular-104"/><use x="531.674" xlink:href="#HelveticaWorld-Regular-101"/><use x="587.094" xlink:href="#HelveticaWorld-Regular-110"/><use x="642.27" xlink:href="#HelveticaWorld-Regular-32"/><use x="666.684" xlink:href="#HelveticaWorld-Regular-83"/><use x="732.895" xlink:href="#HelveticaWorld-Regular-76"/><use x="788.51" xlink:href="#HelveticaWorld-Regular-50"/><use x="844.125" xlink:href="#HelveticaWorld-Regular-32"/><use x="868.539" xlink:href="#HelveticaWorld-Regular-108"/><use x="890.561" xlink:href="#HelveticaWorld-Regular-105"/><use x="912.582" xlink:href="#HelveticaWorld-Regular-103"/><use x="968.49" xlink:href="#HelveticaWorld-Regular-104"/><use x="1023.666" xlink:href="#HelveticaWorld-Regular-116"/><use x="1051.352" xlink:href="#HelveticaWorld-Regular-110"/><use x="1106.527" xlink:href="#HelveticaWorld-Regular-101"/><use x="1161.947" xlink:href="#HelveticaWorld-Regular-115"/><use x="1211.947" xlink:href="#HelveticaWorld-Regular-115"/><use x="1261.947" xlink:href="#HelveticaWorld-Regular-32"/><use x="1286.361" xlink:href="#HelveticaWorld-Regular-100"/><use x="1343.344" xlink:href="#HelveticaWorld-Regular-97"/><use x="1398.275" xlink:href="#HelveticaWorld-Regular-116"/><use x="1425.961" xlink:href="#HelveticaWorld-Regular-97"/></g><g id="legend_1"><path d="M216.137 306.628h177.651q2.8 0 2.8-2.8v-38.974q0-2.8-2.8-2.8H216.137q-2.8 0-2.8 2.8v38.974q0 2.8 2.8 2.8z" fill="#fff" opacity=".8" stroke="#ccc" id="patch_3"/><use x="232.937" xlink:href="#me469ada869" y="273.015" fill="#1f77b4" stroke="#1f77b4" id="line2d_24"/><g transform="matrix(.14 0 0 -.14 258.137 277.915)" fill="#969696" id="text_18"><defs><path d="M49.031 0H37.703l-12.89 19.672L12.203 0H1.125l18.266 26.906L2 52.296h11.188l12.109-18.405L37.5 52.297h10.688l-17.579-25.39z" id="HelveticaWorld-Regular-120"/><path d="M14.984 23.688q0-8.407 4.094-13 4.11-4.579 10.219-4.579 6.687 0 10.39 5.438 3.72 5.453 3.72 14.765 0 10.22-3.563 14.907-3.563 4.687-10.735 4.687-6.984 0-10.562-5.5-3.563-5.5-3.563-16.718zm-8.39 28.609h8.297v-7.375h.203q5.61 8.89 15.625 8.89 10.11 0 15.937-7.359 5.828-7.344 5.828-18.766 0-12.796-5.953-21Q40.578-1.515 29.5-1.515q-9.094 0-13.922 7.032h-.203v-26.22H6.594z" id="HelveticaWorld-Regular-112"/><path d="M6.594 52.297h8.297v-7.375h.203q5.906 8.89 15.812 8.89 9.813 0 13.922-8.5 3.75 4.594 7.266 6.547 3.515 1.953 8.703 1.953 6.781 0 11.484-4.453Q77 44.922 77 36.187V0h-8.781v33.797q0 6.094-2.297 9.094-2.297 3.015-7.422 3.015-5.172 0-8.75-4.203-3.563-4.203-3.563-9.812V0h-8.78v36.188q0 4.53-2.11 7.124-2.094 2.594-6.094 2.594-6.297 0-10.062-4.687-3.766-4.688-3.766-12.703V0H6.594z" id="HelveticaWorld-Regular-109"/><path d="M29.781 73.297q-8.875-15.875-11.218-25.844-2.344-9.953-2.344-21.969 0-11.859 3.187-22.125Q22.61-6.89 29.891-20.703h-5.86Q15.72-8.593 11.25 2.187 6.781 12.985 6.781 26.125q0 12.36 4.047 23.563 4.063 11.203 12.86 23.609z" id="HelveticaWorld-Regular-40"/><path d="M3.516-20.703q8.796 15.922 11.14 25.86Q17 15.093 17 27.093q0 11.922-3.156 22.172T3.422 73.296h5.765q8.391-12.109 12.86-22.905 4.469-10.797 4.469-23.875 0-12.407-4.063-23.61-4.047-11.203-12.828-23.61z" id="HelveticaWorld-Regular-41"/></defs><use xlink:href="#HelveticaWorld-Regular-101"/><use x="52.545" xlink:href="#HelveticaWorld-Regular-120"/><use x="102.545" xlink:href="#HelveticaWorld-Regular-112"/><use x="159.039" xlink:href="#HelveticaWorld-Regular-101"/><use x="214.459" xlink:href="#HelveticaWorld-Regular-114"/><use x="247.027" xlink:href="#HelveticaWorld-Regular-105"/><use x="269.049" xlink:href="#HelveticaWorld-Regular-109"/><use x="352.057" xlink:href="#HelveticaWorld-Regular-101"/><use x="407.477" xlink:href="#HelveticaWorld-Regular-110"/><use x="462.652" xlink:href="#HelveticaWorld-Regular-116"/><use x="490.338" xlink:href="#HelveticaWorld-Regular-97"/><use x="545.27" xlink:href="#HelveticaWorld-Regular-108"/><use x="567.291" xlink:href="#HelveticaWorld-Regular-32"/><use x="591.705" xlink:href="#HelveticaWorld-Regular-40"/><use x="625.006" xlink:href="#HelveticaWorld-Regular-115"/><use x="675.006" xlink:href="#HelveticaWorld-Regular-99"/><use x="726.275" xlink:href="#HelveticaWorld-Regular-97"/><use x="781.207" xlink:href="#HelveticaWorld-Regular-108"/><use x="803.229" xlink:href="#HelveticaWorld-Regular-101"/><use x="858.648" xlink:href="#HelveticaWorld-Regular-100"/><use x="915.631" xlink:href="#HelveticaWorld-Regular-41"/></g><path d="M218.937 293.23h28" fill="none" stroke="#ff7f0e" stroke-linecap="square" stroke-width="1.5" id="line2d_25"/><g transform="matrix(.14 0 0 -.14 258.137 298.13)" fill="#969696" id="text_19"><defs><path d="M44 29.5L33.406 61.078h-.203L21.687 29.5zm-25.297-8.594L11.188 0h-9.97l27 71.781h10.985L65.187 0H54.594l-7.078 20.906z" id="HelveticaWorld-Regular-65"/><path d="M67.484 0v42.39q0 .829.094 8.126t.094 9.78h-.281L47.312 0h-9.609L17.578 60.203h-.297q0-3.61.094-10.297.11-6.687.11-7.515V0H8.108v71.781h13.86L42.39 11.078h.28l20.313 60.703h13.922V0z" id="HelveticaWorld-Regular-77"/><path d="M64.11 71.781V25.203q0-11.922-7.547-19.515-7.532-7.594-21.36-7.594-12.89 0-20.234 7-7.344 7.015-7.344 18.781v47.906h9.563V26.61q0-9.906 4.953-14.922 4.953-5 13.265-5 8.875 0 13.875 5 5.016 5.016 5.016 14.735v45.36z" id="HelveticaWorld-Regular-85"/></defs><use xlink:href="#HelveticaWorld-Regular-67"/><use x="70.564" xlink:href="#HelveticaWorld-Regular-65"/><use x="137.264" xlink:href="#HelveticaWorld-Regular-77"/><use x="222.273" xlink:href="#HelveticaWorld-Regular-49"/><use x="277.889" xlink:href="#HelveticaWorld-Regular-54"/><use x="333.504" xlink:href="#HelveticaWorld-Regular-32"/><use x="357.918" xlink:href="#HelveticaWorld-Regular-40"/><use x="391.219" xlink:href="#HelveticaWorld-Regular-85"/><use x="462.801" xlink:href="#HelveticaWorld-Regular-67"/><use x="535.115" xlink:href="#HelveticaWorld-Regular-83"/><use x="601.326" xlink:href="#HelveticaWorld-Regular-41"/></g></g></g></g><defs><clipPath id="p80a7589fbe"><path d="M46.468 47.516h357.12v266.112H46.468z"/></clipPath></defs></svg>