<svg height="396.254" viewBox="0 0 414.817 297.19" width="553.089" xmlns="http://www.w3.org/2000/svg" xmlns:xlink="http://www.w3.org/1999/xlink"><defs><style>*{stroke-linecap:butt;stroke-linejoin:round}</style></defs><g id="figure_1"><path d="M0 297.19h414.817V0H0z" fill="none" id="patch_1"/><g id="axes_1"><path d="M41.667 273.312h357.12V7.2H41.667z" fill="none" id="patch_2"/><g id="matplotlib.axis_1"><g id="xtick_1"><g id="line2d_1"><defs><path d="M0 0v3.5" id="m20fff338fc" stroke="#000" stroke-width=".8"/></defs><use x="51.946" xlink:href="#m20fff338fc" y="273.312" stroke="#000" stroke-width=".8"/></g><g id="text_1"><defs><path d="M10.594 35.5h62.593v-8.297H10.594z" id="DejaVuSans-8722"/><path d="M12.406 8.297h16.11v55.625l-17.532-3.516v8.985l17.438 3.515h9.86V8.296H54.39V0H12.406z" id="DejaVuSans-49"/><path d="M10.797 72.906h38.719v-8.312H19.828v-17.86q2.14.735 4.281 1.094 2.157.36 4.313.36 12.203 0 19.328-6.688 7.14-6.688 7.14-18.11 0-11.765-7.328-18.296-7.328-6.516-20.656-6.516-4.593 0-9.36.781-4.75.782-9.827 2.344v9.922q4.39-2.39 9.078-3.563 4.687-1.171 9.906-1.171 8.453 0 13.375 4.437 4.938 4.438 4.938 12.063 0 7.609-4.938 12.047-4.922 4.453-13.375 4.453-3.953 0-7.89-.875-3.922-.875-8.016-2.735z" id="DejaVuSans-53"/><path d="M31.781 66.406q-7.61 0-11.453-7.5Q16.5 51.422 16.5 36.375q0-14.984 3.828-22.484 3.844-7.5 11.453-7.5 7.672 0 11.5 7.5 3.844 7.5 3.844 22.484 0 15.047-3.844 22.531-3.828 7.5-11.5 7.5zm0 7.813q12.266 0 18.735-9.703 6.468-9.688 6.468-28.141 0-18.406-6.468-28.11-6.47-9.687-18.735-9.687-12.25 0-18.718 9.688-6.47 9.703-6.47 28.109 0 18.453 6.47 28.14Q19.53 74.22 31.78 74.22z" id="DejaVuSans-48"/></defs><g transform="matrix(.1 0 0 -.1 38.212 287.91)"><use xlink:href="#DejaVuSans-8722"/><use x="83.789" xlink:href="#DejaVuSans-49"/><use x="147.412" xlink:href="#DejaVuSans-53"/><use x="211.035" xlink:href="#DejaVuSans-48"/></g></g></g><g id="xtick_2"><use x="109.634" xlink:href="#m20fff338fc" y="273.312" stroke="#000" stroke-width=".8" id="line2d_2"/><g transform="matrix(.1 0 0 -.1 95.9 287.91)" id="text_2"><use xlink:href="#DejaVuSans-8722"/><use x="83.789" xlink:href="#DejaVuSans-49"/><use x="147.412" xlink:href="#DejaVuSans-48"/><use x="211.035" xlink:href="#DejaVuSans-48"/></g></g><g id="xtick_3"><use x="167.322" xlink:href="#m20fff338fc" y="273.312" stroke="#000" stroke-width=".8" id="line2d_3"/><g transform="matrix(.1 0 0 -.1 156.77 287.91)" id="text_3"><use xlink:href="#DejaVuSans-8722"/><use x="83.789" xlink:href="#DejaVuSans-53"/><use x="147.412" xlink:href="#DejaVuSans-48"/></g></g><g id="xtick_4"><use x="225.01" xlink:href="#m20fff338fc" y="273.312" stroke="#000" stroke-width=".8" id="line2d_4"/><use xlink:href="#DejaVuSans-48" transform="matrix(.1 0 0 -.1 221.828 287.91)" id="text_4"/></g><g id="xtick_5"><use x="282.697" xlink:href="#m20fff338fc" y="273.312" stroke="#000" stroke-width=".8" id="line2d_5"/><g transform="matrix(.1 0 0 -.1 276.335 287.91)" id="text_5"><use xlink:href="#DejaVuSans-53"/><use x="63.623" xlink:href="#DejaVuSans-48"/></g></g><g id="xtick_6"><use x="340.385" xlink:href="#m20fff338fc" y="273.312" stroke="#000" stroke-width=".8" id="line2d_6"/><g transform="matrix(.1 0 0 -.1 330.842 287.91)" id="text_6"><use xlink:href="#DejaVuSans-49"/><use x="63.623" xlink:href="#DejaVuSans-48"/><use x="127.246" xlink:href="#DejaVuSans-48"/></g></g><g id="xtick_7"><use x="398.073" xlink:href="#m20fff338fc" y="273.312" stroke="#000" stroke-width=".8" id="line2d_7"/><g transform="matrix(.1 0 0 -.1 388.53 287.91)" id="text_7"><use xlink:href="#DejaVuSans-49"/><use x="63.623" xlink:href="#DejaVuSans-53"/><use x="127.246" xlink:href="#DejaVuSans-48"/></g></g></g><g id="matplotlib.axis_2"><g id="ytick_1"><g id="line2d_8"><defs><path d="M0 0h-3.5" id="m0429fe4442" stroke="#000" stroke-width=".8"/></defs><use x="41.667" xlink:href="#m0429fe4442" y="246.775" stroke="#000" stroke-width=".8"/></g><g transform="matrix(.1 0 0 -.1 7.2 250.574)" id="text_8"><use xlink:href="#DejaVuSans-8722"/><use x="83.789" xlink:href="#DejaVuSans-49"/><use x="147.412" xlink:href="#DejaVuSans-48"/><use x="211.035" xlink:href="#DejaVuSans-48"/></g></g><g id="ytick_2"><use x="41.667" xlink:href="#m0429fe4442" y="189.087" stroke="#000" stroke-width=".8" id="line2d_9"/><g transform="matrix(.1 0 0 -.1 13.563 192.886)" id="text_9"><use xlink:href="#DejaVuSans-8722"/><use x="83.789" xlink:href="#DejaVuSans-53"/><use x="147.412" xlink:href="#DejaVuSans-48"/></g></g><g id="ytick_3"><use x="41.667" xlink:href="#m0429fe4442" y="131.399" stroke="#000" stroke-width=".8" id="line2d_10"/><use xlink:href="#DejaVuSans-48" transform="matrix(.1 0 0 -.1 28.305 135.198)" id="text_10"/></g><g id="ytick_4"><use x="41.667" xlink:href="#m0429fe4442" y="73.711" stroke="#000" stroke-width=".8" id="line2d_11"/><g transform="matrix(.1 0 0 -.1 21.942 77.51)" id="text_11"><use xlink:href="#DejaVuSans-53"/><use x="63.623" xlink:href="#DejaVuSans-48"/></g></g><g id="ytick_5"><use x="41.667" xlink:href="#m0429fe4442" y="16.023" stroke="#000" stroke-width=".8" id="line2d_12"/><g transform="matrix(.1 0 0 -.1 15.58 19.822)" id="text_12"><use xlink:href="#DejaVuSans-49"/><use x="63.623" xlink:href="#DejaVuSans-48"/><use x="127.246" xlink:href="#DejaVuSans-48"/></g></g></g><path clip-path="url(#p1154a5c18d)" d="M231.07 137.823l88.01-91.988" fill="none" stroke="gray" stroke-linecap="square" stroke-width="1.5" id="line2d_13"/><g id="line2d_14"><defs><path d="M0 3a3 3 0 100-6 3 3 0 000 6z" id="me41b239826" stroke="#c78780"/></defs><g clip-path="url(#p1154a5c18d)"><use x="252.507" xlink:href="#me41b239826" y="115.709" fill="#c78780" stroke="#c78780"/></g></g><g id="line2d_15"><defs><path d="M0 3a3 3 0 100-6 3 3 0 000 6z" id="me82110673c" stroke="#e87562"/></defs><g clip-path="url(#p1154a5c18d)"><use x="274.224" xlink:href="#me82110673c" y="95.309" fill="#e87562" stroke="#e87562"/></g></g><g id="line2d_16"><defs><path d="M0 3a3 3 0 100-6 3 3 0 000 6z" id="m4a4953c52c" stroke="#000"/></defs><g clip-path="url(#p1154a5c18d)"><use x="296.146" xlink:href="#m4a4953c52c" y="76.616" fill="#fff" stroke="#000"/></g></g><g clip-path="url(#p1154a5c18d)" id="line2d_17"><use x="314.117" xlink:href="#m4a4953c52c" y="41.33" fill="#fff" stroke="#000"/></g><path clip-path="url(#p1154a5c18d)" d="M231.07 137.823l17.523-106.717" fill="none" stroke="gray" stroke-linecap="square" stroke-width="1.5" id="line2d_18"/><g id="line2d_19"><defs><path d="M0 3a3 3 0 100-6 3 3 0 000 6z" id="mf23281a71a" stroke="#e2c9b5"/></defs><g clip-path="url(#p1154a5c18d)"><use x="231.752" xlink:href="#mf23281a71a" y="116.319" fill="#e2c9b5" stroke="#e2c9b5"/></g></g><g id="line2d_20"><defs><path d="M0 3a3 3 0 100-6 3 3 0 000 6z" id="me910e856ac" stroke="#f6c592"/></defs><g clip-path="url(#p1154a5c18d)"><use x="237.81" xlink:href="#me910e856ac" y="94.455" fill="#f6c592" stroke="#f6c592"/></g></g><g clip-path="url(#p1154a5c18d)" id="line2d_21"><use x="243.05" xlink:href="#m4a4953c52c" y="67.849" fill="#fff" stroke="#000"/></g><g clip-path="url(#p1154a5c18d)" id="line2d_22"><use x="251.255" xlink:href="#m4a4953c52c" y="31.578" fill="#fff" stroke="#000"/></g><path clip-path="url(#p1154a5c18d)" d="M231.07 137.823L199.132 20.879" fill="none" stroke="gray" stroke-linecap="square" stroke-width="1.5" id="line2d_23"/><g clip-path="url(#p1154a5c18d)" id="line2d_24"><use x="221.586" xlink:href="#m4a4953c52c" y="116.302" fill="#fff" stroke="#000"/></g><g clip-path="url(#p1154a5c18d)" id="line2d_25"><use x="216.269" xlink:href="#m4a4953c52c" y="92.053" fill="#fff" stroke="#000"/></g><g clip-path="url(#p1154a5c18d)" id="line2d_26"><use x="209.598" xlink:href="#m4a4953c52c" y="62.951" fill="#fff" stroke="#000"/></g><g clip-path="url(#p1154a5c18d)" id="line2d_27"><use x="205.63" xlink:href="#m4a4953c52c" y="19.296" fill="#fff" stroke="#000"/></g><path clip-path="url(#p1154a5c18d)" d="M231.07 137.823l-70.273-108.61" fill="none" stroke="gray" stroke-linecap="square" stroke-width="1.5" id="line2d_28"/><g id="line2d_29"><defs><path d="M0 3a3 3 0 100-6 3 3 0 000 6z" id="m659b9e04a7" stroke="#ecffe2"/></defs><g clip-path="url(#p1154a5c18d)"><use x="212.224" xlink:href="#m659b9e04a7" y="117.668" fill="#ecffe2" stroke="#ecffe2"/></g></g><g clip-path="url(#p1154a5c18d)" id="line2d_30"><use x="197.916" xlink:href="#m4a4953c52c" y="93.234" fill="#fff" stroke="#000"/></g><g clip-path="url(#p1154a5c18d)" id="line2d_31"><use x="183.392" xlink:href="#m4a4953c52c" y="64.667" fill="#fff" stroke="#000"/></g><g clip-path="url(#p1154a5c18d)" id="line2d_32"><use x="168.327" xlink:href="#m4a4953c52c" y="24.695" fill="#fff" stroke="#000"/></g><path clip-path="url(#p1154a5c18d)" d="M231.07 137.823L109.55 38.376" fill="none" stroke="gray" stroke-linecap="square" stroke-width="1.5" id="line2d_33"/><g id="line2d_34"><defs><path d="M0 3a3 3 0 100-6 3 3 0 000 6z" id="m262e94400d" stroke="#c2efce"/></defs><g clip-path="url(#p1154a5c18d)"><use x="200.986" xlink:href="#m262e94400d" y="118.233" fill="#c2efce" stroke="#c2efce"/></g></g><g id="line2d_35"><defs><path d="M0 3a3 3 0 100-6 3 3 0 000 6z" id="m48ea816384" stroke="#9ef9a3"/></defs><g clip-path="url(#p1154a5c18d)"><use x="174.155" xlink:href="#m48ea816384" y="93.176" fill="#9ef9a3" stroke="#9ef9a3"/></g></g><g clip-path="url(#p1154a5c18d)" id="line2d_36"><use x="145.459" xlink:href="#m4a4953c52c" y="65.519" fill="#fff" stroke="#000"/></g><g clip-path="url(#p1154a5c18d)" id="line2d_37"><use x="111.895" xlink:href="#m4a4953c52c" y="35.578" fill="#fff" stroke="#000"/></g><path clip-path="url(#p1154a5c18d)" d="M231.07 137.823l-85.045-12.17" fill="none" stroke="gray" stroke-linecap="square" stroke-width="1.5" id="line2d_38"/><g id="line2d_39"><defs><path d="M0 3a3 3 0 100-6 3 3 0 000 6z" id="mf2a12785d7" stroke="#d2f4f0"/></defs><g clip-path="url(#p1154a5c18d)"><use x="211.148" xlink:href="#mf2a12785d7" y="133.175" fill="#d2f4f0" stroke="#d2f4f0"/></g></g><g id="line2d_40"><defs><path d="M0 3a3 3 0 100-6 3 3 0 000 6z" id="mf1113ac2df" stroke="#a6feed"/></defs><g clip-path="url(#p1154a5c18d)"><use x="190.448" xlink:href="#mf1113ac2df" y="131.652" fill="#a6feed" stroke="#a6feed"/></g></g><g clip-path="url(#p1154a5c18d)" id="line2d_41"><use x="169.186" xlink:href="#m4a4953c52c" y="130.425" fill="#fff" stroke="#000"/></g><g clip-path="url(#p1154a5c18d)" id="line2d_42"><use x="145.93" xlink:href="#m4a4953c52c" y="126.338" fill="#fff" stroke="#000"/></g><path clip-path="url(#p1154a5c18d)" d="M231.07 137.823l-59.284 21.927" fill="none" stroke="gray" stroke-linecap="square" stroke-width="1.5" id="line2d_43"/><g id="line2d_44"><defs><path d="M0 3a3 3 0 100-6 3 3 0 000 6z" id="m71c5747ad1" stroke="#c4e2ee"/></defs><g clip-path="url(#p1154a5c18d)"><use x="216.893" xlink:href="#m71c5747ad1" y="142.171" fill="#c4e2ee" stroke="#c4e2ee"/></g></g><g id="line2d_45"><defs><path d="M0 3a3 3 0 100-6 3 3 0 000 6z" id="mffad76cb48" stroke="#9fe9f8"/></defs><g clip-path="url(#p1154a5c18d)"><use x="203.146" xlink:href="#mffad76cb48" y="148.253" fill="#9fe9f8" stroke="#9fe9f8"/></g></g><g clip-path="url(#p1154a5c18d)" id="line2d_46"><use x="188.941" xlink:href="#m4a4953c52c" y="154.761" fill="#fff" stroke="#000"/></g><g clip-path="url(#p1154a5c18d)" id="line2d_47"><use x="171.605" xlink:href="#m4a4953c52c" y="159.255" fill="#fff" stroke="#000"/></g><path clip-path="url(#p1154a5c18d)" d="M231.07 137.823l-30.41 46.571" fill="none" stroke="gray" stroke-linecap="square" stroke-width="1.5" id="line2d_48"/><g id="line2d_49"><defs><path d="M0 3a3 3 0 100-6 3 3 0 000 6z" id="mac302bc8b9" stroke="#a0b6cf"/></defs><g clip-path="url(#p1154a5c18d)"><use x="222.843" xlink:href="#mac302bc8b9" y="149.113" fill="#a0b6cf" stroke="#a0b6cf"/></g></g><g id="line2d_50"><defs><path d="M0 3a3 3 0 100-6 3 3 0 000 6z" id="mb6ad0f1e63" stroke="#7fbbe1"/></defs><g clip-path="url(#p1154a5c18d)"><use x="214.218" xlink:href="#mb6ad0f1e63" y="160.445" fill="#7fbbe1" stroke="#7fbbe1"/></g></g><g id="line2d_51"><defs><path d="M0 3a3 3 0 100-6 3 3 0 000 6z" id="m52de26b258" stroke="#4cbff3"/></defs><g clip-path="url(#p1154a5c18d)"><use x="206.51" xlink:href="#m52de26b258" y="172.263" fill="#4cbff3" stroke="#4cbff3"/></g></g><g clip-path="url(#p1154a5c18d)" id="line2d_52"><use x="204.255" xlink:href="#m4a4953c52c" y="186.553" fill="#fff" stroke="#000"/></g><path clip-path="url(#p1154a5c18d)" d="M231.07 137.823l49.559 123.393" fill="none" stroke="gray" stroke-linecap="square" stroke-width="1.5" id="line2d_53"/><g id="line2d_54"><defs><path d="M0 3a3 3 0 100-6 3 3 0 000 6z" id="mb53638ffb5" stroke="#485c85"/></defs><g clip-path="url(#p1154a5c18d)"><use x="229.697" xlink:href="#mb53638ffb5" y="160.398" fill="#485c85" stroke="#485c85"/></g></g><g id="line2d_55"><defs><path d="M0 3a3 3 0 100-6 3 3 0 000 6z" id="m03a78d55f1" stroke="#1e5ca9"/></defs><g clip-path="url(#p1154a5c18d)"><use x="236.114" xlink:href="#m03a78d55f1" y="185.557" fill="#1e5ca9" stroke="#1e5ca9"/></g></g><g id="line2d_56"><defs><path d="M0 3a3 3 0 100-6 3 3 0 000 6z" id="me77c51b6df" stroke="#0754ce"/></defs><g clip-path="url(#p1154a5c18d)"><use x="257.791" xlink:href="#me77c51b6df" y="210.487" fill="#0754ce" stroke="#0754ce"/></g></g><g clip-path="url(#p1154a5c18d)" id="line2d_57"><use x="303.015" xlink:href="#m4a4953c52c" y="249.652" fill="#fff" stroke="#000"/></g><path clip-path="url(#p1154a5c18d)" d="M231.07 137.823l88.125 79.74" fill="none" stroke="gray" stroke-linecap="square" stroke-width="1.5" id="line2d_58"/><g id="line2d_59"><defs><path d="M0 3a3 3 0 100-6 3 3 0 000 6z" id="m9bbf46178a" stroke="#9979a8"/></defs><g clip-path="url(#p1154a5c18d)"><use x="249.953" xlink:href="#m9bbf46178a" y="155.124" fill="#9979a8" stroke="#9979a8"/></g></g><g id="line2d_60"><defs><path d="M0 3a3 3 0 100-6 3 3 0 000 6z" id="mf46b649aa6" stroke="#ac6bc6"/></defs><g clip-path="url(#p1154a5c18d)"><use x="273.013" xlink:href="#mf46b649aa6" y="174.648" fill="#ac6bc6" stroke="#ac6bc6"/></g></g><g id="line2d_61"><defs><path d="M0 3a3 3 0 100-6 3 3 0 000 6z" id="m23fc9bc12b" stroke="#b85be6"/></defs><g clip-path="url(#p1154a5c18d)"><use x="294.036" xlink:href="#m23fc9bc12b" y="195.213" fill="#b85be6" stroke="#b85be6"/></g></g><g clip-path="url(#p1154a5c18d)" id="line2d_62"><use x="318.946" xlink:href="#m4a4953c52c" y="217.837" fill="#fff" stroke="#000"/></g><path clip-path="url(#p1154a5c18d)" d="M231.07 137.823l99.834 54.629" fill="none" stroke="gray" stroke-linecap="square" stroke-width="1.5" id="line2d_63"/><g id="line2d_64"><defs><path d="M0 3a3 3 0 100-6 3 3 0 000 6z" id="m9ce3b59826" stroke="#c395c1"/></defs><g clip-path="url(#p1154a5c18d)"><use x="253.874" xlink:href="#m9ce3b59826" y="150.322" fill="#c395c1" stroke="#c395c1"/></g></g><g id="line2d_65"><defs><path d="M0 3a3 3 0 100-6 3 3 0 000 6z" id="me3b5b0d0e9" stroke="#df83d5"/></defs><g clip-path="url(#p1154a5c18d)"><use x="279.167" xlink:href="#me3b5b0d0e9" y="162.702" fill="#df83d5" stroke="#df83d5"/></g></g><g id="line2d_66"><defs><path d="M0 3a3 3 0 100-6 3 3 0 000 6z" id="m78eeb91aef" stroke="#f96cea"/></defs><g clip-path="url(#p1154a5c18d)"><use x="304.574" xlink:href="#m78eeb91aef" y="175.73" fill="#f96cea" stroke="#f96cea"/></g></g><g clip-path="url(#p1154a5c18d)" id="line2d_67"><use x="329.291" xlink:href="#m4a4953c52c" y="195.302" fill="#fff" stroke="#000"/></g><path clip-path="url(#p1154a5c18d)" d="M231.07 137.823l91.69 14.064" fill="none" stroke="gray" stroke-linecap="square" stroke-width="1.5" id="line2d_68"/><g id="line2d_69"><defs><path d="M0 3a3 3 0 100-6 3 3 0 000 6z" id="m2fab015069" stroke="#c990af"/></defs><g clip-path="url(#p1154a5c18d)"><use x="254.91" xlink:href="#m2fab015069" y="140.151" fill="#c990af" stroke="#c990af"/></g></g><g id="line2d_70"><defs><path d="M0 3a3 3 0 100-6 3 3 0 000 6z" id="mf1adef4280" stroke="#e67fbb"/></defs><g clip-path="url(#p1154a5c18d)"><use x="279.709" xlink:href="#mf1adef4280" y="147.414" fill="#e67fbb" stroke="#e67fbb"/></g></g><g clip-path="url(#p1154a5c18d)" id="line2d_71"><use x="302.247" xlink:href="#m4a4953c52c" y="149.63" fill="#fff" stroke="#000"/></g><g clip-path="url(#p1154a5c18d)" id="line2d_72"><use x="322.999" xlink:href="#m4a4953c52c" y="150.232" fill="#fff" stroke="#000"/></g><path d="M41.667 273.312V7.2" fill="none" stroke="#000" stroke-linecap="square" stroke-width=".8" id="patch_3"/><path d="M398.787 273.312V7.2" fill="none" stroke="#000" stroke-linecap="square" stroke-width=".8" id="patch_4"/><path d="M41.667 273.312h357.12" fill="none" stroke="#000" stroke-linecap="square" stroke-width=".8" id="patch_5"/><path d="M41.667 7.2h357.12" fill="none" stroke="#000" stroke-linecap="square" stroke-width=".8" id="patch_6"/></g></g><defs><clipPath id="p1154a5c18d"><path d="M41.667 7.2h357.12v266.112H41.667z"/></clipPath></defs></svg>