<svg height="396.254" viewBox="0 0 399.625 297.19" width="532.833" xmlns="http://www.w3.org/2000/svg" xmlns:xlink="http://www.w3.org/1999/xlink"><defs><style>*{stroke-linecap:butt;stroke-linejoin:round}</style></defs><g id="figure_1"><path d="M0 297.19h399.625V0H0z" fill="none" id="patch_1"/><g id="axes_1"><path d="M35.305 273.312h357.12V7.2H35.305z" fill="none" id="patch_2"/><g id="matplotlib.axis_1"><g id="xtick_1"><g id="line2d_1"><defs><path d="M0 0v3.5" id="m577f87a363" stroke="#000" stroke-width=".8"/></defs><use x="74.895" xlink:href="#m577f87a363" y="273.312" stroke="#000" stroke-width=".8"/></g><g id="text_1"><defs><path d="M10.594 35.5h62.593v-8.297H10.594z" id="DejaVuSans-8722"/><path d="M37.797 64.313L12.89 25.39h24.906zm-2.594 8.593H47.61V25.391h10.407v-8.203H47.609V0h-9.812v17.188H4.89v9.515z" id="DejaVuSans-52"/><path d="M31.781 66.406q-7.61 0-11.453-7.5Q16.5 51.422 16.5 36.375q0-14.984 3.828-22.484 3.844-7.5 11.453-7.5 7.672 0 11.5 7.5 3.844 7.5 3.844 22.484 0 15.047-3.844 22.531-3.828 7.5-11.5 7.5zm0 7.813q12.266 0 18.735-9.703 6.468-9.688 6.468-28.141 0-18.406-6.468-28.11-6.47-9.687-18.735-9.687-12.25 0-18.718 9.688-6.47 9.703-6.47 28.109 0 18.453 6.47 28.14Q19.53 74.22 31.78 74.22z" id="DejaVuSans-48"/></defs><g transform="matrix(.1 0 0 -.1 64.343 287.91)"><use xlink:href="#DejaVuSans-8722"/><use x="83.789" xlink:href="#DejaVuSans-52"/><use x="147.412" xlink:href="#DejaVuSans-48"/></g></g></g><g id="xtick_2"><use x="142.516" xlink:href="#m577f87a363" y="273.312" stroke="#000" stroke-width=".8" id="line2d_2"/><g id="text_2"><defs><path d="M19.188 8.297h34.421V0H7.33v8.297q5.609 5.812 15.296 15.594 9.703 9.797 12.188 12.64 4.734 5.313 6.609 9 1.89 3.688 1.89 7.25 0 5.813-4.078 9.469-4.078 3.672-10.625 3.672-4.64 0-9.797-1.61-5.14-1.609-11-4.89v9.969Q13.767 71.78 18.938 73q5.188 1.219 9.485 1.219 11.328 0 18.062-5.672 6.735-5.656 6.735-15.125 0-4.5-1.688-8.531-1.672-4.016-6.125-9.485-1.218-1.422-7.765-8.187-6.532-6.766-18.453-18.922z" id="DejaVuSans-50"/></defs><g transform="matrix(.1 0 0 -.1 131.964 287.91)"><use xlink:href="#DejaVuSans-8722"/><use x="83.789" xlink:href="#DejaVuSans-50"/><use x="147.412" xlink:href="#DejaVuSans-48"/></g></g></g><g id="xtick_3"><use x="210.137" xlink:href="#m577f87a363" y="273.312" stroke="#000" stroke-width=".8" id="line2d_3"/><use xlink:href="#DejaVuSans-48" transform="matrix(.1 0 0 -.1 206.956 287.91)" id="text_3"/></g><g id="xtick_4"><use x="277.759" xlink:href="#m577f87a363" y="273.312" stroke="#000" stroke-width=".8" id="line2d_4"/><g transform="matrix(.1 0 0 -.1 271.396 287.91)" id="text_4"><use xlink:href="#DejaVuSans-50"/><use x="63.623" xlink:href="#DejaVuSans-48"/></g></g><g id="xtick_5"><use x="345.38" xlink:href="#m577f87a363" y="273.312" stroke="#000" stroke-width=".8" id="line2d_5"/><g transform="matrix(.1 0 0 -.1 339.017 287.91)" id="text_5"><use xlink:href="#DejaVuSans-52"/><use x="63.623" xlink:href="#DejaVuSans-48"/></g></g></g><g id="matplotlib.axis_2"><g id="ytick_1"><g id="line2d_6"><defs><path d="M0 0h-3.5" id="m83c57543ef" stroke="#000" stroke-width=".8"/></defs><use x="35.305" xlink:href="#m83c57543ef" y="268.187" stroke="#000" stroke-width=".8"/></g><g transform="matrix(.1 0 0 -.1 7.2 271.986)" id="text_6"><use xlink:href="#DejaVuSans-8722"/><use x="83.789" xlink:href="#DejaVuSans-52"/><use x="147.412" xlink:href="#DejaVuSans-48"/></g></g><g id="ytick_2"><use x="35.305" xlink:href="#m83c57543ef" y="234.376" stroke="#000" stroke-width=".8" id="line2d_7"/><g id="text_7"><defs><path d="M40.578 39.313Q47.656 37.797 51.625 33q3.984-4.781 3.984-11.813 0-10.78-7.422-16.703-7.421-5.906-21.093-5.906-4.578 0-9.438.906-4.86.907-10.031 2.72v9.515q4.094-2.39 8.969-3.61 4.89-1.218 10.218-1.218 9.266 0 14.125 3.656 4.86 3.656 4.86 10.64 0 6.454-4.516 10.079-4.515 3.64-12.562 3.64h-8.5v8.11h8.89q7.266 0 11.125 2.906 3.86 2.906 3.86 8.375 0 5.61-3.985 8.61-3.968 3.015-11.39 3.015-4.063 0-8.703-.89-4.641-.876-10.203-2.72v8.782q5.624 1.562 10.53 2.344 4.907.78 9.25.78 11.235 0 17.766-5.109 6.547-5.093 6.547-13.78 0-6.063-3.468-10.235-3.47-4.172-9.86-5.782z" id="DejaVuSans-51"/></defs><g transform="matrix(.1 0 0 -.1 7.2 238.175)"><use xlink:href="#DejaVuSans-8722"/><use x="83.789" xlink:href="#DejaVuSans-51"/><use x="147.412" xlink:href="#DejaVuSans-48"/></g></g></g><g id="ytick_3"><use x="35.305" xlink:href="#m83c57543ef" y="200.566" stroke="#000" stroke-width=".8" id="line2d_8"/><g transform="matrix(.1 0 0 -.1 7.2 204.365)" id="text_8"><use xlink:href="#DejaVuSans-8722"/><use x="83.789" xlink:href="#DejaVuSans-50"/><use x="147.412" xlink:href="#DejaVuSans-48"/></g></g><g id="ytick_4"><use x="35.305" xlink:href="#m83c57543ef" y="166.755" stroke="#000" stroke-width=".8" id="line2d_9"/><g id="text_9"><defs><path d="M12.406 8.297h16.11v55.625l-17.532-3.516v8.985l17.438 3.515h9.86V8.296H54.39V0H12.406z" id="DejaVuSans-49"/></defs><g transform="matrix(.1 0 0 -.1 7.2 170.554)"><use xlink:href="#DejaVuSans-8722"/><use x="83.789" xlink:href="#DejaVuSans-49"/><use x="147.412" xlink:href="#DejaVuSans-48"/></g></g></g><g id="ytick_5"><use x="35.305" xlink:href="#m83c57543ef" y="132.945" stroke="#000" stroke-width=".8" id="line2d_10"/><use xlink:href="#DejaVuSans-48" transform="matrix(.1 0 0 -.1 21.942 136.744)" id="text_10"/></g><g id="ytick_6"><use x="35.305" xlink:href="#m83c57543ef" y="99.134" stroke="#000" stroke-width=".8" id="line2d_11"/><g transform="matrix(.1 0 0 -.1 15.58 102.933)" id="text_11"><use xlink:href="#DejaVuSans-49"/><use x="63.623" xlink:href="#DejaVuSans-48"/></g></g><g id="ytick_7"><use x="35.305" xlink:href="#m83c57543ef" y="65.324" stroke="#000" stroke-width=".8" id="line2d_12"/><g transform="matrix(.1 0 0 -.1 15.58 69.123)" id="text_12"><use xlink:href="#DejaVuSans-50"/><use x="63.623" xlink:href="#DejaVuSans-48"/></g></g><g id="ytick_8"><use x="35.305" xlink:href="#m83c57543ef" y="31.513" stroke="#000" stroke-width=".8" id="line2d_13"/><g transform="matrix(.1 0 0 -.1 15.58 35.312)" id="text_13"><use xlink:href="#DejaVuSans-51"/><use x="63.623" xlink:href="#DejaVuSans-48"/></g></g></g><path clip-path="url(#p0713e8ee0d)" d="M220.993 150.959l115.488-99.932" fill="none" stroke="gray" stroke-linecap="square" stroke-width="1.5" id="line2d_14"/><g id="line2d_15"><defs><path d="M0 3a3 3 0 100-6 3 3 0 000 6z" id="me8831b35d6" stroke="#c78780"/></defs><g clip-path="url(#p0713e8ee0d)"><use x="260.73" xlink:href="#me8831b35d6" y="110.356" fill="#c78780" stroke="#c78780"/></g></g><g id="line2d_16"><defs><path d="M0 3a3 3 0 100-6 3 3 0 000 6z" id="maf3a59b946" stroke="#e87562"/></defs><g clip-path="url(#p0713e8ee0d)"><use x="290.734" xlink:href="#maf3a59b946" y="89.176" fill="#e87562" stroke="#e87562"/></g></g><g id="line2d_17"><defs><path d="M0 3a3 3 0 100-6 3 3 0 000 6z" id="m2777d47f3d" stroke="#000"/></defs><g clip-path="url(#p0713e8ee0d)"><use x="318.237" xlink:href="#m2777d47f3d" y="74.76" fill="#fff" stroke="#000"/></g></g><g clip-path="url(#p0713e8ee0d)" id="line2d_18"><use x="336.336" xlink:href="#m2777d47f3d" y="50.861" fill="#fff" stroke="#000"/></g><path clip-path="url(#p0713e8ee0d)" d="M220.993 150.959L237.05 29.766" fill="none" stroke="gray" stroke-linecap="square" stroke-width="1.5" id="line2d_19"/><g id="line2d_20"><defs><path d="M0 3a3 3 0 100-6 3 3 0 000 6z" id="m2f2301c5fb" stroke="#e2c9b5"/></defs><g clip-path="url(#p0713e8ee0d)"><use x="222.125" xlink:href="#m2f2301c5fb" y="110.545" fill="#e2c9b5" stroke="#e2c9b5"/></g></g><g id="line2d_21"><defs><path d="M0 3a3 3 0 100-6 3 3 0 000 6z" id="m44da2feaf5" stroke="#f6c592"/></defs><g clip-path="url(#p0713e8ee0d)"><use x="230.861" xlink:href="#m44da2feaf5" y="84.502" fill="#f6c592" stroke="#f6c592"/></g></g><g clip-path="url(#p0713e8ee0d)" id="line2d_22"><use x="234.638" xlink:href="#m2777d47f3d" y="58.371" fill="#fff" stroke="#000"/></g><g clip-path="url(#p0713e8ee0d)" id="line2d_23"><use x="238.798" xlink:href="#m2777d47f3d" y="30.011" fill="#fff" stroke="#000"/></g><path clip-path="url(#p0713e8ee0d)" d="M220.993 150.959L171.406 20.307" fill="none" stroke="gray" stroke-linecap="square" stroke-width="1.5" id="line2d_24"/><g clip-path="url(#p0713e8ee0d)" id="line2d_25"><use x="201.586" xlink:href="#m2777d47f3d" y="109.496" fill="#fff" stroke="#000"/></g><g clip-path="url(#p0713e8ee0d)" id="line2d_26"><use x="194.363" xlink:href="#m2777d47f3d" y="80.05" fill="#fff" stroke="#000"/></g><g clip-path="url(#p0713e8ee0d)" id="line2d_27"><use x="183.665" xlink:href="#m2777d47f3d" y="51.933" fill="#fff" stroke="#000"/></g><g clip-path="url(#p0713e8ee0d)" id="line2d_28"><use x="174.156" xlink:href="#m2777d47f3d" y="19.296" fill="#fff" stroke="#000"/></g><path clip-path="url(#p0713e8ee0d)" d="M220.993 150.959L124.724 29.735" fill="none" stroke="gray" stroke-linecap="square" stroke-width="1.5" id="line2d_29"/><g id="line2d_30"><defs><path d="M0 3a3 3 0 100-6 3 3 0 000 6z" id="me4e799b4ed" stroke="#ecffe2"/></defs><g clip-path="url(#p0713e8ee0d)"><use x="180.958" xlink:href="#me4e799b4ed" y="110.993" fill="#ecffe2" stroke="#ecffe2"/></g></g><g clip-path="url(#p0713e8ee0d)" id="line2d_31"><use x="163.372" xlink:href="#m2777d47f3d" y="81.229" fill="#fff" stroke="#000"/></g><g clip-path="url(#p0713e8ee0d)" id="line2d_32"><use x="146.797" xlink:href="#m2777d47f3d" y="54.636" fill="#fff" stroke="#000"/></g><g clip-path="url(#p0713e8ee0d)" id="line2d_33"><use x="129.865" xlink:href="#m2777d47f3d" y="25.824" fill="#fff" stroke="#000"/></g><path clip-path="url(#p0713e8ee0d)" d="M220.993 150.959L78.698 45.416" fill="none" stroke="gray" stroke-linecap="square" stroke-width="1.5" id="line2d_34"/><g id="line2d_35"><defs><path d="M0 3a3 3 0 100-6 3 3 0 000 6z" id="m7492c85fea" stroke="#c2efce"/></defs><g clip-path="url(#p0713e8ee0d)"><use x="159.774" xlink:href="#m7492c85fea" y="113.261" fill="#c2efce" stroke="#c2efce"/></g></g><g id="line2d_36"><defs><path d="M0 3a3 3 0 100-6 3 3 0 000 6z" id="ma9caa3a488" stroke="#9ef9a3"/></defs><g clip-path="url(#p0713e8ee0d)"><use x="130.335" xlink:href="#ma9caa3a488" y="84.438" fill="#9ef9a3" stroke="#9ef9a3"/></g></g><g clip-path="url(#p0713e8ee0d)" id="line2d_37"><use x="105.217" xlink:href="#m2777d47f3d" y="61.206" fill="#fff" stroke="#000"/></g><g clip-path="url(#p0713e8ee0d)" id="line2d_38"><use x="80.905" xlink:href="#m2777d47f3d" y="42.503" fill="#fff" stroke="#000"/></g><path clip-path="url(#p0713e8ee0d)" d="M220.993 150.959L96.06 130.479" fill="none" stroke="gray" stroke-linecap="square" stroke-width="1.5" id="line2d_39"/><g id="line2d_40"><defs><path d="M0 3a3 3 0 100-6 3 3 0 000 6z" id="m8ab2f9fe22" stroke="#d2f4f0"/></defs><g clip-path="url(#p0713e8ee0d)"><use x="170.881" xlink:href="#m8ab2f9fe22" y="140.078" fill="#d2f4f0" stroke="#d2f4f0"/></g></g><g id="line2d_41"><defs><path d="M0 3a3 3 0 100-6 3 3 0 000 6z" id="m8da211aed5" stroke="#a6feed"/></defs><g clip-path="url(#p0713e8ee0d)"><use x="139.203" xlink:href="#m8da211aed5" y="137.273" fill="#a6feed" stroke="#a6feed"/></g></g><g clip-path="url(#p0713e8ee0d)" id="line2d_42"><use x="115.482" xlink:href="#m2777d47f3d" y="135.93" fill="#fff" stroke="#000"/></g><g clip-path="url(#p0713e8ee0d)" id="line2d_43"><use x="95.954" xlink:href="#m2777d47f3d" y="131.14" fill="#fff" stroke="#000"/></g><path clip-path="url(#p0713e8ee0d)" d="M220.993 150.959l-105.82 27.738" fill="none" stroke="gray" stroke-linecap="square" stroke-width="1.5" id="line2d_44"/><g id="line2d_45"><defs><path d="M0 3a3 3 0 100-6 3 3 0 000 6z" id="m12427b523a" stroke="#c4e2ee"/></defs><g clip-path="url(#p0713e8ee0d)"><use x="180.8" xlink:href="#m12427b523a" y="160.522" fill="#c4e2ee" stroke="#c4e2ee"/></g></g><g id="line2d_46"><defs><path d="M0 3a3 3 0 100-6 3 3 0 000 6z" id="ma8acb6eef7" stroke="#9fe9f8"/></defs><g clip-path="url(#p0713e8ee0d)"><use x="154.418" xlink:href="#ma8acb6eef7" y="168.226" fill="#9fe9f8" stroke="#9fe9f8"/></g></g><g clip-path="url(#p0713e8ee0d)" id="line2d_47"><use x="134.137" xlink:href="#m2777d47f3d" y="175.353" fill="#fff" stroke="#000"/></g><g clip-path="url(#p0713e8ee0d)" id="line2d_48"><use x="115.059" xlink:href="#m2777d47f3d" y="178.255" fill="#fff" stroke="#000"/></g><path clip-path="url(#p0713e8ee0d)" d="M220.993 150.959l-72.928 64.694" fill="none" stroke="gray" stroke-linecap="square" stroke-width="1.5" id="line2d_49"/><g id="line2d_50"><defs><path d="M0 3a3 3 0 100-6 3 3 0 000 6z" id="mfbedef40bd" stroke="#a0b6cf"/></defs><g clip-path="url(#p0713e8ee0d)"><use x="194.608" xlink:href="#mfbedef40bd" y="175.002" fill="#a0b6cf" stroke="#a0b6cf"/></g></g><g id="line2d_51"><defs><path d="M0 3a3 3 0 100-6 3 3 0 000 6z" id="mb8bb41e07e" stroke="#7fbbe1"/></defs><g clip-path="url(#p0713e8ee0d)"><use x="172.957" xlink:href="#mb8bb41e07e" y="190.858" fill="#7fbbe1" stroke="#7fbbe1"/></g></g><g id="line2d_52"><defs><path d="M0 3a3 3 0 100-6 3 3 0 000 6z" id="m2976551584" stroke="#4cbff3"/></defs><g clip-path="url(#p0713e8ee0d)"><use x="157.342" xlink:href="#m2976551584" y="204.021" fill="#4cbff3" stroke="#4cbff3"/></g></g><g clip-path="url(#p0713e8ee0d)" id="line2d_53"><use x="150.849" xlink:href="#m2777d47f3d" y="218.661" fill="#fff" stroke="#000"/></g><path clip-path="url(#p0713e8ee0d)" d="M220.993 150.959L209.55 261.216" fill="none" stroke="gray" stroke-linecap="square" stroke-width="1.5" id="line2d_54"/><g id="line2d_55"><defs><path d="M0 3a3 3 0 100-6 3 3 0 000 6z" id="mfcacd79b86" stroke="#485c85"/></defs><g clip-path="url(#p0713e8ee0d)"><use x="205.669" xlink:href="#mfcacd79b86" y="192.23" fill="#485c85" stroke="#485c85"/></g></g><g id="line2d_56"><defs><path d="M0 3a3 3 0 100-6 3 3 0 000 6z" id="meb72fd7967" stroke="#1e5ca9"/></defs><g clip-path="url(#p0713e8ee0d)"><use x="198.497" xlink:href="#meb72fd7967" y="220.9" fill="#1e5ca9" stroke="#1e5ca9"/></g></g><g id="line2d_57"><defs><path d="M0 3a3 3 0 100-6 3 3 0 000 6z" id="m9a0bfbf692" stroke="#0754ce"/></defs><g clip-path="url(#p0713e8ee0d)"><use x="211.715" xlink:href="#m9a0bfbf692" y="240.549" fill="#0754ce" stroke="#0754ce"/></g></g><g clip-path="url(#p0713e8ee0d)" id="line2d_58"><use x="235.847" xlink:href="#m2777d47f3d" y="260.809" fill="#fff" stroke="#000"/></g><path clip-path="url(#p0713e8ee0d)" d="M220.993 150.959l92.662 69.084" fill="none" stroke="gray" stroke-linecap="square" stroke-width="1.5" id="line2d_59"/><g id="line2d_60"><defs><path d="M0 3a3 3 0 100-6 3 3 0 000 6z" id="m12abcff8dd" stroke="#9979a8"/></defs><g clip-path="url(#p0713e8ee0d)"><use x="255.117" xlink:href="#m12abcff8dd" y="174.464" fill="#9979a8" stroke="#9979a8"/></g></g><g id="line2d_61"><defs><path d="M0 3a3 3 0 100-6 3 3 0 000 6z" id="m386fa60cb5" stroke="#ac6bc6"/></defs><g clip-path="url(#p0713e8ee0d)"><use x="281.484" xlink:href="#m386fa60cb5" y="192.869" fill="#ac6bc6" stroke="#ac6bc6"/></g></g><g id="line2d_62"><defs><path d="M0 3a3 3 0 100-6 3 3 0 000 6z" id="m251719513b" stroke="#b85be6"/></defs><g clip-path="url(#p0713e8ee0d)"><use x="297.098" xlink:href="#m251719513b" y="209.022" fill="#b85be6" stroke="#b85be6"/></g></g><g clip-path="url(#p0713e8ee0d)" id="line2d_63"><use x="311.801" xlink:href="#m2777d47f3d" y="222.463" fill="#fff" stroke="#000"/></g><path clip-path="url(#p0713e8ee0d)" d="M220.993 150.959L340.7 190.36" fill="none" stroke="gray" stroke-linecap="square" stroke-width="1.5" id="line2d_64"/><g id="line2d_65"><defs><path d="M0 3a3 3 0 100-6 3 3 0 000 6z" id="me1fb466c75" stroke="#c395c1"/></defs><g clip-path="url(#p0713e8ee0d)"><use x="263.288" xlink:href="#me1fb466c75" y="164.333" fill="#c395c1" stroke="#c395c1"/></g></g><g id="line2d_66"><defs><path d="M0 3a3 3 0 100-6 3 3 0 000 6z" id="m73e9df7886" stroke="#df83d5"/></defs><g clip-path="url(#p0713e8ee0d)"><use x="295.607" xlink:href="#m73e9df7886" y="173.705" fill="#df83d5" stroke="#df83d5"/></g></g><g id="line2d_67"><defs><path d="M0 3a3 3 0 100-6 3 3 0 000 6z" id="m9b6f311ea1" stroke="#f96cea"/></defs><g clip-path="url(#p0713e8ee0d)"><use x="321.365" xlink:href="#m9b6f311ea1" y="181.57" fill="#f96cea" stroke="#f96cea"/></g></g><g clip-path="url(#p0713e8ee0d)" id="line2d_68"><use x="339.2" xlink:href="#m2777d47f3d" y="194.654" fill="#fff" stroke="#000"/></g><path clip-path="url(#p0713e8ee0d)" d="M220.993 150.959l128.039-.975" fill="none" stroke="gray" stroke-linecap="square" stroke-width="1.5" id="line2d_69"/><g id="line2d_70"><defs><path d="M0 3a3 3 0 100-6 3 3 0 000 6z" id="ma7e73f7a32" stroke="#c990af"/></defs><g clip-path="url(#p0713e8ee0d)"><use x="266.859" xlink:href="#ma7e73f7a32" y="146.729" fill="#c990af" stroke="#c990af"/></g></g><g id="line2d_71"><defs><path d="M0 3a3 3 0 100-6 3 3 0 000 6z" id="m9270b23632" stroke="#e67fbb"/></defs><g clip-path="url(#p0713e8ee0d)"><use x="300.521" xlink:href="#m9270b23632" y="152.718" fill="#e67fbb" stroke="#e67fbb"/></g></g><g clip-path="url(#p0713e8ee0d)" id="line2d_72"><use x="326.935" xlink:href="#m2777d47f3d" y="151.803" fill="#fff" stroke="#000"/></g><g clip-path="url(#p0713e8ee0d)" id="line2d_73"><use x="349.031" xlink:href="#m2777d47f3d" y="149.85" fill="#fff" stroke="#000"/></g><path d="M35.305 273.312V7.2" fill="none" stroke="#000" stroke-linecap="square" stroke-width=".8" id="patch_3"/><path d="M392.425 273.312V7.2" fill="none" stroke="#000" stroke-linecap="square" stroke-width=".8" id="patch_4"/><path d="M35.305 273.312h357.12" fill="none" stroke="#000" stroke-linecap="square" stroke-width=".8" id="patch_5"/><path d="M35.305 7.2h357.12" fill="none" stroke="#000" stroke-linecap="square" stroke-width=".8" id="patch_6"/></g></g><defs><clipPath id="p0713e8ee0d"><path d="M35.305 7.2h357.12v266.112H35.305z"/></clipPath></defs></svg>