<svg height="414.491" viewBox="0 0 408.101 310.868" width="544.135" xmlns="http://www.w3.org/2000/svg" xmlns:xlink="http://www.w3.org/1999/xlink"><defs><style>*{stroke-linecap:butt;stroke-linejoin:round}</style></defs><g id="figure_1"><path d="M0 310.868h408.101V0H0z" fill="none" id="patch_1"/><g id="axes_1"><path d="M43.781 273.312h357.12V7.2H43.781z" fill="none" id="patch_2"/><g id="matplotlib.axis_1"><g id="xtick_1"><path clip-path="url(#pf7eff189fc)" d="M49.423 273.312V7.2" fill="none" stroke="#b0b0b0" stroke-linecap="square" stroke-width=".8" id="line2d_1"/><g id="line2d_2"><defs><path d="M0 0v3.5" id="m31ca6ac202" stroke="#000" stroke-width=".8"/></defs><use x="49.423" xlink:href="#m31ca6ac202" y="273.312" stroke="#000" stroke-width=".8"/></g><g id="text_1"><defs><path d="M31.781 66.406q-7.61 0-11.453-7.5Q16.5 51.422 16.5 36.375q0-14.984 3.828-22.484 3.844-7.5 11.453-7.5 7.672 0 11.5 7.5 3.844 7.5 3.844 22.484 0 15.047-3.844 22.531-3.828 7.5-11.5 7.5zm0 7.813q12.266 0 18.735-9.703 6.468-9.688 6.468-28.141 0-18.406-6.468-28.11-6.47-9.687-18.735-9.687-12.25 0-18.718 9.688-6.47 9.703-6.47 28.109 0 18.453 6.47 28.14Q19.53 74.22 31.78 74.22z" id="DejaVuSans-48"/><path d="M10.688 12.406H21V0H10.687z" id="DejaVuSans-46"/></defs><g transform="matrix(.1 0 0 -.1 41.471 287.91)"><use xlink:href="#DejaVuSans-48"/><use x="63.623" xlink:href="#DejaVuSans-46"/><use x="95.41" xlink:href="#DejaVuSans-48"/></g></g></g><g id="xtick_2"><path clip-path="url(#pf7eff189fc)" d="M94.963 273.312V7.2" fill="none" stroke="#b0b0b0" stroke-linecap="square" stroke-width=".8" id="line2d_3"/><use x="94.963" xlink:href="#m31ca6ac202" y="273.312" stroke="#000" stroke-width=".8" id="line2d_4"/><g id="text_2"><defs><path d="M12.406 8.297h16.11v55.625l-17.532-3.516v8.985l17.438 3.515h9.86V8.296H54.39V0H12.406z" id="DejaVuSans-49"/></defs><g transform="matrix(.1 0 0 -.1 87.012 287.91)"><use xlink:href="#DejaVuSans-48"/><use x="63.623" xlink:href="#DejaVuSans-46"/><use x="95.41" xlink:href="#DejaVuSans-49"/></g></g></g><g id="xtick_3"><path clip-path="url(#pf7eff189fc)" d="M140.504 273.312V7.2" fill="none" stroke="#b0b0b0" stroke-linecap="square" stroke-width=".8" id="line2d_5"/><use x="140.504" xlink:href="#m31ca6ac202" y="273.312" stroke="#000" stroke-width=".8" id="line2d_6"/><g id="text_3"><defs><path d="M19.188 8.297h34.421V0H7.33v8.297q5.609 5.812 15.296 15.594 9.703 9.797 12.188 12.64 4.734 5.313 6.609 9 1.89 3.688 1.89 7.25 0 5.813-4.078 9.469-4.078 3.672-10.625 3.672-4.64 0-9.797-1.61-5.14-1.609-11-4.89v9.969Q13.767 71.78 18.938 73q5.188 1.219 9.485 1.219 11.328 0 18.062-5.672 6.735-5.656 6.735-15.125 0-4.5-1.688-8.531-1.672-4.016-6.125-9.485-1.218-1.422-7.765-8.187-6.532-6.766-18.453-18.922z" id="DejaVuSans-50"/></defs><g transform="matrix(.1 0 0 -.1 132.552 287.91)"><use xlink:href="#DejaVuSans-48"/><use x="63.623" xlink:href="#DejaVuSans-46"/><use x="95.41" xlink:href="#DejaVuSans-50"/></g></g></g><g id="xtick_4"><path clip-path="url(#pf7eff189fc)" d="M186.044 273.312V7.2" fill="none" stroke="#b0b0b0" stroke-linecap="square" stroke-width=".8" id="line2d_7"/><use x="186.044" xlink:href="#m31ca6ac202" y="273.312" stroke="#000" stroke-width=".8" id="line2d_8"/><g id="text_4"><defs><path d="M40.578 39.313Q47.656 37.797 51.625 33q3.984-4.781 3.984-11.813 0-10.78-7.422-16.703-7.421-5.906-21.093-5.906-4.578 0-9.438.906-4.86.907-10.031 2.72v9.515q4.094-2.39 8.969-3.61 4.89-1.218 10.218-1.218 9.266 0 14.125 3.656 4.86 3.656 4.86 10.64 0 6.454-4.516 10.079-4.515 3.64-12.562 3.64h-8.5v8.11h8.89q7.266 0 11.125 2.906 3.86 2.906 3.86 8.375 0 5.61-3.985 8.61-3.968 3.015-11.39 3.015-4.063 0-8.703-.89-4.641-.876-10.203-2.72v8.782q5.624 1.562 10.53 2.344 4.907.78 9.25.78 11.235 0 17.766-5.109 6.547-5.093 6.547-13.78 0-6.063-3.468-10.235-3.47-4.172-9.86-5.782z" id="DejaVuSans-51"/></defs><g transform="matrix(.1 0 0 -.1 178.093 287.91)"><use xlink:href="#DejaVuSans-48"/><use x="63.623" xlink:href="#DejaVuSans-46"/><use x="95.41" xlink:href="#DejaVuSans-51"/></g></g></g><g id="xtick_5"><path clip-path="url(#pf7eff189fc)" d="M231.585 273.312V7.2" fill="none" stroke="#b0b0b0" stroke-linecap="square" stroke-width=".8" id="line2d_9"/><use x="231.585" xlink:href="#m31ca6ac202" y="273.312" stroke="#000" stroke-width=".8" id="line2d_10"/><g id="text_5"><defs><path d="M37.797 64.313L12.89 25.39h24.906zm-2.594 8.593H47.61V25.391h10.407v-8.203H47.609V0h-9.812v17.188H4.89v9.515z" id="DejaVuSans-52"/></defs><g transform="matrix(.1 0 0 -.1 223.633 287.91)"><use xlink:href="#DejaVuSans-48"/><use x="63.623" xlink:href="#DejaVuSans-46"/><use x="95.41" xlink:href="#DejaVuSans-52"/></g></g></g><g id="xtick_6"><path clip-path="url(#pf7eff189fc)" d="M277.125 273.312V7.2" fill="none" stroke="#b0b0b0" stroke-linecap="square" stroke-width=".8" id="line2d_11"/><use x="277.125" xlink:href="#m31ca6ac202" y="273.312" stroke="#000" stroke-width=".8" id="line2d_12"/><g id="text_6"><defs><path d="M10.797 72.906h38.719v-8.312H19.828v-17.86q2.14.735 4.281 1.094 2.157.36 4.313.36 12.203 0 19.328-6.688 7.14-6.688 7.14-18.11 0-11.765-7.328-18.296-7.328-6.516-20.656-6.516-4.593 0-9.36.781-4.75.782-9.827 2.344v9.922q4.39-2.39 9.078-3.563 4.687-1.171 9.906-1.171 8.453 0 13.375 4.437 4.938 4.438 4.938 12.063 0 7.609-4.938 12.047-4.922 4.453-13.375 4.453-3.953 0-7.89-.875-3.922-.875-8.016-2.735z" id="DejaVuSans-53"/></defs><g transform="matrix(.1 0 0 -.1 269.173 287.91)"><use xlink:href="#DejaVuSans-48"/><use x="63.623" xlink:href="#DejaVuSans-46"/><use x="95.41" xlink:href="#DejaVuSans-53"/></g></g></g><g id="xtick_7"><path clip-path="url(#pf7eff189fc)" d="M322.665 273.312V7.2" fill="none" stroke="#b0b0b0" stroke-linecap="square" stroke-width=".8" id="line2d_13"/><use x="322.665" xlink:href="#m31ca6ac202" y="273.312" stroke="#000" stroke-width=".8" id="line2d_14"/><g id="text_7"><defs><path d="M33.016 40.375q-6.641 0-10.532-4.547-3.875-4.531-3.875-12.437 0-7.86 3.875-12.438 3.891-4.562 10.532-4.562 6.64 0 10.515 4.562 3.875 4.578 3.875 12.438 0 7.906-3.875 12.437-3.875 4.547-10.515 4.547zm19.578 30.922v-8.984q-3.719 1.75-7.5 2.671-3.782.938-7.5.938-9.766 0-14.922-6.594-5.14-6.594-5.875-19.922 2.875 4.25 7.219 6.516 4.359 2.266 9.578 2.266 10.984 0 17.36-6.672 6.374-6.657 6.374-18.125 0-11.235-6.64-18.032-6.641-6.78-17.672-6.78-12.657 0-19.344 9.687-6.688 9.703-6.688 28.109 0 17.281 8.204 27.563 8.203 10.28 22.015 10.28 3.719 0 7.5-.734t7.89-2.187z" id="DejaVuSans-54"/></defs><g transform="matrix(.1 0 0 -.1 314.714 287.91)"><use xlink:href="#DejaVuSans-48"/><use x="63.623" xlink:href="#DejaVuSans-46"/><use x="95.41" xlink:href="#DejaVuSans-54"/></g></g></g><g id="xtick_8"><path clip-path="url(#pf7eff189fc)" d="M368.206 273.312V7.2" fill="none" stroke="#b0b0b0" stroke-linecap="square" stroke-width=".8" id="line2d_15"/><use x="368.206" xlink:href="#m31ca6ac202" y="273.312" stroke="#000" stroke-width=".8" id="line2d_16"/><g id="text_8"><defs><path d="M8.203 72.906h46.875v-4.203L28.61 0H18.312L43.22 64.594H8.203z" id="DejaVuSans-55"/></defs><g transform="matrix(.1 0 0 -.1 360.254 287.91)"><use xlink:href="#DejaVuSans-48"/><use x="63.623" xlink:href="#DejaVuSans-46"/><use x="95.41" xlink:href="#DejaVuSans-55"/></g></g></g><g id="text_9"><defs><path d="M54.89 54.688l-19.78-26.61L55.905 0H45.313L29.39 21.484 13.484 0H2.875l21.25 28.61L4.687 54.687h10.594l14.5-19.485 14.5 19.484z" id="DejaVuSans-120"/></defs><use xlink:href="#DejaVuSans-120" transform="matrix(.1 0 0 -.1 219.382 301.589)"/></g></g><g id="matplotlib.axis_2"><g id="ytick_1"><path clip-path="url(#pf7eff189fc)" d="M43.781 251.336h357.12" fill="none" stroke="#b0b0b0" stroke-linecap="square" stroke-width=".8" id="line2d_17"/><g id="line2d_18"><defs><path d="M0 0h-3.5" id="mbb2dc75a48" stroke="#000" stroke-width=".8"/></defs><use x="43.781" xlink:href="#mbb2dc75a48" y="251.336" stroke="#000" stroke-width=".8"/></g><g transform="matrix(.1 0 0 -.1 20.878 255.135)" id="text_10"><use xlink:href="#DejaVuSans-48"/><use x="63.623" xlink:href="#DejaVuSans-46"/><use x="95.41" xlink:href="#DejaVuSans-49"/></g></g><g id="ytick_2"><path clip-path="url(#pf7eff189fc)" d="M43.781 205.795h357.12" fill="none" stroke="#b0b0b0" stroke-linecap="square" stroke-width=".8" id="line2d_19"/><use x="43.781" xlink:href="#mbb2dc75a48" y="205.795" stroke="#000" stroke-width=".8" id="line2d_20"/><g transform="matrix(.1 0 0 -.1 20.878 209.595)" id="text_11"><use xlink:href="#DejaVuSans-48"/><use x="63.623" xlink:href="#DejaVuSans-46"/><use x="95.41" xlink:href="#DejaVuSans-50"/></g></g><g id="ytick_3"><path clip-path="url(#pf7eff189fc)" d="M43.781 160.255h357.12" fill="none" stroke="#b0b0b0" stroke-linecap="square" stroke-width=".8" id="line2d_21"/><use x="43.781" xlink:href="#mbb2dc75a48" y="160.255" stroke="#000" stroke-width=".8" id="line2d_22"/><g transform="matrix(.1 0 0 -.1 20.878 164.054)" id="text_12"><use xlink:href="#DejaVuSans-48"/><use x="63.623" xlink:href="#DejaVuSans-46"/><use x="95.41" xlink:href="#DejaVuSans-51"/></g></g><g id="ytick_4"><path clip-path="url(#pf7eff189fc)" d="M43.781 114.715h357.12" fill="none" stroke="#b0b0b0" stroke-linecap="square" stroke-width=".8" id="line2d_23"/><use x="43.781" xlink:href="#mbb2dc75a48" y="114.715" stroke="#000" stroke-width=".8" id="line2d_24"/><g transform="matrix(.1 0 0 -.1 20.878 118.514)" id="text_13"><use xlink:href="#DejaVuSans-48"/><use x="63.623" xlink:href="#DejaVuSans-46"/><use x="95.41" xlink:href="#DejaVuSans-52"/></g></g><g id="ytick_5"><path clip-path="url(#pf7eff189fc)" d="M43.781 69.174h357.12" fill="none" stroke="#b0b0b0" stroke-linecap="square" stroke-width=".8" id="line2d_25"/><use x="43.781" xlink:href="#mbb2dc75a48" y="69.174" stroke="#000" stroke-width=".8" id="line2d_26"/><g transform="matrix(.1 0 0 -.1 20.878 72.973)" id="text_14"><use xlink:href="#DejaVuSans-48"/><use x="63.623" xlink:href="#DejaVuSans-46"/><use x="95.41" xlink:href="#DejaVuSans-53"/></g></g><g id="ytick_6"><path clip-path="url(#pf7eff189fc)" d="M43.781 23.634h357.12" fill="none" stroke="#b0b0b0" stroke-linecap="square" stroke-width=".8" id="line2d_27"/><use x="43.781" xlink:href="#mbb2dc75a48" y="23.634" stroke="#000" stroke-width=".8" id="line2d_28"/><g transform="matrix(.1 0 0 -.1 20.878 27.433)" id="text_15"><use xlink:href="#DejaVuSans-48"/><use x="63.623" xlink:href="#DejaVuSans-46"/><use x="95.41" xlink:href="#DejaVuSans-54"/></g></g><g id="text_16"><defs><path d="M32.172-5.078q-3.797-9.766-7.422-12.735-3.61-2.984-9.656-2.984H7.906v7.516h5.282q3.703 0 5.75 1.765Q21-9.766 23.483-3.219l1.61 4.094-22.11 53.813H12.5l17.094-42.766 17.093 42.766h9.516z" id="DejaVuSans-121"/></defs><use xlink:href="#DejaVuSans-121" transform="matrix(0 -.1 -.1 0 14.798 143.215)"/></g></g><path clip-path="url(#pf7eff189fc)" d="M190.626 152.9l140.16-21.843" fill="none" stroke="gray" stroke-linecap="square" stroke-width="1.5" id="line2d_29"/><g id="line2d_30"><defs><path d="M0 3a3 3 0 100-6 3 3 0 000 6z" id="m9ea215e02c" stroke="#c78780"/></defs><g clip-path="url(#pf7eff189fc)"><use x="228.924" xlink:href="#m9ea215e02c" y="142.933" fill="#c78780" stroke="#c78780"/></g></g><g id="line2d_31"><defs><path d="M0 3a3 3 0 100-6 3 3 0 000 6z" id="m03f9d3dfbc" stroke="#e87562"/></defs><g clip-path="url(#pf7eff189fc)"><use x="266.196" xlink:href="#m03f9d3dfbc" y="137.203" fill="#e87562" stroke="#e87562"/></g></g><g id="line2d_32"><defs><path d="M0 3a3 3 0 100-6 3 3 0 000 6z" id="m8aad8da596" stroke="#000"/></defs><g clip-path="url(#pf7eff189fc)"><use x="298.857" xlink:href="#m8aad8da596" y="138.122" fill="#fff" stroke="#000"/></g></g><g clip-path="url(#pf7eff189fc)" id="line2d_33"><use x="331.557" xlink:href="#m8aad8da596" y="136.767" fill="#fff" stroke="#000"/></g><path clip-path="url(#pf7eff189fc)" d="M190.626 152.9l82.36-62.548" fill="none" stroke="gray" stroke-linecap="square" stroke-width="1.5" id="line2d_34"/><g id="line2d_35"><defs><path d="M0 3a3 3 0 100-6 3 3 0 000 6z" id="m6f308d7cf4" stroke="#e2c9b5"/></defs><g clip-path="url(#pf7eff189fc)"><use x="207.836" xlink:href="#m6f308d7cf4" y="136.9" fill="#e2c9b5" stroke="#e2c9b5"/></g></g><g id="line2d_36"><defs><path d="M0 3a3 3 0 100-6 3 3 0 000 6z" id="mdfe2819f0d" stroke="#f6c592"/></defs><g clip-path="url(#pf7eff189fc)"><use x="228.667" xlink:href="#mdfe2819f0d" y="122.324" fill="#f6c592" stroke="#f6c592"/></g></g><g clip-path="url(#pf7eff189fc)" id="line2d_37"><use x="250.799" xlink:href="#m8aad8da596" y="106.773" fill="#fff" stroke="#000"/></g><g clip-path="url(#pf7eff189fc)" id="line2d_38"><use x="275.353" xlink:href="#m8aad8da596" y="93.599" fill="#fff" stroke="#000"/></g><path clip-path="url(#pf7eff189fc)" d="M190.626 152.9l52.176-83.832" fill="none" stroke="gray" stroke-linecap="square" stroke-width="1.5" id="line2d_39"/><g clip-path="url(#pf7eff189fc)" id="line2d_40"><use x="200.057" xlink:href="#m8aad8da596" y="135.541" fill="#fff" stroke="#000"/></g><g clip-path="url(#pf7eff189fc)" id="line2d_41"><use x="212.865" xlink:href="#m8aad8da596" y="116.869" fill="#fff" stroke="#000"/></g><g clip-path="url(#pf7eff189fc)" id="line2d_42"><use x="226.341" xlink:href="#m8aad8da596" y="95.008" fill="#fff" stroke="#000"/></g><g clip-path="url(#pf7eff189fc)" id="line2d_43"><use x="244.147" xlink:href="#m8aad8da596" y="69.92" fill="#fff" stroke="#000"/></g><path clip-path="url(#pf7eff189fc)" d="M190.626 152.9l28.079-101.89" fill="none" stroke="gray" stroke-linecap="square" stroke-width="1.5" id="line2d_44"/><g id="line2d_45"><defs><path d="M0 3a3 3 0 100-6 3 3 0 000 6z" id="m917b9c76c7" stroke="#ecffe2"/></defs><g clip-path="url(#pf7eff189fc)"><use x="194.286" xlink:href="#m917b9c76c7" y="133.662" fill="#ecffe2" stroke="#ecffe2"/></g></g><g clip-path="url(#pf7eff189fc)" id="line2d_46"><use x="202.148" xlink:href="#m8aad8da596" y="110.745" fill="#fff" stroke="#000"/></g><g clip-path="url(#pf7eff189fc)" id="line2d_47"><use x="210.427" xlink:href="#m8aad8da596" y="83.912" fill="#fff" stroke="#000"/></g><g clip-path="url(#pf7eff189fc)" id="line2d_48"><use x="219.584" xlink:href="#m8aad8da596" y="51.256" fill="#fff" stroke="#000"/></g><path clip-path="url(#pf7eff189fc)" d="M190.626 152.9l-9.93-133.604" fill="none" stroke="gray" stroke-linecap="square" stroke-width="1.5" id="line2d_49"/><g id="line2d_50"><defs><path d="M0 3a3 3 0 100-6 3 3 0 000 6z" id="md6ef277297" stroke="#c2efce"/></defs><g clip-path="url(#pf7eff189fc)"><use x="187.617" xlink:href="#md6ef277297" y="129.782" fill="#c2efce" stroke="#c2efce"/></g></g><g id="line2d_51"><defs><path d="M0 3a3 3 0 100-6 3 3 0 000 6z" id="m768ddaa6d0" stroke="#9ef9a3"/></defs><g clip-path="url(#pf7eff189fc)"><use x="188.36" xlink:href="#m768ddaa6d0" y="99.068" fill="#9ef9a3" stroke="#9ef9a3"/></g></g><g clip-path="url(#pf7eff189fc)" id="line2d_52"><use x="186.404" xlink:href="#m8aad8da596" y="62.177" fill="#fff" stroke="#000"/></g><g clip-path="url(#pf7eff189fc)" id="line2d_53"><use x="177.747" xlink:href="#m8aad8da596" y="19.548" fill="#fff" stroke="#000"/></g><path clip-path="url(#pf7eff189fc)" d="M190.626 152.9l-37.362-30.681" fill="none" stroke="gray" stroke-linecap="square" stroke-width="1.5" id="line2d_54"/><g id="line2d_55"><defs><path d="M0 3a3 3 0 100-6 3 3 0 000 6z" id="m0010fef1c4" stroke="#d2f4f0"/></defs><g clip-path="url(#pf7eff189fc)"><use x="183.192" xlink:href="#m0010fef1c4" y="144.848" fill="#d2f4f0" stroke="#d2f4f0"/></g></g><g id="line2d_56"><defs><path d="M0 3a3 3 0 100-6 3 3 0 000 6z" id="m82d20c5cf7" stroke="#a6feed"/></defs><g clip-path="url(#pf7eff189fc)"><use x="173.211" xlink:href="#m82d20c5cf7" y="138.406" fill="#a6feed" stroke="#a6feed"/></g></g><g clip-path="url(#pf7eff189fc)" id="line2d_57"><use x="162.812" xlink:href="#m8aad8da596" y="131.996" fill="#fff" stroke="#000"/></g><g clip-path="url(#pf7eff189fc)" id="line2d_58"><use x="153.163" xlink:href="#m8aad8da596" y="122.342" fill="#fff" stroke="#000"/></g><path clip-path="url(#pf7eff189fc)" d="M190.626 152.9l-45.889 4.888" fill="none" stroke="gray" stroke-linecap="square" stroke-width="1.5" id="line2d_59"/><g id="line2d_60"><defs><path d="M0 3a3 3 0 100-6 3 3 0 000 6z" id="m66155f5358" stroke="#c4e2ee"/></defs><g clip-path="url(#pf7eff189fc)"><use x="179.473" xlink:href="#m66155f5358" y="153.406" fill="#c4e2ee" stroke="#c4e2ee"/></g></g><g id="line2d_61"><defs><path d="M0 3a3 3 0 100-6 3 3 0 000 6z" id="m0a136fab85" stroke="#9fe9f8"/></defs><g clip-path="url(#pf7eff189fc)"><use x="167.82" xlink:href="#m0a136fab85" y="155.093" fill="#9fe9f8" stroke="#9fe9f8"/></g></g><g clip-path="url(#pf7eff189fc)" id="line2d_62"><use x="156.144" xlink:href="#m8aad8da596" y="157.43" fill="#fff" stroke="#000"/></g><g clip-path="url(#pf7eff189fc)" id="line2d_63"><use x="144.744" xlink:href="#m8aad8da596" y="157.848" fill="#fff" stroke="#000"/></g><path clip-path="url(#pf7eff189fc)" d="M190.626 152.9l-55.042 35.37" fill="none" stroke="gray" stroke-linecap="square" stroke-width="1.5" id="line2d_64"/><g id="line2d_65"><defs><path d="M0 3a3 3 0 100-6 3 3 0 000 6z" id="m5c3251cfe5" stroke="#a0b6cf"/></defs><g clip-path="url(#pf7eff189fc)"><use x="175.399" xlink:href="#m5c3251cfe5" y="162.371" fill="#a0b6cf" stroke="#a0b6cf"/></g></g><g id="line2d_66"><defs><path d="M0 3a3 3 0 100-6 3 3 0 000 6z" id="m4972483173" stroke="#7fbbe1"/></defs><g clip-path="url(#pf7eff189fc)"><use x="161.094" xlink:href="#m4972483173" y="170.363" fill="#7fbbe1" stroke="#7fbbe1"/></g></g><g id="line2d_67"><defs><path d="M0 3a3 3 0 100-6 3 3 0 000 6z" id="m045a04a9de" stroke="#4cbff3"/></defs><g clip-path="url(#pf7eff189fc)"><use x="147.943" xlink:href="#m045a04a9de" y="179.069" fill="#4cbff3" stroke="#4cbff3"/></g></g><g clip-path="url(#pf7eff189fc)" id="line2d_68"><use x="137.032" xlink:href="#m8aad8da596" y="190.428" fill="#fff" stroke="#000"/></g><path clip-path="url(#pf7eff189fc)" d="M190.626 152.9l-77.5 102.69" fill="none" stroke="gray" stroke-linecap="square" stroke-width="1.5" id="line2d_69"/><g id="line2d_70"><defs><path d="M0 3a3 3 0 100-6 3 3 0 000 6z" id="m603db87267" stroke="#485c85"/></defs><g clip-path="url(#pf7eff189fc)"><use x="157.862" xlink:href="#m603db87267" y="188.437" fill="#485c85" stroke="#485c85"/></g></g><g id="line2d_71"><defs><path d="M0 3a3 3 0 100-6 3 3 0 000 6z" id="m80198a8531" stroke="#1e5ca9"/></defs><g clip-path="url(#pf7eff189fc)"><use x="135.011" xlink:href="#m80198a8531" y="216.93" fill="#1e5ca9" stroke="#1e5ca9"/></g></g><g id="line2d_72"><defs><path d="M0 3a3 3 0 100-6 3 3 0 000 6z" id="m41397a058c" stroke="#0754ce"/></defs><g clip-path="url(#pf7eff189fc)"><use x="126.504" xlink:href="#m41397a058c" y="239.065" fill="#0754ce" stroke="#0754ce"/></g></g><g clip-path="url(#pf7eff189fc)" id="line2d_73"><use x="121.207" xlink:href="#m8aad8da596" y="261.216" fill="#fff" stroke="#000"/></g><path clip-path="url(#pf7eff189fc)" d="M190.626 152.9l-20.423 83.788" fill="none" stroke="gray" stroke-linecap="square" stroke-width="1.5" id="line2d_74"/><g id="line2d_75"><defs><path d="M0 3a3 3 0 100-6 3 3 0 000 6z" id="mcf68cf7f0e" stroke="#9979a8"/></defs><g clip-path="url(#pf7eff189fc)"><use x="185.623" xlink:href="#mcf68cf7f0e" y="179.99" fill="#9979a8" stroke="#9979a8"/></g></g><g id="line2d_76"><defs><path d="M0 3a3 3 0 100-6 3 3 0 000 6z" id="mbcec44da4f" stroke="#ac6bc6"/></defs><g clip-path="url(#pf7eff189fc)"><use x="181.129" xlink:href="#mbcec44da4f" y="202.161" fill="#ac6bc6" stroke="#ac6bc6"/></g></g><g id="line2d_77"><defs><path d="M0 3a3 3 0 100-6 3 3 0 000 6z" id="m3778a656f5" stroke="#b85be6"/></defs><g clip-path="url(#pf7eff189fc)"><use x="173.705" xlink:href="#m3778a656f5" y="220.147" fill="#b85be6" stroke="#b85be6"/></g></g><g clip-path="url(#pf7eff189fc)" id="line2d_78"><use x="166.839" xlink:href="#m8aad8da596" y="235.796" fill="#fff" stroke="#000"/></g><path clip-path="url(#pf7eff189fc)" d="M190.626 152.9l10.474 64.458" fill="none" stroke="gray" stroke-linecap="square" stroke-width="1.5" id="line2d_79"/><g id="line2d_80"><defs><path d="M0 3a3 3 0 100-6 3 3 0 000 6z" id="me9eae6bc13" stroke="#c395c1"/></defs><g clip-path="url(#pf7eff189fc)"><use x="193.802" xlink:href="#me9eae6bc13" y="172.81" fill="#c395c1" stroke="#c395c1"/></g></g><g id="line2d_81"><defs><path d="M0 3a3 3 0 100-6 3 3 0 000 6z" id="mbd29e8d97f" stroke="#df83d5"/></defs><g clip-path="url(#pf7eff189fc)"><use x="198.285" xlink:href="#mbd29e8d97f" y="188.61" fill="#df83d5" stroke="#df83d5"/></g></g><g id="line2d_82"><defs><path d="M0 3a3 3 0 100-6 3 3 0 000 6z" id="ma8e9e18a19" stroke="#f96cea"/></defs><g clip-path="url(#pf7eff189fc)"><use x="201.318" xlink:href="#ma8e9e18a19" y="202.617" fill="#f96cea" stroke="#f96cea"/></g></g><g clip-path="url(#pf7eff189fc)" id="line2d_83"><use x="196.779" xlink:href="#m8aad8da596" y="217.913" fill="#fff" stroke="#000"/></g><path clip-path="url(#pf7eff189fc)" d="M190.626 152.9l47.385 41.383" fill="none" stroke="gray" stroke-linecap="square" stroke-width="1.5" id="line2d_84"/><g id="line2d_85"><defs><path d="M0 3a3 3 0 100-6 3 3 0 000 6z" id="m3ea50d4caf" stroke="#c990af"/></defs><g clip-path="url(#pf7eff189fc)"><use x="204.582" xlink:href="#m3ea50d4caf" y="164.801" fill="#c990af" stroke="#c990af"/></g></g><g id="line2d_86"><defs><path d="M0 3a3 3 0 100-6 3 3 0 000 6z" id="m39a1e99ed0" stroke="#e67fbb"/></defs><g clip-path="url(#pf7eff189fc)"><use x="214.309" xlink:href="#m39a1e99ed0" y="177.876" fill="#e67fbb" stroke="#e67fbb"/></g></g><g clip-path="url(#pf7eff189fc)" id="line2d_87"><use x="227.194" xlink:href="#m8aad8da596" y="185.616" fill="#fff" stroke="#000"/></g><g clip-path="url(#pf7eff189fc)" id="line2d_88"><use x="240.304" xlink:href="#m8aad8da596" y="191.5" fill="#fff" stroke="#000"/></g><path d="M43.781 273.312V7.2" fill="none" stroke="#000" stroke-linecap="square" stroke-width=".8" id="patch_3"/><path d="M400.901 273.312V7.2" fill="none" stroke="#000" stroke-linecap="square" stroke-width=".8" id="patch_4"/><path d="M43.781 273.312h357.12" fill="none" stroke="#000" stroke-linecap="square" stroke-width=".8" id="patch_5"/><path d="M43.781 7.2h357.12" fill="none" stroke="#000" stroke-linecap="square" stroke-width=".8" id="patch_6"/></g></g><defs><clipPath id="pf7eff189fc"><path d="M43.781 7.2h357.12v266.112H43.781z"/></clipPath></defs></svg>