<svg height="476.799" viewBox="0 0 405.453 357.599" width="540.604" xmlns="http://www.w3.org/2000/svg" xmlns:xlink="http://www.w3.org/1999/xlink"><defs><style>*{stroke-linecap:butt;stroke-linejoin:round}</style></defs><g id="figure_1"><path d="M0 357.6h405.453V0H0z" fill="none" id="patch_1"/><g id="axes_1"><path d="M41.133 313.504h357.12V47.392H41.133z" fill="none" id="patch_2"/><path clip-path="url(#p1195481ac4)" d="m187.115 193.076 140.49-19.756" fill="none" stroke="gray" stroke-linecap="square" stroke-width="1.5" id="line2d_1"/><path clip-path="url(#p1195481ac4)" d="m187.115 193.076 83.235-61.405" fill="none" stroke="gray" stroke-linecap="square" stroke-width="1.5" id="line2d_2"/><path clip-path="url(#p1195481ac4)" d="m187.115 193.076 52.737-83.499" fill="none" stroke="gray" stroke-linecap="square" stroke-width="1.5" id="line2d_3"/><path clip-path="url(#p1195481ac4)" d="m187.115 193.076 28.719-101.729" fill="none" stroke="gray" stroke-linecap="square" stroke-width="1.5" id="line2d_4"/><path clip-path="url(#p1195481ac4)" d="M187.115 193.076 176.71 59.488" fill="none" stroke="gray" stroke-linecap="square" stroke-width="1.5" id="line2d_5"/><path clip-path="url(#p1195481ac4)" d="m187.115 193.076-37.66-30.327" fill="none" stroke="gray" stroke-linecap="square" stroke-width="1.5" id="line2d_6"/><path clip-path="url(#p1195481ac4)" d="m187.115 193.076-45.871 5.113" fill="none" stroke="gray" stroke-linecap="square" stroke-width="1.5" id="line2d_7"/><path clip-path="url(#p1195481ac4)" d="m187.115 193.076-54.755 35.829" fill="none" stroke="gray" stroke-linecap="square" stroke-width="1.5" id="line2d_8"/><path clip-path="url(#p1195481ac4)" d="m187.115 193.076-75.797 103.976" fill="none" stroke="gray" stroke-linecap="square" stroke-width="1.5" id="line2d_9"/><path clip-path="url(#p1195481ac4)" d="m187.115 193.076-21.348 83.57" fill="none" stroke="gray" stroke-linecap="square" stroke-width="1.5" id="line2d_10"/><path clip-path="url(#p1195481ac4)" d="m187.115 193.076 9.818 64.57" fill="none" stroke="gray" stroke-linecap="square" stroke-width="1.5" id="line2d_11"/><path clip-path="url(#p1195481ac4)" d="m187.115 193.076 47.868 40.837" fill="none" stroke="gray" stroke-linecap="square" stroke-width="1.5" id="line2d_12"/><g id="PathCollection_1"><defs><path d="M0 3a3 3 0 1 0 0-6 3 3 0 0 0 0 6z" id="C0_0_3c82b2519b"/></defs><g clip-path="url(#p1195481ac4)"><use x="225.419" xlink:href="#C0_0_3c82b2519b" y="183.107" fill="#c78780" stroke="#c78780"/></g><g clip-path="url(#p1195481ac4)"><use x="262.696" xlink:href="#C0_0_3c82b2519b" y="177.376" fill="#e87562" stroke="#e87562"/></g><g clip-path="url(#p1195481ac4)"><use x="295.363" xlink:href="#C0_0_3c82b2519b" y="178.295" fill="#fff" stroke="#000"/></g><g clip-path="url(#p1195481ac4)"><use x="328.067" xlink:href="#C0_0_3c82b2519b" y="176.94" fill="#fff" stroke="#000"/></g></g><g id="PathCollection_2"><defs><path d="M0 3a3 3 0 1 0 0-6 3 3 0 0 0 0 6z" id="C1_0_7b91b963cf"/></defs><g clip-path="url(#p1195481ac4)"><use x="204.327" xlink:href="#C1_0_7b91b963cf" y="177.073" fill="#e2c9b5" stroke="#e2c9b5"/></g><g clip-path="url(#p1195481ac4)"><use x="225.162" xlink:href="#C1_0_7b91b963cf" y="162.495" fill="#f6c592" stroke="#f6c592"/></g><g clip-path="url(#p1195481ac4)"><use x="247.297" xlink:href="#C1_0_7b91b963cf" y="146.942" fill="#fff" stroke="#000"/></g><g clip-path="url(#p1195481ac4)"><use x="271.855" xlink:href="#C1_0_7b91b963cf" y="133.765" fill="#fff" stroke="#000"/></g></g><g id="PathCollection_3"><defs><path d="M0 3a3 3 0 1 0 0-6 3 3 0 0 0 0 6z" id="C2_0_9742c56436"/></defs><g clip-path="url(#p1195481ac4)"><use x="196.547" xlink:href="#C2_0_9742c56436" y="175.714" fill="#fff" stroke="#000"/></g><g clip-path="url(#p1195481ac4)"><use x="209.357" xlink:href="#C2_0_9742c56436" y="157.039" fill="#fff" stroke="#000"/></g><g clip-path="url(#p1195481ac4)"><use x="222.836" xlink:href="#C2_0_9742c56436" y="135.175" fill="#fff" stroke="#000"/></g><g clip-path="url(#p1195481ac4)"><use x="240.644" xlink:href="#C2_0_9742c56436" y="110.083" fill="#fff" stroke="#000"/></g></g><g id="PathCollection_4"><defs><path d="M0 3a3 3 0 1 0 0-6 3 3 0 0 0 0 6z" id="C3_0_04adb7eda3"/></defs><g clip-path="url(#p1195481ac4)"><use x="190.776" xlink:href="#C3_0_04adb7eda3" y="173.835" fill="#ecffe2" stroke="#ecffe2"/></g><g clip-path="url(#p1195481ac4)"><use x="198.639" xlink:href="#C3_0_04adb7eda3" y="150.914" fill="#fff" stroke="#000"/></g><g clip-path="url(#p1195481ac4)"><use x="206.92" xlink:href="#C3_0_04adb7eda3" y="124.077" fill="#fff" stroke="#000"/></g><g clip-path="url(#p1195481ac4)"><use x="216.077" xlink:href="#C3_0_04adb7eda3" y="91.416" fill="#fff" stroke="#000"/></g></g><g id="PathCollection_5"><defs><path d="M0 3a3 3 0 1 0 0-6 3 3 0 0 0 0 6z" id="C4_0_3997f9243f"/></defs><g clip-path="url(#p1195481ac4)"><use x="184.106" xlink:href="#C4_0_3997f9243f" y="169.954" fill="#c2efce" stroke="#c2efce"/></g><g clip-path="url(#p1195481ac4)"><use x="184.849" xlink:href="#C4_0_3997f9243f" y="139.236" fill="#9ef9a3" stroke="#9ef9a3"/></g><g clip-path="url(#p1195481ac4)"><use x="182.892" xlink:href="#C4_0_3997f9243f" y="102.339" fill="#fff" stroke="#000"/></g><g clip-path="url(#p1195481ac4)"><use x="174.235" xlink:href="#C4_0_3997f9243f" y="59.703" fill="#fff" stroke="#000"/></g></g><g id="PathCollection_6"><defs><path d="M0 3a3 3 0 1 0 0-6 3 3 0 0 0 0 6z" id="C5_0_3c6d1714ee"/></defs><g clip-path="url(#p1195481ac4)"><use x="179.68" xlink:href="#C5_0_3c6d1714ee" y="185.022" fill="#d2f4f0" stroke="#d2f4f0"/></g><g clip-path="url(#p1195481ac4)"><use x="169.698" xlink:href="#C5_0_3c6d1714ee" y="178.58" fill="#a6feed" stroke="#a6feed"/></g><g clip-path="url(#p1195481ac4)"><use x="159.297" xlink:href="#C5_0_3c6d1714ee" y="172.169" fill="#fff" stroke="#000"/></g><g clip-path="url(#p1195481ac4)"><use x="149.647" xlink:href="#C5_0_3c6d1714ee" y="162.513" fill="#fff" stroke="#000"/></g></g><g id="PathCollection_7"><defs><path d="M0 3a3 3 0 1 0 0-6 3 3 0 0 0 0 6z" id="C6_0_7f125b557d"/></defs><g clip-path="url(#p1195481ac4)"><use x="175.961" xlink:href="#C6_0_7f125b557d" y="193.582" fill="#c4e2ee" stroke="#c4e2ee"/></g><g clip-path="url(#p1195481ac4)"><use x="164.306" xlink:href="#C6_0_7f125b557d" y="195.269" fill="#9fe9f8" stroke="#9fe9f8"/></g><g clip-path="url(#p1195481ac4)"><use x="152.628" xlink:href="#C6_0_7f125b557d" y="197.606" fill="#fff" stroke="#000"/></g><g clip-path="url(#p1195481ac4)"><use x="141.226" xlink:href="#C6_0_7f125b557d" y="198.025" fill="#fff" stroke="#000"/></g></g><g id="PathCollection_8"><defs><path d="M0 3a3 3 0 1 0 0-6 3 3 0 0 0 0 6z" id="C7_0_4a9cd133e3"/></defs><g clip-path="url(#p1195481ac4)"><use x="171.886" xlink:href="#C7_0_4a9cd133e3" y="202.548" fill="#a0b6cf" stroke="#a0b6cf"/></g><g clip-path="url(#p1195481ac4)"><use x="157.578" xlink:href="#C7_0_4a9cd133e3" y="210.541" fill="#7fbbe1" stroke="#7fbbe1"/></g><g clip-path="url(#p1195481ac4)"><use x="144.426" xlink:href="#C7_0_4a9cd133e3" y="219.248" fill="#4cbff3" stroke="#4cbff3"/></g><g clip-path="url(#p1195481ac4)"><use x="133.513" xlink:href="#C7_0_4a9cd133e3" y="230.609" fill="#fff" stroke="#000"/></g></g><g id="PathCollection_9"><defs><path d="M0 3a3 3 0 1 0 0-6 3 3 0 0 0 0 6z" id="C8_0_93cec578ce"/></defs><g clip-path="url(#p1195481ac4)"><use x="154.346" xlink:href="#C8_0_93cec578ce" y="228.618" fill="#485c85" stroke="#485c85"/></g><g clip-path="url(#p1195481ac4)"><use x="131.492" xlink:href="#C8_0_93cec578ce" y="257.115" fill="#1e5ca9" stroke="#1e5ca9"/></g><g clip-path="url(#p1195481ac4)"><use x="122.984" xlink:href="#C8_0_93cec578ce" y="279.253" fill="#0754ce" stroke="#0754ce"/></g><g clip-path="url(#p1195481ac4)"><use x="117.686" xlink:href="#C8_0_93cec578ce" y="301.408" fill="#fff" stroke="#000"/></g></g><g id="PathCollection_10"><defs><path d="M0 3a3 3 0 1 0 0-6 3 3 0 0 0 0 6z" id="C9_0_e5f2f1ba97"/></defs><g clip-path="url(#p1195481ac4)"><use x="182.111" xlink:href="#C9_0_e5f2f1ba97" y="220.17" fill="#9979a8" stroke="#9979a8"/></g><g clip-path="url(#p1195481ac4)"><use x="177.617" xlink:href="#C9_0_e5f2f1ba97" y="242.344" fill="#ac6bc6" stroke="#ac6bc6"/></g><g clip-path="url(#p1195481ac4)"><use x="170.191" xlink:href="#C9_0_e5f2f1ba97" y="260.332" fill="#b85be6" stroke="#b85be6"/></g><g clip-path="url(#p1195481ac4)"><use x="163.325" xlink:href="#C9_0_e5f2f1ba97" y="275.983" fill="#fff" stroke="#000"/></g></g><g id="PathCollection_11"><defs><path d="M0 3a3 3 0 1 0 0-6 3 3 0 0 0 0 6z" id="Ca_0_bd37a398aa"/></defs><g clip-path="url(#p1195481ac4)"><use x="190.292" xlink:href="#Ca_0_bd37a398aa" y="212.988" fill="#c395c1" stroke="#c395c1"/></g><g clip-path="url(#p1195481ac4)"><use x="194.775" xlink:href="#Ca_0_bd37a398aa" y="228.791" fill="#df83d5" stroke="#df83d5"/></g><g clip-path="url(#p1195481ac4)"><use x="197.809" xlink:href="#Ca_0_bd37a398aa" y="242.8" fill="#f96cea" stroke="#f96cea"/></g><g clip-path="url(#p1195481ac4)"><use x="193.269" xlink:href="#Ca_0_bd37a398aa" y="258.098" fill="#fff" stroke="#000"/></g></g><g id="PathCollection_12"><defs><path d="M0 3a3 3 0 1 0 0-6 3 3 0 0 0 0 6z" id="Cb_0_cbf43971f3"/></defs><g clip-path="url(#p1195481ac4)"><use x="201.073" xlink:href="#Cb_0_cbf43971f3" y="204.978" fill="#c990af" stroke="#c990af"/></g><g clip-path="url(#p1195481ac4)"><use x="210.802" xlink:href="#Cb_0_cbf43971f3" y="218.055" fill="#e67fbb" stroke="#e67fbb"/></g><g clip-path="url(#p1195481ac4)"><use x="223.689" xlink:href="#Cb_0_cbf43971f3" y="225.797" fill="#fff" stroke="#000"/></g><g clip-path="url(#p1195481ac4)"><use x="236.801" xlink:href="#Cb_0_cbf43971f3" y="231.681" fill="#fff" stroke="#000"/></g></g><g id="matplotlib.axis_1"><g id="xtick_1"><g id="line2d_13"><defs><path d="M0 0v3.5" id="md56dc5974d" stroke="#969696" stroke-width=".4"/></defs><use x="45.891" xlink:href="#md56dc5974d" y="313.504" fill="#969696" stroke="#969696" stroke-width=".4"/></g><g transform="matrix(.14 0 0 -.14 36.161 330.553)" fill="#969696" id="text_1"><defs><path d="M42.484 34.188q0 14.109-3.734 21.156-3.734 7.062-10.969 7.062-7.078 0-10.89-7.062-3.797-7.047-3.797-21.157 0-13.671 3.75-20.937Q20.609 6 27.78 6q7.235 0 10.969 7 3.734 7.016 3.734 21.188zm9.422 0q0-17.297-6.25-26.704-6.25-9.39-17.875-9.39-12.062 0-18.062 9.734-6 9.75-6 26.36 0 17.03 6.14 26.578 6.157 9.547 17.922 9.547 11.625 0 17.875-9.5t6.25-26.626z" id="HelveticaWorld-Regular-48"/><path d="M19.094 0H8.687v10.594h10.407z" id="HelveticaWorld-Regular-46"/></defs><use xlink:href="#HelveticaWorld-Regular-48"/><use x="55.615" xlink:href="#HelveticaWorld-Regular-46"/><use x="83.398" xlink:href="#HelveticaWorld-Regular-48"/></g></g><g id="xtick_2"><use x="91.438" xlink:href="#md56dc5974d" y="313.504" fill="#969696" stroke="#969696" stroke-width=".4" id="line2d_14"/><g transform="matrix(.14 0 0 -.14 81.708 330.553)" fill="#969696" id="text_2"><defs><path d="M35.89 0h-9.374v49.906H10.109v6.985q8.594.28 12.782 2.75Q27.094 62.109 29 70.313h6.89z" id="HelveticaWorld-Regular-49"/></defs><use xlink:href="#HelveticaWorld-Regular-48"/><use x="55.615" xlink:href="#HelveticaWorld-Regular-46"/><use x="83.398" xlink:href="#HelveticaWorld-Regular-49"/></g></g><g id="xtick_3"><use x="136.985" xlink:href="#md56dc5974d" y="313.504" fill="#969696" stroke="#969696" stroke-width=".4" id="line2d_15"/><g transform="matrix(.14 0 0 -.14 127.255 330.553)" fill="#969696" id="text_3"><defs><path d="M4.39 45.125q0 12.39 6.391 18.781 6.406 6.407 17.938 6.407 9.656 0 15.812-5.86 6.157-5.86 6.157-15.14 0-7.22-3.547-12.188-3.532-4.953-10.422-8.703l-12.11-6.64Q13.922 15.921 12.5 8.296h38.188V0H2.593q.39 9.906 4.297 16.5 3.906 6.594 12.203 11.375l12.593 7.328q5.032 2.89 7.329 5.984 2.297 3.094 2.297 8.516 0 5.375-3.766 9.031-3.75 3.672-10.156 3.672-7.078 0-10.594-4.672-3.516-4.656-3.61-12.609z" id="HelveticaWorld-Regular-50"/></defs><use xlink:href="#HelveticaWorld-Regular-48"/><use x="55.615" xlink:href="#HelveticaWorld-Regular-46"/><use x="83.398" xlink:href="#HelveticaWorld-Regular-50"/></g></g><g id="xtick_4"><use x="182.533" xlink:href="#md56dc5974d" y="313.504" fill="#969696" stroke="#969696" stroke-width=".4" id="line2d_16"/><g transform="matrix(.14 0 0 -.14 172.803 330.553)" fill="#969696" id="text_4"><defs><path d="M22.406 39.984q2.203-.187 4.594-.187 6.203 0 9.781 2.86 3.594 2.859 3.594 8.656 0 4.687-3.344 7.89-3.343 3.203-9.64 3.203-6.985 0-10.235-4.11-3.234-4.093-3.437-10.983h-8.64q0 10.984 5.765 16.984 5.765 6.016 16.937 6.016 9.922 0 15.828-5.11 5.907-5.094 5.907-13.39 0-10.704-9.032-14.5v-.204q11.72-4 11.72-16.406 0-9.906-6.595-16.265-6.593-6.344-18.703-6.344-9.906 0-16.312 5.203Q4.204 8.5 3.422 21.484H12.5q.203-8.109 4-11.797Q20.313 6 27.484 6q6.938 0 11.141 3.86 4.203 3.859 4.203 9.718 0 6.406-4.016 9.672-4 3.266-12.39 3.266-2 0-4.016-.094z" id="HelveticaWorld-Regular-51"/></defs><use xlink:href="#HelveticaWorld-Regular-48"/><use x="55.615" xlink:href="#HelveticaWorld-Regular-46"/><use x="83.398" xlink:href="#HelveticaWorld-Regular-51"/></g></g><g id="xtick_5"><use x="228.08" xlink:href="#md56dc5974d" y="313.504" fill="#969696" stroke="#969696" stroke-width=".4" id="line2d_17"/><g transform="matrix(.14 0 0 -.14 218.35 330.553)" fill="#969696" id="text_5"><defs><path d="M10.594 24.703h22.61v31.89h-.188zM42 17.093V0h-8.797v17.094H2.484v8.593L34.72 70.314H42v-45.61h10.297v-7.61z" id="HelveticaWorld-Regular-52"/></defs><use xlink:href="#HelveticaWorld-Regular-48"/><use x="55.615" xlink:href="#HelveticaWorld-Regular-46"/><use x="83.398" xlink:href="#HelveticaWorld-Regular-52"/></g></g><g id="xtick_6"><use x="273.627" xlink:href="#md56dc5974d" y="313.504" fill="#969696" stroke="#969696" stroke-width=".4" id="line2d_18"/><g transform="matrix(.14 0 0 -.14 263.897 330.553)" fill="#969696" id="text_6"><defs><path d="M14.703 40.922q5.813 4.39 13.625 4.39 9.469 0 16.281-6.296 6.813-6.297 6.813-16.22 0-10.78-6.578-17.796-6.563-7-18.422-7-10.313 0-16.266 5.047Q4.203 8.109 3.22 17.39h9.094q.671-5.672 4.437-8.672 3.766-3 10.453-3 6.485 0 10.64 4.484Q42 14.703 42 21.688q0 7.125-4.36 11.421-4.343 4.297-11.218 4.297-7.813 0-13.047-6.687l-7.563.39 5.266 37.594h36.438v-8.5H17.672z" id="HelveticaWorld-Regular-53"/></defs><use xlink:href="#HelveticaWorld-Regular-48"/><use x="55.615" xlink:href="#HelveticaWorld-Regular-46"/><use x="83.398" xlink:href="#HelveticaWorld-Regular-53"/></g></g><g id="xtick_7"><use x="319.174" xlink:href="#md56dc5974d" y="313.504" fill="#969696" stroke="#969696" stroke-width=".4" id="line2d_19"/><g transform="matrix(.14 0 0 -.14 309.444 330.553)" fill="#969696" id="text_7"><defs><path d="M14.11 21.578q0-6.875 4.093-11.234Q22.313 6 28.906 6q6.297 0 10.032 4.438 3.734 4.453 3.734 11.687 0 6.297-3.688 10.547-3.687 4.25-10.468 4.25-6.594 0-10.5-4.156-3.907-4.157-3.907-11.188zM41.702 51.61q-.984 5.375-3.984 8.078-3 2.72-8.125 2.72-8.11 0-12.36-7.923-4.25-7.906-4.343-18.109l.203-.188q5.61 8.641 16.687 8.641 8.844 0 15.438-5.86 6.593-5.859 6.593-16.452 0-10.5-6.25-17.47-6.25-6.952-16.843-6.952-12.219 0-18.563 8.687-6.344 8.703-6.344 25.938 0 16.593 6.485 27.093 6.5 10.5 19.484 10.5 8.407 0 14.219-5.015 5.813-5 6.297-13.688z" id="HelveticaWorld-Regular-54"/></defs><use xlink:href="#HelveticaWorld-Regular-48"/><use x="55.615" xlink:href="#HelveticaWorld-Regular-46"/><use x="83.398" xlink:href="#HelveticaWorld-Regular-54"/></g></g><g id="xtick_8"><use x="364.721" xlink:href="#md56dc5974d" y="313.504" fill="#969696" stroke="#969696" stroke-width=".4" id="line2d_20"/><g transform="matrix(.14 0 0 -.14 354.991 330.553)" fill="#969696" id="text_8"><defs><path d="M3.719 68.797h48.578v-7.719Q42.28 50.875 33.984 33.484 25.687 16.11 23.391 0h-9.672q1.469 13.281 9.719 30.531 8.25 17.266 18.953 29.672H3.719z" id="HelveticaWorld-Regular-55"/></defs><use xlink:href="#HelveticaWorld-Regular-48"/><use x="55.615" xlink:href="#HelveticaWorld-Regular-46"/><use x="83.398" xlink:href="#HelveticaWorld-Regular-55"/></g></g><g transform="matrix(.14 0 0 -.14 216.193 347.5)" fill="#969696" id="text_9"><defs><path d="M49.031 0H37.703l-12.89 19.672L12.203 0H1.125l18.266 26.906L2 52.296h11.188l12.109-18.405L37.5 52.297h10.688l-17.579-25.39z" id="HelveticaWorld-Regular-120"/></defs><use xlink:href="#HelveticaWorld-Regular-120"/></g></g><g id="matplotlib.axis_2"><g id="ytick_1"><g id="line2d_21"><defs><path d="M0 0h-3.5" id="m896629f998" stroke="#969696" stroke-width=".3"/></defs><use x="41.133" xlink:href="#m896629f998" y="291.526" fill="#969696" stroke="#969696" stroke-width=".3"/></g><g transform="matrix(.14 0 0 -.14 14.673 296.55)" fill="#969696" id="text_10"><use xlink:href="#HelveticaWorld-Regular-48"/><use x="55.615" xlink:href="#HelveticaWorld-Regular-46"/><use x="83.398" xlink:href="#HelveticaWorld-Regular-49"/></g></g><g id="ytick_2"><use x="41.133" xlink:href="#m896629f998" y="245.979" fill="#969696" stroke="#969696" stroke-width=".3" id="line2d_22"/><g transform="matrix(.14 0 0 -.14 14.673 251.003)" fill="#969696" id="text_11"><use xlink:href="#HelveticaWorld-Regular-48"/><use x="55.615" xlink:href="#HelveticaWorld-Regular-46"/><use x="83.398" xlink:href="#HelveticaWorld-Regular-50"/></g></g><g id="ytick_3"><use x="41.133" xlink:href="#m896629f998" y="200.431" fill="#969696" stroke="#969696" stroke-width=".3" id="line2d_23"/><g transform="matrix(.14 0 0 -.14 14.673 205.456)" fill="#969696" id="text_12"><use xlink:href="#HelveticaWorld-Regular-48"/><use x="55.615" xlink:href="#HelveticaWorld-Regular-46"/><use x="83.398" xlink:href="#HelveticaWorld-Regular-51"/></g></g><g id="ytick_4"><use x="41.133" xlink:href="#m896629f998" y="154.884" fill="#969696" stroke="#969696" stroke-width=".3" id="line2d_24"/><g transform="matrix(.14 0 0 -.14 14.673 159.909)" fill="#969696" id="text_13"><use xlink:href="#HelveticaWorld-Regular-48"/><use x="55.615" xlink:href="#HelveticaWorld-Regular-46"/><use x="83.398" xlink:href="#HelveticaWorld-Regular-52"/></g></g><g id="ytick_5"><use x="41.133" xlink:href="#m896629f998" y="109.337" fill="#969696" stroke="#969696" stroke-width=".3" id="line2d_25"/><g transform="matrix(.14 0 0 -.14 14.673 114.362)" fill="#969696" id="text_14"><use xlink:href="#HelveticaWorld-Regular-48"/><use x="55.615" xlink:href="#HelveticaWorld-Regular-46"/><use x="83.398" xlink:href="#HelveticaWorld-Regular-53"/></g></g><g id="ytick_6"><use x="41.133" xlink:href="#m896629f998" y="63.79" fill="#969696" stroke="#969696" stroke-width=".3" id="line2d_26"/><g transform="matrix(.14 0 0 -.14 14.673 68.815)" fill="#969696" id="text_15"><use xlink:href="#HelveticaWorld-Regular-48"/><use x="55.615" xlink:href="#HelveticaWorld-Regular-46"/><use x="83.398" xlink:href="#HelveticaWorld-Regular-54"/></g></g><g transform="matrix(.14 0 0 -.14 7.2 177.453)" fill="#969696" id="text_16"><defs><path d="M39.016 52.297h9.562L29.891.984q-.5-1.375-.985-2.593-4.25-11.329-7.328-15.547-3.078-4.235-9.953-4.235-3.61 0-5.906.782v8.015q2.484-.89 5.468-.89 3.22 0 4.704 2.03 1.5 2.032 4.421 9.938L.875 52.297h9.922L24.812 9.719H25z" id="HelveticaWorld-Regular-121"/></defs><use xlink:href="#HelveticaWorld-Regular-121"/></g></g><g transform="matrix(.14 0 0 -.14 97.49 17.392)" fill="#969696" id="text_17"><defs><path d="M64.89 0h-9.718v33.5h-37.5V0H8.109v71.781h9.563V42.094h37.5V71.78h9.719z" id="HelveticaWorld-Regular-72"/><path d="M6.11 52.297h8.78V17.578q0-5.765 2.61-8.625Q20.125 6.11 25 6.11q6.781 0 10.594 4.797 3.812 4.813 3.812 12.578v28.813h8.782V0H39.89v7.625l-.188.188q-4.984-9.329-16.61-9.329-7.515 0-12.25 4.094Q6.11 6.688 6.11 14.703z" id="HelveticaWorld-Regular-117"/><path d="M49.219 0h-8.844v32.172q0 7.422-2.594 10.578-2.578 3.156-8.578 3.156-5.906 0-9.875-4.5-3.953-4.484-3.953-12.89V0H6.594v52.297h8.297v-7.375h.203q6.203 8.89 15.812 8.89 8.89 0 13.594-4.718 4.719-4.703 4.719-13.5z" id="HelveticaWorld-Regular-110"/><path d="M12.984 26.313q0-9.61 3.813-14.907Q20.609 6.11 27.094 6.11q6.312 0 10.312 4.579 4 4.593 4 13 0 11.03-3.5 16.625-3.484 5.593-10.61 5.593-7.171 0-10.75-4.765-3.562-4.766-3.562-14.828zm36.828-23.33q0-12.609-6.062-18.797-6.047-6.203-18.266-6.203-8.78 0-13.984 4.047-5.203 4.048-5.984 11.58h8.796q.672-3.812 3.532-6.062 2.86-2.25 8.281-2.25 7.375 0 11.125 3.969 3.766 3.953 3.766 12.828v3.719h-.188q-4.937-7.329-13.922-7.329-11.187 0-17.093 8.25-5.907 8.25-5.907 20.953 0 11.625 5.953 18.875 5.97 7.25 15.829 7.25 9.906 0 15.625-8.89h.187v7.375h8.313z" id="HelveticaWorld-Regular-103"/><path d="M28.906 23.188H4.391v8.984h24.515z" id="HelveticaWorld-Regular-45"/><path d="M8.11 71.781h31.484q9.281 0 14.797-5.031 5.515-5.031 5.515-13.031 0-4.844-2.422-8.828-2.406-3.97-7.187-6.172 6.687-2.532 9.828-6.735 3.156-4.203 3.156-10.797 0-9.265-6.687-15.234Q49.906 0 38.922 0H8.109zm9.562-63.484h20.703q7.625 0 11.422 3.531 3.812 3.547 3.812 9.563 0 6.093-4.25 9.093Q45.125 33.5 36.812 33.5h-19.14zm0 33.11h17.625q7.719 0 11.312 2.796 3.594 2.813 3.594 8.781 0 5.125-3.406 7.813-3.39 2.687-11.39 2.687H17.671z" id="HelveticaWorld-Regular-66"/><path d="M42.484 30.328q-.687 8.485-4.5 12.031-3.797 3.547-10.109 3.547-6.39 0-10.328-4.5-3.922-4.484-4.172-11.078zm8.391-13.922q-1.453-8.11-7.953-13.422-5.719-4.5-15.047-4.593-10.984.093-17.438 7.203Q4 12.704 4 24.704q0 13.78 6.64 21.437 6.641 7.672 18.47 7.672 10.593 0 16.546-7.922 5.953-7.907 5.953-22.594H13.375q0-8.203 3.813-12.703Q21 6.109 28.608 6.109q5.375 0 9.235 3.235 3.86 3.25 4.25 7.062z" id="HelveticaWorld-Regular-101"/><path d="M15.375 0H6.594v52.297h8.297v-8.688h.203q5.703 10.203 14.687 10.203 1.422 0 2.297-.296V44.39h-3.266q-5.906 0-9.671-4.016-3.766-4-3.766-9.953z" id="HelveticaWorld-Regular-114"/><path d="M36.078 37.406q-.187 4.688-3.344 6.735-3.14 2.047-9.047 2.047-4.296 0-7.359-1.907-3.047-1.89-3.047-5.468 0-2.829 1.797-4.172 1.813-1.344 7.828-2.86l8.688-2.187q7.906-2 11.297-5.11 3.406-3.093 3.406-8.656 0-7.719-5.64-12.531-5.641-4.813-15.063-4.813-11 0-16.64 4.563-5.626 4.578-5.735 13.75h8.5q.203-5.422 3.594-8.063 3.39-2.625 10.171-2.625 5.516 0 8.766 2.188 3.25 2.203 3.25 6.11 0 2.78-2.11 4.437-2.093 1.672-8.296 3.078l-10.203 2.5q-6.203 1.562-9.157 4.656-2.953 3.094-2.953 8.031 0 7.72 5.516 12.203 5.531 4.5 14.406 4.5 9.485 0 14.531-4.624 5.047-4.61 5.344-11.782z" id="HelveticaWorld-Regular-115"/><path d="M49.219 0h-8.844v34.188q0 6.296-2.438 9-2.437 2.718-7.953 2.718-6.797 0-10.703-4.406-3.906-4.39-3.906-12.984V0H6.594v71.781h8.781V45.312h.203q6 8.5 15.328 8.5 8.594 0 13.453-4.5 4.86-4.484 4.86-13.718z" id="HelveticaWorld-Regular-104"/><path d="M15.375 0H6.594v71.781h8.781z" id="HelveticaWorld-Regular-108"/><path d="M6.594 61.813v9.968h8.781v-9.969zM15.375 0H6.594v52.297h8.781z" id="HelveticaWorld-Regular-105"/><path d="M38.375 26.703q-.969-1.015-3.828-1.656-2.86-.625-10.672-1.656-5.766-.688-8.469-2.844-2.703-2.14-2.703-5.656 0-4.297 2.281-6.688 2.297-2.39 7.329-2.39 6.296 0 11.171 3.578 4.891 3.593 4.891 8.718zM6.203 36.375q.297 8.844 5.734 13.14 5.454 4.297 15.844 4.297 8.297 0 13.907-3.765 5.624-3.75 5.624-10.844V9.078Q47.313 6 50.094 6q1.125 0 2.89.39V0Q50.594-.984 48-.984q-4.5 0-6.703 1.921-2.188 1.938-2.281 6.047-7.516-8.5-18.891-8.5-7.422 0-11.922 4.204Q3.72 6.89 3.72 13.624q0 6.89 3.906 11.125Q11.531 29 19 29.89l15.516 1.891q4.203.64 4.203 6.203 0 4.11-3.047 6.297-3.047 2.203-9.25 2.203-5.516 0-8.485-2.437-2.953-2.438-3.53-7.672z" id="HelveticaWorld-Regular-97"/><path d="M17.188 45.016V10.984q0-2 1.093-3.046 1.11-1.047 3.938-1.047h3.375V0Q20.797-.688 19-.688q-5.516 0-8.063 2.641-2.53 2.64-2.53 8.547v34.516H1.311v7.28h7.094v14.595h8.781V52.297h8.407v-7.281z" id="HelveticaWorld-Regular-116"/><path d="M13.094 26.313q0-9.704 3.844-14.954 3.859-5.25 10.265-5.25 6.094 0 10.188 4.485 4.109 4.5 4.109 13.094 0 11.03-3.5 16.625-3.484 5.593-10.61 5.593-6.78 0-10.546-4.453-3.75-4.437-3.75-15.14zM50.39 0h-8.297v7.172h-.203q-4.97-8.688-15.078-8.688-10.891 0-16.86 8.297Q4 15.094 4 27.688q0 11.625 5.906 18.875 5.922 7.25 15.875 7.25 9.813 0 15.625-8.891l.203.594V71.78h8.782z" id="HelveticaWorld-Regular-100"/><path d="M17.188 45.016V0H8.405v45.016H1.22v7.28h7.187v8.985q0 5.907 3.578 8.703 3.594 2.813 10.032 2.813 2.203 0 3.968-.188v-7.906q-1.562.188-3.578.188-2.922 0-4.078-1.438-1.14-1.437-1.14-4.656v-6.5h8.796v-7.281z" id="HelveticaWorld-Regular-102"/><path d="M12.703 26.219q0-8.735 3.953-14.375 3.953-5.64 11.219-5.64 7.531 0 11.438 5.905 3.906 5.907 3.906 14.11 0 8.297-3.907 14.078-3.906 5.797-11.437 5.797-6.969 0-11.078-5.453-4.094-5.438-4.094-14.422zm-8.984 0q0 11.672 6.484 19.625 6.5 7.968 17.672 7.968 11.438 0 17.875-8.062 6.453-8.047 6.453-19.531 0-11.516-6.406-19.625-6.39-8.11-17.922-8.11-11.078 0-17.625 7.86-6.531 7.86-6.531 19.875z" id="HelveticaWorld-Regular-111"/><path d="M37.313 0h-9.72v28.906L.485 71.781h11.329l20.609-34.469 20.562 34.47h11.422L37.312 28.905z" id="HelveticaWorld-Regular-89"/><path d="M0-12.313v4.891h55.61v-4.89z" id="HelveticaWorld-Regular-95"/></defs><use xlink:href="#HelveticaWorld-Regular-72"/><use x="72.998" xlink:href="#HelveticaWorld-Regular-117"/><use x="127.783" xlink:href="#HelveticaWorld-Regular-110"/><use x="182.959" xlink:href="#HelveticaWorld-Regular-103"/><use x="238.867" xlink:href="#HelveticaWorld-Regular-45"/><use x="272.168" xlink:href="#HelveticaWorld-Regular-66"/><use x="339.355" xlink:href="#HelveticaWorld-Regular-101"/><use x="394.775" xlink:href="#HelveticaWorld-Regular-114"/><use x="427.344" xlink:href="#HelveticaWorld-Regular-110"/><use x="482.52" xlink:href="#HelveticaWorld-Regular-115"/><use x="532.52" xlink:href="#HelveticaWorld-Regular-32"/><use x="556.934" xlink:href="#HelveticaWorld-Regular-104"/><use x="612.109" xlink:href="#HelveticaWorld-Regular-117"/><use x="666.895" xlink:href="#HelveticaWorld-Regular-101"/><use x="722.314" xlink:href="#HelveticaWorld-Regular-32"/><use x="746.729" xlink:href="#HelveticaWorld-Regular-108"/><use x="768.75" xlink:href="#HelveticaWorld-Regular-105"/><use x="790.771" xlink:href="#HelveticaWorld-Regular-110"/><use x="845.947" xlink:href="#HelveticaWorld-Regular-101"/><use x="901.367" xlink:href="#HelveticaWorld-Regular-97"/><use x="956.299" xlink:href="#HelveticaWorld-Regular-114"/><use x="988.867" xlink:href="#HelveticaWorld-Regular-105"/><use x="1010.889" xlink:href="#HelveticaWorld-Regular-116"/><use x="1038.574" xlink:href="#HelveticaWorld-Regular-121"/><use x="1088.184" xlink:href="#HelveticaWorld-Regular-32"/><use x="1112.598" xlink:href="#HelveticaWorld-Regular-100"/><use x="1169.58" xlink:href="#HelveticaWorld-Regular-97"/><use x="1224.512" xlink:href="#HelveticaWorld-Regular-116"/><use x="1252.197" xlink:href="#HelveticaWorld-Regular-97"/><use x="1307.129" xlink:href="#HelveticaWorld-Regular-32"/><use x="1331.543" xlink:href="#HelveticaWorld-Regular-102"/><use x="1357.229" xlink:href="#HelveticaWorld-Regular-111"/><use x="1413.137" xlink:href="#HelveticaWorld-Regular-114"/><use x="1445.705" xlink:href="#HelveticaWorld-Regular-32"/><use x="1470.119" xlink:href="#HelveticaWorld-Regular-120"/><use x="1520.119" xlink:href="#HelveticaWorld-Regular-121"/><use x="1569.729" xlink:href="#HelveticaWorld-Regular-89"/><use x="1634.523" xlink:href="#HelveticaWorld-Regular-95"/><use x="1690.139" xlink:href="#HelveticaWorld-Regular-49"/></g></g></g><defs><clipPath id="p1195481ac4"><path d="M41.133 47.392h357.12v266.112H41.133z"/></clipPath></defs></svg>