<svg height="414.491" viewBox="0 0 428.495 310.868" width="571.327" xmlns="http://www.w3.org/2000/svg" xmlns:xlink="http://www.w3.org/1999/xlink"><defs><style>*{stroke-linecap:butt;stroke-linejoin:round}</style></defs><g id="figure_1"><path d="M0 310.868h428.495V0H0z" fill="none" id="patch_1"/><g id="axes_1"><path d="M55.345 273.312h357.12V7.2H55.345z" fill="none" id="patch_2"/><g id="matplotlib.axis_1"><g id="xtick_1"><path clip-path="url(#p8961702159)" d="M65.624 273.312V7.2" fill="none" stroke="#b0b0b0" stroke-linecap="square" stroke-width=".8" id="line2d_1"/><g id="line2d_2"><defs><path d="M0 0v3.5" id="m1732f90b3c" stroke="#000" stroke-width=".8"/></defs><use x="65.624" xlink:href="#m1732f90b3c" y="273.312" stroke="#000" stroke-width=".8"/></g><g id="text_1"><defs><path d="M10.594 35.5h62.593v-8.297H10.594z" id="DejaVuSans-8722"/><path d="M12.406 8.297h16.11v55.625l-17.532-3.516v8.985l17.438 3.515h9.86V8.296H54.39V0H12.406z" id="DejaVuSans-49"/><path d="M10.797 72.906h38.719v-8.312H19.828v-17.86q2.14.735 4.281 1.094 2.157.36 4.313.36 12.203 0 19.328-6.688 7.14-6.688 7.14-18.11 0-11.765-7.328-18.296-7.328-6.516-20.656-6.516-4.593 0-9.36.781-4.75.782-9.827 2.344v9.922q4.39-2.39 9.078-3.563 4.687-1.171 9.906-1.171 8.453 0 13.375 4.437 4.938 4.438 4.938 12.063 0 7.609-4.938 12.047-4.922 4.453-13.375 4.453-3.953 0-7.89-.875-3.922-.875-8.016-2.735z" id="DejaVuSans-53"/><path d="M31.781 66.406q-7.61 0-11.453-7.5Q16.5 51.422 16.5 36.375q0-14.984 3.828-22.484 3.844-7.5 11.453-7.5 7.672 0 11.5 7.5 3.844 7.5 3.844 22.484 0 15.047-3.844 22.531-3.828 7.5-11.5 7.5zm0 7.813q12.266 0 18.735-9.703 6.468-9.688 6.468-28.141 0-18.406-6.468-28.11-6.47-9.687-18.735-9.687-12.25 0-18.718 9.688-6.47 9.703-6.47 28.109 0 18.453 6.47 28.14Q19.53 74.22 31.78 74.22z" id="DejaVuSans-48"/></defs><g transform="matrix(.1 0 0 -.1 51.89 287.91)"><use xlink:href="#DejaVuSans-8722"/><use x="83.789" xlink:href="#DejaVuSans-49"/><use x="147.412" xlink:href="#DejaVuSans-53"/><use x="211.035" xlink:href="#DejaVuSans-48"/></g></g></g><g id="xtick_2"><path clip-path="url(#p8961702159)" d="M123.312 273.312V7.2" fill="none" stroke="#b0b0b0" stroke-linecap="square" stroke-width=".8" id="line2d_3"/><use x="123.312" xlink:href="#m1732f90b3c" y="273.312" stroke="#000" stroke-width=".8" id="line2d_4"/><g transform="matrix(.1 0 0 -.1 109.578 287.91)" id="text_2"><use xlink:href="#DejaVuSans-8722"/><use x="83.789" xlink:href="#DejaVuSans-49"/><use x="147.412" xlink:href="#DejaVuSans-48"/><use x="211.035" xlink:href="#DejaVuSans-48"/></g></g><g id="xtick_3"><path clip-path="url(#p8961702159)" d="M181 273.312V7.2" fill="none" stroke="#b0b0b0" stroke-linecap="square" stroke-width=".8" id="line2d_5"/><use x="181" xlink:href="#m1732f90b3c" y="273.312" stroke="#000" stroke-width=".8" id="line2d_6"/><g transform="matrix(.1 0 0 -.1 170.447 287.91)" id="text_3"><use xlink:href="#DejaVuSans-8722"/><use x="83.789" xlink:href="#DejaVuSans-53"/><use x="147.412" xlink:href="#DejaVuSans-48"/></g></g><g id="xtick_4"><path clip-path="url(#p8961702159)" d="M238.688 273.312V7.2" fill="none" stroke="#b0b0b0" stroke-linecap="square" stroke-width=".8" id="line2d_7"/><use x="238.688" xlink:href="#m1732f90b3c" y="273.312" stroke="#000" stroke-width=".8" id="line2d_8"/><use xlink:href="#DejaVuSans-48" transform="matrix(.1 0 0 -.1 235.506 287.91)" id="text_4"/></g><g id="xtick_5"><path clip-path="url(#p8961702159)" d="M296.376 273.312V7.2" fill="none" stroke="#b0b0b0" stroke-linecap="square" stroke-width=".8" id="line2d_9"/><use x="296.376" xlink:href="#m1732f90b3c" y="273.312" stroke="#000" stroke-width=".8" id="line2d_10"/><g transform="matrix(.1 0 0 -.1 290.013 287.91)" id="text_5"><use xlink:href="#DejaVuSans-53"/><use x="63.623" xlink:href="#DejaVuSans-48"/></g></g><g id="xtick_6"><path clip-path="url(#p8961702159)" d="M354.063 273.312V7.2" fill="none" stroke="#b0b0b0" stroke-linecap="square" stroke-width=".8" id="line2d_11"/><use x="354.063" xlink:href="#m1732f90b3c" y="273.312" stroke="#000" stroke-width=".8" id="line2d_12"/><g transform="matrix(.1 0 0 -.1 344.52 287.91)" id="text_6"><use xlink:href="#DejaVuSans-49"/><use x="63.623" xlink:href="#DejaVuSans-48"/><use x="127.246" xlink:href="#DejaVuSans-48"/></g></g><g id="xtick_7"><path clip-path="url(#p8961702159)" d="M411.751 273.312V7.2" fill="none" stroke="#b0b0b0" stroke-linecap="square" stroke-width=".8" id="line2d_13"/><use x="411.751" xlink:href="#m1732f90b3c" y="273.312" stroke="#000" stroke-width=".8" id="line2d_14"/><g transform="matrix(.1 0 0 -.1 402.208 287.91)" id="text_7"><use xlink:href="#DejaVuSans-49"/><use x="63.623" xlink:href="#DejaVuSans-53"/><use x="127.246" xlink:href="#DejaVuSans-48"/></g></g><g id="text_8"><defs><path d="M34.281 27.484q-10.89 0-15.093-2.484-4.204-2.484-4.204-8.5 0-4.781 3.157-7.594 3.156-2.797 8.562-2.797 7.485 0 12 5.297 4.516 5.297 4.516 14.078v2zm17.922 3.72V0H43.22v8.297Q40.14 3.328 35.547.953q-4.594-2.375-11.234-2.375-8.391 0-13.36 4.719Q6 8.016 6 15.922q0 9.219 6.172 13.906 6.187 4.688 18.437 4.688h12.61v.89q0 6.203-4.078 9.594-4.078 3.39-11.453 3.39-4.688 0-9.141-1.124-4.438-1.125-8.531-3.375v8.312q4.921 1.906 9.562 2.844 4.64.953 9.031.953 11.875 0 17.735-6.156 5.86-6.14 5.86-18.64z" id="DejaVuSans-97"/><path d="M47.016 60.89L29.5 51.423l17.516-9.531-2.828-4.782-16.407 9.907V28.609H22.22v18.407L5.812 37.109l-2.828 4.782 17.532 9.53-17.532 9.47 2.829 4.828 16.406-9.906v18.406h5.562V55.813l16.407 9.906z" id="DejaVuSans-42"/></defs><g transform="matrix(.1 0 0 -.1 228.341 301.589)"><use xlink:href="#DejaVuSans-97"/><use x="61.279" xlink:href="#DejaVuSans-42"/></g></g></g><g id="matplotlib.axis_2"><g id="ytick_1"><path clip-path="url(#p8961702159)" d="M55.345 246.775h357.12" fill="none" stroke="#b0b0b0" stroke-linecap="square" stroke-width=".8" id="line2d_15"/><g id="line2d_16"><defs><path d="M0 0h-3.5" id="m1088eaa960" stroke="#000" stroke-width=".8"/></defs><use x="55.345" xlink:href="#m1088eaa960" y="246.775" stroke="#000" stroke-width=".8"/></g><g transform="matrix(.1 0 0 -.1 20.878 250.574)" id="text_9"><use xlink:href="#DejaVuSans-8722"/><use x="83.789" xlink:href="#DejaVuSans-49"/><use x="147.412" xlink:href="#DejaVuSans-48"/><use x="211.035" xlink:href="#DejaVuSans-48"/></g></g><g id="ytick_2"><path clip-path="url(#p8961702159)" d="M55.345 189.087h357.12" fill="none" stroke="#b0b0b0" stroke-linecap="square" stroke-width=".8" id="line2d_17"/><use x="55.345" xlink:href="#m1088eaa960" y="189.087" stroke="#000" stroke-width=".8" id="line2d_18"/><g transform="matrix(.1 0 0 -.1 27.24 192.886)" id="text_10"><use xlink:href="#DejaVuSans-8722"/><use x="83.789" xlink:href="#DejaVuSans-53"/><use x="147.412" xlink:href="#DejaVuSans-48"/></g></g><g id="ytick_3"><path clip-path="url(#p8961702159)" d="M55.345 131.399h357.12" fill="none" stroke="#b0b0b0" stroke-linecap="square" stroke-width=".8" id="line2d_19"/><use x="55.345" xlink:href="#m1088eaa960" y="131.399" stroke="#000" stroke-width=".8" id="line2d_20"/><use xlink:href="#DejaVuSans-48" transform="matrix(.1 0 0 -.1 41.983 135.198)" id="text_11"/></g><g id="ytick_4"><path clip-path="url(#p8961702159)" d="M55.345 73.711h357.12" fill="none" stroke="#b0b0b0" stroke-linecap="square" stroke-width=".8" id="line2d_21"/><use x="55.345" xlink:href="#m1088eaa960" y="73.711" stroke="#000" stroke-width=".8" id="line2d_22"/><g transform="matrix(.1 0 0 -.1 35.62 77.51)" id="text_12"><use xlink:href="#DejaVuSans-53"/><use x="63.623" xlink:href="#DejaVuSans-48"/></g></g><g id="ytick_5"><path clip-path="url(#p8961702159)" d="M55.345 16.023h357.12" fill="none" stroke="#b0b0b0" stroke-linecap="square" stroke-width=".8" id="line2d_23"/><use x="55.345" xlink:href="#m1088eaa960" y="16.023" stroke="#000" stroke-width=".8" id="line2d_24"/><g transform="matrix(.1 0 0 -.1 29.258 19.822)" id="text_13"><use xlink:href="#DejaVuSans-49"/><use x="63.623" xlink:href="#DejaVuSans-48"/><use x="127.246" xlink:href="#DejaVuSans-48"/></g></g><g id="text_14"><defs><path d="M48.688 27.297q0 9.906-4.079 15.547-4.078 5.64-11.203 5.64-7.14 0-11.218-5.64-4.079-5.64-4.079-15.547 0-9.906 4.078-15.547 4.079-5.64 11.22-5.64 7.124 0 11.202 5.64t4.078 15.547zM18.108 46.39q2.844 4.875 7.157 7.234Q29.594 56 35.594 56q9.968 0 16.187-7.906 6.235-7.907 6.235-20.797T51.78 6.484q-6.218-7.906-16.187-7.906-6 0-10.328 2.375-4.313 2.375-7.157 7.25V0H9.08v75.984h9.03z" id="DejaVuSans-98"/></defs><g transform="matrix(0 -.1 -.1 0 14.798 145.93)"><use xlink:href="#DejaVuSans-98"/><use x="63.477" xlink:href="#DejaVuSans-42"/></g></g></g><path clip-path="url(#p8961702159)" d="M244.748 137.823l88.011-91.988" fill="none" stroke="gray" stroke-linecap="square" stroke-width="1.5" id="line2d_25"/><g id="line2d_26"><defs><path d="M0 3a3 3 0 100-6 3 3 0 000 6z" id="m4542cd4eef" stroke="#c78780"/></defs><g clip-path="url(#p8961702159)"><use x="266.185" xlink:href="#m4542cd4eef" y="115.709" fill="#c78780" stroke="#c78780"/></g></g><g id="line2d_27"><defs><path d="M0 3a3 3 0 100-6 3 3 0 000 6z" id="m874e1ed402" stroke="#e87562"/></defs><g clip-path="url(#p8961702159)"><use x="287.902" xlink:href="#m874e1ed402" y="95.309" fill="#e87562" stroke="#e87562"/></g></g><g id="line2d_28"><defs><path d="M0 3a3 3 0 100-6 3 3 0 000 6z" id="me52f85e693" stroke="#000"/></defs><g clip-path="url(#p8961702159)"><use x="309.824" xlink:href="#me52f85e693" y="76.616" fill="#fff" stroke="#000"/></g></g><g clip-path="url(#p8961702159)" id="line2d_29"><use x="327.795" xlink:href="#me52f85e693" y="41.33" fill="#fff" stroke="#000"/></g><path clip-path="url(#p8961702159)" d="M244.748 137.823L262.27 31.106" fill="none" stroke="gray" stroke-linecap="square" stroke-width="1.5" id="line2d_30"/><g id="line2d_31"><defs><path d="M0 3a3 3 0 100-6 3 3 0 000 6z" id="m8b4852b790" stroke="#e2c9b5"/></defs><g clip-path="url(#p8961702159)"><use x="245.43" xlink:href="#m8b4852b790" y="116.319" fill="#e2c9b5" stroke="#e2c9b5"/></g></g><g id="line2d_32"><defs><path d="M0 3a3 3 0 100-6 3 3 0 000 6z" id="m7b980e7e53" stroke="#f6c592"/></defs><g clip-path="url(#p8961702159)"><use x="251.488" xlink:href="#m7b980e7e53" y="94.455" fill="#f6c592" stroke="#f6c592"/></g></g><g clip-path="url(#p8961702159)" id="line2d_33"><use x="256.728" xlink:href="#me52f85e693" y="67.849" fill="#fff" stroke="#000"/></g><g clip-path="url(#p8961702159)" id="line2d_34"><use x="264.934" xlink:href="#me52f85e693" y="31.578" fill="#fff" stroke="#000"/></g><path clip-path="url(#p8961702159)" d="M244.748 137.823L212.81 20.879" fill="none" stroke="gray" stroke-linecap="square" stroke-width="1.5" id="line2d_35"/><g clip-path="url(#p8961702159)" id="line2d_36"><use x="235.264" xlink:href="#me52f85e693" y="116.302" fill="#fff" stroke="#000"/></g><g clip-path="url(#p8961702159)" id="line2d_37"><use x="229.948" xlink:href="#me52f85e693" y="92.053" fill="#fff" stroke="#000"/></g><g clip-path="url(#p8961702159)" id="line2d_38"><use x="223.276" xlink:href="#me52f85e693" y="62.951" fill="#fff" stroke="#000"/></g><g clip-path="url(#p8961702159)" id="line2d_39"><use x="219.308" xlink:href="#me52f85e693" y="19.296" fill="#fff" stroke="#000"/></g><path clip-path="url(#p8961702159)" d="M244.748 137.823l-70.273-108.61" fill="none" stroke="gray" stroke-linecap="square" stroke-width="1.5" id="line2d_40"/><g id="line2d_41"><defs><path d="M0 3a3 3 0 100-6 3 3 0 000 6z" id="m4bdcfef49a" stroke="#ecffe2"/></defs><g clip-path="url(#p8961702159)"><use x="225.902" xlink:href="#m4bdcfef49a" y="117.668" fill="#ecffe2" stroke="#ecffe2"/></g></g><g clip-path="url(#p8961702159)" id="line2d_42"><use x="211.594" xlink:href="#me52f85e693" y="93.234" fill="#fff" stroke="#000"/></g><g clip-path="url(#p8961702159)" id="line2d_43"><use x="197.07" xlink:href="#me52f85e693" y="64.667" fill="#fff" stroke="#000"/></g><g clip-path="url(#p8961702159)" id="line2d_44"><use x="182.006" xlink:href="#me52f85e693" y="24.695" fill="#fff" stroke="#000"/></g><path clip-path="url(#p8961702159)" d="M244.748 137.823l-121.52-99.447" fill="none" stroke="gray" stroke-linecap="square" stroke-width="1.5" id="line2d_45"/><g id="line2d_46"><defs><path d="M0 3a3 3 0 100-6 3 3 0 000 6z" id="m7b40b215d5" stroke="#c2efce"/></defs><g clip-path="url(#p8961702159)"><use x="214.664" xlink:href="#m7b40b215d5" y="118.233" fill="#c2efce" stroke="#c2efce"/></g></g><g id="line2d_47"><defs><path d="M0 3a3 3 0 100-6 3 3 0 000 6z" id="mfe2b8937dd" stroke="#9ef9a3"/></defs><g clip-path="url(#p8961702159)"><use x="187.833" xlink:href="#mfe2b8937dd" y="93.176" fill="#9ef9a3" stroke="#9ef9a3"/></g></g><g clip-path="url(#p8961702159)" id="line2d_48"><use x="159.137" xlink:href="#me52f85e693" y="65.519" fill="#fff" stroke="#000"/></g><g clip-path="url(#p8961702159)" id="line2d_49"><use x="125.573" xlink:href="#me52f85e693" y="35.578" fill="#fff" stroke="#000"/></g><path clip-path="url(#p8961702159)" d="M244.748 137.823l-85.045-12.17" fill="none" stroke="gray" stroke-linecap="square" stroke-width="1.5" id="line2d_50"/><g id="line2d_51"><defs><path d="M0 3a3 3 0 100-6 3 3 0 000 6z" id="m84ceeafee2" stroke="#d2f4f0"/></defs><g clip-path="url(#p8961702159)"><use x="224.826" xlink:href="#m84ceeafee2" y="133.175" fill="#d2f4f0" stroke="#d2f4f0"/></g></g><g id="line2d_52"><defs><path d="M0 3a3 3 0 100-6 3 3 0 000 6z" id="m787a3d257f" stroke="#a6feed"/></defs><g clip-path="url(#p8961702159)"><use x="204.127" xlink:href="#m787a3d257f" y="131.652" fill="#a6feed" stroke="#a6feed"/></g></g><g clip-path="url(#p8961702159)" id="line2d_53"><use x="182.864" xlink:href="#me52f85e693" y="130.425" fill="#fff" stroke="#000"/></g><g clip-path="url(#p8961702159)" id="line2d_54"><use x="159.608" xlink:href="#me52f85e693" y="126.338" fill="#fff" stroke="#000"/></g><path clip-path="url(#p8961702159)" d="M244.748 137.823l-59.284 21.927" fill="none" stroke="gray" stroke-linecap="square" stroke-width="1.5" id="line2d_55"/><g id="line2d_56"><defs><path d="M0 3a3 3 0 100-6 3 3 0 000 6z" id="m0d3cce129f" stroke="#c4e2ee"/></defs><g clip-path="url(#p8961702159)"><use x="230.571" xlink:href="#m0d3cce129f" y="142.171" fill="#c4e2ee" stroke="#c4e2ee"/></g></g><g id="line2d_57"><defs><path d="M0 3a3 3 0 100-6 3 3 0 000 6z" id="m2f59c8541c" stroke="#9fe9f8"/></defs><g clip-path="url(#p8961702159)"><use x="216.824" xlink:href="#m2f59c8541c" y="148.253" fill="#9fe9f8" stroke="#9fe9f8"/></g></g><g clip-path="url(#p8961702159)" id="line2d_58"><use x="202.619" xlink:href="#me52f85e693" y="154.761" fill="#fff" stroke="#000"/></g><g clip-path="url(#p8961702159)" id="line2d_59"><use x="185.283" xlink:href="#me52f85e693" y="159.255" fill="#fff" stroke="#000"/></g><path clip-path="url(#p8961702159)" d="M244.748 137.823l-30.41 46.571" fill="none" stroke="gray" stroke-linecap="square" stroke-width="1.5" id="line2d_60"/><g id="line2d_61"><defs><path d="M0 3a3 3 0 100-6 3 3 0 000 6z" id="m5eb9b5fbcf" stroke="#a0b6cf"/></defs><g clip-path="url(#p8961702159)"><use x="236.521" xlink:href="#m5eb9b5fbcf" y="149.113" fill="#a0b6cf" stroke="#a0b6cf"/></g></g><g id="line2d_62"><defs><path d="M0 3a3 3 0 100-6 3 3 0 000 6z" id="m0c0da9d8c3" stroke="#7fbbe1"/></defs><g clip-path="url(#p8961702159)"><use x="227.897" xlink:href="#m0c0da9d8c3" y="160.445" fill="#7fbbe1" stroke="#7fbbe1"/></g></g><g id="line2d_63"><defs><path d="M0 3a3 3 0 100-6 3 3 0 000 6z" id="m9b39b75ca5" stroke="#4cbff3"/></defs><g clip-path="url(#p8961702159)"><use x="220.188" xlink:href="#m9b39b75ca5" y="172.263" fill="#4cbff3" stroke="#4cbff3"/></g></g><g clip-path="url(#p8961702159)" id="line2d_64"><use x="217.934" xlink:href="#me52f85e693" y="186.553" fill="#fff" stroke="#000"/></g><path clip-path="url(#p8961702159)" d="M244.748 137.823l49.559 123.393" fill="none" stroke="gray" stroke-linecap="square" stroke-width="1.5" id="line2d_65"/><g id="line2d_66"><defs><path d="M0 3a3 3 0 100-6 3 3 0 000 6z" id="mc055761e6b" stroke="#485c85"/></defs><g clip-path="url(#p8961702159)"><use x="243.375" xlink:href="#mc055761e6b" y="160.398" fill="#485c85" stroke="#485c85"/></g></g><g id="line2d_67"><defs><path d="M0 3a3 3 0 100-6 3 3 0 000 6z" id="mc438692816" stroke="#1e5ca9"/></defs><g clip-path="url(#p8961702159)"><use x="249.792" xlink:href="#mc438692816" y="185.557" fill="#1e5ca9" stroke="#1e5ca9"/></g></g><g id="line2d_68"><defs><path d="M0 3a3 3 0 100-6 3 3 0 000 6z" id="md7faf1db7e" stroke="#0754ce"/></defs><g clip-path="url(#p8961702159)"><use x="271.469" xlink:href="#md7faf1db7e" y="210.487" fill="#0754ce" stroke="#0754ce"/></g></g><g clip-path="url(#p8961702159)" id="line2d_69"><use x="316.693" xlink:href="#me52f85e693" y="249.652" fill="#fff" stroke="#000"/></g><path clip-path="url(#p8961702159)" d="M244.748 137.823l88.125 79.74" fill="none" stroke="gray" stroke-linecap="square" stroke-width="1.5" id="line2d_70"/><g id="line2d_71"><defs><path d="M0 3a3 3 0 100-6 3 3 0 000 6z" id="m1e305ed56d" stroke="#9979a8"/></defs><g clip-path="url(#p8961702159)"><use x="263.631" xlink:href="#m1e305ed56d" y="155.124" fill="#9979a8" stroke="#9979a8"/></g></g><g id="line2d_72"><defs><path d="M0 3a3 3 0 100-6 3 3 0 000 6z" id="mdbd4451bac" stroke="#ac6bc6"/></defs><g clip-path="url(#p8961702159)"><use x="286.691" xlink:href="#mdbd4451bac" y="174.648" fill="#ac6bc6" stroke="#ac6bc6"/></g></g><g id="line2d_73"><defs><path d="M0 3a3 3 0 100-6 3 3 0 000 6z" id="m345866e44b" stroke="#b85be6"/></defs><g clip-path="url(#p8961702159)"><use x="307.715" xlink:href="#m345866e44b" y="195.213" fill="#b85be6" stroke="#b85be6"/></g></g><g clip-path="url(#p8961702159)" id="line2d_74"><use x="332.625" xlink:href="#me52f85e693" y="217.837" fill="#fff" stroke="#000"/></g><path clip-path="url(#p8961702159)" d="M244.748 137.823l99.834 54.629" fill="none" stroke="gray" stroke-linecap="square" stroke-width="1.5" id="line2d_75"/><g id="line2d_76"><defs><path d="M0 3a3 3 0 100-6 3 3 0 000 6z" id="mbc9680388a" stroke="#c395c1"/></defs><g clip-path="url(#p8961702159)"><use x="267.552" xlink:href="#mbc9680388a" y="150.322" fill="#c395c1" stroke="#c395c1"/></g></g><g id="line2d_77"><defs><path d="M0 3a3 3 0 100-6 3 3 0 000 6z" id="mbab9a14609" stroke="#df83d5"/></defs><g clip-path="url(#p8961702159)"><use x="292.845" xlink:href="#mbab9a14609" y="162.702" fill="#df83d5" stroke="#df83d5"/></g></g><g id="line2d_78"><defs><path d="M0 3a3 3 0 100-6 3 3 0 000 6z" id="m8abfeabaa1" stroke="#f96cea"/></defs><g clip-path="url(#p8961702159)"><use x="318.252" xlink:href="#m8abfeabaa1" y="175.73" fill="#f96cea" stroke="#f96cea"/></g></g><g clip-path="url(#p8961702159)" id="line2d_79"><use x="342.969" xlink:href="#me52f85e693" y="195.302" fill="#fff" stroke="#000"/></g><path clip-path="url(#p8961702159)" d="M244.748 137.823l91.69 14.064" fill="none" stroke="gray" stroke-linecap="square" stroke-width="1.5" id="line2d_80"/><g id="line2d_81"><defs><path d="M0 3a3 3 0 100-6 3 3 0 000 6z" id="m76a393a9f3" stroke="#c990af"/></defs><g clip-path="url(#p8961702159)"><use x="268.588" xlink:href="#m76a393a9f3" y="140.151" fill="#c990af" stroke="#c990af"/></g></g><g id="line2d_82"><defs><path d="M0 3a3 3 0 100-6 3 3 0 000 6z" id="m935a38628e" stroke="#e67fbb"/></defs><g clip-path="url(#p8961702159)"><use x="293.387" xlink:href="#m935a38628e" y="147.414" fill="#e67fbb" stroke="#e67fbb"/></g></g><g clip-path="url(#p8961702159)" id="line2d_83"><use x="315.925" xlink:href="#me52f85e693" y="149.63" fill="#fff" stroke="#000"/></g><g clip-path="url(#p8961702159)" id="line2d_84"><use x="336.677" xlink:href="#me52f85e693" y="150.232" fill="#fff" stroke="#000"/></g><path d="M55.345 273.312V7.2" fill="none" stroke="#000" stroke-linecap="square" stroke-width=".8" id="patch_3"/><path d="M412.465 273.312V7.2" fill="none" stroke="#000" stroke-linecap="square" stroke-width=".8" id="patch_4"/><path d="M55.345 273.312h357.12" fill="none" stroke="#000" stroke-linecap="square" stroke-width=".8" id="patch_5"/><path d="M55.345 7.2h357.12" fill="none" stroke="#000" stroke-linecap="square" stroke-width=".8" id="patch_6"/></g></g><defs><clipPath id="p8961702159"><path d="M55.345 7.2h357.12v266.112H55.345z"/></clipPath></defs></svg>