<svg height="414.491" viewBox="0 0 413.303 310.868" width="551.07" xmlns="http://www.w3.org/2000/svg" xmlns:xlink="http://www.w3.org/1999/xlink"><defs><style>*{stroke-linecap:butt;stroke-linejoin:round}</style></defs><g id="figure_1"><path d="M0 310.868h413.303V0H0z" fill="none" id="patch_1"/><g id="axes_1"><path d="M48.983 273.312h357.12V7.2H48.983z" fill="none" id="patch_2"/><g id="matplotlib.axis_1"><g id="xtick_1"><path clip-path="url(#p87bb64a7c3)" d="M88.574 273.312V7.2" fill="none" stroke="#b0b0b0" stroke-linecap="square" stroke-width=".8" id="line2d_1"/><g id="line2d_2"><defs><path d="M0 0v3.5" id="m62b19e2c2d" stroke="#000" stroke-width=".8"/></defs><use x="88.574" xlink:href="#m62b19e2c2d" y="273.312" stroke="#000" stroke-width=".8"/></g><g id="text_1"><defs><path d="M10.594 35.5h62.593v-8.297H10.594z" id="DejaVuSans-8722"/><path d="M37.797 64.313L12.89 25.39h24.906zm-2.594 8.593H47.61V25.391h10.407v-8.203H47.609V0h-9.812v17.188H4.89v9.515z" id="DejaVuSans-52"/><path d="M31.781 66.406q-7.61 0-11.453-7.5Q16.5 51.422 16.5 36.375q0-14.984 3.828-22.484 3.844-7.5 11.453-7.5 7.672 0 11.5 7.5 3.844 7.5 3.844 22.484 0 15.047-3.844 22.531-3.828 7.5-11.5 7.5zm0 7.813q12.266 0 18.735-9.703 6.468-9.688 6.468-28.141 0-18.406-6.468-28.11-6.47-9.687-18.735-9.687-12.25 0-18.718 9.688-6.47 9.703-6.47 28.109 0 18.453 6.47 28.14Q19.53 74.22 31.78 74.22z" id="DejaVuSans-48"/></defs><g transform="matrix(.1 0 0 -.1 78.021 287.91)"><use xlink:href="#DejaVuSans-8722"/><use x="83.789" xlink:href="#DejaVuSans-52"/><use x="147.412" xlink:href="#DejaVuSans-48"/></g></g></g><g id="xtick_2"><path clip-path="url(#p87bb64a7c3)" d="M156.195 273.312V7.2" fill="none" stroke="#b0b0b0" stroke-linecap="square" stroke-width=".8" id="line2d_3"/><use x="156.195" xlink:href="#m62b19e2c2d" y="273.312" stroke="#000" stroke-width=".8" id="line2d_4"/><g id="text_2"><defs><path d="M19.188 8.297h34.421V0H7.33v8.297q5.609 5.812 15.296 15.594 9.703 9.797 12.188 12.64 4.734 5.313 6.609 9 1.89 3.688 1.89 7.25 0 5.813-4.078 9.469-4.078 3.672-10.625 3.672-4.64 0-9.797-1.61-5.14-1.609-11-4.89v9.969Q13.767 71.78 18.938 73q5.188 1.219 9.485 1.219 11.328 0 18.062-5.672 6.735-5.656 6.735-15.125 0-4.5-1.688-8.531-1.672-4.016-6.125-9.485-1.218-1.422-7.765-8.187-6.532-6.766-18.453-18.922z" id="DejaVuSans-50"/></defs><g transform="matrix(.1 0 0 -.1 145.642 287.91)"><use xlink:href="#DejaVuSans-8722"/><use x="83.789" xlink:href="#DejaVuSans-50"/><use x="147.412" xlink:href="#DejaVuSans-48"/></g></g></g><g id="xtick_3"><path clip-path="url(#p87bb64a7c3)" d="M223.816 273.312V7.2" fill="none" stroke="#b0b0b0" stroke-linecap="square" stroke-width=".8" id="line2d_5"/><use x="223.816" xlink:href="#m62b19e2c2d" y="273.312" stroke="#000" stroke-width=".8" id="line2d_6"/><use xlink:href="#DejaVuSans-48" transform="matrix(.1 0 0 -.1 220.634 287.91)" id="text_3"/></g><g id="xtick_4"><path clip-path="url(#p87bb64a7c3)" d="M291.437 273.312V7.2" fill="none" stroke="#b0b0b0" stroke-linecap="square" stroke-width=".8" id="line2d_7"/><use x="291.437" xlink:href="#m62b19e2c2d" y="273.312" stroke="#000" stroke-width=".8" id="line2d_8"/><g transform="matrix(.1 0 0 -.1 285.074 287.91)" id="text_4"><use xlink:href="#DejaVuSans-50"/><use x="63.623" xlink:href="#DejaVuSans-48"/></g></g><g id="xtick_5"><path clip-path="url(#p87bb64a7c3)" d="M359.058 273.312V7.2" fill="none" stroke="#b0b0b0" stroke-linecap="square" stroke-width=".8" id="line2d_9"/><use x="359.058" xlink:href="#m62b19e2c2d" y="273.312" stroke="#000" stroke-width=".8" id="line2d_10"/><g transform="matrix(.1 0 0 -.1 352.695 287.91)" id="text_5"><use xlink:href="#DejaVuSans-52"/><use x="63.623" xlink:href="#DejaVuSans-48"/></g></g><g id="text_6"><defs><path d="M34.281 27.484q-10.89 0-15.093-2.484-4.204-2.484-4.204-8.5 0-4.781 3.157-7.594 3.156-2.797 8.562-2.797 7.485 0 12 5.297 4.516 5.297 4.516 14.078v2zm17.922 3.72V0H43.22v8.297Q40.14 3.328 35.547.953q-4.594-2.375-11.234-2.375-8.391 0-13.36 4.719Q6 8.016 6 15.922q0 9.219 6.172 13.906 6.187 4.688 18.437 4.688h12.61v.89q0 6.203-4.078 9.594-4.078 3.39-11.453 3.39-4.688 0-9.141-1.124-4.438-1.125-8.531-3.375v8.312q4.921 1.906 9.562 2.844 4.64.953 9.031.953 11.875 0 17.735-6.156 5.86-6.14 5.86-18.64z" id="DejaVuSans-97"/><path d="M17.922 72.906v-27.11H9.625v27.11z" id="DejaVuSans-39"/></defs><g transform="matrix(.1 0 0 -.1 223.105 301.589)"><use xlink:href="#DejaVuSans-97"/><use x="61.279" xlink:href="#DejaVuSans-39"/></g></g></g><g id="matplotlib.axis_2"><g id="ytick_1"><path clip-path="url(#p87bb64a7c3)" d="M48.983 268.187h357.12" fill="none" stroke="#b0b0b0" stroke-linecap="square" stroke-width=".8" id="line2d_11"/><g id="line2d_12"><defs><path d="M0 0h-3.5" id="m72488645a5" stroke="#000" stroke-width=".8"/></defs><use x="48.983" xlink:href="#m72488645a5" y="268.187" stroke="#000" stroke-width=".8"/></g><g transform="matrix(.1 0 0 -.1 20.878 271.986)" id="text_7"><use xlink:href="#DejaVuSans-8722"/><use x="83.789" xlink:href="#DejaVuSans-52"/><use x="147.412" xlink:href="#DejaVuSans-48"/></g></g><g id="ytick_2"><path clip-path="url(#p87bb64a7c3)" d="M48.983 234.376h357.12" fill="none" stroke="#b0b0b0" stroke-linecap="square" stroke-width=".8" id="line2d_13"/><use x="48.983" xlink:href="#m72488645a5" y="234.376" stroke="#000" stroke-width=".8" id="line2d_14"/><g id="text_8"><defs><path d="M40.578 39.313Q47.656 37.797 51.625 33q3.984-4.781 3.984-11.813 0-10.78-7.422-16.703-7.421-5.906-21.093-5.906-4.578 0-9.438.906-4.86.907-10.031 2.72v9.515q4.094-2.39 8.969-3.61 4.89-1.218 10.218-1.218 9.266 0 14.125 3.656 4.86 3.656 4.86 10.64 0 6.454-4.516 10.079-4.515 3.64-12.562 3.64h-8.5v8.11h8.89q7.266 0 11.125 2.906 3.86 2.906 3.86 8.375 0 5.61-3.985 8.61-3.968 3.015-11.39 3.015-4.063 0-8.703-.89-4.641-.876-10.203-2.72v8.782q5.624 1.562 10.53 2.344 4.907.78 9.25.78 11.235 0 17.766-5.109 6.547-5.093 6.547-13.78 0-6.063-3.468-10.235-3.47-4.172-9.86-5.782z" id="DejaVuSans-51"/></defs><g transform="matrix(.1 0 0 -.1 20.878 238.175)"><use xlink:href="#DejaVuSans-8722"/><use x="83.789" xlink:href="#DejaVuSans-51"/><use x="147.412" xlink:href="#DejaVuSans-48"/></g></g></g><g id="ytick_3"><path clip-path="url(#p87bb64a7c3)" d="M48.983 200.566h357.12" fill="none" stroke="#b0b0b0" stroke-linecap="square" stroke-width=".8" id="line2d_15"/><use x="48.983" xlink:href="#m72488645a5" y="200.566" stroke="#000" stroke-width=".8" id="line2d_16"/><g transform="matrix(.1 0 0 -.1 20.878 204.365)" id="text_9"><use xlink:href="#DejaVuSans-8722"/><use x="83.789" xlink:href="#DejaVuSans-50"/><use x="147.412" xlink:href="#DejaVuSans-48"/></g></g><g id="ytick_4"><path clip-path="url(#p87bb64a7c3)" d="M48.983 166.755h357.12" fill="none" stroke="#b0b0b0" stroke-linecap="square" stroke-width=".8" id="line2d_17"/><use x="48.983" xlink:href="#m72488645a5" y="166.755" stroke="#000" stroke-width=".8" id="line2d_18"/><g id="text_10"><defs><path d="M12.406 8.297h16.11v55.625l-17.532-3.516v8.985l17.438 3.515h9.86V8.296H54.39V0H12.406z" id="DejaVuSans-49"/></defs><g transform="matrix(.1 0 0 -.1 20.878 170.554)"><use xlink:href="#DejaVuSans-8722"/><use x="83.789" xlink:href="#DejaVuSans-49"/><use x="147.412" xlink:href="#DejaVuSans-48"/></g></g></g><g id="ytick_5"><path clip-path="url(#p87bb64a7c3)" d="M48.983 132.945h357.12" fill="none" stroke="#b0b0b0" stroke-linecap="square" stroke-width=".8" id="line2d_19"/><use x="48.983" xlink:href="#m72488645a5" y="132.945" stroke="#000" stroke-width=".8" id="line2d_20"/><use xlink:href="#DejaVuSans-48" transform="matrix(.1 0 0 -.1 35.62 136.744)" id="text_11"/></g><g id="ytick_6"><path clip-path="url(#p87bb64a7c3)" d="M48.983 99.134h357.12" fill="none" stroke="#b0b0b0" stroke-linecap="square" stroke-width=".8" id="line2d_21"/><use x="48.983" xlink:href="#m72488645a5" y="99.134" stroke="#000" stroke-width=".8" id="line2d_22"/><g transform="matrix(.1 0 0 -.1 29.258 102.933)" id="text_12"><use xlink:href="#DejaVuSans-49"/><use x="63.623" xlink:href="#DejaVuSans-48"/></g></g><g id="ytick_7"><path clip-path="url(#p87bb64a7c3)" d="M48.983 65.324h357.12" fill="none" stroke="#b0b0b0" stroke-linecap="square" stroke-width=".8" id="line2d_23"/><use x="48.983" xlink:href="#m72488645a5" y="65.324" stroke="#000" stroke-width=".8" id="line2d_24"/><g transform="matrix(.1 0 0 -.1 29.258 69.123)" id="text_13"><use xlink:href="#DejaVuSans-50"/><use x="63.623" xlink:href="#DejaVuSans-48"/></g></g><g id="ytick_8"><path clip-path="url(#p87bb64a7c3)" d="M48.983 31.513h357.12" fill="none" stroke="#b0b0b0" stroke-linecap="square" stroke-width=".8" id="line2d_25"/><use x="48.983" xlink:href="#m72488645a5" y="31.513" stroke="#000" stroke-width=".8" id="line2d_26"/><g transform="matrix(.1 0 0 -.1 29.258 35.312)" id="text_14"><use xlink:href="#DejaVuSans-51"/><use x="63.623" xlink:href="#DejaVuSans-48"/></g></g><g id="text_15"><defs><path d="M48.688 27.297q0 9.906-4.079 15.547-4.078 5.64-11.203 5.64-7.14 0-11.218-5.64-4.079-5.64-4.079-15.547 0-9.906 4.078-15.547 4.079-5.64 11.22-5.64 7.124 0 11.202 5.64t4.078 15.547zM18.108 46.39q2.844 4.875 7.157 7.234Q29.594 56 35.594 56q9.968 0 16.187-7.906 6.235-7.907 6.235-20.797T51.78 6.484q-6.218-7.906-16.187-7.906-6 0-10.328 2.375-4.313 2.375-7.157 7.25V0H9.08v75.984h9.03z" id="DejaVuSans-98"/></defs><g transform="matrix(0 -.1 -.1 0 14.798 144.804)"><use xlink:href="#DejaVuSans-98"/><use x="63.477" xlink:href="#DejaVuSans-39"/></g></g></g><path clip-path="url(#p87bb64a7c3)" d="M234.672 150.959l115.487-99.932" fill="none" stroke="gray" stroke-linecap="square" stroke-width="1.5" id="line2d_27"/><g id="line2d_28"><defs><path d="M0 3a3 3 0 100-6 3 3 0 000 6z" id="m57212e028f" stroke="#c78780"/></defs><g clip-path="url(#p87bb64a7c3)"><use x="274.408" xlink:href="#m57212e028f" y="110.356" fill="#c78780" stroke="#c78780"/></g></g><g id="line2d_29"><defs><path d="M0 3a3 3 0 100-6 3 3 0 000 6z" id="m5eee5d91ef" stroke="#e87562"/></defs><g clip-path="url(#p87bb64a7c3)"><use x="304.412" xlink:href="#m5eee5d91ef" y="89.176" fill="#e87562" stroke="#e87562"/></g></g><g id="line2d_30"><defs><path d="M0 3a3 3 0 100-6 3 3 0 000 6z" id="me0859911f8" stroke="#000"/></defs><g clip-path="url(#p87bb64a7c3)"><use x="331.915" xlink:href="#me0859911f8" y="74.76" fill="#fff" stroke="#000"/></g></g><g clip-path="url(#p87bb64a7c3)" id="line2d_31"><use x="350.015" xlink:href="#me0859911f8" y="50.861" fill="#fff" stroke="#000"/></g><path clip-path="url(#p87bb64a7c3)" d="M234.672 150.959l16.055-121.193" fill="none" stroke="gray" stroke-linecap="square" stroke-width="1.5" id="line2d_32"/><g id="line2d_33"><defs><path d="M0 3a3 3 0 100-6 3 3 0 000 6z" id="m3770a4fc12" stroke="#e2c9b5"/></defs><g clip-path="url(#p87bb64a7c3)"><use x="235.803" xlink:href="#m3770a4fc12" y="110.545" fill="#e2c9b5" stroke="#e2c9b5"/></g></g><g id="line2d_34"><defs><path d="M0 3a3 3 0 100-6 3 3 0 000 6z" id="mc5667b4a2d" stroke="#f6c592"/></defs><g clip-path="url(#p87bb64a7c3)"><use x="244.539" xlink:href="#mc5667b4a2d" y="84.502" fill="#f6c592" stroke="#f6c592"/></g></g><g clip-path="url(#p87bb64a7c3)" id="line2d_35"><use x="248.316" xlink:href="#me0859911f8" y="58.371" fill="#fff" stroke="#000"/></g><g clip-path="url(#p87bb64a7c3)" id="line2d_36"><use x="252.476" xlink:href="#me0859911f8" y="30.011" fill="#fff" stroke="#000"/></g><path clip-path="url(#p87bb64a7c3)" d="M234.672 150.959L185.085 20.307" fill="none" stroke="gray" stroke-linecap="square" stroke-width="1.5" id="line2d_37"/><g clip-path="url(#p87bb64a7c3)" id="line2d_38"><use x="215.264" xlink:href="#me0859911f8" y="109.496" fill="#fff" stroke="#000"/></g><g clip-path="url(#p87bb64a7c3)" id="line2d_39"><use x="208.041" xlink:href="#me0859911f8" y="80.05" fill="#fff" stroke="#000"/></g><g clip-path="url(#p87bb64a7c3)" id="line2d_40"><use x="197.343" xlink:href="#me0859911f8" y="51.933" fill="#fff" stroke="#000"/></g><g clip-path="url(#p87bb64a7c3)" id="line2d_41"><use x="187.834" xlink:href="#me0859911f8" y="19.296" fill="#fff" stroke="#000"/></g><path clip-path="url(#p87bb64a7c3)" d="M234.672 150.959l-96.27-121.224" fill="none" stroke="gray" stroke-linecap="square" stroke-width="1.5" id="line2d_42"/><g id="line2d_43"><defs><path d="M0 3a3 3 0 100-6 3 3 0 000 6z" id="mf5bba50bce" stroke="#ecffe2"/></defs><g clip-path="url(#p87bb64a7c3)"><use x="194.637" xlink:href="#mf5bba50bce" y="110.993" fill="#ecffe2" stroke="#ecffe2"/></g></g><g clip-path="url(#p87bb64a7c3)" id="line2d_44"><use x="177.05" xlink:href="#me0859911f8" y="81.229" fill="#fff" stroke="#000"/></g><g clip-path="url(#p87bb64a7c3)" id="line2d_45"><use x="160.475" xlink:href="#me0859911f8" y="54.636" fill="#fff" stroke="#000"/></g><g clip-path="url(#p87bb64a7c3)" id="line2d_46"><use x="143.543" xlink:href="#me0859911f8" y="25.824" fill="#fff" stroke="#000"/></g><path clip-path="url(#p87bb64a7c3)" d="M234.672 150.959L92.376 45.416" fill="none" stroke="gray" stroke-linecap="square" stroke-width="1.5" id="line2d_47"/><g id="line2d_48"><defs><path d="M0 3a3 3 0 100-6 3 3 0 000 6z" id="m81dcfb998e" stroke="#c2efce"/></defs><g clip-path="url(#p87bb64a7c3)"><use x="173.452" xlink:href="#m81dcfb998e" y="113.261" fill="#c2efce" stroke="#c2efce"/></g></g><g id="line2d_49"><defs><path d="M0 3a3 3 0 100-6 3 3 0 000 6z" id="m7befff9053" stroke="#9ef9a3"/></defs><g clip-path="url(#p87bb64a7c3)"><use x="144.014" xlink:href="#m7befff9053" y="84.438" fill="#9ef9a3" stroke="#9ef9a3"/></g></g><g clip-path="url(#p87bb64a7c3)" id="line2d_50"><use x="118.895" xlink:href="#me0859911f8" y="61.206" fill="#fff" stroke="#000"/></g><g clip-path="url(#p87bb64a7c3)" id="line2d_51"><use x="94.583" xlink:href="#me0859911f8" y="42.503" fill="#fff" stroke="#000"/></g><path clip-path="url(#p87bb64a7c3)" d="M234.672 150.959l-124.934-20.48" fill="none" stroke="gray" stroke-linecap="square" stroke-width="1.5" id="line2d_52"/><g id="line2d_53"><defs><path d="M0 3a3 3 0 100-6 3 3 0 000 6z" id="m04439d0513" stroke="#d2f4f0"/></defs><g clip-path="url(#p87bb64a7c3)"><use x="184.559" xlink:href="#m04439d0513" y="140.078" fill="#d2f4f0" stroke="#d2f4f0"/></g></g><g id="line2d_54"><defs><path d="M0 3a3 3 0 100-6 3 3 0 000 6z" id="m10bb701c47" stroke="#a6feed"/></defs><g clip-path="url(#p87bb64a7c3)"><use x="152.881" xlink:href="#m10bb701c47" y="137.273" fill="#a6feed" stroke="#a6feed"/></g></g><g clip-path="url(#p87bb64a7c3)" id="line2d_55"><use x="129.16" xlink:href="#me0859911f8" y="135.93" fill="#fff" stroke="#000"/></g><g clip-path="url(#p87bb64a7c3)" id="line2d_56"><use x="109.632" xlink:href="#me0859911f8" y="131.14" fill="#fff" stroke="#000"/></g><path clip-path="url(#p87bb64a7c3)" d="M234.672 150.959l-105.82 27.738" fill="none" stroke="gray" stroke-linecap="square" stroke-width="1.5" id="line2d_57"/><g id="line2d_58"><defs><path d="M0 3a3 3 0 100-6 3 3 0 000 6z" id="m00033c2bec" stroke="#c4e2ee"/></defs><g clip-path="url(#p87bb64a7c3)"><use x="194.478" xlink:href="#m00033c2bec" y="160.522" fill="#c4e2ee" stroke="#c4e2ee"/></g></g><g id="line2d_59"><defs><path d="M0 3a3 3 0 100-6 3 3 0 000 6z" id="m64e76f28c6" stroke="#9fe9f8"/></defs><g clip-path="url(#p87bb64a7c3)"><use x="168.096" xlink:href="#m64e76f28c6" y="168.226" fill="#9fe9f8" stroke="#9fe9f8"/></g></g><g clip-path="url(#p87bb64a7c3)" id="line2d_60"><use x="147.815" xlink:href="#me0859911f8" y="175.353" fill="#fff" stroke="#000"/></g><g clip-path="url(#p87bb64a7c3)" id="line2d_61"><use x="128.737" xlink:href="#me0859911f8" y="178.255" fill="#fff" stroke="#000"/></g><path clip-path="url(#p87bb64a7c3)" d="M234.672 150.959l-72.929 64.694" fill="none" stroke="gray" stroke-linecap="square" stroke-width="1.5" id="line2d_62"/><g id="line2d_63"><defs><path d="M0 3a3 3 0 100-6 3 3 0 000 6z" id="m1e8f8e94a7" stroke="#a0b6cf"/></defs><g clip-path="url(#p87bb64a7c3)"><use x="208.286" xlink:href="#m1e8f8e94a7" y="175.002" fill="#a0b6cf" stroke="#a0b6cf"/></g></g><g id="line2d_64"><defs><path d="M0 3a3 3 0 100-6 3 3 0 000 6z" id="mb7168e5fd4" stroke="#7fbbe1"/></defs><g clip-path="url(#p87bb64a7c3)"><use x="186.636" xlink:href="#mb7168e5fd4" y="190.858" fill="#7fbbe1" stroke="#7fbbe1"/></g></g><g id="line2d_65"><defs><path d="M0 3a3 3 0 100-6 3 3 0 000 6z" id="m46388317cd" stroke="#4cbff3"/></defs><g clip-path="url(#p87bb64a7c3)"><use x="171.02" xlink:href="#m46388317cd" y="204.021" fill="#4cbff3" stroke="#4cbff3"/></g></g><g clip-path="url(#p87bb64a7c3)" id="line2d_66"><use x="164.527" xlink:href="#me0859911f8" y="218.661" fill="#fff" stroke="#000"/></g><path clip-path="url(#p87bb64a7c3)" d="M234.672 150.959l-11.445 110.257" fill="none" stroke="gray" stroke-linecap="square" stroke-width="1.5" id="line2d_67"/><g id="line2d_68"><defs><path d="M0 3a3 3 0 100-6 3 3 0 000 6z" id="m25d4116624" stroke="#485c85"/></defs><g clip-path="url(#p87bb64a7c3)"><use x="219.347" xlink:href="#m25d4116624" y="192.23" fill="#485c85" stroke="#485c85"/></g></g><g id="line2d_69"><defs><path d="M0 3a3 3 0 100-6 3 3 0 000 6z" id="m5902ada0f8" stroke="#1e5ca9"/></defs><g clip-path="url(#p87bb64a7c3)"><use x="212.175" xlink:href="#m5902ada0f8" y="220.9" fill="#1e5ca9" stroke="#1e5ca9"/></g></g><g id="line2d_70"><defs><path d="M0 3a3 3 0 100-6 3 3 0 000 6z" id="m49520f2290" stroke="#0754ce"/></defs><g clip-path="url(#p87bb64a7c3)"><use x="225.393" xlink:href="#m49520f2290" y="240.549" fill="#0754ce" stroke="#0754ce"/></g></g><g clip-path="url(#p87bb64a7c3)" id="line2d_71"><use x="249.525" xlink:href="#me0859911f8" y="260.809" fill="#fff" stroke="#000"/></g><path clip-path="url(#p87bb64a7c3)" d="M234.672 150.959l92.662 69.084" fill="none" stroke="gray" stroke-linecap="square" stroke-width="1.5" id="line2d_72"/><g id="line2d_73"><defs><path d="M0 3a3 3 0 100-6 3 3 0 000 6z" id="m112f6488e6" stroke="#9979a8"/></defs><g clip-path="url(#p87bb64a7c3)"><use x="268.795" xlink:href="#m112f6488e6" y="174.464" fill="#9979a8" stroke="#9979a8"/></g></g><g id="line2d_74"><defs><path d="M0 3a3 3 0 100-6 3 3 0 000 6z" id="m9ee2a64f9e" stroke="#ac6bc6"/></defs><g clip-path="url(#p87bb64a7c3)"><use x="295.162" xlink:href="#m9ee2a64f9e" y="192.869" fill="#ac6bc6" stroke="#ac6bc6"/></g></g><g id="line2d_75"><defs><path d="M0 3a3 3 0 100-6 3 3 0 000 6z" id="maa35c3b072" stroke="#b85be6"/></defs><g clip-path="url(#p87bb64a7c3)"><use x="310.776" xlink:href="#maa35c3b072" y="209.022" fill="#b85be6" stroke="#b85be6"/></g></g><g clip-path="url(#p87bb64a7c3)" id="line2d_76"><use x="325.479" xlink:href="#me0859911f8" y="222.463" fill="#fff" stroke="#000"/></g><path clip-path="url(#p87bb64a7c3)" d="M234.672 150.959l119.706 39.402" fill="none" stroke="gray" stroke-linecap="square" stroke-width="1.5" id="line2d_77"/><g id="line2d_78"><defs><path d="M0 3a3 3 0 100-6 3 3 0 000 6z" id="mabb3754889" stroke="#c395c1"/></defs><g clip-path="url(#p87bb64a7c3)"><use x="276.966" xlink:href="#mabb3754889" y="164.333" fill="#c395c1" stroke="#c395c1"/></g></g><g id="line2d_79"><defs><path d="M0 3a3 3 0 100-6 3 3 0 000 6z" id="m54fb312d22" stroke="#df83d5"/></defs><g clip-path="url(#p87bb64a7c3)"><use x="309.285" xlink:href="#m54fb312d22" y="173.705" fill="#df83d5" stroke="#df83d5"/></g></g><g id="line2d_80"><defs><path d="M0 3a3 3 0 100-6 3 3 0 000 6z" id="mfeabbb79f4" stroke="#f96cea"/></defs><g clip-path="url(#p87bb64a7c3)"><use x="335.043" xlink:href="#mfeabbb79f4" y="181.57" fill="#f96cea" stroke="#f96cea"/></g></g><g clip-path="url(#p87bb64a7c3)" id="line2d_81"><use x="352.878" xlink:href="#me0859911f8" y="194.654" fill="#fff" stroke="#000"/></g><path clip-path="url(#p87bb64a7c3)" d="M234.672 150.959l128.038-.975" fill="none" stroke="gray" stroke-linecap="square" stroke-width="1.5" id="line2d_82"/><g id="line2d_83"><defs><path d="M0 3a3 3 0 100-6 3 3 0 000 6z" id="mc1fb448c0b" stroke="#c990af"/></defs><g clip-path="url(#p87bb64a7c3)"><use x="280.537" xlink:href="#mc1fb448c0b" y="146.729" fill="#c990af" stroke="#c990af"/></g></g><g id="line2d_84"><defs><path d="M0 3a3 3 0 100-6 3 3 0 000 6z" id="m2bb6c3323b" stroke="#e67fbb"/></defs><g clip-path="url(#p87bb64a7c3)"><use x="314.199" xlink:href="#m2bb6c3323b" y="152.718" fill="#e67fbb" stroke="#e67fbb"/></g></g><g clip-path="url(#p87bb64a7c3)" id="line2d_85"><use x="340.613" xlink:href="#me0859911f8" y="151.803" fill="#fff" stroke="#000"/></g><g clip-path="url(#p87bb64a7c3)" id="line2d_86"><use x="362.709" xlink:href="#me0859911f8" y="149.85" fill="#fff" stroke="#000"/></g><path d="M48.983 273.312V7.2" fill="none" stroke="#000" stroke-linecap="square" stroke-width=".8" id="patch_3"/><path d="M406.103 273.312V7.2" fill="none" stroke="#000" stroke-linecap="square" stroke-width=".8" id="patch_4"/><path d="M48.983 273.312h357.12" fill="none" stroke="#000" stroke-linecap="square" stroke-width=".8" id="patch_5"/><path d="M48.983 7.2h357.12" fill="none" stroke="#000" stroke-linecap="square" stroke-width=".8" id="patch_6"/></g></g><defs><clipPath id="p87bb64a7c3"><path d="M48.983 7.2h357.12v266.112H48.983z"/></clipPath></defs></svg>