<svg height="476.799" viewBox="0 0 335.428 357.599" width="447.237" xmlns="http://www.w3.org/2000/svg" xmlns:xlink="http://www.w3.org/1999/xlink"><defs><style>*{stroke-linecap:butt;stroke-linejoin:round}</style></defs><g id="figure_1"><path d="M0 357.6h335.428V0H0z" fill="none" id="patch_1"/><g id="axes_1"><path d="M41.133 313.504h287.095V47.392H41.133z" fill="none" id="patch_2"/><path clip-path="url(#p576c0a3a4a)" d="M80.68 257.342c.183.067.513-.294.917-1.002.405-.708.85-1.706 1.239-2.774.389-1.069.689-2.12.835-2.922.145-.803.124-1.29-.059-1.357-.183-.067-.513.294-.917 1.002s-.85 1.706-1.238 2.774c-.39 1.069-.69 2.12-.835 2.922-.146.803-.125 1.29.058 1.357z" fill="#969696" id="patch_3"/><path clip-path="url(#p576c0a3a4a)" d="M223.633 121.045c1.055-.055 2.055-.343 2.78-.799.725-.456 1.114-1.043 1.083-1.633-.03-.59-.48-1.134-1.248-1.511-.768-.378-1.793-.56-2.849-.504-1.055.055-2.055.342-2.78.799-.725.456-1.114 1.043-1.083 1.633.03.59.48 1.133 1.248 1.511.768.378 1.793.56 2.849.504z" fill="#969696" id="patch_4"/><path clip-path="url(#p576c0a3a4a)" d="M183.914 199.182c.628-.307 1.161-.74 1.484-1.204.323-.464.408-.922.237-1.272-.17-.35-.584-.565-1.148-.597-.565-.031-1.235.123-1.862.43-.628.305-1.161.738-1.484 1.202-.323.464-.408.922-.237 1.273.17.35.584.565 1.148.596.565.032 1.235-.122 1.862-.428z" fill="#969696" id="patch_5"/><path clip-path="url(#p576c0a3a4a)" d="M122.243 169.953c.446.137.956.003 1.415-.37.46-.375.833-.959 1.036-1.625.204-.665.221-1.358.05-1.925-.172-.567-.52-.963-.967-1.1-.447-.136-.956-.002-1.416.372-.46.374-.832.958-1.036 1.624-.203.665-.22 1.358-.049 1.925.172.567.52.963.967 1.1z" fill="#969696" id="patch_6"/><path clip-path="url(#p576c0a3a4a)" d="M158.982 233.262c.885-.597 1.618-1.342 2.037-2.07.419-.73.49-1.383.197-1.817-.293-.434-.925-.613-1.758-.497-.833.115-1.798.515-2.683 1.112-.885.597-1.618 1.342-2.037 2.071-.419.73-.49 1.383-.197 1.816.293.434.925.613 1.758.498.833-.115 1.798-.516 2.683-1.113z" fill="#969696" id="patch_7"/><path clip-path="url(#p576c0a3a4a)" d="M140.737 197.676c.135.123.39.101.708-.059.318-.16.674-.446.988-.795.314-.349.561-.732.687-1.065.126-.333.121-.59-.015-.711-.135-.123-.39-.101-.709.06-.318.16-.673.445-.987.794-.314.349-.561.732-.687 1.065-.127.333-.121.59.015.711z" fill="#969696" id="patch_8"/><path clip-path="url(#p576c0a3a4a)" d="M153.517 184.257c.378-.366.694-.765.879-1.11.185-.344.222-.606.105-.727-.118-.122-.381-.094-.732.079-.35.172-.76.474-1.139.84-.378.365-.694.764-.879 1.109-.184.344-.222.606-.105.728.118.122.381.093.732-.08.35-.172.76-.474 1.139-.84z" fill="#969696" id="patch_9"/><path clip-path="url(#p576c0a3a4a)" d="M287.24 187.633c1.646-.028 3.223-.214 4.382-.515 1.159-.302 1.806-.695 1.8-1.092-.007-.398-.668-.768-1.837-1.029-1.17-.26-2.751-.391-4.397-.362-1.646.028-3.223.214-4.382.515-1.16.302-1.806.695-1.8 1.092.007.398.668.768 1.837 1.029 1.17.26 2.75.391 4.397.362z" fill="#969696" id="patch_10"/><path clip-path="url(#p576c0a3a4a)" d="M155.63 127.702c.58.177 1.298-.185 1.997-1.006.699-.82 1.321-2.034 1.73-3.372.41-1.338.572-2.692.451-3.763-.12-1.071-.513-1.773-1.092-1.95-.58-.177-1.298.185-1.997 1.006-.698.82-1.321 2.034-1.73 3.372-.41 1.338-.571 2.692-.451 3.763.12 1.072.513 1.773 1.093 1.95z" fill="#969696" id="patch_11"/><path clip-path="url(#p576c0a3a4a)" d="M186.801 114.165c.446.312 1.16.2 1.987-.31.826-.51 1.697-1.377 2.42-2.41.724-1.033 1.24-2.148 1.437-3.099.197-.95.057-1.66-.388-1.972-.446-.312-1.16-.2-1.986.31-.827.51-1.698 1.377-2.421 2.41-.723 1.033-1.24 2.148-1.437 3.099-.197.95-.057 1.66.388 1.972z" fill="#969696" id="patch_12"/><path clip-path="url(#p576c0a3a4a)" d="M166.25 129.694c.432.157.985-.077 1.539-.649.553-.572 1.062-1.436 1.414-2.402.351-.966.517-1.955.46-2.75-.055-.794-.33-1.328-.76-1.485-.432-.157-.985.076-1.539.648-.554.573-1.062 1.437-1.414 2.403-.352.966-.517 1.955-.461 2.75.056.793.33 1.328.762 1.485z" fill="#969696" id="patch_13"/><path clip-path="url(#p576c0a3a4a)" d="M161.455 165.85c.216.14.604-.003 1.078-.399.474-.395.995-1.01 1.45-1.71.454-.7.804-1.427.973-2.021.168-.594.142-1.006-.074-1.147-.216-.14-.604.004-1.078.4-.474.395-.996 1.01-1.45 1.71-.454.7-.804 1.426-.973 2.02-.169.594-.142 1.007.074 1.147z" fill="#969696" id="patch_14"/><path clip-path="url(#p576c0a3a4a)" d="M181.041 138.78c.28.226.829.096 1.527-.362.698-.458 1.487-1.207 2.195-2.081.708-.874 1.276-1.802 1.579-2.58.303-.778.316-1.342.037-1.568-.28-.227-.828-.096-1.526.362-.698.458-1.488 1.207-2.196 2.08-.707.875-1.275 1.803-1.578 2.58-.303.779-.317 1.343-.038 1.569z" fill="#969696" id="patch_15"/><path clip-path="url(#p576c0a3a4a)" d="M135.606 175.525c.25.139.59.094.942-.125.353-.219.69-.593.939-1.042.248-.448.387-.932.386-1.347-.002-.415-.143-.726-.394-.865-.25-.139-.589-.094-.941.125-.353.218-.69.593-.939 1.041-.248.448-.387.933-.386 1.348.002.415.143.726.393.865z" fill="#969696" id="patch_16"/><path clip-path="url(#p576c0a3a4a)" d="M121.143 184.142c.489-.41.857-.923 1.023-1.427.167-.503.118-.955-.135-1.257-.253-.301-.69-.428-1.214-.351-.525.076-1.094.35-1.583.76-.488.41-.857.923-1.023 1.426-.167.504-.118.956.135 1.257.253.302.69.428 1.215.352.524-.077 1.093-.35 1.582-.76z" fill="#969696" id="patch_17"/><path clip-path="url(#p576c0a3a4a)" d="M123.356 188.752c.459-.186.853-.477 1.097-.81.243-.332.315-.68.2-.964-.116-.285-.409-.485-.815-.556-.406-.07-.892-.005-1.35.18-.46.185-.854.477-1.097.81-.243.332-.315.68-.2.964.115.285.408.485.814.556.406.07.892.005 1.351-.18z" fill="#969696" id="patch_18"/><path clip-path="url(#p576c0a3a4a)" d="M117.817 199.678c.237.221.62.265 1.068.121.446-.144.92-.462 1.315-.886.395-.424.68-.918.792-1.374.112-.456.042-.836-.195-1.057-.236-.22-.62-.264-1.067-.12-.447.143-.92.462-1.316.886-.395.423-.68.918-.792 1.374-.112.455-.042.836.195 1.056z" fill="#969696" id="patch_19"/><path clip-path="url(#p576c0a3a4a)" d="M134.292 191.31c.378-.328.694-.696.879-1.023.185-.327.224-.585.108-.719-.116-.133-.378-.131-.727.007-.35.138-.758.4-1.136.728-.378.329-.694.697-.88 1.024-.184.326-.223.585-.107.718.116.134.378.131.727-.006.35-.138.758-.4 1.136-.729z" fill="#969696" id="patch_20"/><path clip-path="url(#p576c0a3a4a)" d="M140.285 196.93c.344-.344.631-.714.8-1.03.17-.317.206-.553.102-.657-.104-.104-.34-.067-.656.102-.316.169-.687.457-1.03.8-.343.343-.631.714-.8 1.03-.17.316-.206.553-.102.657.104.104.34.067.656-.102.317-.17.687-.457 1.03-.8z" fill="#969696" id="patch_21"/><path clip-path="url(#p576c0a3a4a)" d="M149.141 195.857c.387-.336.704-.722.88-1.072.176-.35.198-.636.06-.795-.138-.159-.424-.177-.795-.051-.372.125-.798.385-1.185.722-.387.336-.703.722-.88 1.072-.176.35-.197.636-.06.795.139.159.425.177.796.051.371-.126.797-.385 1.184-.722z" fill="#969696" id="patch_22"/><path clip-path="url(#p576c0a3a4a)" d="M168.711 181.876c.468-.316.862-.7 1.096-1.066.234-.367.288-.688.151-.892-.137-.203-.455-.273-.883-.193-.428.079-.931.3-1.399.617-.468.315-.862.699-1.096 1.066-.234.367-.288.688-.151.891.137.204.455.273.883.194.428-.08.931-.301 1.4-.617z" fill="#969696" id="patch_23"/><path clip-path="url(#p576c0a3a4a)" d="M176.434 165.54c.514-.432.938-.929 1.178-1.38.24-.453.277-.824.102-1.032-.174-.209-.546-.237-1.033-.079-.487.158-1.05.49-1.564.92-.514.432-.938.929-1.178 1.38-.24.453-.277.824-.102 1.032.174.209.546.237 1.033.079.487-.158 1.05-.49 1.564-.92z" fill="#969696" id="patch_24"/><path clip-path="url(#p576c0a3a4a)" d="M190.845 180.057c.843-.163 1.624-.46 2.17-.825.548-.365.817-.769.749-1.121-.069-.353-.47-.626-1.114-.759-.644-.133-1.479-.116-2.321.047-.843.164-1.624.461-2.17.826-.548.365-.817.768-.749 1.12.069.353.47.626 1.114.76.644.133 1.479.116 2.321-.048z" fill="#969696" id="patch_25"/><path clip-path="url(#p576c0a3a4a)" d="M169.718 190.4c.592-.29 1.105-.676 1.428-1.077.322-.4.428-.781.292-1.059-.135-.278-.5-.43-1.014-.422-.515.008-1.136.174-1.727.463-.592.288-1.106.675-1.428 1.076-.323.4-.428.781-.292 1.059.135.278.5.43 1.014.422.514-.008 1.136-.174 1.727-.463z" fill="#969696" id="patch_26"/><path clip-path="url(#p576c0a3a4a)" d="M193.477 161.15c.687-.305 1.305-.687 1.72-1.062.414-.376.59-.713.49-.938-.1-.225-.469-.32-1.025-.262-.556.057-1.254.26-1.94.566-.686.305-1.305.688-1.72 1.063-.413.375-.59.712-.49.937.1.225.469.32 1.025.263.556-.057 1.254-.26 1.94-.566z" fill="#969696" id="patch_27"/><path clip-path="url(#p576c0a3a4a)" d="M231.706 142.743c.922-.264 1.765-.66 2.344-1.1.579-.44.846-.89.744-1.248-.103-.359-.568-.598-1.292-.665-.725-.066-1.65.045-2.571.309-.922.264-1.765.66-2.344 1.1-.579.441-.847.89-.744 1.249.103.358.568.597 1.292.664.725.067 1.65-.044 2.571-.309z" fill="#969696" id="patch_28"/><path clip-path="url(#p576c0a3a4a)" d="M216.126 125.103c1.123-.786 2.1-1.682 2.718-2.49.618-.809.825-1.463.575-1.82-.25-.356-.935-.385-1.906-.082-.97.304-2.147.917-3.27 1.703-1.123.787-2.1 1.683-2.718 2.49-.618.809-.825 1.463-.575 1.82.25.356.935.386 1.906.082.97-.304 2.147-.917 3.27-1.703z" fill="#969696" id="patch_29"/><path clip-path="url(#p576c0a3a4a)" d="M212.35 168.532c1.223-.129 2.383-.371 3.225-.674.842-.304 1.297-.643 1.266-.943-.032-.3-.548-.538-1.435-.659-.886-.122-2.071-.118-3.294.01-1.222.13-2.382.372-3.225.675-.842.303-1.297.643-1.266.943.032.3.548.537 1.435.659.887.121 2.072.117 3.294-.011z" fill="#969696" id="patch_30"/><path clip-path="url(#p576c0a3a4a)" d="M104.686 155.97c.51-.413.634-1.258.347-2.349-.288-1.09-.963-2.34-1.879-3.47-.916-1.13-1.996-2.051-3.004-2.559-1.007-.508-1.86-.561-2.369-.149-.51.412-.634 1.257-.347 2.348.288 1.091.964 2.34 1.88 3.47.915 1.131 1.995 2.052 3.003 2.56 1.007.507 1.86.561 2.369.149z" fill="#969696" id="patch_31"/><path clip-path="url(#p576c0a3a4a)" d="M82.057 227.893c.251.21.669.202 1.16-.024.492-.225 1.018-.65 1.463-1.18.444-.529.77-1.12.907-1.644.137-.523.073-.936-.178-1.146-.251-.21-.668-.203-1.16.023-.492.226-1.018.65-1.462 1.18-.445.53-.771 1.12-.908 1.644-.137.524-.073.936.178 1.147z" fill="#969696" id="patch_32"/><path clip-path="url(#p576c0a3a4a)" d="M89.157 279.116c.205.075.54-.236.933-.864.392-.627.81-1.521 1.16-2.483.35-.963.605-1.916.708-2.649.102-.733.045-1.187-.16-1.261-.204-.075-.54.236-.932.864-.393.628-.81 1.521-1.16 2.484-.35.962-.605 1.915-.708 2.648-.103.733-.046 1.187.159 1.261z" fill="#969696" id="patch_33"/><path clip-path="url(#p576c0a3a4a)" d="M105.476 265.02c.201.081.55-.229.972-.862.421-.633.88-1.538 1.274-2.514.395-.977.693-1.946.83-2.694s.101-1.214-.1-1.295c-.2-.082-.55.229-.972.862-.42.633-.879 1.538-1.274 2.514-.394.977-.693 1.946-.83 2.694s-.1 1.214.1 1.295z" fill="#969696" id="patch_34"/><path clip-path="url(#p576c0a3a4a)" d="M243.353 198.82c1.46 0 2.86-.195 3.892-.54 1.032-.345 1.612-.814 1.612-1.302 0-.488-.58-.956-1.612-1.302-1.032-.345-2.432-.539-3.892-.539s-2.86.194-3.893.54c-1.032.345-1.612.813-1.612 1.301s.58.957 1.612 1.302c1.033.345 2.433.54 3.893.54z" fill="#969696" id="patch_35"/><path clip-path="url(#p576c0a3a4a)" d="M133.25 194.161c.4-.335.74-.708.946-1.037.205-.329.26-.586.15-.716-.108-.13-.371-.121-.73.024-.36.146-.787.416-1.186.75-.4.336-.74.71-.945 1.038-.206.329-.26.587-.152.716.11.13.372.121.732-.024s.786-.416 1.186-.75z" fill="#969696" id="patch_36"/><path clip-path="url(#p576c0a3a4a)" d="M106.414 206.43c.541-.287.998-.681 1.268-1.095.271-.414.335-.813.177-1.11-.158-.298-.525-.469-1.02-.475-.494-.007-1.076.15-1.617.438-.541.288-.998.682-1.268 1.096-.271.414-.335.813-.177 1.11.159.298.525.469 1.02.476.494.006 1.076-.151 1.617-.44z" fill="#969696" id="patch_37"/><path clip-path="url(#p576c0a3a4a)" d="M133.297 202.542c.448-.39.821-.83 1.036-1.223.215-.394.255-.708.11-.874-.144-.166-.46-.17-.88-.012s-.907.466-1.356.856c-.448.39-.821.83-1.036 1.223-.215.393-.255.708-.11.874.144.166.46.17.88.012s.907-.466 1.356-.856z" fill="#969696" id="patch_38"/><path clip-path="url(#p576c0a3a4a)" d="M190.855 184.358c1.03-.375 1.97-.863 2.615-1.357.645-.494.941-.954.823-1.278-.117-.323-.64-.485-1.451-.45-.811.037-1.846.268-2.876.643-1.03.374-1.97.862-2.615 1.356-.645.494-.94.954-.823 1.278.118.324.64.485 1.451.45.812-.037 1.846-.268 2.876-.642z" fill="#969696" id="patch_39"/><path clip-path="url(#p576c0a3a4a)" d="M128.223 201.317c.417-.326.764-.705.965-1.054.202-.35.241-.64.11-.81-.133-.168-.424-.2-.812-.09-.388.112-.84.357-1.256.682-.417.326-.764.705-.965 1.054-.202.35-.24.64-.109.81.132.168.424.2.811.09.388-.112.84-.357 1.256-.682z" fill="#969696" id="patch_40"/><path clip-path="url(#p576c0a3a4a)" d="M142.378 194.213c.35-.255.638-.565.8-.863.162-.298.185-.56.064-.726-.121-.167-.377-.226-.71-.164-.334.062-.718.24-1.068.495-.35.254-.638.565-.8.863-.162.298-.185.559-.064.726.121.167.377.225.71.163.333-.062.718-.24 1.068-.494z" fill="#969696" id="patch_41"/><path clip-path="url(#p576c0a3a4a)" d="M128.92 199.044c.184.13.458.114.76-.042.303-.156.611-.44.856-.79.244-.348.406-.734.449-1.072.043-.338-.037-.6-.22-.73-.184-.128-.458-.113-.76.043-.303.156-.611.44-.856.79-.244.349-.406.735-.449 1.073-.042.337.037.6.22.728z" fill="#969696" id="patch_42"/><path clip-path="url(#p576c0a3a4a)" d="M110.838 175.284c.697.453 1.501.679 2.235.628.734-.05 1.338-.373 1.679-.898.34-.524.39-1.207.138-1.898-.253-.691-.787-1.334-1.484-1.787-.698-.453-1.502-.68-2.236-.629-.734.05-1.338.374-1.678.898-.341.525-.39 1.208-.138 1.899.252.691.786 1.334 1.484 1.787z" fill="#969696" id="patch_43"/><path clip-path="url(#p576c0a3a4a)" d="M90.875 199.368c.765-.357 1.428-.848 1.844-1.366.417-.519.552-1.021.376-1.398-.175-.377-.647-.596-1.312-.61-.665-.015-1.468.178-2.232.534-.764.357-1.428.848-1.844 1.366-.416.519-.552 1.021-.376 1.398.176.377.648.596 1.312.61.665.015 1.468-.178 2.232-.534z" fill="#969696" id="patch_44"/><path clip-path="url(#p576c0a3a4a)" d="M132.888 125.107c.664-.166 1.185-.792 1.447-1.74.263-.949.246-2.143-.048-3.319-.293-1.176-.838-2.238-1.515-2.952-.677-.715-1.431-1.023-2.095-.857-.665.165-1.186.791-1.448 1.74-.263.949-.245 2.143.048 3.318.293 1.176.838 2.239 1.515 2.953.678.714 1.431 1.023 2.096.857z" fill="#969696" id="patch_45"/><path clip-path="url(#p576c0a3a4a)" d="M149.672 187.494c.115.107.398.025.787-.229.388-.253.85-.657 1.285-1.123.434-.466.805-.955 1.031-1.36.226-.406.288-.694.173-.801-.115-.107-.398-.025-.786.228-.389.254-.851.658-1.285 1.124-.435.466-.806.955-1.032 1.36-.225.406-.288.694-.173.8z" fill="#969696" id="patch_46"/><path clip-path="url(#p576c0a3a4a)" d="M127.416 218.333c.158.106.477-.04.886-.407.41-.366.876-.923 1.298-1.547.421-.625.762-1.266.949-1.783.186-.517.202-.867.045-.974-.158-.106-.477.04-.886.406-.41.367-.876.924-1.298 1.548-.421.625-.762 1.266-.949 1.783-.186.517-.202.867-.045.974z" fill="#969696" id="patch_47"/><path clip-path="url(#p576c0a3a4a)" d="M145.775 236.397c.326.228.842.158 1.432-.195.591-.352 1.21-.96 1.719-1.687.509-.727.868-1.516.997-2.191.13-.676.02-1.184-.307-1.413-.326-.228-.841-.158-1.432.195-.59.353-1.209.96-1.718 1.687-.51.727-.869 1.516-.998 2.192-.13.675-.019 1.183.307 1.412z" fill="#969696" id="patch_48"/><path clip-path="url(#p576c0a3a4a)" d="M154.882 215.354c.233.217.643.227 1.138.026.495-.2 1.036-.595 1.503-1.096.467-.5.823-1.068.988-1.576.166-.508.128-.915-.105-1.133-.233-.217-.642-.226-1.137-.026-.496.201-1.036.595-1.504 1.096-.467.501-.822 1.068-.988 1.576-.166.508-.128.916.105 1.133z" fill="#969696" id="patch_49"/><path clip-path="url(#p576c0a3a4a)" d="M157.379 214.372c.505-.41.913-.897 1.132-1.357.22-.46.234-.853.039-1.093-.195-.241-.583-.31-1.078-.19-.495.12-1.057.416-1.563.825-.505.41-.912.898-1.132 1.357-.22.46-.233.853-.038 1.094.195.24.582.309 1.077.19.495-.12 1.058-.417 1.563-.826z" fill="#969696" id="patch_50"/><path clip-path="url(#p576c0a3a4a)" d="M250.521 169.395c1.316.185 2.603.185 3.577-.001.975-.186 1.558-.541 1.62-.989.064-.447-.399-.95-1.284-1.397-.886-.447-2.123-.802-3.438-.987-1.316-.185-2.603-.185-3.577.001-.975.186-1.558.541-1.62.989-.064.447.399.95 1.284 1.397.886.447 2.123.802 3.438.987z" fill="#969696" id="patch_51"/><path clip-path="url(#p576c0a3a4a)" d="M143.999 190.915c.154.143.403.172.693.08.29-.093.596-.298.851-.573.256-.274.44-.594.512-.889.071-.295.025-.542-.129-.686-.154-.143-.403-.172-.693-.08-.29.093-.596.298-.851.573-.256.274-.44.594-.512.889-.071.295-.025.542.129.686z" fill="#969696" id="patch_52"/><path clip-path="url(#p576c0a3a4a)" d="M81.254 229.616c.256.16.758-.097 1.395-.715.638-.618 1.359-1.546 2.005-2.579.645-1.033 1.163-2.088 1.439-2.932.275-.843.287-1.407.03-1.567-.255-.16-.757.097-1.394.715-.638.618-1.359 1.545-2.004 2.579-.646 1.033-1.164 2.088-1.44 2.932-.275.843-.287 1.407-.03 1.567z" fill="#969696" id="patch_53"/><path clip-path="url(#p576c0a3a4a)" d="M149.932 130.49c.912-.112 1.727-.701 2.266-1.637.54-.937.759-2.144.61-3.356-.149-1.213-.654-2.331-1.404-3.11-.75-.777-1.683-1.152-2.595-1.04-.911.112-1.726.701-2.266 1.638-.539.936-.758 2.143-.61 3.356.15 1.212.654 2.33 1.404 3.108.75.779 1.683 1.153 2.595 1.041z" fill="#969696" id="patch_54"/><path clip-path="url(#p576c0a3a4a)" d="M102.584 210.967c.714-.412 1.331-.925 1.715-1.426.384-.501.504-.95.333-1.246-.171-.296-.62-.416-1.245-.334-.626.082-1.38.36-2.093.772-.714.412-1.331.925-1.715 1.426-.384.501-.504.95-.333 1.246.171.296.619.416 1.245.334.626-.082 1.379-.36 2.093-.772z" fill="#969696" id="patch_55"/><path clip-path="url(#p576c0a3a4a)" d="M214.922 116.345c.706-.329 1.296-.835 1.638-1.405.342-.57.409-1.16.186-1.637-.222-.477-.716-.804-1.373-.909-.657-.104-1.423.022-2.13.352-.706.329-1.295.835-1.638 1.405-.342.57-.409 1.16-.186 1.637.222.477.716.804 1.373.909.657.104 1.423-.022 2.13-.352z" fill="#969696" id="patch_56"/><path clip-path="url(#p576c0a3a4a)" d="M89.144 208.103c.242.21.693.159 1.254-.142.562-.301 1.188-.827 1.74-1.463.553-.635.986-1.328 1.206-1.926.22-.598.208-1.052-.034-1.262-.242-.21-.693-.159-1.254.142-.562.3-1.188.827-1.74 1.462-.553.636-.986 1.329-1.206 1.927-.22.598-.208 1.052.034 1.262z" fill="#969696" id="patch_57"/><path clip-path="url(#p576c0a3a4a)" d="M97.023 259.395c.232.07.563-.219.922-.804.358-.586.714-1.42.989-2.32.275-.9.446-1.79.477-2.477.03-.686-.083-1.111-.314-1.182-.232-.07-.564.219-.922.804-.359.586-.714 1.42-.99 2.32-.274.9-.446 1.79-.477 2.477-.03.686.083 1.111.315 1.182z" fill="#969696" id="patch_58"/><path clip-path="url(#p576c0a3a4a)" d="M229.738 227.028c.894-.223 1.704-.626 2.253-1.12.548-.494.79-1.038.67-1.514-.118-.476-.587-.843-1.303-1.022-.716-.178-1.62-.154-2.514.07-.894.222-1.705.625-2.253 1.119-.549.494-.79 1.038-.671 1.514.118.476.587.843 1.303 1.022.716.178 1.62.154 2.515-.07z" fill="#969696" id="patch_59"/><path clip-path="url(#p576c0a3a4a)" d="M96.764 216.757c.654-.333 1.213-.786 1.555-1.259.341-.472.437-.926.266-1.262-.17-.335-.594-.524-1.177-.526-.583-.001-1.278.185-1.932.518-.654.333-1.213.786-1.555 1.259-.341.472-.437.926-.266 1.262.17.335.594.524 1.177.526.583.001 1.278-.185 1.932-.518z" fill="#969696" id="patch_60"/><path clip-path="url(#p576c0a3a4a)" d="M143.515 117.374c.826.087 1.669-.309 2.342-1.1.674-.792 1.124-1.914 1.25-3.12.127-1.206-.08-2.398-.574-3.312-.494-.914-1.236-1.477-2.062-1.563-.826-.087-1.67.309-2.343 1.1-.674.792-1.123 1.914-1.25 3.12-.127 1.206.08 2.397.574 3.312.495.914 1.237 1.476 2.063 1.563z" fill="#969696" id="patch_61"/><path clip-path="url(#p576c0a3a4a)" d="M279.66 181.012c1.48.052 2.904-.079 3.961-.363 1.057-.285 1.66-.7 1.676-1.153.016-.453-.557-.91-1.591-1.266-1.035-.358-2.447-.588-3.926-.64-1.48-.05-2.904.08-3.961.364s-1.66.699-1.676 1.153c-.016.453.557.909 1.591 1.266 1.035.358 2.447.587 3.926.64z" fill="#969696" id="patch_62"/><path clip-path="url(#p576c0a3a4a)" d="M256.222 163.332c.721-.153 1.367-.517 1.795-1.012.427-.495.603-1.08.486-1.626-.116-.546-.514-1.01-1.106-1.288-.592-.278-1.33-.348-2.051-.194-.721.153-1.367.517-1.795 1.012-.428.495-.603 1.08-.487 1.626.116.547.514 1.01 1.106 1.288.592.278 1.33.348 2.052.194z" fill="#969696" id="patch_63"/><path clip-path="url(#p576c0a3a4a)" d="M150.815 112.63c.908-.095 1.71-.84 2.23-2.069.52-1.23.715-2.843.542-4.486-.172-1.643-.699-3.182-1.463-4.276-.764-1.095-1.703-1.656-2.611-1.56-.908.095-1.71.84-2.23 2.069-.52 1.23-.715 2.843-.542 4.486.173 1.643.699 3.182 1.463 4.276.764 1.095 1.704 1.656 2.611 1.56z" fill="#969696" id="patch_64"/><path clip-path="url(#p576c0a3a4a)" d="M280.043 188.817c1.585.028 3.11-.126 4.236-.428 1.127-.302 1.764-.726 1.772-1.18.008-.455-.614-.902-1.73-1.243-1.115-.34-2.633-.547-4.218-.575-1.586-.028-3.11.126-4.237.428-1.126.301-1.764.726-1.772 1.18-.008.455.615.902 1.73 1.242 1.116.341 2.633.548 4.219.576z" fill="#969696" id="patch_65"/><path clip-path="url(#p576c0a3a4a)" d="M142.586 92.316c.889-.221 1.56-1.162 1.867-2.614.305-1.453.22-3.298-.236-5.13-.457-1.833-1.249-3.502-2.2-4.641-.953-1.139-1.987-1.654-2.877-1.432-.89.221-1.56 1.162-1.867 2.615-.306 1.452-.22 3.298.236 5.13.457 1.832 1.249 3.501 2.2 4.64.952 1.139 1.987 1.654 2.877 1.432z" fill="#969696" id="patch_66"/><path clip-path="url(#p576c0a3a4a)" d="M152.65 184.56c.14.1.38.044.667-.154.287-.197.597-.52.86-.897.265-.378.463-.78.55-1.116.088-.337.058-.582-.083-.68-.141-.099-.381-.044-.668.154-.287.197-.596.52-.86.898-.265.377-.463.779-.55 1.115-.087.337-.057.582.084.68z" fill="#969696" id="patch_67"/><path clip-path="url(#p576c0a3a4a)" d="M244.456 181.517c.93-.032 1.818-.2 2.468-.464.65-.265 1.008-.606.996-.948-.012-.343-.393-.658-1.06-.877-.666-.219-1.564-.323-2.494-.291-.931.033-1.819.2-2.468.465-.65.264-1.008.606-.996.948.012.342.393.657 1.06.876.666.219 1.563.324 2.494.291z" fill="#969696" id="patch_68"/><path clip-path="url(#p576c0a3a4a)" d="M152.435 187.881c.277-.241.509-.513.643-.755s.16-.434.073-.535c-.088-.101-.283-.102-.541-.003-.258.1-.56.29-.837.532-.278.241-.51.513-.644.755s-.16.435-.072.536c.088.1.282.102.54.002.259-.099.56-.29.838-.532z" fill="#969696" id="patch_69"/><path clip-path="url(#p576c0a3a4a)" d="M191.526 143.689c.686-.556 1.27-1.183 1.62-1.743.351-.56.442-1.006.251-1.241-.19-.235-.646-.24-1.266-.013-.62.227-1.355.667-2.042 1.223-.687.556-1.27 1.183-1.62 1.743-.351.56-.442 1.006-.251 1.24.19.236.646.24 1.266.014.62-.227 1.355-.667 2.042-1.223z" fill="#969696" id="patch_70"/><path clip-path="url(#p576c0a3a4a)" d="M215.603 169.838c1.033-.163 2.003-.452 2.697-.802.693-.35 1.054-.732 1.001-1.063-.052-.332-.513-.584-1.28-.703-.769-.118-1.78-.093-2.814.07-1.033.164-2.003.453-2.697.803-.693.35-1.054.733-1.001 1.064.052.33.513.584 1.28.702.769.118 1.78.093 2.814-.07z" fill="#969696" id="patch_71"/><path clip-path="url(#p576c0a3a4a)" d="M140.938 215.85c.224.152.658-.03 1.208-.502.55-.473 1.169-1.2 1.722-2.019.552-.82.994-1.666 1.226-2.353.233-.686.238-1.157.014-1.308-.224-.15-.659.03-1.208.503-.55.473-1.169 1.199-1.722 2.019-.553.82-.994 1.666-1.227 2.352-.232.687-.237 1.157-.013 1.309z" fill="#969696" id="patch_72"/><path clip-path="url(#p576c0a3a4a)" d="M113.397 221.37c.21.176.61.107 1.115-.193s1.071-.806 1.575-1.406c.504-.6.903-1.246 1.111-1.795.208-.549.207-.956-.003-1.132-.21-.176-.612-.107-1.116.193-.505.3-1.071.806-1.575 1.406-.503.6-.903 1.246-1.11 1.795-.209.549-.207.956.003 1.132z" fill="#969696" id="patch_73"/><path clip-path="url(#p576c0a3a4a)" d="M138.437 180.713c-.25-.25-.64-.343-1.081-.256-.442.087-.9.346-1.274.72-.374.373-.633.832-.72 1.273-.087.442.005.831.256 1.082.251.251.64.343 1.082.256.442-.087.9-.346 1.274-.72.374-.373.632-.831.72-1.273.086-.442-.006-.831-.257-1.082z" fill="#969696" id="patch_74"/><path clip-path="url(#p576c0a3a4a)" d="M150.338 188.55c.13.114.372.089.672-.069.3-.158.632-.436.925-.773.293-.337.522-.705.636-1.023.115-.319.106-.562-.024-.675-.13-.114-.372-.089-.672.07-.3.157-.632.435-.925.772-.293.337-.522.705-.636 1.024-.115.318-.106.56.024.674z" fill="#969696" id="patch_75"/><path clip-path="url(#p576c0a3a4a)" d="M152.577 187.778c.307-.287.565-.6.718-.87.154-.272.189-.478.099-.575-.09-.097-.3-.076-.58.058-.281.134-.612.37-.919.656-.307.287-.565.6-.718.87-.154.271-.189.478-.099.575.09.097.3.076.58-.058.281-.134.612-.37.919-.656z" fill="#969696" id="patch_76"/><path clip-path="url(#p576c0a3a4a)" d="M227.774 184.486c1.177-.103 2.294-.34 3.104-.657.811-.318 1.25-.69 1.22-1.037-.03-.346-.527-.637-1.381-.809-.854-.172-1.995-.21-3.172-.108-1.176.103-2.293.34-3.104.657-.81.318-1.25.69-1.22 1.037.031.346.528.637 1.381.81.854.171 1.995.21 3.172.107z" fill="#969696" id="patch_77"/><path clip-path="url(#p576c0a3a4a)" d="M186.38 145.72c.707-.637 1.276-1.37 1.581-2.036.305-.667.322-1.213.046-1.52-.275-.305-.82-.346-1.515-.112-.695.233-1.483.722-2.19 1.359-.707.637-1.275 1.369-1.58 2.035-.306.667-.322 1.213-.047 1.52.276.306.821.346 1.516.113.695-.234 1.482-.723 2.19-1.36z" fill="#969696" id="patch_78"/><path clip-path="url(#p576c0a3a4a)" d="M122.842 175.72a2.681 2.681 0 001.813-.606c.49-.411.777-.982.798-1.587a2.174 2.174 0 00-.685-1.639 2.681 2.681 0 00-1.767-.73 2.681 2.681 0 00-1.813.605c-.49.412-.777.982-.798 1.587a2.174 2.174 0 00.685 1.639c.46.444 1.096.707 1.767.73z" fill="#969696" id="patch_79"/><path clip-path="url(#p576c0a3a4a)" d="M107.088 243.504c.213.123.711-.267 1.385-1.085.673-.818 1.466-1.996 2.205-3.275.738-1.28 1.362-2.556 1.734-3.548.371-.992.46-1.618.247-1.741-.213-.123-.711.267-1.384 1.085-.674.817-1.467 1.996-2.206 3.275-.738 1.28-1.362 2.556-1.734 3.548-.371.991-.46 1.618-.247 1.741z" fill="#969696" id="patch_80"/><path clip-path="url(#p576c0a3a4a)" d="M226.59 184.035c1.074-.075 2.09-.33 2.826-.708.736-.379 1.131-.85 1.1-1.31-.033-.461-.49-.873-1.272-1.146-.781-.272-1.823-.383-2.896-.308-1.073.075-2.09.33-2.825.708-.736.379-1.132.85-1.1 1.31.033.461.49.873 1.272 1.146.781.272 1.823.383 2.896.308z" fill="#969696" id="patch_81"/><path clip-path="url(#p576c0a3a4a)" d="M125.186 175.48c.52-.275.886-.788 1.019-1.424.133-.636.021-1.344-.31-1.968-.332-.623-.856-1.111-1.458-1.357-.602-.245-1.232-.228-1.751.048-.52.276-.887.79-1.02 1.425-.133.636-.021 1.344.31 1.968.332.623.856 1.111 1.458 1.357.602.245 1.232.228 1.752-.048z" fill="#969696" id="patch_82"/><path clip-path="url(#p576c0a3a4a)" d="M99.986 245.182c.195.07.555-.337 1.002-1.134.446-.797.942-1.919 1.378-3.117.436-1.198.777-2.376.948-3.274.17-.897.156-1.442-.039-1.513-.195-.07-.556.337-1.002 1.134-.447.798-.942 1.919-1.379 3.117-.436 1.199-.777 2.376-.947 3.274-.17.897-.157 1.442.039 1.513z" fill="#969696" id="patch_83"/><path clip-path="url(#p576c0a3a4a)" d="M146.416 210.418c.263.177.697.079 1.206-.274.508-.353 1.05-.931 1.507-1.608.457-.677.79-1.396.926-2 .137-.604.066-1.043-.198-1.221-.263-.178-.697-.079-1.206.274-.509.353-1.05.931-1.507 1.608-.457.676-.79 1.396-.926 2-.137.604-.066 1.043.198 1.22z" fill="#969696" id="patch_84"/><path clip-path="url(#p576c0a3a4a)" d="M218.405 129.547c.492.308 1.169.276 1.88-.088.711-.363 1.4-1.03 1.913-1.852.514-.822.811-1.732.826-2.531.015-.799-.253-1.42-.745-1.728-.492-.308-1.168-.276-1.88.088-.711.363-1.4 1.03-1.913 1.852-.514.822-.81 1.732-.826 2.531-.015.799.253 1.42.745 1.728z" fill="#969696" id="patch_85"/><path clip-path="url(#p576c0a3a4a)" d="M166.967 181.644c.444-.386.81-.827 1.015-1.225.205-.399.234-.722.08-.9-.154-.176-.478-.193-.901-.045-.423.148-.91.448-1.355.835-.445.386-.81.827-1.015 1.226-.206.398-.235.721-.08.898.153.178.477.194.9.046.424-.148.911-.448 1.356-.835z" fill="#969696" id="patch_86"/><path clip-path="url(#p576c0a3a4a)" d="M119.354 198.057c.516-.449.937-.965 1.17-1.435.232-.47.257-.856.069-1.072-.188-.216-.573-.245-1.071-.08-.498.164-1.068.509-1.584.958-.517.449-.938.965-1.17 1.435-.232.47-.257.856-.07 1.072.188.216.574.245 1.072.08.498-.164 1.068-.509 1.584-.958z" fill="#969696" id="patch_87"/><path clip-path="url(#p576c0a3a4a)" d="M252.892 185.456c1 .087 1.972.034 2.701-.15.729-.182 1.155-.48 1.185-.826.03-.346-.338-.712-1.024-1.02-.685-.306-1.633-.527-2.633-.615-1-.087-1.972-.034-2.7.15-.73.182-1.156.48-1.186.825-.03.347.338.713 1.024 1.02.686.307 1.633.528 2.633.616z" fill="#969696" id="patch_88"/><path clip-path="url(#p576c0a3a4a)" d="M121.216 205.542c.414-.386.749-.822.931-1.213.183-.39.198-.704.042-.87-.155-.168-.469-.174-.871-.02-.403.155-.861.46-1.275.845-.414.386-.749.822-.931 1.213-.183.39-.198.704-.042.87.155.167.469.174.871.02.403-.156.861-.46 1.275-.845z" fill="#969696" id="patch_89"/><path clip-path="url(#p576c0a3a4a)" d="M165.58 191.594c.605-.44 1.123-.95 1.438-1.418.316-.467.403-.853.243-1.074-.16-.22-.555-.256-1.096-.1-.542.155-1.187.49-1.793.93-.606.44-1.124.95-1.44 1.417-.314.467-.402.854-.242 1.074.16.22.555.257 1.097.101.541-.155 1.186-.49 1.792-.93z" fill="#969696" id="patch_90"/><path clip-path="url(#p576c0a3a4a)" d="M130.702 159.72c.68.072 1.371-.235 1.922-.852.55-.618.916-1.495 1.015-2.44.1-.945-.075-1.88-.485-2.598s-1.023-1.162-1.703-1.233c-.68-.072-1.37.235-1.921.852-.551.618-.916 1.496-1.016 2.44-.099.945.076 1.88.486 2.598s1.023 1.162 1.702 1.234z" fill="#969696" id="patch_91"/><path clip-path="url(#p576c0a3a4a)" d="M118.526 155.128c.577-.245.933-.943.991-1.939.058-.996-.187-2.21-.681-3.375-.494-1.165-1.198-2.184-1.955-2.835-.757-.65-1.506-.878-2.083-.633-.576.244-.933.942-.99 1.938-.059.997.186 2.21.68 3.375.495 1.165 1.198 2.185 1.955 2.835.757.65 1.507.878 2.083.634z" fill="#969696" id="patch_92"/><path clip-path="url(#p576c0a3a4a)" d="M100.347 236.388c.24.097.615-.168 1.042-.736.427-.568.871-1.393 1.235-2.293.364-.9.617-1.803.704-2.508.088-.705.002-1.156-.238-1.253-.24-.097-.615.168-1.042.736-.427.568-.871 1.393-1.235 2.293-.364.9-.617 1.803-.705 2.508-.087.705-.001 1.156.239 1.253z" fill="#969696" id="patch_93"/><path clip-path="url(#p576c0a3a4a)" d="M103.917 188.906c.575-.575 1.001-1.252 1.186-1.88.184-.629.111-1.158-.203-1.473-.314-.314-.844-.387-1.472-.202-.63.184-1.305.61-1.88 1.186-.575.574-1.002 1.25-1.186 1.88-.184.628-.111 1.158.203 1.472.314.314.844.387 1.472.202.629-.184 1.305-.61 1.88-1.185z" fill="#969696" id="patch_94"/><path clip-path="url(#p576c0a3a4a)" d="M169.015 196.233c.56-.16 1.056-.454 1.38-.816.324-.362.45-.764.349-1.116-.101-.351-.42-.625-.887-.76-.467-.136-1.044-.122-1.603.039-.56.16-1.056.454-1.38.816-.324.362-.45.763-.35 1.115.102.352.42.626.888.761.467.136 1.043.121 1.603-.039z" fill="#969696" id="patch_95"/><path clip-path="url(#p576c0a3a4a)" d="M196.372 174.304c.903-.328 1.73-.748 2.3-1.168.57-.42.836-.804.74-1.068-.096-.265-.547-.388-1.254-.343-.706.045-1.61.255-2.512.583-.903.329-1.73.75-2.3 1.168-.57.42-.836.804-.74 1.069.097.265.548.388 1.254.343.706-.045 1.61-.255 2.512-.584z" fill="#969696" id="patch_96"/><path clip-path="url(#p576c0a3a4a)" d="M153.433 167.302c.31.089.687-.099 1.046-.521.36-.423.672-1.047.87-1.734.196-.688.262-1.382.181-1.931-.08-.55-.3-.908-.611-.997-.311-.09-.688.098-1.047.521-.36.423-.672 1.047-.869 1.734-.197.687-.263 1.382-.182 1.931.08.55.3.908.612.997z" fill="#969696" id="patch_97"/><path clip-path="url(#p576c0a3a4a)" d="M148.75 183.902c.276-.267.482-.585.57-.885.09-.3.055-.555-.096-.712-.151-.156-.406-.2-.708-.121-.303.078-.628.272-.905.54-.276.267-.482.585-.57.884-.09.3-.055.556.096.712.151.157.406.2.708.122.303-.078.628-.272.905-.54z" fill="#969696" id="patch_98"/><path clip-path="url(#p576c0a3a4a)" d="M152.957 187.21c.295-.199.548-.433.704-.652.156-.218.202-.403.128-.513-.075-.11-.263-.136-.524-.073-.26.062-.573.21-.868.408a2.832 2.832 0 00-.704.652c-.156.219-.202.403-.128.513.074.11.262.137.523.074.261-.063.574-.21.869-.409z" fill="#969696" id="patch_99"/><path clip-path="url(#p576c0a3a4a)" d="M175.247 162.755c.178.172.567.11 1.08-.17.515-.28 1.112-.758 1.662-1.327.549-.569 1.005-1.182 1.268-1.706.263-.524.31-.914.133-1.086-.178-.171-.567-.11-1.081.17-.514.281-1.111.759-1.66 1.328-.55.568-1.006 1.182-1.269 1.706-.263.523-.31.914-.133 1.085z" fill="#969696" id="patch_100"/><path clip-path="url(#p576c0a3a4a)" d="M130.648 178.851c.391.284.89.386 1.388.283a2.11 2.11 0 001.264-.833 2.11 2.11 0 00.402-1.46 1.742 1.742 0 00-.698-1.233 1.742 1.742 0 00-1.387-.282 2.11 2.11 0 00-1.265.833 2.11 2.11 0 00-.401 1.46c.055.505.306.948.697 1.232z" fill="#969696" id="patch_101"/><path clip-path="url(#p576c0a3a4a)" d="M143.55 182.986c.309-.24.544-.549.655-.856.111-.308.088-.59-.063-.784-.152-.194-.42-.284-.745-.25-.325.033-.681.187-.99.428-.308.24-.544.549-.654.856-.111.308-.089.59.063.783.152.194.42.285.745.251.325-.033.68-.187.99-.428z" fill="#969696" id="patch_102"/><path clip-path="url(#p576c0a3a4a)" d="M193.377 210.383c1.247.022 2.447-.143 3.334-.46.888-.315 1.391-.756 1.4-1.225.007-.469-.48-.927-1.356-1.274-.876-.347-2.069-.554-3.316-.576-1.247-.022-2.446.144-3.334.46-.887.316-1.39.757-1.399 1.226-.008.468.48.927 1.356 1.274.876.346 2.068.554 3.315.575z" fill="#969696" id="patch_103"/><path clip-path="url(#p576c0a3a4a)" d="M181.06 201.962c.565-.34 1-.842 1.211-1.397.21-.554.179-1.116-.089-1.561-.267-.445-.748-.737-1.337-.812-.588-.074-1.237.075-1.802.414-.565.34-1 .842-1.211 1.397-.21.555-.179 1.117.089 1.562.267.445.748.737 1.337.811.588.075 1.237-.074 1.802-.414z" fill="#969696" id="patch_104"/><path clip-path="url(#p576c0a3a4a)" d="M153.202 186.85c.334-.27.608-.586.762-.878.153-.292.175-.537.059-.68-.116-.143-.36-.173-.678-.084-.318.09-.684.292-1.017.563-.334.27-.608.586-.762.878-.153.292-.175.537-.059.68.116.143.36.173.678.083.318-.09.684-.292 1.017-.562z" fill="#969696" id="patch_105"/><path clip-path="url(#p576c0a3a4a)" d="M138.46 182.305c.32.08.673-.02.978-.28.305-.258.54-.654.65-1.1.112-.445.091-.905-.057-1.277-.148-.371-.412-.625-.733-.705-.32-.08-.672.02-.978.279-.305.259-.539.655-.65 1.1-.111.446-.09.906.058 1.277.148.372.411.626.732.706z" fill="#969696" id="patch_106"/><path clip-path="url(#p576c0a3a4a)" d="M180.502 204.733c.659-.164 1.258-.456 1.664-.812.407-.355.588-.745.504-1.083-.084-.338-.427-.597-.953-.72-.526-.122-1.192-.1-1.851.065-.66.165-1.258.457-1.665.812-.407.355-.588.745-.503 1.083.084.338.427.597.953.72.525.123 1.191.1 1.85-.065z" fill="#969696" id="patch_107"/><path clip-path="url(#p576c0a3a4a)" d="M137.077 243.105c.374.046.775-.246 1.113-.812.338-.566.587-1.36.69-2.206.105-.846.056-1.676-.136-2.307-.191-.631-.509-1.012-.883-1.058-.375-.046-.775.246-1.114.812-.338.566-.587 1.36-.69 2.206-.104.847-.055 1.677.136 2.308.191.63.51 1.011.884 1.057z" fill="#969696" id="patch_108"/><path clip-path="url(#p576c0a3a4a)" d="M184.086 204.307c.722-.013 1.411-.165 1.917-.424.506-.26.787-.604.78-.957-.006-.354-.298-.688-.813-.93-.514-.24-1.209-.369-1.93-.356-.722.012-1.412.165-1.917.424-.506.259-.787.603-.78.957.005.353.298.688.813.929.514.241 1.209.37 1.93.357z" fill="#969696" id="patch_109"/><path clip-path="url(#p576c0a3a4a)" d="M176.243 198.557c.615.131 1.239.095 1.734-.1.496-.196.824-.535.91-.942.087-.407-.075-.85-.448-1.23-.374-.38-.929-.667-1.544-.798-.614-.13-1.238-.094-1.734.101-.496.196-.823.534-.91.942-.086.407.075.85.448 1.23.374.38.929.667 1.544.797z" fill="#969696" id="patch_110"/><path clip-path="url(#p576c0a3a4a)" d="M254.155 170.967c1.433.1 2.817.066 3.846-.094 1.03-.16 1.62-.433 1.644-.76.022-.326-.525-.679-1.522-.98-.997-.302-2.363-.528-3.796-.628-1.433-.1-2.817-.067-3.846.093-1.03.16-1.621.433-1.644.76-.023.326.525.68 1.522.98.997.303 2.363.528 3.796.629z" fill="#969696" id="patch_111"/><path clip-path="url(#p576c0a3a4a)" d="M224.099 203.271c1.255.088 2.472-.012 3.382-.279.91-.267 1.44-.678 1.473-1.142.033-.465-.435-.946-1.3-1.337-.864-.39-2.055-.66-3.31-.747-1.255-.088-2.472.012-3.383.28-.91.266-1.44.677-1.472 1.142-.033.465.435.945 1.299 1.336.865.39 2.056.66 3.31.747z" fill="#969696" id="patch_112"/><path clip-path="url(#p576c0a3a4a)" d="M112.122 169.35c.806.278 1.664.302 2.383.066.719-.236 1.24-.711 1.451-1.322.21-.611.092-1.307-.33-1.936-.421-.628-1.111-1.137-1.918-1.415-.806-.278-1.663-.301-2.382-.066-.72.236-1.241.712-1.452 1.323-.21.61-.091 1.307.33 1.935.422.629 1.111 1.138 1.918 1.415z" fill="#969696" id="patch_113"/><path clip-path="url(#p576c0a3a4a)" d="M91.72 239.493c.21.136.726-.218 1.436-.985.709-.767 1.553-1.884 2.346-3.105.793-1.221 1.47-2.447 1.882-3.406.412-.96.526-1.576.316-1.713-.21-.136-.727.218-1.437.985-.709.767-1.553 1.884-2.346 3.105-.793 1.22-1.47 2.446-1.882 3.406-.412.96-.526 1.576-.316 1.713z" fill="#969696" id="patch_114"/><path clip-path="url(#p576c0a3a4a)" d="M154.717 121.677c.695-.048 1.304-.911 1.693-2.399.39-1.487.527-3.478.384-5.533-.144-2.055-.558-4.007-1.15-5.426-.593-1.418-1.316-2.188-2.01-2.14-.695.049-1.303.912-1.693 2.4-.389 1.487-.527 3.477-.383 5.532.143 2.056.557 4.007 1.15 5.426.592 1.42 1.315 2.189 2.01 2.14z" fill="#969696" id="patch_115"/><path clip-path="url(#p576c0a3a4a)" d="M182.72 249.259c.984-.174 1.885-.591 2.502-1.16.618-.57.902-1.244.791-1.875-.111-.631-.61-1.168-1.384-1.492-.775-.323-1.764-.407-2.75-.234-.984.174-1.884.591-2.502 1.16-.618.57-.902 1.244-.79 1.875.11.632.609 1.168 1.384 1.492.775.323 1.764.408 2.748.234z" fill="#969696" id="patch_116"/><path clip-path="url(#p576c0a3a4a)" d="M205.81 122.293c1.073-.75 1.989-1.633 2.546-2.451.558-.819.711-1.507.427-1.914-.285-.406-.984-.497-1.944-.253-.96.243-2.102.802-3.175 1.554-1.073.75-1.989 1.633-2.546 2.451-.557.819-.71 1.507-.426 1.914.284.406.984.497 1.943.254.96-.244 2.102-.803 3.175-1.555z" fill="#969696" id="patch_117"/><path clip-path="url(#p576c0a3a4a)" d="M107.224 182.355a2.531 2.531 0 001.306-1.415c.23-.623.203-1.31-.077-1.91a2.481 2.481 0 00-1.413-1.286 2.531 2.531 0 00-1.923.091 2.531 2.531 0 00-1.305 1.415c-.23.623-.203 1.31.076 1.91.28.599.788 1.061 1.414 1.285a2.531 2.531 0 001.922-.09z" fill="#969696" id="patch_118"/><path clip-path="url(#p576c0a3a4a)" d="M168.922 226.531c.416.35 1.128.31 1.98-.107.852-.418 1.774-1.181 2.563-2.122.789-.94 1.38-1.98 1.644-2.892.263-.911.178-1.62-.238-1.969s-1.128-.31-1.98.108c-.852.418-1.774 1.181-2.563 2.121-.789.94-1.38 1.98-1.644 2.892-.264.912-.178 1.62.238 1.97z" fill="#969696" id="patch_119"/><path clip-path="url(#p576c0a3a4a)" d="M102.014 215.462c.511-.414.91-.924 1.11-1.418.199-.495.181-.932-.049-1.216-.23-.285-.654-.393-1.179-.3-.525.091-1.107.376-1.619.79-.512.415-.91.925-1.11 1.42-.2.493-.182.93.049 1.215.23.284.654.392 1.179.3.524-.092 1.107-.376 1.619-.79z" fill="#969696" id="patch_120"/><path clip-path="url(#p576c0a3a4a)" d="M196.238 134.186c.525.456 1.33.548 2.237.254.907-.293 1.842-.948 2.6-1.82.757-.87 1.275-1.888 1.44-2.827.164-.939-.039-1.723-.564-2.18-.525-.456-1.33-.547-2.236-.254-.907.294-1.842.949-2.6 1.82-.757.871-1.275 1.889-1.44 2.828-.164.939.038 1.723.563 2.179z" fill="#969696" id="patch_121"/><path clip-path="url(#p576c0a3a4a)" d="M103.032 240.31c.254.146.66.003 1.13-.397.471-.4.967-1.026 1.378-1.74.412-.712.706-1.454.818-2.062.111-.607.031-1.031-.222-1.178-.254-.146-.66-.003-1.131.397-.47.4-.966 1.026-1.378 1.74-.411.712-.705 1.454-.817 2.062-.112.607-.032 1.03.222 1.177z" fill="#969696" id="patch_122"/><path clip-path="url(#p576c0a3a4a)" d="M207.044 223.007c.97-.224 1.87-.566 2.504-.952.633-.385.947-.782.873-1.103-.074-.321-.53-.54-1.268-.609-.738-.069-1.698.019-2.668.242-.97.224-1.87.567-2.503.952s-.947.782-.873 1.103c.074.321.53.54 1.268.61.738.068 1.698-.02 2.667-.243z" fill="#969696" id="patch_123"/><path clip-path="url(#p576c0a3a4a)" d="M191.858 127.526c.548.244 1.247.09 1.942-.427.695-.517 1.329-1.356 1.763-2.332.435-.976.634-2.009.553-2.871-.08-.863-.433-1.485-.981-1.729-.549-.244-1.247-.09-1.942.427-.695.518-1.33 1.357-1.764 2.332-.434.976-.633 2.01-.553 2.872.08.862.434 1.484.982 1.728z" fill="#969696" id="patch_124"/><path clip-path="url(#p576c0a3a4a)" d="M138.73 155.51c.549-.232.905-.856.99-1.734.084-.878-.108-1.938-.537-2.947-.428-1.009-1.056-1.884-1.747-2.433-.69-.549-1.386-.726-1.935-.494-.548.233-.904.857-.989 1.735-.084.878.108 1.938.537 2.947.428 1.009 1.056 1.884 1.747 2.433.69.548 1.386.726 1.935.493z" fill="#969696" id="patch_125"/><path clip-path="url(#p576c0a3a4a)" d="M181.182 191.182c.843-.015 1.647-.203 2.237-.523.59-.32.917-.747.91-1.186-.008-.439-.35-.853-.95-1.153-.601-.3-1.412-.46-2.254-.445-.842.014-1.647.203-2.237.523-.59.32-.917.747-.91 1.186.008.438.35.853.95 1.153.602.3 1.412.46 2.254.445z" fill="#969696" id="patch_126"/><path clip-path="url(#p576c0a3a4a)" d="M168.003 196.283c.524-.073 1.006-.298 1.338-.625.333-.327.489-.73.434-1.118-.055-.388-.315-.732-.725-.955-.41-.222-.935-.306-1.46-.232-.524.074-1.005.299-1.338.626-.332.327-.488.729-.433 1.117.054.389.315.732.725.955.41.223.934.306 1.459.232z" fill="#969696" id="patch_127"/><path clip-path="url(#p576c0a3a4a)" d="M132.294 201.85c.146.132.419.112.757-.056.338-.167.714-.468 1.046-.837.332-.368.592-.774.723-1.128.131-.354.123-.626-.023-.758-.147-.132-.419-.112-.757.056-.338.167-.714.469-1.046.837-.332.369-.592.774-.723 1.128-.132.354-.123.627.023.758z" fill="#969696" id="patch_128"/><path clip-path="url(#p576c0a3a4a)" d="M219.17 219.695c.965-.084 1.88-.292 2.543-.578.663-.286 1.02-.626.991-.945-.028-.32-.438-.593-1.14-.76-.703-.166-1.64-.212-2.606-.127-.965.084-1.88.292-2.543.578-.663.286-1.02.626-.992.946.028.32.439.592 1.141.759.703.166 1.64.212 2.605.127z" fill="#969696" id="patch_129"/><path clip-path="url(#p576c0a3a4a)" d="M208.268 207.8c1.138-.099 2.215-.359 2.994-.723.778-.364 1.196-.802 1.16-1.217-.037-.415-.524-.774-1.354-.997-.83-.223-1.936-.293-3.073-.193-1.138.1-2.215.36-2.994.724-.778.364-1.196.801-1.16 1.217.037.415.524.774 1.354.997.83.223 1.936.292 3.073.193z" fill="#969696" id="patch_130"/><path clip-path="url(#p576c0a3a4a)" d="M120.055 206.846c.449-.326.819-.722 1.029-1.1.21-.378.242-.707.09-.916-.15-.209-.474-.28-.899-.196-.424.083-.915.312-1.363.638-.449.326-.819.722-1.029 1.1-.21.378-.243.707-.091.916.151.209.475.28.9.196.424-.083.914-.312 1.363-.638z" fill="#969696" id="patch_131"/><path clip-path="url(#p576c0a3a4a)" d="M132.25 166.16c.502.116 1.045-.042 1.51-.438.465-.397.814-1 .97-1.677.157-.677.107-1.372-.137-1.933-.244-.56-.662-.94-1.164-1.056-.501-.115-1.044.042-1.509.44-.465.396-.814 1-.97 1.676-.157.677-.107 1.372.137 1.932.244.56.663.94 1.164 1.056z" fill="#969696" id="patch_132"/><path clip-path="url(#p576c0a3a4a)" d="M100.031 239.969c.21.13.588-.029 1.053-.442.464-.414.976-1.049 1.424-1.765.447-.716.793-1.455.962-2.053.168-.6.145-1.01-.064-1.14-.21-.13-.588.028-1.053.442-.464.414-.977 1.048-1.424 1.764-.447.717-.793 1.455-.962 2.054-.168.599-.145 1.009.064 1.14z" fill="#969696" id="patch_133"/><path clip-path="url(#p576c0a3a4a)" d="M157.444 112.603c.832.147 1.76-.446 2.577-1.648.819-1.202 1.462-2.915 1.787-4.761.326-1.846.307-3.676-.05-5.085-.358-1.41-1.027-2.284-1.858-2.43-.832-.147-1.76.446-2.578 1.648-.818 1.202-1.46 2.915-1.786 4.761-.326 1.846-.308 3.676.05 5.085.358 1.41 1.027 2.284 1.858 2.43z" fill="#969696" id="patch_134"/><g id="matplotlib.axis_1"><g id="xtick_1"><g id="line2d_1"><defs><path d="M0 0v3.5" id="mb163059d78" stroke="#969696" stroke-width=".4"/></defs><use x="101.278" xlink:href="#mb163059d78" y="313.504" fill="#969696" stroke="#969696" stroke-width=".4"/></g><g transform="matrix(.14 0 0 -.14 91.548 330.553)" fill="#969696" id="text_1"><defs><path d="M42.484 34.188q0 14.109-3.734 21.156-3.734 7.062-10.969 7.062-7.078 0-10.89-7.062-3.797-7.047-3.797-21.157 0-13.671 3.75-20.937Q20.609 6 27.78 6q7.235 0 10.969 7 3.734 7.016 3.734 21.188zm9.422 0q0-17.297-6.25-26.704-6.25-9.39-17.875-9.39-12.062 0-18.062 9.734-6 9.75-6 26.36 0 17.03 6.14 26.578 6.157 9.547 17.922 9.547 11.625 0 17.875-9.5t6.25-26.626z" id="HelveticaWorld-Regular-48"/><path d="M19.094 0H8.687v10.594h10.407z" id="HelveticaWorld-Regular-46"/><path d="M4.39 45.125q0 12.39 6.391 18.781 6.406 6.407 17.938 6.407 9.656 0 15.812-5.86 6.157-5.86 6.157-15.14 0-7.22-3.547-12.188-3.532-4.953-10.422-8.703l-12.11-6.64Q13.922 15.921 12.5 8.296h38.188V0H2.593q.39 9.906 4.297 16.5 3.906 6.594 12.203 11.375l12.593 7.328q5.032 2.89 7.329 5.984 2.297 3.094 2.297 8.516 0 5.375-3.766 9.031-3.75 3.672-10.156 3.672-7.078 0-10.594-4.672-3.516-4.656-3.61-12.609z" id="HelveticaWorld-Regular-50"/></defs><use xlink:href="#HelveticaWorld-Regular-48"/><use x="55.615" xlink:href="#HelveticaWorld-Regular-46"/><use x="83.398" xlink:href="#HelveticaWorld-Regular-50"/></g></g><g id="xtick_2"><use x="189.441" xlink:href="#mb163059d78" y="313.504" fill="#969696" stroke="#969696" stroke-width=".4" id="line2d_2"/><g transform="matrix(.14 0 0 -.14 179.71 330.553)" fill="#969696" id="text_2"><defs><path d="M10.594 24.703h22.61v31.89h-.188zM42 17.093V0h-8.797v17.094H2.484v8.593L34.72 70.314H42v-45.61h10.297v-7.61z" id="HelveticaWorld-Regular-52"/></defs><use xlink:href="#HelveticaWorld-Regular-48"/><use x="55.615" xlink:href="#HelveticaWorld-Regular-46"/><use x="83.398" xlink:href="#HelveticaWorld-Regular-52"/></g></g><g id="xtick_3"><use x="277.604" xlink:href="#mb163059d78" y="313.504" fill="#969696" stroke="#969696" stroke-width=".4" id="line2d_3"/><g transform="matrix(.14 0 0 -.14 267.874 330.553)" fill="#969696" id="text_3"><defs><path d="M14.11 21.578q0-6.875 4.093-11.234Q22.313 6 28.906 6q6.297 0 10.032 4.438 3.734 4.453 3.734 11.687 0 6.297-3.688 10.547-3.687 4.25-10.468 4.25-6.594 0-10.5-4.156-3.907-4.157-3.907-11.188zM41.702 51.61q-.984 5.375-3.984 8.078-3 2.72-8.125 2.72-8.11 0-12.36-7.923-4.25-7.906-4.343-18.109l.203-.188q5.61 8.641 16.687 8.641 8.844 0 15.438-5.86 6.593-5.859 6.593-16.452 0-10.5-6.25-17.47-6.25-6.952-16.843-6.952-12.219 0-18.563 8.687-6.344 8.703-6.344 25.938 0 16.593 6.485 27.093 6.5 10.5 19.484 10.5 8.407 0 14.219-5.015 5.813-5 6.297-13.688z" id="HelveticaWorld-Regular-54"/></defs><use xlink:href="#HelveticaWorld-Regular-48"/><use x="55.615" xlink:href="#HelveticaWorld-Regular-46"/><use x="83.398" xlink:href="#HelveticaWorld-Regular-54"/></g></g><g transform="matrix(.14 0 0 -.14 181.18 347.5)" fill="#969696" id="text_4"><defs><path d="M49.031 0H37.703l-12.89 19.672L12.203 0H1.125l18.266 26.906L2 52.296h11.188l12.109-18.405L37.5 52.297h10.688l-17.579-25.39z" id="HelveticaWorld-Regular-120"/></defs><use xlink:href="#HelveticaWorld-Regular-120"/></g></g><g id="matplotlib.axis_2"><g id="ytick_1"><g id="line2d_4"><defs><path d="M0 0h-3.5" id="me3d12c63ce" stroke="#969696" stroke-width=".3"/></defs><use x="41.133" xlink:href="#me3d12c63ce" y="289.417" fill="#969696" stroke="#969696" stroke-width=".3"/></g><g transform="matrix(.14 0 0 -.14 14.673 294.442)" fill="#969696" id="text_5"><defs><path d="M35.89 0h-9.374v49.906H10.109v6.985q8.594.28 12.782 2.75Q27.094 62.109 29 70.313h6.89z" id="HelveticaWorld-Regular-49"/></defs><use xlink:href="#HelveticaWorld-Regular-48"/><use x="55.615" xlink:href="#HelveticaWorld-Regular-46"/><use x="83.398" xlink:href="#HelveticaWorld-Regular-49"/></g></g><g id="ytick_2"><use x="41.133" xlink:href="#me3d12c63ce" y="245.336" fill="#969696" stroke="#969696" stroke-width=".3" id="line2d_5"/><g transform="matrix(.14 0 0 -.14 14.673 250.36)" fill="#969696" id="text_6"><use xlink:href="#HelveticaWorld-Regular-48"/><use x="55.615" xlink:href="#HelveticaWorld-Regular-46"/><use x="83.398" xlink:href="#HelveticaWorld-Regular-50"/></g></g><g id="ytick_3"><use x="41.133" xlink:href="#me3d12c63ce" y="201.254" fill="#969696" stroke="#969696" stroke-width=".3" id="line2d_6"/><g transform="matrix(.14 0 0 -.14 14.673 206.279)" fill="#969696" id="text_7"><defs><path d="M22.406 39.984q2.203-.187 4.594-.187 6.203 0 9.781 2.86 3.594 2.859 3.594 8.656 0 4.687-3.344 7.89-3.343 3.203-9.64 3.203-6.985 0-10.235-4.11-3.234-4.093-3.437-10.983h-8.64q0 10.984 5.765 16.984 5.765 6.016 16.937 6.016 9.922 0 15.828-5.11 5.907-5.094 5.907-13.39 0-10.704-9.032-14.5v-.204q11.72-4 11.72-16.406 0-9.906-6.595-16.265-6.593-6.344-18.703-6.344-9.906 0-16.312 5.203Q4.204 8.5 3.422 21.484H12.5q.203-8.109 4-11.797Q20.313 6 27.484 6q6.938 0 11.141 3.86 4.203 3.859 4.203 9.718 0 6.406-4.016 9.672-4 3.266-12.39 3.266-2 0-4.016-.094z" id="HelveticaWorld-Regular-51"/></defs><use xlink:href="#HelveticaWorld-Regular-48"/><use x="55.615" xlink:href="#HelveticaWorld-Regular-46"/><use x="83.398" xlink:href="#HelveticaWorld-Regular-51"/></g></g><g id="ytick_4"><use x="41.133" xlink:href="#me3d12c63ce" y="157.172" fill="#969696" stroke="#969696" stroke-width=".3" id="line2d_7"/><g transform="matrix(.14 0 0 -.14 14.673 162.197)" fill="#969696" id="text_8"><use xlink:href="#HelveticaWorld-Regular-48"/><use x="55.615" xlink:href="#HelveticaWorld-Regular-46"/><use x="83.398" xlink:href="#HelveticaWorld-Regular-52"/></g></g><g id="ytick_5"><use x="41.133" xlink:href="#me3d12c63ce" y="113.091" fill="#969696" stroke="#969696" stroke-width=".3" id="line2d_8"/><g transform="matrix(.14 0 0 -.14 14.673 118.116)" fill="#969696" id="text_9"><defs><path d="M14.703 40.922q5.813 4.39 13.625 4.39 9.469 0 16.281-6.296 6.813-6.297 6.813-16.22 0-10.78-6.578-17.796-6.563-7-18.422-7-10.313 0-16.266 5.047Q4.203 8.109 3.22 17.39h9.094q.671-5.672 4.437-8.672 3.766-3 10.453-3 6.485 0 10.64 4.484Q42 14.703 42 21.688q0 7.125-4.36 11.421-4.343 4.297-11.218 4.297-7.813 0-13.047-6.687l-7.563.39 5.266 37.594h36.438v-8.5H17.672z" id="HelveticaWorld-Regular-53"/></defs><use xlink:href="#HelveticaWorld-Regular-48"/><use x="55.615" xlink:href="#HelveticaWorld-Regular-46"/><use x="83.398" xlink:href="#HelveticaWorld-Regular-53"/></g></g><g id="ytick_6"><use x="41.133" xlink:href="#me3d12c63ce" y="69.009" fill="#969696" stroke="#969696" stroke-width=".3" id="line2d_9"/><g transform="matrix(.14 0 0 -.14 14.673 74.034)" fill="#969696" id="text_10"><use xlink:href="#HelveticaWorld-Regular-48"/><use x="55.615" xlink:href="#HelveticaWorld-Regular-46"/><use x="83.398" xlink:href="#HelveticaWorld-Regular-54"/></g></g><g transform="matrix(.14 0 0 -.14 7.2 177.453)" fill="#969696" id="text_11"><defs><path d="M39.016 52.297h9.562L29.891.984q-.5-1.375-.985-2.593-4.25-11.329-7.328-15.547-3.078-4.235-9.953-4.235-3.61 0-5.906.782v8.015q2.484-.89 5.468-.89 3.22 0 4.704 2.03 1.5 2.032 4.421 9.938L.875 52.297h9.922L24.812 9.719H25z" id="HelveticaWorld-Regular-121"/></defs><use xlink:href="#HelveticaWorld-Regular-121"/></g></g><g transform="matrix(.14 0 0 -.14 100.593 17.392)" fill="#969696" id="text_12"><defs><path d="M17.672 8.594h36.531V0H8.11v71.781h9.563z" id="HelveticaWorld-Regular-76"/><path d="M6.11 52.297h8.78V17.578q0-5.765 2.61-8.625Q20.125 6.11 25 6.11q6.781 0 10.594 4.797 3.812 4.813 3.812 12.578v28.813h8.782V0H39.89v7.625l-.188.188q-4.984-9.329-16.61-9.329-7.515 0-12.25 4.094Q6.11 6.688 6.11 14.703z" id="HelveticaWorld-Regular-117"/><path d="M12.703 26.219q0-8.735 3.953-14.375 3.953-5.64 11.219-5.64 7.531 0 11.438 5.905 3.906 5.907 3.906 14.11 0 8.297-3.907 14.078-3.906 5.797-11.437 5.797-6.969 0-11.078-5.453-4.094-5.438-4.094-14.422zm-8.984 0q0 11.672 6.484 19.625 6.5 7.968 17.672 7.968 11.438 0 17.875-8.062 6.453-8.047 6.453-19.531 0-11.516-6.406-19.625-6.39-8.11-17.922-8.11-11.078 0-17.625 7.86-6.531 7.86-6.531 19.875z" id="HelveticaWorld-Regular-111"/><path d="M28.906 23.188H4.391v8.984h24.515z" id="HelveticaWorld-Regular-45"/><path d="M17.828 39.11h22.453q7.813 0 11.203 3.203 3.407 3.203 3.407 9.203 0 5.468-2.938 8.718-2.922 3.25-10.062 3.25H17.828zm0-39.11H8.11v71.781h33.203q11.563 0 17.516-4.937 5.969-4.922 5.969-14.36 0-6.187-2.39-10.343-2.391-4.157-7.516-6.844 4.39-1.61 6.343-4.516 1.953-2.906 2.25-9l.625-13.375q.094-3.328 1.047-4.672.953-1.343 2.672-2.125V0H55.812q-.921 2.688-1.312 8.156-.39 5.469-.39 9.86 0 2.203-.391 4.5-.39 2.297-1.719 4.14-1.313 1.86-3.86 3-2.53 1.157-6.828 1.157H17.828z" id="HelveticaWorld-Regular-82"/><path d="M6.594 61.813v9.968h8.781v-9.969zM15.375 0H6.594v52.297h8.781z" id="HelveticaWorld-Regular-105"/><path d="M12.984 26.313q0-9.61 3.813-14.907Q20.609 6.11 27.094 6.11q6.312 0 10.312 4.579 4 4.593 4 13 0 11.03-3.5 16.625-3.484 5.593-10.61 5.593-7.171 0-10.75-4.765-3.562-4.766-3.562-14.828zM49.812 2.983q0-12.609-6.062-18.797-6.047-6.203-18.266-6.203-8.78 0-13.984 4.047Q6.297-13.922 5.516-6.39h8.796q.672-3.812 3.532-6.062 2.86-2.25 8.281-2.25 7.375 0 11.125 3.969 3.766 3.953 3.766 12.828v3.719h-.188q-4.937-7.329-13.922-7.329-11.187 0-17.093 8.25-5.907 8.25-5.907 20.953 0 11.625 5.953 18.875 5.97 7.25 15.829 7.25 9.906 0 15.625-8.89h.187v7.375h8.313z" id="HelveticaWorld-Regular-103"/><path d="M42.484 30.328q-.687 8.485-4.5 12.031-3.797 3.547-10.109 3.547-6.39 0-10.328-4.5-3.922-4.484-4.172-11.078zm8.391-13.922q-1.453-8.11-7.953-13.422-5.719-4.5-15.047-4.593-10.984.093-17.438 7.203Q4 12.704 4 24.704q0 13.78 6.64 21.437 6.641 7.672 18.47 7.672 10.593 0 16.546-7.922 5.953-7.907 5.953-22.594H13.375q0-8.203 3.813-12.703Q21 6.109 28.608 6.109q5.375 0 9.235 3.235 3.86 3.25 4.25 7.062z" id="HelveticaWorld-Regular-101"/><path d="M15.375 0H6.594v71.781h8.781z" id="HelveticaWorld-Regular-108"/><path d="M14.984 23.688q0-8.407 4.094-13 4.11-4.579 10.219-4.579 6.687 0 10.39 5.438 3.72 5.453 3.72 14.765 0 10.22-3.563 14.907-3.563 4.687-10.735 4.687-6.984 0-10.562-5.5-3.563-5.5-3.563-16.718zm-8.39 28.609h8.297v-7.375h.203q5.61 8.89 15.625 8.89 10.11 0 15.937-7.359 5.828-7.344 5.828-18.766 0-12.796-5.953-21Q40.578-1.515 29.5-1.515q-9.094 0-13.922 7.032h-.203v-26.22H6.594z" id="HelveticaWorld-Regular-112"/><path d="M36.078 37.406q-.187 4.688-3.344 6.735-3.14 2.047-9.047 2.047-4.296 0-7.359-1.907-3.047-1.89-3.047-5.468 0-2.829 1.797-4.172 1.813-1.344 7.828-2.86l8.688-2.187q7.906-2 11.297-5.11 3.406-3.093 3.406-8.656 0-7.719-5.64-12.531-5.641-4.813-15.063-4.813-11 0-16.64 4.563-5.626 4.578-5.735 13.75h8.5q.203-5.422 3.594-8.063 3.39-2.625 10.171-2.625 5.516 0 8.766 2.188 3.25 2.203 3.25 6.11 0 2.78-2.11 4.437-2.093 1.672-8.296 3.078l-10.203 2.5q-6.203 1.562-9.157 4.656-2.953 3.094-2.953 8.031 0 7.72 5.516 12.203 5.531 4.5 14.406 4.5 9.485 0 14.531-4.624 5.047-4.61 5.344-11.782z" id="HelveticaWorld-Regular-115"/><path d="M17.188 45.016V0H8.405v45.016H1.22v7.28h7.187v8.985q0 5.907 3.578 8.703 3.594 2.813 10.032 2.813 2.203 0 3.968-.188v-7.906q-1.562.188-3.578.188-2.922 0-4.078-1.438-1.14-1.437-1.14-4.656v-6.5h8.796v-7.281z" id="HelveticaWorld-Regular-102"/><path d="M15.375 0H6.594v52.297h8.297v-8.688h.203q5.703 10.203 14.687 10.203 1.422 0 2.297-.296V44.39h-3.266q-5.906 0-9.671-4.016-3.766-4-3.766-9.953z" id="HelveticaWorld-Regular-114"/><path d="M37.313 0h-9.72v28.906L.485 71.781h11.329l20.609-34.469 20.562 34.47h11.422L37.312 28.905z" id="HelveticaWorld-Regular-89"/><path d="M0-12.313v4.891h55.61v-4.89z" id="HelveticaWorld-Regular-95"/></defs><use xlink:href="#HelveticaWorld-Regular-76"/><use x="55.615" xlink:href="#HelveticaWorld-Regular-117"/><use x="110.4" xlink:href="#HelveticaWorld-Regular-111"/><use x="166.309" xlink:href="#HelveticaWorld-Regular-45"/><use x="199.609" xlink:href="#HelveticaWorld-Regular-82"/><use x="270.996" xlink:href="#HelveticaWorld-Regular-105"/><use x="293.018" xlink:href="#HelveticaWorld-Regular-103"/><use x="348.926" xlink:href="#HelveticaWorld-Regular-103"/><use x="404.834" xlink:href="#HelveticaWorld-Regular-32"/><use x="429.248" xlink:href="#HelveticaWorld-Regular-101"/><use x="484.668" xlink:href="#HelveticaWorld-Regular-108"/><use x="506.689" xlink:href="#HelveticaWorld-Regular-108"/><use x="528.711" xlink:href="#HelveticaWorld-Regular-105"/><use x="550.732" xlink:href="#HelveticaWorld-Regular-112"/><use x="607.227" xlink:href="#HelveticaWorld-Regular-115"/><use x="657.227" xlink:href="#HelveticaWorld-Regular-101"/><use x="712.646" xlink:href="#HelveticaWorld-Regular-115"/><use x="762.646" xlink:href="#HelveticaWorld-Regular-32"/><use x="787.061" xlink:href="#HelveticaWorld-Regular-102"/><use x="812.746" xlink:href="#HelveticaWorld-Regular-111"/><use x="868.654" xlink:href="#HelveticaWorld-Regular-114"/><use x="901.223" xlink:href="#HelveticaWorld-Regular-32"/><use x="925.637" xlink:href="#HelveticaWorld-Regular-120"/><use x="975.637" xlink:href="#HelveticaWorld-Regular-121"/><use x="1025.246" xlink:href="#HelveticaWorld-Regular-89"/><use x="1090.041" xlink:href="#HelveticaWorld-Regular-95"/><use x="1145.656" xlink:href="#HelveticaWorld-Regular-49"/></g></g></g><defs><clipPath id="p576c0a3a4a"><path d="M41.133 47.392h287.095v266.112H41.133z"/></clipPath></defs></svg>