<svg height="476.965" viewBox="0 0 274.506 357.724" width="366.008" xmlns="http://www.w3.org/2000/svg" xmlns:xlink="http://www.w3.org/1999/xlink"><defs><style>*{stroke-linecap:butt;stroke-linejoin:round}</style></defs><g id="figure_1"><path d="M0 357.724h274.506V0H0z" fill="none" id="patch_1"/><g id="axes_1"><path d="M48.653 313.628h218.653V47.516H48.653z" fill="none" id="patch_2"/><path clip-path="url(#p884f503d8f)" d="M136.4 268.945c-.71-.975-1.467-1.856-2.103-2.449-.636-.592-1.1-.848-1.288-.71-.19.137-.088.656.281 1.444.37.787.976 1.777 1.686 2.752.71.976 1.468 1.857 2.103 2.45.636.592 1.1.848 1.289.71.188-.137.087-.657-.282-1.444-.369-.787-.976-1.777-1.686-2.753z" fill="#969696" id="patch_3"/><path clip-path="url(#p884f503d8f)" d="M147.838 94.908c.84.2 1.882-.595 2.896-2.211 1.014-1.616 1.917-3.922 2.51-6.408.594-2.487.83-4.952.655-6.852-.175-1.9-.745-3.08-1.585-3.28-.84-.201-1.883.594-2.897 2.21-1.014 1.617-1.917 3.922-2.51 6.409-.594 2.486-.83 4.951-.655 6.851.175 1.9.745 3.08 1.586 3.281z" fill="#969696" id="patch_4"/><path clip-path="url(#p884f503d8f)" d="M187.943 213.104a2.538 2.538 0 001.774-.418c.502-.35.826-.871.901-1.449a2.101 2.101 0 00-.5-1.63 2.538 2.538 0 00-1.608-.858 2.538 2.538 0 00-1.775.418c-.501.35-.825.87-.9 1.448a2.101 2.101 0 00.5 1.63c.395.468.974.776 1.608.859z" fill="#969696" id="patch_5"/><path clip-path="url(#p884f503d8f)" d="M121.615 214.605c.3.132.621.18.895.133.274-.047.477-.185.565-.383.088-.2.053-.442-.097-.676a1.603 1.603 0 00-.7-.573c-.3-.132-.622-.18-.896-.133-.274.047-.477.185-.565.384-.088.198-.053.442.097.676.15.234.402.44.701.572z" fill="#969696" id="patch_6"/><path clip-path="url(#p884f503d8f)" d="M169.39 232.04c.363.323.804.529 1.226.571.423.043.792-.081 1.026-.344.235-.263.315-.644.224-1.059-.09-.415-.345-.83-.708-1.153-.363-.323-.805-.529-1.227-.571-.422-.043-.792.081-1.026.344-.234.263-.315.644-.224 1.059.09.415.346.83.709 1.153z" fill="#969696" id="patch_7"/><path clip-path="url(#p884f503d8f)" d="M143.22 225.84c.233-.058.422-.25.526-.532.104-.282.114-.631.028-.971a1.676 1.676 0 00-.488-.84c-.225-.2-.483-.278-.716-.219-.233.06-.423.251-.526.533a1.676 1.676 0 00-.028.971c.086.34.261.643.487.841.226.199.484.277.717.218z" fill="#969696" id="patch_8"/><path clip-path="url(#p884f503d8f)" d="M141.204 212.654c.316.012.628-.195.866-.575.238-.38.384-.904.404-1.454.021-.55-.084-1.082-.293-1.48-.209-.397-.504-.627-.82-.639-.316-.012-.627.195-.865.576-.239.38-.384.903-.405 1.453-.02.55.085 1.082.294 1.48.208.397.503.627.82.64z" fill="#969696" id="patch_9"/><path clip-path="url(#p884f503d8f)" d="M212.635 159.327c-.61 1.636-1.027 3.268-1.16 4.536-.132 1.268.03 2.07.452 2.226.422.158 1.07-.341 1.799-1.387.73-1.046 1.482-2.552 2.092-4.188.61-1.636 1.027-3.268 1.16-4.536.133-1.268-.03-2.069-.452-2.226-.422-.158-1.07.341-1.799 1.387-.73 1.046-1.482 2.552-2.092 4.188z" fill="#969696" id="patch_10"/><path clip-path="url(#p884f503d8f)" d="M102.477 167.983c-.504-1.064-1.212-1.978-1.968-2.54-.756-.563-1.498-.729-2.062-.461-.565.268-.906.947-.95 1.888-.042.942.217 2.068.721 3.132.504 1.063 1.212 1.977 1.968 2.54.756.562 1.498.728 2.063.46.565-.267.906-.947.949-1.888.043-.941-.217-2.068-.72-3.131z" fill="#969696" id="patch_11"/><path clip-path="url(#p884f503d8f)" d="M119.745 147.286c.513-.02.983-.62 1.307-1.672.323-1.05.474-2.465.419-3.932-.056-1.467-.313-2.866-.715-3.89-.402-1.023-.916-1.587-1.429-1.568-.513.02-.983.62-1.307 1.672-.324 1.05-.474 2.465-.419 3.932.055 1.467.312 2.866.714 3.89.402 1.023.917 1.587 1.43 1.568z" fill="#969696" id="patch_12"/><path clip-path="url(#p884f503d8f)" d="M112.726 169.462c.433-.18.71-.683.77-1.4.06-.718-.1-1.59-.447-2.426-.347-.835-.852-1.565-1.403-2.028-.551-.464-1.104-.623-1.536-.443-.433.18-.71.683-.77 1.4-.06.718.1 1.59.447 2.426.347.835.852 1.565 1.403 2.028.551.464 1.104.623 1.536.443z" fill="#969696" id="patch_13"/><path clip-path="url(#p884f503d8f)" d="M134.558 196.04c.29-.083.49-.427.56-.956.069-.53 0-1.201-.19-1.867-.19-.666-.488-1.272-.827-1.684-.338-.413-.691-.598-.98-.516-.289.083-.49.427-.56.956-.068.53 0 1.201.19 1.867.19.666.488 1.272.827 1.684.339.413.692.598.98.515z" fill="#969696" id="patch_14"/><path clip-path="url(#p884f503d8f)" d="M130.675 167.405c.386-.018.737-.454.975-1.213.238-.759.343-1.778.294-2.833-.05-1.054-.25-2.059-.559-2.792-.307-.733-.697-1.135-1.083-1.117-.386.019-.737.455-.975 1.214-.237.758-.343 1.777-.294 2.832.05 1.055.25 2.06.559 2.793.308.733.697 1.134 1.083 1.116z" fill="#969696" id="patch_15"/><path clip-path="url(#p884f503d8f)" d="M116.095 211.825c.247-.249.351-.619.29-1.03-.062-.41-.285-.826-.619-1.158-.334-.33-.753-.55-1.163-.608-.411-.058-.78.05-1.028.298-.246.249-.35.62-.289 1.03.062.41.284.827.618 1.158.335.331.753.55 1.164.608.41.059.78-.049 1.027-.298z" fill="#969696" id="patch_16"/><path clip-path="url(#p884f503d8f)" d="M104.436 224.667c.622-.122 1.182-.425 1.556-.841.375-.417.534-.913.443-1.38-.092-.467-.427-.867-.932-1.11-.504-.244-1.137-.313-1.76-.19-.621.122-1.181.424-1.556.841s-.534.913-.442 1.38c.091.467.427.866.931 1.11.505.244 1.138.312 1.76.19z" fill="#969696" id="patch_17"/><path clip-path="url(#p884f503d8f)" d="M112.055 226.65c.559-.114 1.07-.35 1.419-.658.349-.307.508-.66.443-.98-.065-.321-.35-.583-.792-.73-.442-.145-1.004-.163-1.563-.05-.56.115-1.07.352-1.42.659-.348.307-.508.66-.442.98.065.321.35.583.792.73.441.145 1.004.163 1.563.05z" fill="#969696" id="patch_18"/><path clip-path="url(#p884f503d8f)" d="M116.721 236.518a2.182 2.182 0 001.523-.166c.45-.236.768-.627.881-1.09a1.692 1.692 0 00-.276-1.372 2.182 2.182 0 00-1.272-.854 2.182 2.182 0 00-1.522.167c-.45.235-.768.627-.881 1.089-.114.461-.015.955.276 1.373.29.417.747.724 1.271.853z" fill="#969696" id="patch_19"/><path clip-path="url(#p884f503d8f)" d="M126.977 225.735c.26.094.566.033.848-.172.283-.204.52-.535.659-.918s.168-.789.082-1.127c-.086-.337-.28-.58-.541-.675-.26-.094-.566-.032-.849.172-.282.204-.519.535-.658.918s-.168.789-.082 1.127c.086.338.28.58.541.675z" fill="#969696" id="patch_20"/><path clip-path="url(#p884f503d8f)" d="M140.54 228.124c.231.002.454-.155.62-.436.166-.281.26-.664.263-1.063.003-.4-.086-.783-.248-1.066-.161-.284-.382-.444-.613-.445-.232-.002-.455.155-.62.436-.166.281-.261.663-.264 1.062-.003.4.086.783.248 1.067.161.283.382.443.614.445z" fill="#969696" id="patch_21"/><path clip-path="url(#p884f503d8f)" d="M148.82 223.854c.318.004.626-.154.855-.438.229-.285.36-.674.366-1.082.006-.407-.115-.8-.336-1.09-.222-.292-.525-.458-.843-.462-.319-.005-.626.153-.856.438-.229.285-.36.674-.366 1.081-.006.407.115.8.336 1.091.222.291.525.457.843.462z" fill="#969696" id="patch_22"/><path clip-path="url(#p884f503d8f)" d="M153.843 205.622c.322.118.693.063 1.031-.153.338-.216.615-.576.77-1 .156-.423.176-.876.058-1.26-.118-.383-.366-.664-.689-.782-.322-.119-.694-.064-1.031.152-.338.216-.615.576-.77 1-.156.423-.177.876-.058 1.26.118.383.366.664.689.783z" fill="#969696" id="patch_23"/><path clip-path="url(#p884f503d8f)" d="M146.21 190.66c.34.042.695-.137.985-.497.289-.36.49-.873.557-1.424.068-.551-.003-1.097-.197-1.516-.194-.42-.495-.679-.836-.72-.342-.042-.696.136-.986.497-.29.36-.49.872-.557 1.423-.068.552.003 1.097.197 1.517.194.419.494.678.836.72z" fill="#969696" id="patch_24"/><path clip-path="url(#p884f503d8f)" d="M173.403 193.955c.657-.434 1.19-.998 1.48-1.569.291-.57.316-1.1.07-1.473s-.743-.558-1.382-.514c-.639.043-1.367.311-2.025.745-.657.434-1.19.999-1.48 1.57-.291.57-.316 1.1-.07 1.472.246.373.743.558 1.382.515.64-.044 1.367-.312 2.025-.746z" fill="#969696" id="patch_25"/><path clip-path="url(#p884f503d8f)" d="M165.897 208.366c-.3-.334-.756-.505-1.266-.474-.51.031-1.033.26-1.454.639-.422.378-.707.873-.792 1.377-.086.504.035.975.335 1.31.3.334.755.504 1.265.473.51-.03 1.033-.26 1.455-.638.421-.378.706-.874.792-1.377.085-.504-.035-.975-.335-1.31z" fill="#969696" id="patch_26"/><path clip-path="url(#p884f503d8f)" d="M156.315 179.35c.265.144.644.05 1.054-.259.41-.31.817-.81 1.132-1.39.315-.582.512-1.196.548-1.708.035-.513-.093-.881-.358-1.025-.265-.143-.644-.05-1.054.26-.41.309-.817.809-1.132 1.39-.315.58-.512 1.195-.548 1.708-.035.512.093.88.358 1.024z" fill="#969696" id="patch_27"/><path clip-path="url(#p884f503d8f)" d="M169.355 139.394c.416.124.965-.257 1.526-1.06.56-.804 1.086-1.964 1.462-3.224.375-1.26.57-2.519.54-3.498-.028-.979-.279-1.598-.696-1.723-.416-.124-.965.258-1.526 1.061-.56.803-1.086 1.963-1.461 3.223-.376 1.26-.57 2.519-.542 3.498.03.979.28 1.599.697 1.723z" fill="#969696" id="patch_28"/><path clip-path="url(#p884f503d8f)" d="M145.452 139.145c.43.05.936-.712 1.406-2.118.471-1.405.868-3.34 1.104-5.377.236-2.037.292-4.011.155-5.487-.137-1.476-.456-2.333-.886-2.383-.43-.05-.936.712-1.407 2.117-.47 1.406-.868 3.34-1.104 5.378-.236 2.037-.291 4.011-.154 5.487.137 1.476.456 2.333.886 2.383z" fill="#969696" id="patch_29"/><path clip-path="url(#p884f503d8f)" d="M178.709 170.926c-.865.802-1.59 1.683-2.017 2.45-.427.766-.52 1.354-.259 1.636.262.282.856.233 1.652-.135.796-.368 1.73-1.025 2.594-1.827.864-.802 1.59-1.683 2.017-2.449.426-.766.52-1.355.258-1.637-.261-.281-.855-.233-1.652.135-.796.368-1.729 1.025-2.593 1.827z" fill="#969696" id="patch_30"/><path clip-path="url(#p884f503d8f)" d="M87.25 212.03c1.28.22 2.53.305 3.473.237.944-.069 1.504-.285 1.559-.6.054-.317-.402-.708-1.27-1.087-.866-.38-2.073-.716-3.353-.936-1.28-.22-2.53-.305-3.473-.237-.944.068-1.505.284-1.56.6-.054.317.403.708 1.27 1.087s2.073.716 3.353.935z" fill="#969696" id="patch_31"/><path clip-path="url(#p884f503d8f)" d="M110.35 254.522a1.974 1.974 0 001.193-.77 1.64 1.64 0 00.283-1.3 1.64 1.64 0 00-.793-1.067 1.974 1.974 0 00-1.403-.211 1.974 1.974 0 00-1.193.77 1.64 1.64 0 00-.283 1.3c.096.443.381.827.793 1.067.412.24.917.316 1.403.211z" fill="#969696" id="patch_32"/><path clip-path="url(#p884f503d8f)" d="M169.558 276.136c1.014 1.008 2.042 1.92 2.857 2.535.815.615 1.35.882 1.489.743.138-.138-.133-.672-.753-1.483-.62-.812-1.538-1.834-2.552-2.842-1.015-1.009-2.043-1.92-2.858-2.536-.815-.614-1.35-.882-1.488-.743-.138.139.132.673.752 1.484.62.811 1.538 1.834 2.553 2.842z" fill="#969696" id="patch_33"/><path clip-path="url(#p884f503d8f)" d="M164.833 257.123c-.119.115.073.54.533 1.178.46.64 1.15 1.441 1.92 2.23.768.788 1.553 1.499 2.18 1.974.628.476 1.047.679 1.165.563.118-.115-.073-.54-.533-1.178-.46-.64-1.15-1.442-1.92-2.23-.768-.788-1.553-1.499-2.18-1.974-.628-.476-1.047-.679-1.165-.563z" fill="#969696" id="patch_34"/><path clip-path="url(#p884f503d8f)" d="M204.642 190.56c-.807.541-1.471 1.226-1.845 1.904-.373.678-.426 1.293-.146 1.71.28.417.868.601 1.637.513.77-.088 1.655-.442 2.463-.983.807-.542 1.47-1.227 1.844-1.905.374-.678.426-1.293.147-1.71-.28-.417-.869-.601-1.637-.513-.77.088-1.655.442-2.463.983z" fill="#969696" id="patch_35"/><path clip-path="url(#p884f503d8f)" d="M128.758 228.298c.249.096.55.032.834-.179.285-.21.531-.552.685-.947.154-.395.202-.813.135-1.161-.067-.348-.245-.598-.495-.695-.249-.097-.549-.033-.834.178-.285.211-.531.552-.685.947-.154.396-.202.813-.135 1.161.068.349.246.599.495.696z" fill="#969696" id="patch_36"/><path clip-path="url(#p884f503d8f)" d="M124.866 231.916c.368-.097.699-.276.92-.497.22-.22.311-.465.255-.68-.057-.215-.258-.382-.559-.465-.3-.084-.676-.076-1.044.022-.369.097-.7.276-.92.497-.22.22-.312.465-.255.68.057.215.258.383.558.466.3.083.677.075 1.045-.023z" fill="#969696" id="patch_37"/><path clip-path="url(#p884f503d8f)" d="M140.973 225.78c.18.041.373-.015.539-.155.165-.14.288-.353.342-.592a1.097 1.097 0 00-.054-.683c-.089-.197-.24-.331-.42-.372-.18-.04-.373.016-.538.156-.165.14-.289.353-.343.592-.054.24-.034.484.055.682.088.198.24.332.419.372z" fill="#969696" id="patch_38"/><path clip-path="url(#p884f503d8f)" d="M159.243 207.74c.185.142.472.135.798-.02.326-.156.664-.446.94-.806.275-.361.466-.763.53-1.118.064-.356-.004-.635-.189-.776-.185-.141-.472-.134-.798.021-.326.155-.664.445-.94.806-.275.36-.466.763-.53 1.118-.064.355.004.634.19.776z" fill="#969696" id="patch_39"/><path clip-path="url(#p884f503d8f)" d="M138.78 223.545a.45.45 0 00.395.045.735.735 0 00.374-.288.735.735 0 00.134-.453.45.45 0 00-.184-.353.45.45 0 00-.396-.045.735.735 0 00-.374.288.735.735 0 00-.134.453.45.45 0 00.185.353z" fill="#969696" id="patch_40"/><path clip-path="url(#p884f503d8f)" d="M139.661 226.392c.31-.323.496-.74.515-1.16.02-.421-.129-.81-.411-1.082a1.392 1.392 0 00-1.097-.367c-.42.037-.83.239-1.14.562-.31.323-.495.74-.514 1.161-.02.42.128.81.41 1.08.284.272.678.405 1.098.368.419-.036.829-.238 1.14-.562z" fill="#969696" id="patch_41"/><path clip-path="url(#p884f503d8f)" d="M128.137 235.612c.267-.26.382-.654.32-1.095-.062-.44-.296-.89-.65-1.252-.354-.362-.8-.606-1.238-.677-.44-.071-.836.035-1.102.296-.267.26-.381.655-.32 1.095.062.44.296.89.65 1.253.354.361.8.605 1.239.676.439.072.835-.035 1.101-.296z" fill="#969696" id="patch_42"/><path clip-path="url(#p884f503d8f)" d="M104.696 219.071c.846.063 1.666-.004 2.28-.186.615-.183.974-.466.998-.788.024-.32-.289-.654-.87-.926-.58-.272-1.382-.46-2.227-.523s-1.665.004-2.28.186c-.615.183-.974.466-.998.788-.024.32.29.654.87.926.58.272 1.382.46 2.227.523z" fill="#969696" id="patch_43"/><path clip-path="url(#p884f503d8f)" d="M106.67 232.31c.598-.188 1.14-.467 1.507-.777.368-.309.53-.623.451-.873-.078-.25-.39-.416-.869-.46-.478-.044-1.082.036-1.68.224-.597.187-1.14.466-1.506.776-.367.31-.53.623-.451.874.078.25.391.415.869.46.478.043 1.082-.037 1.68-.225z" fill="#969696" id="patch_44"/><path clip-path="url(#p884f503d8f)" d="M79.102 183.073c1.011.413 2.064.606 2.927.537.862-.069 1.464-.394 1.673-.905.208-.51.007-1.164-.56-1.818-.568-.653-1.455-1.252-2.466-1.665-1.01-.414-2.063-.607-2.926-.538-.862.069-1.464.394-1.673.905-.209.51-.007 1.165.56 1.818.568.653 1.454 1.252 2.465 1.666z" fill="#969696" id="patch_45"/><path clip-path="url(#p884f503d8f)" d="M141.352 215.897c.305-.013.585-.304.778-.81.194-.504.286-1.182.255-1.883-.03-.701-.181-1.368-.418-1.855-.237-.486-.541-.752-.846-.738-.304.013-.584.304-.778.81-.193.504-.285 1.182-.254 1.883.03.701.18 1.368.418 1.855.236.486.54.752.845.738z" fill="#969696" id="patch_46"/><path clip-path="url(#p884f503d8f)" d="M149.248 240.55c.195-.09.29-.38.263-.805-.027-.426-.173-.953-.407-1.466-.234-.513-.536-.969-.84-1.269-.303-.3-.584-.417-.78-.328-.195.09-.29.378-.263.804.027.426.174.953.407 1.466.234.513.536.97.84 1.269.303.3.584.417.78.328z" fill="#969696" id="patch_47"/><path clip-path="url(#p884f503d8f)" d="M178.283 243.992c.57.575 1.214 1.032 1.789 1.27.574.238 1.032.237 1.274-.003s.247-.698.015-1.275c-.233-.576-.684-1.223-1.255-1.8-.57-.575-1.213-1.032-1.788-1.27-.574-.237-1.033-.236-1.274.004-.242.24-.247.698-.015 1.274.233.577.684 1.224 1.254 1.8z" fill="#969696" id="patch_48"/><path clip-path="url(#p884f503d8f)" d="M176.695 232.36c-.347.262-.515.734-.464 1.313.05.58.315 1.217.734 1.774.42.557.96.987 1.502 1.195.543.209 1.043.179 1.39-.083.349-.262.516-.735.465-1.314-.05-.579-.314-1.217-.734-1.773-.42-.557-.96-.987-1.502-1.196-.542-.208-1.043-.178-1.39.084z" fill="#969696" id="patch_49"/><path clip-path="url(#p884f503d8f)" d="M179.718 233.434c-.346-.487-.83-.845-1.344-.996-.515-.151-1.02-.084-1.402.188-.382.272-.611.727-.637 1.263-.026.536.154 1.11.5 1.596s.83.844 1.344.996c.515.151 1.02.083 1.402-.189.382-.272.611-.726.637-1.262.026-.536-.154-1.11-.5-1.596z" fill="#969696" id="patch_50"/><path clip-path="url(#p884f503d8f)" d="M199.725 151.237c-.959.93-1.71 1.997-2.086 2.966-.376.968-.348 1.76.079 2.2.427.44 1.217.494 2.197.148s2.07-1.063 3.03-1.993c.958-.93 1.709-1.996 2.085-2.965.377-.969.348-1.76-.079-2.2-.426-.441-1.217-.494-2.197-.148s-2.07 1.063-3.029 1.992z" fill="#969696" id="patch_51"/><path clip-path="url(#p884f503d8f)" d="M139.794 218.13a.77.77 0 00-.19.624c.03.239.153.473.343.65.19.178.432.284.673.296a.77.77 0 00.61-.233.77.77 0 00.189-.625 1.08 1.08 0 00-.342-.65 1.08 1.08 0 00-.673-.296.77.77 0 00-.61.233z" fill="#969696" id="patch_52"/><path clip-path="url(#p884f503d8f)" d="M105.595 261.132c.495-.058.927-.486 1.2-1.19.273-.704.365-1.626.255-2.564-.109-.938-.41-1.815-.838-2.437-.428-.622-.946-.94-1.441-.882-.496.058-.927.486-1.2 1.19-.273.704-.365 1.626-.256 2.564.11.938.411 1.815.839 2.437.427.623.946.94 1.441.882z" fill="#969696" id="patch_53"/><path clip-path="url(#p884f503d8f)" d="M108.941 188.84c.794.293 1.632.363 2.332.195.7-.169 1.202-.562 1.398-1.093.196-.53.069-1.156-.353-1.738-.423-.583-1.106-1.075-1.9-1.367-.793-.293-1.631-.363-2.33-.194-.7.168-1.203.56-1.4 1.092-.195.53-.068 1.156.354 1.739.423.582 1.106 1.074 1.9 1.366z" fill="#969696" id="patch_54"/><path clip-path="url(#p884f503d8f)" d="M122.344 236.725c.473-.242.875-.577 1.117-.93.242-.354.304-.697.172-.954s-.446-.407-.874-.417c-.428-.01-.935.121-1.408.364-.474.243-.876.578-1.118.93-.241.354-.303.697-.172.954.132.257.447.407.875.417.428.01.934-.12 1.408-.364z" fill="#969696" id="patch_55"/><path clip-path="url(#p884f503d8f)" d="M137.691 108.254c.616.078 1.29-.496 1.872-1.597.582-1.1 1.026-2.636 1.233-4.27.207-1.635.16-3.234-.13-4.444-.289-1.211-.798-1.935-1.414-2.013-.616-.078-1.29.496-1.872 1.596-.582 1.1-1.026 2.637-1.233 4.272-.207 1.634-.16 3.232.13 4.443.289 1.211.798 1.935 1.414 2.013z" fill="#969696" id="patch_56"/><path clip-path="url(#p884f503d8f)" d="M97.36 241.396c-.375-.28-.882-.353-1.41-.2-.528.152-1.035.516-1.407 1.013-.373.496-.581 1.084-.58 1.634.001.55.212 1.016.586 1.297.375.28.882.353 1.41.2.528-.152 1.034-.516 1.407-1.013.372-.496.581-1.084.58-1.634-.001-.55-.212-1.016-.587-1.297z" fill="#969696" id="patch_57"/><path clip-path="url(#p884f503d8f)" d="M159.656 268.413c.153-.155-.015-.614-.466-1.274-.452-.66-1.15-1.467-1.942-2.245-.791-.778-1.61-1.462-2.279-1.902-.667-.44-1.128-.6-1.281-.445-.153.156.015.614.466 1.274.452.66 1.15 1.468 1.942 2.246.791.777 1.611 1.462 2.279 1.902.668.44 1.129.6 1.281.444z" fill="#969696" id="patch_58"/><path clip-path="url(#p884f503d8f)" d="M219.993 217.5c.602.206 1.24.222 1.775.046.534-.177.922-.531 1.077-.986.155-.454.065-.971-.25-1.438-.316-.466-.83-.844-1.432-1.049-.601-.205-1.24-.221-1.774-.045-.535.176-.923.53-1.078.985-.155.455-.065.972.25 1.438.316.467.831.844 1.432 1.05z" fill="#969696" id="patch_59"/><path clip-path="url(#p884f503d8f)" d="M115.532 245.892c.643-.181 1.221-.493 1.607-.867.385-.373.547-.778.449-1.125-.098-.347-.448-.608-.972-.725-.523-.117-1.18-.08-1.822.1-.643.182-1.221.494-1.607.868-.385.374-.547.778-.449 1.125.098.347.448.608.971.725.524.117 1.18.08 1.823-.1z" fill="#969696" id="patch_60"/><path clip-path="url(#p884f503d8f)" d="M94.757 178.136c-.345.519-.414 1.19-.19 1.869.223.678.72 1.305 1.38 1.745.661.44 1.432.656 2.144.6.711-.056 1.305-.38 1.65-.898.345-.519.414-1.191.19-1.87-.223-.677-.72-1.305-1.38-1.745-.661-.44-1.433-.655-2.144-.599-.711.056-1.305.379-1.65.898z" fill="#969696" id="patch_61"/><path clip-path="url(#p884f503d8f)" d="M210.316 153.037c-.64 1.568-1.05 3.154-1.141 4.41-.091 1.257.145 2.08.656 2.288.511.209 1.256-.214 2.07-1.175.813-.961 1.63-2.382 2.27-3.95.64-1.568 1.05-3.154 1.141-4.41.09-1.256-.145-2.08-.656-2.288-.511-.208-1.256.214-2.07 1.175-.813.962-1.63 2.382-2.27 3.95z" fill="#969696" id="patch_62"/><path clip-path="url(#p884f503d8f)" d="M197.69 146.818c.607 0 1.188-.418 1.617-1.162.429-.743.67-1.752.67-2.804 0-1.051-.24-2.06-.668-2.804-.429-.744-1.01-1.162-1.616-1.162-.606 0-1.187.417-1.616 1.161-.429.744-.67 1.752-.67 2.804 0 1.052.24 2.06.668 2.805.428.743 1.01 1.161 1.616 1.162z" fill="#969696" id="patch_63"/><path clip-path="url(#p884f503d8f)" d="M79.995 157.64c-.546.708-.607 1.744-.168 2.881.438 1.137 1.34 2.283 2.507 3.184 1.166.902 2.502 1.485 3.713 1.623 1.212.137 2.199-.183 2.745-.89.547-.707.607-1.743.169-2.88-.439-1.138-1.34-2.283-2.507-3.185-1.167-.901-2.503-1.485-3.714-1.622-1.211-.138-2.198.182-2.745.89z" fill="#969696" id="patch_64"/><path clip-path="url(#p884f503d8f)" d="M230.156 149.985c-.557-.29-1.406.037-2.36.909-.954.871-1.936 2.217-2.728 3.74-.793 1.522-1.332 3.097-1.499 4.379-.167 1.281.052 2.164.609 2.454.557.29 1.405-.037 2.36-.909.954-.871 1.935-2.217 2.728-3.74.793-1.522 1.332-3.097 1.499-4.379.166-1.282-.053-2.164-.61-2.454z" fill="#969696" id="patch_65"/><path clip-path="url(#p884f503d8f)" d="M87.716 166.517c-1-.674-2.112-1.095-3.09-1.169-.979-.074-1.744.205-2.128.774-.384.57-.355 1.384.08 2.263.436.88 1.242 1.753 2.242 2.427 1 .674 2.112 1.095 3.09 1.169.98.074 1.745-.204 2.129-.774.384-.57.355-1.384-.08-2.263-.436-.88-1.243-1.753-2.243-2.427z" fill="#969696" id="patch_66"/><path clip-path="url(#p884f503d8f)" d="M142.458 212.437c.217-.088.36-.33.4-.67.04-.341-.029-.754-.19-1.148-.16-.394-.4-.736-.666-.952-.267-.216-.538-.288-.755-.2-.216.088-.36.33-.4.67-.039.34.03.754.19 1.148.16.393.4.736.667.952.266.216.538.288.754.2z" fill="#969696" id="patch_67"/><path clip-path="url(#p884f503d8f)" d="M207.84 170.67c.332.315.887.369 1.542.15.655-.22 1.357-.695 1.952-1.321.594-.626 1.032-1.352 1.218-2.017.185-.666.103-1.218-.23-1.533-.332-.316-.887-.37-1.542-.15s-1.358.694-1.952 1.32c-.595.626-1.033 1.352-1.218 2.017-.185.666-.103 1.217.23 1.533z" fill="#969696" id="patch_68"/><path clip-path="url(#p884f503d8f)" d="M144.478 216.209c.135.017.275-.047.388-.176a.98.98 0 00.217-.516.98.98 0 00-.082-.553c-.078-.154-.197-.25-.332-.267-.135-.017-.275.046-.388.176a.98.98 0 00-.216.516c-.026.2.004.4.081.553.078.154.197.25.332.267z" fill="#969696" id="patch_69"/><path clip-path="url(#p884f503d8f)" d="M140.737 163.041c.369.057.778-.247 1.138-.846.36-.599.64-1.443.78-2.347.14-.904.127-1.793-.036-2.473-.162-.68-.46-1.093-.83-1.15-.369-.057-.778.248-1.138.846-.36.6-.64 1.443-.78 2.347-.14.904-.126 1.794.036 2.473.162.68.46 1.093.83 1.15z" fill="#969696" id="patch_70"/><path clip-path="url(#p884f503d8f)" d="M185.723 170.977c.695-.756 1.23-1.602 1.488-2.351.257-.75.216-1.342-.115-1.646-.33-.305-.925-.297-1.65.022-.726.32-1.524.924-2.219 1.68-.695.755-1.23 1.6-1.487 2.35-.258.75-.216 1.342.115 1.647.33.304.924.296 1.65-.023.725-.32 1.523-.923 2.218-1.68z" fill="#969696" id="patch_71"/><path clip-path="url(#p884f503d8f)" d="M160.598 237.248c.27-.145.373-.572.289-1.186-.085-.615-.352-1.367-.742-2.091-.39-.724-.87-1.361-1.336-1.77-.467-.41-.88-.559-1.15-.414-.27.146-.373.572-.288 1.187.085.615.351 1.367.741 2.09.39.725.87 1.362 1.337 1.771.466.41.88.558 1.15.413z" fill="#969696" id="patch_72"/><path clip-path="url(#p884f503d8f)" d="M137.881 248.654c.377-.109.673-.44.823-.92.15-.482.142-1.073-.023-1.644-.165-.572-.473-1.077-.856-1.404-.383-.327-.81-.45-1.187-.34-.377.108-.673.44-.823.92-.15.481-.142 1.073.023 1.644.165.571.473 1.076.856 1.403.383.327.81.45 1.187.341z" fill="#969696" id="patch_73"/><path clip-path="url(#p884f503d8f)" d="M120.418 218.238c.568.111 1.148.038 1.613-.205.464-.242.775-.633.864-1.086.089-.454-.052-.933-.39-1.332-.34-.4-.85-.686-1.418-.797-.568-.112-1.148-.038-1.613.204-.464.242-.775.633-.864 1.087-.088.453.052.932.391 1.332.34.399.849.686 1.417.797z" fill="#969696" id="patch_74"/><path clip-path="url(#p884f503d8f)" d="M144.12 216.505c.206-.052.37-.228.458-.49.088-.262.093-.588.012-.906a1.648 1.648 0 00-.441-.793c-.202-.188-.43-.265-.636-.213-.205.052-.37.228-.457.49a1.648 1.648 0 00-.012.907c.08.318.24.603.441.792.202.188.431.265.636.213z" fill="#969696" id="patch_75"/><path clip-path="url(#p884f503d8f)" d="M144.622 216.244c.19.01.38-.11.527-.336.147-.226.24-.538.259-.868.018-.33-.04-.65-.16-.891-.122-.241-.297-.382-.487-.393-.19-.01-.38.11-.527.336-.148.226-.24.538-.26.868-.018.33.04.65.161.891.122.24.297.382.487.393z" fill="#969696" id="patch_76"/><path clip-path="url(#p884f503d8f)" d="M196.775 184.459c.288.316.853.356 1.57.111.717-.244 1.527-.753 2.253-1.415.726-.662 1.307-1.423 1.616-2.114.31-.692.321-1.258.033-1.574-.288-.316-.853-.356-1.57-.111-.717.244-1.527.754-2.253 1.416-.726.661-1.307 1.422-1.616 2.113-.31.692-.321 1.258-.033 1.574z" fill="#969696" id="patch_77"/><path clip-path="url(#p884f503d8f)" d="M136.353 160.338c.591.058 1.2-.32 1.695-1.053.493-.732.831-1.758.938-2.851.107-1.094-.025-2.166-.368-2.98-.342-.814-.867-1.304-1.459-1.362-.591-.057-1.2.322-1.695 1.054-.493.732-.831 1.758-.938 2.851-.107 1.094.025 2.165.368 2.98.342.813.867 1.303 1.459 1.361z" fill="#969696" id="patch_78"/><path clip-path="url(#p884f503d8f)" d="M103.072 216.876c.865.038 1.702-.1 2.327-.382.625-.283.987-.688 1.006-1.126.02-.438-.305-.873-.902-1.21-.598-.337-1.42-.548-2.284-.587-.864-.038-1.701.099-2.326.382-.625.282-.987.687-1.007 1.126-.019.438.306.873.903 1.21.598.337 1.419.548 2.283.587z" fill="#969696" id="patch_79"/><path clip-path="url(#p884f503d8f)" d="M148.938 251.37c-.243.138-.226.71.046 1.59.272.88.778 1.997 1.406 3.103.628 1.107 1.327 2.114 1.943 2.799.616.685 1.099.992 1.342.854.243-.138.227-.71-.046-1.59-.272-.88-.778-1.996-1.406-3.103-.628-1.107-1.327-2.114-1.943-2.799-.616-.685-1.099-.992-1.342-.854z" fill="#969696" id="patch_80"/><path clip-path="url(#p884f503d8f)" d="M190.461 184.453c-.644.471-1.146 1.08-1.397 1.693-.25.614-.228 1.18.061 1.577.29.396.824.59 1.484.536.66-.053 1.393-.347 2.037-.818.644-.47 1.147-1.08 1.397-1.693.251-.614.229-1.18-.06-1.577-.29-.396-.824-.589-1.485-.536-.66.053-1.393.347-2.037.818z" fill="#969696" id="patch_81"/><path clip-path="url(#p884f503d8f)" d="M103.636 216.274c.898.177 1.792.182 2.484.013.693-.169 1.128-.497 1.21-.912.082-.416-.196-.885-.773-1.304-.576-.42-1.405-.754-2.303-.931-.898-.177-1.791-.182-2.484-.013-.693.168-1.128.497-1.21.912-.082.416.196.885.773 1.304.577.42 1.405.754 2.303.931z" fill="#969696" id="patch_82"/><path clip-path="url(#p884f503d8f)" d="M145.246 253.622c-.715-.893-1.46-1.702-2.073-2.248-.612-.547-1.04-.786-1.19-.666-.15.12-.009.59.391 1.306.4.716 1.027 1.62 1.743 2.513.715.893 1.461 1.702 2.073 2.249.612.546 1.04.786 1.19.666.15-.12.009-.59-.391-1.307-.4-.716-1.027-1.62-1.743-2.513z" fill="#969696" id="patch_83"/><path clip-path="url(#p884f503d8f)" d="M161.591 232.916c.3-.203.424-.639.345-1.211-.078-.573-.353-1.236-.764-1.843-.411-.607-.924-1.109-1.427-1.395-.502-.286-.953-.332-1.253-.13-.3.203-.424.64-.345 1.212.079.573.354 1.236.765 1.843.41.607.924 1.108 1.426 1.394.503.286.954.333 1.253.13z" fill="#969696" id="patch_84"/><path clip-path="url(#p884f503d8f)" d="M153.466 125.478c.635-.075 1.163-.831 1.467-2.1.305-1.27.36-2.95.156-4.67-.205-1.72-.654-3.34-1.248-4.503-.594-1.162-1.285-1.773-1.92-1.697-.635.075-1.163.831-1.468 2.1-.304 1.27-.36 2.95-.155 4.67.205 1.72.654 3.34 1.248 4.503.594 1.162 1.284 1.773 1.92 1.697z" fill="#969696" id="patch_85"/><path clip-path="url(#p884f503d8f)" d="M152.285 206.74c.315.006.62-.171.849-.493.229-.322.363-.762.372-1.224.009-.461-.107-.906-.323-1.237-.216-.33-.514-.52-.829-.526-.314-.006-.62.171-.849.493-.229.322-.362.762-.371 1.223-.01.462.107.907.323 1.237.216.331.514.52.828.527z" fill="#969696" id="patch_86"/><path clip-path="url(#p884f503d8f)" d="M129.89 225.727c.17.137.404.18.648.122.244-.058.479-.214.652-.432.174-.218.272-.482.274-.733a.748.748 0 00-.265-.604.748.748 0 00-.649-.122 1.214 1.214 0 00-.652.432 1.214 1.214 0 00-.274.733.748.748 0 00.266.604z" fill="#969696" id="patch_87"/><path clip-path="url(#p884f503d8f)" d="M214.186 167.756c-.718.557-1.296 1.233-1.607 1.881-.311.648-.33 1.214-.05 1.573.278.36.83.483 1.535.344.705-.14 1.505-.531 2.223-1.088s1.297-1.233 1.607-1.881c.311-.648.33-1.214.05-1.573-.278-.36-.83-.483-1.535-.344-.705.14-1.505.531-2.223 1.088z" fill="#969696" id="patch_88"/><path clip-path="url(#p884f503d8f)" d="M128.482 237.667c.317.1.67.046.98-.152.31-.198.552-.523.673-.904s.111-.786-.027-1.127c-.139-.34-.395-.589-.712-.69-.317-.1-.669-.046-.979.152-.31.198-.552.523-.673.904-.121.38-.111.786.027 1.127.138.34.394.589.711.69z" fill="#969696" id="patch_89"/><path clip-path="url(#p884f503d8f)" d="M161.86 214.868c.43.083.888-.089 1.277-.477.389-.388.676-.961.797-1.593.122-.631.068-1.27-.148-1.775-.217-.504-.58-.834-1.008-.917-.429-.082-.888.09-1.277.478-.388.388-.675.96-.797 1.592-.121.632-.068 1.27.149 1.775.217.505.58.835 1.008.917z" fill="#969696" id="patch_90"/><path clip-path="url(#p884f503d8f)" d="M96.014 203.121c.931.362 1.912.483 2.726.338.814-.145 1.395-.545 1.615-1.112.22-.566.061-1.254-.442-1.91-.503-.656-1.31-1.228-2.24-1.59-.932-.36-1.913-.482-2.727-.337-.814.145-1.395.545-1.615 1.112-.22.566-.06 1.254.443 1.91.503.656 1.309 1.228 2.24 1.59z" fill="#969696" id="patch_91"/><path clip-path="url(#p884f503d8f)" d="M93.734 207.327c1.056.337 2.113.52 2.94.508.826-.013 1.354-.22 1.468-.575.114-.355-.196-.83-.862-1.32-.665-.49-1.632-.956-2.687-1.294-1.056-.338-2.113-.52-2.94-.508-.826.013-1.354.22-1.468.575-.114.355.196.83.862 1.32.665.49 1.632.956 2.687 1.294z" fill="#969696" id="patch_92"/><path clip-path="url(#p884f503d8f)" d="M140.626 245.336c.158-.121.155-.44-.009-.885s-.475-.981-.865-1.49-.826-.949-1.214-1.223c-.387-.274-.694-.36-.852-.24-.158.122-.154.44.01.886.163.445.475.981.864 1.49.39.509.827.949 1.214 1.223.388.274.694.36.852.24z" fill="#969696" id="patch_93"/><path clip-path="url(#p884f503d8f)" d="M96.947 230.736c.612-.22 1.134-.613 1.45-1.09.317-.478.403-1.002.239-1.457-.164-.455-.565-.803-1.113-.969-.549-.166-1.2-.135-1.813.086-.611.22-1.133.613-1.45 1.09-.316.478-.402 1.002-.238 1.457.164.455.564.804 1.113.97.549.165 1.2.134 1.812-.087z" fill="#969696" id="patch_94"/><path clip-path="url(#p884f503d8f)" d="M174.627 216.214c.748-.041 1.454-.286 1.962-.68.508-.395.778-.906.75-1.422-.03-.515-.354-.994-.903-1.33-.549-.334-1.277-.5-2.025-.458-.748.042-1.453.286-1.962.68-.508.395-.778.906-.75 1.422.03.516.354.994.903 1.33.549.335 1.278.5 2.025.458z" fill="#969696" id="patch_95"/><path clip-path="url(#p884f503d8f)" d="M180.387 175.365c-.377-.255-.968-.162-1.64.258-.673.42-1.374 1.133-1.949 1.982-.574.85-.975 1.766-1.114 2.547-.14.78-.005 1.363.372 1.618.378.255.968.163 1.64-.257.674-.42 1.374-1.134 1.949-1.983.574-.85.975-1.765 1.114-2.546.14-.781.005-1.364-.372-1.619z" fill="#969696" id="patch_96"/><path clip-path="url(#p884f503d8f)" d="M121.02 194.656c.572.63 1.24 1.123 1.86 1.373.619.25 1.137.234 1.442-.042.304-.276.369-.791.18-1.432-.189-.64-.616-1.353-1.187-1.982-.571-.63-1.24-1.123-1.859-1.373-.62-.25-1.138-.234-1.442.042-.304.276-.37.791-.18 1.431.188.64.615 1.354 1.186 1.983z" fill="#969696" id="patch_97"/><path clip-path="url(#p884f503d8f)" d="M133.79 213.758c.291.261.667.405 1.043.4.377-.006.725-.16.967-.43s.358-.631.323-1.007a1.537 1.537 0 00-.508-.994 1.537 1.537 0 00-1.043-.4c-.377.006-.725.16-.966.43-.242.269-.359.631-.324 1.006.035.376.218.733.508.995z" fill="#969696" id="patch_98"/><path clip-path="url(#p884f503d8f)" d="M144.158 215.598c.116.061.264.052.41-.026a.94.94 0 00.372-.39.94.94 0 00.114-.526c-.018-.165-.093-.292-.209-.354-.116-.061-.264-.052-.41.026a.94.94 0 00-.371.39.94.94 0 00-.115.526c.018.165.093.292.21.354z" fill="#969696" id="patch_99"/><path clip-path="url(#p884f503d8f)" d="M144.369 191.125c.262-.006.508-.244.684-.661.176-.418.268-.98.255-1.565-.013-.585-.13-1.143-.324-1.552-.195-.41-.451-.636-.713-.63-.262.005-.509.243-.685.66-.176.418-.267.981-.254 1.566.013.584.13 1.143.324 1.552.194.41.45.636.713.63z" fill="#969696" id="patch_100"/><path clip-path="url(#p884f503d8f)" d="M116.817 216.286c.599.104 1.197.063 1.663-.113.467-.176.763-.473.825-.826.061-.353-.117-.733-.497-1.057-.38-.323-.929-.563-1.527-.667-.598-.104-1.196-.064-1.663.112-.466.176-.763.473-.824.826-.062.354.117.734.497 1.057.379.323.928.563 1.526.668z" fill="#969696" id="patch_101"/><path clip-path="url(#p884f503d8f)" d="M131.737 215.699c.316-.01.616-.124.834-.318a.926.926 0 00.328-.717.926.926 0 00-.37-.696 1.318 1.318 0 00-.851-.268c-.316.01-.616.124-.834.318a.926.926 0 00-.328.717.926.926 0 00.37.696c.229.18.535.277.85.268z" fill="#969696" id="patch_102"/><path clip-path="url(#p884f503d8f)" d="M202.533 218.063c1.176-.286 2.254-.765 2.997-1.331.742-.567 1.09-1.174.964-1.689-.125-.514-.713-.894-1.633-1.055-.92-.161-2.097-.091-3.273.195-1.176.287-2.254.766-2.996 1.332-.743.566-1.09 1.174-.965 1.688.126.515.713.894 1.633 1.056.92.161 2.098.09 3.273-.196z" fill="#969696" id="patch_103"/><path clip-path="url(#p884f503d8f)" d="M174.317 216.316c.56.22 1.153.29 1.649.192.495-.097.853-.353.993-.71.14-.358.053-.788-.244-1.197-.297-.408-.778-.762-1.339-.982-.56-.22-1.153-.29-1.649-.192-.495.097-.853.353-.993.71-.14.358-.053.788.244 1.197.297.408.778.762 1.339.982z" fill="#969696" id="patch_104"/><path clip-path="url(#p884f503d8f)" d="M143.927 215.303c.235.054.488-.012.702-.184a1.31 1.31 0 00.44-.729 1.31 1.31 0 00-.078-.849c-.119-.247-.317-.416-.552-.47-.236-.054-.488.012-.702.183a1.31 1.31 0 00-.44.73 1.31 1.31 0 00.078.848c.118.248.317.417.552.47z" fill="#969696" id="patch_105"/><path clip-path="url(#p884f503d8f)" d="M129.541 215.935c.348.17.72.254 1.036.234.314-.02.546-.144.644-.343.097-.2.052-.458-.125-.719-.177-.261-.472-.504-.82-.674-.347-.17-.72-.254-1.035-.234-.314.02-.546.144-.644.343-.097.2-.052.458.125.719.177.261.472.504.82.674z" fill="#969696" id="patch_106"/><path clip-path="url(#p884f503d8f)" d="M177.295 218.085c.46-.106.873-.336 1.146-.64.273-.303.385-.656.311-.98-.074-.325-.328-.594-.706-.748-.379-.155-.85-.183-1.31-.078-.461.106-.873.336-1.147.64-.273.303-.385.656-.31.98.074.325.328.594.706.749.378.154.85.182 1.31.077z" fill="#969696" id="patch_107"/><path clip-path="url(#p884f503d8f)" d="M180.83 251.575c-1-.664-2.019-1.212-2.831-1.522-.813-.31-1.354-.358-1.504-.132-.15.225.103.706.704 1.335.6.63 1.5 1.356 2.5 2.02 1 .665 2.018 1.212 2.83 1.523.813.31 1.354.357 1.504.132.15-.226-.103-.706-.704-1.336-.6-.629-1.5-1.356-2.5-2.02z" fill="#969696" id="patch_108"/><path clip-path="url(#p884f503d8f)" d="M197.046 216.692c.85-.133 1.64-.436 2.192-.842.553-.405.825-.88.756-1.32-.07-.44-.473-.81-1.124-1.026-.65-.217-1.493-.264-2.344-.13-.85.133-1.64.435-2.192.84-.553.406-.825.881-.756 1.321.07.44.473.81 1.123 1.026.65.217 1.494.264 2.345.13z" fill="#969696" id="patch_109"/><path clip-path="url(#p884f503d8f)" d="M176.547 214.781c.77.054 1.519-.038 2.081-.256s.893-.544.918-.906c.025-.362-.257-.73-.783-1.025-.527-.294-1.255-.49-2.025-.543-.77-.054-1.519.039-2.081.257-.563.217-.893.543-.918.905-.025.362.256.731.783 1.025.526.294 1.255.49 2.025.543z" fill="#969696" id="patch_110"/><path clip-path="url(#p884f503d8f)" d="M202.33 155.695c.347.293 1.066.118 2-.488.933-.606 2.005-1.593 2.979-2.743.974-1.15 1.77-2.37 2.214-3.39.444-1.02.499-1.758.152-2.052-.346-.293-1.065-.117-1.998.489-.934.605-2.006 1.592-2.98 2.742-.974 1.15-1.77 2.37-2.214 3.39-.444 1.02-.499 1.759-.153 2.052z" fill="#969696" id="patch_111"/><path clip-path="url(#p884f503d8f)" d="M216.034 200.117c1.09-.352 2.07-.894 2.722-1.507.653-.613.926-1.247.76-1.762-.167-.516-.76-.87-1.647-.986-.888-.115-2 .018-3.09.37-1.09.352-2.068.894-2.721 1.507-.653.613-.926 1.247-.76 1.762.166.516.759.87 1.647.985.888.116 2-.017 3.09-.369z" fill="#969696" id="patch_112"/><path clip-path="url(#p884f503d8f)" d="M89.564 215.959c1.087-.001 2.13-.174 2.9-.479.768-.305 1.2-.718 1.2-1.149 0-.43-.433-.843-1.203-1.147-.77-.303-1.813-.473-2.9-.472-1.088.001-2.131.173-2.9.478-.77.305-1.2.719-1.2 1.15 0 .43.433.842 1.202 1.146.77.304 1.813.474 2.9.473z" fill="#969696" id="patch_113"/><path clip-path="url(#p884f503d8f)" d="M128.475 274.594c.435-.124.695-.795.723-1.866.028-1.07-.179-2.454-.574-3.845-.395-1.39-.948-2.675-1.535-3.571-.587-.896-1.161-1.33-1.596-1.206-.435.123-.695.794-.723 1.865-.028 1.071.179 2.454.574 3.845.396 1.39.948 2.676 1.535 3.572.587.896 1.161 1.33 1.596 1.206z" fill="#969696" id="patch_114"/><path clip-path="url(#p884f503d8f)" d="M82.989 159.097c1.53 1.452 3.208 2.621 4.666 3.251 1.458.63 2.576.669 3.108.108.531-.56.434-1.675-.272-3.097-.706-1.423-1.962-3.038-3.491-4.49-1.53-1.45-3.209-2.62-4.667-3.25-1.457-.63-2.575-.669-3.107-.108-.532.56-.434 1.675.271 3.098.706 1.422 1.962 3.037 3.492 4.488z" fill="#969696" id="patch_115"/><path clip-path="url(#p884f503d8f)" d="M207.676 241.526c.867.289 1.755.398 2.468.303.713-.095 1.193-.386 1.334-.809.14-.423-.069-.944-.582-1.447-.514-.504-1.29-.95-2.157-1.238-.868-.29-1.756-.398-2.469-.303-.713.095-1.193.386-1.334.809-.14.423.069.944.582 1.447.514.504 1.29.95 2.158 1.238z" fill="#969696" id="patch_116"/><path clip-path="url(#p884f503d8f)" d="M132.615 116.833c.67.107 1.459-.706 2.19-2.258.732-1.552 1.347-3.717 1.71-6.017.365-2.301.447-4.55.23-6.252s-.716-2.718-1.387-2.824c-.67-.106-1.459.706-2.19 2.258-.732 1.552-1.347 3.717-1.711 6.018-.364 2.3-.446 4.55-.229 6.252s.716 2.717 1.387 2.823z" fill="#969696" id="patch_117"/><path clip-path="url(#p884f503d8f)" d="M87.525 226.515c.976.077 1.927-.04 2.644-.324.717-.285 1.14-.714 1.179-1.193.037-.48-.314-.97-.978-1.363-.663-.393-1.585-.657-2.56-.734-.977-.077-1.928.04-2.645.325-.717.284-1.14.713-1.179 1.193-.037.479.314.97.978 1.362.663.394 1.585.658 2.56.734z" fill="#969696" id="patch_118"/><path clip-path="url(#p884f503d8f)" d="M188.14 233.041c.339-.297.409-.873.195-1.6-.215-.728-.696-1.548-1.338-2.28-.642-.73-1.392-1.313-2.086-1.62-.694-.307-1.274-.312-1.613-.014-.339.298-.409.874-.195 1.601.215.728.696 1.547 1.338 2.278.642.732 1.392 1.315 2.086 1.621.694.307 1.274.312 1.613.014z" fill="#969696" id="patch_119"/><path clip-path="url(#p884f503d8f)" d="M111.748 253.762c.689-.117 1.315-.432 1.74-.876.427-.444.617-.982.531-1.494-.086-.512-.443-.957-.991-1.237-.548-.28-1.243-.372-1.932-.256-.689.116-1.315.431-1.741.876-.426.444-.617.981-.53 1.494.086.512.443.957.99 1.237.549.28 1.244.372 1.933.256z" fill="#969696" id="patch_120"/><path clip-path="url(#p884f503d8f)" d="M138.28 136.447c.939-.056 1.8-.768 2.394-1.98.593-1.21.872-2.822.773-4.48-.099-1.657-.566-3.224-1.3-4.356-.733-1.133-1.672-1.737-2.61-1.682-.94.056-1.8.768-2.394 1.98-.594 1.21-.872 2.823-.774 4.48.1 1.657.567 3.224 1.3 4.357.733 1.132 1.673 1.737 2.611 1.681z" fill="#969696" id="patch_121"/><path clip-path="url(#p884f503d8f)" d="M146.937 270.15c.342-.249.454-.787.31-1.495-.145-.709-.534-1.53-1.08-2.283-.548-.754-1.209-1.378-1.837-1.735-.63-.356-1.175-.417-1.518-.169-.342.25-.454.787-.309 1.495.145.709.533 1.53 1.08 2.284.547.753 1.208 1.377 1.837 1.734.628.357 1.174.418 1.517.169z" fill="#969696" id="patch_122"/><path clip-path="url(#p884f503d8f)" d="M227.592 219.964c-.301-.41-.824-.631-1.451-.616-.628.015-1.31.266-1.895.698-.585.431-1.027 1.008-1.227 1.603-.2.595-.144 1.159.158 1.569.302.41.824.63 1.452.616.627-.016 1.309-.267 1.894-.698.586-.432 1.027-1.008 1.228-1.603.2-.595.143-1.16-.159-1.569z" fill="#969696" id="patch_123"/><path clip-path="url(#p884f503d8f)" d="M127.252 131.648c.78-.211 1.365-1.012 1.628-2.227.263-1.214.181-2.743-.227-4.25-.407-1.507-1.108-2.868-1.948-3.785-.84-.916-1.749-1.312-2.529-1.101-.779.21-1.365 1.012-1.627 2.226-.263 1.215-.182 2.744.226 4.25.408 1.508 1.109 2.869 1.948 3.785.84.916 1.75 1.313 2.529 1.102z" fill="#969696" id="patch_124"/><path clip-path="url(#p884f503d8f)" d="M102.713 198.98c1.11.376 2.23.574 3.115.548.885-.026 1.46-.273 1.601-.687.14-.414-.166-.96-.852-1.52-.686-.558-1.695-1.084-2.806-1.461-1.11-.377-2.231-.574-3.116-.548-.884.026-1.46.273-1.6.687-.14.413.166.96.852 1.519.686.559 1.695 1.085 2.806 1.462z" fill="#969696" id="patch_125"/><path clip-path="url(#p884f503d8f)" d="M168.306 209.17c.687-.135 1.317-.408 1.753-.76.435-.351.64-.753.57-1.116-.072-.363-.413-.659-.949-.82-.535-.163-1.222-.178-1.91-.044-.686.134-1.317.407-1.752.759-.436.352-.64.753-.57 1.117.071.363.412.658.948.82.536.162 1.223.178 1.91.043z" fill="#969696" id="patch_126"/><path clip-path="url(#p884f503d8f)" d="M174.537 216.369c.827.077 1.639-.046 2.256-.341.617-.296.99-.74 1.035-1.234.046-.494-.239-.999-.79-1.402-.553-.404-1.328-.674-2.155-.75-.827-.077-1.638.045-2.255.34-.617.296-.99.74-1.036 1.234-.045.494.24.999.791 1.403.553.403 1.328.673 2.154.75z" fill="#969696" id="patch_127"/><path clip-path="url(#p884f503d8f)" d="M136.159 237.536c.37-.09.677-.379.852-.802.175-.423.204-.947.08-1.455-.123-.509-.389-.96-.738-1.257-.35-.295-.755-.411-1.126-.32-.37.09-.677.378-.852.8-.175.424-.204.948-.08 1.456.123.509.388.96.738 1.256.35.296.755.412 1.126.322z" fill="#969696" id="patch_128"/><path clip-path="url(#p884f503d8f)" d="M236.816 215.608c.763-.352 1.417-.86 1.816-1.412.4-.552.514-1.104.316-1.533-.198-.43-.691-.701-1.37-.756-.68-.054-1.491.113-2.255.465-.763.352-1.416.86-1.816 1.412-.4.553-.514 1.104-.316 1.534.198.429.691.7 1.371.755.68.055 1.49-.113 2.254-.465z" fill="#969696" id="patch_129"/><path clip-path="url(#p884f503d8f)" d="M191.752 212.047c.63-.283 1.172-.69 1.508-1.132.336-.442.439-.883.285-1.226-.154-.342-.551-.559-1.105-.602-.554-.042-1.219.092-1.848.375-.63.282-1.172.69-1.508 1.131-.336.442-.439.883-.285 1.226.154.343.552.56 1.105.602.554.043 1.219-.092 1.848-.374z" fill="#969696" id="patch_130"/><path clip-path="url(#p884f503d8f)" d="M129.43 238.439c.369-.226.652-.559.787-.926.134-.367.11-.74-.07-1.033-.18-.295-.498-.487-.887-.536a1.866 1.866 0 00-1.183.276c-.37.225-.653.558-.788.926-.134.367-.109.739.07 1.033.18.294.499.487.887.535.388.05.814-.05 1.183-.275z" fill="#969696" id="patch_131"/><path clip-path="url(#p884f503d8f)" d="M103.565 206.878c.69.267 1.42.349 2.026.228.607-.12 1.043-.433 1.211-.869.169-.436.056-.96-.313-1.457-.37-.497-.964-.926-1.654-1.192-.69-.267-1.42-.349-2.027-.228-.607.12-1.042.433-1.21.869-.17.436-.056.96.313 1.457.369.497.964.926 1.654 1.192z" fill="#969696" id="patch_132"/><path clip-path="url(#p884f503d8f)" d="M143.077 247.579c.197-.106.288-.386.256-.779-.033-.393-.188-.866-.43-1.316-.243-.45-.553-.838-.863-1.081-.31-.244-.595-.32-.791-.215-.197.106-.288.386-.256.779.033.393.188.866.43 1.315.243.45.553.84.863 1.082.31.243.595.32.791.215z" fill="#969696" id="patch_133"/><path clip-path="url(#p884f503d8f)" d="M99.915 161.44c-.67-1.317-1.584-2.443-2.542-3.128-.959-.685-1.883-.874-2.57-.526-.687.349-1.08 1.207-1.093 2.385-.012 1.178.356 2.58 1.025 3.899.67 1.317 1.584 2.443 2.542 3.128.959.685 1.883.875 2.57.526.687-.349 1.08-1.207 1.093-2.385.012-1.178-.357-2.58-1.025-3.898z" fill="#969696" id="patch_134"/><g id="matplotlib.axis_1"><g id="xtick_1"><g id="line2d_1"><defs><path d="M0 0v3.5" id="mfa70960deb" stroke="#969696" stroke-width=".4"/></defs><use x="80.08" xlink:href="#mfa70960deb" y="313.628" fill="#969696" stroke="#969696" stroke-width=".4"/></g><g transform="matrix(.14 0 0 -.14 68.193 330.678)" fill="#969696" id="text_1"><defs><path d="M54.594 21.578H4v7.328h50.594z" id="HelveticaWorld-Regular-8722"/><path d="M14.703 40.922q5.813 4.39 13.625 4.39 9.469 0 16.281-6.296 6.813-6.297 6.813-16.22 0-10.78-6.578-17.796-6.563-7-18.422-7-10.313 0-16.266 5.047Q4.203 8.109 3.22 17.39h9.094q.671-5.672 4.437-8.672 3.766-3 10.453-3 6.485 0 10.64 4.484Q42 14.703 42 21.688q0 7.125-4.36 11.421-4.343 4.297-11.218 4.297-7.813 0-13.047-6.687l-7.563.39 5.266 37.594h36.438v-8.5H17.672z" id="HelveticaWorld-Regular-53"/><path d="M42.484 34.188q0 14.109-3.734 21.156-3.734 7.062-10.969 7.062-7.078 0-10.89-7.062-3.797-7.047-3.797-21.157 0-13.671 3.75-20.937Q20.609 6 27.78 6q7.235 0 10.969 7 3.734 7.016 3.734 21.188zm9.422 0q0-17.297-6.25-26.704-6.25-9.39-17.875-9.39-12.062 0-18.062 9.734-6 9.75-6 26.36 0 17.03 6.14 26.578 6.157 9.547 17.922 9.547 11.625 0 17.875-9.5t6.25-26.626z" id="HelveticaWorld-Regular-48"/></defs><use xlink:href="#HelveticaWorld-Regular-8722"/><use x="58.594" xlink:href="#HelveticaWorld-Regular-53"/><use x="114.209" xlink:href="#HelveticaWorld-Regular-48"/></g></g><g id="xtick_2"><use x="144.413" xlink:href="#mfa70960deb" y="313.628" fill="#969696" stroke="#969696" stroke-width=".4" id="line2d_2"/><use xlink:href="#HelveticaWorld-Regular-48" transform="matrix(.14 0 0 -.14 140.52 330.678)" fill="#969696" id="text_2"/></g><g id="xtick_3"><use x="208.745" xlink:href="#mfa70960deb" y="313.628" fill="#969696" stroke="#969696" stroke-width=".4" id="line2d_3"/><g transform="matrix(.14 0 0 -.14 200.96 330.678)" fill="#969696" id="text_3"><use xlink:href="#HelveticaWorld-Regular-53"/><use x="55.615" xlink:href="#HelveticaWorld-Regular-48"/></g></g><g transform="matrix(.14 0 0 -.14 151.41 347.625)" fill="#969696" id="text_4"><defs><path d="M38.375 26.703q-.969-1.015-3.828-1.656-2.86-.625-10.672-1.656-5.766-.688-8.469-2.844-2.703-2.14-2.703-5.656 0-4.297 2.281-6.688 2.297-2.39 7.329-2.39 6.296 0 11.171 3.578 4.891 3.593 4.891 8.718zM6.203 36.375q.297 8.844 5.734 13.14 5.454 4.297 15.844 4.297 8.297 0 13.907-3.765 5.624-3.75 5.624-10.844V9.078Q47.313 6 50.094 6q1.125 0 2.89.39V0Q50.594-.984 48-.984q-4.5 0-6.703 1.921-2.188 1.938-2.281 6.047-7.516-8.5-18.891-8.5-7.422 0-11.922 4.204Q3.72 6.89 3.72 13.624q0 6.89 3.906 11.125Q11.531 29 19 29.89l15.516 1.891q4.203.64 4.203 6.203 0 4.11-3.047 6.297-3.047 2.203-9.25 2.203-5.516 0-8.485-2.437-2.953-2.438-3.53-7.672z" id="HelveticaWorld-Regular-97"/><path d="M5.906 64.594l10.5-3.797V71.78h6V60.797l10.5 3.797 2-5.516-10.781-3.36 6.688-9.234-4.938-3.375-6.484 9.375-6.5-9.375-4.875 3.375 6.687 9.235-10.797 3.36z" id="HelveticaWorld-Regular-42"/></defs><use xlink:href="#HelveticaWorld-Regular-97"/><use x="54.932" xlink:href="#HelveticaWorld-Regular-42"/></g></g><g id="matplotlib.axis_2"><g id="ytick_1"><g id="line2d_4"><defs><path d="M0 0h-3.5" id="me217d17d3f" stroke="#969696" stroke-width=".3"/></defs><use x="48.653" xlink:href="#me217d17d3f" y="312.75" fill="#969696" stroke="#969696" stroke-width=".3"/></g><g transform="matrix(.14 0 0 -.14 17.88 317.775)" fill="#969696" id="text_5"><defs><path d="M3.719 68.797h48.578v-7.719Q42.28 50.875 33.984 33.484 25.687 16.11 23.391 0h-9.672q1.469 13.281 9.719 30.531 8.25 17.266 18.953 29.672H3.719z" id="HelveticaWorld-Regular-55"/></defs><use xlink:href="#HelveticaWorld-Regular-8722"/><use x="58.594" xlink:href="#HelveticaWorld-Regular-55"/><use x="114.209" xlink:href="#HelveticaWorld-Regular-53"/></g></g><g id="ytick_2"><use x="48.653" xlink:href="#me217d17d3f" y="280.584" fill="#969696" stroke="#969696" stroke-width=".3" id="line2d_5"/><g transform="matrix(.14 0 0 -.14 17.88 285.608)" fill="#969696" id="text_6"><use xlink:href="#HelveticaWorld-Regular-8722"/><use x="58.594" xlink:href="#HelveticaWorld-Regular-53"/><use x="114.209" xlink:href="#HelveticaWorld-Regular-48"/></g></g><g id="ytick_3"><use x="48.653" xlink:href="#me217d17d3f" y="248.417" fill="#969696" stroke="#969696" stroke-width=".3" id="line2d_6"/><g transform="matrix(.14 0 0 -.14 17.88 253.442)" fill="#969696" id="text_7"><defs><path d="M4.39 45.125q0 12.39 6.391 18.781 6.406 6.407 17.938 6.407 9.656 0 15.812-5.86 6.157-5.86 6.157-15.14 0-7.22-3.547-12.188-3.532-4.953-10.422-8.703l-12.11-6.64Q13.922 15.921 12.5 8.296h38.188V0H2.593q.39 9.906 4.297 16.5 3.906 6.594 12.203 11.375l12.593 7.328q5.032 2.89 7.329 5.984 2.297 3.094 2.297 8.516 0 5.375-3.766 9.031-3.75 3.672-10.156 3.672-7.078 0-10.594-4.672-3.516-4.656-3.61-12.609z" id="HelveticaWorld-Regular-50"/></defs><use xlink:href="#HelveticaWorld-Regular-8722"/><use x="58.594" xlink:href="#HelveticaWorld-Regular-50"/><use x="114.209" xlink:href="#HelveticaWorld-Regular-53"/></g></g><g id="ytick_4"><use x="48.653" xlink:href="#me217d17d3f" y="216.251" fill="#969696" stroke="#969696" stroke-width=".3" id="line2d_7"/><use xlink:href="#HelveticaWorld-Regular-48" transform="matrix(.14 0 0 -.14 33.868 221.276)" fill="#969696" id="text_8"/></g><g id="ytick_5"><use x="48.653" xlink:href="#me217d17d3f" y="184.085" fill="#969696" stroke="#969696" stroke-width=".3" id="line2d_8"/><g transform="matrix(.14 0 0 -.14 26.083 189.11)" fill="#969696" id="text_9"><use xlink:href="#HelveticaWorld-Regular-50"/><use x="55.615" xlink:href="#HelveticaWorld-Regular-53"/></g></g><g id="ytick_6"><use x="48.653" xlink:href="#me217d17d3f" y="151.918" fill="#969696" stroke="#969696" stroke-width=".3" id="line2d_9"/><g transform="matrix(.14 0 0 -.14 26.083 156.943)" fill="#969696" id="text_10"><use xlink:href="#HelveticaWorld-Regular-53"/><use x="55.615" xlink:href="#HelveticaWorld-Regular-48"/></g></g><g id="ytick_7"><use x="48.653" xlink:href="#me217d17d3f" y="119.752" fill="#969696" stroke="#969696" stroke-width=".3" id="line2d_10"/><g transform="matrix(.14 0 0 -.14 26.083 124.777)" fill="#969696" id="text_11"><use xlink:href="#HelveticaWorld-Regular-55"/><use x="55.615" xlink:href="#HelveticaWorld-Regular-53"/></g></g><g id="ytick_8"><use x="48.653" xlink:href="#me217d17d3f" y="87.586" fill="#969696" stroke="#969696" stroke-width=".3" id="line2d_11"/><g transform="matrix(.14 0 0 -.14 18.297 92.61)" fill="#969696" id="text_12"><defs><path d="M35.89 0h-9.374v49.906H10.109v6.985q8.594.28 12.782 2.75Q27.094 62.109 29 70.313h6.89z" id="HelveticaWorld-Regular-49"/></defs><use xlink:href="#HelveticaWorld-Regular-49"/><use x="55.615" xlink:href="#HelveticaWorld-Regular-48"/><use x="111.23" xlink:href="#HelveticaWorld-Regular-48"/></g></g><g id="ytick_9"><use x="48.653" xlink:href="#me217d17d3f" y="55.419" fill="#969696" stroke="#969696" stroke-width=".3" id="line2d_12"/><g transform="matrix(.14 0 0 -.14 18.297 60.444)" fill="#969696" id="text_13"><use xlink:href="#HelveticaWorld-Regular-49"/><use x="55.615" xlink:href="#HelveticaWorld-Regular-50"/><use x="111.23" xlink:href="#HelveticaWorld-Regular-53"/></g></g><g transform="matrix(.14 0 0 -.14 7.2 177.674)" fill="#969696" id="text_14"><defs><path d="M43.406 26.313q0 10.5-3.718 15.046-3.704 4.547-10.579 4.547-6.984-.11-10.562-5.453Q14.984 35.11 14.984 25q0-10.297 4.297-14.594Q23.578 6.11 29.297 6.11q6.5 0 10.297 5.344 3.812 5.344 3.812 14.86zM6.594 0v71.781h8.781V45.703h.203q5.61 8.11 15.14 8.11 9.766 0 15.766-7.25t6-18.876q0-13.093-6.062-21.156Q40.375-1.516 29.5-1.516q-9.578 0-14.406 8.016h-.203V0z" id="HelveticaWorld-Regular-98"/></defs><use xlink:href="#HelveticaWorld-Regular-98"/><use x="56.494" xlink:href="#HelveticaWorld-Regular-42"/></g></g><g transform="matrix(.14 0 0 -.14 68.505 17.516)" fill="#969696" id="text_15"><defs><path d="M17.672 8.594h36.531V0H8.11v71.781h9.563z" id="HelveticaWorld-Regular-76"/><path d="M6.11 52.297h8.78V17.578q0-5.765 2.61-8.625Q20.125 6.11 25 6.11q6.781 0 10.594 4.797 3.812 4.813 3.812 12.578v28.813h8.782V0H39.89v7.625l-.188.188q-4.984-9.329-16.61-9.329-7.515 0-12.25 4.094Q6.11 6.688 6.11 14.703z" id="HelveticaWorld-Regular-117"/><path d="M12.703 26.219q0-8.735 3.953-14.375 3.953-5.64 11.219-5.64 7.531 0 11.438 5.905 3.906 5.907 3.906 14.11 0 8.297-3.907 14.078-3.906 5.797-11.437 5.797-6.969 0-11.078-5.453-4.094-5.438-4.094-14.422zm-8.984 0q0 11.672 6.484 19.625 6.5 7.968 17.672 7.968 11.438 0 17.875-8.062 6.453-8.047 6.453-19.531 0-11.516-6.406-19.625-6.39-8.11-17.922-8.11-11.078 0-17.625 7.86-6.531 7.86-6.531 19.875z" id="HelveticaWorld-Regular-111"/><path d="M28.906 23.188H4.391v8.984h24.515z" id="HelveticaWorld-Regular-45"/><path d="M17.828 39.11h22.453q7.813 0 11.203 3.203 3.407 3.203 3.407 9.203 0 5.468-2.938 8.718-2.922 3.25-10.062 3.25H17.828zm0-39.11H8.11v71.781h33.203q11.563 0 17.516-4.937 5.969-4.922 5.969-14.36 0-6.187-2.39-10.343-2.391-4.157-7.516-6.844 4.39-1.61 6.343-4.516 1.953-2.906 2.25-9l.625-13.375q.094-3.328 1.047-4.672.953-1.343 2.672-2.125V0H55.812q-.921 2.688-1.312 8.156-.39 5.469-.39 9.86 0 2.203-.391 4.5-.39 2.297-1.719 4.14-1.313 1.86-3.86 3-2.53 1.157-6.828 1.157H17.828z" id="HelveticaWorld-Regular-82"/><path d="M6.594 61.813v9.968h8.781v-9.969zM15.375 0H6.594v52.297h8.781z" id="HelveticaWorld-Regular-105"/><path d="M12.984 26.313q0-9.61 3.813-14.907Q20.609 6.11 27.094 6.11q6.312 0 10.312 4.579 4 4.593 4 13 0 11.03-3.5 16.625-3.484 5.593-10.61 5.593-7.171 0-10.75-4.765-3.562-4.766-3.562-14.828zM49.812 2.983q0-12.609-6.062-18.797-6.047-6.203-18.266-6.203-8.78 0-13.984 4.047Q6.297-13.922 5.516-6.39h8.796q.672-3.812 3.532-6.062 2.86-2.25 8.281-2.25 7.375 0 11.125 3.969 3.766 3.953 3.766 12.828v3.719h-.188q-4.937-7.329-13.922-7.329-11.187 0-17.093 8.25-5.907 8.25-5.907 20.953 0 11.625 5.953 18.875 5.97 7.25 15.829 7.25 9.906 0 15.625-8.89h.187v7.375h8.313z" id="HelveticaWorld-Regular-103"/><path d="M42.484 30.328q-.687 8.485-4.5 12.031-3.797 3.547-10.109 3.547-6.39 0-10.328-4.5-3.922-4.484-4.172-11.078zm8.391-13.922q-1.453-8.11-7.953-13.422-5.719-4.5-15.047-4.593-10.984.093-17.438 7.203Q4 12.704 4 24.704q0 13.78 6.64 21.437 6.641 7.672 18.47 7.672 10.593 0 16.546-7.922 5.953-7.907 5.953-22.594H13.375q0-8.203 3.813-12.703Q21 6.109 28.608 6.109q5.375 0 9.235 3.235 3.86 3.25 4.25 7.062z" id="HelveticaWorld-Regular-101"/><path d="M15.375 0H6.594v71.781h8.781z" id="HelveticaWorld-Regular-108"/><path d="M14.984 23.688q0-8.407 4.094-13 4.11-4.579 10.219-4.579 6.687 0 10.39 5.438 3.72 5.453 3.72 14.765 0 10.22-3.563 14.907-3.563 4.687-10.735 4.687-6.984 0-10.562-5.5-3.563-5.5-3.563-16.718zm-8.39 28.609h8.297v-7.375h.203q5.61 8.89 15.625 8.89 10.11 0 15.937-7.359 5.828-7.344 5.828-18.766 0-12.796-5.953-21Q40.578-1.515 29.5-1.515q-9.094 0-13.922 7.032h-.203v-26.22H6.594z" id="HelveticaWorld-Regular-112"/><path d="M36.078 37.406q-.187 4.688-3.344 6.735-3.14 2.047-9.047 2.047-4.296 0-7.359-1.907-3.047-1.89-3.047-5.468 0-2.829 1.797-4.172 1.813-1.344 7.828-2.86l8.688-2.187q7.906-2 11.297-5.11 3.406-3.093 3.406-8.656 0-7.719-5.64-12.531-5.641-4.813-15.063-4.813-11 0-16.64 4.563-5.626 4.578-5.735 13.75h8.5q.203-5.422 3.594-8.063 3.39-2.625 10.171-2.625 5.516 0 8.766 2.188 3.25 2.203 3.25 6.11 0 2.78-2.11 4.437-2.093 1.672-8.296 3.078l-10.203 2.5q-6.203 1.562-9.157 4.656-2.953 3.094-2.953 8.031 0 7.72 5.516 12.203 5.531 4.5 14.406 4.5 9.485 0 14.531-4.624 5.047-4.61 5.344-11.782z" id="HelveticaWorld-Regular-115"/><path d="M17.188 45.016V0H8.405v45.016H1.22v7.28h7.187v8.985q0 5.907 3.578 8.703 3.594 2.813 10.032 2.813 2.203 0 3.968-.188v-7.906q-1.562.188-3.578.188-2.922 0-4.078-1.438-1.14-1.437-1.14-4.656v-6.5h8.796v-7.281z" id="HelveticaWorld-Regular-102"/><path d="M15.375 0H6.594v52.297h8.297v-8.688h.203q5.703 10.203 14.687 10.203 1.422 0 2.297-.296V44.39h-3.266q-5.906 0-9.671-4.016-3.766-4-3.766-9.953z" id="HelveticaWorld-Regular-114"/><path d="M58.016 50.203q-1.625 7.313-6.782 11.094-5.14 3.797-13.343 3.797-10.594 0-17.047-7.703-6.438-7.688-6.438-20.766 0-15.14 6.094-22.547 6.11-7.39 17.688-7.39 7.609 0 13.093 5.046 5.5 5.063 7.407 14.688h9.421Q66.22 12.594 57.625 5.344t-20.906-7.25q-14.703 0-23.516 10.11Q4.391 18.311 4.391 36.28q0 17.328 9.203 27.36 9.203 10.047 24.297 10.047 12.5 0 20.265-6.454 7.766-6.437 9.235-17.03z" id="HelveticaWorld-Regular-67"/><path d="M17.828 0H8.11v71.781h9.72z" id="HelveticaWorld-Regular-73"/><path d="M61.078 0H8.11v71.781h52.297v-8.594H17.828V41.22h39.25v-8.594h-39.25V8.594h43.25z" id="HelveticaWorld-Regular-69"/><path d="M44 29.5L33.406 61.078h-.203L21.687 29.5zm-25.297-8.594L11.188 0h-9.97l27 71.781h10.985L65.187 0H54.594l-7.078 20.906z" id="HelveticaWorld-Regular-65"/><path d="M8.11 71.781h31.484q9.281 0 14.797-5.031 5.515-5.031 5.515-13.031 0-4.844-2.422-8.828-2.406-3.97-7.187-6.172 6.687-2.532 9.828-6.735 3.156-4.203 3.156-10.797 0-9.265-6.687-15.234Q49.906 0 38.922 0H8.109zm9.562-63.484h20.703q7.625 0 11.422 3.531 3.812 3.547 3.812 9.563 0 6.093-4.25 9.093Q45.125 33.5 36.812 33.5h-19.14zm0 33.11h17.625q7.719 0 11.312 2.796 3.594 2.813 3.594 8.781 0 5.125-3.406 7.813-3.39 2.687-11.39 2.687H17.671z" id="HelveticaWorld-Regular-66"/></defs><use xlink:href="#HelveticaWorld-Regular-76"/><use x="55.615" xlink:href="#HelveticaWorld-Regular-117"/><use x="110.4" xlink:href="#HelveticaWorld-Regular-111"/><use x="166.309" xlink:href="#HelveticaWorld-Regular-45"/><use x="199.609" xlink:href="#HelveticaWorld-Regular-82"/><use x="270.996" xlink:href="#HelveticaWorld-Regular-105"/><use x="293.018" xlink:href="#HelveticaWorld-Regular-103"/><use x="348.926" xlink:href="#HelveticaWorld-Regular-103"/><use x="404.834" xlink:href="#HelveticaWorld-Regular-32"/><use x="429.248" xlink:href="#HelveticaWorld-Regular-101"/><use x="484.668" xlink:href="#HelveticaWorld-Regular-108"/><use x="506.689" xlink:href="#HelveticaWorld-Regular-108"/><use x="528.711" xlink:href="#HelveticaWorld-Regular-105"/><use x="550.732" xlink:href="#HelveticaWorld-Regular-112"/><use x="607.227" xlink:href="#HelveticaWorld-Regular-115"/><use x="657.227" xlink:href="#HelveticaWorld-Regular-101"/><use x="712.646" xlink:href="#HelveticaWorld-Regular-115"/><use x="762.646" xlink:href="#HelveticaWorld-Regular-32"/><use x="787.061" xlink:href="#HelveticaWorld-Regular-102"/><use x="812.746" xlink:href="#HelveticaWorld-Regular-111"/><use x="868.654" xlink:href="#HelveticaWorld-Regular-114"/><use x="901.223" xlink:href="#HelveticaWorld-Regular-32"/><use x="925.637" xlink:href="#HelveticaWorld-Regular-67"/><use x="997.951" xlink:href="#HelveticaWorld-Regular-73"/><use x="1023.732" xlink:href="#HelveticaWorld-Regular-69"/><use x="1088.723" xlink:href="#HelveticaWorld-Regular-76"/><use x="1144.338" xlink:href="#HelveticaWorld-Regular-65"/><use x="1211.037" xlink:href="#HelveticaWorld-Regular-66"/></g></g></g><defs><clipPath id="p884f503d8f"><path d="M48.653 47.516h218.652v266.112H48.653z"/></clipPath></defs></svg>