<svg height="476.965" viewBox="0 0 378.17 357.724" width="504.227" xmlns="http://www.w3.org/2000/svg" xmlns:xlink="http://www.w3.org/1999/xlink"><defs><style>*{stroke-linecap:butt;stroke-linejoin:round}</style></defs><g id="figure_1"><path d="M0 357.724h378.17V0H0z" fill="none" id="patch_1"/><g id="axes_1"><path d="M47.265 313.628h317.739V47.516H47.265z" fill="none" id="patch_2"/><g id="PathCollection_1"><defs><path d="M0 3a3 3 0 100-6 3 3 0 000 6z" id="m1fb1219b74" stroke="#969696"/></defs><g clip-path="url(#p67300817e5)" fill="#969696" stroke="#969696"><use x="47.268" xlink:href="#m1fb1219b74" y="65.796"/><use x="59.894" xlink:href="#m1fb1219b74" y="103.94"/><use x="47.268" xlink:href="#m1fb1219b74" y="65.796"/><use x="100.289" xlink:href="#m1fb1219b74" y="72.891"/><use x="59.894" xlink:href="#m1fb1219b74" y="103.94"/><use x="100.289" xlink:href="#m1fb1219b74" y="72.891"/><use x="59.894" xlink:href="#m1fb1219b74" y="103.94"/><use x="53.796" xlink:href="#m1fb1219b74" y="149.507"/><use x="59.894" xlink:href="#m1fb1219b74" y="103.94"/><use x="91.35" xlink:href="#m1fb1219b74" y="122.754"/><use x="100.289" xlink:href="#m1fb1219b74" y="72.891"/><use x="144.163" xlink:href="#m1fb1219b74" y="52.078"/><use x="100.289" xlink:href="#m1fb1219b74" y="72.891"/><use x="91.35" xlink:href="#m1fb1219b74" y="122.754"/><use x="100.289" xlink:href="#m1fb1219b74" y="72.891"/><use x="138.841" xlink:href="#m1fb1219b74" y="92.307"/><use x="144.163" xlink:href="#m1fb1219b74" y="52.078"/><use x="138.841" xlink:href="#m1fb1219b74" y="92.307"/><use x="144.163" xlink:href="#m1fb1219b74" y="52.078"/><use x="176.269" xlink:href="#m1fb1219b74" y="77.31"/><use x="53.796" xlink:href="#m1fb1219b74" y="149.507"/><use x="91.35" xlink:href="#m1fb1219b74" y="122.754"/><use x="53.796" xlink:href="#m1fb1219b74" y="149.507"/><use x="57.677" xlink:href="#m1fb1219b74" y="203.926"/><use x="53.796" xlink:href="#m1fb1219b74" y="149.507"/><use x="92.044" xlink:href="#m1fb1219b74" y="175.072"/><use x="91.35" xlink:href="#m1fb1219b74" y="122.754"/><use x="138.841" xlink:href="#m1fb1219b74" y="92.307"/><use x="91.35" xlink:href="#m1fb1219b74" y="122.754"/><use x="92.044" xlink:href="#m1fb1219b74" y="175.072"/><use x="91.35" xlink:href="#m1fb1219b74" y="122.754"/><use x="135.884" xlink:href="#m1fb1219b74" y="142.16"/><use x="138.841" xlink:href="#m1fb1219b74" y="92.307"/><use x="176.269" xlink:href="#m1fb1219b74" y="77.31"/><use x="138.841" xlink:href="#m1fb1219b74" y="92.307"/><use x="135.884" xlink:href="#m1fb1219b74" y="142.16"/><use x="138.841" xlink:href="#m1fb1219b74" y="92.307"/><use x="183.181" xlink:href="#m1fb1219b74" y="112.886"/><use x="176.269" xlink:href="#m1fb1219b74" y="77.31"/><use x="213.344" xlink:href="#m1fb1219b74" y="47.519"/><use x="176.269" xlink:href="#m1fb1219b74" y="77.31"/><use x="183.181" xlink:href="#m1fb1219b74" y="112.886"/><use x="176.269" xlink:href="#m1fb1219b74" y="77.31"/><use x="219.429" xlink:href="#m1fb1219b74" y="94.092"/><use x="213.344" xlink:href="#m1fb1219b74" y="47.519"/><use x="219.429" xlink:href="#m1fb1219b74" y="94.092"/><use x="213.344" xlink:href="#m1fb1219b74" y="47.519"/><use x="253.231" xlink:href="#m1fb1219b74" y="73.033"/><use x="57.677" xlink:href="#m1fb1219b74" y="203.926"/><use x="92.044" xlink:href="#m1fb1219b74" y="175.072"/><use x="57.677" xlink:href="#m1fb1219b74" y="203.926"/><use x="77.353" xlink:href="#m1fb1219b74" y="247.545"/><use x="57.677" xlink:href="#m1fb1219b74" y="203.926"/><use x="98.413" xlink:href="#m1fb1219b74" y="229.856"/><use x="92.044" xlink:href="#m1fb1219b74" y="175.072"/><use x="135.884" xlink:href="#m1fb1219b74" y="142.16"/><use x="92.044" xlink:href="#m1fb1219b74" y="175.072"/><use x="98.413" xlink:href="#m1fb1219b74" y="229.856"/><use x="92.044" xlink:href="#m1fb1219b74" y="175.072"/><use x="136.883" xlink:href="#m1fb1219b74" y="202.05"/><use x="135.884" xlink:href="#m1fb1219b74" y="142.16"/><use x="183.181" xlink:href="#m1fb1219b74" y="112.886"/><use x="135.884" xlink:href="#m1fb1219b74" y="142.16"/><use x="136.883" xlink:href="#m1fb1219b74" y="202.05"/><use x="135.884" xlink:href="#m1fb1219b74" y="142.16"/><use x="186.525" xlink:href="#m1fb1219b74" y="162.897"/><use x="183.181" xlink:href="#m1fb1219b74" y="112.886"/><use x="219.429" xlink:href="#m1fb1219b74" y="94.092"/><use x="183.181" xlink:href="#m1fb1219b74" y="112.886"/><use x="186.525" xlink:href="#m1fb1219b74" y="162.897"/><use x="183.181" xlink:href="#m1fb1219b74" y="112.886"/><use x="228.343" xlink:href="#m1fb1219b74" y="140.833"/><use x="219.429" xlink:href="#m1fb1219b74" y="94.092"/><use x="253.231" xlink:href="#m1fb1219b74" y="73.033"/><use x="219.429" xlink:href="#m1fb1219b74" y="94.092"/><use x="228.343" xlink:href="#m1fb1219b74" y="140.833"/><use x="219.429" xlink:href="#m1fb1219b74" y="94.092"/><use x="261.035" xlink:href="#m1fb1219b74" y="115.325"/><use x="253.231" xlink:href="#m1fb1219b74" y="73.033"/><use x="280.683" xlink:href="#m1fb1219b74" y="58.495"/><use x="253.231" xlink:href="#m1fb1219b74" y="73.033"/><use x="261.035" xlink:href="#m1fb1219b74" y="115.325"/><use x="253.231" xlink:href="#m1fb1219b74" y="73.033"/><use x="292.337" xlink:href="#m1fb1219b74" y="97.598"/><use x="280.683" xlink:href="#m1fb1219b74" y="58.495"/><use x="292.337" xlink:href="#m1fb1219b74" y="97.598"/><use x="280.683" xlink:href="#m1fb1219b74" y="58.495"/><use x="316.115" xlink:href="#m1fb1219b74" y="74.07"/><use x="77.353" xlink:href="#m1fb1219b74" y="247.545"/><use x="98.413" xlink:href="#m1fb1219b74" y="229.856"/><use x="77.353" xlink:href="#m1fb1219b74" y="247.545"/><use x="124.109" xlink:href="#m1fb1219b74" y="288.158"/><use x="98.413" xlink:href="#m1fb1219b74" y="229.856"/><use x="136.883" xlink:href="#m1fb1219b74" y="202.05"/><use x="98.413" xlink:href="#m1fb1219b74" y="229.856"/><use x="124.109" xlink:href="#m1fb1219b74" y="288.158"/><use x="98.413" xlink:href="#m1fb1219b74" y="229.856"/><use x="155.834" xlink:href="#m1fb1219b74" y="265.095"/><use x="136.883" xlink:href="#m1fb1219b74" y="202.05"/><use x="186.525" xlink:href="#m1fb1219b74" y="162.897"/><use x="136.883" xlink:href="#m1fb1219b74" y="202.05"/><use x="155.834" xlink:href="#m1fb1219b74" y="265.095"/><use x="136.883" xlink:href="#m1fb1219b74" y="202.05"/><use x="198.073" xlink:href="#m1fb1219b74" y="227.127"/><use x="186.525" xlink:href="#m1fb1219b74" y="162.897"/><use x="228.343" xlink:href="#m1fb1219b74" y="140.833"/><use x="186.525" xlink:href="#m1fb1219b74" y="162.897"/><use x="198.073" xlink:href="#m1fb1219b74" y="227.127"/><use x="186.525" xlink:href="#m1fb1219b74" y="162.897"/><use x="240.287" xlink:href="#m1fb1219b74" y="182.918"/><use x="228.343" xlink:href="#m1fb1219b74" y="140.833"/><use x="261.035" xlink:href="#m1fb1219b74" y="115.325"/><use x="228.343" xlink:href="#m1fb1219b74" y="140.833"/><use x="240.287" xlink:href="#m1fb1219b74" y="182.918"/><use x="228.343" xlink:href="#m1fb1219b74" y="140.833"/><use x="276.235" xlink:href="#m1fb1219b74" y="156.393"/><use x="261.035" xlink:href="#m1fb1219b74" y="115.325"/><use x="292.337" xlink:href="#m1fb1219b74" y="97.598"/><use x="261.035" xlink:href="#m1fb1219b74" y="115.325"/><use x="276.235" xlink:href="#m1fb1219b74" y="156.393"/><use x="261.035" xlink:href="#m1fb1219b74" y="115.325"/><use x="298.508" xlink:href="#m1fb1219b74" y="134.47"/><use x="292.337" xlink:href="#m1fb1219b74" y="97.598"/><use x="316.115" xlink:href="#m1fb1219b74" y="74.07"/><use x="292.337" xlink:href="#m1fb1219b74" y="97.598"/><use x="298.508" xlink:href="#m1fb1219b74" y="134.47"/><use x="292.337" xlink:href="#m1fb1219b74" y="97.598"/><use x="334.288" xlink:href="#m1fb1219b74" y="111.825"/><use x="316.115" xlink:href="#m1fb1219b74" y="74.07"/><use x="334.288" xlink:href="#m1fb1219b74" y="111.825"/><use x="316.115" xlink:href="#m1fb1219b74" y="74.07"/><use x="355.25" xlink:href="#m1fb1219b74" y="99.912"/><use x="124.109" xlink:href="#m1fb1219b74" y="288.158"/><use x="155.834" xlink:href="#m1fb1219b74" y="265.095"/><use x="124.109" xlink:href="#m1fb1219b74" y="288.158"/><use x="194.178" xlink:href="#m1fb1219b74" y="313.625"/><use x="155.834" xlink:href="#m1fb1219b74" y="265.095"/><use x="198.073" xlink:href="#m1fb1219b74" y="227.127"/><use x="155.834" xlink:href="#m1fb1219b74" y="265.095"/><use x="194.178" xlink:href="#m1fb1219b74" y="313.625"/><use x="155.834" xlink:href="#m1fb1219b74" y="265.095"/><use x="224.963" xlink:href="#m1fb1219b74" y="281.845"/><use x="198.073" xlink:href="#m1fb1219b74" y="227.127"/><use x="240.287" xlink:href="#m1fb1219b74" y="182.918"/><use x="198.073" xlink:href="#m1fb1219b74" y="227.127"/><use x="224.963" xlink:href="#m1fb1219b74" y="281.845"/><use x="198.073" xlink:href="#m1fb1219b74" y="227.127"/><use x="258.636" xlink:href="#m1fb1219b74" y="244.207"/><use x="240.287" xlink:href="#m1fb1219b74" y="182.918"/><use x="276.235" xlink:href="#m1fb1219b74" y="156.393"/><use x="240.287" xlink:href="#m1fb1219b74" y="182.918"/><use x="258.636" xlink:href="#m1fb1219b74" y="244.207"/><use x="240.287" xlink:href="#m1fb1219b74" y="182.918"/><use x="284.119" xlink:href="#m1fb1219b74" y="200.174"/><use x="276.235" xlink:href="#m1fb1219b74" y="156.393"/><use x="298.508" xlink:href="#m1fb1219b74" y="134.47"/><use x="276.235" xlink:href="#m1fb1219b74" y="156.393"/><use x="284.119" xlink:href="#m1fb1219b74" y="200.174"/><use x="276.235" xlink:href="#m1fb1219b74" y="156.393"/><use x="308.1" xlink:href="#m1fb1219b74" y="170.063"/><use x="298.508" xlink:href="#m1fb1219b74" y="134.47"/><use x="334.288" xlink:href="#m1fb1219b74" y="111.825"/><use x="298.508" xlink:href="#m1fb1219b74" y="134.47"/><use x="308.1" xlink:href="#m1fb1219b74" y="170.063"/><use x="298.508" xlink:href="#m1fb1219b74" y="134.47"/><use x="340.835" xlink:href="#m1fb1219b74" y="149.214"/><use x="334.288" xlink:href="#m1fb1219b74" y="111.825"/><use x="355.25" xlink:href="#m1fb1219b74" y="99.912"/><use x="334.288" xlink:href="#m1fb1219b74" y="111.825"/><use x="340.835" xlink:href="#m1fb1219b74" y="149.214"/><use x="334.288" xlink:href="#m1fb1219b74" y="111.825"/><use x="365.001" xlink:href="#m1fb1219b74" y="132.892"/><use x="355.25" xlink:href="#m1fb1219b74" y="99.912"/><use x="365.001" xlink:href="#m1fb1219b74" y="132.892"/><use x="194.178" xlink:href="#m1fb1219b74" y="313.625"/><use x="224.963" xlink:href="#m1fb1219b74" y="281.845"/><use x="224.963" xlink:href="#m1fb1219b74" y="281.845"/><use x="258.636" xlink:href="#m1fb1219b74" y="244.207"/><use x="224.963" xlink:href="#m1fb1219b74" y="281.845"/><use x="290.791" xlink:href="#m1fb1219b74" y="282.604"/><use x="258.636" xlink:href="#m1fb1219b74" y="244.207"/><use x="284.119" xlink:href="#m1fb1219b74" y="200.174"/><use x="258.636" xlink:href="#m1fb1219b74" y="244.207"/><use x="290.791" xlink:href="#m1fb1219b74" y="282.604"/><use x="258.636" xlink:href="#m1fb1219b74" y="244.207"/><use x="316.155" xlink:href="#m1fb1219b74" y="247.768"/><use x="284.119" xlink:href="#m1fb1219b74" y="200.174"/><use x="308.1" xlink:href="#m1fb1219b74" y="170.063"/><use x="284.119" xlink:href="#m1fb1219b74" y="200.174"/><use x="316.155" xlink:href="#m1fb1219b74" y="247.768"/><use x="284.119" xlink:href="#m1fb1219b74" y="200.174"/><use x="344.978" xlink:href="#m1fb1219b74" y="213.083"/><use x="308.1" xlink:href="#m1fb1219b74" y="170.063"/><use x="340.835" xlink:href="#m1fb1219b74" y="149.214"/><use x="308.1" xlink:href="#m1fb1219b74" y="170.063"/><use x="344.978" xlink:href="#m1fb1219b74" y="213.083"/><use x="308.1" xlink:href="#m1fb1219b74" y="170.063"/><use x="361.341" xlink:href="#m1fb1219b74" y="195.13"/><use x="340.835" xlink:href="#m1fb1219b74" y="149.214"/><use x="365.001" xlink:href="#m1fb1219b74" y="132.892"/><use x="340.835" xlink:href="#m1fb1219b74" y="149.214"/><use x="361.341" xlink:href="#m1fb1219b74" y="195.13"/><use x="290.791" xlink:href="#m1fb1219b74" y="282.604"/><use x="316.155" xlink:href="#m1fb1219b74" y="247.768"/><use x="316.155" xlink:href="#m1fb1219b74" y="247.768"/><use x="344.978" xlink:href="#m1fb1219b74" y="213.083"/><use x="344.978" xlink:href="#m1fb1219b74" y="213.083"/><use x="361.341" xlink:href="#m1fb1219b74" y="195.13"/></g></g><path clip-path="url(#p67300817e5)" d="M55.033 89.255l-.018-.024.006-.002-7.756-23.432.006-.002 7.756 23.432.006-.002z" fill="#969696" stroke="#969696" id="patch_3"/><path clip-path="url(#p67300817e5)" d="M52.129 80.48l.018.025-.006.002 7.756 23.432-.006.002-7.756-23.432-.006.002z" fill="#969696" stroke="#969696" id="patch_4"/><path clip-path="url(#p67300817e5)" d="M74.903 69.494l-.03.006.001-.007L47.268 65.8v-.006l27.607 3.694.001-.007z" fill="#969696" stroke="#969696" id="patch_5"/><path clip-path="url(#p67300817e5)" d="M72.654 69.193l.03-.006-.001.006 27.606 3.694v.007L72.682 69.2v.006z" fill="#969696" stroke="#969696" id="patch_6"/><path clip-path="url(#p67300817e5)" d="M78.35 89.753l-.017.026-.003-.006-18.434 14.17-.004-.006 18.434-14.169-.004-.005z" fill="#969696" stroke="#969696" id="patch_7"/><path clip-path="url(#p67300817e5)" d="M81.832 87.077l.017-.025.004.005 18.434-14.169.004.005-18.434 14.169.004.005z" fill="#969696" stroke="#969696" id="patch_8"/><path clip-path="url(#p67300817e5)" d="M56.832 126.82l-.005-.03h.006l3.058-22.85h.006l-3.058 22.852h.007z" fill="#969696" stroke="#969696" id="patch_9"/><path clip-path="url(#p67300817e5)" d="M56.858 126.627l.006.03h-.007l-3.057 22.85h-.007l3.058-22.852h-.006z" fill="#969696" stroke="#969696" id="patch_10"/><path clip-path="url(#p67300817e5)" d="M76.082 113.622l-.03-.006.004-.006-16.164-9.667.004-.006 16.163 9.668.004-.006z" fill="#969696" stroke="#969696" id="patch_11"/><path clip-path="url(#p67300817e5)" d="M75.161 113.071l.03.007-.003.005 16.164 9.668-.004.006-16.164-9.668-.003.005z" fill="#969696" stroke="#969696" id="patch_12"/><path clip-path="url(#p67300817e5)" d="M124.682 61.32l-.022.02-.003-.005-24.367 11.558-.002-.005 24.366-11.559-.002-.006z" fill="#969696" stroke="#969696" id="patch_13"/><path clip-path="url(#p67300817e5)" d="M119.77 63.65l.022-.022.003.006 24.367-11.559.003.006-24.367 11.559.003.006z" fill="#969696" stroke="#969696" id="patch_14"/><path clip-path="url(#p67300817e5)" d="M95.098 101.847l-.005-.03.007.002 5.186-28.929.006.001-5.186 28.929h.006z" fill="#969696" stroke="#969696" id="patch_15"/><path clip-path="url(#p67300817e5)" d="M96.541 93.797l.004.03-.006-.001-5.186 28.928h-.006l5.186-28.93h-.007z" fill="#969696" stroke="#969696" id="patch_16"/><path clip-path="url(#p67300817e5)" d="M119.318 82.474l-.03-.004.003-.006-19.003-9.57.002-.006 19.004 9.57.003-.005z" fill="#969696" stroke="#969696" id="patch_17"/><path clip-path="url(#p67300817e5)" d="M119.812 82.723l.03.004-.003.006 19.004 9.57-.003.006-19.004-9.57-.003.005z" fill="#969696" stroke="#969696" id="patch_18"/><path clip-path="url(#p67300817e5)" d="M141.53 71.987l-.006-.03h.006l2.63-19.88.006.002-2.63 19.88h.007z" fill="#969696" stroke="#969696" id="patch_19"/><path clip-path="url(#p67300817e5)" d="M141.475 72.398l.006.03h-.007l-2.63 19.879h-.006l2.63-19.88-.006-.002z" fill="#969696" stroke="#969696" id="patch_20"/><path clip-path="url(#p67300817e5)" d="M161.477 65.685l-.029-.01.004-.005-17.29-13.59.003-.004 17.291 13.589.004-.005z" fill="#969696" stroke="#969696" id="patch_21"/><path clip-path="url(#p67300817e5)" d="M158.956 63.703l.028.01-.004.006 17.291 13.589-.004.005-17.29-13.59-.005.006z" fill="#969696" stroke="#969696" id="patch_22"/><path clip-path="url(#p67300817e5)" d="M73.333 135.59l-.018.024-.004-.005-19.513 13.9-.003-.004 19.513-13.902-.004-.005z" fill="#969696" stroke="#969696" id="patch_23"/><path clip-path="url(#p67300817e5)" d="M71.813 136.672l.018-.025.004.006 19.513-13.902.004.005-19.513 13.902.003.005z" fill="#969696" stroke="#969696" id="patch_24"/><path clip-path="url(#p67300817e5)" d="M55.777 177.275l-.012-.028h.006l-1.978-27.74h.007l1.978 27.739h.006z" fill="#969696" stroke="#969696" id="patch_25"/><path clip-path="url(#p67300817e5)" d="M55.697 176.158l.012.029h-.007l1.978 27.739h-.006l-1.978-27.739h-.007z" fill="#969696" stroke="#969696" id="patch_26"/><path clip-path="url(#p67300817e5)" d="M69.273 159.852l-.03-.008.004-.006-15.452-10.328.003-.005 15.453 10.328.003-.005z" fill="#969696" stroke="#969696" id="patch_27"/><path clip-path="url(#p67300817e5)" d="M76.568 164.728l.029.008-.004.005 15.453 10.328-.004.006-15.452-10.329-.004.006z" fill="#969696" stroke="#969696" id="patch_28"/><path clip-path="url(#p67300817e5)" d="M109.713 110.981l-.02.024-.003-.006-18.338 11.757-.004-.005 18.339-11.757-.004-.005z" fill="#969696" stroke="#969696" id="patch_29"/><path clip-path="url(#p67300817e5)" d="M120.478 104.08l.02-.024.003.005 18.338-11.757.004.005-18.339 11.757.004.006z" fill="#969696" stroke="#969696" id="patch_30"/><path clip-path="url(#p67300817e5)" d="M91.64 144.687l-.01-.029h.007l-.29-21.904h.006l.29 21.904h.007z" fill="#969696" stroke="#969696" id="patch_31"/><path clip-path="url(#p67300817e5)" d="M91.753 153.139l.01.028h-.006l.29 21.905h-.006l-.29-21.905h-.007z" fill="#969696" stroke="#969696" id="patch_32"/><path clip-path="url(#p67300817e5)" d="M103.503 128.05l-.03-.003.003-.006-12.127-5.284.002-.006 12.127 5.284.003-.005z" fill="#969696" stroke="#969696" id="patch_33"/><path clip-path="url(#p67300817e5)" d="M123.73 136.864l.03.003-.002.006 12.127 5.284-.002.006-12.128-5.284-.002.005z" fill="#969696" stroke="#969696" id="patch_34"/><path clip-path="url(#p67300817e5)" d="M160.308 83.705l-.023.02-.002-.006-21.44 8.59-.003-.005 21.44-8.59-.002-.007z" fill="#969696" stroke="#969696" id="patch_35"/><path clip-path="url(#p67300817e5)" d="M154.802 85.911l.024-.02.002.007 21.44-8.59.003.005-21.44 8.59.002.007z" fill="#969696" stroke="#969696" id="patch_36"/><path clip-path="url(#p67300817e5)" d="M137.854 108.943l-.008-.03.007.001.985-16.608h.006l-.985 16.608h.007z" fill="#969696" stroke="#969696" id="patch_37"/><path clip-path="url(#p67300817e5)" d="M136.87 125.524l.009.03-.007-.001-.985 16.607h-.006l.985-16.608h-.007z" fill="#969696" stroke="#969696" id="patch_38"/><path clip-path="url(#p67300817e5)" d="M157.292 100.87l-.03-.003.002-.006-18.424-8.551.002-.006 18.425 8.55.003-.005z" fill="#969696" stroke="#969696" id="patch_39"/><path clip-path="url(#p67300817e5)" d="M164.73 104.322l.03.004-.002.006 18.425 8.55-.003.007-18.425-8.552-.002.006z" fill="#969696" stroke="#969696" id="patch_40"/><path clip-path="url(#p67300817e5)" d="M199.903 58.32l-.016.025-.004-.005-23.612 18.973-.004-.005 23.612-18.973-.004-.005z" fill="#969696" stroke="#969696" id="patch_41"/><path clip-path="url(#p67300817e5)" d="M189.71 66.51l.017-.026.004.005 23.611-18.973.004.005-23.611 18.973.004.005z" fill="#969696" stroke="#969696" id="patch_42"/><path clip-path="url(#p67300817e5)" d="M179.228 92.54l-.014-.026.006-.001-2.954-15.202.007-.001 2.953 15.202.006-.002z" fill="#969696" stroke="#969696" id="patch_43"/><path clip-path="url(#p67300817e5)" d="M180.222 97.655l.015.027-.006.001 2.953 15.202-.006.001-2.953-15.202-.007.002z" fill="#969696" stroke="#969696" id="patch_44"/><path clip-path="url(#p67300817e5)" d="M199.705 86.423l-.03-.002.002-.006-23.409-9.102.003-.006 23.408 9.102.002-.006z" fill="#969696" stroke="#969696" id="patch_45"/><path clip-path="url(#p67300817e5)" d="M195.993 84.98l.03.001-.002.006 23.409 9.102-.003.006-23.408-9.102-.002.006z" fill="#969696" stroke="#969696" id="patch_46"/><path clip-path="url(#p67300817e5)" d="M216.285 70.03l-.013-.027h.006l-2.937-22.484h.006l2.938 22.483.006-.001z" fill="#969696" stroke="#969696" id="patch_47"/><path clip-path="url(#p67300817e5)" d="M216.488 71.58l.013.028h-.006l2.937 22.483-.007.001-2.937-22.483-.006.001z" fill="#969696" stroke="#969696" id="patch_48"/><path clip-path="url(#p67300817e5)" d="M237.74 63.124l-.029-.007.004-.006-24.372-15.59.003-.005 24.372 15.59.004-.005z" fill="#969696" stroke="#969696" id="patch_49"/><path clip-path="url(#p67300817e5)" d="M228.835 57.427l.03.008-.004.005 24.372 15.59-.003.005-24.373-15.59-.003.006z" fill="#969696" stroke="#969696" id="patch_50"/><path clip-path="url(#p67300817e5)" d="M71.586 192.248l-.016.026-.004-.005-13.887 11.66-.004-.005 13.887-11.66-.004-.004z" fill="#969696" stroke="#969696" id="patch_51"/><path clip-path="url(#p67300817e5)" d="M78.135 186.75l.016-.026.004.005 13.887-11.66.004.005-13.886 11.66.004.004z" fill="#969696" stroke="#969696" id="patch_52"/><path clip-path="url(#p67300817e5)" d="M68.783 228.547l-.02-.022.005-.003-11.094-24.595.006-.002 11.094 24.595.006-.003z" fill="#969696" stroke="#969696" id="patch_53"/><path clip-path="url(#p67300817e5)" d="M66.247 222.924l.02.022-.005.003 11.094 24.595-.006.002-11.094-24.594-.006.002z" fill="#969696" stroke="#969696" id="patch_54"/><path clip-path="url(#p67300817e5)" d="M77.263 216.394l-.03-.008.004-.005-19.561-12.452.003-.006 19.561 12.452.004-.005z" fill="#969696" stroke="#969696" id="patch_55"/><path clip-path="url(#p67300817e5)" d="M78.827 217.389l.03.007-.004.006 19.561 12.452-.003.005-19.561-12.452-.004.006z" fill="#969696" stroke="#969696" id="patch_56"/><path clip-path="url(#p67300817e5)" d="M110.195 161.446l-.017.025-.004-.006-18.128 13.61-.004-.006 18.128-13.609-.004-.005z" fill="#969696" stroke="#969696" id="patch_57"/><path clip-path="url(#p67300817e5)" d="M117.733 155.787l.017-.025.004.005 18.128-13.61.004.006-18.128 13.609.004.005z" fill="#969696" stroke="#969696" id="patch_58"/><path clip-path="url(#p67300817e5)" d="M95.378 203.755l-.012-.028h.006l-3.331-28.655h.006l3.331 28.654h.007z" fill="#969696" stroke="#969696" id="patch_59"/><path clip-path="url(#p67300817e5)" d="M95.078 201.173l.013.028h-.006l3.33 28.655h-.005l-3.331-28.654-.007.001z" fill="#969696" stroke="#969696" id="patch_60"/><path clip-path="url(#p67300817e5)" d="M107.165 184.17l-.03-.007.004-.005-15.097-9.083.004-.006 15.096 9.083.004-.005z" fill="#969696" stroke="#969696" id="patch_61"/><path clip-path="url(#p67300817e5)" d="M121.762 192.952l.03.007-.004.005 15.096 9.084-.003.005-15.096-9.083-.004.005z" fill="#969696" stroke="#969696" id="patch_62"/><path clip-path="url(#p67300817e5)" d="M153.323 131.366l-.02.024-.003-.006-17.415 10.779-.003-.005 17.415-10.78-.003-.005z" fill="#969696" stroke="#969696" id="patch_63"/><path clip-path="url(#p67300817e5)" d="M165.742 123.68l.02-.024.003.006 17.415-10.78.003.006-17.415 10.78.004.005z" fill="#969696" stroke="#969696" id="patch_64"/><path clip-path="url(#p67300817e5)" d="M136.289 166.432l-.01-.029h.006l-.404-24.243h.006l.404 24.243h.007z" fill="#969696" stroke="#969696" id="patch_65"/><path clip-path="url(#p67300817e5)" d="M136.478 177.779l.01.028h-.006l.404 24.243h-.006l-.405-24.243h-.006z" fill="#969696" stroke="#969696" id="patch_66"/><path clip-path="url(#p67300817e5)" d="M155.052 150.01l-.03-.003.002-.006-19.141-7.838.002-.006 19.141 7.838.003-.006z" fill="#969696" stroke="#969696" id="patch_67"/><path clip-path="url(#p67300817e5)" d="M167.357 155.048l.03.002-.002.006 19.141 7.838-.002.006-19.142-7.838-.002.006z" fill="#969696" stroke="#969696" id="patch_68"/><path clip-path="url(#p67300817e5)" d="M203.227 102.492l-.02.022-.004-.006-20.02 10.38-.003-.005 20.02-10.38-.003-.006z" fill="#969696" stroke="#969696" id="patch_69"/><path clip-path="url(#p67300817e5)" d="M199.383 104.485l.02-.021.004.005 20.02-10.38.003.006-20.02 10.38.003.006z" fill="#969696" stroke="#969696" id="patch_70"/><path clip-path="url(#p67300817e5)" d="M184.508 132.734l-.011-.029h.006l-1.325-19.82h.006l1.325 19.82h.007z" fill="#969696" stroke="#969696" id="patch_71"/><path clip-path="url(#p67300817e5)" d="M185.198 143.05l.011.027h-.006l1.325 19.82h-.006l-1.325-19.819h-.007z" fill="#969696" stroke="#969696" id="patch_72"/><path clip-path="url(#p67300817e5)" d="M201.29 124.091l-.03-.007.003-.005-18.083-11.19.003-.006 18.084 11.19.003-.005z" fill="#969696" stroke="#969696" id="patch_73"/><path clip-path="url(#p67300817e5)" d="M210.235 129.627l.03.007-.004.005 18.084 11.191-.003.005-18.084-11.19-.004.005z" fill="#969696" stroke="#969696" id="patch_74"/><path clip-path="url(#p67300817e5)" d="M241.779 80.168l-.02.023-.003-.005-22.326 13.909-.003-.006 22.326-13.909-.004-.005z" fill="#969696" stroke="#969696" id="patch_75"/><path clip-path="url(#p67300817e5)" d="M230.881 86.957l.02-.023.003.005L253.23 73.03l.003.005-22.326 13.91.004.005z" fill="#969696" stroke="#969696" id="patch_76"/><path clip-path="url(#p67300817e5)" d="M222.773 111.627l-.015-.026.006-.001-3.339-17.508h.007l3.339 17.506h.006z" fill="#969696" stroke="#969696" id="patch_77"/><path clip-path="url(#p67300817e5)" d="M224.999 123.297l.015.027h-.007l3.34 17.508-.007.001-3.339-17.507-.006.001z" fill="#969696" stroke="#969696" id="patch_78"/><path clip-path="url(#p67300817e5)" d="M241.986 105.604l-.03-.005.003-.006-22.532-11.498.003-.006 22.532 11.499.003-.006z" fill="#969696" stroke="#969696" id="patch_79"/><path clip-path="url(#p67300817e5)" d="M238.477 103.813l.03.004-.003.006 22.532 11.499-.003.005-22.532-11.498-.002.005z" fill="#969696" stroke="#969696" id="patch_80"/><path clip-path="url(#p67300817e5)" d="M269.622 64.353l-.021.022-.003-.006-16.365 8.667-.003-.006 16.365-8.667-.003-.005z" fill="#969696" stroke="#969696" id="patch_81"/><path clip-path="url(#p67300817e5)" d="M264.293 67.175l.02-.022.004.006 16.365-8.667.003.006-16.365 8.666.003.006z" fill="#969696" stroke="#969696" id="patch_82"/><path clip-path="url(#p67300817e5)" d="M257.681 97.15l-.014-.027.006-.001-4.445-24.089h.006l4.445 24.088.007-.001z" fill="#969696" stroke="#969696" id="patch_83"/><path clip-path="url(#p67300817e5)" d="M256.585 91.208l.015.026-.007.001 4.445 24.089-.006.001-4.445-24.088h-.006z" fill="#969696" stroke="#969696" id="patch_84"/><path clip-path="url(#p67300817e5)" d="M274.963 86.684l-.03-.007.004-.005-21.707-13.637.003-.005 21.707 13.636.004-.005z" fill="#969696" stroke="#969696" id="patch_85"/><path clip-path="url(#p67300817e5)" d="M270.605 83.947l.03.007-.004.005 21.708 13.636-.004.006-21.707-13.636-.004.005z" fill="#969696" stroke="#969696" id="patch_86"/><path clip-path="url(#p67300817e5)" d="M287.528 81.463l-.017-.025.006-.001-6.837-22.941.006-.002 6.837 22.94.006-.001z" fill="#969696" stroke="#969696" id="patch_87"/><path clip-path="url(#p67300817e5)" d="M285.492 74.63l.017.025-.006.001 6.837 22.941-.006.002-6.837-22.94-.006.001z" fill="#969696" stroke="#969696" id="patch_88"/><path clip-path="url(#p67300817e5)" d="M305.521 69.413l-.03-.002.002-.006-24.811-10.907.003-.006 24.81 10.907.004-.006z" fill="#969696" stroke="#969696" id="patch_89"/><path clip-path="url(#p67300817e5)" d="M291.277 63.152l.03.002-.003.006 24.812 10.907-.003.006-24.811-10.907-.003.006z" fill="#969696" stroke="#969696" id="patch_90"/><path clip-path="url(#p67300817e5)" d="M91.346 235.791l-.015.026-.005-.005-13.971 11.736-.004-.005 13.971-11.735-.004-.005z" fill="#969696" stroke="#969696" id="patch_91"/><path clip-path="url(#p67300817e5)" d="M84.419 241.61l.016-.026.004.005 13.972-11.735.004.005-13.972 11.735.004.005z" fill="#969696" stroke="#969696" id="patch_92"/><path clip-path="url(#p67300817e5)" d="M104.804 271.39l-.028-.011.004-.005-27.43-23.826.005-.005 27.43 23.826.004-.005z" fill="#969696" stroke="#969696" id="patch_93"/><path clip-path="url(#p67300817e5)" d="M96.657 264.313l.028.012-.004.005 27.43 23.826-.005.005-27.43-23.826-.004.004z" fill="#969696" stroke="#969696" id="patch_94"/><path clip-path="url(#p67300817e5)" d="M117.834 215.819l-.017.024-.004-.005-19.398 14.021-.004-.005 19.398-14.021-.004-.005z" fill="#969696" stroke="#969696" id="patch_95"/><path clip-path="url(#p67300817e5)" d="M117.461 216.088l.018-.025.004.006 19.398-14.021.004.005-19.398 14.02.003.006z" fill="#969696" stroke="#969696" id="patch_96"/><path clip-path="url(#p67300817e5)" d="M112.84 262.591l-.02-.022.006-.003-14.416-32.708.006-.003 14.416 32.709.005-.003z" fill="#969696" stroke="#969696" id="patch_97"/><path clip-path="url(#p67300817e5)" d="M109.681 255.423l.02.023-.005.002 14.415 32.709-.005.003-14.416-32.71-.006.003z" fill="#969696" stroke="#969696" id="patch_98"/><path clip-path="url(#p67300817e5)" d="M127.705 247.833l-.03-.007.004-.005-29.268-17.962.003-.005 29.268 17.961.004-.005z" fill="#969696" stroke="#969696" id="patch_99"/><path clip-path="url(#p67300817e5)" d="M126.541 247.119l.03.006-.004.006 29.268 17.961-.003.006-29.268-17.962-.003.006z" fill="#969696" stroke="#969696" id="patch_100"/><path clip-path="url(#p67300817e5)" d="M156.497 186.58l-.017.026-.004-.005-19.591 15.452-.004-.005 19.591-15.452-.004-.005z" fill="#969696" stroke="#969696" id="patch_101"/><path clip-path="url(#p67300817e5)" d="M166.91 178.367l.017-.025.004.005 19.592-15.452.004.005-19.592 15.452.004.005z" fill="#969696" stroke="#969696" id="patch_102"/><path clip-path="url(#p67300817e5)" d="M146.09 232.679l-.018-.025.006-.002-9.198-30.6.006-.003 9.198 30.601.007-.001z" fill="#969696" stroke="#969696" id="patch_103"/><path clip-path="url(#p67300817e5)" d="M146.627 234.467l.017.024-.006.002 9.199 30.601-.006.002-9.199-30.6h-.006z" fill="#969696" stroke="#969696" id="patch_104"/><path clip-path="url(#p67300817e5)" d="M161.958 212.327l-.03-.003.002-.005-25.048-10.266.002-.006 25.049 10.266.002-.006z" fill="#969696" stroke="#969696" id="patch_105"/><path clip-path="url(#p67300817e5)" d="M172.998 216.85l.03.003-.002.006 25.049 10.265-.003.006-25.048-10.265-.003.006z" fill="#969696" stroke="#969696" id="patch_106"/><path clip-path="url(#p67300817e5)" d="M207.866 151.637l-.02.022-.004-.006-21.316 11.247-.003-.005 21.316-11.248-.003-.005z" fill="#969696" stroke="#969696" id="patch_107"/><path clip-path="url(#p67300817e5)" d="M207.001 152.093l.022-.022.003.006 21.316-11.247.003.006-21.316 11.247.002.005z" fill="#969696" stroke="#969696" id="patch_108"/><path clip-path="url(#p67300817e5)" d="M191.138 188.553l-.015-.027.006-.001-4.607-25.627.006-.001 4.608 25.627.006-.001z" fill="#969696" stroke="#969696" id="patch_109"/><path clip-path="url(#p67300817e5)" d="M193.46 201.472l.015.027h-.006l4.607 25.628h-.006l-4.608-25.626h-.006z" fill="#969696" stroke="#969696" id="patch_110"/><path clip-path="url(#p67300817e5)" d="M210.438 171.802h-.03l.002-.007-23.886-8.895.002-.006 23.886 8.895.002-.006z" fill="#969696" stroke="#969696" id="patch_111"/><path clip-path="url(#p67300817e5)" d="M216.374 174.013h.03l-.002.007 23.886 8.895-.002.006-23.886-8.895-.003.006z" fill="#969696" stroke="#969696" id="patch_112"/><path clip-path="url(#p67300817e5)" d="M241.828 130.31l-.016.026-.004-.005-13.463 10.504-.004-.005 13.463-10.504-.004-.005z" fill="#969696" stroke="#969696" id="patch_113"/><path clip-path="url(#p67300817e5)" d="M247.55 125.847l.017-.026.004.005 13.462-10.504.004.005-13.463 10.504.004.005z" fill="#969696" stroke="#969696" id="patch_114"/><path clip-path="url(#p67300817e5)" d="M233.555 159.195l-.017-.025.006-.001-5.204-18.335.006-.002 5.204 18.335.006-.002z" fill="#969696" stroke="#969696" id="patch_115"/><path clip-path="url(#p67300817e5)" d="M235.076 164.555l.017.025-.006.002 5.203 18.335-.006.001-5.204-18.335-.006.002z" fill="#969696" stroke="#969696" id="patch_116"/><path clip-path="url(#p67300817e5)" d="M252.29 148.613h-.03l.002-.006-23.92-7.771.002-.006 23.92 7.771.002-.006z" fill="#969696" stroke="#969696" id="patch_117"/><path clip-path="url(#p67300817e5)" d="M252.288 148.612h.03l-.001.006 23.92 7.772-.003.006-23.92-7.772-.001.007z" fill="#969696" stroke="#969696" id="patch_118"/><path clip-path="url(#p67300817e5)" d="M274.12 107.914l-.02.023-.003-.006-13.06 7.396-.004-.005 13.061-7.397-.003-.005z" fill="#969696" stroke="#969696" id="patch_119"/><path clip-path="url(#p67300817e5)" d="M279.251 105.009l.02-.023.004.006 13.06-7.397.003.006-13.06 7.396.003.006z" fill="#969696" stroke="#969696" id="patch_120"/><path clip-path="url(#p67300817e5)" d="M267.112 131.743l-.02-.024.007-.002-6.067-16.391.006-.003 6.067 16.392.006-.002z" fill="#969696" stroke="#969696" id="patch_121"/><path clip-path="url(#p67300817e5)" d="M270.158 139.974l.02.024-.007.002 6.067 16.392-.006.002-6.067-16.391-.006.002z" fill="#969696" stroke="#969696" id="patch_122"/><path clip-path="url(#p67300817e5)" d="M281.516 125.788l-.03-.004.003-.006-20.456-10.45.003-.006 20.456 10.45.003-.005z" fill="#969696" stroke="#969696" id="patch_123"/><path clip-path="url(#p67300817e5)" d="M278.027 124.006l.03.004-.003.006 20.455 10.45-.002.006-20.456-10.45-.003.005z" fill="#969696" stroke="#969696" id="patch_124"/><path clip-path="url(#p67300817e5)" d="M305.887 84.19l-.014.027-.004-.004-13.53 13.387-.004-.004 13.53-13.388-.005-.004z" fill="#969696" stroke="#969696" id="patch_125"/><path clip-path="url(#p67300817e5)" d="M302.564 87.478l.014-.027.004.005 13.53-13.388.005.004-13.53 13.388.004.005z" fill="#969696" stroke="#969696" id="patch_126"/><path clip-path="url(#p67300817e5)" d="M295.64 117.333l-.014-.027h.006l-3.298-19.707.006-.001 3.298 19.706h.007z" fill="#969696" stroke="#969696" id="patch_127"/><path clip-path="url(#p67300817e5)" d="M295.205 114.734l.014.027-.006.001 3.298 19.707-.006.001-3.298-19.707-.007.001z" fill="#969696" stroke="#969696" id="patch_128"/><path clip-path="url(#p67300817e5)" d="M317.738 106.212h-.03l.002-.006-25.374-8.605.002-.006 25.374 8.605.002-.006z" fill="#969696" stroke="#969696" id="patch_129"/><path clip-path="url(#p67300817e5)" d="M308.886 103.21h.03l-.001.007 25.374 8.605-.002.006-25.374-8.605-.002.006z" fill="#969696" stroke="#969696" id="patch_130"/><path clip-path="url(#p67300817e5)" d="M329.294 101.45l-.021-.022.006-.003-13.167-27.354.005-.002 13.167 27.354.006-.003z" fill="#969696" stroke="#969696" id="patch_131"/><path clip-path="url(#p67300817e5)" d="M321.108 84.445l.022.021-.006.003 13.167 27.354-.006.003-13.167-27.354-.006.003z" fill="#969696" stroke="#969696" id="patch_132"/><path clip-path="url(#p67300817e5)" d="M341.512 90.84l-.03-.008.004-.005-25.373-16.754.003-.006 25.373 16.755.004-.006z" fill="#969696" stroke="#969696" id="patch_133"/><path clip-path="url(#p67300817e5)" d="M329.853 83.142l.029.007-.004.006 25.373 16.754-.003.005-25.373-16.754-.004.005z" fill="#969696" stroke="#969696" id="patch_134"/><path clip-path="url(#p67300817e5)" d="M143.34 274.177l-.017.025-.004-.005-19.209 13.964-.003-.005 19.208-13.964-.003-.006z" fill="#969696" stroke="#969696" id="patch_135"/><path clip-path="url(#p67300817e5)" d="M136.602 279.076l.017-.025.004.006 19.209-13.964.004.005-19.21 13.964.005.005z" fill="#969696" stroke="#969696" id="patch_136"/><path clip-path="url(#p67300817e5)" d="M157.857 300.424h-.03l.002-.007-33.722-12.256.003-.006 33.72 12.256.003-.006z" fill="#969696" stroke="#969696" id="patch_137"/><path clip-path="url(#p67300817e5)" d="M160.43 301.36h.03l-.002.006 33.721 12.256-.002.006-33.721-12.256-.002.006z" fill="#969696" stroke="#969696" id="patch_138"/><path clip-path="url(#p67300817e5)" d="M172.696 249.938l-.015.027-.004-.005-16.841 15.138-.004-.005 16.84-15.138-.004-.005z" fill="#969696" stroke="#969696" id="patch_139"/><path clip-path="url(#p67300817e5)" d="M181.211 242.284l.015-.026.005.004 16.84-15.137.004.004-16.84 15.138.004.005z" fill="#969696" stroke="#969696" id="patch_140"/><path clip-path="url(#p67300817e5)" d="M175.62 290.138l-.025-.017.005-.004-19.769-25.02.005-.004 19.769 25.02.005-.004z" fill="#969696" stroke="#969696" id="patch_141"/><path clip-path="url(#p67300817e5)" d="M174.392 288.583l.025.016-.005.004 19.769 25.02-.005.004-19.77-25.02-.004.004z" fill="#969696" stroke="#969696" id="patch_142"/><path clip-path="url(#p67300817e5)" d="M184.13 271.951l-.03.003.002-.006-28.269-6.85.001-.006 28.27 6.85v-.007z" fill="#969696" stroke="#969696" id="patch_143"/><path clip-path="url(#p67300817e5)" d="M196.666 274.989l.03-.003-.002.006 28.27 6.85-.002.006-28.27-6.85v.007z" fill="#969696" stroke="#969696" id="patch_144"/><path clip-path="url(#p67300817e5)" d="M212.607 211.906l-.013.028-.005-.005-14.513 15.2-.005-.004 14.514-15.2-.005-.004z" fill="#969696" stroke="#969696" id="patch_145"/><path clip-path="url(#p67300817e5)" d="M225.754 198.138l.013-.027.004.004 14.514-15.2.004.005-14.513 15.2.004.004z" fill="#969696" stroke="#969696" id="patch_146"/><path clip-path="url(#p67300817e5)" d="M210.95 253.33l-.022-.022.006-.003-12.864-26.176.006-.003 12.864 26.176.006-.003z" fill="#969696" stroke="#969696" id="patch_147"/><path clip-path="url(#p67300817e5)" d="M212.086 255.642l.022.022-.006.003 12.863 26.176-.005.003-12.864-26.176-.006.003z" fill="#969696" stroke="#969696" id="patch_148"/><path clip-path="url(#p67300817e5)" d="M223.909 234.413l-.03.002.001-.007-25.808-7.278.002-.006 25.808 7.278.002-.006z" fill="#969696" stroke="#969696" id="patch_149"/><path clip-path="url(#p67300817e5)" d="M232.8 236.92h.031l-.002.006 25.808 7.278-.002.006-25.807-7.278-.002.006z" fill="#969696" stroke="#969696" id="patch_150"/><path clip-path="url(#p67300817e5)" d="M257.4 170.29l-.017.025-.003-.005-17.091 12.61-.004-.005 17.09-12.61-.003-.006z" fill="#969696" stroke="#969696" id="patch_151"/><path clip-path="url(#p67300817e5)" d="M259.121 169.02l.018-.024.004.005 17.09-12.61.004.005-17.09 12.61.003.005z" fill="#969696" stroke="#969696" id="patch_152"/><path clip-path="url(#p67300817e5)" d="M248.605 210.7l-.018-.025.007-.001-8.31-27.756.006-.001 8.31 27.755.006-.002z" fill="#969696" stroke="#969696" id="patch_153"/><path clip-path="url(#p67300817e5)" d="M250.319 216.424l.017.025-.006.002 8.31 27.755-.007.002-8.31-27.755-.005.001z" fill="#969696" stroke="#969696" id="patch_154"/><path clip-path="url(#p67300817e5)" d="M259.372 190.431l-.03-.001.002-.006-19.058-7.503.002-.006 19.059 7.503.002-.006z" fill="#969696" stroke="#969696" id="patch_155"/><path clip-path="url(#p67300817e5)" d="M265.034 192.66l.03.002-.002.006 19.058 7.503-.002.006-19.059-7.503-.002.006z" fill="#969696" stroke="#969696" id="patch_156"/><path clip-path="url(#p67300817e5)" d="M286.674 146.118l-.014.027-.005-.004-10.418 10.254-.004-.004 10.418-10.255-.005-.004z" fill="#969696" stroke="#969696" id="patch_157"/><path clip-path="url(#p67300817e5)" d="M288.07 144.744l.013-.027.005.005 10.418-10.255.004.005-10.418 10.254.005.005z" fill="#969696" stroke="#969696" id="patch_158"/><path clip-path="url(#p67300817e5)" d="M280.156 178.168l-.014-.026.006-.001-3.916-21.747.006-.002 3.916 21.747h.007z" fill="#969696" stroke="#969696" id="patch_159"/><path clip-path="url(#p67300817e5)" d="M280.198 178.399l.014.026-.006.002 3.916 21.747h-.006l-3.916-21.746h-.007z" fill="#969696" stroke="#969696" id="patch_160"/><path clip-path="url(#p67300817e5)" d="M290.928 162.696l-.03-.003.002-.006-14.666-6.291.002-.006 14.666 6.292.003-.006z" fill="#969696" stroke="#969696" id="patch_161"/><path clip-path="url(#p67300817e5)" d="M293.408 163.76l.03.002-.003.006 14.666 6.292-.002.006-14.666-6.292-.003.006z" fill="#969696" stroke="#969696" id="patch_162"/><path clip-path="url(#p67300817e5)" d="M317.047 122.736l-.02.024-.003-.005-18.514 11.717-.004-.005 18.515-11.718-.004-.005z" fill="#969696" stroke="#969696" id="patch_163"/><path clip-path="url(#p67300817e5)" d="M315.75 123.558l.018-.024.004.006 18.514-11.718.004.005-18.515 11.718.004.005z" fill="#969696" stroke="#969696" id="patch_164"/><path clip-path="url(#p67300817e5)" d="M305.412 160.088l-.017-.025.006-.002-6.896-25.59.006-.002 6.897 25.59.006-.001z" fill="#969696" stroke="#969696" id="patch_165"/><path clip-path="url(#p67300817e5)" d="M301.196 144.444l.017.025-.006.002 6.896 25.59-.006.003-6.897-25.591-.006.001z" fill="#969696" stroke="#969696" id="patch_166"/><path clip-path="url(#p67300817e5)" d="M319.058 141.628h-.03l.001-.006-20.522-7.15.002-.005 20.523 7.149.002-.007z" fill="#969696" stroke="#969696" id="patch_167"/><path clip-path="url(#p67300817e5)" d="M320.285 142.056h.03l-.002.006 20.523 7.15-.002.005-20.523-7.149-.002.006z" fill="#969696" stroke="#969696" id="patch_168"/><path clip-path="url(#p67300817e5)" d="M345.366 105.529l-.02.022-.003-.005-11.053 6.281-.004-.005 11.054-6.282-.003-.006z" fill="#969696" stroke="#969696" id="patch_169"/><path clip-path="url(#p67300817e5)" d="M344.171 106.208l.02-.023.004.006 11.053-6.282.003.005-11.053 6.282.003.006z" fill="#969696" stroke="#969696" id="patch_170"/><path clip-path="url(#p67300817e5)" d="M338.9 138.168l-.014-.026.007-.001-4.608-26.316.006-.001 4.608 26.315h.006z" fill="#969696" stroke="#969696" id="patch_171"/><path clip-path="url(#p67300817e5)" d="M336.222 122.87l.014.027-.006.001 4.608 26.316h-.006l-4.608-26.315-.006.001z" fill="#969696" stroke="#969696" id="patch_172"/><path clip-path="url(#p67300817e5)" d="M356.05 126.752l-.03-.008.004-.006-21.738-14.91.004-.006 21.737 14.911.004-.005z" fill="#969696" stroke="#969696" id="patch_173"/><path clip-path="url(#p67300817e5)" d="M343.24 117.965l.029.008-.004.006 21.738 14.91-.004.006-21.738-14.911-.003.005z" fill="#969696" stroke="#969696" id="patch_174"/><path clip-path="url(#p67300817e5)" d="M363.027 126.217l-.017-.025.006-.002-7.77-26.277.007-.002 7.769 26.277.006-.001z" fill="#969696" stroke="#969696" id="patch_175"/><path clip-path="url(#p67300817e5)" d="M357.223 106.587l.018.025-.006.002 7.769 26.277-.006.002-7.77-26.277-.006.001z" fill="#969696" stroke="#969696" id="patch_176"/><path clip-path="url(#p67300817e5)" d="M214.331 292.82l-.013.027-.004-.004-20.134 20.784-.004-.004 20.133-20.785-.005-.004z" fill="#969696" stroke="#969696" id="patch_177"/><path clip-path="url(#p67300817e5)" d="M204.81 302.65l.012-.027.005.004 20.133-20.785.005.005-20.133 20.785.004.004z" fill="#969696" stroke="#969696" id="patch_178"/><path clip-path="url(#p67300817e5)" d="M237.705 267.603l-.012.028-.005-.005-12.723 14.22-.005-.003 12.723-14.221-.005-.004z" fill="#969696" stroke="#969696" id="patch_179"/><path clip-path="url(#p67300817e5)" d="M245.894 258.449l.012-.028.005.004 12.723-14.22.005.004-12.723 14.22.005.005z" fill="#969696" stroke="#969696" id="patch_180"/><path clip-path="url(#p67300817e5)" d="M251.01 282.145l-.028.01v-.007l-26.02-.3v-.006l26.02.3v-.007z" fill="#969696" stroke="#969696" id="patch_181"/><path clip-path="url(#p67300817e5)" d="M264.742 282.304l.03-.01v.007l26.019.3v.007l-26.02-.3v.006z" fill="#969696" stroke="#969696" id="patch_182"/><path clip-path="url(#p67300817e5)" d="M268.752 226.728l-.006.03-.006-.004-10.1 17.454-.006-.003 10.1-17.454-.005-.003z" fill="#969696" stroke="#969696" id="patch_183"/><path clip-path="url(#p67300817e5)" d="M274.004 217.653l.006-.03.005.003 10.101-17.453.006.003-10.101 17.454.005.003z" fill="#969696" stroke="#969696" id="patch_184"/><path clip-path="url(#p67300817e5)" d="M273.283 261.697l-.026-.016.005-.004-14.628-17.468.005-.004 14.628 17.468.004-.004z" fill="#969696" stroke="#969696" id="patch_185"/><path clip-path="url(#p67300817e5)" d="M276.144 265.114l.026.016-.005.004 14.628 17.468-.005.004-14.628-17.468-.005.005z" fill="#969696" stroke="#969696" id="patch_186"/><path clip-path="url(#p67300817e5)" d="M283.951 245.774l-.03.008.001-.007-25.286-1.565v-.006l25.287 1.565v-.006z" fill="#969696" stroke="#969696" id="patch_187"/><path clip-path="url(#p67300817e5)" d="M290.84 246.2l.03-.007v.006l25.286 1.566v.006l-25.287-1.565v.006z" fill="#969696" stroke="#969696" id="patch_188"/><path clip-path="url(#p67300817e5)" d="M296.813 184.235l-.01.029-.006-.004-12.676 15.916-.005-.004 12.676-15.916-.005-.004z" fill="#969696" stroke="#969696" id="patch_189"/><path clip-path="url(#p67300817e5)" d="M295.406 186.001l.01-.028.006.004 12.676-15.916.005.004-12.676 15.916.005.004z" fill="#969696" stroke="#969696" id="patch_190"/><path clip-path="url(#p67300817e5)" d="M301.164 225.496l-.024-.018.005-.004-17.029-25.298.006-.004 17.028 25.299.006-.004z" fill="#969696" stroke="#969696" id="patch_191"/><path clip-path="url(#p67300817e5)" d="M299.11 222.446l.025.018-.006.004 17.029 25.298-.005.004-17.03-25.299-.004.004z" fill="#969696" stroke="#969696" id="patch_192"/><path clip-path="url(#p67300817e5)" d="M305.294 204.666l-.03.003.002-.006-21.148-4.486.002-.006 21.147 4.486.001-.007z" fill="#969696" stroke="#969696" id="patch_193"/><path clip-path="url(#p67300817e5)" d="M323.803 208.592l.03-.004-.002.007 21.148 4.485-.002.007-21.147-4.486-.001.006z" fill="#969696" stroke="#969696" id="patch_194"/><path clip-path="url(#p67300817e5)" d="M321.427 161.575l-.02.024-.003-.006-13.302 8.472-.004-.005 13.303-8.472-.004-.005z" fill="#969696" stroke="#969696" id="patch_195"/><path clip-path="url(#p67300817e5)" d="M327.508 157.702l.02-.024.003.005 13.302-8.472.004.006-13.303 8.472.004.005z" fill="#969696" stroke="#969696" id="patch_196"/><path clip-path="url(#p67300817e5)" d="M324.975 189.749l-.026-.016.005-.004-16.856-19.664.004-.004 16.857 19.664.005-.005z" fill="#969696" stroke="#969696" id="patch_197"/><path clip-path="url(#p67300817e5)" d="M328.103 193.398l.026.015-.005.004 16.856 19.664-.004.004-16.857-19.663-.004.004z" fill="#969696" stroke="#969696" id="patch_198"/><path clip-path="url(#p67300817e5)" d="M332.509 181.555l-.03-.004.002-.006-24.382-11.48.002-.005 24.383 11.48.003-.006z" fill="#969696" stroke="#969696" id="patch_199"/><path clip-path="url(#p67300817e5)" d="M336.933 183.638l.03.003-.003.006 24.383 11.48-.003.006-24.383-11.48-.002.006z" fill="#969696" stroke="#969696" id="patch_200"/><path clip-path="url(#p67300817e5)" d="M353.753 140.49l-.019.023-.003-.005-12.894 8.709-.004-.006 12.894-8.708-.003-.006z" fill="#969696" stroke="#969696" id="patch_201"/><path clip-path="url(#p67300817e5)" d="M352.083 141.617l.018-.024.004.005 12.894-8.708.004.005-12.895 8.709.004.005z" fill="#969696" stroke="#969696" id="patch_202"/><path clip-path="url(#p67300817e5)" d="M353.674 177.962l-.02-.022.005-.003-12.827-28.722.006-.002 12.827 28.722.006-.003z" fill="#969696" stroke="#969696" id="patch_203"/><path clip-path="url(#p67300817e5)" d="M348.502 166.381l.02.023-.005.003 12.827 28.721-.006.003-12.827-28.722-.006.003z" fill="#969696" stroke="#969696" id="patch_204"/><path clip-path="url(#p67300817e5)" d="M304.833 263.319l-.01.029-.005-.004-14.025 19.262-.005-.003 14.025-19.263-.005-.004z" fill="#969696" stroke="#969696" id="patch_205"/><path clip-path="url(#p67300817e5)" d="M302.113 267.054l.01-.03.005.004 14.025-19.262.005.004-14.025 19.262.005.004z" fill="#969696" stroke="#969696" id="patch_206"/><path clip-path="url(#p67300817e5)" d="M330.456 230.558l-.01.029-.006-.004-14.282 17.187-.005-.004 14.283-17.188-.005-.004z" fill="#969696" stroke="#969696" id="patch_207"/><path clip-path="url(#p67300817e5)" d="M330.677 230.293l.011-.028.005.004 14.283-17.188.005.004-14.283 17.188.005.004z" fill="#969696" stroke="#969696" id="patch_208"/><path clip-path="url(#p67300817e5)" d="M354.11 203.064l-.012.027-.005-.004-9.113 9.999-.004-.005 9.112-9.998-.004-.005z" fill="#969696" stroke="#969696" id="patch_209"/><path clip-path="url(#p67300817e5)" d="M352.209 205.15l.012-.028.005.004 9.113-9.998.005.004-9.113 9.998.005.005z" fill="#969696" stroke="#969696" id="patch_210"/><g id="matplotlib.axis_1"><g id="xtick_1"><g id="line2d_1"><defs><path d="M0 0v3.5" id="m3a75fb7745" stroke="#969696" stroke-width=".4"/></defs><use x="87.152" xlink:href="#m3a75fb7745" y="313.628" fill="#969696" stroke="#969696" stroke-width=".4"/></g><g transform="matrix(.14 0 0 -.14 75.266 330.678)" fill="#969696" id="text_1"><defs><path d="M54.594 21.578H4v7.328h50.594z" id="HelveticaWorld-Regular-8722"/><path d="M4.39 45.125q0 12.39 6.391 18.781 6.406 6.407 17.938 6.407 9.656 0 15.812-5.86 6.157-5.86 6.157-15.14 0-7.22-3.547-12.188-3.532-4.953-10.422-8.703l-12.11-6.64Q13.922 15.921 12.5 8.296h38.188V0H2.593q.39 9.906 4.297 16.5 3.906 6.594 12.203 11.375l12.593 7.328q5.032 2.89 7.329 5.984 2.297 3.094 2.297 8.516 0 5.375-3.766 9.031-3.75 3.672-10.156 3.672-7.078 0-10.594-4.672-3.516-4.656-3.61-12.609z" id="HelveticaWorld-Regular-50"/><path d="M42.484 34.188q0 14.109-3.734 21.156-3.734 7.062-10.969 7.062-7.078 0-10.89-7.062-3.797-7.047-3.797-21.157 0-13.671 3.75-20.937Q20.609 6 27.78 6q7.235 0 10.969 7 3.734 7.016 3.734 21.188zm9.422 0q0-17.297-6.25-26.704-6.25-9.39-17.875-9.39-12.062 0-18.062 9.734-6 9.75-6 26.36 0 17.03 6.14 26.578 6.157 9.547 17.922 9.547 11.625 0 17.875-9.5t6.25-26.626z" id="HelveticaWorld-Regular-48"/></defs><use xlink:href="#HelveticaWorld-Regular-8722"/><use x="58.594" xlink:href="#HelveticaWorld-Regular-50"/><use x="114.209" xlink:href="#HelveticaWorld-Regular-48"/></g></g><g id="xtick_2"><use x="151.259" xlink:href="#m3a75fb7745" y="313.628" fill="#969696" stroke="#969696" stroke-width=".4" id="line2d_2"/><g transform="matrix(.14 0 0 -.14 139.372 330.678)" fill="#969696" id="text_2"><defs><path d="M35.89 0h-9.374v49.906H10.109v6.985q8.594.28 12.782 2.75Q27.094 62.109 29 70.313h6.89z" id="HelveticaWorld-Regular-49"/></defs><use xlink:href="#HelveticaWorld-Regular-8722"/><use x="58.594" xlink:href="#HelveticaWorld-Regular-49"/><use x="114.209" xlink:href="#HelveticaWorld-Regular-48"/></g></g><g id="xtick_3"><use x="215.365" xlink:href="#m3a75fb7745" y="313.628" fill="#969696" stroke="#969696" stroke-width=".4" id="line2d_3"/><use xlink:href="#HelveticaWorld-Regular-48" transform="matrix(.14 0 0 -.14 211.472 330.678)" fill="#969696" id="text_3"/></g><g id="xtick_4"><use x="279.471" xlink:href="#m3a75fb7745" y="313.628" fill="#969696" stroke="#969696" stroke-width=".4" id="line2d_4"/><g transform="matrix(.14 0 0 -.14 271.686 330.678)" fill="#969696" id="text_4"><use xlink:href="#HelveticaWorld-Regular-49"/><use x="55.615" xlink:href="#HelveticaWorld-Regular-48"/></g></g><g id="xtick_5"><use x="343.577" xlink:href="#m3a75fb7745" y="313.628" fill="#969696" stroke="#969696" stroke-width=".4" id="line2d_5"/><g transform="matrix(.14 0 0 -.14 335.792 330.678)" fill="#969696" id="text_5"><use xlink:href="#HelveticaWorld-Regular-50"/><use x="55.615" xlink:href="#HelveticaWorld-Regular-48"/></g></g><g transform="matrix(.14 0 0 -.14 200.952 347.625)" fill="#969696" id="text_6"><defs><path d="M38.375 26.703q-.969-1.015-3.828-1.656-2.86-.625-10.672-1.656-5.766-.688-8.469-2.844-2.703-2.14-2.703-5.656 0-4.297 2.281-6.688 2.297-2.39 7.329-2.39 6.296 0 11.171 3.578 4.891 3.593 4.891 8.718zM6.203 36.375q.297 8.844 5.734 13.14 5.454 4.297 15.844 4.297 8.297 0 13.907-3.765 5.624-3.75 5.624-10.844V9.078Q47.313 6 50.094 6q1.125 0 2.89.39V0Q50.594-.984 48-.984q-4.5 0-6.703 1.921-2.188 1.938-2.281 6.047-7.516-8.5-18.891-8.5-7.422 0-11.922 4.204Q3.72 6.89 3.72 13.624q0 6.89 3.906 11.125Q11.531 29 19 29.89l15.516 1.891q4.203.64 4.203 6.203 0 4.11-3.047 6.297-3.047 2.203-9.25 2.203-5.516 0-8.485-2.437-2.953-2.438-3.53-7.672z" id="HelveticaWorld-Regular-97"/><path d="M5.906 71.781h7.282V46.297H5.905z" id="HelveticaWorld-Regular-39"/></defs><use xlink:href="#HelveticaWorld-Regular-97"/><use x="54.932" xlink:href="#HelveticaWorld-Regular-39"/></g></g><g id="matplotlib.axis_2"><g id="ytick_1"><g id="line2d_6"><defs><path d="M0 0h-3.5" id="mc259f725f4" stroke="#969696" stroke-width=".3"/></defs><use x="47.265" xlink:href="#mc259f725f4" y="293.135" fill="#969696" stroke="#969696" stroke-width=".3"/></g><g transform="matrix(.14 0 0 -.14 16.492 298.16)" fill="#969696" id="text_7"><defs><path d="M14.703 40.922q5.813 4.39 13.625 4.39 9.469 0 16.281-6.296 6.813-6.297 6.813-16.22 0-10.78-6.578-17.796-6.563-7-18.422-7-10.313 0-16.266 5.047Q4.203 8.109 3.22 17.39h9.094q.671-5.672 4.437-8.672 3.766-3 10.453-3 6.485 0 10.64 4.484Q42 14.703 42 21.688q0 7.125-4.36 11.421-4.343 4.297-11.218 4.297-7.813 0-13.047-6.687l-7.563.39 5.266 37.594h36.438v-8.5H17.672z" id="HelveticaWorld-Regular-53"/></defs><use xlink:href="#HelveticaWorld-Regular-8722"/><use x="58.594" xlink:href="#HelveticaWorld-Regular-49"/><use x="114.209" xlink:href="#HelveticaWorld-Regular-53"/></g></g><g id="ytick_2"><use x="47.265" xlink:href="#mc259f725f4" y="261.082" fill="#969696" stroke="#969696" stroke-width=".3" id="line2d_7"/><g transform="matrix(.14 0 0 -.14 16.492 266.106)" fill="#969696" id="text_8"><use xlink:href="#HelveticaWorld-Regular-8722"/><use x="58.594" xlink:href="#HelveticaWorld-Regular-49"/><use x="114.209" xlink:href="#HelveticaWorld-Regular-48"/></g></g><g id="ytick_3"><use x="47.265" xlink:href="#mc259f725f4" y="229.029" fill="#969696" stroke="#969696" stroke-width=".3" id="line2d_8"/><g transform="matrix(.14 0 0 -.14 24.277 234.053)" fill="#969696" id="text_9"><use xlink:href="#HelveticaWorld-Regular-8722"/><use x="58.594" xlink:href="#HelveticaWorld-Regular-53"/></g></g><g id="ytick_4"><use x="47.265" xlink:href="#mc259f725f4" y="196.976" fill="#969696" stroke="#969696" stroke-width=".3" id="line2d_9"/><use xlink:href="#HelveticaWorld-Regular-48" transform="matrix(.14 0 0 -.14 32.48 202)" fill="#969696" id="text_10"/></g><g id="ytick_5"><use x="47.265" xlink:href="#mc259f725f4" y="164.923" fill="#969696" stroke="#969696" stroke-width=".3" id="line2d_10"/><use xlink:href="#HelveticaWorld-Regular-53" transform="matrix(.14 0 0 -.14 32.48 169.947)" fill="#969696" id="text_11"/></g><g id="ytick_6"><use x="47.265" xlink:href="#mc259f725f4" y="132.869" fill="#969696" stroke="#969696" stroke-width=".3" id="line2d_11"/><g transform="matrix(.14 0 0 -.14 24.695 137.894)" fill="#969696" id="text_12"><use xlink:href="#HelveticaWorld-Regular-49"/><use x="55.615" xlink:href="#HelveticaWorld-Regular-48"/></g></g><g id="ytick_7"><use x="47.265" xlink:href="#mc259f725f4" y="100.816" fill="#969696" stroke="#969696" stroke-width=".3" id="line2d_12"/><g transform="matrix(.14 0 0 -.14 24.695 105.841)" fill="#969696" id="text_13"><use xlink:href="#HelveticaWorld-Regular-49"/><use x="55.615" xlink:href="#HelveticaWorld-Regular-53"/></g></g><g id="ytick_8"><use x="47.265" xlink:href="#mc259f725f4" y="68.763" fill="#969696" stroke="#969696" stroke-width=".3" id="line2d_13"/><g transform="matrix(.14 0 0 -.14 24.695 73.788)" fill="#969696" id="text_14"><use xlink:href="#HelveticaWorld-Regular-50"/><use x="55.615" xlink:href="#HelveticaWorld-Regular-48"/></g></g><g transform="matrix(.14 0 0 -.14 7.2 177.674)" fill="#969696" id="text_15"><defs><path d="M43.406 26.313q0 10.5-3.718 15.046-3.704 4.547-10.579 4.547-6.984-.11-10.562-5.453Q14.984 35.11 14.984 25q0-10.297 4.297-14.594Q23.578 6.11 29.297 6.11q6.5 0 10.297 5.344 3.812 5.344 3.812 14.86zM6.594 0v71.781h8.781V45.703h.203q5.61 8.11 15.14 8.11 9.766 0 15.766-7.25t6-18.876q0-13.093-6.062-21.156Q40.375-1.516 29.5-1.516q-9.578 0-14.406 8.016h-.203V0z" id="HelveticaWorld-Regular-98"/></defs><use xlink:href="#HelveticaWorld-Regular-98"/><use x="56.494" xlink:href="#HelveticaWorld-Regular-39"/></g></g><g transform="matrix(.14 0 0 -.14 41.299 17.516)" fill="#969696" id="text_16"><defs><path d="M67.484 0v42.39q0 .829.094 8.126t.094 9.78h-.281L47.312 0h-9.609L17.578 60.203h-.297q0-3.61.094-10.297.11-6.687.11-7.515V0H8.108v71.781h13.86L42.39 11.078h.28l20.313 60.703h13.922V0z" id="HelveticaWorld-Regular-77"/><path d="M39.594 34.719q-1.89 11.187-12.39 11.187-6.5 0-10.454-5.203-3.953-5.203-3.953-14.484 0-10.11 3.656-15.11 3.672-5 10.64-5 4.688 0 8.11 3.438 3.422 3.437 4.39 8.953h8.5q-1.312-9.703-6.859-14.86-5.547-5.156-14.328-5.156-10.297 0-16.89 7.047-6.594 7.063-6.594 19.172 0 13.281 6.594 21.188 6.593 7.922 18.5 7.922 8.687 0 13.843-5.204 5.157-5.203 5.735-13.89z" id="HelveticaWorld-Regular-99"/><path d="M44 29.5L33.406 61.078h-.203L21.687 29.5zm-25.297-8.594L11.188 0h-9.97l27 71.781h10.985L65.187 0H54.594l-7.078 20.906z" id="HelveticaWorld-Regular-65"/><path d="M13.094 26.313q0-9.704 3.844-14.954 3.859-5.25 10.265-5.25 6.094 0 10.188 4.485 4.109 4.5 4.109 13.094 0 11.03-3.5 16.625-3.484 5.593-10.61 5.593-6.78 0-10.546-4.453-3.75-4.437-3.75-15.14zM50.39 0h-8.297v7.172h-.203q-4.97-8.688-15.078-8.688-10.891 0-16.86 8.297Q4 15.094 4 27.688q0 11.625 5.906 18.875 5.922 7.25 15.875 7.25 9.813 0 15.625-8.891l.203.594V71.78h8.782z" id="HelveticaWorld-Regular-100"/><path d="M6.594 52.297h8.297v-7.375h.203q5.906 8.89 15.812 8.89 9.813 0 13.922-8.5 3.75 4.594 7.266 6.547 3.515 1.953 8.703 1.953 6.781 0 11.484-4.453Q77 44.922 77 36.187V0h-8.781v33.797q0 6.094-2.297 9.094-2.297 3.015-7.422 3.015-5.172 0-8.75-4.203-3.563-4.203-3.563-9.812V0h-8.78v36.188q0 4.53-2.11 7.124-2.094 2.594-6.094 2.594-6.297 0-10.062-4.687-3.766-4.688-3.766-12.703V0H6.594z" id="HelveticaWorld-Regular-109"/><path d="M27.594 31.39q6 0 9.75 4.047 3.765 4.063 3.765 11.97 0 6.5-3.562 10.75-3.563 4.25-10.64 4.25-6.11 0-9.876-4.298-3.75-4.297-3.75-11.53 0-7.376 3.516-11.282 3.515-3.906 10.797-3.906zm-1.282-7.906q-10 0-16.062 6.203-6.047 6.204-6.047 16.5 0 10.407 6.094 17.266 6.11 6.86 16.515 6.86 12.11 0 18.36-8.157 6.25-8.156 6.25-24.453 0-16.906-6.406-28.266Q38.625-1.905 25.875-1.905q-9.953 0-15.422 5.593-5.469 5.594-5.469 13.204h8.829q.39-5.266 3.437-8.375 3.063-3.094 8.438-3.094 7.609 0 11.515 6.781Q41.11 19 42.578 31.688l-.187.203q-5.672-8.407-16.078-8.407z" id="HelveticaWorld-Regular-57"/><path d="M3.719 68.797h48.578v-7.719Q42.28 50.875 33.984 33.484 25.687 16.11 23.391 0h-9.672q1.469 13.281 9.719 30.531 8.25 17.266 18.953 29.672H3.719z" id="HelveticaWorld-Regular-55"/><path d="M10.594 24.703h22.61v31.89h-.188zM42 17.093V0h-8.797v17.094H2.484v8.593L34.72 70.314H42v-45.61h10.297v-7.61z" id="HelveticaWorld-Regular-52"/><path d="M12.703 26.219q0-8.735 3.953-14.375 3.953-5.64 11.219-5.64 7.531 0 11.438 5.905 3.906 5.907 3.906 14.11 0 8.297-3.907 14.078-3.906 5.797-11.437 5.797-6.969 0-11.078-5.453-4.094-5.438-4.094-14.422zm-8.984 0q0 11.672 6.484 19.625 6.5 7.968 17.672 7.968 11.438 0 17.875-8.062 6.453-8.047 6.453-19.531 0-11.516-6.406-19.625-6.39-8.11-17.922-8.11-11.078 0-17.625 7.86-6.531 7.86-6.531 19.875z" id="HelveticaWorld-Regular-111"/><path d="M15.375 0H6.594v71.781h8.781z" id="HelveticaWorld-Regular-108"/><path d="M15.375 0H6.594v52.297h8.297v-8.688h.203q5.703 10.203 14.687 10.203 1.422 0 2.297-.296V44.39h-3.266q-5.906 0-9.671-4.016-3.766-4-3.766-9.953z" id="HelveticaWorld-Regular-114"/><path d="M6.594 61.813v9.968h8.781v-9.969zM15.375 0H6.594v52.297h8.781z" id="HelveticaWorld-Regular-105"/><path d="M36.078 37.406q-.187 4.688-3.344 6.735-3.14 2.047-9.047 2.047-4.296 0-7.359-1.907-3.047-1.89-3.047-5.468 0-2.829 1.797-4.172 1.813-1.344 7.828-2.86l8.688-2.187q7.906-2 11.297-5.11 3.406-3.093 3.406-8.656 0-7.719-5.64-12.531-5.641-4.813-15.063-4.813-11 0-16.64 4.563-5.626 4.578-5.735 13.75h8.5q.203-5.422 3.594-8.063 3.39-2.625 10.171-2.625 5.516 0 8.766 2.188 3.25 2.203 3.25 6.11 0 2.78-2.11 4.437-2.093 1.672-8.296 3.078l-10.203 2.5q-6.203 1.562-9.157 4.656-2.953 3.094-2.953 8.031 0 7.72 5.516 12.203 5.531 4.5 14.406 4.5 9.485 0 14.531-4.624 5.047-4.61 5.344-11.782z" id="HelveticaWorld-Regular-115"/><path d="M17.188 45.016V10.984q0-2 1.093-3.046 1.11-1.047 3.938-1.047h3.375V0Q20.797-.688 19-.688q-5.516 0-8.063 2.641-2.53 2.64-2.53 8.547v34.516H1.311v7.28h7.094v14.595h8.781V52.297h8.407v-7.281z" id="HelveticaWorld-Regular-116"/><path d="M49.219 0h-8.844v32.172q0 7.422-2.594 10.578-2.578 3.156-8.578 3.156-5.906 0-9.875-4.5-3.953-4.484-3.953-12.89V0H6.594v52.297h8.297v-7.375h.203q6.203 8.89 15.812 8.89 8.89 0 13.594-4.718 4.719-4.703 4.719-13.5z" id="HelveticaWorld-Regular-110"/><path d="M42.484 30.328q-.687 8.485-4.5 12.031-3.797 3.547-10.109 3.547-6.39 0-10.328-4.5-3.922-4.484-4.172-11.078zm8.391-13.922q-1.453-8.11-7.953-13.422-5.719-4.5-15.047-4.593-10.984.093-17.438 7.203Q4 12.704 4 24.704q0 13.78 6.64 21.437 6.641 7.672 18.47 7.672 10.593 0 16.546-7.922 5.953-7.907 5.953-22.594H13.375q0-8.203 3.813-12.703Q21 6.109 28.608 6.109q5.375 0 9.235 3.235 3.86 3.25 4.25 7.062z" id="HelveticaWorld-Regular-101"/><path d="M17.188 45.016V0H8.405v45.016H1.22v7.28h7.187v8.985q0 5.907 3.578 8.703 3.594 2.813 10.032 2.813 2.203 0 3.968-.188v-7.906q-1.562.188-3.578.188-2.922 0-4.078-1.438-1.14-1.437-1.14-4.656v-6.5h8.796v-7.281z" id="HelveticaWorld-Regular-102"/><path d="M58.016 50.203q-1.625 7.313-6.782 11.094-5.14 3.797-13.343 3.797-10.594 0-17.047-7.703-6.438-7.688-6.438-20.766 0-15.14 6.094-22.547 6.11-7.39 17.688-7.39 7.609 0 13.093 5.046 5.5 5.063 7.407 14.688h9.421Q66.22 12.594 57.625 5.344t-20.906-7.25q-14.703 0-23.516 10.11Q4.391 18.311 4.391 36.28q0 17.328 9.203 27.36 9.203 10.047 24.297 10.047 12.5 0 20.265-6.454 7.766-6.437 9.235-17.03z" id="HelveticaWorld-Regular-67"/><path d="M14.11 21.578q0-6.875 4.093-11.234Q22.313 6 28.906 6q6.297 0 10.032 4.438 3.734 4.453 3.734 11.687 0 6.297-3.688 10.547-3.687 4.25-10.468 4.25-6.594 0-10.5-4.156-3.907-4.157-3.907-11.188zM41.702 51.61q-.984 5.375-3.984 8.078-3 2.72-8.125 2.72-8.11 0-12.36-7.923-4.25-7.906-4.343-18.109l.203-.188q5.61 8.641 16.687 8.641 8.844 0 15.438-5.86 6.593-5.859 6.593-16.452 0-10.5-6.25-17.47-6.25-6.952-16.843-6.952-12.219 0-18.563 8.687-6.344 8.703-6.344 25.938 0 16.593 6.485 27.093 6.5 10.5 19.484 10.5 8.407 0 14.219-5.015 5.813-5 6.297-13.688z" id="HelveticaWorld-Regular-54"/><path d="M29.781 73.297q-8.875-15.875-11.218-25.844-2.344-9.953-2.344-21.969 0-11.859 3.187-22.125Q22.61-6.89 29.891-20.703h-5.86Q15.72-8.593 11.25 2.187 6.781 12.985 6.781 26.125q0 12.36 4.047 23.563 4.063 11.203 12.86 23.609z" id="HelveticaWorld-Regular-40"/><path d="M64.11 71.781V25.203q0-11.922-7.547-19.515-7.532-7.594-21.36-7.594-12.89 0-20.234 7-7.344 7.015-7.344 18.781v47.906h9.563V26.61q0-9.906 4.953-14.922 4.953-5 13.265-5 8.875 0 13.875 5 5.016 5.016 5.016 14.735v45.36z" id="HelveticaWorld-Regular-85"/><path d="M50.39 50.781q-.296 6.844-5.109 10.719-4.797 3.875-12.656 3.875-7.922 0-12.172-3.25-4.234-3.234-4.234-9.344 0-3.265 1.843-5.61 1.86-2.343 6.641-3.468l20.516-4.687q8.297-1.813 12.297-6.875 4.015-5.047 4.015-12.313 0-10.64-7.812-16.187-7.813-5.547-20.313-5.547-9.531 0-15.031 2.437-5.484 2.453-9.734 7.766-4.25 5.328-4.25 14.89h9.093q0-8 5.313-12.406 5.328-4.39 14.5-4.39 8.89 0 13.844 3.156 4.953 3.156 4.953 8.953 0 5.281-2.953 7.89Q46.188 29 37.594 31l-15.469 3.625q-7.719 1.75-11.531 6.125Q6.78 45.125 6.78 51.516q0 9.672 6.516 15.922 6.531 6.25 18.203 6.25 13.172 0 20.328-5.5 7.156-5.485 7.688-17.407z" id="HelveticaWorld-Regular-83"/><path d="M3.516-20.703q8.796 15.922 11.14 25.86Q17 15.093 17 27.093q0 11.922-3.156 22.172T3.422 73.296h5.765q8.391-12.109 12.86-22.905 4.469-10.797 4.469-23.875 0-12.407-4.063-23.61-4.047-11.203-12.828-23.61z" id="HelveticaWorld-Regular-41"/></defs><use xlink:href="#HelveticaWorld-Regular-77"/><use x="85.01" xlink:href="#HelveticaWorld-Regular-97"/><use x="139.941" xlink:href="#HelveticaWorld-Regular-99"/><use x="191.211" xlink:href="#HelveticaWorld-Regular-65"/><use x="256.41" xlink:href="#HelveticaWorld-Regular-100"/><use x="313.393" xlink:href="#HelveticaWorld-Regular-97"/><use x="368.324" xlink:href="#HelveticaWorld-Regular-109"/><use x="451.332" xlink:href="#HelveticaWorld-Regular-32"/><use x="475.746" xlink:href="#HelveticaWorld-Regular-49"/><use x="531.361" xlink:href="#HelveticaWorld-Regular-57"/><use x="586.977" xlink:href="#HelveticaWorld-Regular-55"/><use x="642.592" xlink:href="#HelveticaWorld-Regular-52"/><use x="698.207" xlink:href="#HelveticaWorld-Regular-32"/><use x="722.621" xlink:href="#HelveticaWorld-Regular-99"/><use x="773.891" xlink:href="#HelveticaWorld-Regular-111"/><use x="829.799" xlink:href="#HelveticaWorld-Regular-108"/><use x="851.82" xlink:href="#HelveticaWorld-Regular-111"/><use x="907.729" xlink:href="#HelveticaWorld-Regular-114"/><use x="940.297" xlink:href="#HelveticaWorld-Regular-32"/><use x="964.711" xlink:href="#HelveticaWorld-Regular-100"/><use x="1021.693" xlink:href="#HelveticaWorld-Regular-105"/><use x="1043.715" xlink:href="#HelveticaWorld-Regular-115"/><use x="1093.715" xlink:href="#HelveticaWorld-Regular-116"/><use x="1121.4" xlink:href="#HelveticaWorld-Regular-97"/><use x="1176.332" xlink:href="#HelveticaWorld-Regular-110"/><use x="1231.508" xlink:href="#HelveticaWorld-Regular-99"/><use x="1282.777" xlink:href="#HelveticaWorld-Regular-101"/><use x="1338.197" xlink:href="#HelveticaWorld-Regular-32"/><use x="1362.611" xlink:href="#HelveticaWorld-Regular-100"/><use x="1419.594" xlink:href="#HelveticaWorld-Regular-97"/><use x="1474.525" xlink:href="#HelveticaWorld-Regular-116"/><use x="1502.211" xlink:href="#HelveticaWorld-Regular-97"/><use x="1557.143" xlink:href="#HelveticaWorld-Regular-32"/><use x="1581.557" xlink:href="#HelveticaWorld-Regular-102"/><use x="1607.242" xlink:href="#HelveticaWorld-Regular-111"/><use x="1663.15" xlink:href="#HelveticaWorld-Regular-114"/><use x="1695.719" xlink:href="#HelveticaWorld-Regular-32"/><use x="1720.133" xlink:href="#HelveticaWorld-Regular-67"/><use x="1790.697" xlink:href="#HelveticaWorld-Regular-65"/><use x="1857.396" xlink:href="#HelveticaWorld-Regular-77"/><use x="1942.406" xlink:href="#HelveticaWorld-Regular-49"/><use x="1998.021" xlink:href="#HelveticaWorld-Regular-54"/><use x="2053.637" xlink:href="#HelveticaWorld-Regular-32"/><use x="2078.051" xlink:href="#HelveticaWorld-Regular-40"/><use x="2111.352" xlink:href="#HelveticaWorld-Regular-85"/><use x="2182.934" xlink:href="#HelveticaWorld-Regular-67"/><use x="2255.248" xlink:href="#HelveticaWorld-Regular-83"/><use x="2321.459" xlink:href="#HelveticaWorld-Regular-41"/></g></g></g><defs><clipPath id="p67300817e5"><path d="M47.265 47.516h317.738v266.112H47.265z"/></clipPath></defs></svg>