<svg height="476.799" viewBox="0 0 319.734 357.599" width="426.313" xmlns="http://www.w3.org/2000/svg" xmlns:xlink="http://www.w3.org/1999/xlink"><defs><style>*{stroke-linecap:butt;stroke-linejoin:round}</style></defs><g id="figure_1"><path d="M0 357.6h319.734V0H0z" fill="none" id="patch_1"/><g id="axes_1"><path d="M48.918 313.504h247.821V47.392H48.918z" fill="none" id="patch_2"/><g id="PathCollection_1"><defs><path d="M0 3a3 3 0 100-6 3 3 0 000 6z" id="m87f396ea05" stroke="#000"/></defs><g clip-path="url(#p94128b9a1f)" stroke="#000"><use x="130.665" xlink:href="#m87f396ea05" y="59.728"/><use x="116.223" xlink:href="#m87f396ea05" y="113.539"/><use x="130.665" xlink:href="#m87f396ea05" y="59.728"/><use x="160.407" xlink:href="#m87f396ea05" y="103.826"/><use x="116.223" xlink:href="#m87f396ea05" y="113.539"/><use x="160.407" xlink:href="#m87f396ea05" y="103.826"/><use x="116.223" xlink:href="#m87f396ea05" y="113.539"/><use x="88.286" xlink:href="#m87f396ea05" y="159.27"/><use x="116.223" xlink:href="#m87f396ea05" y="113.539"/><use x="123.702" xlink:href="#m87f396ea05" y="150.33"/><use x="160.407" xlink:href="#m87f396ea05" y="103.826"/><use x="201.926" xlink:href="#m87f396ea05" y="103.997"/><use x="160.407" xlink:href="#m87f396ea05" y="103.826"/><use x="123.702" xlink:href="#m87f396ea05" y="150.33"/><use x="160.407" xlink:href="#m87f396ea05" y="103.826"/><use x="167.627" xlink:href="#m87f396ea05" y="140.101"/><use x="201.926" xlink:href="#m87f396ea05" y="103.997"/><use x="167.627" xlink:href="#m87f396ea05" y="140.101"/><use x="201.926" xlink:href="#m87f396ea05" y="103.997"/><use x="200.55" xlink:href="#m87f396ea05" y="137.608"/><use x="88.286" xlink:href="#m87f396ea05" y="159.27"/><use x="123.702" xlink:href="#m87f396ea05" y="150.33"/><use x="88.286" xlink:href="#m87f396ea05" y="159.27"/><use x="66.71" xlink:href="#m87f396ea05" y="211.018"/><use x="88.286" xlink:href="#m87f396ea05" y="159.27"/><use x="98.601" xlink:href="#m87f396ea05" y="199.585"/><use x="123.702" xlink:href="#m87f396ea05" y="150.33"/><use x="167.627" xlink:href="#m87f396ea05" y="140.101"/><use x="123.702" xlink:href="#m87f396ea05" y="150.33"/><use x="98.601" xlink:href="#m87f396ea05" y="199.585"/><use x="123.702" xlink:href="#m87f396ea05" y="150.33"/><use x="134.017" xlink:href="#m87f396ea05" y="187.293"/><use x="167.627" xlink:href="#m87f396ea05" y="140.101"/><use x="200.55" xlink:href="#m87f396ea05" y="137.608"/><use x="167.627" xlink:href="#m87f396ea05" y="140.101"/><use x="134.017" xlink:href="#m87f396ea05" y="187.293"/><use x="167.627" xlink:href="#m87f396ea05" y="140.101"/><use x="173.301" xlink:href="#m87f396ea05" y="174.829"/><use x="200.55" xlink:href="#m87f396ea05" y="137.608"/><use x="246.625" xlink:href="#m87f396ea05" y="129.958"/><use x="200.55" xlink:href="#m87f396ea05" y="137.608"/><use x="173.301" xlink:href="#m87f396ea05" y="174.829"/><use x="200.55" xlink:href="#m87f396ea05" y="137.608"/><use x="208.459" xlink:href="#m87f396ea05" y="167.264"/><use x="246.625" xlink:href="#m87f396ea05" y="129.958"/><use x="208.459" xlink:href="#m87f396ea05" y="167.264"/><use x="246.625" xlink:href="#m87f396ea05" y="129.958"/><use x="247.141" xlink:href="#m87f396ea05" y="161.849"/><use x="66.71" xlink:href="#m87f396ea05" y="211.018"/><use x="98.601" xlink:href="#m87f396ea05" y="199.585"/><use x="66.71" xlink:href="#m87f396ea05" y="211.018"/><use x="60.607" xlink:href="#m87f396ea05" y="248.583"/><use x="66.71" xlink:href="#m87f396ea05" y="211.018"/><use x="80.034" xlink:href="#m87f396ea05" y="240.331"/><use x="98.601" xlink:href="#m87f396ea05" y="199.585"/><use x="134.017" xlink:href="#m87f396ea05" y="187.293"/><use x="98.601" xlink:href="#m87f396ea05" y="199.585"/><use x="80.034" xlink:href="#m87f396ea05" y="240.331"/><use x="98.601" xlink:href="#m87f396ea05" y="199.585"/><use x="108.573" xlink:href="#m87f396ea05" y="231.133"/><use x="134.017" xlink:href="#m87f396ea05" y="187.293"/><use x="173.301" xlink:href="#m87f396ea05" y="174.829"/><use x="134.017" xlink:href="#m87f396ea05" y="187.293"/><use x="108.573" xlink:href="#m87f396ea05" y="231.133"/><use x="134.017" xlink:href="#m87f396ea05" y="187.293"/><use x="141.581" xlink:href="#m87f396ea05" y="216.863"/><use x="173.301" xlink:href="#m87f396ea05" y="174.829"/><use x="208.459" xlink:href="#m87f396ea05" y="167.264"/><use x="173.301" xlink:href="#m87f396ea05" y="174.829"/><use x="141.581" xlink:href="#m87f396ea05" y="216.863"/><use x="173.301" xlink:href="#m87f396ea05" y="174.829"/><use x="174.246" xlink:href="#m87f396ea05" y="206.548"/><use x="208.459" xlink:href="#m87f396ea05" y="167.264"/><use x="247.141" xlink:href="#m87f396ea05" y="161.849"/><use x="208.459" xlink:href="#m87f396ea05" y="167.264"/><use x="174.246" xlink:href="#m87f396ea05" y="206.548"/><use x="208.459" xlink:href="#m87f396ea05" y="167.264"/><use x="212.155" xlink:href="#m87f396ea05" y="194.858"/><use x="247.141" xlink:href="#m87f396ea05" y="161.849"/><use x="277.915" xlink:href="#m87f396ea05" y="162.107"/><use x="247.141" xlink:href="#m87f396ea05" y="161.849"/><use x="212.155" xlink:href="#m87f396ea05" y="194.858"/><use x="247.141" xlink:href="#m87f396ea05" y="161.849"/><use x="245.765" xlink:href="#m87f396ea05" y="191.075"/><use x="277.915" xlink:href="#m87f396ea05" y="162.107"/><use x="245.765" xlink:href="#m87f396ea05" y="191.075"/><use x="277.915" xlink:href="#m87f396ea05" y="162.107"/><use x="285.049" xlink:href="#m87f396ea05" y="183.425"/><use x="60.607" xlink:href="#m87f396ea05" y="248.583"/><use x="80.034" xlink:href="#m87f396ea05" y="240.331"/><use x="60.607" xlink:href="#m87f396ea05" y="248.583"/><use x="66.022" xlink:href="#m87f396ea05" y="279.529"/><use x="80.034" xlink:href="#m87f396ea05" y="240.331"/><use x="108.573" xlink:href="#m87f396ea05" y="231.133"/><use x="80.034" xlink:href="#m87f396ea05" y="240.331"/><use x="66.022" xlink:href="#m87f396ea05" y="279.529"/><use x="80.034" xlink:href="#m87f396ea05" y="240.331"/><use x="91.209" xlink:href="#m87f396ea05" y="266.634"/><use x="108.573" xlink:href="#m87f396ea05" y="231.133"/><use x="141.581" xlink:href="#m87f396ea05" y="216.863"/><use x="108.573" xlink:href="#m87f396ea05" y="231.133"/><use x="91.209" xlink:href="#m87f396ea05" y="266.634"/><use x="108.573" xlink:href="#m87f396ea05" y="231.133"/><use x="120.951" xlink:href="#m87f396ea05" y="250.818"/><use x="141.581" xlink:href="#m87f396ea05" y="216.863"/><use x="174.246" xlink:href="#m87f396ea05" y="206.548"/><use x="141.581" xlink:href="#m87f396ea05" y="216.863"/><use x="120.951" xlink:href="#m87f396ea05" y="250.818"/><use x="141.581" xlink:href="#m87f396ea05" y="216.863"/><use x="149.748" xlink:href="#m87f396ea05" y="237.838"/><use x="174.246" xlink:href="#m87f396ea05" y="206.548"/><use x="212.155" xlink:href="#m87f396ea05" y="194.858"/><use x="174.246" xlink:href="#m87f396ea05" y="206.548"/><use x="149.748" xlink:href="#m87f396ea05" y="237.838"/><use x="174.246" xlink:href="#m87f396ea05" y="206.548"/><use x="183.788" xlink:href="#m87f396ea05" y="227.952"/><use x="212.155" xlink:href="#m87f396ea05" y="194.858"/><use x="245.765" xlink:href="#m87f396ea05" y="191.075"/><use x="212.155" xlink:href="#m87f396ea05" y="194.858"/><use x="183.788" xlink:href="#m87f396ea05" y="227.952"/><use x="212.155" xlink:href="#m87f396ea05" y="194.858"/><use x="214.046" xlink:href="#m87f396ea05" y="218.067"/><use x="245.765" xlink:href="#m87f396ea05" y="191.075"/><use x="285.049" xlink:href="#m87f396ea05" y="183.425"/><use x="245.765" xlink:href="#m87f396ea05" y="191.075"/><use x="214.046" xlink:href="#m87f396ea05" y="218.067"/><use x="245.765" xlink:href="#m87f396ea05" y="191.075"/><use x="256.854" xlink:href="#m87f396ea05" y="212.308"/><use x="285.049" xlink:href="#m87f396ea05" y="183.425"/><use x="256.854" xlink:href="#m87f396ea05" y="212.308"/><use x="285.049" xlink:href="#m87f396ea05" y="183.425"/><use x="281.009" xlink:href="#m87f396ea05" y="211.276"/><use x="66.022" xlink:href="#m87f396ea05" y="279.529"/><use x="91.209" xlink:href="#m87f396ea05" y="266.634"/><use x="66.022" xlink:href="#m87f396ea05" y="279.529"/><use x="79.002" xlink:href="#m87f396ea05" y="299.815"/><use x="91.209" xlink:href="#m87f396ea05" y="266.634"/><use x="120.951" xlink:href="#m87f396ea05" y="250.818"/><use x="91.209" xlink:href="#m87f396ea05" y="266.634"/><use x="79.002" xlink:href="#m87f396ea05" y="299.815"/><use x="91.209" xlink:href="#m87f396ea05" y="266.634"/><use x="102.899" xlink:href="#m87f396ea05" y="283.053"/><use x="120.951" xlink:href="#m87f396ea05" y="250.818"/><use x="149.748" xlink:href="#m87f396ea05" y="237.838"/><use x="120.951" xlink:href="#m87f396ea05" y="250.818"/><use x="102.899" xlink:href="#m87f396ea05" y="283.053"/><use x="120.951" xlink:href="#m87f396ea05" y="250.818"/><use x="125.851" xlink:href="#m87f396ea05" y="270.503"/><use x="149.748" xlink:href="#m87f396ea05" y="237.838"/><use x="183.788" xlink:href="#m87f396ea05" y="227.952"/><use x="149.748" xlink:href="#m87f396ea05" y="237.838"/><use x="125.851" xlink:href="#m87f396ea05" y="270.503"/><use x="149.748" xlink:href="#m87f396ea05" y="237.838"/><use x="155.249" xlink:href="#m87f396ea05" y="255.632"/><use x="183.788" xlink:href="#m87f396ea05" y="227.952"/><use x="214.046" xlink:href="#m87f396ea05" y="218.067"/><use x="183.788" xlink:href="#m87f396ea05" y="227.952"/><use x="155.249" xlink:href="#m87f396ea05" y="255.632"/><use x="183.788" xlink:href="#m87f396ea05" y="227.952"/><use x="188" xlink:href="#m87f396ea05" y="243.683"/><use x="214.046" xlink:href="#m87f396ea05" y="218.067"/><use x="256.854" xlink:href="#m87f396ea05" y="212.308"/><use x="214.046" xlink:href="#m87f396ea05" y="218.067"/><use x="188" xlink:href="#m87f396ea05" y="243.683"/><use x="214.046" xlink:href="#m87f396ea05" y="218.067"/><use x="223.416" xlink:href="#m87f396ea05" y="238.182"/><use x="256.854" xlink:href="#m87f396ea05" y="212.308"/><use x="281.009" xlink:href="#m87f396ea05" y="211.276"/><use x="256.854" xlink:href="#m87f396ea05" y="212.308"/><use x="223.416" xlink:href="#m87f396ea05" y="238.182"/><use x="256.854" xlink:href="#m87f396ea05" y="212.308"/><use x="254.018" xlink:href="#m87f396ea05" y="234.141"/><use x="281.009" xlink:href="#m87f396ea05" y="211.276"/><use x="254.018" xlink:href="#m87f396ea05" y="234.141"/><use x="79.002" xlink:href="#m87f396ea05" y="299.815"/><use x="102.899" xlink:href="#m87f396ea05" y="283.053"/><use x="102.899" xlink:href="#m87f396ea05" y="283.053"/><use x="125.851" xlink:href="#m87f396ea05" y="270.503"/><use x="102.899" xlink:href="#m87f396ea05" y="283.053"/><use x="115.02" xlink:href="#m87f396ea05" y="301.019"/><use x="125.851" xlink:href="#m87f396ea05" y="270.503"/><use x="155.249" xlink:href="#m87f396ea05" y="255.632"/><use x="125.851" xlink:href="#m87f396ea05" y="270.503"/><use x="115.02" xlink:href="#m87f396ea05" y="301.019"/><use x="125.851" xlink:href="#m87f396ea05" y="270.503"/><use x="139.69" xlink:href="#m87f396ea05" y="289.414"/><use x="155.249" xlink:href="#m87f396ea05" y="255.632"/><use x="188" xlink:href="#m87f396ea05" y="243.683"/><use x="155.249" xlink:href="#m87f396ea05" y="255.632"/><use x="139.69" xlink:href="#m87f396ea05" y="289.414"/><use x="155.249" xlink:href="#m87f396ea05" y="255.632"/><use x="172.699" xlink:href="#m87f396ea05" y="278.239"/><use x="188" xlink:href="#m87f396ea05" y="243.683"/><use x="223.416" xlink:href="#m87f396ea05" y="238.182"/><use x="188" xlink:href="#m87f396ea05" y="243.683"/><use x="172.699" xlink:href="#m87f396ea05" y="278.239"/><use x="188" xlink:href="#m87f396ea05" y="243.683"/><use x="194.791" xlink:href="#m87f396ea05" y="272.222"/><use x="223.416" xlink:href="#m87f396ea05" y="238.182"/><use x="254.018" xlink:href="#m87f396ea05" y="234.141"/><use x="223.416" xlink:href="#m87f396ea05" y="238.182"/><use x="194.791" xlink:href="#m87f396ea05" y="272.222"/><use x="115.02" xlink:href="#m87f396ea05" y="301.019"/><use x="139.69" xlink:href="#m87f396ea05" y="289.414"/><use x="139.69" xlink:href="#m87f396ea05" y="289.414"/><use x="172.699" xlink:href="#m87f396ea05" y="278.239"/><use x="172.699" xlink:href="#m87f396ea05" y="278.239"/><use x="194.791" xlink:href="#m87f396ea05" y="272.222"/></g></g><path clip-path="url(#p94128b9a1f)" d="M125.923 77.396l-.243-4.07.83.223 3.74-13.933.83.223-3.74 13.933.83.222z" stroke="#000" id="patch_3"/><path clip-path="url(#p94128b9a1f)" d="M120.965 95.87l.243 4.07-.83-.222-3.74 13.932-.83-.222 3.74-13.933-.831-.222z" stroke="#000" id="patch_4"/><path clip-path="url(#p94128b9a1f)" d="M142.03 76.578l-3.232-2.486.712-.48-9.202-13.644.713-.48 9.202 13.643.713-.48z" stroke="#000" id="patch_5"/><path clip-path="url(#p94128b9a1f)" d="M149.042 86.975l3.232 2.486-.713.48 9.202 13.644-.713.48-9.202-13.643-.712.481z" stroke="#000" id="patch_6"/><path clip-path="url(#p94128b9a1f)" d="M132.965 109.858l-3.5 2.09-.185-.84-12.965 2.85-.184-.839 12.964-2.85-.184-.84z" stroke="#000" id="patch_7"/><path clip-path="url(#p94128b9a1f)" d="M143.664 107.506l3.502-2.09.184.84 12.965-2.85.184.84-12.964 2.85.184.839z" stroke="#000" id="patch_8"/><path clip-path="url(#p94128b9a1f)" d="M107.295 128.154l.916-3.974.734.448 6.911-11.313.734.448-6.911 11.314.733.448z" stroke="#000" id="patch_9"/><path clip-path="url(#p94128b9a1f)" d="M97.214 144.656l-.916 3.973-.734-.448-6.911 11.313-.734-.448 6.912-11.314-.734-.448z" stroke="#000" id="patch_10"/><path clip-path="url(#p94128b9a1f)" d="M118.811 126.27l-2.034-3.534.842-.171-1.817-8.94.842-.172 1.818 8.94.842-.17z" stroke="#000" id="patch_11"/><path clip-path="url(#p94128b9a1f)" d="M121.114 137.6l2.034 3.533-.842.171 1.817 8.94-.842.172-1.818-8.94-.842.17z" stroke="#000" id="patch_12"/><path clip-path="url(#p94128b9a1f)" d="M179.078 103.903l-3.873 1.273.003-.86-14.803-.06.004-.86 14.803.061.003-.86z" stroke="#000" id="patch_13"/><path clip-path="url(#p94128b9a1f)" d="M183.254 103.92l3.874-1.273-.004.86 14.803.06-.003.86-14.803-.061-.004.86z" stroke="#000" id="patch_14"/><path clip-path="url(#p94128b9a1f)" d="M146.976 120.842l1.385-3.836.674.533 11.034-13.98.675.533-11.034 13.98.675.532z" stroke="#000" id="patch_15"/><path clip-path="url(#p94128b9a1f)" d="M137.132 133.314l-1.384 3.835-.675-.532-11.034 13.98-.675-.533 11.034-13.98-.674-.533z" stroke="#000" id="patch_16"/><path clip-path="url(#p94128b9a1f)" d="M163.242 118.068l-2.02-3.542.843-.168-2.08-10.449.843-.167 2.08 10.448.843-.168z" stroke="#000" id="patch_17"/><path clip-path="url(#p94128b9a1f)" d="M164.793 125.859l2.02 3.542-.844.168 2.08 10.448-.843.168-2.08-10.449-.843.168z" stroke="#000" id="patch_18"/><path clip-path="url(#p94128b9a1f)" d="M191.657 114.807l1.73-3.693.622.592 7.605-8.005.623.593-7.604 8.004.623.593z" stroke="#000" id="patch_19"/><path clip-path="url(#p94128b9a1f)" d="M177.896 129.291l-1.729 3.693-.623-.592-7.605 8.005-.623-.592 7.605-8.005-.624-.592z" stroke="#000" id="patch_20"/><path clip-path="url(#p94128b9a1f)" d="M201.316 118.888l-1.13-3.918.859.036.451-11.026.86.035-.452 11.026.859.035z" stroke="#000" id="patch_21"/><path clip-path="url(#p94128b9a1f)" d="M201.16 122.717l1.13 3.918-.86-.035-.45 11.026-.86-.036.452-11.025-.859-.035z" stroke="#000" id="patch_22"/><path clip-path="url(#p94128b9a1f)" d="M104.45 155.19l-3.434 2.197-.21-.834-12.415 3.134-.21-.834 12.414-3.133-.21-.834z" stroke="#000" id="patch_23"/><path clip-path="url(#p94128b9a1f)" d="M107.537 154.41l3.435-2.196.21.833 12.415-3.134.21.834-12.414 3.134.21.833z" stroke="#000" id="patch_24"/><path clip-path="url(#p94128b9a1f)" d="M80.333 178.346l.298-4.067.794.33 6.464-15.504.794.33-6.465 15.506.793.33z" stroke="#000" id="patch_25"/><path clip-path="url(#p94128b9a1f)" d="M74.663 191.943l-.298 4.066-.793-.33-6.465 15.505-.794-.331 6.465-15.506-.793-.33z" stroke="#000" id="patch_26"/><path clip-path="url(#p94128b9a1f)" d="M91.603 172.233l-2.208-3.428.833-.213-2.358-9.215.832-.214 2.358 9.216.833-.213z" stroke="#000" id="patch_27"/><path clip-path="url(#p94128b9a1f)" d="M95.285 186.622l2.208 3.428-.833.213 2.358 9.216-.833.213-2.358-9.215-.833.213z" stroke="#000" id="patch_28"/><path clip-path="url(#p94128b9a1f)" d="M139.345 146.687l-3.475 2.133-.195-.837-11.876 2.766-.195-.837 11.876-2.766-.195-.837z" stroke="#000" id="patch_29"/><path clip-path="url(#p94128b9a1f)" d="M151.984 143.744l3.475-2.133.195.837 11.876-2.766.195.837-11.876 2.766.195.837z" stroke="#000" id="patch_30"/><path clip-path="url(#p94128b9a1f)" d="M116.31 164.836l.607-4.032.766.39 5.636-11.059.766.39-5.636 11.06.766.39z" stroke="#000" id="patch_31"/><path clip-path="url(#p94128b9a1f)" d="M105.993 185.08l-.607 4.031-.766-.39-5.636 11.06-.766-.39 5.636-11.06-.766-.39z" stroke="#000" id="patch_32"/><path clip-path="url(#p94128b9a1f)" d="M126.344 159.799l-2.282-3.38.828-.23-1.602-5.743.828-.231 1.602 5.742.828-.23z" stroke="#000" id="patch_33"/><path clip-path="url(#p94128b9a1f)" d="M131.375 177.824l2.281 3.38-.828.23 1.603 5.744-.828.23-1.603-5.742-.828.23z" stroke="#000" id="patch_34"/><path clip-path="url(#p94128b9a1f)" d="M183.153 138.925l-3.76 1.578-.065-.857-11.668.883-.065-.857 11.669-.883-.065-.857z" stroke="#000" id="patch_35"/><path clip-path="url(#p94128b9a1f)" d="M185.025 138.784l3.76-1.578.064.857 11.669-.884.065.858-11.669.883.065.857z" stroke="#000" id="patch_36"/><path clip-path="url(#p94128b9a1f)" d="M160.452 150.176l1.193-3.898.7.498 4.932-6.924.7.498-4.931 6.925.7.499z" stroke="#000" id="patch_37"/><path clip-path="url(#p94128b9a1f)" d="M141.193 177.217l-1.194 3.9-.7-.5-4.932 6.925-.7-.498 4.932-6.925-.7-.499z" stroke="#000" id="patch_38"/><path clip-path="url(#p94128b9a1f)" d="M169.977 154.483l-1.896-3.61.848-.138-1.726-10.565.849-.138 1.726 10.564.848-.138z" stroke="#000" id="patch_39"/><path clip-path="url(#p94128b9a1f)" d="M170.951 160.447l1.896 3.61-.848.138 1.726 10.565-.848.138-1.726-10.564-.849.138z" stroke="#000" id="patch_40"/><path clip-path="url(#p94128b9a1f)" d="M222.532 133.958l-3.605 1.906-.14-.848-18.166 3.016-.141-.848 18.166-3.016-.141-.848z" stroke="#000" id="patch_41"/><path clip-path="url(#p94128b9a1f)" d="M224.643 133.607l3.605-1.905.14.848 18.167-3.016.14.848-18.165 3.016.14.848z" stroke="#000" id="patch_42"/><path clip-path="url(#p94128b9a1f)" d="M193.914 146.673l1.245-3.883.693.508 4.351-5.944.694.508-4.351 5.943.693.508z" stroke="#000" id="patch_43"/><path clip-path="url(#p94128b9a1f)" d="M179.937 165.764l-1.245 3.883-.693-.508-4.351 5.944-.694-.508 4.351-5.944-.693-.507z" stroke="#000" id="patch_44"/><path clip-path="url(#p94128b9a1f)" d="M204.79 153.504l-2.243-3.405.83-.222-3.242-12.158.83-.222 3.243 12.159.83-.222z" stroke="#000" id="patch_45"/><path clip-path="url(#p94128b9a1f)" d="M204.22 151.368l2.242 3.406-.83.221 3.242 12.159-.83.221-3.243-12.158-.83.221z" stroke="#000" id="patch_46"/><path clip-path="url(#p94128b9a1f)" d="M234.599 141.713l1.865-3.626.6.615 9.26-9.052.601.615-9.26 9.052.601.614z" stroke="#000" id="patch_47"/><path clip-path="url(#p94128b9a1f)" d="M220.485 155.509l-1.865 3.626-.6-.615-9.26 9.052-.602-.615 9.26-9.052-.6-.614z" stroke="#000" id="patch_48"/><path clip-path="url(#p94128b9a1f)" d="M246.972 151.414l-1.352-3.847.86-.013-.285-17.59.86-.013.284 17.589.86-.014z" stroke="#000" id="patch_49"/><path clip-path="url(#p94128b9a1f)" d="M246.794 140.392l1.352 3.847-.86.014.285 17.589-.86.014-.284-17.59-.86.015z" stroke="#000" id="patch_50"/><path clip-path="url(#p94128b9a1f)" d="M78.862 206.662l-3.206 2.519-.29-.81-8.511 3.052-.29-.81 8.51-3.05-.29-.81z" stroke="#000" id="patch_51"/><path clip-path="url(#p94128b9a1f)" d="M86.449 203.942l3.206-2.52.29.81 8.511-3.051.29.809-8.51 3.051.29.81z" stroke="#000" id="patch_52"/><path clip-path="url(#p94128b9a1f)" d="M63.5 230.774l-.652-4.025.848.138 2.59-15.938.848.138-2.59 15.937.85.138z" stroke="#000" id="patch_53"/><path clip-path="url(#p94128b9a1f)" d="M63.817 228.827l.652 4.025-.849-.138-2.589 15.938-.848-.138 2.589-15.937-.849-.138z" stroke="#000" id="patch_54"/><path clip-path="url(#p94128b9a1f)" d="M73.866 226.76l-2.775-2.987.783-.356-5.555-12.221.782-.356 5.555 12.221.783-.356z" stroke="#000" id="patch_55"/><path clip-path="url(#p94128b9a1f)" d="M72.878 224.588l2.775 2.988-.783.356 5.555 12.22-.782.356-5.555-12.22-.783.355z" stroke="#000" id="patch_56"/><path clip-path="url(#p94128b9a1f)" d="M114.324 194.128l-3.232 2.487-.282-.812-12.068 4.188-.282-.812 12.069-4.188-.282-.812z" stroke="#000" id="patch_57"/><path clip-path="url(#p94128b9a1f)" d="M118.294 192.75l3.232-2.486.282.812 12.068-4.189.282.812-12.068 4.189.282.812z" stroke="#000" id="patch_58"/><path clip-path="url(#p94128b9a1f)" d="M89.871 218.743l.431-4.055.782.357 7.126-15.638.782.357-7.125 15.637.782.356z" stroke="#000" id="patch_59"/><path clip-path="url(#p94128b9a1f)" d="M88.764 221.173l-.431 4.055-.782-.356-7.126 15.637-.782-.357 7.126-15.637-.783-.356z" stroke="#000" id="patch_60"/><path clip-path="url(#p94128b9a1f)" d="M102.561 212.113l-2.395-3.3.82-.259-2.795-8.84.82-.258 2.794 8.84.82-.26z" stroke="#000" id="patch_61"/><path clip-path="url(#p94128b9a1f)" d="M104.613 218.605l2.395 3.3-.82.259 2.795 8.84-.82.258-2.794-8.839-.82.259z" stroke="#000" id="patch_62"/><path clip-path="url(#p94128b9a1f)" d="M148.342 182.748l-3.297 2.399-.26-.82-10.638 3.376-.26-.82 10.638-3.375-.26-.82z" stroke="#000" id="patch_63"/><path clip-path="url(#p94128b9a1f)" d="M158.975 179.374l3.298-2.399.26.82 10.638-3.376.26.82-10.639 3.375.26.82z" stroke="#000" id="patch_64"/><path clip-path="url(#p94128b9a1f)" d="M125.019 202.797l.826-3.993.744.432 7.056-12.159.744.432-7.057 12.158.744.432z" stroke="#000" id="patch_65"/><path clip-path="url(#p94128b9a1f)" d="M117.571 215.629l-.826 3.993-.744-.432-7.057 12.159-.743-.432 7.057-12.158-.744-.432z" stroke="#000" id="patch_66"/><path clip-path="url(#p94128b9a1f)" d="M137.669 201.57l-2.208-3.429.833-.213-2.693-10.528.832-.213 2.694 10.528.833-.213z" stroke="#000" id="patch_67"/><path clip-path="url(#p94128b9a1f)" d="M137.93 202.587l2.207 3.428-.833.213 2.694 10.529-.833.213-2.693-10.529-.833.213z" stroke="#000" id="patch_68"/><path clip-path="url(#p94128b9a1f)" d="M189.21 171.406l-3.511 2.074-.18-.84-12.128 2.609-.18-.84 12.126-2.61-.18-.84z" stroke="#000" id="patch_69"/><path clip-path="url(#p94128b9a1f)" d="M192.55 170.687l3.51-2.074.181.84 12.127-2.609.181.84-12.127 2.61.181.84z" stroke="#000" id="patch_70"/><path clip-path="url(#p94128b9a1f)" d="M164.404 186.618l1.301-3.864.686.518 6.567-8.702.686.518-6.566 8.701.686.518z" stroke="#000" id="patch_71"/><path clip-path="url(#p94128b9a1f)" d="M150.478 205.074l-1.3 3.864-.687-.517-6.566 8.701-.687-.517 6.567-8.702-.686-.518z" stroke="#000" id="patch_72"/><path clip-path="url(#p94128b9a1f)" d="M173.773 190.658l-1.404-3.828.859-.026-.357-11.962.86-.026.356 11.963.86-.026z" stroke="#000" id="patch_73"/><path clip-path="url(#p94128b9a1f)" d="M173.775 190.72l1.404 3.827-.86.026.357 11.962-.86.026-.356-11.963-.859.026z" stroke="#000" id="patch_74"/><path clip-path="url(#p94128b9a1f)" d="M227.797 164.557l-3.652 1.813-.12-.851-15.507 2.171-.119-.851 15.507-2.171-.119-.852z" stroke="#000" id="patch_75"/><path clip-path="url(#p94128b9a1f)" d="M227.803 164.556l3.652-1.813.119.851 15.507-2.17.12.85-15.508 2.171.12.852z" stroke="#000" id="patch_76"/><path clip-path="url(#p94128b9a1f)" d="M199.815 177.189l1.568-3.764.649.565 6.103-7.008.648.565-6.103 7.007.648.565z" stroke="#000" id="patch_77"/><path clip-path="url(#p94128b9a1f)" d="M182.89 196.624l-1.568 3.763-.649-.564-6.102 7.007-.649-.564 6.103-7.008-.648-.564z" stroke="#000" id="patch_78"/><path clip-path="url(#p94128b9a1f)" d="M210.93 185.71l-1.792-3.663.852-.114-1.957-14.612.852-.114 1.957 14.611.852-.114z" stroke="#000" id="patch_79"/><path clip-path="url(#p94128b9a1f)" d="M209.684 176.412l1.792 3.663-.852.114 1.957 14.612-.852.114-1.957-14.612-.852.115z" stroke="#000" id="patch_80"/><path clip-path="url(#p94128b9a1f)" d="M260.653 161.962l-3.88 1.257.008-.86-9.644-.08.007-.86 9.644.08.007-.859z" stroke="#000" id="patch_81"/><path clip-path="url(#p94128b9a1f)" d="M264.403 161.993l3.879-1.256-.008.86 9.644.08-.007.86-9.644-.081-.007.86z" stroke="#000" id="patch_82"/><path clip-path="url(#p94128b9a1f)" d="M233.956 174.288l1.929-3.592.59.625 10.37-9.785.59.625-10.37 9.785.59.626z" stroke="#000" id="patch_83"/><path clip-path="url(#p94128b9a1f)" d="M225.34 182.418l-1.93 3.592-.589-.625-10.371 9.785-.59-.625 10.371-9.785-.59-.625z" stroke="#000" id="patch_84"/><path clip-path="url(#p94128b9a1f)" d="M246.263 180.494l-1.106-3.925.859.04.695-14.78.86.04-.696 14.781.858.04z" stroke="#000" id="patch_85"/><path clip-path="url(#p94128b9a1f)" d="M246.643 172.43l1.106 3.925-.859-.04-.695 14.78-.859-.04.696-14.781-.859-.04z" stroke="#000" id="patch_86"/><path clip-path="url(#p94128b9a1f)" d="M264.964 173.776l2.01-3.547.576.639 10.077-9.08.575.638-10.077 9.08.576.639z" stroke="#000" id="patch_87"/><path clip-path="url(#p94128b9a1f)" d="M258.716 179.406l-2.01 3.547-.576-.638-10.077 9.08-.575-.639 10.077-9.08-.576-.639z" stroke="#000" id="patch_88"/><path clip-path="url(#p94128b9a1f)" d="M284.301 181.189l-2.45-3.26.815-.272-5.159-15.414.815-.273 5.159 15.414.815-.273z" stroke="#000" id="patch_89"/><path clip-path="url(#p94128b9a1f)" d="M278.663 164.343l2.45 3.259-.815.273 5.159 15.413-.815.273-5.159-15.414-.815.273z" stroke="#000" id="patch_90"/><path clip-path="url(#p94128b9a1f)" d="M72.85 243.382l-3.056 2.7-.336-.792-8.683 3.688-.336-.79 8.683-3.69-.336-.79z" stroke="#000" id="patch_91"/><path clip-path="url(#p94128b9a1f)" d="M67.79 245.531l3.057-2.699.336.791 8.683-3.688.336.791-8.683 3.689.336.79z" stroke="#000" id="patch_92"/><path clip-path="url(#p94128b9a1f)" d="M65.226 274.979l-1.937-3.588.847-.149-3.953-22.585.847-.148 3.953 22.585.846-.148z" stroke="#000" id="patch_93"/><path clip-path="url(#p94128b9a1f)" d="M61.403 253.133l1.937 3.588-.847.148 3.953 22.585-.847.149-3.953-22.586-.846.148z" stroke="#000" id="patch_94"/><path clip-path="url(#p94128b9a1f)" d="M96.181 235.126l-3.286 2.414-.263-.818-12.466 4.018-.264-.818 12.466-4.018-.264-.818z" stroke="#000" id="patch_95"/><path clip-path="url(#p94128b9a1f)" d="M92.425 236.337l3.286-2.414.264.818 12.466-4.017.264.818-12.466 4.018.263.818z" stroke="#000" id="patch_96"/><path clip-path="url(#p94128b9a1f)" d="M71.09 265.35l.089-4.077.81.289 7.64-21.376.81.29-7.641 21.375.809.29z" stroke="#000" id="patch_97"/><path clip-path="url(#p94128b9a1f)" d="M74.965 254.51l-.088 4.076-.809-.289-7.641 21.376-.81-.29 7.642-21.375-.81-.29z" stroke="#000" id="patch_98"/><path clip-path="url(#p94128b9a1f)" d="M90.004 263.798l-2.7-3.056.792-.336-8.458-19.907.791-.336 8.458 19.907.791-.336z" stroke="#000" id="patch_99"/><path clip-path="url(#p94128b9a1f)" d="M81.239 243.167l2.7 3.056-.792.336 8.457 19.907-.79.337-8.458-19.908-.791.336z" stroke="#000" id="patch_100"/><path clip-path="url(#p94128b9a1f)" d="M125.55 223.793l-3.038 2.719-.341-.79-13.428 5.805-.34-.789 13.427-5.804-.342-.79z" stroke="#000" id="patch_101"/><path clip-path="url(#p94128b9a1f)" d="M124.603 224.203l3.04-2.719.34.79 13.428-5.805.341.789-13.427 5.804.34.79z" stroke="#000" id="patch_102"/><path clip-path="url(#p94128b9a1f)" d="M98.518 251.69l.541-4.041.772.378 8.356-17.083.772.378-8.355 17.082.772.378z" stroke="#000" id="patch_103"/><path clip-path="url(#p94128b9a1f)" d="M101.263 246.077l-.54 4.041-.773-.377-8.355 17.082-.772-.377 8.355-17.083-.772-.378z" stroke="#000" id="patch_104"/><path clip-path="url(#p94128b9a1f)" d="M117.574 245.448l-3.15-2.588.727-.458-6.942-11.04.728-.458 6.942 11.04.728-.457z" stroke="#000" id="patch_105"/><path clip-path="url(#p94128b9a1f)" d="M111.95 236.503l3.15 2.588-.728.457 6.943 11.041-.728.458-6.942-11.041-.728.458z" stroke="#000" id="patch_106"/><path clip-path="url(#p94128b9a1f)" d="M158.673 211.466l-3.3 2.395-.26-.82-13.402 4.232-.259-.82 13.403-4.232-.259-.82z" stroke="#000" id="patch_107"/><path clip-path="url(#p94128b9a1f)" d="M157.155 211.946l3.3-2.395.26.82 13.402-4.233.259.82-13.403 4.233.259.82z" stroke="#000" id="patch_108"/><path clip-path="url(#p94128b9a1f)" d="M131.886 232.82l.907-3.975.735.446 7.686-12.65.735.446-7.687 12.65.735.447z" stroke="#000" id="patch_109"/><path clip-path="url(#p94128b9a1f)" d="M130.646 234.861l-.906 3.975-.735-.446-7.687 12.651-.734-.446 7.686-12.651-.734-.447z" stroke="#000" id="patch_110"/><path clip-path="url(#p94128b9a1f)" d="M148.095 233.592l-2.605-3.137.8-.312-5.109-13.124.801-.311 5.11 13.124.8-.312z" stroke="#000" id="patch_111"/><path clip-path="url(#p94128b9a1f)" d="M143.234 221.109l2.605 3.137-.8.312 5.11 13.124-.802.312-5.11-13.124-.8.311z" stroke="#000" id="patch_112"/><path clip-path="url(#p94128b9a1f)" d="M186.301 202.83l-3.316 2.373-.253-.822-8.359 2.578-.253-.822 8.358-2.577-.253-.822z" stroke="#000" id="patch_113"/><path clip-path="url(#p94128b9a1f)" d="M200.1 198.575l3.316-2.372.254.822 8.358-2.578.254.821-8.359 2.578.253.821z" stroke="#000" id="patch_114"/><path clip-path="url(#p94128b9a1f)" d="M165.6 217.592l1.37-3.84.676.53 6.262-7.999.677.53-6.262 7.998.677.53z" stroke="#000" id="patch_115"/><path clip-path="url(#p94128b9a1f)" d="M158.394 226.794l-1.369 3.84-.677-.53-6.262 7.999-.677-.53 6.262-7.998-.676-.53z" stroke="#000" id="patch_116"/><path clip-path="url(#p94128b9a1f)" d="M181.872 223.655l-2.752-3.008.785-.35-6.051-13.574.785-.35 6.051 13.574.785-.35z" stroke="#000" id="patch_117"/><path clip-path="url(#p94128b9a1f)" d="M176.162 210.845l2.753 3.008-.785.35 6.05 13.574-.785.35-6.05-13.574-.786.35z" stroke="#000" id="patch_118"/><path clip-path="url(#p94128b9a1f)" d="M223.277 193.606l-3.7 1.714-.096-.854-7.278.819-.096-.855 7.278-.819-.096-.854z" stroke="#000" id="patch_119"/><path clip-path="url(#p94128b9a1f)" d="M234.644 192.327l3.7-1.714.096.854 7.277-.819.097.854-7.278.82.096.854z" stroke="#000" id="patch_120"/><path clip-path="url(#p94128b9a1f)" d="M203.713 204.707l1.538-3.776.653.559 5.925-6.912.652.56-5.924 6.911.652.56z" stroke="#000" id="patch_121"/><path clip-path="url(#p94128b9a1f)" d="M192.23 218.103l-1.538 3.776-.653-.559-5.925 6.912-.652-.56 5.924-6.911-.652-.56z" stroke="#000" id="patch_122"/><path clip-path="url(#p94128b9a1f)" d="M213.541 211.868l-1.6-3.75.857-.07-1.071-13.156.856-.07 1.072 13.155.857-.07z" stroke="#000" id="patch_123"/><path clip-path="url(#p94128b9a1f)" d="M212.66 201.057l1.6 3.75-.857.07 1.071 13.155-.856.07-1.072-13.155-.857.07z" stroke="#000" id="patch_124"/><path clip-path="url(#p94128b9a1f)" d="M259.141 188.47l-3.55 2.006-.165-.844-9.578 1.865-.165-.844 9.58-1.865-.165-.844z" stroke="#000" id="patch_125"/><path clip-path="url(#p94128b9a1f)" d="M271.674 186.03l3.55-2.005.164.843 9.58-1.865.163.844-9.578 1.865.164.844z" stroke="#000" id="patch_126"/><path clip-path="url(#p94128b9a1f)" d="M234.457 200.698l2.11-3.489.558.655 8.362-7.116.557.655-8.362 7.116.557.654z" stroke="#000" id="patch_127"/><path clip-path="url(#p94128b9a1f)" d="M225.354 208.444l-2.11 3.489-.557-.655-8.362 7.116-.557-.654 8.362-7.116-.557-.655z" stroke="#000" id="patch_128"/><path clip-path="url(#p94128b9a1f)" d="M254.834 208.438l-2.934-2.831.762-.398-7.278-13.935.762-.398 7.278 13.935.762-.398z" stroke="#000" id="patch_129"/><path clip-path="url(#p94128b9a1f)" d="M247.786 194.944l2.934 2.832-.762.398 7.277 13.935-.762.398-7.277-13.935-.762.398z" stroke="#000" id="patch_130"/><path clip-path="url(#p94128b9a1f)" d="M269.539 199.314l1.779-3.669.615.6 12.809-13.12.615.6-12.809 13.121.615.6z" stroke="#000" id="patch_131"/><path clip-path="url(#p94128b9a1f)" d="M272.365 196.418l-1.78 3.67-.614-.601-12.81 13.12-.614-.6 12.808-13.12-.615-.601z" stroke="#000" id="patch_132"/><path clip-path="url(#p94128b9a1f)" d="M282.12 203.618l-.72-4.013.85.123 2.374-16.365.85.124-2.373 16.365.85.123z" stroke="#000" id="patch_133"/><path clip-path="url(#p94128b9a1f)" d="M283.938 191.083l.721 4.013-.85-.124-2.374 16.366-.851-.124 2.374-16.365-.85-.123z" stroke="#000" id="patch_134"/><path clip-path="url(#p94128b9a1f)" d="M81.759 271.472l-2.856 2.91-.392-.764-12.293 6.293-.392-.765 12.293-6.293-.391-.766z" stroke="#000" id="patch_135"/><path clip-path="url(#p94128b9a1f)" d="M75.472 274.69l2.856-2.91.392.765 12.293-6.293.392.765-12.293 6.293.391.766z" stroke="#000" id="patch_136"/><path clip-path="url(#p94128b9a1f)" d="M79.461 300.532l-3.17-2.563.723-.464L65.66 279.76l.724-.463 11.354 17.745.724-.463z" stroke="#000" id="patch_137"/><path clip-path="url(#p94128b9a1f)" d="M65.564 278.812l3.17 2.563-.723.463 11.353 17.746-.724.463-11.354-17.745-.724.463z" stroke="#000" id="patch_138"/><path clip-path="url(#p94128b9a1f)" d="M106.03 258.753l-2.81 2.954-.404-.759-11.405 6.066-.404-.759 11.406-6.066-.404-.759z" stroke="#000" id="patch_139"/><path clip-path="url(#p94128b9a1f)" d="M106.13 258.7l2.81-2.955.403.759 11.406-6.066.404.76-11.406 6.065.403.759z" stroke="#000" id="patch_140"/><path clip-path="url(#p94128b9a1f)" d="M83.165 288.5l.125-4.075.807.297 6.708-18.236.807.297-6.708 18.235.806.297z" stroke="#000" id="patch_141"/><path clip-path="url(#p94128b9a1f)" d="M87.046 277.95l-.125 4.075-.807-.297-6.708 18.236-.807-.297 6.708-18.236-.806-.297z" stroke="#000" id="patch_142"/><path clip-path="url(#p94128b9a1f)" d="M102.994 283.186l-3.294-2.403.7-.498-9.541-13.401.7-.499 9.542 13.401.7-.498z" stroke="#000" id="patch_143"/><path clip-path="url(#p94128b9a1f)" d="M91.114 266.501l3.294 2.403-.7.499 9.541 13.4-.7.5-9.542-13.402-.7.499z" stroke="#000" id="patch_144"/><path clip-path="url(#p94128b9a1f)" d="M133.213 245.29l-2.997 2.766-.353-.784-8.735 3.938-.354-.784 8.736-3.937-.354-.784z" stroke="#000" id="patch_145"/><path clip-path="url(#p94128b9a1f)" d="M137.486 243.365l2.997-2.765.353.783 8.735-3.937.353.784-8.735 3.937.353.784z" stroke="#000" id="patch_146"/><path clip-path="url(#p94128b9a1f)" d="M110.403 269.654l.765-4.005.75.42 8.658-15.461.75.42-8.658 15.46.75.42z" stroke="#000" id="patch_147"/><path clip-path="url(#p94128b9a1f)" d="M113.447 264.217l-.765 4.005-.75-.42-8.658 15.46-.75-.42 8.658-15.46-.75-.42z" stroke="#000" id="patch_148"/><path clip-path="url(#p94128b9a1f)" d="M125.307 268.317l-2.186-3.442.834-.207-3.421-13.746.834-.208 3.422 13.746.834-.208z" stroke="#000" id="patch_149"/><path clip-path="url(#p94128b9a1f)" d="M121.495 253.003l2.185 3.442-.834.208 3.422 13.746-.834.208-3.422-13.746-.834.207z" stroke="#000" id="patch_150"/><path clip-path="url(#p94128b9a1f)" d="M164.816 233.462l-3.355 2.317-.24-.826-11.353 3.298-.24-.826 11.353-3.297-.24-.826z" stroke="#000" id="patch_151"/><path clip-path="url(#p94128b9a1f)" d="M168.72 232.328l3.355-2.317.24.826 11.353-3.297.24.825-11.353 3.297.24.826z" stroke="#000" id="patch_152"/><path clip-path="url(#p94128b9a1f)" d="M137.334 254.806l1.243-3.883.694.507 10.13-13.846.694.508-10.13 13.846.694.507z" stroke="#000" id="patch_153"/><path clip-path="url(#p94128b9a1f)" d="M138.264 253.535l-1.243 3.883-.694-.508-10.13 13.846-.693-.507 10.13-13.846-.694-.508z" stroke="#000" id="patch_154"/><path clip-path="url(#p94128b9a1f)" d="M153.74 250.753l-2.374-3.315.822-.254-2.85-9.22.82-.253 2.85 9.22.822-.254z" stroke="#000" id="patch_155"/><path clip-path="url(#p94128b9a1f)" d="M151.256 242.716l2.374 3.315-.82.254 2.85 9.22-.821.254-2.851-9.22-.821.254z" stroke="#000" id="patch_156"/><path clip-path="url(#p94128b9a1f)" d="M194.095 224.585l-3.276 2.427-.267-.817-6.63 2.166-.267-.817 6.63-2.166-.267-.817z" stroke="#000" id="patch_157"/><path clip-path="url(#p94128b9a1f)" d="M203.739 221.434l3.276-2.427.267.817 6.63-2.166.268.817-6.63 2.167.266.817z" stroke="#000" id="patch_158"/><path clip-path="url(#p94128b9a1f)" d="M172.025 239.36l1.88-3.618.598.617 8.986-8.715.598.617-8.986 8.715.599.617z" stroke="#000" id="patch_159"/><path clip-path="url(#p94128b9a1f)" d="M167.012 244.223l-1.88 3.619-.598-.617-8.986 8.715-.598-.617 8.986-8.715-.599-.617z" stroke="#000" id="patch_160"/><path clip-path="url(#p94128b9a1f)" d="M186.695 238.81l-2.246-3.403.83-.223-1.906-7.12.83-.223 1.907 7.121.83-.222z" stroke="#000" id="patch_161"/><path clip-path="url(#p94128b9a1f)" d="M185.093 232.826l2.246 3.403-.83.222 1.906 7.12-.83.223-1.907-7.12-.83.222z" stroke="#000" id="patch_162"/><path clip-path="url(#p94128b9a1f)" d="M230.014 215.919l-3.662 1.793-.115-.852-12.134 1.633-.114-.852 12.134-1.633-.115-.851z" stroke="#000" id="patch_163"/><path clip-path="url(#p94128b9a1f)" d="M240.887 214.456l3.661-1.794.115.852 12.134-1.632.115.852-12.134 1.632.114.852z" stroke="#000" id="patch_164"/><path clip-path="url(#p94128b9a1f)" d="M200.037 231.845l1.854-3.632.603.613 11.25-11.066.603.613-11.25 11.066.602.613z" stroke="#000" id="patch_165"/><path clip-path="url(#p94128b9a1f)" d="M202.009 229.905l-1.854 3.632-.602-.613L188.3 243.99l-.602-.613 11.25-11.066-.602-.613z" stroke="#000" id="patch_166"/><path clip-path="url(#p94128b9a1f)" d="M220.885 232.748l-2.802-2.962.779-.363-5.206-11.175.78-.363 5.205 11.176.78-.363z" stroke="#000" id="patch_167"/><path clip-path="url(#p94128b9a1f)" d="M216.577 223.5l2.802 2.962-.78.363L223.806 238l-.779.363-5.205-11.175-.78.363z" stroke="#000" id="patch_168"/><path clip-path="url(#p94128b9a1f)" d="M266.328 211.903l-3.81 1.453-.036-.859-5.61.24-.036-.859 5.609-.24-.037-.858z" stroke="#000" id="patch_169"/><path clip-path="url(#p94128b9a1f)" d="M271.536 211.68l3.81-1.453.036.86 5.609-.24.037.858-5.61.24.037.859z" stroke="#000" id="patch_170"/><path clip-path="url(#p94128b9a1f)" d="M241.225 224.401l2.27-3.387.526.68 12.57-9.726.526.68-12.57 9.726.526.68z" stroke="#000" id="patch_171"/><path clip-path="url(#p94128b9a1f)" d="M239.045 226.088l-2.27 3.387-.526-.68-12.57 9.727-.526-.68 12.57-9.727-.526-.68z" stroke="#000" id="patch_172"/><path clip-path="url(#p94128b9a1f)" d="M254.343 231.64l-.78-4.002.852.11 2.013-15.496.853.11-2.014 15.497.853.11z" stroke="#000" id="patch_173"/><path clip-path="url(#p94128b9a1f)" d="M256.53 214.81l.78 4.001-.853-.11-2.013 15.496-.853-.11 2.014-15.497-.853-.11z" stroke="#000" id="patch_174"/><path clip-path="url(#p94128b9a1f)" d="M265.48 224.432l2.117-3.484.556.656 12.578-10.656.556.656-12.578 10.655.555.656z" stroke="#000" id="patch_175"/><path clip-path="url(#p94128b9a1f)" d="M269.547 220.986l-2.118 3.484-.555-.656-12.579 10.655-.555-.655 12.578-10.656-.556-.656z" stroke="#000" id="patch_176"/><path clip-path="url(#p94128b9a1f)" d="M96.619 287.458l-2.426 3.277-.494-.704-14.45 10.136-.493-.704 14.45-10.135-.494-.704z" stroke="#000" id="patch_177"/><path clip-path="url(#p94128b9a1f)" d="M85.283 295.41l2.426-3.277.494.704 14.45-10.136.493.704-14.45 10.135.494.704z" stroke="#000" id="patch_178"/><path clip-path="url(#p94128b9a1f)" d="M114.049 276.956l-2.775 2.987-.413-.754-7.755 4.241-.413-.754 7.756-4.241-.413-.754z" stroke="#000" id="patch_179"/><path clip-path="url(#p94128b9a1f)" d="M114.701 276.6l2.775-2.988.413.755 7.756-4.241.412.754-7.756 4.24.413.755z" stroke="#000" id="patch_180"/><path clip-path="url(#p94128b9a1f)" d="M113.125 298.21l-3.232-2.486.712-.48-8.062-11.95.713-.481 8.062 11.95.712-.48z" stroke="#000" id="patch_181"/><path clip-path="url(#p94128b9a1f)" d="M104.794 285.862l3.232 2.485-.712.48 8.062 11.951-.713.481-8.062-11.95-.712.48z" stroke="#000" id="patch_182"/><path clip-path="url(#p94128b9a1f)" d="M139.24 263.73l-2.87 2.897-.388-.767-9.937 5.026-.388-.767 9.937-5.026-.388-.767z" stroke="#000" id="patch_183"/><path clip-path="url(#p94128b9a1f)" d="M141.86 262.404l2.87-2.896.388.767 9.937-5.027.388.767-9.937 5.027.388.767z" stroke="#000" id="patch_184"/><path clip-path="url(#p94128b9a1f)" d="M120.24 286.311l.079-4.077.81.288 4.317-12.163.81.287-4.317 12.163.81.288z" stroke="#000" id="patch_185"/><path clip-path="url(#p94128b9a1f)" d="M120.63 285.21l-.078 4.077-.81-.287-4.317 12.162-.81-.287 4.317-12.163-.81-.287z" stroke="#000" id="patch_186"/><path clip-path="url(#p94128b9a1f)" d="M136.877 285.57l-3.325-2.36.694-.508-8.742-11.945.694-.508 8.741 11.945.694-.508z" stroke="#000" id="patch_187"/><path clip-path="url(#p94128b9a1f)" d="M128.664 274.347l3.325 2.36-.693.508 8.741 11.945-.693.508-8.742-11.945-.694.507z" stroke="#000" id="patch_188"/><path clip-path="url(#p94128b9a1f)" d="M169.075 250.588l-3.192 2.537-.295-.808-10.192 3.718-.294-.807 10.192-3.718-.295-.808z" stroke="#000" id="patch_189"/><path clip-path="url(#p94128b9a1f)" d="M174.174 248.727l3.192-2.537.295.808 10.192-3.719.294.808-10.191 3.718.294.808z" stroke="#000" id="patch_190"/><path clip-path="url(#p94128b9a1f)" d="M145.811 276.124l.447-4.053.781.36 7.82-16.98.78.36-7.82 16.98.782.359z" stroke="#000" id="patch_191"/><path clip-path="url(#p94128b9a1f)" d="M149.128 268.922l-.447 4.053-.78-.36-7.82 16.979-.781-.36 7.82-16.979-.781-.36z" stroke="#000" id="patch_192"/><path clip-path="url(#p94128b9a1f)" d="M164.95 268.2l-3.384-2.275.68-.525-7.337-9.506.68-.525 7.338 9.506.68-.525z" stroke="#000" id="patch_193"/><path clip-path="url(#p94128b9a1f)" d="M162.998 265.671l3.385 2.274-.68.526 7.336 9.506-.68.525-7.337-9.506-.68.525z" stroke="#000" id="patch_194"/><path clip-path="url(#p94128b9a1f)" d="M199.64 241.875l-3.625 1.868-.132-.85-7.817 1.215-.132-.85 7.817-1.214-.132-.85z" stroke="#000" id="patch_195"/><path clip-path="url(#p94128b9a1f)" d="M211.777 239.99l3.624-1.868.132.85 7.817-1.215.132.85-7.817 1.214.132.849z" stroke="#000" id="patch_196"/><path clip-path="url(#p94128b9a1f)" d="M180.222 261.249l.387-4.06.786.349 6.212-14.029.786.348-6.212 14.029.786.348z" stroke="#000" id="patch_197"/><path clip-path="url(#p94128b9a1f)" d="M180.477 260.673l-.387 4.06-.786-.349-6.212 14.03-.786-.349 6.212-14.029-.786-.348z" stroke="#000" id="patch_198"/><path clip-path="url(#p94128b9a1f)" d="M192.635 263.162l-2.15-3.465.836-.199-3.74-15.715.837-.2 3.74 15.716.836-.199z" stroke="#000" id="patch_199"/><path clip-path="url(#p94128b9a1f)" d="M190.156 252.743l2.15 3.465-.836.199 3.74 15.715-.837.2-3.74-15.716-.836.199z" stroke="#000" id="patch_200"/><path clip-path="url(#p94128b9a1f)" d="M234.832 236.674l-3.666 1.785-.112-.852-7.582 1-.113-.851 7.582-1.001-.112-.853z" stroke="#000" id="patch_201"/><path clip-path="url(#p94128b9a1f)" d="M242.601 235.649l3.666-1.785.113.852 7.581-1 .113.852-7.582 1 .113.853z" stroke="#000" id="patch_202"/><path clip-path="url(#p94128b9a1f)" d="M208.454 255.974l1.502-3.79.658.553 12.473-14.832.658.553-12.473 14.832.658.554z" stroke="#000" id="patch_203"/><path clip-path="url(#p94128b9a1f)" d="M209.753 254.43l-1.503 3.79-.658-.554L195.12 272.5l-.658-.554 12.472-14.832-.657-.553z" stroke="#000" id="patch_204"/><path clip-path="url(#p94128b9a1f)" d="M130.26 293.85l-2.952 2.813-.365-.778-11.74 5.523-.366-.778 11.74-5.523-.366-.777z" stroke="#000" id="patch_205"/><path clip-path="url(#p94128b9a1f)" d="M124.45 296.583l2.952-2.814.366.778 11.74-5.522.365.778-11.74 5.522.366.778z" stroke="#000" id="patch_206"/><path clip-path="url(#p94128b9a1f)" d="M155.43 284.085l-3.25 2.462-.275-.814-12.077 4.088-.275-.814 12.076-4.089-.276-.814z" stroke="#000" id="patch_207"/><path clip-path="url(#p94128b9a1f)" d="M156.959 283.568l3.25-2.462.276.814 12.076-4.088.276.814-12.077 4.089.276.814z" stroke="#000" id="patch_208"/><path clip-path="url(#p94128b9a1f)" d="M182.123 275.672l-3.393 2.26-.226-.829-5.692 1.55-.226-.829 5.692-1.55-.226-.83z" stroke="#000" id="patch_209"/><path clip-path="url(#p94128b9a1f)" d="M185.367 274.789l3.393-2.26.226.829 5.692-1.55.226.829-5.692 1.55.226.83z" stroke="#000" id="patch_210"/><g id="matplotlib.axis_1"><g id="xtick_1"><g id="line2d_1"><defs><path d="M0 0v3.5" id="mfd2d608673" stroke="#969696" stroke-width=".4"/></defs><use x="120.349" xlink:href="#mfd2d608673" y="313.504" fill="#969696" stroke="#969696" stroke-width=".4"/></g><g transform="matrix(.14 0 0 -.14 110.62 330.553)" fill="#969696" id="text_1"><defs><path d="M42.484 34.188q0 14.109-3.734 21.156-3.734 7.062-10.969 7.062-7.078 0-10.89-7.062-3.797-7.047-3.797-21.157 0-13.671 3.75-20.937Q20.609 6 27.78 6q7.235 0 10.969 7 3.734 7.016 3.734 21.188zm9.422 0q0-17.297-6.25-26.704-6.25-9.39-17.875-9.39-12.062 0-18.062 9.734-6 9.75-6 26.36 0 17.03 6.14 26.578 6.157 9.547 17.922 9.547 11.625 0 17.875-9.5t6.25-26.626z" id="HelveticaWorld-Regular-48"/><path d="M19.094 0H8.687v10.594h10.407z" id="HelveticaWorld-Regular-46"/><path d="M22.406 39.984q2.203-.187 4.594-.187 6.203 0 9.781 2.86 3.594 2.859 3.594 8.656 0 4.687-3.344 7.89-3.343 3.203-9.64 3.203-6.985 0-10.235-4.11-3.234-4.093-3.437-10.983h-8.64q0 10.984 5.765 16.984 5.765 6.016 16.937 6.016 9.922 0 15.828-5.11 5.907-5.094 5.907-13.39 0-10.704-9.032-14.5v-.204q11.72-4 11.72-16.406 0-9.906-6.595-16.265-6.593-6.344-18.703-6.344-9.906 0-16.312 5.203Q4.204 8.5 3.422 21.484H12.5q.203-8.109 4-11.797Q20.313 6 27.484 6q6.938 0 11.141 3.86 4.203 3.859 4.203 9.718 0 6.406-4.016 9.672-4 3.266-12.39 3.266-2 0-4.016-.094z" id="HelveticaWorld-Regular-51"/></defs><use xlink:href="#HelveticaWorld-Regular-48"/><use x="55.615" xlink:href="#HelveticaWorld-Regular-46"/><use x="83.398" xlink:href="#HelveticaWorld-Regular-51"/></g></g><g id="xtick_2"><use x="206.31" xlink:href="#mfd2d608673" y="313.504" fill="#969696" stroke="#969696" stroke-width=".4" id="line2d_2"/><g transform="matrix(.14 0 0 -.14 196.58 330.553)" fill="#969696" id="text_2"><defs><path d="M10.594 24.703h22.61v31.89h-.188zM42 17.093V0h-8.797v17.094H2.484v8.593L34.72 70.314H42v-45.61h10.297v-7.61z" id="HelveticaWorld-Regular-52"/></defs><use xlink:href="#HelveticaWorld-Regular-48"/><use x="55.615" xlink:href="#HelveticaWorld-Regular-46"/><use x="83.398" xlink:href="#HelveticaWorld-Regular-52"/></g></g><g id="xtick_3"><use x="292.27" xlink:href="#mfd2d608673" y="313.504" fill="#969696" stroke="#969696" stroke-width=".4" id="line2d_3"/><g transform="matrix(.14 0 0 -.14 282.54 330.553)" fill="#969696" id="text_3"><defs><path d="M14.703 40.922q5.813 4.39 13.625 4.39 9.469 0 16.281-6.296 6.813-6.297 6.813-16.22 0-10.78-6.578-17.796-6.563-7-18.422-7-10.313 0-16.266 5.047Q4.203 8.109 3.22 17.39h9.094q.671-5.672 4.437-8.672 3.766-3 10.453-3 6.485 0 10.64 4.484Q42 14.703 42 21.688q0 7.125-4.36 11.421-4.343 4.297-11.218 4.297-7.813 0-13.047-6.687l-7.563.39 5.266 37.594h36.438v-8.5H17.672z" id="HelveticaWorld-Regular-53"/></defs><use xlink:href="#HelveticaWorld-Regular-48"/><use x="55.615" xlink:href="#HelveticaWorld-Regular-46"/><use x="83.398" xlink:href="#HelveticaWorld-Regular-53"/></g></g><g transform="matrix(.14 0 0 -.14 169.329 347.5)" fill="#969696" id="text_4"><defs><path d="M49.031 0H37.703l-12.89 19.672L12.203 0H1.125l18.266 26.906L2 52.296h11.188l12.109-18.405L37.5 52.297h10.688l-17.579-25.39z" id="HelveticaWorld-Regular-120"/></defs><use xlink:href="#HelveticaWorld-Regular-120"/></g></g><g id="matplotlib.axis_2"><g id="ytick_1"><g id="line2d_4"><defs><path d="M0 0h-3.5" id="ma57c84c3ce" stroke="#969696" stroke-width=".3"/></defs><use x="48.918" xlink:href="#ma57c84c3ce" y="310.044" fill="#969696" stroke="#969696" stroke-width=".3"/></g><g transform="matrix(.14 0 0 -.14 14.673 315.07)" fill="#969696" id="text_5"><defs><path d="M4.39 45.125q0 12.39 6.391 18.781 6.406 6.407 17.938 6.407 9.656 0 15.812-5.86 6.157-5.86 6.157-15.14 0-7.22-3.547-12.188-3.532-4.953-10.422-8.703l-12.11-6.64Q13.922 15.921 12.5 8.296h38.188V0H2.593q.39 9.906 4.297 16.5 3.906 6.594 12.203 11.375l12.593 7.328q5.032 2.89 7.329 5.984 2.297 3.094 2.297 8.516 0 5.375-3.766 9.031-3.75 3.672-10.156 3.672-7.078 0-10.594-4.672-3.516-4.656-3.61-12.609z" id="HelveticaWorld-Regular-50"/></defs><use xlink:href="#HelveticaWorld-Regular-48"/><use x="55.615" xlink:href="#HelveticaWorld-Regular-46"/><use x="83.398" xlink:href="#HelveticaWorld-Regular-50"/><use x="139.014" xlink:href="#HelveticaWorld-Regular-53"/></g></g><g id="ytick_2"><use x="48.918" xlink:href="#ma57c84c3ce" y="267.064" fill="#969696" stroke="#969696" stroke-width=".3" id="line2d_5"/><g transform="matrix(.14 0 0 -.14 14.673 272.089)" fill="#969696" id="text_6"><use xlink:href="#HelveticaWorld-Regular-48"/><use x="55.615" xlink:href="#HelveticaWorld-Regular-46"/><use x="83.398" xlink:href="#HelveticaWorld-Regular-51"/><use x="139.014" xlink:href="#HelveticaWorld-Regular-48"/></g></g><g id="ytick_3"><use x="48.918" xlink:href="#ma57c84c3ce" y="224.084" fill="#969696" stroke="#969696" stroke-width=".3" id="line2d_6"/><g transform="matrix(.14 0 0 -.14 14.673 229.109)" fill="#969696" id="text_7"><use xlink:href="#HelveticaWorld-Regular-48"/><use x="55.615" xlink:href="#HelveticaWorld-Regular-46"/><use x="83.398" xlink:href="#HelveticaWorld-Regular-51"/><use x="139.014" xlink:href="#HelveticaWorld-Regular-53"/></g></g><g id="ytick_4"><use x="48.918" xlink:href="#ma57c84c3ce" y="181.104" fill="#969696" stroke="#969696" stroke-width=".3" id="line2d_7"/><g transform="matrix(.14 0 0 -.14 14.673 186.129)" fill="#969696" id="text_8"><use xlink:href="#HelveticaWorld-Regular-48"/><use x="55.615" xlink:href="#HelveticaWorld-Regular-46"/><use x="83.398" xlink:href="#HelveticaWorld-Regular-52"/><use x="139.014" xlink:href="#HelveticaWorld-Regular-48"/></g></g><g id="ytick_5"><use x="48.918" xlink:href="#ma57c84c3ce" y="138.124" fill="#969696" stroke="#969696" stroke-width=".3" id="line2d_8"/><g transform="matrix(.14 0 0 -.14 14.673 143.148)" fill="#969696" id="text_9"><use xlink:href="#HelveticaWorld-Regular-48"/><use x="55.615" xlink:href="#HelveticaWorld-Regular-46"/><use x="83.398" xlink:href="#HelveticaWorld-Regular-52"/><use x="139.014" xlink:href="#HelveticaWorld-Regular-53"/></g></g><g id="ytick_6"><use x="48.918" xlink:href="#ma57c84c3ce" y="95.144" fill="#969696" stroke="#969696" stroke-width=".3" id="line2d_9"/><g transform="matrix(.14 0 0 -.14 14.673 100.168)" fill="#969696" id="text_10"><use xlink:href="#HelveticaWorld-Regular-48"/><use x="55.615" xlink:href="#HelveticaWorld-Regular-46"/><use x="83.398" xlink:href="#HelveticaWorld-Regular-53"/><use x="139.014" xlink:href="#HelveticaWorld-Regular-48"/></g></g><g id="ytick_7"><use x="48.918" xlink:href="#ma57c84c3ce" y="52.163" fill="#969696" stroke="#969696" stroke-width=".3" id="line2d_10"/><g transform="matrix(.14 0 0 -.14 14.673 57.188)" fill="#969696" id="text_11"><use xlink:href="#HelveticaWorld-Regular-48"/><use x="55.615" xlink:href="#HelveticaWorld-Regular-46"/><use x="83.398" xlink:href="#HelveticaWorld-Regular-53"/><use x="139.014" xlink:href="#HelveticaWorld-Regular-53"/></g></g><g transform="matrix(.14 0 0 -.14 7.2 177.453)" fill="#969696" id="text_12"><defs><path d="M39.016 52.297h9.562L29.891.984q-.5-1.375-.985-2.593-4.25-11.329-7.328-15.547-3.078-4.235-9.953-4.235-3.61 0-5.906.782v8.015q2.484-.89 5.468-.89 3.22 0 4.704 2.03 1.5 2.032 4.421 9.938L.875 52.297h9.922L24.812 9.719H25z" id="HelveticaWorld-Regular-121"/></defs><use xlink:href="#HelveticaWorld-Regular-121"/></g></g><g transform="matrix(.14 0 0 -.14 33.123 17.392)" fill="#969696" id="text_13"><defs><path d="M67.484 0v42.39q0 .829.094 8.126t.094 9.78h-.281L47.312 0h-9.609L17.578 60.203h-.297q0-3.61.094-10.297.11-6.687.11-7.515V0H8.108v71.781h13.86L42.39 11.078h.28l20.313 60.703h13.922V0z" id="HelveticaWorld-Regular-77"/><path d="M38.375 26.703q-.969-1.015-3.828-1.656-2.86-.625-10.672-1.656-5.766-.688-8.469-2.844-2.703-2.14-2.703-5.656 0-4.297 2.281-6.688 2.297-2.39 7.329-2.39 6.296 0 11.171 3.578 4.891 3.593 4.891 8.718zM6.203 36.375q.297 8.844 5.734 13.14 5.454 4.297 15.844 4.297 8.297 0 13.907-3.765 5.624-3.75 5.624-10.844V9.078Q47.313 6 50.094 6q1.125 0 2.89.39V0Q50.594-.984 48-.984q-4.5 0-6.703 1.921-2.188 1.938-2.281 6.047-7.516-8.5-18.891-8.5-7.422 0-11.922 4.204Q3.72 6.89 3.72 13.624q0 6.89 3.906 11.125Q11.531 29 19 29.89l15.516 1.891q4.203.64 4.203 6.203 0 4.11-3.047 6.297-3.047 2.203-9.25 2.203-5.516 0-8.485-2.437-2.953-2.438-3.53-7.672z" id="HelveticaWorld-Regular-97"/><path d="M39.594 34.719q-1.89 11.187-12.39 11.187-6.5 0-10.454-5.203-3.953-5.203-3.953-14.484 0-10.11 3.656-15.11 3.672-5 10.64-5 4.688 0 8.11 3.438 3.422 3.437 4.39 8.953h8.5q-1.312-9.703-6.859-14.86-5.547-5.156-14.328-5.156-10.297 0-16.89 7.047-6.594 7.063-6.594 19.172 0 13.281 6.594 21.188 6.593 7.922 18.5 7.922 8.687 0 13.843-5.204 5.157-5.203 5.735-13.89z" id="HelveticaWorld-Regular-99"/><path d="M44 29.5L33.406 61.078h-.203L21.687 29.5zm-25.297-8.594L11.188 0h-9.97l27 71.781h10.985L65.187 0H54.594l-7.078 20.906z" id="HelveticaWorld-Regular-65"/><path d="M13.094 26.313q0-9.704 3.844-14.954 3.859-5.25 10.265-5.25 6.094 0 10.188 4.485 4.109 4.5 4.109 13.094 0 11.03-3.5 16.625-3.484 5.593-10.61 5.593-6.78 0-10.546-4.453-3.75-4.437-3.75-15.14zM50.39 0h-8.297v7.172h-.203q-4.97-8.688-15.078-8.688-10.891 0-16.86 8.297Q4 15.094 4 27.688q0 11.625 5.906 18.875 5.922 7.25 15.875 7.25 9.813 0 15.625-8.891l.203.594V71.78h8.782z" id="HelveticaWorld-Regular-100"/><path d="M6.594 52.297h8.297v-7.375h.203q5.906 8.89 15.812 8.89 9.813 0 13.922-8.5 3.75 4.594 7.266 6.547 3.515 1.953 8.703 1.953 6.781 0 11.484-4.453Q77 44.922 77 36.187V0h-8.781v33.797q0 6.094-2.297 9.094-2.297 3.015-7.422 3.015-5.172 0-8.75-4.203-3.563-4.203-3.563-9.812V0h-8.78v36.188q0 4.53-2.11 7.124-2.094 2.594-6.094 2.594-6.297 0-10.062-4.687-3.766-4.688-3.766-12.703V0H6.594z" id="HelveticaWorld-Regular-109"/><path d="M35.89 0h-9.374v49.906H10.109v6.985q8.594.28 12.782 2.75Q27.094 62.109 29 70.313h6.89z" id="HelveticaWorld-Regular-49"/><path d="M27.594 31.39q6 0 9.75 4.047 3.765 4.063 3.765 11.97 0 6.5-3.562 10.75-3.563 4.25-10.64 4.25-6.11 0-9.876-4.298-3.75-4.297-3.75-11.53 0-7.376 3.516-11.282 3.515-3.906 10.797-3.906zm-1.282-7.906q-10 0-16.062 6.203-6.047 6.204-6.047 16.5 0 10.407 6.094 17.266 6.11 6.86 16.515 6.86 12.11 0 18.36-8.157 6.25-8.156 6.25-24.453 0-16.906-6.406-28.266Q38.625-1.905 25.875-1.905q-9.953 0-15.422 5.593-5.469 5.594-5.469 13.204h8.829q.39-5.266 3.437-8.375 3.063-3.094 8.438-3.094 7.609 0 11.515 6.781Q41.11 19 42.578 31.688l-.187.203q-5.672-8.407-16.078-8.407z" id="HelveticaWorld-Regular-57"/><path d="M3.719 68.797h48.578v-7.719Q42.28 50.875 33.984 33.484 25.687 16.11 23.391 0h-9.672q1.469 13.281 9.719 30.531 8.25 17.266 18.953 29.672H3.719z" id="HelveticaWorld-Regular-55"/><path d="M12.703 26.219q0-8.735 3.953-14.375 3.953-5.64 11.219-5.64 7.531 0 11.438 5.905 3.906 5.907 3.906 14.11 0 8.297-3.907 14.078-3.906 5.797-11.437 5.797-6.969 0-11.078-5.453-4.094-5.438-4.094-14.422zm-8.984 0q0 11.672 6.484 19.625 6.5 7.968 17.672 7.968 11.438 0 17.875-8.062 6.453-8.047 6.453-19.531 0-11.516-6.406-19.625-6.39-8.11-17.922-8.11-11.078 0-17.625 7.86-6.531 7.86-6.531 19.875z" id="HelveticaWorld-Regular-111"/><path d="M15.375 0H6.594v71.781h8.781z" id="HelveticaWorld-Regular-108"/><path d="M15.375 0H6.594v52.297h8.297v-8.688h.203q5.703 10.203 14.687 10.203 1.422 0 2.297-.296V44.39h-3.266q-5.906 0-9.671-4.016-3.766-4-3.766-9.953z" id="HelveticaWorld-Regular-114"/><path d="M6.594 61.813v9.968h8.781v-9.969zM15.375 0H6.594v52.297h8.781z" id="HelveticaWorld-Regular-105"/><path d="M36.078 37.406q-.187 4.688-3.344 6.735-3.14 2.047-9.047 2.047-4.296 0-7.359-1.907-3.047-1.89-3.047-5.468 0-2.829 1.797-4.172 1.813-1.344 7.828-2.86l8.688-2.187q7.906-2 11.297-5.11 3.406-3.093 3.406-8.656 0-7.719-5.64-12.531-5.641-4.813-15.063-4.813-11 0-16.64 4.563-5.626 4.578-5.735 13.75h8.5q.203-5.422 3.594-8.063 3.39-2.625 10.171-2.625 5.516 0 8.766 2.188 3.25 2.203 3.25 6.11 0 2.78-2.11 4.437-2.093 1.672-8.296 3.078l-10.203 2.5q-6.203 1.562-9.157 4.656-2.953 3.094-2.953 8.031 0 7.72 5.516 12.203 5.531 4.5 14.406 4.5 9.485 0 14.531-4.624 5.047-4.61 5.344-11.782z" id="HelveticaWorld-Regular-115"/><path d="M17.188 45.016V10.984q0-2 1.093-3.046 1.11-1.047 3.938-1.047h3.375V0Q20.797-.688 19-.688q-5.516 0-8.063 2.641-2.53 2.64-2.53 8.547v34.516H1.311v7.28h7.094v14.595h8.781V52.297h8.407v-7.281z" id="HelveticaWorld-Regular-116"/><path d="M49.219 0h-8.844v32.172q0 7.422-2.594 10.578-2.578 3.156-8.578 3.156-5.906 0-9.875-4.5-3.953-4.484-3.953-12.89V0H6.594v52.297h8.297v-7.375h.203q6.203 8.89 15.812 8.89 8.89 0 13.594-4.718 4.719-4.703 4.719-13.5z" id="HelveticaWorld-Regular-110"/><path d="M42.484 30.328q-.687 8.485-4.5 12.031-3.797 3.547-10.109 3.547-6.39 0-10.328-4.5-3.922-4.484-4.172-11.078zm8.391-13.922q-1.453-8.11-7.953-13.422-5.719-4.5-15.047-4.593-10.984.093-17.438 7.203Q4 12.704 4 24.704q0 13.78 6.64 21.437 6.641 7.672 18.47 7.672 10.593 0 16.546-7.922 5.953-7.907 5.953-22.594H13.375q0-8.203 3.813-12.703Q21 6.109 28.608 6.109q5.375 0 9.235 3.235 3.86 3.25 4.25 7.062z" id="HelveticaWorld-Regular-101"/><path d="M17.188 45.016V0H8.405v45.016H1.22v7.28h7.187v8.985q0 5.907 3.578 8.703 3.594 2.813 10.032 2.813 2.203 0 3.968-.188v-7.906q-1.562.188-3.578.188-2.922 0-4.078-1.438-1.14-1.437-1.14-4.656v-6.5h8.796v-7.281z" id="HelveticaWorld-Regular-102"/><path d="M37.313 0h-9.72v28.906L.485 71.781h11.329l20.609-34.469 20.562 34.47h11.422L37.312 28.905z" id="HelveticaWorld-Regular-89"/><path d="M0-12.313v4.891h55.61v-4.89z" id="HelveticaWorld-Regular-95"/></defs><use xlink:href="#HelveticaWorld-Regular-77"/><use x="85.01" xlink:href="#HelveticaWorld-Regular-97"/><use x="139.941" xlink:href="#HelveticaWorld-Regular-99"/><use x="191.211" xlink:href="#HelveticaWorld-Regular-65"/><use x="256.41" xlink:href="#HelveticaWorld-Regular-100"/><use x="313.393" xlink:href="#HelveticaWorld-Regular-97"/><use x="368.324" xlink:href="#HelveticaWorld-Regular-109"/><use x="451.332" xlink:href="#HelveticaWorld-Regular-32"/><use x="475.746" xlink:href="#HelveticaWorld-Regular-49"/><use x="531.361" xlink:href="#HelveticaWorld-Regular-57"/><use x="586.977" xlink:href="#HelveticaWorld-Regular-55"/><use x="642.592" xlink:href="#HelveticaWorld-Regular-52"/><use x="698.207" xlink:href="#HelveticaWorld-Regular-32"/><use x="722.621" xlink:href="#HelveticaWorld-Regular-99"/><use x="773.891" xlink:href="#HelveticaWorld-Regular-111"/><use x="829.799" xlink:href="#HelveticaWorld-Regular-108"/><use x="851.82" xlink:href="#HelveticaWorld-Regular-111"/><use x="907.729" xlink:href="#HelveticaWorld-Regular-114"/><use x="940.297" xlink:href="#HelveticaWorld-Regular-32"/><use x="964.711" xlink:href="#HelveticaWorld-Regular-100"/><use x="1021.693" xlink:href="#HelveticaWorld-Regular-105"/><use x="1043.715" xlink:href="#HelveticaWorld-Regular-115"/><use x="1093.715" xlink:href="#HelveticaWorld-Regular-116"/><use x="1121.4" xlink:href="#HelveticaWorld-Regular-97"/><use x="1176.332" xlink:href="#HelveticaWorld-Regular-110"/><use x="1231.508" xlink:href="#HelveticaWorld-Regular-99"/><use x="1282.777" xlink:href="#HelveticaWorld-Regular-101"/><use x="1338.197" xlink:href="#HelveticaWorld-Regular-32"/><use x="1362.611" xlink:href="#HelveticaWorld-Regular-100"/><use x="1419.594" xlink:href="#HelveticaWorld-Regular-97"/><use x="1474.525" xlink:href="#HelveticaWorld-Regular-116"/><use x="1502.211" xlink:href="#HelveticaWorld-Regular-97"/><use x="1557.143" xlink:href="#HelveticaWorld-Regular-32"/><use x="1581.557" xlink:href="#HelveticaWorld-Regular-102"/><use x="1607.242" xlink:href="#HelveticaWorld-Regular-111"/><use x="1663.15" xlink:href="#HelveticaWorld-Regular-114"/><use x="1695.719" xlink:href="#HelveticaWorld-Regular-32"/><use x="1720.133" xlink:href="#HelveticaWorld-Regular-120"/><use x="1770.133" xlink:href="#HelveticaWorld-Regular-121"/><use x="1819.742" xlink:href="#HelveticaWorld-Regular-89"/><use x="1884.537" xlink:href="#HelveticaWorld-Regular-95"/><use x="1940.152" xlink:href="#HelveticaWorld-Regular-49"/></g></g></g><defs><clipPath id="p94128b9a1f"><path d="M48.918 47.392h247.821v266.112H48.918z"/></clipPath></defs></svg>