<svg height="476.965" viewBox="0 0 380.927 357.724" width="507.903" xmlns="http://www.w3.org/2000/svg" xmlns:xlink="http://www.w3.org/1999/xlink"><defs><style>*{stroke-linecap:butt;stroke-linejoin:round}</style></defs><g id="figure_1"><path d="M0 357.724h380.927V0H0z" fill="none" id="patch_1"/><g id="axes_1"><path d="M56.439 313.628h317.288V47.516H56.439z" fill="none" id="patch_2"/><path clip-path="url(#pee9d3cc79a)" d="M161.904 116.138c2.452 1.794 5.176 3.007 7.57 3.372 2.396.366 4.266-.147 5.201-1.425.935-1.277.857-3.215-.216-5.387-1.073-2.172-3.053-4.401-5.505-6.195-2.453-1.794-5.176-3.008-7.57-3.373-2.396-.365-4.267.147-5.201 1.425-.935 1.278-.858 3.216.215 5.388 1.073 2.172 3.054 4.4 5.506 6.195z" fill="#969696" id="patch_3"/><path clip-path="url(#pee9d3cc79a)" d="M304.399 156.996c1.052-.767 1.49-2.287 1.218-4.224-.273-1.937-1.234-4.134-2.672-6.107-1.438-1.972-3.235-3.56-4.996-4.412-1.76-.852-3.341-.9-4.393-.133-1.053.767-1.49 2.286-1.218 4.223.273 1.937 1.234 4.134 2.671 6.107 1.438 1.972 3.236 3.56 4.996 4.412 1.761.853 3.342.9 4.394.134z" fill="#969696" id="patch_4"/><path clip-path="url(#pee9d3cc79a)" d="M191.275 128.825c.955-.791 1.177-2.388.618-4.437-.56-2.05-1.855-4.387-3.6-6.495-1.746-2.108-3.8-3.815-5.71-4.747-1.91-.93-3.52-1.01-4.475-.219-.955.791-1.177 2.387-.618 4.437.56 2.05 1.855 4.386 3.6 6.494 1.747 2.108 3.8 3.816 5.71 4.747 1.91.932 3.52 1.01 4.475.22z" fill="#969696" id="patch_5"/><path clip-path="url(#pee9d3cc79a)" d="M133.542 105.24c3.068 1.593 6.321 2.524 9.043 2.588 2.722.064 4.69-.745 5.47-2.248.782-1.504.312-3.58-1.305-5.77-1.618-2.19-4.25-4.315-7.318-5.91-3.068-1.593-6.322-2.524-9.043-2.588-2.722-.064-4.69.745-5.471 2.248-.781 1.504-.311 3.58 1.306 5.77 1.617 2.19 4.25 4.315 7.318 5.91z" fill="#969696" id="patch_6"/><path clip-path="url(#pee9d3cc79a)" d="M259.918 123.06c1.174-.067 2.259-.882 3.014-2.268.756-1.385 1.12-3.228 1.014-5.121-.107-1.893-.676-3.683-1.582-4.975-.906-1.292-2.075-1.981-3.25-1.915-1.174.066-2.259.882-3.014 2.267-.755 1.386-1.12 3.228-1.014 5.121.107 1.894.676 3.683 1.582 4.975.906 1.293 2.075 1.981 3.25 1.915z" fill="#969696" id="patch_7"/><path clip-path="url(#pee9d3cc79a)" d="M97.586 92.835c4.407 2.69 9.073 4.548 12.972 5.165 3.9.618 6.713-.055 7.822-1.87 1.108-1.817.42-4.627-1.912-7.812-2.331-3.186-6.117-6.487-10.523-9.176-4.407-2.69-9.073-4.548-12.972-5.166-3.9-.617-6.713.056-7.822 1.872-1.108 1.815-.42 4.625 1.912 7.811 2.331 3.186 6.117 6.487 10.523 9.176z" fill="#969696" id="patch_8"/><path clip-path="url(#pee9d3cc79a)" d="M300.867 134.646c.968-.864 1.31-2.35.952-4.131-.359-1.78-1.39-3.71-2.866-5.365-1.476-1.654-3.276-2.897-5.004-3.456-1.729-.558-3.244-.386-4.213.478-.968.864-1.311 2.35-.952 4.13.359 1.782 1.39 3.712 2.865 5.366 1.476 1.654 3.277 2.897 5.005 3.455 1.729.559 3.244.387 4.213-.477z" fill="#969696" id="patch_9"/><path clip-path="url(#pee9d3cc79a)" d="M192.58 97.68c.925-.29 1.41-1.848 1.35-4.33-.061-2.484-.663-5.69-1.674-8.911-1.01-3.222-2.347-6.197-3.716-8.27-1.368-2.073-2.656-3.075-3.58-2.785-.925.29-1.41 1.848-1.35 4.331.061 2.484.663 5.689 1.674 8.91 1.01 3.223 2.347 6.198 3.716 8.27 1.368 2.074 2.656 3.076 3.58 2.786z" fill="#969696" id="patch_10"/><path clip-path="url(#pee9d3cc79a)" d="M191.341 179.514c3.083 1.611 6.2 2.853 8.663 3.452 2.463.598 4.072.504 4.472-.26.4-.766-.441-2.14-2.338-3.822-1.898-1.68-4.696-3.53-7.78-5.143-3.083-1.612-6.2-2.853-8.662-3.452-2.463-.598-4.072-.505-4.472.26-.4.766.44 2.14 2.338 3.822 1.897 1.68 4.696 3.53 7.78 5.143z" fill="#969696" id="patch_11"/><path clip-path="url(#pee9d3cc79a)" d="M269.01 149.738c.786-.64.986-1.934.556-3.598-.43-1.663-1.455-3.561-2.849-5.274-1.394-1.714-3.043-3.103-4.585-3.862-1.542-.76-2.85-.827-3.636-.187-.786.64-.986 1.934-.556 3.598.43 1.663 1.454 3.561 2.849 5.274 1.394 1.714 3.043 3.103 4.585 3.862 1.541.76 2.85.827 3.636.187z" fill="#969696" id="patch_12"/><path clip-path="url(#pee9d3cc79a)" d="M215.907 115.732c1.058-.594 1.565-2.07 1.408-4.106-.158-2.035-.966-4.462-2.247-6.746-1.282-2.284-2.931-4.239-4.586-5.434-1.655-1.195-3.18-1.533-4.238-.939-1.059.594-1.565 2.071-1.408 4.106.157 2.035.966 4.462 2.247 6.746 1.281 2.284 2.93 4.24 4.585 5.434 1.655 1.195 3.18 1.533 4.239.94z" fill="#969696" id="patch_13"/><path clip-path="url(#pee9d3cc79a)" d="M229.374 137.857c1.402 1.516 2.973 2.76 4.37 3.457 1.396.698 2.503.792 3.076.262.574-.53.567-1.64-.018-3.088-.586-1.447-1.702-3.111-3.103-4.628-1.401-1.516-2.973-2.76-4.37-3.457-1.396-.697-2.502-.791-3.076-.261-.573.53-.567 1.64.019 3.087.585 1.447 1.701 3.112 3.102 4.628z" fill="#969696" id="patch_14"/><path clip-path="url(#pee9d3cc79a)" d="M202.06 157.637c1.911 2.315 4 4.324 5.809 5.584 1.808 1.26 3.187 1.669 3.833 1.135.646-.533.507-1.964-.387-3.979-.895-2.014-2.47-4.446-4.381-6.762-1.911-2.315-4-4.324-5.809-5.584-1.808-1.26-3.186-1.669-3.833-1.135-.646.533-.506 1.964.388 3.979.894 2.014 2.47 4.446 4.38 6.762z" fill="#969696" id="patch_15"/><path clip-path="url(#pee9d3cc79a)" d="M140.551 140.97c3.785 1.025 7.55 1.51 10.464 1.351 2.915-.159 4.743-.95 5.082-2.2.338-1.25-.842-2.855-3.278-4.463-2.437-1.608-5.933-3.086-9.718-4.11-3.784-1.025-7.548-1.51-10.464-1.351-2.915.159-4.743.95-5.08 2.2-.339 1.25.84 2.855 3.277 4.463 2.437 1.608 5.933 3.086 9.717 4.11z" fill="#969696" id="patch_16"/><path clip-path="url(#pee9d3cc79a)" d="M275.537 225.85c.411-.484-.872-2.373-3.568-5.251-2.695-2.878-6.582-6.509-10.805-10.094-4.223-3.586-8.437-6.832-11.714-9.025-3.277-2.193-5.349-3.153-5.76-2.669-.411.484.872 2.373 3.568 5.25 2.695 2.879 6.582 6.51 10.805 10.095 4.223 3.586 8.437 6.832 11.714 9.025 3.277 2.193 5.35 3.153 5.76 2.669z" fill="#969696" id="patch_17"/><path clip-path="url(#pee9d3cc79a)" d="M300.086 214.49c.475-.47-.4-2.267-2.432-4.993-2.033-2.726-5.057-6.16-8.407-9.544-3.35-3.385-6.753-6.445-9.458-8.505-2.705-2.06-4.492-2.954-4.967-2.484-.476.47.4 2.267 2.432 4.993 2.033 2.726 5.057 6.16 8.407 9.544 3.35 3.385 6.753 6.445 9.458 8.505 2.705 2.061 4.492 2.954 4.967 2.484z" fill="#969696" id="patch_18"/><path clip-path="url(#pee9d3cc79a)" d="M344.332 288.447c.392-.486-.911-2.305-3.622-5.056-2.71-2.75-6.608-6.209-10.833-9.613-4.225-3.403-8.433-6.475-11.698-8.538-3.265-2.063-5.32-2.949-5.711-2.462-.392.486.911 2.305 3.622 5.055 2.71 2.751 6.608 6.21 10.833 9.613 4.225 3.404 8.433 6.475 11.698 8.538 3.265 2.063 5.32 2.95 5.711 2.463z" fill="#969696" id="patch_19"/><path clip-path="url(#pee9d3cc79a)" d="M318.854 188.656c1.036-.916.83-3.15-.572-6.208-1.401-3.058-3.884-6.691-6.902-10.1-3.017-3.408-6.323-6.313-9.188-8.076-2.866-1.762-5.058-2.237-6.093-1.32-1.035.916-.83 3.15.572 6.207 1.402 3.059 3.885 6.692 6.902 10.1 3.018 3.41 6.323 6.314 9.189 8.076 2.865 1.763 5.057 2.238 6.092 1.321z" fill="#969696" id="patch_20"/><path clip-path="url(#pee9d3cc79a)" d="M253.983 101.883c1.32.015 2.595-.788 3.545-2.232.95-1.444 1.497-3.411 1.52-5.469.025-2.057-.477-4.037-1.392-5.503-.916-1.466-2.172-2.298-3.492-2.313-1.32-.016-2.594.787-3.544 2.231-.95 1.444-1.497 3.412-1.521 5.47-.024 2.057.477 4.036 1.393 5.502.916 1.466 2.172 2.298 3.491 2.314z" fill="#969696" id="patch_21"/><path clip-path="url(#pee9d3cc79a)" d="M210.498 136.142c.68-.368 1.034-1.27.985-2.509-.049-1.239-.497-2.712-1.246-4.096s-1.737-2.566-2.747-3.284c-1.01-.719-1.96-.916-2.64-.548-.679.367-1.033 1.27-.984 2.509.049 1.238.497 2.712 1.246 4.096s1.737 2.565 2.747 3.284c1.01.718 1.96.916 2.64.548z" fill="#969696" id="patch_22"/><path clip-path="url(#pee9d3cc79a)" d="M292.425 106.903c1.599-.049 3.108-.902 4.195-2.373 1.087-1.47 1.663-3.437 1.601-5.468-.062-2.03-.756-3.96-1.93-5.36-1.175-1.402-2.733-2.163-4.332-2.114-1.6.049-3.108.902-4.195 2.373-1.087 1.47-1.663 3.437-1.602 5.468.062 2.03.757 3.96 1.931 5.36 1.174 1.402 2.733 2.162 4.332 2.114z" fill="#969696" id="patch_23"/><path clip-path="url(#pee9d3cc79a)" d="M108.428 117.168c3.947.727 7.829.903 10.79.489 2.962-.414 4.762-1.383 5.003-2.695.242-1.312-1.095-2.859-3.715-4.3-2.62-1.441-6.31-2.66-10.256-3.386-3.947-.727-7.829-.903-10.79-.489-2.962.414-4.762 1.383-5.003 2.695-.242 1.312 1.095 2.859 3.715 4.3 2.62 1.442 6.31 2.66 10.256 3.386z" fill="#969696" id="patch_24"/><path clip-path="url(#pee9d3cc79a)" d="M240.239 165.863c.444-.368.258-1.461-.518-3.04-.776-1.578-2.078-3.513-3.62-5.377-1.542-1.865-3.198-3.508-4.602-4.566-1.405-1.059-2.444-1.447-2.888-1.08-.445.368-.259 1.461.517 3.04.776 1.578 2.079 3.513 3.62 5.378 1.542 1.864 3.198 3.507 4.603 4.565 1.404 1.059 2.443 1.447 2.888 1.08z" fill="#969696" id="patch_25"/><path clip-path="url(#pee9d3cc79a)" d="M285.892 189.458c.563-.475.099-2.12-1.29-4.572-1.387-2.452-3.587-5.512-6.113-8.506-2.525-2.993-5.172-5.676-7.356-7.457-2.183-1.781-3.727-2.515-4.29-2.04-.562.475-.098 2.12 1.29 4.572 1.388 2.452 3.587 5.512 6.113 8.506 2.526 2.993 5.172 5.676 7.356 7.457 2.184 1.78 3.727 2.515 4.29 2.04z" fill="#969696" id="patch_26"/><path clip-path="url(#pee9d3cc79a)" d="M231.73 101.797c1.093-.286 1.874-1.587 2.17-3.617.295-2.03.083-4.625-.592-7.21-.675-2.587-1.757-4.954-3.008-6.58-1.25-1.628-2.567-2.381-3.66-2.096-1.094.286-1.875 1.587-2.171 3.617-.296 2.03-.083 4.625.592 7.21.675 2.587 1.757 4.954 3.007 6.58 1.25 1.627 2.568 2.381 3.661 2.096z" fill="#969696" id="patch_27"/><g id="matplotlib.axis_1"><g id="xtick_1"><g id="line2d_1"><defs><path d="M0 0v3.5" id="m73731d37de" stroke="#969696" stroke-width=".4"/></defs><use x="69.02" xlink:href="#m73731d37de" y="313.628" fill="#969696" stroke="#969696" stroke-width=".4"/></g><g transform="matrix(.14 0 0 -.14 53.24 330.678)" fill="#969696" id="text_1"><defs><path d="M54.594 21.578H4v7.328h50.594z" id="HelveticaWorld-Regular-8722"/><path d="M4.39 45.125q0 12.39 6.391 18.781 6.406 6.407 17.938 6.407 9.656 0 15.812-5.86 6.157-5.86 6.157-15.14 0-7.22-3.547-12.188-3.532-4.953-10.422-8.703l-12.11-6.64Q13.922 15.921 12.5 8.296h38.188V0H2.593q.39 9.906 4.297 16.5 3.906 6.594 12.203 11.375l12.593 7.328q5.032 2.89 7.329 5.984 2.297 3.094 2.297 8.516 0 5.375-3.766 9.031-3.75 3.672-10.156 3.672-7.078 0-10.594-4.672-3.516-4.656-3.61-12.609z" id="HelveticaWorld-Regular-50"/><path d="M42.484 34.188q0 14.109-3.734 21.156-3.734 7.062-10.969 7.062-7.078 0-10.89-7.062-3.797-7.047-3.797-21.157 0-13.671 3.75-20.937Q20.609 6 27.78 6q7.235 0 10.969 7 3.734 7.016 3.734 21.188zm9.422 0q0-17.297-6.25-26.704-6.25-9.39-17.875-9.39-12.062 0-18.062 9.734-6 9.75-6 26.36 0 17.03 6.14 26.578 6.157 9.547 17.922 9.547 11.625 0 17.875-9.5t6.25-26.626z" id="HelveticaWorld-Regular-48"/></defs><use xlink:href="#HelveticaWorld-Regular-8722"/><use x="58.594" xlink:href="#HelveticaWorld-Regular-50"/><use x="114.209" xlink:href="#HelveticaWorld-Regular-48"/><use x="169.824" xlink:href="#HelveticaWorld-Regular-48"/></g></g><g id="xtick_2"><use x="138.648" xlink:href="#m73731d37de" y="313.628" fill="#969696" stroke="#969696" stroke-width=".4" id="line2d_2"/><g transform="matrix(.14 0 0 -.14 122.869 330.678)" fill="#969696" id="text_2"><defs><path d="M35.89 0h-9.374v49.906H10.109v6.985q8.594.28 12.782 2.75Q27.094 62.109 29 70.313h6.89z" id="HelveticaWorld-Regular-49"/></defs><use xlink:href="#HelveticaWorld-Regular-8722"/><use x="58.594" xlink:href="#HelveticaWorld-Regular-49"/><use x="114.209" xlink:href="#HelveticaWorld-Regular-48"/><use x="169.824" xlink:href="#HelveticaWorld-Regular-48"/></g></g><g id="xtick_3"><use x="208.277" xlink:href="#m73731d37de" y="313.628" fill="#969696" stroke="#969696" stroke-width=".4" id="line2d_3"/><use xlink:href="#HelveticaWorld-Regular-48" transform="matrix(.14 0 0 -.14 204.384 330.678)" fill="#969696" id="text_3"/></g><g id="xtick_4"><use x="277.905" xlink:href="#m73731d37de" y="313.628" fill="#969696" stroke="#969696" stroke-width=".4" id="line2d_4"/><g transform="matrix(.14 0 0 -.14 266.227 330.678)" fill="#969696" id="text_4"><use xlink:href="#HelveticaWorld-Regular-49"/><use x="55.615" xlink:href="#HelveticaWorld-Regular-48"/><use x="111.23" xlink:href="#HelveticaWorld-Regular-48"/></g></g><g id="xtick_5"><use x="347.533" xlink:href="#m73731d37de" y="313.628" fill="#969696" stroke="#969696" stroke-width=".4" id="line2d_5"/><g transform="matrix(.14 0 0 -.14 335.855 330.678)" fill="#969696" id="text_5"><use xlink:href="#HelveticaWorld-Regular-50"/><use x="55.615" xlink:href="#HelveticaWorld-Regular-48"/><use x="111.23" xlink:href="#HelveticaWorld-Regular-48"/></g></g><g transform="matrix(.14 0 0 -.14 208.513 347.625)" fill="#969696" id="text_6"><defs><path d="M38.375 26.703q-.969-1.015-3.828-1.656-2.86-.625-10.672-1.656-5.766-.688-8.469-2.844-2.703-2.14-2.703-5.656 0-4.297 2.281-6.688 2.297-2.39 7.329-2.39 6.296 0 11.171 3.578 4.891 3.593 4.891 8.718zM6.203 36.375q.297 8.844 5.734 13.14 5.454 4.297 15.844 4.297 8.297 0 13.907-3.765 5.624-3.75 5.624-10.844V9.078Q47.313 6 50.094 6q1.125 0 2.89.39V0Q50.594-.984 48-.984q-4.5 0-6.703 1.921-2.188 1.938-2.281 6.047-7.516-8.5-18.891-8.5-7.422 0-11.922 4.204Q3.72 6.89 3.72 13.624q0 6.89 3.906 11.125Q11.531 29 19 29.89l15.516 1.891q4.203.64 4.203 6.203 0 4.11-3.047 6.297-3.047 2.203-9.25 2.203-5.516 0-8.485-2.437-2.953-2.438-3.53-7.672z" id="HelveticaWorld-Regular-97"/><path d="M5.906 64.594l10.5-3.797V71.78h6V60.797l10.5 3.797 2-5.516-10.781-3.36 6.688-9.234-4.938-3.375-6.484 9.375-6.5-9.375-4.875 3.375 6.687 9.235-10.797 3.36z" id="HelveticaWorld-Regular-42"/></defs><use xlink:href="#HelveticaWorld-Regular-97"/><use x="54.932" xlink:href="#HelveticaWorld-Regular-42"/></g></g><g id="matplotlib.axis_2"><g id="ytick_1"><g id="line2d_6"><defs><path d="M0 0h-3.5" id="m6a54a7c289" stroke="#969696" stroke-width=".3"/></defs><use x="56.439" xlink:href="#m6a54a7c289" y="302.906" fill="#969696" stroke="#969696" stroke-width=".3"/></g><g transform="matrix(.14 0 0 -.14 17.88 307.93)" fill="#969696" id="text_7"><defs><path d="M14.703 40.922q5.813 4.39 13.625 4.39 9.469 0 16.281-6.296 6.813-6.297 6.813-16.22 0-10.78-6.578-17.796-6.563-7-18.422-7-10.313 0-16.266 5.047Q4.203 8.109 3.22 17.39h9.094q.671-5.672 4.437-8.672 3.766-3 10.453-3 6.485 0 10.64 4.484Q42 14.703 42 21.688q0 7.125-4.36 11.421-4.343 4.297-11.218 4.297-7.813 0-13.047-6.687l-7.563.39 5.266 37.594h36.438v-8.5H17.672z" id="HelveticaWorld-Regular-53"/></defs><use xlink:href="#HelveticaWorld-Regular-8722"/><use x="58.594" xlink:href="#HelveticaWorld-Regular-50"/><use x="114.209" xlink:href="#HelveticaWorld-Regular-53"/><use x="169.824" xlink:href="#HelveticaWorld-Regular-48"/></g></g><g id="ytick_2"><use x="56.439" xlink:href="#m6a54a7c289" y="268.092" fill="#969696" stroke="#969696" stroke-width=".3" id="line2d_7"/><g transform="matrix(.14 0 0 -.14 17.88 273.117)" fill="#969696" id="text_8"><use xlink:href="#HelveticaWorld-Regular-8722"/><use x="58.594" xlink:href="#HelveticaWorld-Regular-50"/><use x="114.209" xlink:href="#HelveticaWorld-Regular-48"/><use x="169.824" xlink:href="#HelveticaWorld-Regular-48"/></g></g><g id="ytick_3"><use x="56.439" xlink:href="#m6a54a7c289" y="233.278" fill="#969696" stroke="#969696" stroke-width=".3" id="line2d_8"/><g transform="matrix(.14 0 0 -.14 17.88 238.303)" fill="#969696" id="text_9"><use xlink:href="#HelveticaWorld-Regular-8722"/><use x="58.594" xlink:href="#HelveticaWorld-Regular-49"/><use x="114.209" xlink:href="#HelveticaWorld-Regular-53"/><use x="169.824" xlink:href="#HelveticaWorld-Regular-48"/></g></g><g id="ytick_4"><use x="56.439" xlink:href="#m6a54a7c289" y="198.464" fill="#969696" stroke="#969696" stroke-width=".3" id="line2d_9"/><g transform="matrix(.14 0 0 -.14 17.88 203.488)" fill="#969696" id="text_10"><use xlink:href="#HelveticaWorld-Regular-8722"/><use x="58.594" xlink:href="#HelveticaWorld-Regular-49"/><use x="114.209" xlink:href="#HelveticaWorld-Regular-48"/><use x="169.824" xlink:href="#HelveticaWorld-Regular-48"/></g></g><g id="ytick_5"><use x="56.439" xlink:href="#m6a54a7c289" y="163.65" fill="#969696" stroke="#969696" stroke-width=".3" id="line2d_10"/><g transform="matrix(.14 0 0 -.14 25.665 168.674)" fill="#969696" id="text_11"><use xlink:href="#HelveticaWorld-Regular-8722"/><use x="58.594" xlink:href="#HelveticaWorld-Regular-53"/><use x="114.209" xlink:href="#HelveticaWorld-Regular-48"/></g></g><g id="ytick_6"><use x="56.439" xlink:href="#m6a54a7c289" y="128.835" fill="#969696" stroke="#969696" stroke-width=".3" id="line2d_11"/><use xlink:href="#HelveticaWorld-Regular-48" transform="matrix(.14 0 0 -.14 41.653 133.86)" fill="#969696" id="text_12"/></g><g id="ytick_7"><use x="56.439" xlink:href="#m6a54a7c289" y="94.021" fill="#969696" stroke="#969696" stroke-width=".3" id="line2d_12"/><g transform="matrix(.14 0 0 -.14 33.868 99.046)" fill="#969696" id="text_13"><use xlink:href="#HelveticaWorld-Regular-53"/><use x="55.615" xlink:href="#HelveticaWorld-Regular-48"/></g></g><g id="ytick_8"><use x="56.439" xlink:href="#m6a54a7c289" y="59.207" fill="#969696" stroke="#969696" stroke-width=".3" id="line2d_13"/><g transform="matrix(.14 0 0 -.14 26.083 64.232)" fill="#969696" id="text_14"><use xlink:href="#HelveticaWorld-Regular-49"/><use x="55.615" xlink:href="#HelveticaWorld-Regular-48"/><use x="111.23" xlink:href="#HelveticaWorld-Regular-48"/></g></g><g transform="matrix(.14 0 0 -.14 7.2 177.674)" fill="#969696" id="text_15"><defs><path d="M43.406 26.313q0 10.5-3.718 15.046-3.704 4.547-10.579 4.547-6.984-.11-10.562-5.453Q14.984 35.11 14.984 25q0-10.297 4.297-14.594Q23.578 6.11 29.297 6.11q6.5 0 10.297 5.344 3.812 5.344 3.812 14.86zM6.594 0v71.781h8.781V45.703h.203q5.61 8.11 15.14 8.11 9.766 0 15.766-7.25t6-18.876q0-13.093-6.062-21.156Q40.375-1.516 29.5-1.516q-9.578 0-14.406 8.016h-.203V0z" id="HelveticaWorld-Regular-98"/></defs><use xlink:href="#HelveticaWorld-Regular-98"/><use x="56.494" xlink:href="#HelveticaWorld-Regular-42"/></g></g><g transform="matrix(.14 0 0 -.14 122.35 17.516)" fill="#969696" id="text_16"><defs><path d="M67.484 0v42.39q0 .829.094 8.126t.094 9.78h-.281L47.312 0h-9.609L17.578 60.203h-.297q0-3.61.094-10.297.11-6.687.11-7.515V0H8.108v71.781h13.86L42.39 11.078h.28l20.313 60.703h13.922V0z" id="HelveticaWorld-Regular-77"/><path d="M39.594 34.719q-1.89 11.187-12.39 11.187-6.5 0-10.454-5.203-3.953-5.203-3.953-14.484 0-10.11 3.656-15.11 3.672-5 10.64-5 4.688 0 8.11 3.438 3.422 3.437 4.39 8.953h8.5q-1.312-9.703-6.859-14.86-5.547-5.156-14.328-5.156-10.297 0-16.89 7.047-6.594 7.063-6.594 19.172 0 13.281 6.594 21.188 6.593 7.922 18.5 7.922 8.687 0 13.843-5.204 5.157-5.203 5.735-13.89z" id="HelveticaWorld-Regular-99"/><path d="M44 29.5L33.406 61.078h-.203L21.687 29.5zm-25.297-8.594L11.188 0h-9.97l27 71.781h10.985L65.187 0H54.594l-7.078 20.906z" id="HelveticaWorld-Regular-65"/><path d="M13.094 26.313q0-9.704 3.844-14.954 3.859-5.25 10.265-5.25 6.094 0 10.188 4.485 4.109 4.5 4.109 13.094 0 11.03-3.5 16.625-3.484 5.593-10.61 5.593-6.78 0-10.546-4.453-3.75-4.437-3.75-15.14zM50.39 0h-8.297v7.172h-.203q-4.97-8.688-15.078-8.688-10.891 0-16.86 8.297Q4 15.094 4 27.688q0 11.625 5.906 18.875 5.922 7.25 15.875 7.25 9.813 0 15.625-8.891l.203.594V71.78h8.782z" id="HelveticaWorld-Regular-100"/><path d="M6.594 52.297h8.297v-7.375h.203q5.906 8.89 15.812 8.89 9.813 0 13.922-8.5 3.75 4.594 7.266 6.547 3.515 1.953 8.703 1.953 6.781 0 11.484-4.453Q77 44.922 77 36.187V0h-8.781v33.797q0 6.094-2.297 9.094-2.297 3.015-7.422 3.015-5.172 0-8.75-4.203-3.563-4.203-3.563-9.812V0h-8.78v36.188q0 4.53-2.11 7.124-2.094 2.594-6.094 2.594-6.297 0-10.062-4.687-3.766-4.688-3.766-12.703V0H6.594z" id="HelveticaWorld-Regular-109"/><path d="M42.484 30.328q-.687 8.485-4.5 12.031-3.797 3.547-10.109 3.547-6.39 0-10.328-4.5-3.922-4.484-4.172-11.078zm8.391-13.922q-1.453-8.11-7.953-13.422-5.719-4.5-15.047-4.593-10.984.093-17.438 7.203Q4 12.704 4 24.704q0 13.78 6.64 21.437 6.641 7.672 18.47 7.672 10.593 0 16.546-7.922 5.953-7.907 5.953-22.594H13.375q0-8.203 3.813-12.703Q21 6.109 28.608 6.109q5.375 0 9.235 3.235 3.86 3.25 4.25 7.062z" id="HelveticaWorld-Regular-101"/><path d="M15.375 0H6.594v71.781h8.781z" id="HelveticaWorld-Regular-108"/><path d="M6.594 61.813v9.968h8.781v-9.969zM15.375 0H6.594v52.297h8.781z" id="HelveticaWorld-Regular-105"/><path d="M14.984 23.688q0-8.407 4.094-13 4.11-4.579 10.219-4.579 6.687 0 10.39 5.438 3.72 5.453 3.72 14.765 0 10.22-3.563 14.907-3.563 4.687-10.735 4.687-6.984 0-10.562-5.5-3.563-5.5-3.563-16.718zm-8.39 28.609h8.297v-7.375h.203q5.61 8.89 15.625 8.89 10.11 0 15.937-7.359 5.828-7.344 5.828-18.766 0-12.796-5.953-21Q40.578-1.515 29.5-1.515q-9.094 0-13.922 7.032h-.203v-26.22H6.594z" id="HelveticaWorld-Regular-112"/><path d="M36.078 37.406q-.187 4.688-3.344 6.735-3.14 2.047-9.047 2.047-4.296 0-7.359-1.907-3.047-1.89-3.047-5.468 0-2.829 1.797-4.172 1.813-1.344 7.828-2.86l8.688-2.187q7.906-2 11.297-5.11 3.406-3.093 3.406-8.656 0-7.719-5.64-12.531-5.641-4.813-15.063-4.813-11 0-16.64 4.563-5.626 4.578-5.735 13.75h8.5q.203-5.422 3.594-8.063 3.39-2.625 10.171-2.625 5.516 0 8.766 2.188 3.25 2.203 3.25 6.11 0 2.78-2.11 4.437-2.093 1.672-8.296 3.078l-10.203 2.5q-6.203 1.562-9.157 4.656-2.953 3.094-2.953 8.031 0 7.72 5.516 12.203 5.531 4.5 14.406 4.5 9.485 0 14.531-4.624 5.047-4.61 5.344-11.782z" id="HelveticaWorld-Regular-115"/><path d="M17.188 45.016V0H8.405v45.016H1.22v7.28h7.187v8.985q0 5.907 3.578 8.703 3.594 2.813 10.032 2.813 2.203 0 3.968-.188v-7.906q-1.562.188-3.578.188-2.922 0-4.078-1.438-1.14-1.437-1.14-4.656v-6.5h8.796v-7.281z" id="HelveticaWorld-Regular-102"/><path d="M12.703 26.219q0-8.735 3.953-14.375 3.953-5.64 11.219-5.64 7.531 0 11.438 5.905 3.906 5.907 3.906 14.11 0 8.297-3.907 14.078-3.906 5.797-11.437 5.797-6.969 0-11.078-5.453-4.094-5.438-4.094-14.422zm-8.984 0q0 11.672 6.484 19.625 6.5 7.968 17.672 7.968 11.438 0 17.875-8.062 6.453-8.047 6.453-19.531 0-11.516-6.406-19.625-6.39-8.11-17.922-8.11-11.078 0-17.625 7.86-6.531 7.86-6.531 19.875z" id="HelveticaWorld-Regular-111"/><path d="M15.375 0H6.594v52.297h8.297v-8.688h.203q5.703 10.203 14.687 10.203 1.422 0 2.297-.296V44.39h-3.266q-5.906 0-9.671-4.016-3.766-4-3.766-9.953z" id="HelveticaWorld-Regular-114"/><path d="M58.016 50.203q-1.625 7.313-6.782 11.094-5.14 3.797-13.343 3.797-10.594 0-17.047-7.703-6.438-7.688-6.438-20.766 0-15.14 6.094-22.547 6.11-7.39 17.688-7.39 7.609 0 13.093 5.046 5.5 5.063 7.407 14.688h9.421Q66.22 12.594 57.625 5.344t-20.906-7.25q-14.703 0-23.516 10.11Q4.391 18.311 4.391 36.28q0 17.328 9.203 27.36 9.203 10.047 24.297 10.047 12.5 0 20.265-6.454 7.766-6.437 9.235-17.03z" id="HelveticaWorld-Regular-67"/><path d="M17.828 0H8.11v71.781h9.72z" id="HelveticaWorld-Regular-73"/><path d="M61.078 0H8.11v71.781h52.297v-8.594H17.828V41.22h39.25v-8.594h-39.25V8.594h43.25z" id="HelveticaWorld-Regular-69"/><path d="M17.672 8.594h36.531V0H8.11v71.781h9.563z" id="HelveticaWorld-Regular-76"/><path d="M8.11 71.781h31.484q9.281 0 14.797-5.031 5.515-5.031 5.515-13.031 0-4.844-2.422-8.828-2.406-3.97-7.187-6.172 6.687-2.532 9.828-6.735 3.156-4.203 3.156-10.797 0-9.265-6.687-15.234Q49.906 0 38.922 0H8.109zm9.562-63.484h20.703q7.625 0 11.422 3.531 3.812 3.547 3.812 9.563 0 6.093-4.25 9.093Q45.125 33.5 36.812 33.5h-19.14zm0 33.11h17.625q7.719 0 11.312 2.796 3.594 2.813 3.594 8.781 0 5.125-3.406 7.813-3.39 2.687-11.39 2.687H17.671z" id="HelveticaWorld-Regular-66"/></defs><use xlink:href="#HelveticaWorld-Regular-77"/><use x="85.01" xlink:href="#HelveticaWorld-Regular-97"/><use x="139.941" xlink:href="#HelveticaWorld-Regular-99"/><use x="191.211" xlink:href="#HelveticaWorld-Regular-65"/><use x="256.41" xlink:href="#HelveticaWorld-Regular-100"/><use x="313.393" xlink:href="#HelveticaWorld-Regular-97"/><use x="368.324" xlink:href="#HelveticaWorld-Regular-109"/><use x="451.332" xlink:href="#HelveticaWorld-Regular-32"/><use x="475.746" xlink:href="#HelveticaWorld-Regular-101"/><use x="531.166" xlink:href="#HelveticaWorld-Regular-108"/><use x="553.188" xlink:href="#HelveticaWorld-Regular-108"/><use x="575.209" xlink:href="#HelveticaWorld-Regular-105"/><use x="597.23" xlink:href="#HelveticaWorld-Regular-112"/><use x="653.725" xlink:href="#HelveticaWorld-Regular-115"/><use x="703.725" xlink:href="#HelveticaWorld-Regular-101"/><use x="759.145" xlink:href="#HelveticaWorld-Regular-115"/><use x="809.145" xlink:href="#HelveticaWorld-Regular-32"/><use x="833.559" xlink:href="#HelveticaWorld-Regular-102"/><use x="859.244" xlink:href="#HelveticaWorld-Regular-111"/><use x="915.152" xlink:href="#HelveticaWorld-Regular-114"/><use x="947.721" xlink:href="#HelveticaWorld-Regular-32"/><use x="972.135" xlink:href="#HelveticaWorld-Regular-67"/><use x="1044.449" xlink:href="#HelveticaWorld-Regular-73"/><use x="1070.23" xlink:href="#HelveticaWorld-Regular-69"/><use x="1135.221" xlink:href="#HelveticaWorld-Regular-76"/><use x="1190.836" xlink:href="#HelveticaWorld-Regular-65"/><use x="1257.535" xlink:href="#HelveticaWorld-Regular-66"/></g></g></g><defs><clipPath id="pee9d3cc79a"><path d="M56.439 47.516h317.288v266.112H56.439z"/></clipPath></defs></svg>