<svg height="476.609" viewBox="0 0 363.101 357.457" width="484.135" xmlns="http://www.w3.org/2000/svg" xmlns:xlink="http://www.w3.org/1999/xlink"><defs><style>*{stroke-linecap:butt;stroke-linejoin:round}</style></defs><g id="figure_1"><path d="M0 357.457h363.101V0H0z" fill="none" id="patch_1"/><g id="axes_1"><path d="M48.653 313.361h300.548V47.25H48.653z" fill="none" id="patch_2"/><g id="PathCollection_1"><defs><path d="M0 3a3 3 0 100-6 3 3 0 000 6z" id="m2d805402f1" stroke="#969696"/></defs><g clip-path="url(#p323fda29c5)" fill="#969696" stroke="#969696"><use x="48.655" xlink:href="#m2d805402f1" y="64.481"/><use x="70.733" xlink:href="#m2d805402f1" y="121.382"/><use x="48.655" xlink:href="#m2d805402f1" y="64.481"/><use x="115.788" xlink:href="#m2d805402f1" y="86.218"/><use x="70.733" xlink:href="#m2d805402f1" y="121.382"/><use x="115.788" xlink:href="#m2d805402f1" y="86.218"/><use x="70.733" xlink:href="#m2d805402f1" y="121.382"/><use x="71.731" xlink:href="#m2d805402f1" y="173.786"/><use x="70.733" xlink:href="#m2d805402f1" y="121.382"/><use x="112.836" xlink:href="#m2d805402f1" y="150.163"/><use x="115.788" xlink:href="#m2d805402f1" y="86.218"/><use x="161.055" xlink:href="#m2d805402f1" y="58.49"/><use x="115.788" xlink:href="#m2d805402f1" y="86.218"/><use x="112.836" xlink:href="#m2d805402f1" y="150.163"/><use x="115.788" xlink:href="#m2d805402f1" y="86.218"/><use x="155.441" xlink:href="#m2d805402f1" y="117.414"/><use x="161.055" xlink:href="#m2d805402f1" y="58.49"/><use x="155.441" xlink:href="#m2d805402f1" y="117.414"/><use x="161.055" xlink:href="#m2d805402f1" y="58.49"/><use x="188.606" xlink:href="#m2d805402f1" y="96.838"/><use x="71.731" xlink:href="#m2d805402f1" y="173.786"/><use x="112.836" xlink:href="#m2d805402f1" y="150.163"/><use x="71.731" xlink:href="#m2d805402f1" y="173.786"/><use x="88.365" xlink:href="#m2d805402f1" y="227.388"/><use x="71.731" xlink:href="#m2d805402f1" y="173.786"/><use x="125.273" xlink:href="#m2d805402f1" y="203.581"/><use x="112.836" xlink:href="#m2d805402f1" y="150.163"/><use x="155.441" xlink:href="#m2d805402f1" y="117.414"/><use x="112.836" xlink:href="#m2d805402f1" y="150.163"/><use x="125.273" xlink:href="#m2d805402f1" y="203.581"/><use x="112.836" xlink:href="#m2d805402f1" y="150.163"/><use x="159.863" xlink:href="#m2d805402f1" y="176.458"/><use x="155.441" xlink:href="#m2d805402f1" y="117.414"/><use x="188.606" xlink:href="#m2d805402f1" y="96.838"/><use x="155.441" xlink:href="#m2d805402f1" y="117.414"/><use x="159.863" xlink:href="#m2d805402f1" y="176.458"/><use x="155.441" xlink:href="#m2d805402f1" y="117.414"/><use x="193.227" xlink:href="#m2d805402f1" y="143.406"/><use x="188.606" xlink:href="#m2d805402f1" y="96.838"/><use x="225.545" xlink:href="#m2d805402f1" y="47.25"/><use x="188.606" xlink:href="#m2d805402f1" y="96.838"/><use x="193.227" xlink:href="#m2d805402f1" y="143.406"/><use x="188.606" xlink:href="#m2d805402f1" y="96.838"/><use x="223.686" xlink:href="#m2d805402f1" y="115.757"/><use x="225.545" xlink:href="#m2d805402f1" y="47.25"/><use x="223.686" xlink:href="#m2d805402f1" y="115.757"/><use x="225.545" xlink:href="#m2d805402f1" y="47.25"/><use x="256.476" xlink:href="#m2d805402f1" y="81.934"/><use x="88.365" xlink:href="#m2d805402f1" y="227.388"/><use x="125.273" xlink:href="#m2d805402f1" y="203.581"/><use x="88.365" xlink:href="#m2d805402f1" y="227.388"/><use x="119.326" xlink:href="#m2d805402f1" y="265.048"/><use x="88.365" xlink:href="#m2d805402f1" y="227.388"/><use x="141.261" xlink:href="#m2d805402f1" y="248.742"/><use x="125.273" xlink:href="#m2d805402f1" y="203.581"/><use x="159.863" xlink:href="#m2d805402f1" y="176.458"/><use x="125.273" xlink:href="#m2d805402f1" y="203.581"/><use x="141.261" xlink:href="#m2d805402f1" y="248.742"/><use x="125.273" xlink:href="#m2d805402f1" y="203.581"/><use x="173.156" xlink:href="#m2d805402f1" y="227.448"/><use x="159.863" xlink:href="#m2d805402f1" y="176.458"/><use x="193.227" xlink:href="#m2d805402f1" y="143.406"/><use x="159.863" xlink:href="#m2d805402f1" y="176.458"/><use x="173.156" xlink:href="#m2d805402f1" y="227.448"/><use x="159.863" xlink:href="#m2d805402f1" y="176.458"/><use x="200.332" xlink:href="#m2d805402f1" y="198.611"/><use x="193.227" xlink:href="#m2d805402f1" y="143.406"/><use x="223.686" xlink:href="#m2d805402f1" y="115.757"/><use x="193.227" xlink:href="#m2d805402f1" y="143.406"/><use x="200.332" xlink:href="#m2d805402f1" y="198.611"/><use x="193.227" xlink:href="#m2d805402f1" y="143.406"/><use x="228.202" xlink:href="#m2d805402f1" y="172.113"/><use x="223.686" xlink:href="#m2d805402f1" y="115.757"/><use x="256.476" xlink:href="#m2d805402f1" y="81.934"/><use x="223.686" xlink:href="#m2d805402f1" y="115.757"/><use x="228.202" xlink:href="#m2d805402f1" y="172.113"/><use x="223.686" xlink:href="#m2d805402f1" y="115.757"/><use x="256.888" xlink:href="#m2d805402f1" y="139.227"/><use x="256.476" xlink:href="#m2d805402f1" y="81.934"/><use x="284.656" xlink:href="#m2d805402f1" y="55.582"/><use x="256.476" xlink:href="#m2d805402f1" y="81.934"/><use x="256.888" xlink:href="#m2d805402f1" y="139.227"/><use x="256.476" xlink:href="#m2d805402f1" y="81.934"/><use x="287.066" xlink:href="#m2d805402f1" y="112.574"/><use x="284.656" xlink:href="#m2d805402f1" y="55.582"/><use x="287.066" xlink:href="#m2d805402f1" y="112.574"/><use x="284.656" xlink:href="#m2d805402f1" y="55.582"/><use x="313.721" xlink:href="#m2d805402f1" y="74.871"/><use x="119.326" xlink:href="#m2d805402f1" y="265.048"/><use x="141.261" xlink:href="#m2d805402f1" y="248.742"/><use x="119.326" xlink:href="#m2d805402f1" y="265.048"/><use x="169.129" xlink:href="#m2d805402f1" y="294.579"/><use x="141.261" xlink:href="#m2d805402f1" y="248.742"/><use x="173.156" xlink:href="#m2d805402f1" y="227.448"/><use x="141.261" xlink:href="#m2d805402f1" y="248.742"/><use x="169.129" xlink:href="#m2d805402f1" y="294.579"/><use x="141.261" xlink:href="#m2d805402f1" y="248.742"/><use x="191.997" xlink:href="#m2d805402f1" y="270.433"/><use x="173.156" xlink:href="#m2d805402f1" y="227.448"/><use x="200.332" xlink:href="#m2d805402f1" y="198.611"/><use x="173.156" xlink:href="#m2d805402f1" y="227.448"/><use x="191.997" xlink:href="#m2d805402f1" y="270.433"/><use x="173.156" xlink:href="#m2d805402f1" y="227.448"/><use x="214.536" xlink:href="#m2d805402f1" y="241.095"/><use x="200.332" xlink:href="#m2d805402f1" y="198.611"/><use x="228.202" xlink:href="#m2d805402f1" y="172.113"/><use x="200.332" xlink:href="#m2d805402f1" y="198.611"/><use x="214.536" xlink:href="#m2d805402f1" y="241.095"/><use x="200.332" xlink:href="#m2d805402f1" y="198.611"/><use x="235.898" xlink:href="#m2d805402f1" y="214.687"/><use x="228.202" xlink:href="#m2d805402f1" y="172.113"/><use x="256.888" xlink:href="#m2d805402f1" y="139.227"/><use x="228.202" xlink:href="#m2d805402f1" y="172.113"/><use x="235.898" xlink:href="#m2d805402f1" y="214.687"/><use x="228.202" xlink:href="#m2d805402f1" y="172.113"/><use x="265.019" xlink:href="#m2d805402f1" y="187.44"/><use x="256.888" xlink:href="#m2d805402f1" y="139.227"/><use x="287.066" xlink:href="#m2d805402f1" y="112.574"/><use x="256.888" xlink:href="#m2d805402f1" y="139.227"/><use x="265.019" xlink:href="#m2d805402f1" y="187.44"/><use x="256.888" xlink:href="#m2d805402f1" y="139.227"/><use x="286.486" xlink:href="#m2d805402f1" y="160.638"/><use x="287.066" xlink:href="#m2d805402f1" y="112.574"/><use x="313.721" xlink:href="#m2d805402f1" y="74.871"/><use x="287.066" xlink:href="#m2d805402f1" y="112.574"/><use x="286.486" xlink:href="#m2d805402f1" y="160.638"/><use x="287.066" xlink:href="#m2d805402f1" y="112.574"/><use x="322.834" xlink:href="#m2d805402f1" y="127.565"/><use x="313.721" xlink:href="#m2d805402f1" y="74.871"/><use x="322.834" xlink:href="#m2d805402f1" y="127.565"/><use x="313.721" xlink:href="#m2d805402f1" y="74.871"/><use x="345.815" xlink:href="#m2d805402f1" y="107.387"/><use x="169.129" xlink:href="#m2d805402f1" y="294.579"/><use x="191.997" xlink:href="#m2d805402f1" y="270.433"/><use x="169.129" xlink:href="#m2d805402f1" y="294.579"/><use x="221.812" xlink:href="#m2d805402f1" y="313.36"/><use x="191.997" xlink:href="#m2d805402f1" y="270.433"/><use x="214.536" xlink:href="#m2d805402f1" y="241.095"/><use x="191.997" xlink:href="#m2d805402f1" y="270.433"/><use x="221.812" xlink:href="#m2d805402f1" y="313.36"/><use x="191.997" xlink:href="#m2d805402f1" y="270.433"/><use x="234.005" xlink:href="#m2d805402f1" y="283.661"/><use x="214.536" xlink:href="#m2d805402f1" y="241.095"/><use x="235.898" xlink:href="#m2d805402f1" y="214.687"/><use x="214.536" xlink:href="#m2d805402f1" y="241.095"/><use x="234.005" xlink:href="#m2d805402f1" y="283.661"/><use x="214.536" xlink:href="#m2d805402f1" y="241.095"/><use x="248.687" xlink:href="#m2d805402f1" y="258.954"/><use x="235.898" xlink:href="#m2d805402f1" y="214.687"/><use x="265.019" xlink:href="#m2d805402f1" y="187.44"/><use x="235.898" xlink:href="#m2d805402f1" y="214.687"/><use x="248.687" xlink:href="#m2d805402f1" y="258.954"/><use x="235.898" xlink:href="#m2d805402f1" y="214.687"/><use x="267.063" xlink:href="#m2d805402f1" y="229.643"/><use x="265.019" xlink:href="#m2d805402f1" y="187.44"/><use x="286.486" xlink:href="#m2d805402f1" y="160.638"/><use x="265.019" xlink:href="#m2d805402f1" y="187.44"/><use x="267.063" xlink:href="#m2d805402f1" y="229.643"/><use x="265.019" xlink:href="#m2d805402f1" y="187.44"/><use x="290.062" xlink:href="#m2d805402f1" y="201.045"/><use x="286.486" xlink:href="#m2d805402f1" y="160.638"/><use x="322.834" xlink:href="#m2d805402f1" y="127.565"/><use x="286.486" xlink:href="#m2d805402f1" y="160.638"/><use x="290.062" xlink:href="#m2d805402f1" y="201.045"/><use x="286.486" xlink:href="#m2d805402f1" y="160.638"/><use x="322.943" xlink:href="#m2d805402f1" y="175.425"/><use x="322.834" xlink:href="#m2d805402f1" y="127.565"/><use x="345.815" xlink:href="#m2d805402f1" y="107.387"/><use x="322.834" xlink:href="#m2d805402f1" y="127.565"/><use x="322.943" xlink:href="#m2d805402f1" y="175.425"/><use x="322.834" xlink:href="#m2d805402f1" y="127.565"/><use x="349.2" xlink:href="#m2d805402f1" y="152.261"/><use x="345.815" xlink:href="#m2d805402f1" y="107.387"/><use x="349.2" xlink:href="#m2d805402f1" y="152.261"/><use x="221.812" xlink:href="#m2d805402f1" y="313.36"/><use x="234.005" xlink:href="#m2d805402f1" y="283.661"/><use x="234.005" xlink:href="#m2d805402f1" y="283.661"/><use x="248.687" xlink:href="#m2d805402f1" y="258.954"/><use x="234.005" xlink:href="#m2d805402f1" y="283.661"/><use x="281.518" xlink:href="#m2d805402f1" y="298.55"/><use x="248.687" xlink:href="#m2d805402f1" y="258.954"/><use x="267.063" xlink:href="#m2d805402f1" y="229.643"/><use x="248.687" xlink:href="#m2d805402f1" y="258.954"/><use x="281.518" xlink:href="#m2d805402f1" y="298.55"/><use x="248.687" xlink:href="#m2d805402f1" y="258.954"/><use x="297.085" xlink:href="#m2d805402f1" y="273.22"/><use x="267.063" xlink:href="#m2d805402f1" y="229.643"/><use x="290.062" xlink:href="#m2d805402f1" y="201.045"/><use x="267.063" xlink:href="#m2d805402f1" y="229.643"/><use x="297.085" xlink:href="#m2d805402f1" y="273.22"/><use x="267.063" xlink:href="#m2d805402f1" y="229.643"/><use x="322.752" xlink:href="#m2d805402f1" y="245.027"/><use x="290.062" xlink:href="#m2d805402f1" y="201.045"/><use x="322.943" xlink:href="#m2d805402f1" y="175.425"/><use x="290.062" xlink:href="#m2d805402f1" y="201.045"/><use x="322.752" xlink:href="#m2d805402f1" y="245.027"/><use x="290.062" xlink:href="#m2d805402f1" y="201.045"/><use x="339.44" xlink:href="#m2d805402f1" y="227.23"/><use x="322.943" xlink:href="#m2d805402f1" y="175.425"/><use x="349.2" xlink:href="#m2d805402f1" y="152.261"/><use x="322.943" xlink:href="#m2d805402f1" y="175.425"/><use x="339.44" xlink:href="#m2d805402f1" y="227.23"/><use x="281.518" xlink:href="#m2d805402f1" y="298.55"/><use x="297.085" xlink:href="#m2d805402f1" y="273.22"/><use x="297.085" xlink:href="#m2d805402f1" y="273.22"/><use x="322.752" xlink:href="#m2d805402f1" y="245.027"/><use x="322.752" xlink:href="#m2d805402f1" y="245.027"/><use x="339.44" xlink:href="#m2d805402f1" y="227.23"/></g></g><path clip-path="url(#p323fda29c5)" d="M57.098 86.241l-.01-.012h.003L48.653 64.48l.003-.001 8.438 21.747.003-.001z" fill="#969696" stroke="#969696" id="patch_3"/><path clip-path="url(#p323fda29c5)" d="M62.29 99.62l.01.013-.004.001 8.438 21.747-.003.001-8.438-21.747-.003.001z" fill="#969696" stroke="#969696" id="patch_4"/><path clip-path="url(#p323fda29c5)" d="M73.693 72.588h-.016l.001-.003-25.024-8.103.001-.003 25.024 8.103.001-.003z" fill="#969696" stroke="#969696" id="patch_5"/><path clip-path="url(#p323fda29c5)" d="M90.75 78.11h.016l-.001.004 25.024 8.102-.001.004-25.024-8.103-.001.003z" fill="#969696" stroke="#969696" id="patch_6"/><path clip-path="url(#p323fda29c5)" d="M88.054 107.863l-.009.013-.002-.002-17.31 13.509-.001-.003 17.31-13.509-.003-.003z" fill="#969696" stroke="#969696" id="patch_7"/><path clip-path="url(#p323fda29c5)" d="M98.467 99.736l.008-.013.002.003 17.31-13.51.002.003-17.31 13.51.003.002z" fill="#969696" stroke="#969696" id="patch_8"/><path clip-path="url(#p323fda29c5)" d="M71.148 143.196l-.005-.015h.003l-.415-21.8h.003l.416 21.8h.003z" fill="#969696" stroke="#969696" id="patch_9"/><path clip-path="url(#p323fda29c5)" d="M71.315 151.972l.006.014h-.004l.416 21.8h-.004l-.415-21.8h-.003z" fill="#969696" stroke="#969696" id="patch_10"/><path clip-path="url(#p323fda29c5)" d="M85.788 131.673l-.015-.004.002-.003-15.043-10.283.002-.003 15.042 10.283.002-.003z" fill="#969696" stroke="#969696" id="patch_11"/><path clip-path="url(#p323fda29c5)" d="M97.781 139.871l.015.005-.002.002 15.043 10.283-.001.003-15.043-10.283-.002.003z" fill="#969696" stroke="#969696" id="patch_12"/><path clip-path="url(#p323fda29c5)" d="M137.769 72.754l-.01.012-.002-.003-21.968 13.456-.002-.002 21.968-13.457-.001-.003z" fill="#969696" stroke="#969696" id="patch_13"/><path clip-path="url(#p323fda29c5)" d="M139.075 71.954l.01-.012.001.003 21.969-13.457.001.003-21.968 13.457.002.002z" fill="#969696" stroke="#969696" id="patch_14"/><path clip-path="url(#p323fda29c5)" d="M114.492 114.295l-.004-.015h.003l1.295-28.062h.004l-1.296 28.063h.004z" fill="#969696" stroke="#969696" id="patch_15"/><path clip-path="url(#p323fda29c5)" d="M114.132 122.085l.005.015h-.004l-1.295 28.063h-.003l1.295-28.063h-.003z" fill="#969696" stroke="#969696" id="patch_16"/><path clip-path="url(#p323fda29c5)" d="M131.849 98.853l-.015-.005.002-.003-16.049-12.626.002-.002 16.05 12.626.001-.003z" fill="#969696" stroke="#969696" id="patch_17"/><path clip-path="url(#p323fda29c5)" d="M139.38 104.779l.015.005-.002.002 16.05 12.627-.003.002-16.049-12.626-.002.003z" fill="#969696" stroke="#969696" id="patch_18"/><path clip-path="url(#p323fda29c5)" d="M159.257 77.368l-.004-.015h.004l1.797-18.864h.003l-1.797 18.864h.003z" fill="#969696" stroke="#969696" id="patch_19"/><path clip-path="url(#p323fda29c5)" d="M157.24 98.536l.003.015h-.003l-1.797 18.863h-.003l1.797-18.864h-.003z" fill="#969696" stroke="#969696" id="patch_20"/><path clip-path="url(#p323fda29c5)" d="M173.478 75.78l-.013-.008.003-.002-12.414-17.28.003-.001 12.413 17.279.003-.002z" fill="#969696" stroke="#969696" id="patch_21"/><path clip-path="url(#p323fda29c5)" d="M176.183 79.547l.013.009-.003.002 12.414 17.28-.003.001-12.413-17.28-.003.003z" fill="#969696" stroke="#969696" id="patch_22"/><path clip-path="url(#p323fda29c5)" d="M91.486 162.433l-.01.011-.002-.002-19.742 11.345-.002-.002 19.742-11.346-.001-.003z" fill="#969696" stroke="#969696" id="patch_23"/><path clip-path="url(#p323fda29c5)" d="M93.081 161.516l.01-.012.002.003 19.743-11.346.001.003-19.742 11.346.002.003z" fill="#969696" stroke="#969696" id="patch_24"/><path clip-path="url(#p323fda29c5)" d="M79.522 198.893l-.009-.012.004-.001-7.788-25.093.003-.001 7.788 25.093.003-.001z" fill="#969696" stroke="#969696" id="patch_25"/><path clip-path="url(#p323fda29c5)" d="M80.574 202.281l.009.013h-.003l7.787 25.094h-.003l-7.787-25.092h-.004z" fill="#969696" stroke="#969696" id="patch_26"/><path clip-path="url(#p323fda29c5)" d="M87.115 182.347l-.015-.003.002-.003-15.372-8.553.002-.003 15.371 8.554.002-.003z" fill="#969696" stroke="#969696" id="patch_27"/><path clip-path="url(#p323fda29c5)" d="M109.888 195.02l.015.003-.001.003 15.371 8.554-.001.003-15.372-8.554-.001.002z" fill="#969696" stroke="#969696" id="patch_28"/><path clip-path="url(#p323fda29c5)" d="M129.158 137.617l-.01.013-.001-.002-16.31 12.536-.002-.003 16.31-12.536-.002-.003z" fill="#969696" stroke="#969696" id="patch_29"/><path clip-path="url(#p323fda29c5)" d="M139.12 129.96l.009-.013.002.002 16.31-12.536.001.002-16.31 12.537.003.002z" fill="#969696" stroke="#969696" id="patch_30"/><path clip-path="url(#p323fda29c5)" d="M117.54 170.369l-.007-.013.003-.001-4.701-20.192h.003l4.7 20.191h.004z" fill="#969696" stroke="#969696" id="patch_31"/><path clip-path="url(#p323fda29c5)" d="M120.568 183.375l.009.013h-.004l4.701 20.193h-.003l-4.7-20.191h-.004z" fill="#969696" stroke="#969696" id="patch_32"/><path clip-path="url(#p323fda29c5)" d="M123.77 156.276l-.015-.003.001-.003-10.92-6.106.001-.003 10.92 6.107.002-.003z" fill="#969696" stroke="#969696" id="patch_33"/><path clip-path="url(#p323fda29c5)" d="M148.93 170.344l.015.003-.002.003 10.92 6.106v.003l-10.921-6.106-.002.003z" fill="#969696" stroke="#969696" id="patch_34"/><path clip-path="url(#p323fda29c5)" d="M174.36 105.676l-.01.012-.001-.003-18.907 11.73-.002-.003 18.907-11.73-.002-.002z" fill="#969696" stroke="#969696" id="patch_35"/><path clip-path="url(#p323fda29c5)" d="M169.687 108.576l.01-.012.001.003 18.907-11.73.001.003-18.906 11.73.002.002z" fill="#969696" stroke="#969696" id="patch_36"/><path clip-path="url(#p323fda29c5)" d="M156.618 133.128l-.006-.015h.003l-1.175-15.699h.003l1.176 15.699h.003z" fill="#969696" stroke="#969696" id="patch_37"/><path clip-path="url(#p323fda29c5)" d="M158.686 160.744l.006.014h-.003l1.176 15.7h-.004l-1.175-15.7-.004.001z" fill="#969696" stroke="#969696" id="patch_38"/><path clip-path="url(#p323fda29c5)" d="M171.654 128.566l-.015-.004.002-.003-16.2-11.144.001-.002 16.2 11.143.002-.002z" fill="#969696" stroke="#969696" id="patch_39"/><path clip-path="url(#p323fda29c5)" d="M177.015 132.254l.015.004-.002.003 16.2 11.144-.001.002-16.2-11.143-.003.002z" fill="#969696" stroke="#969696" id="patch_40"/><path clip-path="url(#p323fda29c5)" d="M206.308 73.075l-.005.015-.003-.002-17.693 23.751-.003-.002 17.694-23.751-.003-.002z" fill="#969696" stroke="#969696" id="patch_41"/><path clip-path="url(#p323fda29c5)" d="M207.843 71.014l.005-.015.003.002 17.693-23.752.003.002-17.694 23.752.003.002z" fill="#969696" stroke="#969696" id="patch_42"/><path clip-path="url(#p323fda29c5)" d="M190.263 113.535l-.007-.014h.004l-1.656-16.683h.003l1.656 16.683h.003z" fill="#969696" stroke="#969696" id="patch_43"/><path clip-path="url(#p323fda29c5)" d="M191.57 126.709l.007.014h-.004l1.656 16.683h-.003l-1.656-16.682h-.003z" fill="#969696" stroke="#969696" id="patch_44"/><path clip-path="url(#p323fda29c5)" d="M210.655 108.73l-.015-.003.001-.003-22.036-11.884.001-.003 22.037 11.884.001-.003z" fill="#969696" stroke="#969696" id="patch_45"/><path clip-path="url(#p323fda29c5)" d="M201.636 103.866l.016.002-.002.003 22.037 11.884-.002.003-22.036-11.884-.002.003z" fill="#969696" stroke="#969696" id="patch_46"/><path clip-path="url(#p323fda29c5)" d="M224.96 68.78l-.004-.014h.004l.584-21.516h.003l-.584 21.516h.003z" fill="#969696" stroke="#969696" id="patch_47"/><path clip-path="url(#p323fda29c5)" d="M224.27 94.227l.005.014h-.004l-.584 21.516h-.003l.584-21.516h-.003z" fill="#969696" stroke="#969696" id="patch_48"/><path clip-path="url(#p323fda29c5)" d="M243.873 67.802l-.014-.008.003-.002-18.318-20.54.003-.003 18.317 20.54.003-.002z" fill="#969696" stroke="#969696" id="patch_49"/><path clip-path="url(#p323fda29c5)" d="M238.149 61.383l.013.008-.002.002 18.317 20.54-.002.002-18.318-20.54-.002.002z" fill="#969696" stroke="#969696" id="patch_50"/><path clip-path="url(#p323fda29c5)" d="M102.792 218.082l-.01.012-.001-.003-14.415 9.298-.002-.002 14.415-9.298-.002-.003z" fill="#969696" stroke="#969696" id="patch_51"/><path clip-path="url(#p323fda29c5)" d="M110.846 212.887l.01-.012.001.003 14.415-9.298.002.002-14.415 9.299.002.002z" fill="#969696" stroke="#969696" id="patch_52"/><path clip-path="url(#p323fda29c5)" d="M104.636 247.179l-.014-.009.003-.002-16.26-19.779.002-.002 16.26 19.78.003-.003z" fill="#969696" stroke="#969696" id="patch_53"/><path clip-path="url(#p323fda29c5)" d="M103.056 245.257l.013.008-.002.003 16.26 19.779-.002.002-16.26-19.78-.003.003z" fill="#969696" stroke="#969696" id="patch_54"/><path clip-path="url(#p323fda29c5)" d="M108.76 235.621h-.015l.001-.004-20.381-8.227v-.003l20.383 8.227v-.003z" fill="#969696" stroke="#969696" id="patch_55"/><path clip-path="url(#p323fda29c5)" d="M120.866 240.508l.015.001v.003l20.38 8.228v.003l-20.382-8.228-.001.003z" fill="#969696" stroke="#969696" id="patch_56"/><path clip-path="url(#p323fda29c5)" d="M142.125 190.367l-.009.013-.002-.003-16.84 13.205-.002-.002 16.84-13.205-.002-.003z" fill="#969696" stroke="#969696" id="patch_57"/><path clip-path="url(#p323fda29c5)" d="M143.01 189.672l.01-.013.001.003 16.84-13.206.003.003-16.84 13.205.001.003z" fill="#969696" stroke="#969696" id="patch_58"/><path clip-path="url(#p323fda29c5)" d="M134.444 229.486l-.01-.012.004-.001-9.167-25.891.003-.001 9.167 25.89h.003z" fill="#969696" stroke="#969696" id="patch_59"/><path clip-path="url(#p323fda29c5)" d="M132.09 222.836l.01.013h-.004l9.167 25.892-.003.001-9.167-25.891h-.003z" fill="#969696" stroke="#969696" id="patch_60"/><path clip-path="url(#p323fda29c5)" d="M140.237 211.04l-.015-.002.001-.003-14.951-7.452.001-.003 14.952 7.452.001-.003z" fill="#969696" stroke="#969696" id="patch_61"/><path clip-path="url(#p323fda29c5)" d="M158.192 219.99l.015.001-.001.003 14.95 7.453v.002l-14.952-7.452-.001.003z" fill="#969696" stroke="#969696" id="patch_62"/><path clip-path="url(#p323fda29c5)" d="M173.775 162.676l-.007.014-.003-.002-13.901 13.77-.002-.001 13.901-13.771-.002-.003z" fill="#969696" stroke="#969696" id="patch_63"/><path clip-path="url(#p323fda29c5)" d="M179.316 157.187l.007-.013.002.002 13.901-13.771.003.002-13.902 13.771.003.003z" fill="#969696" stroke="#969696" id="patch_64"/><path clip-path="url(#p323fda29c5)" d="M165.665 198.714l-.008-.013h.003l-5.799-22.243h.003l5.799 22.241h.003z" fill="#969696" stroke="#969696" id="patch_65"/><path clip-path="url(#p323fda29c5)" d="M167.354 205.192l.008.013h-.003l5.799 22.243h-.004l-5.798-22.242-.003.001z" fill="#969696" stroke="#969696" id="patch_66"/><path clip-path="url(#p323fda29c5)" d="M177.281 185.993l-.015-.003.002-.003-17.406-9.528.002-.003 17.405 9.528.002-.002z" fill="#969696" stroke="#969696" id="patch_67"/><path clip-path="url(#p323fda29c5)" d="M182.914 189.076l.015.003-.002.003 17.406 9.528-.002.003-17.405-9.528-.002.002z" fill="#969696" stroke="#969696" id="patch_68"/><path clip-path="url(#p323fda29c5)" d="M209.05 129.043l-.008.014-.002-.003-15.811 14.353-.003-.002 15.812-14.353-.003-.003z" fill="#969696" stroke="#969696" id="patch_69"/><path clip-path="url(#p323fda29c5)" d="M207.864 130.12l.007-.014.002.003 15.812-14.353.002.002-15.811 14.353.002.003z" fill="#969696" stroke="#969696" id="patch_70"/><path clip-path="url(#p323fda29c5)" d="M195.626 162.044l-.007-.014h.003l-2.396-18.624h.003l2.397 18.623h.003z" fill="#969696" stroke="#969696" id="patch_71"/><path clip-path="url(#p323fda29c5)" d="M197.933 179.974l.007.014h-.003l2.397 18.623h-.004l-2.396-18.622h-.004z" fill="#969696" stroke="#969696" id="patch_72"/><path clip-path="url(#p323fda29c5)" d="M208.8 156.187l-.015-.005.002-.003-15.56-12.772.001-.002 15.561 12.772.002-.003z" fill="#969696" stroke="#969696" id="patch_73"/><path clip-path="url(#p323fda29c5)" d="M212.63 159.332l.015.005-.002.003 15.56 12.771-.002.003-15.56-12.772-.002.003z" fill="#969696" stroke="#969696" id="patch_74"/><path clip-path="url(#p323fda29c5)" d="M240.997 97.9l-.006.014-.003-.002-17.301 17.846-.002-.002 17.301-17.847-.002-.002z" fill="#969696" stroke="#969696" id="patch_75"/><path clip-path="url(#p323fda29c5)" d="M239.164 99.79l.007-.013.002.002 17.302-17.846.002.002-17.301 17.847.002.002z" fill="#969696" stroke="#969696" id="patch_76"/><path clip-path="url(#p323fda29c5)" d="M225.046 132.733l-.006-.014h.004l-1.36-16.962h.003l1.36 16.962h.003z" fill="#969696" stroke="#969696" id="patch_77"/><path clip-path="url(#p323fda29c5)" d="M226.842 155.136l.006.014h-.003l1.359 16.962h-.003l-1.36-16.961h-.003z" fill="#969696" stroke="#969696" id="patch_78"/><path clip-path="url(#p323fda29c5)" d="M243.389 129.685l-.015-.005.002-.003-19.691-13.919.002-.003 19.69 13.92.003-.003z" fill="#969696" stroke="#969696" id="patch_79"/><path clip-path="url(#p323fda29c5)" d="M237.185 125.3l.015.004-.002.002 19.691 13.92-.002.003-19.69-13.92-.003.003z" fill="#969696" stroke="#969696" id="patch_80"/><path clip-path="url(#p323fda29c5)" d="M269.286 69.955l-.008.014-.002-.002-12.8 11.968-.001-.002 12.799-11.969-.002-.002z" fill="#969696" stroke="#969696" id="patch_81"/><path clip-path="url(#p323fda29c5)" d="M271.846 67.561l.008-.013.002.002 12.8-11.969.001.003-12.799 11.968.002.003z" fill="#969696" stroke="#969696" id="patch_82"/><path clip-path="url(#p323fda29c5)" d="M256.644 105.266l-.005-.015h.003l-.168-23.317h.003l.168 23.317h.004z" fill="#969696" stroke="#969696" id="patch_83"/><path clip-path="url(#p323fda29c5)" d="M256.72 115.895l.005.015h-.003l.168 23.317h-.003l-.168-23.317h-.003z" fill="#969696" stroke="#969696" id="patch_84"/><path clip-path="url(#p323fda29c5)" d="M273.83 99.316l-.015-.007.003-.002-17.343-17.372.002-.002 17.343 17.371.002-.002z" fill="#969696" stroke="#969696" id="patch_85"/><path clip-path="url(#p323fda29c5)" d="M269.713 95.193l.014.007-.003.002 17.344 17.371-.003.003-17.343-17.372-.002.003z" fill="#969696" stroke="#969696" id="patch_86"/><path clip-path="url(#p323fda29c5)" d="M285.64 78.859l-.005-.015h.003l-.983-23.261h.003l.984 23.261h.003z" fill="#969696" stroke="#969696" id="patch_87"/><path clip-path="url(#p323fda29c5)" d="M286.082 89.298l.006.014h-.004l.984 23.262h-.003l-.984-23.261h-.003z" fill="#969696" stroke="#969696" id="patch_88"/><path clip-path="url(#p323fda29c5)" d="M306.02 69.76l-.016-.004.002-.003-21.35-14.17.001-.002 21.35 14.17.003-.003z" fill="#969696" stroke="#969696" id="patch_89"/><path clip-path="url(#p323fda29c5)" d="M292.358 60.694l.015.004-.002.003 21.351 14.17-.002.002-21.35-14.17-.002.003z" fill="#969696" stroke="#969696" id="patch_90"/><path clip-path="url(#p323fda29c5)" d="M133.165 254.76l-.01.013-.001-.002-13.827 10.278-.002-.003 13.827-10.278-.002-.003z" fill="#969696" stroke="#969696" id="patch_91"/><path clip-path="url(#p323fda29c5)" d="M127.423 259.029l.009-.013.002.003 13.826-10.279.002.003-13.826 10.278.002.003z" fill="#969696" stroke="#969696" id="patch_92"/><path clip-path="url(#p323fda29c5)" d="M148.857 282.559l-.015-.004.002-.003-29.519-17.503.002-.003 29.518 17.504.002-.003z" fill="#969696" stroke="#969696" id="patch_93"/><path clip-path="url(#p323fda29c5)" d="M139.598 277.068l.015.003-.002.003 29.519 17.503-.002.003-29.518-17.503-.002.003z" fill="#969696" stroke="#969696" id="patch_94"/><path clip-path="url(#p323fda29c5)" d="M160.073 236.183l-.01.012-.001-.003-18.8 12.55-.002-.002 18.8-12.55-.002-.003z" fill="#969696" stroke="#969696" id="patch_95"/><path clip-path="url(#p323fda29c5)" d="M154.344 240.007l.01-.012.002.002 18.8-12.55.001.002-18.8 12.551.002.003z" fill="#969696" stroke="#969696" id="patch_96"/><path clip-path="url(#p323fda29c5)" d="M158.817 277.619l-.011-.01.002-.002-17.548-28.865.003-.001 17.548 28.864.003-.002z" fill="#969696" stroke="#969696" id="patch_97"/><path clip-path="url(#p323fda29c5)" d="M151.573 265.702l.011.01-.002.002 17.548 28.864-.003.002-17.548-28.865-.003.002z" fill="#969696" stroke="#969696" id="patch_98"/><path clip-path="url(#p323fda29c5)" d="M171.198 261.541l-.015-.001.001-.003-29.923-12.794.001-.003 29.924 12.794v-.003z" fill="#969696" stroke="#969696" id="patch_99"/><path clip-path="url(#p323fda29c5)" d="M162.06 257.634h.015l-.001.004 29.923 12.794-.001.003-29.924-12.794-.001.003z" fill="#969696" stroke="#969696" id="patch_100"/><path clip-path="url(#p323fda29c5)" d="M189.375 210.238l-.006.014-.003-.003-16.209 17.2-.002-.002 16.209-17.2-.002-.002z" fill="#969696" stroke="#969696" id="patch_101"/><path clip-path="url(#p323fda29c5)" d="M184.113 215.822l.006-.014.003.002 16.209-17.2.002.002-16.209 17.2.002.002z" fill="#969696" stroke="#969696" id="patch_102"/><path clip-path="url(#p323fda29c5)" d="M185.353 255.276l-.01-.012.003-.001-12.191-27.814.003-.002 12.19 27.815.004-.002z" fill="#969696" stroke="#969696" id="patch_103"/><path clip-path="url(#p323fda29c5)" d="M179.8 242.605l.01.012-.003.001 12.191 27.815h-.003l-12.191-27.813h-.003z" fill="#969696" stroke="#969696" id="patch_104"/><path clip-path="url(#p323fda29c5)" d="M197.802 235.576h-.015v-.003l-24.631-8.123v-.004l24.633 8.124v-.003z" fill="#969696" stroke="#969696" id="patch_105"/><path clip-path="url(#p323fda29c5)" d="M189.89 232.967h.015l-.001.003 24.632 8.123-.001.003-24.632-8.123-.001.003z" fill="#969696" stroke="#969696" id="patch_106"/><path clip-path="url(#p323fda29c5)" d="M216.857 182.9l-.007.013-.002-.002-16.515 15.701-.002-.002 16.514-15.702-.002-.002z" fill="#969696" stroke="#969696" id="patch_107"/><path clip-path="url(#p323fda29c5)" d="M211.677 187.824l.007-.013.003.002 16.514-15.702.002.003-16.514 15.702.002.002z" fill="#969696" stroke="#969696" id="patch_108"/><path clip-path="url(#p323fda29c5)" d="M208.178 222.078l-.01-.013h.003l-7.84-23.453.003-.001 7.84 23.452.003-.001z" fill="#969696" stroke="#969696" id="patch_109"/><path clip-path="url(#p323fda29c5)" d="M206.69 217.628l.01.013h-.004l7.841 23.453-.003.001-7.84-23.452h-.004z" fill="#969696" stroke="#969696" id="patch_110"/><path clip-path="url(#p323fda29c5)" d="M222.259 208.522l-.016-.001.002-.003-21.914-9.905.002-.003 21.913 9.905.002-.003z" fill="#969696" stroke="#969696" id="patch_111"/><path clip-path="url(#p323fda29c5)" d="M213.97 204.776l.016.002-.001.003 21.913 9.905v.003l-21.914-9.905-.002.003z" fill="#969696" stroke="#969696" id="patch_112"/><path clip-path="url(#p323fda29c5)" d="M238.815 159.946l-.006.015-.003-.002-10.602 12.155-.003-.002 10.603-12.156-.003-.002z" fill="#969696" stroke="#969696" id="patch_113"/><path clip-path="url(#p323fda29c5)" d="M246.276 151.393l.006-.014.002.002 10.603-12.155.002.002-10.602 12.155.002.002z" fill="#969696" stroke="#969696" id="patch_114"/><path clip-path="url(#p323fda29c5)" d="M231.418 189.903l-.008-.014h.004l-3.213-17.776h.003l3.213 17.775h.003z" fill="#969696" stroke="#969696" id="patch_115"/><path clip-path="url(#p323fda29c5)" d="M232.682 196.897l.008.014h-.004l3.213 17.776h-.003l-3.213-17.775h-.003z" fill="#969696" stroke="#969696" id="patch_116"/><path clip-path="url(#p323fda29c5)" d="M250.196 181.269l-.016-.002.002-.003-21.98-9.15v-.003l21.98 9.15.002-.003z" fill="#969696" stroke="#969696" id="patch_117"/><path clip-path="url(#p323fda29c5)" d="M243.026 178.284h.015v.004l21.98 9.15-.002.003-21.98-9.15-.001.003z" fill="#969696" stroke="#969696" id="patch_118"/><path clip-path="url(#p323fda29c5)" d="M267.558 129.804l-.008.013-.002-.002-10.659 9.413-.002-.002 10.659-9.414-.002-.002z" fill="#969696" stroke="#969696" id="patch_119"/><path clip-path="url(#p323fda29c5)" d="M276.397 121.998l.007-.014.003.003 10.658-9.414.002.003-10.658 9.413.002.003z" fill="#969696" stroke="#969696" id="patch_120"/><path clip-path="url(#p323fda29c5)" d="M259.647 155.586l-.007-.013h.003l-2.756-16.346h.003l2.756 16.345h.004z" fill="#969696" stroke="#969696" id="patch_121"/><path clip-path="url(#p323fda29c5)" d="M262.26 171.08l.008.014h-.004l2.757 16.346h-.003l-2.757-16.345h-.003z" fill="#969696" stroke="#969696" id="patch_122"/><path clip-path="url(#p323fda29c5)" d="M274.565 152.014l-.014-.004.001-.003-17.665-12.778.002-.003 17.665 12.779.002-.003z" fill="#969696" stroke="#969696" id="patch_123"/><path clip-path="url(#p323fda29c5)" d="M268.81 147.85l.014.005-.002.003 17.665 12.779-.002.002-17.665-12.778-.002.002z" fill="#969696" stroke="#969696" id="patch_124"/><path clip-path="url(#p323fda29c5)" d="M297.756 97.454l-.005.015-.002-.002-10.681 15.108-.003-.002 10.68-15.108-.002-.001z" fill="#969696" stroke="#969696" id="patch_125"/><path clip-path="url(#p323fda29c5)" d="M303.032 89.991l.004-.014.003.002 10.68-15.109.003.002-10.68 15.108.002.002z" fill="#969696" stroke="#969696" id="patch_126"/><path clip-path="url(#p323fda29c5)" d="M286.838 131.484l-.005-.015h.004l.228-18.895h.003l-.228 18.895h.003z" fill="#969696" stroke="#969696" id="patch_127"/><path clip-path="url(#p323fda29c5)" d="M286.714 141.729l.005.014h-.003l-.228 18.895h-.003l.228-18.895h-.004z" fill="#969696" stroke="#969696" id="patch_128"/><path clip-path="url(#p323fda29c5)" d="M310.409 122.357l-.016-.001.002-.003-23.33-9.777.002-.003 23.329 9.777.001-.003z" fill="#969696" stroke="#969696" id="patch_129"/><path clip-path="url(#p323fda29c5)" d="M299.492 117.782l.015.001v.003l23.328 9.777-.001.003-23.33-9.777v.003z" fill="#969696" stroke="#969696" id="patch_130"/><path clip-path="url(#p323fda29c5)" d="M318.712 103.73l-.007-.015h.003l-4.988-28.843h.003l4.988 28.842h.003z" fill="#969696" stroke="#969696" id="patch_131"/><path clip-path="url(#p323fda29c5)" d="M317.843 98.707l.008.014h-.003l4.988 28.843-.003.001-4.989-28.843h-.003z" fill="#969696" stroke="#969696" id="patch_132"/><path clip-path="url(#p323fda29c5)" d="M334.664 96.09l-.014-.007.003-.002-20.933-21.208.002-.003 20.933 21.208.002-.002z" fill="#969696" stroke="#969696" id="patch_133"/><path clip-path="url(#p323fda29c5)" d="M324.872 86.169l.014.007-.003.002 20.933 21.208-.002.003L324.88 86.18l-.002.002z" fill="#969696" stroke="#969696" id="patch_134"/><path clip-path="url(#p323fda29c5)" d="M184.631 278.21l-.006.014-.002-.002-15.493 16.358-.002-.002 15.492-16.359-.002-.002z" fill="#969696" stroke="#969696" id="patch_135"/><path clip-path="url(#p323fda29c5)" d="M176.494 286.802l.006-.014.003.002 15.492-16.358.003.002-15.493 16.359.002.002z" fill="#969696" stroke="#969696" id="patch_136"/><path clip-path="url(#p323fda29c5)" d="M201.327 306.057h-.015l.001-.003-32.185-11.474.001-.003 32.185 11.474.001-.003z" fill="#969696" stroke="#969696" id="patch_137"/><path clip-path="url(#p323fda29c5)" d="M189.613 301.881h.016l-.001.004 32.185 11.473-.001.003-32.185-11.473-.001.003z" fill="#969696" stroke="#969696" id="patch_138"/><path clip-path="url(#p323fda29c5)" d="M205.075 253.41l-.005.014-.003-.002-13.07 17.012-.002-.002 13.07-17.012-.003-.002z" fill="#969696" stroke="#969696" id="patch_139"/><path clip-path="url(#p323fda29c5)" d="M201.457 258.119l.005-.015.003.002 13.07-17.012.002.002-13.07 17.012.003.002z" fill="#969696" stroke="#969696" id="patch_140"/><path clip-path="url(#p323fda29c5)" d="M209.273 295.307l-.012-.01.002-.001-17.268-24.862.003-.002 17.268 24.862.003-.002z" fill="#969696" stroke="#969696" id="patch_141"/><path clip-path="url(#p323fda29c5)" d="M204.536 288.486l.012.01-.003.001 17.269 24.862-.003.002-17.268-24.862-.003.002z" fill="#969696" stroke="#969696" id="patch_142"/><path clip-path="url(#p323fda29c5)" d="M218.358 278.734h-.016l.001-.003-26.347-8.296.001-.003 26.347 8.296.001-.003z" fill="#969696" stroke="#969696" id="patch_143"/><path clip-path="url(#p323fda29c5)" d="M207.643 275.36h.016l-.001.003 26.347 8.297v.003l-26.348-8.297-.001.003z" fill="#969696" stroke="#969696" id="patch_144"/><path clip-path="url(#p323fda29c5)" d="M227.007 225.677l-.005.015-.003-.002-12.462 15.406-.003-.002 12.463-15.406-.003-.002z" fill="#969696" stroke="#969696" id="patch_145"/><path clip-path="url(#p323fda29c5)" d="M223.426 230.104l.005-.014.003.002 12.463-15.406.002.002-12.462 15.406.002.002z" fill="#969696" stroke="#969696" id="patch_146"/><path clip-path="url(#p323fda29c5)" d="M226.02 266.204l-.01-.011.002-.002-11.478-25.096.003-.001 11.478 25.096.003-.001z" fill="#969696" stroke="#969696" id="patch_147"/><path clip-path="url(#p323fda29c5)" d="M222.52 258.552l.01.011-.002.002 11.478 25.096-.003.001-11.478-25.096-.003.001z" fill="#969696" stroke="#969696" id="patch_148"/><path clip-path="url(#p323fda29c5)" d="M236.958 252.82l-.015-.002.001-.003-22.41-11.719.002-.003 22.41 11.719.001-.003z" fill="#969696" stroke="#969696" id="patch_149"/><path clip-path="url(#p323fda29c5)" d="M226.265 247.228l.015.003-.001.003 22.41 11.719-.002.002-22.41-11.718-.001.003z" fill="#969696" stroke="#969696" id="patch_150"/><path clip-path="url(#p323fda29c5)" d="M250.73 200.81l-.008.014-.002-.002-14.821 13.866-.002-.002 14.82-13.867-.002-.002z" fill="#969696" stroke="#969696" id="patch_151"/><path clip-path="url(#p323fda29c5)" d="M250.188 201.317l.007-.014.003.002 14.82-13.866.003.002-14.821 13.867.002.002z" fill="#969696" stroke="#969696" id="patch_152"/><path clip-path="url(#p323fda29c5)" d="M243.532 241.11l-.009-.013h.003l-7.63-26.41h.003l7.63 26.409.004-.001z" fill="#969696" stroke="#969696" id="patch_153"/><path clip-path="url(#p323fda29c5)" d="M241.053 232.53l.009.014h-.003l7.63 26.41h-.003l-7.63-26.408h-.003z" fill="#969696" stroke="#969696" id="patch_154"/><path clip-path="url(#p323fda29c5)" d="M253.628 223.196l-.015-.002.001-.003-17.717-8.502.002-.003 17.717 8.502.001-.003z" fill="#969696" stroke="#969696" id="patch_155"/><path clip-path="url(#p323fda29c5)" d="M249.333 221.134l.015.002-.002.003 17.718 8.503-.002.003-17.717-8.503-.001.003z" fill="#969696" stroke="#969696" id="patch_156"/><path clip-path="url(#p323fda29c5)" d="M273.664 176.647l-.006.015-.002-.002-8.635 10.78-.003-.001 8.635-10.781-.002-.002z" fill="#969696" stroke="#969696" id="patch_157"/><path clip-path="url(#p323fda29c5)" d="M277.842 171.43l.006-.014.002.002 8.635-10.781.003.002-8.635 10.78.002.003z" fill="#969696" stroke="#969696" id="patch_158"/><path clip-path="url(#p323fda29c5)" d="M266.031 208.33l-.006-.014h.004l-1.011-20.876h.003l1.011 20.876h.003z" fill="#969696" stroke="#969696" id="patch_159"/><path clip-path="url(#p323fda29c5)" d="M266.051 208.752l.006.015h-.003l1.01 20.876h-.003l-1.01-20.876h-.004z" fill="#969696" stroke="#969696" id="patch_160"/><path clip-path="url(#p323fda29c5)" d="M278.271 194.639l-.015-.003.001-.003-13.238-7.192.001-.003 13.239 7.193.002-.003z" fill="#969696" stroke="#969696" id="patch_161"/><path clip-path="url(#p323fda29c5)" d="M276.81 193.846l.016.002-.002.003 13.24 7.192-.003.003-13.238-7.192-.002.003z" fill="#969696" stroke="#969696" id="patch_162"/><path clip-path="url(#p323fda29c5)" d="M301.804 146.7l-.008.014-.002-.003-15.307 13.928-.002-.002 15.307-13.928-.002-.002z" fill="#969696" stroke="#969696" id="patch_163"/><path clip-path="url(#p323fda29c5)" d="M307.517 141.502l.007-.013.002.002 15.307-13.928.002.003-15.306 13.928.002.002z" fill="#969696" stroke="#969696" id="patch_164"/><path clip-path="url(#p323fda29c5)" d="M288.697 185.617l-.006-.014h.003l-2.21-24.965h.004l2.21 24.965h.003z" fill="#969696" stroke="#969696" id="patch_165"/><path clip-path="url(#p323fda29c5)" d="M287.852 176.065l.006.014h-.003l2.209 24.966h-.003l-2.21-24.965h-.003z" fill="#969696" stroke="#969696" id="patch_166"/><path clip-path="url(#p323fda29c5)" d="M305.576 168.381l-.015-.001v-.003l-19.075-7.738v-.003l19.077 7.738.001-.003z" fill="#969696" stroke="#969696" id="patch_167"/><path clip-path="url(#p323fda29c5)" d="M303.854 167.682l.015.001-.001.003 19.076 7.738-.001.003-19.076-7.738-.002.003z" fill="#969696" stroke="#969696" id="patch_168"/><path clip-path="url(#p323fda29c5)" d="M332.067 119.458l-.007.013-.002-.002-9.223 8.097-.002-.003 9.222-8.097-.002-.002z" fill="#969696" stroke="#969696" id="patch_169"/><path clip-path="url(#p323fda29c5)" d="M336.582 115.494l.008-.013.002.002 9.222-8.097.002.003-9.222 8.097.002.002z" fill="#969696" stroke="#969696" id="patch_170"/><path clip-path="url(#p323fda29c5)" d="M322.892 152.985l-.005-.014h.004l-.058-25.406h.003l.058 25.406h.003z" fill="#969696" stroke="#969696" id="patch_171"/><path clip-path="url(#p323fda29c5)" d="M322.885 150.005l.005.015h-.003l.058 25.405h-.003l-.058-25.405h-.003z" fill="#969696" stroke="#969696" id="patch_172"/><path clip-path="url(#p323fda29c5)" d="M341.162 144.732l-.015-.007.003-.002-18.317-17.157.002-.003 18.317 17.158.002-.003z" fill="#969696" stroke="#969696" id="patch_173"/><path clip-path="url(#p323fda29c5)" d="M330.872 135.094l.014.006-.002.003 18.317 17.157-.003.002-18.316-17.157-.002.002z" fill="#969696" stroke="#969696" id="patch_174"/><path clip-path="url(#p323fda29c5)" d="M347.763 133.217l-.006-.014h.003l-1.947-25.815h.004l1.947 25.814h.003z" fill="#969696" stroke="#969696" id="patch_175"/><path clip-path="url(#p323fda29c5)" d="M347.251 126.431l.006.014h-.003l1.947 25.816h-.003l-1.947-25.815h-.003z" fill="#969696" stroke="#969696" id="patch_176"/><path clip-path="url(#p323fda29c5)" d="M232.207 288.041l-.001.015h-.004l-10.388 25.304h-.003l10.388-25.306-.003-.001z" fill="#969696" stroke="#969696" id="patch_177"/><path clip-path="url(#p323fda29c5)" d="M223.61 308.98l.001-.015.003.001 10.39-25.305.002.001-10.389 25.305.003.001z" fill="#969696" stroke="#969696" id="patch_178"/><path clip-path="url(#p323fda29c5)" d="M243.21 268.172l-.004.015-.003-.001-9.197 15.476-.003-.001 9.197-15.477-.002-.002z" fill="#969696" stroke="#969696" id="patch_179"/><path clip-path="url(#p323fda29c5)" d="M239.483 274.443l.003-.015.003.002 9.197-15.477.003.002-9.197 15.476.002.002z" fill="#969696" stroke="#969696" id="patch_180"/><path clip-path="url(#p323fda29c5)" d="M257.452 291.009h-.015v-.003l-23.433-7.343.001-.003 23.434 7.343V291z" fill="#969696" stroke="#969696" id="patch_181"/><path clip-path="url(#p323fda29c5)" d="M258.07 291.203h.016l-.001.002 23.433 7.343v.004l-23.434-7.344-.001.004z" fill="#969696" stroke="#969696" id="patch_182"/><path clip-path="url(#p323fda29c5)" d="M258.825 242.784l-.004.015-.003-.001-10.13 16.157-.002-.002 10.13-16.157-.003-.002z" fill="#969696" stroke="#969696" id="patch_183"/><path clip-path="url(#p323fda29c5)" d="M256.926 245.813l.003-.015.003.002 10.13-16.158.002.002-10.129 16.157.003.002z" fill="#969696" stroke="#969696" id="patch_184"/><path clip-path="url(#p323fda29c5)" d="M262.54 275.662l-.012-.008.002-.002-13.844-16.697.003-.002 13.844 16.697.002-.002z" fill="#969696" stroke="#969696" id="patch_185"/><path clip-path="url(#p323fda29c5)" d="M267.664 281.842l.013.008-.002.002 13.844 16.697-.003.002-13.844-16.697-.002.002z" fill="#969696" stroke="#969696" id="patch_186"/><path clip-path="url(#p323fda29c5)" d="M271.669 265.728l-.016.001.001-.003-22.967-6.77v-.004l22.968 6.77.001-.002z" fill="#969696" stroke="#969696" id="patch_187"/><path clip-path="url(#p323fda29c5)" d="M274.103 266.446h.016l-.001.003 22.967 6.77v.003l-22.968-6.77-.001.003z" fill="#969696" stroke="#969696" id="patch_188"/><path clip-path="url(#p323fda29c5)" d="M279.146 214.62l-.006.014-.002-.002-12.074 15.012-.002-.002 12.073-15.012-.002-.002z" fill="#969696" stroke="#969696" id="patch_189"/><path clip-path="url(#p323fda29c5)" d="M277.98 216.069l.005-.015.003.002 12.073-15.012.003.002-12.074 15.012.003.002z" fill="#969696" stroke="#969696" id="patch_190"/><path clip-path="url(#p323fda29c5)" d="M283.412 253.374l-.013-.01.003-.001-16.34-23.719.002-.002 16.34 23.719.004-.002z" fill="#969696" stroke="#969696" id="patch_191"/><path clip-path="url(#p323fda29c5)" d="M280.736 249.49l.012.009-.002.002 16.34 23.718-.003.002-16.34-23.718-.003.002z" fill="#969696" stroke="#969696" id="patch_192"/><path clip-path="url(#p323fda29c5)" d="M286.767 235.086h-.016l.001-.002-19.69-5.44.002-.002 19.689 5.439v-.004z" fill="#969696" stroke="#969696" id="patch_193"/><path clip-path="url(#p323fda29c5)" d="M303.048 239.584l.016-.001-.001.003 19.69 5.44-.002.002-19.69-5.439v.003z" fill="#969696" stroke="#969696" id="patch_194"/><path clip-path="url(#p323fda29c5)" d="M301.925 191.802l-.009.013-.002-.003-11.85 9.234-.003-.003 11.851-9.233-.002-.003z" fill="#969696" stroke="#969696" id="patch_195"/><path clip-path="url(#p323fda29c5)" d="M311.08 184.668l.01-.013.001.003 11.851-9.234.002.003-11.85 9.233.001.003z" fill="#969696" stroke="#969696" id="patch_196"/><path clip-path="url(#p323fda29c5)" d="M304.738 220.79l-.013-.01.003-.001-14.667-19.733.003-.002 14.666 19.733.003-.002z" fill="#969696" stroke="#969696" id="patch_197"/><path clip-path="url(#p323fda29c5)" d="M308.076 225.282l.013.009-.003.002 14.667 19.733-.003.002-14.666-19.734-.003.002z" fill="#969696" stroke="#969696" id="patch_198"/><path clip-path="url(#p323fda29c5)" d="M312.598 212.996l-.015-.003.002-.002-22.523-11.945.001-.003 22.523 11.945.002-.003z" fill="#969696" stroke="#969696" id="patch_199"/><path clip-path="url(#p323fda29c5)" d="M316.904 215.279l.015.003-.002.002 22.523 11.945-.001.003-22.523-11.945-.002.003z" fill="#969696" stroke="#969696" id="patch_200"/><path clip-path="url(#p323fda29c5)" d="M333.977 165.691l-.008.014-.002-.003-11.023 9.725-.002-.003 11.023-9.724-.002-.003z" fill="#969696" stroke="#969696" id="patch_201"/><path clip-path="url(#p323fda29c5)" d="M338.166 161.995l.008-.013.002.002 11.022-9.724.003.002-11.023 9.725.002.002z" fill="#969696" stroke="#969696" id="patch_202"/><path clip-path="url(#p323fda29c5)" d="M331.967 203.763l-.01-.013h.004l-9.02-28.324.004-.001 9.019 28.323h.003z" fill="#969696" stroke="#969696" id="patch_203"/><path clip-path="url(#p323fda29c5)" d="M330.416 198.893l.01.013h-.004l9.02 28.324h-.004l-9.019-28.322h-.003z" fill="#969696" stroke="#969696" id="patch_204"/><path clip-path="url(#p323fda29c5)" d="M293.313 279.357l-.003.015-.003-.001-11.788 19.18-.003-.002 11.788-19.18-.003-.002z" fill="#969696" stroke="#969696" id="patch_205"/><path clip-path="url(#p323fda29c5)" d="M285.29 292.413l.003-.015.003.002 11.787-19.18.003.001-11.788 19.18.003.002z" fill="#969696" stroke="#969696" id="patch_206"/><path clip-path="url(#p323fda29c5)" d="M311.32 257.584l-.007.014-.002-.002-14.225 15.625-.002-.002 14.224-15.625-.002-.002z" fill="#969696" stroke="#969696" id="patch_207"/><path clip-path="url(#p323fda29c5)" d="M308.517 260.663l.006-.014.003.002 14.224-15.625.003.002-14.225 15.625.003.002z" fill="#969696" stroke="#969696" id="patch_208"/><path clip-path="url(#p323fda29c5)" d="M331.53 235.666l-.007.014-.003-.002-8.767 9.35-.003-.002 8.768-9.35-.002-.003z" fill="#969696" stroke="#969696" id="patch_209"/><path clip-path="url(#p323fda29c5)" d="M330.662 236.59l.007-.013.002.002 8.768-9.35.002.002-8.768 9.35.003.002z" fill="#969696" stroke="#969696" id="patch_210"/><g id="matplotlib.axis_1"><g id="xtick_1"><g id="line2d_1"><defs><path d="M0 0v3.5" id="m58b8ad81d7" stroke="#969696" stroke-width=".4"/></defs><use x="86.771" xlink:href="#m58b8ad81d7" y="313.361" fill="#969696" stroke="#969696" stroke-width=".4"/></g><g transform="matrix(.14 0 0 -.14 74.884 330.41)" fill="#969696" id="text_1"><defs><path d="M54.594 21.578H4v7.328h50.594z" id="HelveticaWorld-Regular-8722"/><path d="M10.594 24.703h22.61v31.89h-.188zM42 17.093V0h-8.797v17.094H2.484v8.593L34.72 70.314H42v-45.61h10.297v-7.61z" id="HelveticaWorld-Regular-52"/><path d="M42.484 34.188q0 14.109-3.734 21.156-3.734 7.062-10.969 7.062-7.078 0-10.89-7.062-3.797-7.047-3.797-21.157 0-13.671 3.75-20.937Q20.609 6 27.78 6q7.235 0 10.969 7 3.734 7.016 3.734 21.188zm9.422 0q0-17.297-6.25-26.704-6.25-9.39-17.875-9.39-12.062 0-18.062 9.734-6 9.75-6 26.36 0 17.03 6.14 26.578 6.157 9.547 17.922 9.547 11.625 0 17.875-9.5t6.25-26.626z" id="HelveticaWorld-Regular-48"/></defs><use xlink:href="#HelveticaWorld-Regular-8722"/><use x="58.594" xlink:href="#HelveticaWorld-Regular-52"/><use x="114.209" xlink:href="#HelveticaWorld-Regular-48"/></g></g><g id="xtick_2"><use x="152.107" xlink:href="#m58b8ad81d7" y="313.361" fill="#969696" stroke="#969696" stroke-width=".4" id="line2d_2"/><g transform="matrix(.14 0 0 -.14 140.22 330.41)" fill="#969696" id="text_2"><defs><path d="M4.39 45.125q0 12.39 6.391 18.781 6.406 6.407 17.938 6.407 9.656 0 15.812-5.86 6.157-5.86 6.157-15.14 0-7.22-3.547-12.188-3.532-4.953-10.422-8.703l-12.11-6.64Q13.922 15.921 12.5 8.296h38.188V0H2.593q.39 9.906 4.297 16.5 3.906 6.594 12.203 11.375l12.593 7.328q5.032 2.89 7.329 5.984 2.297 3.094 2.297 8.516 0 5.375-3.766 9.031-3.75 3.672-10.156 3.672-7.078 0-10.594-4.672-3.516-4.656-3.61-12.609z" id="HelveticaWorld-Regular-50"/></defs><use xlink:href="#HelveticaWorld-Regular-8722"/><use x="58.594" xlink:href="#HelveticaWorld-Regular-50"/><use x="114.209" xlink:href="#HelveticaWorld-Regular-48"/></g></g><g id="xtick_3"><use x="217.443" xlink:href="#m58b8ad81d7" y="313.361" fill="#969696" stroke="#969696" stroke-width=".4" id="line2d_3"/><use xlink:href="#HelveticaWorld-Regular-48" transform="matrix(.14 0 0 -.14 213.55 330.41)" fill="#969696" id="text_3"/></g><g id="xtick_4"><use x="282.78" xlink:href="#m58b8ad81d7" y="313.361" fill="#969696" stroke="#969696" stroke-width=".4" id="line2d_4"/><g transform="matrix(.14 0 0 -.14 274.994 330.41)" fill="#969696" id="text_4"><use xlink:href="#HelveticaWorld-Regular-50"/><use x="55.615" xlink:href="#HelveticaWorld-Regular-48"/></g></g><g id="xtick_5"><use x="348.116" xlink:href="#m58b8ad81d7" y="313.361" fill="#969696" stroke="#969696" stroke-width=".4" id="line2d_5"/><g transform="matrix(.14 0 0 -.14 340.33 330.41)" fill="#969696" id="text_5"><use xlink:href="#HelveticaWorld-Regular-52"/><use x="55.615" xlink:href="#HelveticaWorld-Regular-48"/></g></g><g transform="matrix(.14 0 0 -.14 192.357 347.359)" fill="#969696" id="text_6"><defs><path d="M38.375 26.703q-.969-1.015-3.828-1.656-2.86-.625-10.672-1.656-5.766-.688-8.469-2.844-2.703-2.14-2.703-5.656 0-4.297 2.281-6.688 2.297-2.39 7.329-2.39 6.296 0 11.171 3.578 4.891 3.593 4.891 8.718zM6.203 36.375q.297 8.844 5.734 13.14 5.454 4.297 15.844 4.297 8.297 0 13.907-3.765 5.624-3.75 5.624-10.844V9.078Q47.313 6 50.094 6q1.125 0 2.89.39V0Q50.594-.984 48-.984q-4.5 0-6.703 1.921-2.188 1.938-2.281 6.047-7.516-8.5-18.891-8.5-7.422 0-11.922 4.204Q3.72 6.89 3.72 13.624q0 6.89 3.906 11.125Q11.531 29 19 29.89l15.516 1.891q4.203.64 4.203 6.203 0 4.11-3.047 6.297-3.047 2.203-9.25 2.203-5.516 0-8.485-2.437-2.953-2.438-3.53-7.672z" id="HelveticaWorld-Regular-97"/><path d="M5.906 64.594l10.5-3.797V71.78h6V60.797l10.5 3.797 2-5.516-10.781-3.36 6.688-9.234-4.938-3.375-6.484 9.375-6.5-9.375-4.875 3.375 6.687 9.235-10.797 3.36z" id="HelveticaWorld-Regular-42"/></defs><use xlink:href="#HelveticaWorld-Regular-97"/><use x="54.932" xlink:href="#HelveticaWorld-Regular-42"/></g></g><g id="matplotlib.axis_2"><g id="ytick_1"><g id="line2d_6"><defs><path d="M0 0h-3.5" id="m9a88e94141" stroke="#969696" stroke-width=".3"/></defs><use x="48.653" xlink:href="#m9a88e94141" y="292.885" fill="#969696" stroke="#969696" stroke-width=".3"/></g><g transform="matrix(.14 0 0 -.14 17.88 297.91)" fill="#969696" id="text_7"><use xlink:href="#HelveticaWorld-Regular-8722"/><use x="58.594" xlink:href="#HelveticaWorld-Regular-50"/><use x="114.209" xlink:href="#HelveticaWorld-Regular-48"/></g></g><g id="ytick_2"><use x="48.653" xlink:href="#m9a88e94141" y="260.217" fill="#969696" stroke="#969696" stroke-width=".3" id="line2d_7"/><g transform="matrix(.14 0 0 -.14 17.88 265.242)" fill="#969696" id="text_8"><defs><path d="M35.89 0h-9.374v49.906H10.109v6.985q8.594.28 12.782 2.75Q27.094 62.109 29 70.313h6.89z" id="HelveticaWorld-Regular-49"/></defs><use xlink:href="#HelveticaWorld-Regular-8722"/><use x="58.594" xlink:href="#HelveticaWorld-Regular-49"/><use x="114.209" xlink:href="#HelveticaWorld-Regular-48"/></g></g><g id="ytick_3"><use x="48.653" xlink:href="#m9a88e94141" y="227.549" fill="#969696" stroke="#969696" stroke-width=".3" id="line2d_8"/><use xlink:href="#HelveticaWorld-Regular-48" transform="matrix(.14 0 0 -.14 33.868 232.574)" fill="#969696" id="text_9"/></g><g id="ytick_4"><use x="48.653" xlink:href="#m9a88e94141" y="194.881" fill="#969696" stroke="#969696" stroke-width=".3" id="line2d_9"/><g transform="matrix(.14 0 0 -.14 26.083 199.905)" fill="#969696" id="text_10"><use xlink:href="#HelveticaWorld-Regular-49"/><use x="55.615" xlink:href="#HelveticaWorld-Regular-48"/></g></g><g id="ytick_5"><use x="48.653" xlink:href="#m9a88e94141" y="162.213" fill="#969696" stroke="#969696" stroke-width=".3" id="line2d_10"/><g transform="matrix(.14 0 0 -.14 26.083 167.237)" fill="#969696" id="text_11"><use xlink:href="#HelveticaWorld-Regular-50"/><use x="55.615" xlink:href="#HelveticaWorld-Regular-48"/></g></g><g id="ytick_6"><use x="48.653" xlink:href="#m9a88e94141" y="129.545" fill="#969696" stroke="#969696" stroke-width=".3" id="line2d_11"/><g transform="matrix(.14 0 0 -.14 26.083 134.57)" fill="#969696" id="text_12"><defs><path d="M22.406 39.984q2.203-.187 4.594-.187 6.203 0 9.781 2.86 3.594 2.859 3.594 8.656 0 4.687-3.344 7.89-3.343 3.203-9.64 3.203-6.985 0-10.235-4.11-3.234-4.093-3.437-10.983h-8.64q0 10.984 5.765 16.984 5.765 6.016 16.937 6.016 9.922 0 15.828-5.11 5.907-5.094 5.907-13.39 0-10.704-9.032-14.5v-.204q11.72-4 11.72-16.406 0-9.906-6.595-16.265-6.593-6.344-18.703-6.344-9.906 0-16.312 5.203Q4.204 8.5 3.422 21.484H12.5q.203-8.109 4-11.797Q20.313 6 27.484 6q6.938 0 11.141 3.86 4.203 3.859 4.203 9.718 0 6.406-4.016 9.672-4 3.266-12.39 3.266-2 0-4.016-.094z" id="HelveticaWorld-Regular-51"/></defs><use xlink:href="#HelveticaWorld-Regular-51"/><use x="55.615" xlink:href="#HelveticaWorld-Regular-48"/></g></g><g id="ytick_7"><use x="48.653" xlink:href="#m9a88e94141" y="96.877" fill="#969696" stroke="#969696" stroke-width=".3" id="line2d_12"/><g transform="matrix(.14 0 0 -.14 26.083 101.901)" fill="#969696" id="text_13"><use xlink:href="#HelveticaWorld-Regular-52"/><use x="55.615" xlink:href="#HelveticaWorld-Regular-48"/></g></g><g id="ytick_8"><use x="48.653" xlink:href="#m9a88e94141" y="64.208" fill="#969696" stroke="#969696" stroke-width=".3" id="line2d_13"/><g transform="matrix(.14 0 0 -.14 26.083 69.233)" fill="#969696" id="text_14"><defs><path d="M14.703 40.922q5.813 4.39 13.625 4.39 9.469 0 16.281-6.296 6.813-6.297 6.813-16.22 0-10.78-6.578-17.796-6.563-7-18.422-7-10.313 0-16.266 5.047Q4.203 8.109 3.22 17.39h9.094q.671-5.672 4.437-8.672 3.766-3 10.453-3 6.485 0 10.64 4.484Q42 14.703 42 21.688q0 7.125-4.36 11.421-4.343 4.297-11.218 4.297-7.813 0-13.047-6.687l-7.563.39 5.266 37.594h36.438v-8.5H17.672z" id="HelveticaWorld-Regular-53"/></defs><use xlink:href="#HelveticaWorld-Regular-53"/><use x="55.615" xlink:href="#HelveticaWorld-Regular-48"/></g></g><g transform="matrix(.14 0 0 -.14 7.2 177.407)" fill="#969696" id="text_15"><defs><path d="M43.406 26.313q0 10.5-3.718 15.046-3.704 4.547-10.579 4.547-6.984-.11-10.562-5.453Q14.984 35.11 14.984 25q0-10.297 4.297-14.594Q23.578 6.11 29.297 6.11q6.5 0 10.297 5.344 3.812 5.344 3.812 14.86zM6.594 0v71.781h8.781V45.703h.203q5.61 8.11 15.14 8.11 9.766 0 15.766-7.25t6-18.876q0-13.093-6.062-21.156Q40.375-1.516 29.5-1.516q-9.578 0-14.406 8.016h-.203V0z" id="HelveticaWorld-Regular-98"/></defs><use xlink:href="#HelveticaWorld-Regular-98"/><use x="56.494" xlink:href="#HelveticaWorld-Regular-42"/></g></g><g transform="matrix(.14 0 0 -.14 53.835 17.25)" fill="#969696" id="text_16"><defs><path d="M67.484 0v42.39q0 .829.094 8.126t.094 9.78h-.281L47.312 0h-9.609L17.578 60.203h-.297q0-3.61.094-10.297.11-6.687.11-7.515V0H8.108v71.781h13.86L42.39 11.078h.28l20.313 60.703h13.922V0z" id="HelveticaWorld-Regular-77"/><path d="M39.594 34.719q-1.89 11.187-12.39 11.187-6.5 0-10.454-5.203-3.953-5.203-3.953-14.484 0-10.11 3.656-15.11 3.672-5 10.64-5 4.688 0 8.11 3.438 3.422 3.437 4.39 8.953h8.5q-1.312-9.703-6.859-14.86-5.547-5.156-14.328-5.156-10.297 0-16.89 7.047-6.594 7.063-6.594 19.172 0 13.281 6.594 21.188 6.593 7.922 18.5 7.922 8.687 0 13.843-5.204 5.157-5.203 5.735-13.89z" id="HelveticaWorld-Regular-99"/><path d="M44 29.5L33.406 61.078h-.203L21.687 29.5zm-25.297-8.594L11.188 0h-9.97l27 71.781h10.985L65.187 0H54.594l-7.078 20.906z" id="HelveticaWorld-Regular-65"/><path d="M13.094 26.313q0-9.704 3.844-14.954 3.859-5.25 10.265-5.25 6.094 0 10.188 4.485 4.109 4.5 4.109 13.094 0 11.03-3.5 16.625-3.484 5.593-10.61 5.593-6.78 0-10.546-4.453-3.75-4.437-3.75-15.14zM50.39 0h-8.297v7.172h-.203q-4.97-8.688-15.078-8.688-10.891 0-16.86 8.297Q4 15.094 4 27.688q0 11.625 5.906 18.875 5.922 7.25 15.875 7.25 9.813 0 15.625-8.891l.203.594V71.78h8.782z" id="HelveticaWorld-Regular-100"/><path d="M6.594 52.297h8.297v-7.375h.203q5.906 8.89 15.812 8.89 9.813 0 13.922-8.5 3.75 4.594 7.266 6.547 3.515 1.953 8.703 1.953 6.781 0 11.484-4.453Q77 44.922 77 36.187V0h-8.781v33.797q0 6.094-2.297 9.094-2.297 3.015-7.422 3.015-5.172 0-8.75-4.203-3.563-4.203-3.563-9.812V0h-8.78v36.188q0 4.53-2.11 7.124-2.094 2.594-6.094 2.594-6.297 0-10.062-4.687-3.766-4.688-3.766-12.703V0H6.594z" id="HelveticaWorld-Regular-109"/><path d="M27.594 31.39q6 0 9.75 4.047 3.765 4.063 3.765 11.97 0 6.5-3.562 10.75-3.563 4.25-10.64 4.25-6.11 0-9.876-4.298-3.75-4.297-3.75-11.53 0-7.376 3.516-11.282 3.515-3.906 10.797-3.906zm-1.282-7.906q-10 0-16.062 6.203-6.047 6.204-6.047 16.5 0 10.407 6.094 17.266 6.11 6.86 16.515 6.86 12.11 0 18.36-8.157 6.25-8.156 6.25-24.453 0-16.906-6.406-28.266Q38.625-1.905 25.875-1.905q-9.953 0-15.422 5.593-5.469 5.594-5.469 13.204h8.829q.39-5.266 3.437-8.375 3.063-3.094 8.438-3.094 7.609 0 11.515 6.781Q41.11 19 42.578 31.688l-.187.203q-5.672-8.407-16.078-8.407z" id="HelveticaWorld-Regular-57"/><path d="M3.719 68.797h48.578v-7.719Q42.28 50.875 33.984 33.484 25.687 16.11 23.391 0h-9.672q1.469 13.281 9.719 30.531 8.25 17.266 18.953 29.672H3.719z" id="HelveticaWorld-Regular-55"/><path d="M12.703 26.219q0-8.735 3.953-14.375 3.953-5.64 11.219-5.64 7.531 0 11.438 5.905 3.906 5.907 3.906 14.11 0 8.297-3.907 14.078-3.906 5.797-11.437 5.797-6.969 0-11.078-5.453-4.094-5.438-4.094-14.422zm-8.984 0q0 11.672 6.484 19.625 6.5 7.968 17.672 7.968 11.438 0 17.875-8.062 6.453-8.047 6.453-19.531 0-11.516-6.406-19.625-6.39-8.11-17.922-8.11-11.078 0-17.625 7.86-6.531 7.86-6.531 19.875z" id="HelveticaWorld-Regular-111"/><path d="M15.375 0H6.594v71.781h8.781z" id="HelveticaWorld-Regular-108"/><path d="M15.375 0H6.594v52.297h8.297v-8.688h.203q5.703 10.203 14.687 10.203 1.422 0 2.297-.296V44.39h-3.266q-5.906 0-9.671-4.016-3.766-4-3.766-9.953z" id="HelveticaWorld-Regular-114"/><path d="M6.594 61.813v9.968h8.781v-9.969zM15.375 0H6.594v52.297h8.781z" id="HelveticaWorld-Regular-105"/><path d="M36.078 37.406q-.187 4.688-3.344 6.735-3.14 2.047-9.047 2.047-4.296 0-7.359-1.907-3.047-1.89-3.047-5.468 0-2.829 1.797-4.172 1.813-1.344 7.828-2.86l8.688-2.187q7.906-2 11.297-5.11 3.406-3.093 3.406-8.656 0-7.719-5.64-12.531-5.641-4.813-15.063-4.813-11 0-16.64 4.563-5.626 4.578-5.735 13.75h8.5q.203-5.422 3.594-8.063 3.39-2.625 10.171-2.625 5.516 0 8.766 2.188 3.25 2.203 3.25 6.11 0 2.78-2.11 4.437-2.093 1.672-8.296 3.078l-10.203 2.5q-6.203 1.562-9.157 4.656-2.953 3.094-2.953 8.031 0 7.72 5.516 12.203 5.531 4.5 14.406 4.5 9.485 0 14.531-4.624 5.047-4.61 5.344-11.782z" id="HelveticaWorld-Regular-115"/><path d="M17.188 45.016V10.984q0-2 1.093-3.046 1.11-1.047 3.938-1.047h3.375V0Q20.797-.688 19-.688q-5.516 0-8.063 2.641-2.53 2.64-2.53 8.547v34.516H1.311v7.28h7.094v14.595h8.781V52.297h8.407v-7.281z" id="HelveticaWorld-Regular-116"/><path d="M49.219 0h-8.844v32.172q0 7.422-2.594 10.578-2.578 3.156-8.578 3.156-5.906 0-9.875-4.5-3.953-4.484-3.953-12.89V0H6.594v52.297h8.297v-7.375h.203q6.203 8.89 15.812 8.89 8.89 0 13.594-4.718 4.719-4.703 4.719-13.5z" id="HelveticaWorld-Regular-110"/><path d="M42.484 30.328q-.687 8.485-4.5 12.031-3.797 3.547-10.109 3.547-6.39 0-10.328-4.5-3.922-4.484-4.172-11.078zm8.391-13.922q-1.453-8.11-7.953-13.422-5.719-4.5-15.047-4.593-10.984.093-17.438 7.203Q4 12.704 4 24.704q0 13.78 6.64 21.437 6.641 7.672 18.47 7.672 10.593 0 16.546-7.922 5.953-7.907 5.953-22.594H13.375q0-8.203 3.813-12.703Q21 6.109 28.608 6.109q5.375 0 9.235 3.235 3.86 3.25 4.25 7.062z" id="HelveticaWorld-Regular-101"/><path d="M17.188 45.016V0H8.405v45.016H1.22v7.28h7.187v8.985q0 5.907 3.578 8.703 3.594 2.813 10.032 2.813 2.203 0 3.968-.188v-7.906q-1.562.188-3.578.188-2.922 0-4.078-1.438-1.14-1.437-1.14-4.656v-6.5h8.796v-7.281z" id="HelveticaWorld-Regular-102"/><path d="M58.016 50.203q-1.625 7.313-6.782 11.094-5.14 3.797-13.343 3.797-10.594 0-17.047-7.703-6.438-7.688-6.438-20.766 0-15.14 6.094-22.547 6.11-7.39 17.688-7.39 7.609 0 13.093 5.046 5.5 5.063 7.407 14.688h9.421Q66.22 12.594 57.625 5.344t-20.906-7.25q-14.703 0-23.516 10.11Q4.391 18.311 4.391 36.28q0 17.328 9.203 27.36 9.203 10.047 24.297 10.047 12.5 0 20.265-6.454 7.766-6.437 9.235-17.03z" id="HelveticaWorld-Regular-67"/><path d="M17.828 0H8.11v71.781h9.72z" id="HelveticaWorld-Regular-73"/><path d="M61.078 0H8.11v71.781h52.297v-8.594H17.828V41.22h39.25v-8.594h-39.25V8.594h43.25z" id="HelveticaWorld-Regular-69"/><path d="M17.672 8.594h36.531V0H8.11v71.781h9.563z" id="HelveticaWorld-Regular-76"/><path d="M8.11 71.781h31.484q9.281 0 14.797-5.031 5.515-5.031 5.515-13.031 0-4.844-2.422-8.828-2.406-3.97-7.187-6.172 6.687-2.532 9.828-6.735 3.156-4.203 3.156-10.797 0-9.265-6.687-15.234Q49.906 0 38.922 0H8.109zm9.562-63.484h20.703q7.625 0 11.422 3.531 3.812 3.547 3.812 9.563 0 6.093-4.25 9.093Q45.125 33.5 36.812 33.5h-19.14zm0 33.11h17.625q7.719 0 11.312 2.796 3.594 2.813 3.594 8.781 0 5.125-3.406 7.813-3.39 2.687-11.39 2.687H17.671z" id="HelveticaWorld-Regular-66"/></defs><use xlink:href="#HelveticaWorld-Regular-77"/><use x="85.01" xlink:href="#HelveticaWorld-Regular-97"/><use x="139.941" xlink:href="#HelveticaWorld-Regular-99"/><use x="191.211" xlink:href="#HelveticaWorld-Regular-65"/><use x="256.41" xlink:href="#HelveticaWorld-Regular-100"/><use x="313.393" xlink:href="#HelveticaWorld-Regular-97"/><use x="368.324" xlink:href="#HelveticaWorld-Regular-109"/><use x="451.332" xlink:href="#HelveticaWorld-Regular-32"/><use x="475.746" xlink:href="#HelveticaWorld-Regular-49"/><use x="531.361" xlink:href="#HelveticaWorld-Regular-57"/><use x="586.977" xlink:href="#HelveticaWorld-Regular-55"/><use x="642.592" xlink:href="#HelveticaWorld-Regular-52"/><use x="698.207" xlink:href="#HelveticaWorld-Regular-32"/><use x="722.621" xlink:href="#HelveticaWorld-Regular-99"/><use x="773.891" xlink:href="#HelveticaWorld-Regular-111"/><use x="829.799" xlink:href="#HelveticaWorld-Regular-108"/><use x="851.82" xlink:href="#HelveticaWorld-Regular-111"/><use x="907.729" xlink:href="#HelveticaWorld-Regular-114"/><use x="940.297" xlink:href="#HelveticaWorld-Regular-32"/><use x="964.711" xlink:href="#HelveticaWorld-Regular-100"/><use x="1021.693" xlink:href="#HelveticaWorld-Regular-105"/><use x="1043.715" xlink:href="#HelveticaWorld-Regular-115"/><use x="1093.715" xlink:href="#HelveticaWorld-Regular-116"/><use x="1121.4" xlink:href="#HelveticaWorld-Regular-97"/><use x="1176.332" xlink:href="#HelveticaWorld-Regular-110"/><use x="1231.508" xlink:href="#HelveticaWorld-Regular-99"/><use x="1282.777" xlink:href="#HelveticaWorld-Regular-101"/><use x="1338.197" xlink:href="#HelveticaWorld-Regular-32"/><use x="1362.611" xlink:href="#HelveticaWorld-Regular-100"/><use x="1419.594" xlink:href="#HelveticaWorld-Regular-97"/><use x="1474.525" xlink:href="#HelveticaWorld-Regular-116"/><use x="1502.211" xlink:href="#HelveticaWorld-Regular-97"/><use x="1557.143" xlink:href="#HelveticaWorld-Regular-32"/><use x="1581.557" xlink:href="#HelveticaWorld-Regular-102"/><use x="1607.242" xlink:href="#HelveticaWorld-Regular-111"/><use x="1663.15" xlink:href="#HelveticaWorld-Regular-114"/><use x="1695.719" xlink:href="#HelveticaWorld-Regular-32"/><use x="1720.133" xlink:href="#HelveticaWorld-Regular-67"/><use x="1792.447" xlink:href="#HelveticaWorld-Regular-73"/><use x="1818.229" xlink:href="#HelveticaWorld-Regular-69"/><use x="1883.219" xlink:href="#HelveticaWorld-Regular-76"/><use x="1938.834" xlink:href="#HelveticaWorld-Regular-65"/><use x="2005.533" xlink:href="#HelveticaWorld-Regular-66"/></g></g></g><defs><clipPath id="p323fda29c5"><path d="M48.653 47.249h300.548v266.112H48.653z"/></clipPath></defs></svg>