<svg height="476.609" viewBox="0 0 356.401 357.457" width="475.202" xmlns="http://www.w3.org/2000/svg" xmlns:xlink="http://www.w3.org/1999/xlink"><defs><style>*{stroke-linecap:butt;stroke-linejoin:round}</style></defs><g id="figure_1"><path d="M0 357.457h356.401V0H0z" fill="none" id="patch_1"/><g id="axes_1"><path d="M48.653 313.361h300.548V47.25H48.653z" fill="none" id="patch_2"/><g id="PathCollection_1"><defs><path d="M0 3a3 3 0 100-6 3 3 0 000 6z" id="m15e78ce9b4" stroke="#000"/></defs><g clip-path="url(#pdace445891)" stroke="#000"><use x="62.316" xlink:href="#m15e78ce9b4" y="75.01"/><use x="82.387" xlink:href="#m15e78ce9b4" y="126.738"/><use x="62.316" xlink:href="#m15e78ce9b4" y="75.01"/><use x="123.346" xlink:href="#m15e78ce9b4" y="94.771"/><use x="82.387" xlink:href="#m15e78ce9b4" y="126.738"/><use x="123.346" xlink:href="#m15e78ce9b4" y="94.771"/><use x="82.387" xlink:href="#m15e78ce9b4" y="126.738"/><use x="83.294" xlink:href="#m15e78ce9b4" y="174.379"/><use x="82.387" xlink:href="#m15e78ce9b4" y="126.738"/><use x="120.663" xlink:href="#m15e78ce9b4" y="152.903"/><use x="123.346" xlink:href="#m15e78ce9b4" y="94.771"/><use x="164.498" xlink:href="#m15e78ce9b4" y="69.564"/><use x="123.346" xlink:href="#m15e78ce9b4" y="94.771"/><use x="120.663" xlink:href="#m15e78ce9b4" y="152.903"/><use x="123.346" xlink:href="#m15e78ce9b4" y="94.771"/><use x="159.395" xlink:href="#m15e78ce9b4" y="123.131"/><use x="164.498" xlink:href="#m15e78ce9b4" y="69.564"/><use x="159.395" xlink:href="#m15e78ce9b4" y="123.131"/><use x="164.498" xlink:href="#m15e78ce9b4" y="69.564"/><use x="189.544" xlink:href="#m15e78ce9b4" y="104.426"/><use x="83.294" xlink:href="#m15e78ce9b4" y="174.379"/><use x="120.663" xlink:href="#m15e78ce9b4" y="152.903"/><use x="83.294" xlink:href="#m15e78ce9b4" y="174.379"/><use x="98.416" xlink:href="#m15e78ce9b4" y="223.108"/><use x="83.294" xlink:href="#m15e78ce9b4" y="174.379"/><use x="131.968" xlink:href="#m15e78ce9b4" y="201.465"/><use x="120.663" xlink:href="#m15e78ce9b4" y="152.903"/><use x="159.395" xlink:href="#m15e78ce9b4" y="123.131"/><use x="120.663" xlink:href="#m15e78ce9b4" y="152.903"/><use x="131.968" xlink:href="#m15e78ce9b4" y="201.465"/><use x="120.663" xlink:href="#m15e78ce9b4" y="152.903"/><use x="163.414" xlink:href="#m15e78ce9b4" y="176.808"/><use x="159.395" xlink:href="#m15e78ce9b4" y="123.131"/><use x="189.544" xlink:href="#m15e78ce9b4" y="104.426"/><use x="159.395" xlink:href="#m15e78ce9b4" y="123.131"/><use x="163.414" xlink:href="#m15e78ce9b4" y="176.808"/><use x="159.395" xlink:href="#m15e78ce9b4" y="123.131"/><use x="193.746" xlink:href="#m15e78ce9b4" y="146.761"/><use x="189.544" xlink:href="#m15e78ce9b4" y="104.426"/><use x="223.126" xlink:href="#m15e78ce9b4" y="59.346"/><use x="189.544" xlink:href="#m15e78ce9b4" y="104.426"/><use x="193.746" xlink:href="#m15e78ce9b4" y="146.761"/><use x="189.544" xlink:href="#m15e78ce9b4" y="104.426"/><use x="221.435" xlink:href="#m15e78ce9b4" y="121.625"/><use x="223.126" xlink:href="#m15e78ce9b4" y="59.346"/><use x="221.435" xlink:href="#m15e78ce9b4" y="121.625"/><use x="223.126" xlink:href="#m15e78ce9b4" y="59.346"/><use x="251.244" xlink:href="#m15e78ce9b4" y="90.877"/><use x="98.416" xlink:href="#m15e78ce9b4" y="223.108"/><use x="131.968" xlink:href="#m15e78ce9b4" y="201.465"/><use x="98.416" xlink:href="#m15e78ce9b4" y="223.108"/><use x="126.563" xlink:href="#m15e78ce9b4" y="257.344"/><use x="98.416" xlink:href="#m15e78ce9b4" y="223.108"/><use x="146.504" xlink:href="#m15e78ce9b4" y="242.52"/><use x="131.968" xlink:href="#m15e78ce9b4" y="201.465"/><use x="163.414" xlink:href="#m15e78ce9b4" y="176.808"/><use x="131.968" xlink:href="#m15e78ce9b4" y="201.465"/><use x="146.504" xlink:href="#m15e78ce9b4" y="242.52"/><use x="131.968" xlink:href="#m15e78ce9b4" y="201.465"/><use x="175.499" xlink:href="#m15e78ce9b4" y="223.162"/><use x="163.414" xlink:href="#m15e78ce9b4" y="176.808"/><use x="193.746" xlink:href="#m15e78ce9b4" y="146.761"/><use x="163.414" xlink:href="#m15e78ce9b4" y="176.808"/><use x="175.499" xlink:href="#m15e78ce9b4" y="223.162"/><use x="163.414" xlink:href="#m15e78ce9b4" y="176.808"/><use x="200.204" xlink:href="#m15e78ce9b4" y="196.947"/><use x="193.746" xlink:href="#m15e78ce9b4" y="146.761"/><use x="221.435" xlink:href="#m15e78ce9b4" y="121.625"/><use x="193.746" xlink:href="#m15e78ce9b4" y="146.761"/><use x="200.204" xlink:href="#m15e78ce9b4" y="196.947"/><use x="193.746" xlink:href="#m15e78ce9b4" y="146.761"/><use x="225.541" xlink:href="#m15e78ce9b4" y="172.857"/><use x="221.435" xlink:href="#m15e78ce9b4" y="121.625"/><use x="251.244" xlink:href="#m15e78ce9b4" y="90.877"/><use x="221.435" xlink:href="#m15e78ce9b4" y="121.625"/><use x="225.541" xlink:href="#m15e78ce9b4" y="172.857"/><use x="221.435" xlink:href="#m15e78ce9b4" y="121.625"/><use x="251.619" xlink:href="#m15e78ce9b4" y="142.962"/><use x="251.244" xlink:href="#m15e78ce9b4" y="90.877"/><use x="276.863" xlink:href="#m15e78ce9b4" y="66.921"/><use x="251.244" xlink:href="#m15e78ce9b4" y="90.877"/><use x="251.619" xlink:href="#m15e78ce9b4" y="142.962"/><use x="251.244" xlink:href="#m15e78ce9b4" y="90.877"/><use x="279.054" xlink:href="#m15e78ce9b4" y="118.732"/><use x="276.863" xlink:href="#m15e78ce9b4" y="66.921"/><use x="279.054" xlink:href="#m15e78ce9b4" y="118.732"/><use x="276.863" xlink:href="#m15e78ce9b4" y="66.921"/><use x="303.285" xlink:href="#m15e78ce9b4" y="84.456"/><use x="126.563" xlink:href="#m15e78ce9b4" y="257.344"/><use x="146.504" xlink:href="#m15e78ce9b4" y="242.52"/><use x="126.563" xlink:href="#m15e78ce9b4" y="257.344"/><use x="171.838" xlink:href="#m15e78ce9b4" y="284.19"/><use x="146.504" xlink:href="#m15e78ce9b4" y="242.52"/><use x="175.499" xlink:href="#m15e78ce9b4" y="223.162"/><use x="146.504" xlink:href="#m15e78ce9b4" y="242.52"/><use x="171.838" xlink:href="#m15e78ce9b4" y="284.19"/><use x="146.504" xlink:href="#m15e78ce9b4" y="242.52"/><use x="192.627" xlink:href="#m15e78ce9b4" y="262.24"/><use x="175.499" xlink:href="#m15e78ce9b4" y="223.162"/><use x="200.204" xlink:href="#m15e78ce9b4" y="196.947"/><use x="175.499" xlink:href="#m15e78ce9b4" y="223.162"/><use x="192.627" xlink:href="#m15e78ce9b4" y="262.24"/><use x="175.499" xlink:href="#m15e78ce9b4" y="223.162"/><use x="213.117" xlink:href="#m15e78ce9b4" y="235.568"/><use x="200.204" xlink:href="#m15e78ce9b4" y="196.947"/><use x="225.541" xlink:href="#m15e78ce9b4" y="172.857"/><use x="200.204" xlink:href="#m15e78ce9b4" y="196.947"/><use x="213.117" xlink:href="#m15e78ce9b4" y="235.568"/><use x="200.204" xlink:href="#m15e78ce9b4" y="196.947"/><use x="232.537" xlink:href="#m15e78ce9b4" y="211.562"/><use x="225.541" xlink:href="#m15e78ce9b4" y="172.857"/><use x="251.619" xlink:href="#m15e78ce9b4" y="142.962"/><use x="225.541" xlink:href="#m15e78ce9b4" y="172.857"/><use x="232.537" xlink:href="#m15e78ce9b4" y="211.562"/><use x="225.541" xlink:href="#m15e78ce9b4" y="172.857"/><use x="259.011" xlink:href="#m15e78ce9b4" y="186.791"/><use x="251.619" xlink:href="#m15e78ce9b4" y="142.962"/><use x="279.054" xlink:href="#m15e78ce9b4" y="118.732"/><use x="251.619" xlink:href="#m15e78ce9b4" y="142.962"/><use x="259.011" xlink:href="#m15e78ce9b4" y="186.791"/><use x="251.619" xlink:href="#m15e78ce9b4" y="142.962"/><use x="278.526" xlink:href="#m15e78ce9b4" y="162.426"/><use x="279.054" xlink:href="#m15e78ce9b4" y="118.732"/><use x="303.285" xlink:href="#m15e78ce9b4" y="84.456"/><use x="279.054" xlink:href="#m15e78ce9b4" y="118.732"/><use x="278.526" xlink:href="#m15e78ce9b4" y="162.426"/><use x="279.054" xlink:href="#m15e78ce9b4" y="118.732"/><use x="311.57" xlink:href="#m15e78ce9b4" y="132.359"/><use x="303.285" xlink:href="#m15e78ce9b4" y="84.456"/><use x="311.57" xlink:href="#m15e78ce9b4" y="132.359"/><use x="303.285" xlink:href="#m15e78ce9b4" y="84.456"/><use x="332.462" xlink:href="#m15e78ce9b4" y="114.016"/><use x="171.838" xlink:href="#m15e78ce9b4" y="284.19"/><use x="192.627" xlink:href="#m15e78ce9b4" y="262.24"/><use x="171.838" xlink:href="#m15e78ce9b4" y="284.19"/><use x="219.732" xlink:href="#m15e78ce9b4" y="301.264"/><use x="192.627" xlink:href="#m15e78ce9b4" y="262.24"/><use x="213.117" xlink:href="#m15e78ce9b4" y="235.568"/><use x="192.627" xlink:href="#m15e78ce9b4" y="262.24"/><use x="219.732" xlink:href="#m15e78ce9b4" y="301.264"/><use x="192.627" xlink:href="#m15e78ce9b4" y="262.24"/><use x="230.816" xlink:href="#m15e78ce9b4" y="274.265"/><use x="213.117" xlink:href="#m15e78ce9b4" y="235.568"/><use x="232.537" xlink:href="#m15e78ce9b4" y="211.562"/><use x="213.117" xlink:href="#m15e78ce9b4" y="235.568"/><use x="230.816" xlink:href="#m15e78ce9b4" y="274.265"/><use x="213.117" xlink:href="#m15e78ce9b4" y="235.568"/><use x="244.164" xlink:href="#m15e78ce9b4" y="251.804"/><use x="232.537" xlink:href="#m15e78ce9b4" y="211.562"/><use x="259.011" xlink:href="#m15e78ce9b4" y="186.791"/><use x="232.537" xlink:href="#m15e78ce9b4" y="211.562"/><use x="244.164" xlink:href="#m15e78ce9b4" y="251.804"/><use x="232.537" xlink:href="#m15e78ce9b4" y="211.562"/><use x="260.869" xlink:href="#m15e78ce9b4" y="225.158"/><use x="259.011" xlink:href="#m15e78ce9b4" y="186.791"/><use x="278.526" xlink:href="#m15e78ce9b4" y="162.426"/><use x="259.011" xlink:href="#m15e78ce9b4" y="186.791"/><use x="260.869" xlink:href="#m15e78ce9b4" y="225.158"/><use x="259.011" xlink:href="#m15e78ce9b4" y="186.791"/><use x="281.777" xlink:href="#m15e78ce9b4" y="199.159"/><use x="278.526" xlink:href="#m15e78ce9b4" y="162.426"/><use x="311.57" xlink:href="#m15e78ce9b4" y="132.359"/><use x="278.526" xlink:href="#m15e78ce9b4" y="162.426"/><use x="281.777" xlink:href="#m15e78ce9b4" y="199.159"/><use x="278.526" xlink:href="#m15e78ce9b4" y="162.426"/><use x="311.669" xlink:href="#m15e78ce9b4" y="175.869"/><use x="311.57" xlink:href="#m15e78ce9b4" y="132.359"/><use x="332.462" xlink:href="#m15e78ce9b4" y="114.016"/><use x="311.57" xlink:href="#m15e78ce9b4" y="132.359"/><use x="311.669" xlink:href="#m15e78ce9b4" y="175.869"/><use x="311.57" xlink:href="#m15e78ce9b4" y="132.359"/><use x="335.538" xlink:href="#m15e78ce9b4" y="154.81"/><use x="332.462" xlink:href="#m15e78ce9b4" y="114.016"/><use x="335.538" xlink:href="#m15e78ce9b4" y="154.81"/><use x="219.732" xlink:href="#m15e78ce9b4" y="301.264"/><use x="230.816" xlink:href="#m15e78ce9b4" y="274.265"/><use x="230.816" xlink:href="#m15e78ce9b4" y="274.265"/><use x="244.164" xlink:href="#m15e78ce9b4" y="251.804"/><use x="230.816" xlink:href="#m15e78ce9b4" y="274.265"/><use x="274.009" xlink:href="#m15e78ce9b4" y="287.801"/><use x="244.164" xlink:href="#m15e78ce9b4" y="251.804"/><use x="260.869" xlink:href="#m15e78ce9b4" y="225.158"/><use x="244.164" xlink:href="#m15e78ce9b4" y="251.804"/><use x="274.009" xlink:href="#m15e78ce9b4" y="287.801"/><use x="244.164" xlink:href="#m15e78ce9b4" y="251.804"/><use x="288.161" xlink:href="#m15e78ce9b4" y="264.774"/><use x="260.869" xlink:href="#m15e78ce9b4" y="225.158"/><use x="281.777" xlink:href="#m15e78ce9b4" y="199.159"/><use x="260.869" xlink:href="#m15e78ce9b4" y="225.158"/><use x="288.161" xlink:href="#m15e78ce9b4" y="264.774"/><use x="260.869" xlink:href="#m15e78ce9b4" y="225.158"/><use x="311.495" xlink:href="#m15e78ce9b4" y="239.143"/><use x="281.777" xlink:href="#m15e78ce9b4" y="199.159"/><use x="311.669" xlink:href="#m15e78ce9b4" y="175.869"/><use x="281.777" xlink:href="#m15e78ce9b4" y="199.159"/><use x="311.495" xlink:href="#m15e78ce9b4" y="239.143"/><use x="281.777" xlink:href="#m15e78ce9b4" y="199.159"/><use x="326.666" xlink:href="#m15e78ce9b4" y="222.964"/><use x="311.669" xlink:href="#m15e78ce9b4" y="175.869"/><use x="335.538" xlink:href="#m15e78ce9b4" y="154.81"/><use x="311.669" xlink:href="#m15e78ce9b4" y="175.869"/><use x="326.666" xlink:href="#m15e78ce9b4" y="222.964"/><use x="274.009" xlink:href="#m15e78ce9b4" y="287.801"/><use x="288.161" xlink:href="#m15e78ce9b4" y="264.774"/><use x="288.161" xlink:href="#m15e78ce9b4" y="264.774"/><use x="311.495" xlink:href="#m15e78ce9b4" y="239.143"/><use x="311.495" xlink:href="#m15e78ce9b4" y="239.143"/><use x="326.666" xlink:href="#m15e78ce9b4" y="222.964"/></g></g><path clip-path="url(#pdace445891)" d="M69.992 94.792l-.01-.01.003-.001-7.67-19.77.002-.001 7.671 19.77.003-.002z" stroke="#000" id="patch_3"/><path clip-path="url(#pdace445891)" d="M74.711 106.956l.009.01-.003.002 7.671 19.77h-.003l-7.67-19.77-.003.002z" stroke="#000" id="patch_4"/><path clip-path="url(#pdace445891)" d="M85.078 82.38h-.015l.001-.002-22.749-7.366.001-.003 22.75 7.366v-.003z" stroke="#000" id="patch_5"/><path clip-path="url(#pdace445891)" d="M100.584 87.401h.015l-.001.003 22.749 7.366-.001.003-22.75-7.366v.003z" stroke="#000" id="patch_6"/><path clip-path="url(#pdace445891)" d="M98.133 114.449l-.008.012-.001-.003-15.736 12.281-.002-.002 15.736-12.281-.002-.002z" stroke="#000" id="patch_7"/><path clip-path="url(#pdace445891)" d="M107.6 107.06l.007-.011.002.002 15.736-12.28.002.002-15.736 12.28.002.003z" stroke="#000" id="patch_8"/><path clip-path="url(#pdace445891)" d="M82.764 146.57l-.004-.014h.003l-.378-19.818h.003l.378 19.818h.003z" stroke="#000" id="patch_9"/><path clip-path="url(#pdace445891)" d="M82.916 154.548l.005.013h-.003l.378 19.818h-.003l-.378-19.818h-.003z" stroke="#000" id="patch_10"/><path clip-path="url(#pdace445891)" d="M96.073 136.094l-.013-.004.001-.002-13.675-9.349.002-.002 13.675 9.348.002-.002z" stroke="#000" id="patch_11"/><path clip-path="url(#pdace445891)" d="M106.976 143.547l.014.004-.002.003 13.676 9.348-.002.002-13.675-9.348-.002.002z" stroke="#000" id="patch_12"/><path clip-path="url(#pdace445891)" d="M143.329 82.531l-.01.011-.001-.003-19.971 12.234-.002-.003 19.971-12.233-.001-.003z" stroke="#000" id="patch_13"/><path clip-path="url(#pdace445891)" d="M144.516 81.804l.009-.01.001.002 19.972-12.233.001.002-19.971 12.233.002.003z" stroke="#000" id="patch_14"/><path clip-path="url(#pdace445891)" d="M122.168 120.296l-.004-.013h.003l1.178-25.512h.003l-1.178 25.512h.003z" stroke="#000" id="patch_15"/><path clip-path="url(#pdace445891)" d="M121.841 127.378l.004.014h-.003l-1.178 25.511h-.003l1.178-25.512h-.003z" stroke="#000" id="patch_16"/><path clip-path="url(#pdace445891)" d="M137.947 106.258l-.013-.005.001-.002-14.59-11.478.002-.003 14.59 11.479.002-.003z" stroke="#000" id="patch_17"/><path clip-path="url(#pdace445891)" d="M144.794 111.645l.013.004-.002.003 14.59 11.478-.001.002-14.59-11.478-.002.002z" stroke="#000" id="patch_18"/><path clip-path="url(#pdace445891)" d="M162.863 86.726l-.003-.014h.003l1.634-17.148h.003l-1.634 17.149h.003z" stroke="#000" id="patch_19"/><path clip-path="url(#pdace445891)" d="M161.03 105.97l.003.013h-.003l-1.634 17.148h-.003l1.634-17.148h-.003z" stroke="#000" id="patch_20"/><path clip-path="url(#pdace445891)" d="M175.791 85.283l-.011-.008.002-.002-11.285-15.708.003-.002 11.285 15.708.002-.001z" stroke="#000" id="patch_21"/><path clip-path="url(#pdace445891)" d="M178.251 88.707l.011.008-.002.002 11.285 15.708-.002.002-11.285-15.708-.003.001z" stroke="#000" id="patch_22"/><path clip-path="url(#pdace445891)" d="M101.253 164.058l-.01.01v-.002L83.294 174.38l-.002-.003 17.948-10.314-.001-.003z" stroke="#000" id="patch_23"/><path clip-path="url(#pdace445891)" d="M102.704 163.224l.01-.01v.002l17.948-10.314.002.002-17.948 10.315.002.002z" stroke="#000" id="patch_24"/><path clip-path="url(#pdace445891)" d="M90.377 197.203l-.008-.011.003-.001-7.08-22.812h.004l7.079 22.811h.003z" stroke="#000" id="patch_25"/><path clip-path="url(#pdace445891)" d="M91.333 200.283l.008.012h-.002l7.079 22.812-.003.001-7.08-22.812-.002.001z" stroke="#000" id="patch_26"/><path clip-path="url(#pdace445891)" d="M97.28 182.162l-.014-.003.002-.003-13.975-7.776.002-.003 13.974 7.777.002-.003z" stroke="#000" id="patch_27"/><path clip-path="url(#pdace445891)" d="M117.983 193.682l.014.003-.002.002 13.974 7.777-.001.002-13.974-7.776-.002.003z" stroke="#000" id="patch_28"/><path clip-path="url(#pdace445891)" d="M135.5 141.498l-.008.012-.001-.003-14.827 11.397-.002-.002 14.827-11.397-.002-.002z" stroke="#000" id="patch_29"/><path clip-path="url(#pdace445891)" d="M144.557 134.536l.008-.011.002.002 14.827-11.397.001.002-14.826 11.397.001.003z" stroke="#000" id="patch_30"/><path clip-path="url(#pdace445891)" d="M124.94 171.272l-.008-.012h.003l-4.274-18.357h.003l4.274 18.356h.003z" stroke="#000" id="patch_31"/><path clip-path="url(#pdace445891)" d="M127.692 183.096l.007.012h-.003l4.274 18.357h-.003l-4.273-18.356h-.003z" stroke="#000" id="patch_32"/><path clip-path="url(#pdace445891)" d="M130.602 158.46l-.014-.002.002-.003-9.928-5.55.002-.003 9.927 5.55.002-.002z" stroke="#000" id="patch_33"/><path clip-path="url(#pdace445891)" d="M153.475 171.25l.014.003-.002.002 9.928 5.551-.002.003-9.927-5.551-.002.002z" stroke="#000" id="patch_34"/><path clip-path="url(#pdace445891)" d="M176.594 112.46l-.01.012-.001-.003-17.188 10.664-.001-.003 17.187-10.664-.001-.002z" stroke="#000" id="patch_35"/><path clip-path="url(#pdace445891)" d="M172.345 115.097l.009-.011.002.002 17.187-10.663.002.002-17.188 10.664.002.002z" stroke="#000" id="patch_36"/><path clip-path="url(#pdace445891)" d="M160.464 137.416l-.005-.013h.003l-1.069-14.272h.003l1.069 14.272h.003z" stroke="#000" id="patch_37"/><path clip-path="url(#pdace445891)" d="M162.344 162.522l.006.013h-.003l1.069 14.272h-.003l-1.07-14.271h-.002z" stroke="#000" id="patch_38"/><path clip-path="url(#pdace445891)" d="M174.133 133.27l-.014-.004.002-.003-14.727-10.13.001-.003 14.728 10.13.002-.002z" stroke="#000" id="patch_39"/><path clip-path="url(#pdace445891)" d="M179.007 136.622l.014.004-.002.003 14.727 10.13-.001.003-14.728-10.13-.001.002z" stroke="#000" id="patch_40"/><path clip-path="url(#pdace445891)" d="M205.637 82.823l-.005.014-.002-.002-16.085 21.592-.002-.002 16.085-21.592-.003-.002z" stroke="#000" id="patch_41"/><path clip-path="url(#pdace445891)" d="M207.033 80.95l.004-.014.003.002 16.084-21.593.003.002-16.085 21.592.002.002z" stroke="#000" id="patch_42"/><path clip-path="url(#pdace445891)" d="M191.05 119.605l-.005-.012h.003l-1.506-15.167h.003l1.506 15.166h.003z" stroke="#000" id="patch_43"/><path clip-path="url(#pdace445891)" d="M192.239 131.581l.006.013h-.003l1.505 15.166h-.003l-1.505-15.165h-.003z" stroke="#000" id="patch_44"/><path clip-path="url(#pdace445891)" d="M209.589 115.236l-.014-.002.001-.003-20.033-10.804.002-.002 20.033 10.804.001-.003z" stroke="#000" id="patch_45"/><path clip-path="url(#pdace445891)" d="M201.39 110.815l.014.002-.001.003 20.033 10.803-.002.003-20.033-10.804-.001.003z" stroke="#000" id="patch_46"/><path clip-path="url(#pdace445891)" d="M222.594 78.92l-.004-.014h.003l.531-19.56h.003l-.53 19.56h.002z" stroke="#000" id="patch_47"/><path clip-path="url(#pdace445891)" d="M221.966 102.052l.004.013h-.003l-.53 19.56h-.004l.531-19.56h-.003z" stroke="#000" id="patch_48"/><path clip-path="url(#pdace445891)" d="M239.787 78.03l-.013-.008.003-.002-16.653-18.673.003-.002 16.652 18.673.002-.002z" stroke="#000" id="patch_49"/><path clip-path="url(#pdace445891)" d="M234.583 72.194l.012.007-.002.002 16.652 18.673-.002.002-16.652-18.673-.002.002z" stroke="#000" id="patch_50"/><path clip-path="url(#pdace445891)" d="M111.532 214.648l-.01.01v-.002l-13.105 8.453-.001-.002 13.104-8.453-.002-.003z" stroke="#000" id="patch_51"/><path clip-path="url(#pdace445891)" d="M118.853 209.925l.009-.01.002.002 13.104-8.453.001.002-13.104 8.453.002.003z" stroke="#000" id="patch_52"/><path clip-path="url(#pdace445891)" d="M113.208 241.1l-.012-.008.002-.002-14.783-17.981.003-.002 14.782 17.98.003-.001z" stroke="#000" id="patch_53"/><path clip-path="url(#pdace445891)" d="M111.772 239.353l.012.007-.003.002 14.783 17.98-.002.003-14.783-17.981-.002.002z" stroke="#000" id="patch_54"/><path clip-path="url(#pdace445891)" d="M116.958 230.593l-.014-.001v-.003l-18.528-7.48.001-.003 18.529 7.48.001-.002z" stroke="#000" id="patch_55"/><path clip-path="url(#pdace445891)" d="M127.962 235.035l.014.001v.003l18.528 7.48v.002l-18.53-7.48v.003z" stroke="#000" id="patch_56"/><path clip-path="url(#pdace445891)" d="M147.289 189.452l-.008.012-.002-.002-15.31 12.004-.001-.002 15.31-12.005-.003-.002z" stroke="#000" id="patch_57"/><path clip-path="url(#pdace445891)" d="M148.094 188.82l.008-.011.002.002 15.31-12.005.001.003-15.31 12.004.002.003z" stroke="#000" id="patch_58"/><path clip-path="url(#pdace445891)" d="M140.306 225.015l-.008-.01.002-.002-8.333-23.537.003-.001 8.333 23.537h.003z" stroke="#000" id="patch_59"/><path clip-path="url(#pdace445891)" d="M138.166 218.97l.009.011-.003.001 8.333 23.538h-.003l-8.333-23.537-.003.001z" stroke="#000" id="patch_60"/><path clip-path="url(#pdace445891)" d="M145.573 208.246l-.014-.002v-.003l-13.591-6.775.001-.002 13.592 6.775.002-.003z" stroke="#000" id="patch_61"/><path clip-path="url(#pdace445891)" d="M161.895 216.382l.014.002-.001.002 13.592 6.775-.002.003-13.592-6.775-.001.003z" stroke="#000" id="patch_62"/><path clip-path="url(#pdace445891)" d="M176.061 164.28l-.006.012-.002-.002-12.638 12.519-.002-.003 12.638-12.519-.002-.002z" stroke="#000" id="patch_63"/><path clip-path="url(#pdace445891)" d="M181.098 159.29l.007-.013.002.002 12.638-12.52.002.003-12.638 12.519.002.002z" stroke="#000" id="patch_64"/><path clip-path="url(#pdace445891)" d="M168.689 197.04l-.008-.011.003-.001-5.271-20.22h.003l5.271 20.22.003-.001z" stroke="#000" id="patch_65"/><path clip-path="url(#pdace445891)" d="M170.224 202.93l.008.011h-.003l5.271 20.221h-.003l-5.27-20.22-.004.001z" stroke="#000" id="patch_66"/><path clip-path="url(#pdace445891)" d="M179.25 185.476l-.015-.003.002-.002-15.824-8.662.002-.003 15.823 8.662.002-.002z" stroke="#000" id="patch_67"/><path clip-path="url(#pdace445891)" d="M184.37 188.279l.013.002-.001.003 15.823 8.662-.001.002-15.824-8.662-.001.003z" stroke="#000" id="patch_68"/><path clip-path="url(#pdace445891)" d="M208.13 133.703l-.007.013-.002-.003-14.374 13.049-.002-.003 14.374-13.048-.002-.002z" stroke="#000" id="patch_69"/><path clip-path="url(#pdace445891)" d="M207.051 134.682l.007-.012.002.002 14.374-13.048.002.002-14.374 13.048.002.002z" stroke="#000" id="patch_70"/><path clip-path="url(#pdace445891)" d="M195.926 163.704l-.006-.013h.003l-2.179-16.93h.003l2.179 16.93.003-.001z" stroke="#000" id="patch_71"/><path clip-path="url(#pdace445891)" d="M198.024 180.004l.006.013h-.003l2.179 16.93h-.003l-2.179-16.93h-.003z" stroke="#000" id="patch_72"/><path clip-path="url(#pdace445891)" d="M207.902 158.38l-.013-.005.002-.003-14.146-11.61.002-.003 14.146 11.611.001-.002z" stroke="#000" id="patch_73"/><path clip-path="url(#pdace445891)" d="M211.385 161.238l.013.005-.002.003 14.146 11.61-.002.003-14.146-11.611-.002.002z" stroke="#000" id="patch_74"/><path clip-path="url(#pdace445891)" d="M237.173 105.391l-.006.013-.002-.002-15.729 16.224-.002-.002 15.728-16.224-.002-.002z" stroke="#000" id="patch_75"/><path clip-path="url(#pdace445891)" d="M235.506 107.11l.006-.012.002.002 15.73-16.224.001.002-15.728 16.224.002.002z" stroke="#000" id="patch_76"/><path clip-path="url(#pdace445891)" d="M222.672 137.058l-.006-.013h.003l-1.236-15.42h.003l1.236 15.42h.003z" stroke="#000" id="patch_77"/><path clip-path="url(#pdace445891)" d="M224.304 157.424l.006.013h-.003l1.235 15.42h-.003l-1.235-15.42h-.003z" stroke="#000" id="patch_78"/><path clip-path="url(#pdace445891)" d="M239.347 134.287l-.014-.005.002-.002-17.9-12.654v-.002l17.902 12.654.002-.003z" stroke="#000" id="patch_79"/><path clip-path="url(#pdace445891)" d="M233.707 130.3l.014.004-.002.002 17.9 12.654v.003l-17.902-12.654-.002.002z" stroke="#000" id="patch_80"/><path clip-path="url(#pdace445891)" d="M262.89 79.987l-.007.013-.002-.003-11.636 10.881-.002-.002 11.636-10.88-.002-.003z" stroke="#000" id="patch_81"/><path clip-path="url(#pdace445891)" d="M265.217 77.81l.007-.012.002.002 11.636-10.88.002.002-11.636 10.88.002.003z" stroke="#000" id="patch_82"/><path clip-path="url(#pdace445891)" d="M251.397 112.088l-.005-.013h.003l-.152-21.198h.003l.152 21.198h.003z" stroke="#000" id="patch_83"/><path clip-path="url(#pdace445891)" d="M251.466 121.75l.005.014h-.003l.153 21.198h-.003l-.153-21.198h-.003z" stroke="#000" id="patch_84"/><path clip-path="url(#pdace445891)" d="M267.02 106.678l-.013-.006.003-.002-15.767-15.792.002-.002 15.767 15.792.002-.002z" stroke="#000" id="patch_85"/><path clip-path="url(#pdace445891)" d="M263.278 102.93l.012.007-.002.002 15.767 15.792-.002.002-15.767-15.792-.002.002z" stroke="#000" id="patch_86"/><path clip-path="url(#pdace445891)" d="M277.758 88.081l-.005-.013h.002l-.894-21.147h.003l.894 21.147h.003z" stroke="#000" id="patch_87"/><path clip-path="url(#pdace445891)" d="M278.159 97.571l.005.014h-.003l.894 21.147h-.003l-.894-21.147h-.003z" stroke="#000" id="patch_88"/><path clip-path="url(#pdace445891)" d="M296.283 79.81l-.013-.004.001-.003-19.41-12.88.003-.003 19.41 12.88v-.002z" stroke="#000" id="patch_89"/><path clip-path="url(#pdace445891)" d="M283.865 71.568l.013.003-.001.003 19.41 12.881-.003.003-19.41-12.882v.003z" stroke="#000" id="patch_90"/><path clip-path="url(#pdace445891)" d="M139.143 247.992l-.008.011-.002-.002-12.57 9.344-.001-.002 12.57-9.344-.002-.003z" stroke="#000" id="patch_91"/><path clip-path="url(#pdace445891)" d="M133.923 251.872l.008-.011.002.002 12.57-9.344.002.002-12.57 9.344.002.003z" stroke="#000" id="patch_92"/><path clip-path="url(#pdace445891)" d="M153.41 273.263l-.015-.003.002-.003-26.835-15.912.002-.002 26.834 15.912.002-.003z" stroke="#000" id="patch_93"/><path clip-path="url(#pdace445891)" d="M144.991 268.271l.014.003-.001.003 26.834 15.912-.001.003-26.835-15.913-.001.003z" stroke="#000" id="patch_94"/><path clip-path="url(#pdace445891)" d="M163.605 231.103l-.008.01-.002-.002-17.09 11.41-.002-.002 17.09-11.41-.001-.002z" stroke="#000" id="patch_95"/><path clip-path="url(#pdace445891)" d="M158.397 234.58l.01-.012v.003l17.091-11.41.002.003-17.09 11.41.001.002z" stroke="#000" id="patch_96"/><path clip-path="url(#pdace445891)" d="M162.464 268.772l-.011-.01h.003l-15.954-26.241.003-.002 15.953 26.24h.003z" stroke="#000" id="patch_97"/><path clip-path="url(#pdace445891)" d="M155.878 257.939l.01.009-.002.001 15.953 26.24-.003.002-15.953-26.24-.002.001z" stroke="#000" id="patch_98"/><path clip-path="url(#pdace445891)" d="M173.72 254.156l-.015-.001.001-.003-27.203-11.63.001-.003 27.204 11.63v-.002z" stroke="#000" id="patch_99"/><path clip-path="url(#pdace445891)" d="M165.411 250.604l.014.001-.001.003 27.203 11.63-.001.003-27.203-11.63-.001.002z" stroke="#000" id="patch_100"/><path clip-path="url(#pdace445891)" d="M190.244 207.517l-.006.012-.002-.002-14.736 15.636-.002-.002 14.735-15.636-.002-.002z" stroke="#000" id="patch_101"/><path clip-path="url(#pdace445891)" d="M185.46 212.593l.005-.013.003.002 14.735-15.636.002.002-14.735 15.636.002.002z" stroke="#000" id="patch_102"/><path clip-path="url(#pdace445891)" d="M186.587 248.46l-.01-.01.003-.001-11.082-25.286.002-.001 11.083 25.285h.003z" stroke="#000" id="patch_103"/><path clip-path="url(#pdace445891)" d="M181.538 236.942l.01.01-.003.001 11.083 25.286-.003.001-11.083-25.285h-.002z" stroke="#000" id="patch_104"/><path clip-path="url(#pdace445891)" d="M197.905 230.552h-.015l.001-.003-22.393-7.385.001-.003 22.393 7.385.001-.003z" stroke="#000" id="patch_105"/><path clip-path="url(#pdace445891)" d="M190.711 228.18h.014v.002l22.392 7.385v.003l-22.394-7.385v.003z" stroke="#000" id="patch_106"/><path clip-path="url(#pdace445891)" d="M215.227 182.664l-.006.012-.003-.002-15.013 14.274-.002-.002 15.013-14.274-.002-.002z" stroke="#000" id="patch_107"/><path clip-path="url(#pdace445891)" d="M210.518 187.14l.007-.012.002.003 15.013-14.275.002.002-15.013 14.275.002.002z" stroke="#000" id="patch_108"/><path clip-path="url(#pdace445891)" d="M207.337 218.28l-.009-.011.003-.001-7.128-21.32.003-.001 7.128 21.32.003-.001z" stroke="#000" id="patch_109"/><path clip-path="url(#pdace445891)" d="M205.984 214.235l.009.012h-.003l7.128 21.32-.003.002-7.128-21.32h-.003z" stroke="#000" id="patch_110"/><path clip-path="url(#pdace445891)" d="M220.138 205.957l-.014-.001.001-.003-19.921-9.005v-.002l19.922 9.004.001-.002z" stroke="#000" id="patch_111"/><path clip-path="url(#pdace445891)" d="M212.603 202.551l.014.002v.003l19.92 9.004v.003l-19.922-9.005-.001.003z" stroke="#000" id="patch_112"/><path clip-path="url(#pdace445891)" d="M235.189 161.797l-.006.013-.002-.002-9.639 11.05-.002-.002 9.639-11.05-.002-.002z" stroke="#000" id="patch_113"/><path clip-path="url(#pdace445891)" d="M241.971 154.022l.006-.013.002.002 9.639-11.05.002.002-9.639 11.05.002.002z" stroke="#000" id="patch_114"/><path clip-path="url(#pdace445891)" d="M228.464 189.03l-.007-.012h.003l-2.92-16.16h.002l2.921 16.159h.003z" stroke="#000" id="patch_115"/><path clip-path="url(#pdace445891)" d="M229.614 195.389l.006.012h-.003l2.921 16.16h-.003l-2.92-16.159h-.003z" stroke="#000" id="patch_116"/><path clip-path="url(#pdace445891)" d="M245.535 181.181l-.014-.001.001-.003-19.982-8.318.001-.003 19.982 8.319.001-.003z" stroke="#000" id="patch_117"/><path clip-path="url(#pdace445891)" d="M239.017 178.468h.014l-.001.003 19.982 8.319-.001.003-19.982-8.319-.001.003z" stroke="#000" id="patch_118"/><path clip-path="url(#pdace445891)" d="M261.319 134.395l-.007.012-.002-.002-9.69 8.558-.002-.003 9.69-8.557-.002-.003z" stroke="#000" id="patch_119"/><path clip-path="url(#pdace445891)" d="M269.354 127.298l.007-.012.002.002 9.69-8.557.002.002-9.69 8.558.002.002z" stroke="#000" id="patch_120"/><path clip-path="url(#pdace445891)" d="M254.127 157.834l-.006-.013h.003l-2.506-14.86h.003l2.506 14.86.002-.001z" stroke="#000" id="patch_121"/><path clip-path="url(#pdace445891)" d="M256.503 171.92l.006.012h-.002l2.506 14.859h-.003l-2.506-14.858h-.003z" stroke="#000" id="patch_122"/><path clip-path="url(#pdace445891)" d="M267.69 154.586l-.014-.004.001-.002-16.059-11.617.002-.003 16.06 11.617v-.002z" stroke="#000" id="patch_123"/><path clip-path="url(#pdace445891)" d="M262.456 150.801l.014.004-.002.003 16.06 11.617-.003.002-16.059-11.617-.002.002z" stroke="#000" id="patch_124"/><path clip-path="url(#pdace445891)" d="M288.771 104.986l-.004.014-.002-.002-9.71 13.735-.002-.002 9.71-13.735-.003-.001z" stroke="#000" id="patch_125"/><path clip-path="url(#pdace445891)" d="M293.568 98.202l.004-.014.002.002 9.71-13.735.003.002-9.71 13.735.002.001z" stroke="#000" id="patch_126"/><path clip-path="url(#pdace445891)" d="M278.846 135.922l-.004-.013h.003l.207-17.177h.003l-.207 17.177h.003z" stroke="#000" id="patch_127"/><path clip-path="url(#pdace445891)" d="M278.734 145.236l.004.013h-.003l-.207 17.177h-.003l.207-17.177h-.003z" stroke="#000" id="patch_128"/><path clip-path="url(#pdace445891)" d="M300.274 127.625h-.014l.001-.004-21.208-8.888.001-.003 21.208 8.889.002-.003z" stroke="#000" id="patch_129"/><path clip-path="url(#pdace445891)" d="M290.35 123.466h.014l-.001.004 21.208 8.888-.002.003-21.208-8.889v.003z" stroke="#000" id="patch_130"/><path clip-path="url(#pdace445891)" d="M307.822 110.69l-.006-.012h.003l-4.535-26.221h.003l4.535 26.22h.003z" stroke="#000" id="patch_131"/><path clip-path="url(#pdace445891)" d="M307.033 106.125l.007.012h-.003l4.535 26.222h-.003l-4.535-26.22h-.003z" stroke="#000" id="patch_132"/><path clip-path="url(#pdace445891)" d="M322.324 103.746l-.012-.007.002-.002-19.03-19.28.002-.002 19.03 19.28.002-.002z" stroke="#000" id="patch_133"/><path clip-path="url(#pdace445891)" d="M313.422 94.727l.013.006-.002.002 19.03 19.28-.003.002-19.03-19.28-.001.002z" stroke="#000" id="patch_134"/><path clip-path="url(#pdace445891)" d="M185.931 269.31l-.006.012-.002-.002-14.084 14.871-.002-.002 14.084-14.87-.002-.003z" stroke="#000" id="patch_135"/><path clip-path="url(#pdace445891)" d="M178.533 277.12l.006-.012.002.002 14.085-14.871.002.002-14.085 14.871.003.002z" stroke="#000" id="patch_136"/><path clip-path="url(#pdace445891)" d="M201.11 294.625h-.015l.001-.003-29.259-10.43.001-.003 29.26 10.43v-.002z" stroke="#000" id="patch_137"/><path clip-path="url(#pdace445891)" d="M190.46 290.829h.014v.003l29.258 10.43v.003l-29.26-10.43v.003z" stroke="#000" id="patch_138"/><path clip-path="url(#pdace445891)" d="M204.516 246.763l-.004.014-.003-.002-11.881 15.466-.003-.002 11.882-15.466-.003-.002z" stroke="#000" id="patch_139"/><path clip-path="url(#pdace445891)" d="M201.227 251.045l.005-.014.002.002 11.881-15.466.003.002-11.882 15.466.003.002z" stroke="#000" id="patch_140"/><path clip-path="url(#pdace445891)" d="M208.333 284.852l-.012-.008.003-.002-15.699-22.601.003-.002 15.698 22.601.003-.001z" stroke="#000" id="patch_141"/><path clip-path="url(#pdace445891)" d="M204.026 278.651l.011.009-.002.002 15.698 22.601-.003.002-15.698-22.602-.002.002z" stroke="#000" id="patch_142"/><path clip-path="url(#pdace445891)" d="M216.591 269.786h-.014l.001-.002-23.952-7.543.001-.003 23.952 7.543.001-.003z" stroke="#000" id="patch_143"/><path clip-path="url(#pdace445891)" d="M206.85 266.719h.015v.003l23.951 7.542v.003l-23.953-7.543v.003z" stroke="#000" id="patch_144"/><path clip-path="url(#pdace445891)" d="M224.455 221.553l-.005.013-.003-.002-11.33 14.005-.002-.002 11.33-14.005-.002-.002z" stroke="#000" id="patch_145"/><path clip-path="url(#pdace445891)" d="M221.199 225.577l.005-.013.002.002 11.33-14.005.002.001-11.33 14.006.003.002z" stroke="#000" id="patch_146"/><path clip-path="url(#pdace445891)" d="M223.557 258.395l-.01-.01.003-.001-10.435-22.815.003-.001 10.435 22.814h.003z" stroke="#000" id="patch_147"/><path clip-path="url(#pdace445891)" d="M220.375 251.439l.01.01-.003.001 10.435 22.815-.003.001-10.435-22.815-.002.002z" stroke="#000" id="patch_148"/><path clip-path="url(#pdace445891)" d="M233.5 246.228l-.013-.002.001-.003-20.372-10.653.001-.003 20.373 10.654v-.003z" stroke="#000" id="patch_149"/><path clip-path="url(#pdace445891)" d="M223.78 241.144l.014.003-.002.002 20.372 10.654-.001.002-20.372-10.653-.002.003z" stroke="#000" id="patch_150"/><path clip-path="url(#pdace445891)" d="M246.02 198.946l-.007.013-.002-.003-13.473 12.607-.002-.003 13.473-12.606-.002-.002z" stroke="#000" id="patch_151"/><path clip-path="url(#pdace445891)" d="M245.528 199.406l.007-.012.002.002 13.473-12.606.002.002-13.473 12.606.002.003z" stroke="#000" id="patch_152"/><path clip-path="url(#pdace445891)" d="M239.477 235.583l-.008-.012h.003l-6.937-24.01h.003l6.937 24.008h.003z" stroke="#000" id="patch_153"/><path clip-path="url(#pdace445891)" d="M237.224 227.783l.008.012h-.003l6.936 24.009h-.003l-6.936-24.008-.003.001z" stroke="#000" id="patch_154"/><path clip-path="url(#pdace445891)" d="M248.656 219.297l-.014-.002v-.003l-16.106-7.73.001-.002 16.107 7.73.001-.003z" stroke="#000" id="patch_155"/><path clip-path="url(#pdace445891)" d="M244.75 217.423l.014.001-.001.003 16.107 7.73-.002.002-16.106-7.73-.002.003z" stroke="#000" id="patch_156"/><path clip-path="url(#pdace445891)" d="M266.87 176.98l-.006.013-.002-.002-7.85 9.801-.002-.002 7.85-9.8-.002-.002z" stroke="#000" id="patch_157"/><path clip-path="url(#pdace445891)" d="M270.668 172.237l.005-.013.002.002 7.85-9.801.003.002-7.85 9.8.002.002z" stroke="#000" id="patch_158"/><path clip-path="url(#pdace445891)" d="M259.93 205.783l-.004-.013h.003l-.92-18.979h.004l.919 18.979h.003z" stroke="#000" id="patch_159"/><path clip-path="url(#pdace445891)" d="M259.95 206.166l.004.013h-.003l.92 18.979h-.004l-.919-18.979h-.003z" stroke="#000" id="patch_160"/><path clip-path="url(#pdace445891)" d="M271.058 193.336l-.014-.003.002-.002-12.036-6.539.002-.002 12.035 6.538.001-.002z" stroke="#000" id="patch_161"/><path clip-path="url(#pdace445891)" d="M269.73 192.615l.014.002-.001.003 12.035 6.538-.001.003-12.036-6.539-.001.003z" stroke="#000" id="patch_162"/><path clip-path="url(#pdace445891)" d="M292.452 149.755l-.007.013-.002-.003-13.916 12.662-.002-.002 13.916-12.662-.002-.002z" stroke="#000" id="patch_163"/><path clip-path="url(#pdace445891)" d="M297.645 145.03l.007-.012.002.002 13.915-12.662.002.002-13.915 12.662.002.002z" stroke="#000" id="patch_164"/><path clip-path="url(#pdace445891)" d="M280.536 185.135l-.006-.013h.003l-2.008-22.696h.003l2.008 22.695h.003z" stroke="#000" id="patch_165"/><path clip-path="url(#pdace445891)" d="M279.768 176.45l.005.014h-.003l2.009 22.695h-.003l-2.009-22.695h-.003z" stroke="#000" id="patch_166"/><path clip-path="url(#pdace445891)" d="M295.88 169.465h-.013v-.004l-17.341-7.034v-.003l17.343 7.035.001-.003z" stroke="#000" id="patch_167"/><path clip-path="url(#pdace445891)" d="M294.315 168.83h.014l-.001.004 17.342 7.034-.001.002-17.342-7.034-.001.003z" stroke="#000" id="patch_168"/><path clip-path="url(#pdace445891)" d="M319.964 124.99l-.007.012-.002-.003-8.384 7.361-.002-.002 8.384-7.36-.002-.003z" stroke="#000" id="patch_169"/><path clip-path="url(#pdace445891)" d="M324.068 121.386l.007-.012.002.002 8.384-7.36.002.001-8.384 7.361.002.003z" stroke="#000" id="patch_170"/><path clip-path="url(#pdace445891)" d="M311.623 155.469l-.005-.013h.003l-.052-23.097h.003l.052 23.097h.003z" stroke="#000" id="patch_171"/><path clip-path="url(#pdace445891)" d="M311.617 152.76l.004.013h-.003l.053 23.096h-.003l-.053-23.096h-.003z" stroke="#000" id="patch_172"/><path clip-path="url(#pdace445891)" d="M328.231 147.966l-.013-.006.002-.002-16.651-15.598.002-.002 16.651 15.598.002-.003z" stroke="#000" id="patch_173"/><path clip-path="url(#pdace445891)" d="M318.877 139.204l.013.006-.002.002 16.651 15.597-.002.003-16.651-15.598-.002.002z" stroke="#000" id="patch_174"/><path clip-path="url(#pdace445891)" d="M334.233 137.498l-.006-.013h.003l-1.77-23.469h.003l1.77 23.469h.003z" stroke="#000" id="patch_175"/><path clip-path="url(#pdace445891)" d="M333.767 131.329l.006.013h-.003l1.77 23.468h-.003l-1.77-23.468h-.003z" stroke="#000" id="patch_176"/><path clip-path="url(#pdace445891)" d="M229.181 278.247v.014l-.004-.001-9.444 23.005-.003-.002 9.445-23.004-.003-.001z" stroke="#000" id="patch_177"/><path clip-path="url(#pdace445891)" d="M221.366 297.282l.001-.014.003.002 9.444-23.005.003.001-9.444 23.005h.002z" stroke="#000" id="patch_178"/><path clip-path="url(#pdace445891)" d="M239.184 260.184l-.003.014-.003-.001-8.361 14.07-.003-.002 8.362-14.07-.003-.001z" stroke="#000" id="patch_179"/><path clip-path="url(#pdace445891)" d="M235.796 265.885l.003-.014.002.002 8.361-14.07.003.002-8.361 14.07.002.001z" stroke="#000" id="patch_180"/><path clip-path="url(#pdace445891)" d="M252.132 280.945h-.014v-.003l-21.303-6.675.001-.003 21.303 6.676.001-.003z" stroke="#000" id="patch_181"/><path clip-path="url(#pdace445891)" d="M252.693 281.121h.015l-.001.003 21.303 6.675-.001.003-21.303-6.676-.001.003z" stroke="#000" id="patch_182"/><path clip-path="url(#pdace445891)" d="M253.38 237.104l-.004.014-.002-.002-9.21 14.689-.002-.002 9.209-14.688-.002-.002z" stroke="#000" id="patch_183"/><path clip-path="url(#pdace445891)" d="M251.653 239.858l.004-.014.002.002 9.209-14.689.002.002-9.208 14.688.002.002z" stroke="#000" id="patch_184"/><path clip-path="url(#pdace445891)" d="M256.758 266.994l-.012-.008.002-.002-12.585-15.179.002-.002 12.585 15.18.003-.003z" stroke="#000" id="patch_185"/><path clip-path="url(#pdace445891)" d="M261.415 272.611l.012.008-.002.001 12.586 15.18-.003.001-12.585-15.179-.003.002z" stroke="#000" id="patch_186"/><path clip-path="url(#pdace445891)" d="M265.056 257.963h-.014v-.003l-20.879-6.154.001-.003 20.88 6.154v-.002z" stroke="#000" id="patch_187"/><path clip-path="url(#pdace445891)" d="M267.269 258.615h.014v.002l20.879 6.155-.001.003-20.88-6.155v.003z" stroke="#000" id="patch_188"/><path clip-path="url(#pdace445891)" d="M271.853 211.5l-.005.013-.002-.002-10.976 13.648-.002-.002 10.975-13.648-.002-.002z" stroke="#000" id="patch_189"/><path clip-path="url(#pdace445891)" d="M270.793 212.818l.005-.014.002.002 10.976-13.648.002.002-10.975 13.648.002.002z" stroke="#000" id="patch_190"/><path clip-path="url(#pdace445891)" d="M275.731 246.731l-.01-.008.002-.002-14.855-21.562.002-.002 14.855 21.562.003-.001z" stroke="#000" id="patch_191"/><path clip-path="url(#pdace445891)" d="M273.299 243.2l.011.009-.002.001 14.855 21.563-.003.001-14.855-21.562-.002.002z" stroke="#000" id="patch_192"/><path clip-path="url(#pdace445891)" d="M278.781 230.106h-.014l.001-.002-17.9-4.945.001-.003 17.9 4.945v-.003z" stroke="#000" id="patch_193"/><path clip-path="url(#pdace445891)" d="M293.583 234.195l.014-.001-.001.003 17.9 4.944-.001.003-17.9-4.944v.003z" stroke="#000" id="patch_194"/><path clip-path="url(#pdace445891)" d="M292.561 190.757l-.007.012-.002-.003-10.774 8.395-.002-.003 10.774-8.394-.002-.002z" stroke="#000" id="patch_195"/><path clip-path="url(#pdace445891)" d="M300.885 184.272l.008-.012.002.002 10.773-8.394.002.002-10.774 8.395.002.002z" stroke="#000" id="patch_196"/><path clip-path="url(#pdace445891)" d="M295.119 217.11l-.012-.009.002-.001-13.333-17.94.002-.002 13.334 17.94.002-.002z" stroke="#000" id="patch_197"/><path clip-path="url(#pdace445891)" d="M298.154 221.193l.011.008-.002.002 13.333 17.939-.002.002-13.334-17.94-.002.002z" stroke="#000" id="patch_198"/><path clip-path="url(#pdace445891)" d="M302.265 210.024l-.014-.002.001-.003-20.475-10.858.001-.003 20.476 10.859.001-.003z" stroke="#000" id="patch_199"/><path clip-path="url(#pdace445891)" d="M306.178 212.1l.014.002-.001.003 20.476 10.858-.002.003-20.475-10.859-.002.003z" stroke="#000" id="patch_200"/><path clip-path="url(#pdace445891)" d="M321.7 167.02l-.008.012-.001-.002-10.02 8.84-.003-.002 10.02-8.84-.001-.003z" stroke="#000" id="patch_201"/><path clip-path="url(#pdace445891)" d="M325.508 163.66l.007-.012.002.002 10.02-8.84.002.002-10.02 8.84.002.002z" stroke="#000" id="patch_202"/><path clip-path="url(#pdace445891)" d="M319.872 201.63l-.008-.011.003-.001-8.2-25.748.004-.001 8.199 25.748h.003z" stroke="#000" id="patch_203"/><path clip-path="url(#pdace445891)" d="M318.463 197.203l.008.012h-.003l8.2 25.749h-.004l-8.199-25.748-.003.001z" stroke="#000" id="patch_204"/><path clip-path="url(#pdace445891)" d="M284.733 270.353l-.004.013-.002-.001L274.01 287.8l-.003-.001 10.716-17.437-.002-.001z" stroke="#000" id="patch_205"/><path clip-path="url(#pdace445891)" d="M277.438 282.221l.003-.013.003.001 10.716-17.436.003.001-10.716 17.437.002.001z" stroke="#000" id="patch_206"/><path clip-path="url(#pdace445891)" d="M301.102 250.559l-.006.013-.002-.002-12.932 14.205-.002-.002 12.932-14.205-.002-.002z" stroke="#000" id="patch_207"/><path clip-path="url(#pdace445891)" d="M298.554 253.357l.006-.012.002.002 12.932-14.205.002.002-12.932 14.205.003.002z" stroke="#000" id="patch_208"/><path clip-path="url(#pdace445891)" d="M319.475 230.633l-.006.013-.003-.002-7.97 8.5-.002-.002 7.97-8.5-.002-.002z" stroke="#000" id="patch_209"/><path clip-path="url(#pdace445891)" d="M318.686 231.474l.006-.013.002.002 7.97-8.5.003.002-7.97 8.5.002.002z" stroke="#000" id="patch_210"/><g id="matplotlib.axis_1"><g id="xtick_1"><g id="line2d_1"><defs><path d="M0 0v3.5" id="m82d9da32a1" stroke="#969696" stroke-width=".4"/></defs><use x="96.967" xlink:href="#m82d9da32a1" y="313.361" fill="#969696" stroke="#969696" stroke-width=".4"/></g><g transform="matrix(.14 0 0 -.14 85.08 330.41)" fill="#969696" id="text_1"><defs><path d="M54.594 21.578H4v7.328h50.594z" id="HelveticaWorld-Regular-8722"/><path d="M10.594 24.703h22.61v31.89h-.188zM42 17.093V0h-8.797v17.094H2.484v8.593L34.72 70.314H42v-45.61h10.297v-7.61z" id="HelveticaWorld-Regular-52"/><path d="M42.484 34.188q0 14.109-3.734 21.156-3.734 7.062-10.969 7.062-7.078 0-10.89-7.062-3.797-7.047-3.797-21.157 0-13.671 3.75-20.937Q20.609 6 27.78 6q7.235 0 10.969 7 3.734 7.016 3.734 21.188zm9.422 0q0-17.297-6.25-26.704-6.25-9.39-17.875-9.39-12.062 0-18.062 9.734-6 9.75-6 26.36 0 17.03 6.14 26.578 6.157 9.547 17.922 9.547 11.625 0 17.875-9.5t6.25-26.626z" id="HelveticaWorld-Regular-48"/></defs><use xlink:href="#HelveticaWorld-Regular-8722"/><use x="58.594" xlink:href="#HelveticaWorld-Regular-52"/><use x="114.209" xlink:href="#HelveticaWorld-Regular-48"/></g></g><g id="xtick_2"><use x="156.364" xlink:href="#m82d9da32a1" y="313.361" fill="#969696" stroke="#969696" stroke-width=".4" id="line2d_2"/><g transform="matrix(.14 0 0 -.14 144.477 330.41)" fill="#969696" id="text_2"><defs><path d="M4.39 45.125q0 12.39 6.391 18.781 6.406 6.407 17.938 6.407 9.656 0 15.812-5.86 6.157-5.86 6.157-15.14 0-7.22-3.547-12.188-3.532-4.953-10.422-8.703l-12.11-6.64Q13.922 15.921 12.5 8.296h38.188V0H2.593q.39 9.906 4.297 16.5 3.906 6.594 12.203 11.375l12.593 7.328q5.032 2.89 7.329 5.984 2.297 3.094 2.297 8.516 0 5.375-3.766 9.031-3.75 3.672-10.156 3.672-7.078 0-10.594-4.672-3.516-4.656-3.61-12.609z" id="HelveticaWorld-Regular-50"/></defs><use xlink:href="#HelveticaWorld-Regular-8722"/><use x="58.594" xlink:href="#HelveticaWorld-Regular-50"/><use x="114.209" xlink:href="#HelveticaWorld-Regular-48"/></g></g><g id="xtick_3"><use x="215.76" xlink:href="#m82d9da32a1" y="313.361" fill="#969696" stroke="#969696" stroke-width=".4" id="line2d_3"/><use xlink:href="#HelveticaWorld-Regular-48" transform="matrix(.14 0 0 -.14 211.868 330.41)" fill="#969696" id="text_3"/></g><g id="xtick_4"><use x="275.157" xlink:href="#m82d9da32a1" y="313.361" fill="#969696" stroke="#969696" stroke-width=".4" id="line2d_4"/><g transform="matrix(.14 0 0 -.14 267.371 330.41)" fill="#969696" id="text_4"><use xlink:href="#HelveticaWorld-Regular-50"/><use x="55.615" xlink:href="#HelveticaWorld-Regular-48"/></g></g><g id="xtick_5"><use x="334.553" xlink:href="#m82d9da32a1" y="313.361" fill="#969696" stroke="#969696" stroke-width=".4" id="line2d_5"/><g transform="matrix(.14 0 0 -.14 326.768 330.41)" fill="#969696" id="text_5"><use xlink:href="#HelveticaWorld-Regular-52"/><use x="55.615" xlink:href="#HelveticaWorld-Regular-48"/></g></g><g transform="matrix(.14 0 0 -.14 192.357 347.359)" fill="#969696" id="text_6"><defs><path d="M38.375 26.703q-.969-1.015-3.828-1.656-2.86-.625-10.672-1.656-5.766-.688-8.469-2.844-2.703-2.14-2.703-5.656 0-4.297 2.281-6.688 2.297-2.39 7.329-2.39 6.296 0 11.171 3.578 4.891 3.593 4.891 8.718zM6.203 36.375q.297 8.844 5.734 13.14 5.454 4.297 15.844 4.297 8.297 0 13.907-3.765 5.624-3.75 5.624-10.844V9.078Q47.313 6 50.094 6q1.125 0 2.89.39V0Q50.594-.984 48-.984q-4.5 0-6.703 1.921-2.188 1.938-2.281 6.047-7.516-8.5-18.891-8.5-7.422 0-11.922 4.204Q3.72 6.89 3.72 13.624q0 6.89 3.906 11.125Q11.531 29 19 29.89l15.516 1.891q4.203.64 4.203 6.203 0 4.11-3.047 6.297-3.047 2.203-9.25 2.203-5.516 0-8.485-2.437-2.953-2.438-3.53-7.672z" id="HelveticaWorld-Regular-97"/><path d="M5.906 64.594l10.5-3.797V71.78h6V60.797l10.5 3.797 2-5.516-10.781-3.36 6.688-9.234-4.938-3.375-6.484 9.375-6.5-9.375-4.875 3.375 6.687 9.235-10.797 3.36z" id="HelveticaWorld-Regular-42"/></defs><use xlink:href="#HelveticaWorld-Regular-97"/><use x="54.932" xlink:href="#HelveticaWorld-Regular-42"/></g></g><g id="matplotlib.axis_2"><g id="ytick_1"><g id="line2d_6"><defs><path d="M0 0h-3.5" id="m406755a612" stroke="#969696" stroke-width=".3"/></defs><use x="48.653" xlink:href="#m406755a612" y="312.349" fill="#969696" stroke="#969696" stroke-width=".3"/></g><g transform="matrix(.14 0 0 -.14 17.88 317.373)" fill="#969696" id="text_7"><defs><path d="M22.406 39.984q2.203-.187 4.594-.187 6.203 0 9.781 2.86 3.594 2.859 3.594 8.656 0 4.687-3.344 7.89-3.343 3.203-9.64 3.203-6.985 0-10.235-4.11-3.234-4.093-3.437-10.983h-8.64q0 10.984 5.765 16.984 5.765 6.016 16.937 6.016 9.922 0 15.828-5.11 5.907-5.094 5.907-13.39 0-10.704-9.032-14.5v-.204q11.72-4 11.72-16.406 0-9.906-6.595-16.265-6.593-6.344-18.703-6.344-9.906 0-16.312 5.203Q4.204 8.5 3.422 21.484H12.5q.203-8.109 4-11.797Q20.313 6 27.484 6q6.938 0 11.141 3.86 4.203 3.859 4.203 9.718 0 6.406-4.016 9.672-4 3.266-12.39 3.266-2 0-4.016-.094z" id="HelveticaWorld-Regular-51"/></defs><use xlink:href="#HelveticaWorld-Regular-8722"/><use x="58.594" xlink:href="#HelveticaWorld-Regular-51"/><use x="114.209" xlink:href="#HelveticaWorld-Regular-48"/></g></g><g id="ytick_2"><use x="48.653" xlink:href="#m406755a612" y="282.65" fill="#969696" stroke="#969696" stroke-width=".3" id="line2d_7"/><g transform="matrix(.14 0 0 -.14 17.88 287.675)" fill="#969696" id="text_8"><use xlink:href="#HelveticaWorld-Regular-8722"/><use x="58.594" xlink:href="#HelveticaWorld-Regular-50"/><use x="114.209" xlink:href="#HelveticaWorld-Regular-48"/></g></g><g id="ytick_3"><use x="48.653" xlink:href="#m406755a612" y="252.952" fill="#969696" stroke="#969696" stroke-width=".3" id="line2d_8"/><g transform="matrix(.14 0 0 -.14 17.88 257.977)" fill="#969696" id="text_9"><defs><path d="M35.89 0h-9.374v49.906H10.109v6.985q8.594.28 12.782 2.75Q27.094 62.109 29 70.313h6.89z" id="HelveticaWorld-Regular-49"/></defs><use xlink:href="#HelveticaWorld-Regular-8722"/><use x="58.594" xlink:href="#HelveticaWorld-Regular-49"/><use x="114.209" xlink:href="#HelveticaWorld-Regular-48"/></g></g><g id="ytick_4"><use x="48.653" xlink:href="#m406755a612" y="223.254" fill="#969696" stroke="#969696" stroke-width=".3" id="line2d_9"/><use xlink:href="#HelveticaWorld-Regular-48" transform="matrix(.14 0 0 -.14 33.868 228.279)" fill="#969696" id="text_10"/></g><g id="ytick_5"><use x="48.653" xlink:href="#m406755a612" y="193.556" fill="#969696" stroke="#969696" stroke-width=".3" id="line2d_10"/><g transform="matrix(.14 0 0 -.14 26.083 198.58)" fill="#969696" id="text_11"><use xlink:href="#HelveticaWorld-Regular-49"/><use x="55.615" xlink:href="#HelveticaWorld-Regular-48"/></g></g><g id="ytick_6"><use x="48.653" xlink:href="#m406755a612" y="163.857" fill="#969696" stroke="#969696" stroke-width=".3" id="line2d_11"/><g transform="matrix(.14 0 0 -.14 26.083 168.882)" fill="#969696" id="text_12"><use xlink:href="#HelveticaWorld-Regular-50"/><use x="55.615" xlink:href="#HelveticaWorld-Regular-48"/></g></g><g id="ytick_7"><use x="48.653" xlink:href="#m406755a612" y="134.159" fill="#969696" stroke="#969696" stroke-width=".3" id="line2d_12"/><g transform="matrix(.14 0 0 -.14 26.083 139.184)" fill="#969696" id="text_13"><use xlink:href="#HelveticaWorld-Regular-51"/><use x="55.615" xlink:href="#HelveticaWorld-Regular-48"/></g></g><g id="ytick_8"><use x="48.653" xlink:href="#m406755a612" y="104.461" fill="#969696" stroke="#969696" stroke-width=".3" id="line2d_13"/><g transform="matrix(.14 0 0 -.14 26.083 109.486)" fill="#969696" id="text_14"><use xlink:href="#HelveticaWorld-Regular-52"/><use x="55.615" xlink:href="#HelveticaWorld-Regular-48"/></g></g><g id="ytick_9"><use x="48.653" xlink:href="#m406755a612" y="74.763" fill="#969696" stroke="#969696" stroke-width=".3" id="line2d_14"/><g transform="matrix(.14 0 0 -.14 26.083 79.787)" fill="#969696" id="text_15"><defs><path d="M14.703 40.922q5.813 4.39 13.625 4.39 9.469 0 16.281-6.296 6.813-6.297 6.813-16.22 0-10.78-6.578-17.796-6.563-7-18.422-7-10.313 0-16.266 5.047Q4.203 8.109 3.22 17.39h9.094q.671-5.672 4.437-8.672 3.766-3 10.453-3 6.485 0 10.64 4.484Q42 14.703 42 21.688q0 7.125-4.36 11.421-4.343 4.297-11.218 4.297-7.813 0-13.047-6.687l-7.563.39 5.266 37.594h36.438v-8.5H17.672z" id="HelveticaWorld-Regular-53"/></defs><use xlink:href="#HelveticaWorld-Regular-53"/><use x="55.615" xlink:href="#HelveticaWorld-Regular-48"/></g></g><g transform="matrix(.14 0 0 -.14 7.2 177.407)" fill="#969696" id="text_16"><defs><path d="M43.406 26.313q0 10.5-3.718 15.046-3.704 4.547-10.579 4.547-6.984-.11-10.562-5.453Q14.984 35.11 14.984 25q0-10.297 4.297-14.594Q23.578 6.11 29.297 6.11q6.5 0 10.297 5.344 3.812 5.344 3.812 14.86zM6.594 0v71.781h8.781V45.703h.203q5.61 8.11 15.14 8.11 9.766 0 15.766-7.25t6-18.876q0-13.093-6.062-21.156Q40.375-1.516 29.5-1.516q-9.578 0-14.406 8.016h-.203V0z" id="HelveticaWorld-Regular-98"/></defs><use xlink:href="#HelveticaWorld-Regular-98"/><use x="56.494" xlink:href="#HelveticaWorld-Regular-42"/></g></g><g transform="matrix(.14 0 0 -.14 53.835 17.25)" fill="#969696" id="text_17"><defs><path d="M67.484 0v42.39q0 .829.094 8.126t.094 9.78h-.281L47.312 0h-9.609L17.578 60.203h-.297q0-3.61.094-10.297.11-6.687.11-7.515V0H8.108v71.781h13.86L42.39 11.078h.28l20.313 60.703h13.922V0z" id="HelveticaWorld-Regular-77"/><path d="M39.594 34.719q-1.89 11.187-12.39 11.187-6.5 0-10.454-5.203-3.953-5.203-3.953-14.484 0-10.11 3.656-15.11 3.672-5 10.64-5 4.688 0 8.11 3.438 3.422 3.437 4.39 8.953h8.5q-1.312-9.703-6.859-14.86-5.547-5.156-14.328-5.156-10.297 0-16.89 7.047-6.594 7.063-6.594 19.172 0 13.281 6.594 21.188 6.593 7.922 18.5 7.922 8.687 0 13.843-5.204 5.157-5.203 5.735-13.89z" id="HelveticaWorld-Regular-99"/><path d="M44 29.5L33.406 61.078h-.203L21.687 29.5zm-25.297-8.594L11.188 0h-9.97l27 71.781h10.985L65.187 0H54.594l-7.078 20.906z" id="HelveticaWorld-Regular-65"/><path d="M13.094 26.313q0-9.704 3.844-14.954 3.859-5.25 10.265-5.25 6.094 0 10.188 4.485 4.109 4.5 4.109 13.094 0 11.03-3.5 16.625-3.484 5.593-10.61 5.593-6.78 0-10.546-4.453-3.75-4.437-3.75-15.14zM50.39 0h-8.297v7.172h-.203q-4.97-8.688-15.078-8.688-10.891 0-16.86 8.297Q4 15.094 4 27.688q0 11.625 5.906 18.875 5.922 7.25 15.875 7.25 9.813 0 15.625-8.891l.203.594V71.78h8.782z" id="HelveticaWorld-Regular-100"/><path d="M6.594 52.297h8.297v-7.375h.203q5.906 8.89 15.812 8.89 9.813 0 13.922-8.5 3.75 4.594 7.266 6.547 3.515 1.953 8.703 1.953 6.781 0 11.484-4.453Q77 44.922 77 36.187V0h-8.781v33.797q0 6.094-2.297 9.094-2.297 3.015-7.422 3.015-5.172 0-8.75-4.203-3.563-4.203-3.563-9.812V0h-8.78v36.188q0 4.53-2.11 7.124-2.094 2.594-6.094 2.594-6.297 0-10.062-4.687-3.766-4.688-3.766-12.703V0H6.594z" id="HelveticaWorld-Regular-109"/><path d="M27.594 31.39q6 0 9.75 4.047 3.765 4.063 3.765 11.97 0 6.5-3.562 10.75-3.563 4.25-10.64 4.25-6.11 0-9.876-4.298-3.75-4.297-3.75-11.53 0-7.376 3.516-11.282 3.515-3.906 10.797-3.906zm-1.282-7.906q-10 0-16.062 6.203-6.047 6.204-6.047 16.5 0 10.407 6.094 17.266 6.11 6.86 16.515 6.86 12.11 0 18.36-8.157 6.25-8.156 6.25-24.453 0-16.906-6.406-28.266Q38.625-1.905 25.875-1.905q-9.953 0-15.422 5.593-5.469 5.594-5.469 13.204h8.829q.39-5.266 3.437-8.375 3.063-3.094 8.438-3.094 7.609 0 11.515 6.781Q41.11 19 42.578 31.688l-.187.203q-5.672-8.407-16.078-8.407z" id="HelveticaWorld-Regular-57"/><path d="M3.719 68.797h48.578v-7.719Q42.28 50.875 33.984 33.484 25.687 16.11 23.391 0h-9.672q1.469 13.281 9.719 30.531 8.25 17.266 18.953 29.672H3.719z" id="HelveticaWorld-Regular-55"/><path d="M12.703 26.219q0-8.735 3.953-14.375 3.953-5.64 11.219-5.64 7.531 0 11.438 5.905 3.906 5.907 3.906 14.11 0 8.297-3.907 14.078-3.906 5.797-11.437 5.797-6.969 0-11.078-5.453-4.094-5.438-4.094-14.422zm-8.984 0q0 11.672 6.484 19.625 6.5 7.968 17.672 7.968 11.438 0 17.875-8.062 6.453-8.047 6.453-19.531 0-11.516-6.406-19.625-6.39-8.11-17.922-8.11-11.078 0-17.625 7.86-6.531 7.86-6.531 19.875z" id="HelveticaWorld-Regular-111"/><path d="M15.375 0H6.594v71.781h8.781z" id="HelveticaWorld-Regular-108"/><path d="M15.375 0H6.594v52.297h8.297v-8.688h.203q5.703 10.203 14.687 10.203 1.422 0 2.297-.296V44.39h-3.266q-5.906 0-9.671-4.016-3.766-4-3.766-9.953z" id="HelveticaWorld-Regular-114"/><path d="M6.594 61.813v9.968h8.781v-9.969zM15.375 0H6.594v52.297h8.781z" id="HelveticaWorld-Regular-105"/><path d="M36.078 37.406q-.187 4.688-3.344 6.735-3.14 2.047-9.047 2.047-4.296 0-7.359-1.907-3.047-1.89-3.047-5.468 0-2.829 1.797-4.172 1.813-1.344 7.828-2.86l8.688-2.187q7.906-2 11.297-5.11 3.406-3.093 3.406-8.656 0-7.719-5.64-12.531-5.641-4.813-15.063-4.813-11 0-16.64 4.563-5.626 4.578-5.735 13.75h8.5q.203-5.422 3.594-8.063 3.39-2.625 10.171-2.625 5.516 0 8.766 2.188 3.25 2.203 3.25 6.11 0 2.78-2.11 4.437-2.093 1.672-8.296 3.078l-10.203 2.5q-6.203 1.562-9.157 4.656-2.953 3.094-2.953 8.031 0 7.72 5.516 12.203 5.531 4.5 14.406 4.5 9.485 0 14.531-4.624 5.047-4.61 5.344-11.782z" id="HelveticaWorld-Regular-115"/><path d="M17.188 45.016V10.984q0-2 1.093-3.046 1.11-1.047 3.938-1.047h3.375V0Q20.797-.688 19-.688q-5.516 0-8.063 2.641-2.53 2.64-2.53 8.547v34.516H1.311v7.28h7.094v14.595h8.781V52.297h8.407v-7.281z" id="HelveticaWorld-Regular-116"/><path d="M49.219 0h-8.844v32.172q0 7.422-2.594 10.578-2.578 3.156-8.578 3.156-5.906 0-9.875-4.5-3.953-4.484-3.953-12.89V0H6.594v52.297h8.297v-7.375h.203q6.203 8.89 15.812 8.89 8.89 0 13.594-4.718 4.719-4.703 4.719-13.5z" id="HelveticaWorld-Regular-110"/><path d="M42.484 30.328q-.687 8.485-4.5 12.031-3.797 3.547-10.109 3.547-6.39 0-10.328-4.5-3.922-4.484-4.172-11.078zm8.391-13.922q-1.453-8.11-7.953-13.422-5.719-4.5-15.047-4.593-10.984.093-17.438 7.203Q4 12.704 4 24.704q0 13.78 6.64 21.437 6.641 7.672 18.47 7.672 10.593 0 16.546-7.922 5.953-7.907 5.953-22.594H13.375q0-8.203 3.813-12.703Q21 6.109 28.608 6.109q5.375 0 9.235 3.235 3.86 3.25 4.25 7.062z" id="HelveticaWorld-Regular-101"/><path d="M17.188 45.016V0H8.405v45.016H1.22v7.28h7.187v8.985q0 5.907 3.578 8.703 3.594 2.813 10.032 2.813 2.203 0 3.968-.188v-7.906q-1.562.188-3.578.188-2.922 0-4.078-1.438-1.14-1.437-1.14-4.656v-6.5h8.796v-7.281z" id="HelveticaWorld-Regular-102"/><path d="M58.016 50.203q-1.625 7.313-6.782 11.094-5.14 3.797-13.343 3.797-10.594 0-17.047-7.703-6.438-7.688-6.438-20.766 0-15.14 6.094-22.547 6.11-7.39 17.688-7.39 7.609 0 13.093 5.046 5.5 5.063 7.407 14.688h9.421Q66.22 12.594 57.625 5.344t-20.906-7.25q-14.703 0-23.516 10.11Q4.391 18.311 4.391 36.28q0 17.328 9.203 27.36 9.203 10.047 24.297 10.047 12.5 0 20.265-6.454 7.766-6.437 9.235-17.03z" id="HelveticaWorld-Regular-67"/><path d="M17.828 0H8.11v71.781h9.72z" id="HelveticaWorld-Regular-73"/><path d="M61.078 0H8.11v71.781h52.297v-8.594H17.828V41.22h39.25v-8.594h-39.25V8.594h43.25z" id="HelveticaWorld-Regular-69"/><path d="M17.672 8.594h36.531V0H8.11v71.781h9.563z" id="HelveticaWorld-Regular-76"/><path d="M8.11 71.781h31.484q9.281 0 14.797-5.031 5.515-5.031 5.515-13.031 0-4.844-2.422-8.828-2.406-3.97-7.187-6.172 6.687-2.532 9.828-6.735 3.156-4.203 3.156-10.797 0-9.265-6.687-15.234Q49.906 0 38.922 0H8.109zm9.562-63.484h20.703q7.625 0 11.422 3.531 3.812 3.547 3.812 9.563 0 6.093-4.25 9.093Q45.125 33.5 36.812 33.5h-19.14zm0 33.11h17.625q7.719 0 11.312 2.796 3.594 2.813 3.594 8.781 0 5.125-3.406 7.813-3.39 2.687-11.39 2.687H17.671z" id="HelveticaWorld-Regular-66"/></defs><use xlink:href="#HelveticaWorld-Regular-77"/><use x="85.01" xlink:href="#HelveticaWorld-Regular-97"/><use x="139.941" xlink:href="#HelveticaWorld-Regular-99"/><use x="191.211" xlink:href="#HelveticaWorld-Regular-65"/><use x="256.41" xlink:href="#HelveticaWorld-Regular-100"/><use x="313.393" xlink:href="#HelveticaWorld-Regular-97"/><use x="368.324" xlink:href="#HelveticaWorld-Regular-109"/><use x="451.332" xlink:href="#HelveticaWorld-Regular-32"/><use x="475.746" xlink:href="#HelveticaWorld-Regular-49"/><use x="531.361" xlink:href="#HelveticaWorld-Regular-57"/><use x="586.977" xlink:href="#HelveticaWorld-Regular-55"/><use x="642.592" xlink:href="#HelveticaWorld-Regular-52"/><use x="698.207" xlink:href="#HelveticaWorld-Regular-32"/><use x="722.621" xlink:href="#HelveticaWorld-Regular-99"/><use x="773.891" xlink:href="#HelveticaWorld-Regular-111"/><use x="829.799" xlink:href="#HelveticaWorld-Regular-108"/><use x="851.82" xlink:href="#HelveticaWorld-Regular-111"/><use x="907.729" xlink:href="#HelveticaWorld-Regular-114"/><use x="940.297" xlink:href="#HelveticaWorld-Regular-32"/><use x="964.711" xlink:href="#HelveticaWorld-Regular-100"/><use x="1021.693" xlink:href="#HelveticaWorld-Regular-105"/><use x="1043.715" xlink:href="#HelveticaWorld-Regular-115"/><use x="1093.715" xlink:href="#HelveticaWorld-Regular-116"/><use x="1121.4" xlink:href="#HelveticaWorld-Regular-97"/><use x="1176.332" xlink:href="#HelveticaWorld-Regular-110"/><use x="1231.508" xlink:href="#HelveticaWorld-Regular-99"/><use x="1282.777" xlink:href="#HelveticaWorld-Regular-101"/><use x="1338.197" xlink:href="#HelveticaWorld-Regular-32"/><use x="1362.611" xlink:href="#HelveticaWorld-Regular-100"/><use x="1419.594" xlink:href="#HelveticaWorld-Regular-97"/><use x="1474.525" xlink:href="#HelveticaWorld-Regular-116"/><use x="1502.211" xlink:href="#HelveticaWorld-Regular-97"/><use x="1557.143" xlink:href="#HelveticaWorld-Regular-32"/><use x="1581.557" xlink:href="#HelveticaWorld-Regular-102"/><use x="1607.242" xlink:href="#HelveticaWorld-Regular-111"/><use x="1663.15" xlink:href="#HelveticaWorld-Regular-114"/><use x="1695.719" xlink:href="#HelveticaWorld-Regular-32"/><use x="1720.133" xlink:href="#HelveticaWorld-Regular-67"/><use x="1792.447" xlink:href="#HelveticaWorld-Regular-73"/><use x="1818.229" xlink:href="#HelveticaWorld-Regular-69"/><use x="1883.219" xlink:href="#HelveticaWorld-Regular-76"/><use x="1938.834" xlink:href="#HelveticaWorld-Regular-65"/><use x="2005.533" xlink:href="#HelveticaWorld-Regular-66"/></g></g></g><defs><clipPath id="pdace445891"><path d="M48.653 47.249h300.548v266.112H48.653z"/></clipPath></defs></svg>