<svg height="476.799" viewBox="0 0 319.734 357.599" width="426.313" xmlns="http://www.w3.org/2000/svg" xmlns:xlink="http://www.w3.org/1999/xlink"><defs><style>*{stroke-linecap:butt;stroke-linejoin:round}</style></defs><g id="figure_1"><path d="M0 357.6h319.734V0H0z" fill="none" id="patch_1"/><g id="axes_1"><path d="M48.918 313.504h247.821V47.392H48.918z" fill="none" id="patch_2"/><g id="PathCollection_1"><defs><path d="M0 3a3 3 0 100-6 3 3 0 000 6z" id="m780254393f" stroke="#969696"/></defs><g clip-path="url(#p4cb472f5c2)" fill="#969696" stroke="#969696"><use x="126.448" xlink:href="#m780254393f" y="47.656"/><use x="110.563" xlink:href="#m780254393f" y="106.848"/><use x="126.448" xlink:href="#m780254393f" y="47.656"/><use x="159.165" xlink:href="#m780254393f" y="96.163"/><use x="110.563" xlink:href="#m780254393f" y="106.848"/><use x="159.165" xlink:href="#m780254393f" y="96.163"/><use x="110.563" xlink:href="#m780254393f" y="106.848"/><use x="79.832" xlink:href="#m780254393f" y="157.152"/><use x="110.563" xlink:href="#m780254393f" y="106.848"/><use x="118.789" xlink:href="#m780254393f" y="147.318"/><use x="159.165" xlink:href="#m780254393f" y="96.163"/><use x="204.835" xlink:href="#m780254393f" y="96.352"/><use x="159.165" xlink:href="#m780254393f" y="96.163"/><use x="118.789" xlink:href="#m780254393f" y="147.318"/><use x="159.165" xlink:href="#m780254393f" y="96.163"/><use x="167.107" xlink:href="#m780254393f" y="136.066"/><use x="204.835" xlink:href="#m780254393f" y="96.352"/><use x="167.107" xlink:href="#m780254393f" y="136.066"/><use x="204.835" xlink:href="#m780254393f" y="96.352"/><use x="203.322" xlink:href="#m780254393f" y="133.324"/><use x="79.832" xlink:href="#m780254393f" y="157.152"/><use x="118.789" xlink:href="#m780254393f" y="147.318"/><use x="79.832" xlink:href="#m780254393f" y="157.152"/><use x="56.098" xlink:href="#m780254393f" y="214.075"/><use x="79.832" xlink:href="#m780254393f" y="157.152"/><use x="91.179" xlink:href="#m780254393f" y="201.499"/><use x="118.789" xlink:href="#m780254393f" y="147.318"/><use x="167.107" xlink:href="#m780254393f" y="136.066"/><use x="118.789" xlink:href="#m780254393f" y="147.318"/><use x="91.179" xlink:href="#m780254393f" y="201.499"/><use x="118.789" xlink:href="#m780254393f" y="147.318"/><use x="130.136" xlink:href="#m780254393f" y="187.978"/><use x="167.107" xlink:href="#m780254393f" y="136.066"/><use x="203.322" xlink:href="#m780254393f" y="133.324"/><use x="167.107" xlink:href="#m780254393f" y="136.066"/><use x="130.136" xlink:href="#m780254393f" y="187.978"/><use x="167.107" xlink:href="#m780254393f" y="136.066"/><use x="173.348" xlink:href="#m780254393f" y="174.267"/><use x="203.322" xlink:href="#m780254393f" y="133.324"/><use x="254.005" xlink:href="#m780254393f" y="124.909"/><use x="203.322" xlink:href="#m780254393f" y="133.324"/><use x="173.348" xlink:href="#m780254393f" y="174.267"/><use x="203.322" xlink:href="#m780254393f" y="133.324"/><use x="212.022" xlink:href="#m780254393f" y="165.946"/><use x="254.005" xlink:href="#m780254393f" y="124.909"/><use x="212.022" xlink:href="#m780254393f" y="165.946"/><use x="254.005" xlink:href="#m780254393f" y="124.909"/><use x="254.572" xlink:href="#m780254393f" y="159.989"/><use x="56.098" xlink:href="#m780254393f" y="214.075"/><use x="91.179" xlink:href="#m780254393f" y="201.499"/><use x="56.098" xlink:href="#m780254393f" y="214.075"/><use x="49.385" xlink:href="#m780254393f" y="255.396"/><use x="56.098" xlink:href="#m780254393f" y="214.075"/><use x="70.754" xlink:href="#m780254393f" y="246.319"/><use x="91.179" xlink:href="#m780254393f" y="201.499"/><use x="130.136" xlink:href="#m780254393f" y="187.978"/><use x="91.179" xlink:href="#m780254393f" y="201.499"/><use x="70.754" xlink:href="#m780254393f" y="246.319"/><use x="91.179" xlink:href="#m780254393f" y="201.499"/><use x="102.147" xlink:href="#m780254393f" y="236.201"/><use x="130.136" xlink:href="#m780254393f" y="187.978"/><use x="173.348" xlink:href="#m780254393f" y="174.267"/><use x="130.136" xlink:href="#m780254393f" y="187.978"/><use x="102.147" xlink:href="#m780254393f" y="236.201"/><use x="130.136" xlink:href="#m780254393f" y="187.978"/><use x="138.457" xlink:href="#m780254393f" y="220.505"/><use x="173.348" xlink:href="#m780254393f" y="174.267"/><use x="212.022" xlink:href="#m780254393f" y="165.946"/><use x="173.348" xlink:href="#m780254393f" y="174.267"/><use x="138.457" xlink:href="#m780254393f" y="220.505"/><use x="173.348" xlink:href="#m780254393f" y="174.267"/><use x="174.388" xlink:href="#m780254393f" y="209.158"/><use x="212.022" xlink:href="#m780254393f" y="165.946"/><use x="254.572" xlink:href="#m780254393f" y="159.989"/><use x="212.022" xlink:href="#m780254393f" y="165.946"/><use x="174.388" xlink:href="#m780254393f" y="209.158"/><use x="212.022" xlink:href="#m780254393f" y="165.946"/><use x="216.088" xlink:href="#m780254393f" y="196.299"/><use x="254.572" xlink:href="#m780254393f" y="159.989"/><use x="288.423" xlink:href="#m780254393f" y="160.273"/><use x="254.572" xlink:href="#m780254393f" y="159.989"/><use x="216.088" xlink:href="#m780254393f" y="196.299"/><use x="254.572" xlink:href="#m780254393f" y="159.989"/><use x="253.059" xlink:href="#m780254393f" y="192.138"/><use x="288.423" xlink:href="#m780254393f" y="160.273"/><use x="253.059" xlink:href="#m780254393f" y="192.138"/><use x="288.423" xlink:href="#m780254393f" y="160.273"/><use x="296.271" xlink:href="#m780254393f" y="183.723"/><use x="49.385" xlink:href="#m780254393f" y="255.396"/><use x="70.754" xlink:href="#m780254393f" y="246.319"/><use x="49.385" xlink:href="#m780254393f" y="255.396"/><use x="55.342" xlink:href="#m780254393f" y="289.437"/><use x="70.754" xlink:href="#m780254393f" y="246.319"/><use x="102.147" xlink:href="#m780254393f" y="236.201"/><use x="70.754" xlink:href="#m780254393f" y="246.319"/><use x="55.342" xlink:href="#m780254393f" y="289.437"/><use x="70.754" xlink:href="#m780254393f" y="246.319"/><use x="83.047" xlink:href="#m780254393f" y="275.253"/><use x="102.147" xlink:href="#m780254393f" y="236.201"/><use x="138.457" xlink:href="#m780254393f" y="220.505"/><use x="102.147" xlink:href="#m780254393f" y="236.201"/><use x="83.047" xlink:href="#m780254393f" y="275.253"/><use x="102.147" xlink:href="#m780254393f" y="236.201"/><use x="115.763" xlink:href="#m780254393f" y="257.855"/><use x="138.457" xlink:href="#m780254393f" y="220.505"/><use x="174.388" xlink:href="#m780254393f" y="209.158"/><use x="138.457" xlink:href="#m780254393f" y="220.505"/><use x="115.763" xlink:href="#m780254393f" y="257.855"/><use x="138.457" xlink:href="#m780254393f" y="220.505"/><use x="147.44" xlink:href="#m780254393f" y="243.577"/><use x="174.388" xlink:href="#m780254393f" y="209.158"/><use x="216.088" xlink:href="#m780254393f" y="196.299"/><use x="174.388" xlink:href="#m780254393f" y="209.158"/><use x="147.44" xlink:href="#m780254393f" y="243.577"/><use x="174.388" xlink:href="#m780254393f" y="209.158"/><use x="184.884" xlink:href="#m780254393f" y="232.703"/><use x="216.088" xlink:href="#m780254393f" y="196.299"/><use x="253.059" xlink:href="#m780254393f" y="192.138"/><use x="216.088" xlink:href="#m780254393f" y="196.299"/><use x="184.884" xlink:href="#m780254393f" y="232.703"/><use x="216.088" xlink:href="#m780254393f" y="196.299"/><use x="218.168" xlink:href="#m780254393f" y="221.829"/><use x="253.059" xlink:href="#m780254393f" y="192.138"/><use x="296.271" xlink:href="#m780254393f" y="183.723"/><use x="253.059" xlink:href="#m780254393f" y="192.138"/><use x="218.168" xlink:href="#m780254393f" y="221.829"/><use x="253.059" xlink:href="#m780254393f" y="192.138"/><use x="265.257" xlink:href="#m780254393f" y="215.494"/><use x="296.271" xlink:href="#m780254393f" y="183.723"/><use x="265.257" xlink:href="#m780254393f" y="215.494"/><use x="296.271" xlink:href="#m780254393f" y="183.723"/><use x="291.827" xlink:href="#m780254393f" y="214.359"/><use x="55.342" xlink:href="#m780254393f" y="289.437"/><use x="83.047" xlink:href="#m780254393f" y="275.253"/><use x="55.342" xlink:href="#m780254393f" y="289.437"/><use x="69.62" xlink:href="#m780254393f" y="311.752"/><use x="83.047" xlink:href="#m780254393f" y="275.253"/><use x="115.763" xlink:href="#m780254393f" y="257.855"/><use x="83.047" xlink:href="#m780254393f" y="275.253"/><use x="69.62" xlink:href="#m780254393f" y="311.752"/><use x="83.047" xlink:href="#m780254393f" y="275.253"/><use x="95.906" xlink:href="#m780254393f" y="293.313"/><use x="115.763" xlink:href="#m780254393f" y="257.855"/><use x="147.44" xlink:href="#m780254393f" y="243.577"/><use x="115.763" xlink:href="#m780254393f" y="257.855"/><use x="95.906" xlink:href="#m780254393f" y="293.313"/><use x="115.763" xlink:href="#m780254393f" y="257.855"/><use x="121.153" xlink:href="#m780254393f" y="279.508"/><use x="147.44" xlink:href="#m780254393f" y="243.577"/><use x="184.884" xlink:href="#m780254393f" y="232.703"/><use x="147.44" xlink:href="#m780254393f" y="243.577"/><use x="121.153" xlink:href="#m780254393f" y="279.508"/><use x="147.44" xlink:href="#m780254393f" y="243.577"/><use x="153.491" xlink:href="#m780254393f" y="263.15"/><use x="184.884" xlink:href="#m780254393f" y="232.703"/><use x="218.168" xlink:href="#m780254393f" y="221.829"/><use x="184.884" xlink:href="#m780254393f" y="232.703"/><use x="153.491" xlink:href="#m780254393f" y="263.15"/><use x="184.884" xlink:href="#m780254393f" y="232.703"/><use x="189.517" xlink:href="#m780254393f" y="250.007"/><use x="218.168" xlink:href="#m780254393f" y="221.829"/><use x="265.257" xlink:href="#m780254393f" y="215.494"/><use x="218.168" xlink:href="#m780254393f" y="221.829"/><use x="189.517" xlink:href="#m780254393f" y="250.007"/><use x="218.168" xlink:href="#m780254393f" y="221.829"/><use x="228.474" xlink:href="#m780254393f" y="243.955"/><use x="265.257" xlink:href="#m780254393f" y="215.494"/><use x="291.827" xlink:href="#m780254393f" y="214.359"/><use x="265.257" xlink:href="#m780254393f" y="215.494"/><use x="228.474" xlink:href="#m780254393f" y="243.955"/><use x="265.257" xlink:href="#m780254393f" y="215.494"/><use x="262.137" xlink:href="#m780254393f" y="239.511"/><use x="291.827" xlink:href="#m780254393f" y="214.359"/><use x="262.137" xlink:href="#m780254393f" y="239.511"/><use x="69.62" xlink:href="#m780254393f" y="311.752"/><use x="95.906" xlink:href="#m780254393f" y="293.313"/><use x="95.906" xlink:href="#m780254393f" y="293.313"/><use x="121.153" xlink:href="#m780254393f" y="279.508"/><use x="95.906" xlink:href="#m780254393f" y="293.313"/><use x="109.239" xlink:href="#m780254393f" y="313.076"/><use x="121.153" xlink:href="#m780254393f" y="279.508"/><use x="153.491" xlink:href="#m780254393f" y="263.15"/><use x="121.153" xlink:href="#m780254393f" y="279.508"/><use x="109.239" xlink:href="#m780254393f" y="313.076"/><use x="121.153" xlink:href="#m780254393f" y="279.508"/><use x="136.377" xlink:href="#m780254393f" y="300.311"/><use x="153.491" xlink:href="#m780254393f" y="263.15"/><use x="189.517" xlink:href="#m780254393f" y="250.007"/><use x="153.491" xlink:href="#m780254393f" y="263.15"/><use x="136.377" xlink:href="#m780254393f" y="300.311"/><use x="153.491" xlink:href="#m780254393f" y="263.15"/><use x="172.686" xlink:href="#m780254393f" y="288.018"/><use x="189.517" xlink:href="#m780254393f" y="250.007"/><use x="228.474" xlink:href="#m780254393f" y="243.955"/><use x="189.517" xlink:href="#m780254393f" y="250.007"/><use x="172.686" xlink:href="#m780254393f" y="288.018"/><use x="189.517" xlink:href="#m780254393f" y="250.007"/><use x="196.987" xlink:href="#m780254393f" y="281.399"/><use x="228.474" xlink:href="#m780254393f" y="243.955"/><use x="262.137" xlink:href="#m780254393f" y="239.511"/><use x="228.474" xlink:href="#m780254393f" y="243.955"/><use x="196.987" xlink:href="#m780254393f" y="281.399"/><use x="109.239" xlink:href="#m780254393f" y="313.076"/><use x="136.377" xlink:href="#m780254393f" y="300.311"/><use x="136.377" xlink:href="#m780254393f" y="300.311"/><use x="172.686" xlink:href="#m780254393f" y="288.018"/><use x="172.686" xlink:href="#m780254393f" y="288.018"/><use x="196.987" xlink:href="#m780254393f" y="281.399"/></g></g><path clip-path="url(#p4cb472f5c2)" d="M121.232 67.091l-.267-4.477.914.245 4.112-15.326.914.245-4.113 15.326.913.245z" fill="#969696" stroke="#969696" id="patch_3"/><path clip-path="url(#p4cb472f5c2)" d="M115.778 87.413l.267 4.477-.913-.245-4.113 15.326-.913-.245 4.113-15.326-.913-.245z" fill="#969696" stroke="#969696" id="patch_4"/><path clip-path="url(#p4cb472f5c2)" d="M138.95 66.191l-3.556-2.734.784-.529-10.122-15.008.784-.528 10.122 15.007.784-.528z" fill="#969696" stroke="#969696" id="patch_5"/><path clip-path="url(#p4cb472f5c2)" d="M146.663 77.628l3.555 2.734-.784.53 10.123 15.007-.784.529L148.65 81.42l-.783.529z" fill="#969696" stroke="#969696" id="patch_6"/><path clip-path="url(#p4cb472f5c2)" d="M128.98 102.8l-3.852 2.298-.203-.923-14.26 3.135-.204-.924 14.26-3.135-.202-.923z" fill="#969696" stroke="#969696" id="patch_7"/><path clip-path="url(#p4cb472f5c2)" d="M140.748 100.212l3.851-2.299.203.924 14.261-3.135.203.923-14.26 3.135.202.924z" fill="#969696" stroke="#969696" id="patch_8"/><path clip-path="url(#p4cb472f5c2)" d="M100.742 122.924l1.008-4.37.807.493 7.602-12.445.807.493-7.602 12.445.806.492z" fill="#969696" stroke="#969696" id="patch_9"/><path clip-path="url(#p4cb472f5c2)" d="M89.653 141.076l-1.008 4.37-.807-.492-7.603 12.445-.807-.493 7.603-12.445-.807-.493z" fill="#969696" stroke="#969696" id="patch_10"/><path clip-path="url(#p4cb472f5c2)" d="M113.41 120.852l-2.238-3.887.926-.188-1.999-9.835.927-.188 1.999 9.834.927-.188z" fill="#969696" stroke="#969696" id="patch_11"/><path clip-path="url(#p4cb472f5c2)" d="M115.942 133.314l2.238 3.888-.927.188 2 9.834-.927.189-2-9.835-.926.189z" fill="#969696" stroke="#969696" id="patch_12"/><path clip-path="url(#p4cb472f5c2)" d="M179.703 96.248l-4.26 1.401.003-.945-16.283-.068.004-.945 16.283.067.004-.946z" fill="#969696" stroke="#969696" id="patch_13"/><path clip-path="url(#p4cb472f5c2)" d="M184.297 96.267l4.26-1.4-.003.945 16.283.068-.004.945-16.283-.067-.004.945z" fill="#969696" stroke="#969696" id="patch_14"/><path clip-path="url(#p4cb472f5c2)" d="M144.391 114.881l1.523-4.219.742.586 12.138-15.378.742.586-12.138 15.378.743.586z" fill="#969696" stroke="#969696" id="patch_15"/><path clip-path="url(#p4cb472f5c2)" d="M133.563 128.6l-1.523 4.22-.743-.586-12.137 15.377-.742-.586 12.137-15.377-.742-.586z" fill="#969696" stroke="#969696" id="patch_16"/><path clip-path="url(#p4cb472f5c2)" d="M162.283 111.83l-2.222-3.897.928-.184-2.288-11.493.927-.185 2.288 11.493.927-.184z" fill="#969696" stroke="#969696" id="patch_17"/><path clip-path="url(#p4cb472f5c2)" d="M163.989 120.4l2.222 3.896-.928.185 2.288 11.493-.927.184-2.288-11.493-.927.185z" fill="#969696" stroke="#969696" id="patch_18"/><path clip-path="url(#p4cb472f5c2)" d="M193.54 108.243l1.902-4.062.685.651 8.366-8.805.685.651-8.365 8.806.685.65z" fill="#969696" stroke="#969696" id="patch_19"/><path clip-path="url(#p4cb472f5c2)" d="M178.403 124.176l-1.902 4.062-.686-.652-8.365 8.806-.685-.651 8.365-8.806-.686-.651z" fill="#969696" stroke="#969696" id="patch_20"/><path clip-path="url(#p4cb472f5c2)" d="M204.165 112.732l-1.243-4.31.945.04.496-12.129.945.039-.497 12.128.945.039z" fill="#969696" stroke="#969696" id="patch_21"/><path clip-path="url(#p4cb472f5c2)" d="M203.993 116.944l1.243 4.31-.945-.039-.496 12.128-.945-.038.496-12.129-.944-.038z" fill="#969696" stroke="#969696" id="patch_22"/><path clip-path="url(#p4cb472f5c2)" d="M97.613 152.664l-3.778 2.416-.232-.916-13.655 3.447-.232-.917 13.656-3.447-.232-.917z" fill="#969696" stroke="#969696" id="patch_23"/><path clip-path="url(#p4cb472f5c2)" d="M101.008 151.807l3.778-2.417.232.917 13.655-3.447.232.917-13.656 3.447.232.917z" fill="#969696" stroke="#969696" id="patch_24"/><path clip-path="url(#p4cb472f5c2)" d="M71.083 178.135l.328-4.473.873.364 7.111-17.056.873.364-7.111 17.056.873.364z" fill="#969696" stroke="#969696" id="patch_25"/><path clip-path="url(#p4cb472f5c2)" d="M64.847 193.092l-.328 4.473-.873-.364-7.111 17.056-.873-.364 7.111-17.056-.873-.363z" fill="#969696" stroke="#969696" id="patch_26"/><path clip-path="url(#p4cb472f5c2)" d="M83.48 171.411l-2.429-3.77.916-.235-2.593-10.137.916-.234 2.594 10.137.916-.234z" fill="#969696" stroke="#969696" id="patch_27"/><path clip-path="url(#p4cb472f5c2)" d="M87.53 187.24l2.429 3.77-.916.235 2.594 10.137-.916.234-2.594-10.137-.916.235z" fill="#969696" stroke="#969696" id="patch_28"/><path clip-path="url(#p4cb472f5c2)" d="M135.997 143.311l-3.823 2.347-.214-.921-13.064 3.042-.214-.921 13.063-3.042-.214-.921z" fill="#969696" stroke="#969696" id="patch_29"/><path clip-path="url(#p4cb472f5c2)" d="M149.9 140.073l3.822-2.346.214.92L167 135.607l.215.92-13.064 3.043.214.92z" fill="#969696" stroke="#969696" id="patch_30"/><path clip-path="url(#p4cb472f5c2)" d="M110.658 163.275l.668-4.435.842.43 6.2-12.166.842.429-6.2 12.165.843.43z" fill="#969696" stroke="#969696" id="patch_31"/><path clip-path="url(#p4cb472f5c2)" d="M99.31 185.543l-.668 4.435-.843-.43-6.2 12.166-.842-.43 6.2-12.165-.843-.43z" fill="#969696" stroke="#969696" id="patch_32"/><path clip-path="url(#p4cb472f5c2)" d="M121.696 157.734l-2.51-3.717.91-.255-1.762-6.317.91-.254 1.763 6.317.911-.254z" fill="#969696" stroke="#969696" id="patch_33"/><path clip-path="url(#p4cb472f5c2)" d="M127.23 177.562l2.51 3.717-.912.255 1.763 6.317-.91.254-1.763-6.317-.911.254z" fill="#969696" stroke="#969696" id="patch_34"/><path clip-path="url(#p4cb472f5c2)" d="M184.186 134.773l-4.136 1.736-.072-.943-12.835.972-.071-.943 12.835-.972-.071-.943z" fill="#969696" stroke="#969696" id="patch_35"/><path clip-path="url(#p4cb472f5c2)" d="M186.244 134.617l4.136-1.735.071.942 12.836-.971.071.942-12.835.972.071.943z" fill="#969696" stroke="#969696" id="patch_36"/><path clip-path="url(#p4cb472f5c2)" d="M159.214 147.15l1.313-4.29.77.55 5.425-7.618.77.548-5.425 7.618.77.548z" fill="#969696" stroke="#969696" id="patch_37"/><path clip-path="url(#p4cb472f5c2)" d="M138.03 176.894l-1.314 4.29-.77-.55-5.425 7.618-.77-.549 5.425-7.617-.77-.548z" fill="#969696" stroke="#969696" id="patch_38"/><path clip-path="url(#p4cb472f5c2)" d="M169.692 151.887l-2.086-3.971.933-.153-1.898-11.62.933-.153 1.898 11.621.934-.152z" fill="#969696" stroke="#969696" id="patch_39"/><path clip-path="url(#p4cb472f5c2)" d="M170.764 158.447l2.085 3.97-.933.153 1.899 11.62-.934.153-1.898-11.62-.933.152z" fill="#969696" stroke="#969696" id="patch_40"/><path clip-path="url(#p4cb472f5c2)" d="M227.502 129.31l-3.965 2.095-.155-.933-19.982 3.318-.155-.932 19.982-3.318-.154-.933z" fill="#969696" stroke="#969696" id="patch_41"/><path clip-path="url(#p4cb472f5c2)" d="M229.825 128.923l3.965-2.096.155.933 19.982-3.318.155.933-19.982 3.318.155.933z" fill="#969696" stroke="#969696" id="patch_42"/><path clip-path="url(#p4cb472f5c2)" d="M196.023 143.295l1.369-4.271.763.559 4.786-6.538.763.558-4.786 6.538.763.559z" fill="#969696" stroke="#969696" id="patch_43"/><path clip-path="url(#p4cb472f5c2)" d="M180.648 164.296l-1.37 4.271-.762-.559-4.786 6.538-.763-.558 4.786-6.538-.763-.559z" fill="#969696" stroke="#969696" id="patch_44"/><path clip-path="url(#p4cb472f5c2)" d="M207.985 150.81l-2.467-3.746.914-.244-3.566-13.374.913-.244 3.567 13.374.913-.243z" fill="#969696" stroke="#969696" id="patch_45"/><path clip-path="url(#p4cb472f5c2)" d="M207.359 148.46l2.467 3.746-.914.244 3.566 13.374-.913.244-3.567-13.374-.913.243z" fill="#969696" stroke="#969696" id="patch_46"/><path clip-path="url(#p4cb472f5c2)" d="M240.776 137.84l2.051-3.989.66.676 10.187-9.957.661.677-10.186 9.956.66.677z" fill="#969696" stroke="#969696" id="patch_47"/><path clip-path="url(#p4cb472f5c2)" d="M225.25 153.015l-2.05 3.988-.662-.676-10.186 9.957-.66-.676 10.185-9.957-.66-.676z" fill="#969696" stroke="#969696" id="patch_48"/><path clip-path="url(#p4cb472f5c2)" d="M254.386 148.511l-1.487-4.232.946-.015-.313-19.348.945-.015.313 19.348.946-.015z" fill="#969696" stroke="#969696" id="patch_49"/><path clip-path="url(#p4cb472f5c2)" d="M254.19 136.386l1.487 4.232-.945.015.313 19.348-.946.016-.313-19.348-.945.015z" fill="#969696" stroke="#969696" id="patch_50"/><path clip-path="url(#p4cb472f5c2)" d="M69.466 209.283l-3.527 2.771-.32-.89-9.361 3.356-.32-.89 9.363-3.356-.32-.89z" fill="#969696" stroke="#969696" id="patch_51"/><path clip-path="url(#p4cb472f5c2)" d="M77.811 206.291l3.527-2.77.319.89 9.362-3.357.32.89-9.363 3.356.32.89z" fill="#969696" stroke="#969696" id="patch_52"/><path clip-path="url(#p4cb472f5c2)" d="M52.567 235.806l-.717-4.427.933.151L55.631 214l.934.151-2.849 17.531.934.152z" fill="#969696" stroke="#969696" id="patch_53"/><path clip-path="url(#p4cb472f5c2)" d="M52.915 233.665l.718 4.428-.933-.152-2.849 17.531-.933-.151 2.848-17.532-.933-.151z" fill="#969696" stroke="#969696" id="patch_54"/><path clip-path="url(#p4cb472f5c2)" d="M63.97 231.392l-3.053-3.287.861-.391-6.11-13.443.86-.391 6.111 13.442.86-.39z" fill="#969696" stroke="#969696" id="patch_55"/><path clip-path="url(#p4cb472f5c2)" d="M62.883 229.002l3.052 3.287-.86.391 6.11 13.443-.861.392-6.11-13.443-.861.39z" fill="#969696" stroke="#969696" id="patch_56"/><path clip-path="url(#p4cb472f5c2)" d="M108.473 195.496l-3.554 2.736-.31-.894-13.275 4.608-.31-.893 13.275-4.608-.31-.893z" fill="#969696" stroke="#969696" id="patch_57"/><path clip-path="url(#p4cb472f5c2)" d="M112.841 193.98l3.555-2.735.31.894 13.275-4.608.31.893-13.275 4.608.31.893z" fill="#969696" stroke="#969696" id="patch_58"/><path clip-path="url(#p4cb472f5c2)" d="M81.576 222.572l.473-4.46.86.392 7.84-17.2.86.391-7.839 17.201.86.392z" fill="#969696" stroke="#969696" id="patch_59"/><path clip-path="url(#p4cb472f5c2)" d="M80.357 225.246l-.474 4.46-.86-.392-7.838 17.201-.86-.392 7.838-17.201-.86-.392z" fill="#969696" stroke="#969696" id="patch_60"/><path clip-path="url(#p4cb472f5c2)" d="M95.534 215.28l-2.635-3.63.902-.285-3.073-9.723.901-.285 3.074 9.723.901-.285z" fill="#969696" stroke="#969696" id="patch_61"/><path clip-path="url(#p4cb472f5c2)" d="M97.791 222.42l2.635 3.63-.901.286 3.073 9.723-.902.285-3.073-9.723-.902.284z" fill="#969696" stroke="#969696" id="patch_62"/><path clip-path="url(#p4cb472f5c2)" d="M145.894 182.978l-3.627 2.639-.286-.902-11.702 3.713-.286-.901 11.702-3.713-.286-.901z" fill="#969696" stroke="#969696" id="patch_63"/><path clip-path="url(#p4cb472f5c2)" d="M157.59 179.267l3.627-2.639.286.901 11.702-3.713.286.902-11.702 3.713.286.9z" fill="#969696" stroke="#969696" id="patch_64"/><path clip-path="url(#p4cb472f5c2)" d="M120.238 205.032l.909-4.392.818.475 7.762-13.375.818.475-7.763 13.374.818.475z" fill="#969696" stroke="#969696" id="patch_65"/><path clip-path="url(#p4cb472f5c2)" d="M112.045 219.147l-.909 4.392-.818-.475-7.762 13.375-.818-.475 7.763-13.374-.818-.475z" fill="#969696" stroke="#969696" id="patch_66"/><path clip-path="url(#p4cb472f5c2)" d="M134.153 203.681l-2.429-3.77.916-.235-2.962-11.581.916-.235 2.963 11.582.916-.234z" fill="#969696" stroke="#969696" id="patch_67"/><path clip-path="url(#p4cb472f5c2)" d="M134.44 204.801l2.428 3.77-.916.235 2.963 11.582-.916.234-2.963-11.581-.916.234z" fill="#969696" stroke="#969696" id="patch_68"/><path clip-path="url(#p4cb472f5c2)" d="M190.847 170.502l-3.861 2.281-.199-.924-13.34 2.87-.198-.924 13.34-2.87-.2-.925z" fill="#969696" stroke="#969696" id="patch_69"/><path clip-path="url(#p4cb472f5c2)" d="M194.522 169.711l3.862-2.282.199.925 13.34-2.87.198.924-13.34 2.87.2.925z" fill="#969696" stroke="#969696" id="patch_70"/><path clip-path="url(#p4cb472f5c2)" d="M163.562 187.235l1.43-4.25.756.57 7.223-9.573.754.57-7.223 9.572.755.57z" fill="#969696" stroke="#969696" id="patch_71"/><path clip-path="url(#p4cb472f5c2)" d="M148.243 207.537l-1.431 4.25-.755-.57-7.223 9.573-.755-.57 7.223-9.572-.754-.57z" fill="#969696" stroke="#969696" id="patch_72"/><path clip-path="url(#p4cb472f5c2)" d="M173.867 191.679l-1.544-4.211.945-.028-.392-13.159.945-.028.392 13.159.945-.028z" fill="#969696" stroke="#969696" id="patch_73"/><path clip-path="url(#p4cb472f5c2)" d="M173.87 191.746l1.544 4.211-.946.028.393 13.16-.945.027-.393-13.158-.945.028z" fill="#969696" stroke="#969696" id="patch_74"/><path clip-path="url(#p4cb472f5c2)" d="M233.294 162.968l-4.018 1.994-.13-.936-17.059 2.388-.13-.936 17.057-2.388-.13-.937z" fill="#969696" stroke="#969696" id="patch_75"/><path clip-path="url(#p4cb472f5c2)" d="M233.3 162.967l4.017-1.995.131.937 17.058-2.388.132.936-17.059 2.388.132.937z" fill="#969696" stroke="#969696" id="patch_76"/><path clip-path="url(#p4cb472f5c2)" d="M202.514 176.863l1.725-4.14.713.62 6.713-7.708.713.621-6.713 7.709.713.62z" fill="#969696" stroke="#969696" id="patch_77"/><path clip-path="url(#p4cb472f5c2)" d="M183.896 198.241l-1.725 4.14-.713-.62-6.713 7.708-.713-.621 6.713-7.709-.713-.62z" fill="#969696" stroke="#969696" id="patch_78"/><path clip-path="url(#p4cb472f5c2)" d="M214.74 186.236l-1.971-4.03.937-.125-2.153-16.072.937-.126 2.153 16.073.937-.126z" fill="#969696" stroke="#969696" id="patch_79"/><path clip-path="url(#p4cb472f5c2)" d="M213.37 176.009l1.97 4.029-.937.125 2.153 16.073-.937.125-2.153-16.072-.937.126z" fill="#969696" stroke="#969696" id="patch_80"/><path clip-path="url(#p4cb472f5c2)" d="M269.435 160.113l-4.267 1.383.008-.945-10.608-.09.008-.945 10.608.09.008-.946z" fill="#969696" stroke="#969696" id="patch_81"/><path clip-path="url(#p4cb472f5c2)" d="M273.56 160.148l4.267-1.383-.008.946 10.608.089-.008.945-10.608-.089-.008.946z" fill="#969696" stroke="#969696" id="patch_82"/><path clip-path="url(#p4cb472f5c2)" d="M240.069 173.672l2.121-3.951.65.688 11.408-10.764.648.688-11.408 10.763.65.688z" fill="#969696" stroke="#969696" id="patch_83"/><path clip-path="url(#p4cb472f5c2)" d="M230.59 182.615l-2.12 3.952-.65-.688-11.408 10.763-.649-.687 11.408-10.764-.649-.688z" fill="#969696" stroke="#969696" id="patch_84"/><path clip-path="url(#p4cb472f5c2)" d="M253.607 180.498l-1.217-4.317.945.045.765-16.26.944.045-.765 16.26.945.044z" fill="#969696" stroke="#969696" id="patch_85"/><path clip-path="url(#p4cb472f5c2)" d="M254.024 171.629l1.217 4.317-.944-.045-.766 16.26-.944-.045.765-16.26-.945-.044z" fill="#969696" stroke="#969696" id="patch_86"/><path clip-path="url(#p4cb472f5c2)" d="M274.177 173.11l2.212-3.903.633.702 11.085-9.988.633.703-11.085 9.988.633.702z" fill="#969696" stroke="#969696" id="patch_87"/><path clip-path="url(#p4cb472f5c2)" d="M267.305 179.302l-2.212 3.902-.633-.703-11.084 9.988-.633-.702 11.084-9.988-.633-.703z" fill="#969696" stroke="#969696" id="patch_88"/><path clip-path="url(#p4cb472f5c2)" d="M295.448 181.263l-2.695-3.585.896-.3-5.674-16.955.897-.3 5.674 16.955.897-.3z" fill="#969696" stroke="#969696" id="patch_89"/><path clip-path="url(#p4cb472f5c2)" d="M289.246 162.732l2.696 3.585-.897.3 5.675 16.956-.897.3-5.674-16.956-.897.3z" fill="#969696" stroke="#969696" id="patch_90"/><path clip-path="url(#p4cb472f5c2)" d="M62.852 249.676l-3.362 2.969-.37-.87-9.55 4.056-.37-.87 9.551-4.057-.37-.87z" fill="#969696" stroke="#969696" id="patch_91"/><path clip-path="url(#p4cb472f5c2)" d="M57.287 252.04l3.362-2.97.37.871 9.55-4.057.37.87-9.551 4.057.37.87z" fill="#969696" stroke="#969696" id="patch_92"/><path clip-path="url(#p4cb472f5c2)" d="M54.466 284.432l-2.13-3.947.93-.163-4.347-24.844.931-.163 4.348 24.844.931-.163z" fill="#969696" stroke="#969696" id="patch_93"/><path clip-path="url(#p4cb472f5c2)" d="M50.26 260.401l2.131 3.947-.931.163 4.347 24.844-.931.163-4.348-24.844-.931.163z" fill="#969696" stroke="#969696" id="patch_94"/><path clip-path="url(#p4cb472f5c2)" d="M88.517 240.594l-3.615 2.656-.29-.9-13.713 4.419-.29-.9 13.713-4.42-.29-.9z" fill="#969696" stroke="#969696" id="patch_95"/><path clip-path="url(#p4cb472f5c2)" d="M84.385 241.926L88 239.271l.29.9 13.712-4.42.29.9-13.712 4.42.29.9z" fill="#969696" stroke="#969696" id="patch_96"/><path clip-path="url(#p4cb472f5c2)" d="M60.917 273.84l.097-4.485.89.318 8.405-23.513.89.318-8.405 23.514.89.318z" fill="#969696" stroke="#969696" id="patch_97"/><path clip-path="url(#p4cb472f5c2)" d="M65.179 261.916l-.097 4.484-.89-.318-8.405 23.514-.89-.318 8.405-23.514-.89-.318z" fill="#969696" stroke="#969696" id="patch_98"/><path clip-path="url(#p4cb472f5c2)" d="M81.721 272.133l-2.969-3.361.87-.37-9.303-21.898.87-.37 9.304 21.898.87-.37z" fill="#969696" stroke="#969696" id="patch_99"/><path clip-path="url(#p4cb472f5c2)" d="M72.08 249.439l2.969 3.361-.87.37 9.303 21.898-.87.37-9.304-21.898-.87.37z" fill="#969696" stroke="#969696" id="patch_100"/><path clip-path="url(#p4cb472f5c2)" d="M120.823 228.128l-3.343 2.99-.375-.868-14.77 6.385-.375-.868 14.77-6.385-.376-.868z" fill="#969696" stroke="#969696" id="patch_101"/><path clip-path="url(#p4cb472f5c2)" d="M119.78 228.578l3.344-2.99.375.868 14.77-6.385.375.868-14.77 6.385.375.868z" fill="#969696" stroke="#969696" id="patch_102"/><path clip-path="url(#p4cb472f5c2)" d="M91.087 258.815l.595-4.446.85.415 9.19-18.79.85.415-9.19 18.79.849.416z" fill="#969696" stroke="#969696" id="patch_103"/><path clip-path="url(#p4cb472f5c2)" d="M94.107 252.64l-.596 4.446-.849-.416-9.19 18.79-.85-.415 9.19-18.79-.849-.416z" fill="#969696" stroke="#969696" id="patch_104"/><path clip-path="url(#p4cb472f5c2)" d="M112.049 251.948l-3.466-2.847.8-.503-7.636-12.145.8-.503 7.637 12.144.8-.503z" fill="#969696" stroke="#969696" id="patch_105"/><path clip-path="url(#p4cb472f5c2)" d="M105.861 242.108l3.466 2.847-.8.504 7.636 12.144-.8.503-7.637-12.144-.8.503z" fill="#969696" stroke="#969696" id="patch_106"/><path clip-path="url(#p4cb472f5c2)" d="M157.257 214.568l-3.63 2.634-.285-.902-14.743 4.656-.285-.902 14.744-4.656-.285-.901z" fill="#969696" stroke="#969696" id="patch_107"/><path clip-path="url(#p4cb472f5c2)" d="M155.588 215.095l3.63-2.634.285.902 14.743-4.656.285.902-14.744 4.656.285.901z" fill="#969696" stroke="#969696" id="patch_108"/><path clip-path="url(#p4cb472f5c2)" d="M127.792 238.057l.997-4.372.808.49 8.456-13.915.808.49-8.455 13.917.808.49z" fill="#969696" stroke="#969696" id="patch_109"/><path clip-path="url(#p4cb472f5c2)" d="M126.428 240.302l-.997 4.373-.808-.49-8.456 13.915-.808-.49 8.455-13.917-.808-.49z" fill="#969696" stroke="#969696" id="patch_110"/><path clip-path="url(#p4cb472f5c2)" d="M145.621 238.907l-2.865-3.45.881-.344-5.62-14.436.88-.344 5.621 14.437.881-.343z" fill="#969696" stroke="#969696" id="patch_111"/><path clip-path="url(#p4cb472f5c2)" d="M140.275 225.175l2.866 3.45-.882.344 5.621 14.436-.88.343-5.622-14.436-.88.343z" fill="#969696" stroke="#969696" id="patch_112"/><path clip-path="url(#p4cb472f5c2)" d="M187.649 205.069l-3.648 2.61-.279-.904-9.194 2.835-.28-.904 9.195-2.835-.278-.904z" fill="#969696" stroke="#969696" id="patch_113"/><path clip-path="url(#p4cb472f5c2)" d="M202.827 200.388l3.648-2.61.279.904 9.194-2.835.279.903-9.195 2.836.28.903z" fill="#969696" stroke="#969696" id="patch_114"/><path clip-path="url(#p4cb472f5c2)" d="M164.877 221.306l1.506-4.224.745.582 6.888-8.797.744.583-6.888 8.797.745.583z" fill="#969696" stroke="#969696" id="patch_115"/><path clip-path="url(#p4cb472f5c2)" d="M156.951 231.429l-1.506 4.225-.745-.583-6.888 8.797-.745-.583 6.889-8.797-.745-.583z" fill="#969696" stroke="#969696" id="patch_116"/><path clip-path="url(#p4cb472f5c2)" d="M182.777 227.976l-3.028-3.309.864-.385-6.657-14.931.864-.385 6.656 14.931.864-.385z" fill="#969696" stroke="#969696" id="patch_117"/><path clip-path="url(#p4cb472f5c2)" d="M176.495 213.885l3.028 3.309-.863.385 6.656 14.931-.864.385-6.656-14.931-.864.385z" fill="#969696" stroke="#969696" id="patch_118"/><path clip-path="url(#p4cb472f5c2)" d="M228.322 194.922l-4.07 1.885-.106-.94-8.006.901-.105-.94 8.005-.9-.105-.94z" fill="#969696" stroke="#969696" id="patch_119"/><path clip-path="url(#p4cb472f5c2)" d="M240.825 193.515l4.07-1.885.106.94 8.005-.902.106.94-8.006.9.106.94z" fill="#969696" stroke="#969696" id="patch_120"/><path clip-path="url(#p4cb472f5c2)" d="M206.801 207.133l1.693-4.154.717.615 6.518-7.603.718.615-6.518 7.604.718.615z" fill="#969696" stroke="#969696" id="patch_121"/><path clip-path="url(#p4cb472f5c2)" d="M194.17 221.869l-1.692 4.154-.718-.616-6.517 7.603-.718-.615 6.517-7.603-.718-.616z" fill="#969696" stroke="#969696" id="patch_122"/><path clip-path="url(#p4cb472f5c2)" d="M217.612 215.01l-1.759-4.126.942-.077-1.179-14.47.943-.077 1.179 14.47.942-.076z" fill="#969696" stroke="#969696" id="patch_123"/><path clip-path="url(#p4cb472f5c2)" d="M216.643 203.118l1.76 4.125-.943.077 1.179 14.47-.942.077-1.18-14.47-.942.077z" fill="#969696" stroke="#969696" id="patch_124"/><path clip-path="url(#p4cb472f5c2)" d="M267.772 189.273l-3.905 2.205-.18-.928-10.538 2.052-.18-.928 10.536-2.052-.18-.928z" fill="#969696" stroke="#969696" id="patch_125"/><path clip-path="url(#p4cb472f5c2)" d="M281.558 186.588l3.906-2.206.18.929 10.537-2.052.18.928-10.536 2.052.18.928z" fill="#969696" stroke="#969696" id="patch_126"/><path clip-path="url(#p4cb472f5c2)" d="M240.62 202.723l2.321-3.838.613.72 9.199-7.827.613.72-9.2 7.828.614.72z" fill="#969696" stroke="#969696" id="patch_127"/><path clip-path="url(#p4cb472f5c2)" d="M230.607 211.244l-2.321 3.837-.613-.72-9.199 7.828-.613-.72 9.199-7.828-.613-.72z" fill="#969696" stroke="#969696" id="patch_128"/><path clip-path="url(#p4cb472f5c2)" d="M263.034 211.238l-3.227-3.116.838-.437-8.005-15.328.838-.438 8.005 15.328.839-.438z" fill="#969696" stroke="#969696" id="patch_129"/><path clip-path="url(#p4cb472f5c2)" d="M255.282 196.394l3.227 3.115-.838.438 8.005 15.328-.838.437-8.005-15.327-.839.437z" fill="#969696" stroke="#969696" id="patch_130"/><path clip-path="url(#p4cb472f5c2)" d="M279.21 201.2l1.957-4.035.677.66 14.09-14.433.676.66-14.09 14.434.677.66z" fill="#969696" stroke="#969696" id="patch_131"/><path clip-path="url(#p4cb472f5c2)" d="M282.319 198.016l-1.958 4.035-.676-.66-14.09 14.433-.676-.66 14.09-14.434-.677-.66z" fill="#969696" stroke="#969696" id="patch_132"/><path clip-path="url(#p4cb472f5c2)" d="M293.05 205.935l-.794-4.414.936.136 2.612-18.002.935.135-2.611 18.002.936.136z" fill="#969696" stroke="#969696" id="patch_133"/><path clip-path="url(#p4cb472f5c2)" d="M295.05 192.146l.792 4.415-.935-.136-2.612 18.002-.936-.136 2.612-18.002-.936-.136z" fill="#969696" stroke="#969696" id="patch_134"/><path clip-path="url(#p4cb472f5c2)" d="M72.652 280.575l-3.142 3.201-.43-.841-13.523 6.922-.43-.841 13.522-6.923-.431-.842z" fill="#969696" stroke="#969696" id="patch_135"/><path clip-path="url(#p4cb472f5c2)" d="M65.737 284.115l3.141-3.202.43.842 13.523-6.923.431.842-13.522 6.923.43.841z" fill="#969696" stroke="#969696" id="patch_136"/><path clip-path="url(#p4cb472f5c2)" d="M70.124 312.54l-3.488-2.82.797-.509-12.49-19.52.797-.51 12.49 19.52.796-.51z" fill="#969696" stroke="#969696" id="patch_137"/><path clip-path="url(#p4cb472f5c2)" d="M54.837 288.648l3.488 2.82-.796.51 12.489 19.52-.797.509-12.489-19.52-.796.51z" fill="#969696" stroke="#969696" id="patch_138"/><path clip-path="url(#p4cb472f5c2)" d="M99.35 266.583l-3.09 3.25-.445-.835-12.546 6.673-.444-.835 12.546-6.672-.444-.835z" fill="#969696" stroke="#969696" id="patch_139"/><path clip-path="url(#p4cb472f5c2)" d="M99.46 266.525l3.09-3.25.445.835 12.546-6.673.444.835-12.546 6.672.444.835z" fill="#969696" stroke="#969696" id="patch_140"/><path clip-path="url(#p4cb472f5c2)" d="M74.198 299.306l.138-4.483.888.326 7.379-20.059.887.326-7.379 20.06.888.326z" fill="#969696" stroke="#969696" id="patch_141"/><path clip-path="url(#p4cb472f5c2)" d="M78.468 287.7l-.138 4.482-.887-.326-7.38 20.06-.887-.327 7.38-20.06-.888-.326z" fill="#969696" stroke="#969696" id="patch_142"/><path clip-path="url(#p4cb472f5c2)" d="M96.011 293.46l-3.623-2.643.77-.549-10.496-14.74.77-.549 10.496 14.741.77-.548z" fill="#969696" stroke="#969696" id="patch_143"/><path clip-path="url(#p4cb472f5c2)" d="M82.942 275.106l3.624 2.644-.77.548 10.496 14.741-.77.549-10.497-14.741-.77.548z" fill="#969696" stroke="#969696" id="patch_144"/><path clip-path="url(#p4cb472f5c2)" d="M129.251 251.775l-3.296 3.042-.389-.862-9.608 4.33-.39-.861 9.61-4.331-.389-.862z" fill="#969696" stroke="#969696" id="patch_145"/><path clip-path="url(#p4cb472f5c2)" d="M133.952 249.656l3.296-3.041.389.862 9.608-4.331.389.862-9.609 4.33.389.863z" fill="#969696" stroke="#969696" id="patch_146"/><path clip-path="url(#p4cb472f5c2)" d="M104.16 278.574l.842-4.405.825.462 9.524-17.007.825.462-9.524 17.007.825.462z" fill="#969696" stroke="#969696" id="patch_147"/><path clip-path="url(#p4cb472f5c2)" d="M107.51 272.594l-.842 4.406-.825-.462-9.524 17.006-.825-.462 9.524-17.006-.825-.463z" fill="#969696" stroke="#969696" id="patch_148"/><path clip-path="url(#p4cb472f5c2)" d="M120.555 277.104l-2.405-3.786.918-.228-3.764-15.121.918-.228 3.764 15.12.917-.228z" fill="#969696" stroke="#969696" id="patch_149"/><path clip-path="url(#p4cb472f5c2)" d="M116.362 260.259l2.404 3.786-.918.229 3.764 15.12-.918.228-3.763-15.12-.918.228z" fill="#969696" stroke="#969696" id="patch_150"/><path clip-path="url(#p4cb472f5c2)" d="M164.014 238.763l-3.69 2.55-.264-.909-12.489 3.627-.263-.908 12.488-3.627-.263-.908z" fill="#969696" stroke="#969696" id="patch_151"/><path clip-path="url(#p4cb472f5c2)" d="M168.31 237.516l3.69-2.549.263.909 12.49-3.627.263.908-12.489 3.627.264.908z" fill="#969696" stroke="#969696" id="patch_152"/><path clip-path="url(#p4cb472f5c2)" d="M133.785 262.242l1.367-4.272.764.558 11.142-15.23.763.558-11.142 15.23.763.559z" fill="#969696" stroke="#969696" id="patch_153"/><path clip-path="url(#p4cb472f5c2)" d="M134.808 260.843l-1.368 4.272-.763-.558-11.142 15.23-.764-.558L131.914 264l-.763-.559z" fill="#969696" stroke="#969696" id="patch_154"/><path clip-path="url(#p4cb472f5c2)" d="M151.832 257.784l-2.612-3.647.904-.279-3.136-10.142.903-.279 3.136 10.142.903-.28z" fill="#969696" stroke="#969696" id="patch_155"/><path clip-path="url(#p4cb472f5c2)" d="M149.099 248.943l2.612 3.646-.904.28 3.136 10.141-.903.28-3.136-10.142-.903.28z" fill="#969696" stroke="#969696" id="patch_156"/><path clip-path="url(#p4cb472f5c2)" d="M196.222 228.999l-3.604 2.67-.294-.9-7.293 2.383-.294-.899 7.293-2.382-.293-.9z" fill="#969696" stroke="#969696" id="patch_157"/><path clip-path="url(#p4cb472f5c2)" d="M206.83 225.533l3.604-2.67.294.9 7.293-2.384.294.9-7.294 2.382.294.899z" fill="#969696" stroke="#969696" id="patch_158"/><path clip-path="url(#p4cb472f5c2)" d="M171.945 245.252l2.067-3.98.658.678 9.885-9.587.658.68-9.884 9.586.658.679z" fill="#969696" stroke="#969696" id="patch_159"/><path clip-path="url(#p4cb472f5c2)" d="M166.43 250.6l-2.067 3.981-.658-.678-9.885 9.586-.658-.678 9.885-9.587-.659-.679z" fill="#969696" stroke="#969696" id="patch_160"/><path clip-path="url(#p4cb472f5c2)" d="M188.082 244.646l-2.47-3.743.913-.245-2.098-7.833.914-.244 2.097 7.833.913-.245z" fill="#969696" stroke="#969696" id="patch_161"/><path clip-path="url(#p4cb472f5c2)" d="M186.32 238.063l2.47 3.744-.913.244 2.097 7.833-.913.245-2.098-7.833-.913.244z" fill="#969696" stroke="#969696" id="patch_162"/><path clip-path="url(#p4cb472f5c2)" d="M235.732 219.466l-4.028 1.973-.126-.937-13.347 1.795-.126-.937 13.347-1.795-.126-.938z" fill="#969696" stroke="#969696" id="patch_163"/><path clip-path="url(#p4cb472f5c2)" d="M247.692 217.857l4.028-1.973.126.937 13.348-1.796.126.937-13.348 1.796.127.937z" fill="#969696" stroke="#969696" id="patch_164"/><path clip-path="url(#p4cb472f5c2)" d="M202.758 236.984l2.04-3.994.662.674 12.376-12.172.663.674-12.376 12.172.663.674z" fill="#969696" stroke="#969696" id="patch_165"/><path clip-path="url(#p4cb472f5c2)" d="M204.927 234.851l-2.04 3.995-.662-.674-12.376 12.172-.663-.674 12.376-12.172-.663-.675z" fill="#969696" stroke="#969696" id="patch_166"/><path clip-path="url(#p4cb472f5c2)" d="M225.69 237.979l-3.082-3.259.857-.399-5.726-12.293.857-.399 5.726 12.293.858-.4z" fill="#969696" stroke="#969696" id="patch_167"/><path clip-path="url(#p4cb472f5c2)" d="M220.952 227.805l3.082 3.258-.857.4 5.726 12.292-.857.4-5.726-12.293-.857.4z" fill="#969696" stroke="#969696" id="patch_168"/><path clip-path="url(#p4cb472f5c2)" d="M275.678 215.049l-4.19 1.598-.041-.945-6.17.264-.04-.945 6.17-.263-.04-.945z" fill="#969696" stroke="#969696" id="patch_169"/><path clip-path="url(#p4cb472f5c2)" d="M281.406 214.804l4.191-1.599.04.945 6.17-.263.04.944-6.17.264.041.944z" fill="#969696" stroke="#969696" id="patch_170"/><path clip-path="url(#p4cb472f5c2)" d="M248.064 228.797l2.498-3.726.578.748 13.828-10.7.578.748-13.827 10.7.579.748z" fill="#969696" stroke="#969696" id="patch_171"/><path clip-path="url(#p4cb472f5c2)" d="M245.667 230.652l-2.497 3.725-.579-.747-13.827 10.699-.579-.748 13.827-10.7-.578-.747z" fill="#969696" stroke="#969696" id="patch_172"/><path clip-path="url(#p4cb472f5c2)" d="M262.494 236.759l-.858-4.402.937.121 2.215-17.045.938.121-2.215 17.046.938.122z" fill="#969696" stroke="#969696" id="patch_173"/><path clip-path="url(#p4cb472f5c2)" d="M264.9 218.245l.858 4.403-.938-.122-2.215 17.046-.937-.122 2.214-17.046-.937-.122z" fill="#969696" stroke="#969696" id="patch_174"/><path clip-path="url(#p4cb472f5c2)" d="M274.744 228.83l2.33-3.832.612.721L291.522 214l.61.72-13.835 11.722.61.721z" fill="#969696" stroke="#969696" id="patch_175"/><path clip-path="url(#p4cb472f5c2)" d="M279.22 225.04l-2.33 3.832-.612-.721-13.836 11.72-.611-.72 13.836-11.722-.611-.721z" fill="#969696" stroke="#969696" id="patch_176"/><path clip-path="url(#p4cb472f5c2)" d="M88.998 298.16l-2.67 3.604-.542-.774-15.895 11.149-.543-.774 15.895-11.15-.543-.773z" fill="#969696" stroke="#969696" id="patch_177"/><path clip-path="url(#p4cb472f5c2)" d="M76.528 306.906l2.67-3.605.542.775 15.895-11.15.543.775-15.895 11.149.543.774z" fill="#969696" stroke="#969696" id="patch_178"/><path clip-path="url(#p4cb472f5c2)" d="M108.17 286.607l-3.052 3.286-.454-.83-8.53 4.665-.454-.83 8.53-4.664-.453-.83z" fill="#969696" stroke="#969696" id="patch_179"/><path clip-path="url(#p4cb472f5c2)" d="M108.888 286.215l3.053-3.286.454.83 8.531-4.666.454.83-8.531 4.665.453.83z" fill="#969696" stroke="#969696" id="patch_180"/><path clip-path="url(#p4cb472f5c2)" d="M107.155 309.986l-3.556-2.734.784-.529-8.869-13.145.784-.529 8.869 13.146.784-.53z" fill="#969696" stroke="#969696" id="patch_181"/><path clip-path="url(#p4cb472f5c2)" d="M97.99 296.403l3.556 2.734-.784.529 8.869 13.145-.784.53-8.869-13.146-.783.529z" fill="#969696" stroke="#969696" id="patch_182"/><path clip-path="url(#p4cb472f5c2)" d="M135.88 272.058l-3.156 3.187-.427-.844-10.93 5.53-.427-.845 10.93-5.529-.427-.844z" fill="#969696" stroke="#969696" id="patch_183"/><path clip-path="url(#p4cb472f5c2)" d="M138.764 270.6l3.156-3.186.427.843 10.93-5.529.428.844-10.93 5.529.426.844z" fill="#969696" stroke="#969696" id="patch_184"/><path clip-path="url(#p4cb472f5c2)" d="M114.981 296.897l.087-4.484.89.316 4.75-13.379.89.316-4.748 13.38.89.316z" fill="#969696" stroke="#969696" id="patch_185"/><path clip-path="url(#p4cb472f5c2)" d="M115.41 295.687l-.086 4.484-.891-.316-4.749 13.379-.89-.316 4.748-13.38-.891-.316z" fill="#969696" stroke="#969696" id="patch_186"/><path clip-path="url(#p4cb472f5c2)" d="M133.282 296.082l-3.658-2.597.763-.558-9.616-13.14.763-.558 9.616 13.14.763-.559z" fill="#969696" stroke="#969696" id="patch_187"/><path clip-path="url(#p4cb472f5c2)" d="M124.248 283.737l3.657 2.596-.763.559 9.616 13.14-.763.558-9.616-13.14-.763.559z" fill="#969696" stroke="#969696" id="patch_188"/><path clip-path="url(#p4cb472f5c2)" d="M168.7 257.602l-3.512 2.79-.324-.888-11.21 4.09-.325-.888 11.211-4.09-.324-.889z" fill="#969696" stroke="#969696" id="patch_189"/><path clip-path="url(#p4cb472f5c2)" d="M174.309 255.555l3.511-2.79.324.888 11.211-4.09.324.888-11.21 4.09.323.888z" fill="#969696" stroke="#969696" id="patch_190"/><path clip-path="url(#p4cb472f5c2)" d="M143.11 285.691l.491-4.458.86.396 8.6-18.677.86.396-8.602 18.676.859.396z" fill="#969696" stroke="#969696" id="patch_191"/><path clip-path="url(#p4cb472f5c2)" d="M146.758 277.77l-.491 4.457-.86-.395-8.601 18.676-.859-.395 8.602-18.677-.86-.395z" fill="#969696" stroke="#969696" id="patch_192"/><path clip-path="url(#p4cb472f5c2)" d="M164.162 276.975l-3.723-2.502.749-.578-8.071-10.456.748-.578 8.072 10.457.748-.578z" fill="#969696" stroke="#969696" id="patch_193"/><path clip-path="url(#p4cb472f5c2)" d="M162.015 274.193l3.723 2.502-.749.578 8.071 10.456-.748.578-8.071-10.456-.749.577z" fill="#969696" stroke="#969696" id="patch_194"/><path clip-path="url(#p4cb472f5c2)" d="M202.32 248.018l-3.987 2.054-.145-.934-8.598 1.336-.145-.935 8.598-1.335-.145-.935z" fill="#969696" stroke="#969696" id="patch_195"/><path clip-path="url(#p4cb472f5c2)" d="M215.671 245.944l3.987-2.055.145.935 8.599-1.336.145.934-8.598 1.336.145.934z" fill="#969696" stroke="#969696" id="patch_196"/><path clip-path="url(#p4cb472f5c2)" d="M180.962 269.329l.425-4.465.865.383 6.833-15.432.865.383-6.833 15.432.864.383z" fill="#969696" stroke="#969696" id="patch_197"/><path clip-path="url(#p4cb472f5c2)" d="M181.242 268.696l-.426 4.465-.865-.383-6.833 15.432-.864-.383 6.833-15.432-.865-.383z" fill="#969696" stroke="#969696" id="patch_198"/><path clip-path="url(#p4cb472f5c2)" d="M194.616 271.433l-2.365-3.811.92-.219-4.114-17.287.92-.219 4.114 17.287.92-.219z" fill="#969696" stroke="#969696" id="patch_199"/><path clip-path="url(#p4cb472f5c2)" d="M191.889 259.973l2.365 3.811-.92.219 4.113 17.287-.92.219-4.113-17.287-.92.219z" fill="#969696" stroke="#969696" id="patch_200"/><path clip-path="url(#p4cb472f5c2)" d="M241.033 242.297L237 244.26l-.124-.937-8.34 1.1-.123-.937 8.34-1.1-.124-.938z" fill="#969696" stroke="#969696" id="patch_201"/><path clip-path="url(#p4cb472f5c2)" d="M249.578 241.169l4.033-1.963.124.937 8.34-1.1.123.937-8.34 1.1.124.938z" fill="#969696" stroke="#969696" id="patch_202"/><path clip-path="url(#p4cb472f5c2)" d="M212.016 263.527l1.653-4.17.724.609 13.72-16.315.723.608-13.72 16.316.724.608z" fill="#969696" stroke="#969696" id="patch_203"/><path clip-path="url(#p4cb472f5c2)" d="M213.445 261.827l-1.653 4.17-.723-.609-13.72 16.316-.724-.609 13.72-16.315-.724-.609z" fill="#969696" stroke="#969696" id="patch_204"/><path clip-path="url(#p4cb472f5c2)" d="M126.003 305.19l-3.247 3.095-.402-.856-12.914 6.075-.402-.856 12.913-6.075-.402-.855z" fill="#969696" stroke="#969696" id="patch_205"/><path clip-path="url(#p4cb472f5c2)" d="M119.612 308.196l3.247-3.094.402.855 12.914-6.074.403.855-12.914 6.075.402.856z" fill="#969696" stroke="#969696" id="patch_206"/><path clip-path="url(#p4cb472f5c2)" d="M153.691 294.449l-3.575 2.708-.304-.896-13.284 4.497-.303-.895 13.284-4.497-.303-.896z" fill="#969696" stroke="#969696" id="patch_207"/><path clip-path="url(#p4cb472f5c2)" d="M155.372 293.88l3.575-2.708.303.896 13.285-4.498.303.896-13.284 4.497.303.896z" fill="#969696" stroke="#969696" id="patch_208"/><path clip-path="url(#p4cb472f5c2)" d="M183.053 285.195l-3.733 2.486-.248-.912-6.262 1.705-.248-.912 6.261-1.705-.248-.913z" fill="#969696" stroke="#969696" id="patch_209"/><path clip-path="url(#p4cb472f5c2)" d="M186.62 284.223l3.733-2.487.249.913 6.26-1.706.25.913-6.262 1.705.249.912z" fill="#969696" stroke="#969696" id="patch_210"/><g id="matplotlib.axis_1"><g id="xtick_1"><g id="line2d_1"><defs><path d="M0 0v3.5" id="me61ad91432" stroke="#969696" stroke-width=".4"/></defs><use x="115.101" xlink:href="#me61ad91432" y="313.504" fill="#969696" stroke="#969696" stroke-width=".4"/></g><g transform="matrix(.14 0 0 -.14 105.371 330.553)" fill="#969696" id="text_1"><defs><path d="M42.484 34.188q0 14.109-3.734 21.156-3.734 7.062-10.969 7.062-7.078 0-10.89-7.062-3.797-7.047-3.797-21.157 0-13.671 3.75-20.937Q20.609 6 27.78 6q7.235 0 10.969 7 3.734 7.016 3.734 21.188zm9.422 0q0-17.297-6.25-26.704-6.25-9.39-17.875-9.39-12.062 0-18.062 9.734-6 9.75-6 26.36 0 17.03 6.14 26.578 6.157 9.547 17.922 9.547 11.625 0 17.875-9.5t6.25-26.626z" id="HelveticaWorld-Regular-48"/><path d="M19.094 0H8.687v10.594h10.407z" id="HelveticaWorld-Regular-46"/><path d="M22.406 39.984q2.203-.187 4.594-.187 6.203 0 9.781 2.86 3.594 2.859 3.594 8.656 0 4.687-3.344 7.89-3.343 3.203-9.64 3.203-6.985 0-10.235-4.11-3.234-4.093-3.437-10.983h-8.64q0 10.984 5.765 16.984 5.765 6.016 16.937 6.016 9.922 0 15.828-5.11 5.907-5.094 5.907-13.39 0-10.704-9.032-14.5v-.204q11.72-4 11.72-16.406 0-9.906-6.595-16.265-6.593-6.344-18.703-6.344-9.906 0-16.312 5.203Q4.204 8.5 3.422 21.484H12.5q.203-8.109 4-11.797Q20.313 6 27.484 6q6.938 0 11.141 3.86 4.203 3.859 4.203 9.718 0 6.406-4.016 9.672-4 3.266-12.39 3.266-2 0-4.016-.094z" id="HelveticaWorld-Regular-51"/></defs><use xlink:href="#HelveticaWorld-Regular-48"/><use x="55.615" xlink:href="#HelveticaWorld-Regular-46"/><use x="83.398" xlink:href="#HelveticaWorld-Regular-51"/></g></g><g id="xtick_2"><use x="209.658" xlink:href="#me61ad91432" y="313.504" fill="#969696" stroke="#969696" stroke-width=".4" id="line2d_2"/><g transform="matrix(.14 0 0 -.14 199.928 330.553)" fill="#969696" id="text_2"><defs><path d="M10.594 24.703h22.61v31.89h-.188zM42 17.093V0h-8.797v17.094H2.484v8.593L34.72 70.314H42v-45.61h10.297v-7.61z" id="HelveticaWorld-Regular-52"/></defs><use xlink:href="#HelveticaWorld-Regular-48"/><use x="55.615" xlink:href="#HelveticaWorld-Regular-46"/><use x="83.398" xlink:href="#HelveticaWorld-Regular-52"/></g></g><g transform="matrix(.14 0 0 -.14 169.329 347.5)" fill="#969696" id="text_3"><defs><path d="M49.031 0H37.703l-12.89 19.672L12.203 0H1.125l18.266 26.906L2 52.296h11.188l12.109-18.405L37.5 52.297h10.688l-17.579-25.39z" id="HelveticaWorld-Regular-120"/></defs><use xlink:href="#HelveticaWorld-Regular-120"/></g></g><g id="matplotlib.axis_2"><g id="ytick_1"><g id="line2d_3"><defs><path d="M0 0h-3.5" id="m00692c45ab" stroke="#969696" stroke-width=".3"/></defs><use x="48.918" xlink:href="#m00692c45ab" y="275.726" fill="#969696" stroke="#969696" stroke-width=".3"/></g><g transform="matrix(.14 0 0 -.14 14.673 280.75)" fill="#969696" id="text_4"><use xlink:href="#HelveticaWorld-Regular-48"/><use x="55.615" xlink:href="#HelveticaWorld-Regular-46"/><use x="83.398" xlink:href="#HelveticaWorld-Regular-51"/><use x="139.014" xlink:href="#HelveticaWorld-Regular-48"/></g></g><g id="ytick_2"><use x="48.918" xlink:href="#m00692c45ab" y="228.448" fill="#969696" stroke="#969696" stroke-width=".3" id="line2d_4"/><g transform="matrix(.14 0 0 -.14 14.673 233.472)" fill="#969696" id="text_5"><defs><path d="M14.703 40.922q5.813 4.39 13.625 4.39 9.469 0 16.281-6.296 6.813-6.297 6.813-16.22 0-10.78-6.578-17.796-6.563-7-18.422-7-10.313 0-16.266 5.047Q4.203 8.109 3.22 17.39h9.094q.671-5.672 4.437-8.672 3.766-3 10.453-3 6.485 0 10.64 4.484Q42 14.703 42 21.688q0 7.125-4.36 11.421-4.343 4.297-11.218 4.297-7.813 0-13.047-6.687l-7.563.39 5.266 37.594h36.438v-8.5H17.672z" id="HelveticaWorld-Regular-53"/></defs><use xlink:href="#HelveticaWorld-Regular-48"/><use x="55.615" xlink:href="#HelveticaWorld-Regular-46"/><use x="83.398" xlink:href="#HelveticaWorld-Regular-51"/><use x="139.014" xlink:href="#HelveticaWorld-Regular-53"/></g></g><g id="ytick_3"><use x="48.918" xlink:href="#m00692c45ab" y="181.17" fill="#969696" stroke="#969696" stroke-width=".3" id="line2d_5"/><g transform="matrix(.14 0 0 -.14 14.673 186.194)" fill="#969696" id="text_6"><use xlink:href="#HelveticaWorld-Regular-48"/><use x="55.615" xlink:href="#HelveticaWorld-Regular-46"/><use x="83.398" xlink:href="#HelveticaWorld-Regular-52"/><use x="139.014" xlink:href="#HelveticaWorld-Regular-48"/></g></g><g id="ytick_4"><use x="48.918" xlink:href="#m00692c45ab" y="133.891" fill="#969696" stroke="#969696" stroke-width=".3" id="line2d_6"/><g transform="matrix(.14 0 0 -.14 14.673 138.916)" fill="#969696" id="text_7"><use xlink:href="#HelveticaWorld-Regular-48"/><use x="55.615" xlink:href="#HelveticaWorld-Regular-46"/><use x="83.398" xlink:href="#HelveticaWorld-Regular-52"/><use x="139.014" xlink:href="#HelveticaWorld-Regular-53"/></g></g><g id="ytick_5"><use x="48.918" xlink:href="#m00692c45ab" y="86.613" fill="#969696" stroke="#969696" stroke-width=".3" id="line2d_7"/><g transform="matrix(.14 0 0 -.14 14.673 91.638)" fill="#969696" id="text_8"><use xlink:href="#HelveticaWorld-Regular-48"/><use x="55.615" xlink:href="#HelveticaWorld-Regular-46"/><use x="83.398" xlink:href="#HelveticaWorld-Regular-53"/><use x="139.014" xlink:href="#HelveticaWorld-Regular-48"/></g></g><g transform="matrix(.14 0 0 -.14 7.2 177.453)" fill="#969696" id="text_9"><defs><path d="M39.016 52.297h9.562L29.891.984q-.5-1.375-.985-2.593-4.25-11.329-7.328-15.547-3.078-4.235-9.953-4.235-3.61 0-5.906.782v8.015q2.484-.89 5.468-.89 3.22 0 4.704 2.03 1.5 2.032 4.421 9.938L.875 52.297h9.922L24.812 9.719H25z" id="HelveticaWorld-Regular-121"/></defs><use xlink:href="#HelveticaWorld-Regular-121"/></g></g><g transform="matrix(.14 0 0 -.14 33.123 17.392)" fill="#969696" id="text_10"><defs><path d="M67.484 0v42.39q0 .829.094 8.126t.094 9.78h-.281L47.312 0h-9.609L17.578 60.203h-.297q0-3.61.094-10.297.11-6.687.11-7.515V0H8.108v71.781h13.86L42.39 11.078h.28l20.313 60.703h13.922V0z" id="HelveticaWorld-Regular-77"/><path d="M38.375 26.703q-.969-1.015-3.828-1.656-2.86-.625-10.672-1.656-5.766-.688-8.469-2.844-2.703-2.14-2.703-5.656 0-4.297 2.281-6.688 2.297-2.39 7.329-2.39 6.296 0 11.171 3.578 4.891 3.593 4.891 8.718zM6.203 36.375q.297 8.844 5.734 13.14 5.454 4.297 15.844 4.297 8.297 0 13.907-3.765 5.624-3.75 5.624-10.844V9.078Q47.313 6 50.094 6q1.125 0 2.89.39V0Q50.594-.984 48-.984q-4.5 0-6.703 1.921-2.188 1.938-2.281 6.047-7.516-8.5-18.891-8.5-7.422 0-11.922 4.204Q3.72 6.89 3.72 13.624q0 6.89 3.906 11.125Q11.531 29 19 29.89l15.516 1.891q4.203.64 4.203 6.203 0 4.11-3.047 6.297-3.047 2.203-9.25 2.203-5.516 0-8.485-2.437-2.953-2.438-3.53-7.672z" id="HelveticaWorld-Regular-97"/><path d="M39.594 34.719q-1.89 11.187-12.39 11.187-6.5 0-10.454-5.203-3.953-5.203-3.953-14.484 0-10.11 3.656-15.11 3.672-5 10.64-5 4.688 0 8.11 3.438 3.422 3.437 4.39 8.953h8.5q-1.312-9.703-6.859-14.86-5.547-5.156-14.328-5.156-10.297 0-16.89 7.047-6.594 7.063-6.594 19.172 0 13.281 6.594 21.188 6.593 7.922 18.5 7.922 8.687 0 13.843-5.204 5.157-5.203 5.735-13.89z" id="HelveticaWorld-Regular-99"/><path d="M44 29.5L33.406 61.078h-.203L21.687 29.5zm-25.297-8.594L11.188 0h-9.97l27 71.781h10.985L65.187 0H54.594l-7.078 20.906z" id="HelveticaWorld-Regular-65"/><path d="M13.094 26.313q0-9.704 3.844-14.954 3.859-5.25 10.265-5.25 6.094 0 10.188 4.485 4.109 4.5 4.109 13.094 0 11.03-3.5 16.625-3.484 5.593-10.61 5.593-6.78 0-10.546-4.453-3.75-4.437-3.75-15.14zM50.39 0h-8.297v7.172h-.203q-4.97-8.688-15.078-8.688-10.891 0-16.86 8.297Q4 15.094 4 27.688q0 11.625 5.906 18.875 5.922 7.25 15.875 7.25 9.813 0 15.625-8.891l.203.594V71.78h8.782z" id="HelveticaWorld-Regular-100"/><path d="M6.594 52.297h8.297v-7.375h.203q5.906 8.89 15.812 8.89 9.813 0 13.922-8.5 3.75 4.594 7.266 6.547 3.515 1.953 8.703 1.953 6.781 0 11.484-4.453Q77 44.922 77 36.187V0h-8.781v33.797q0 6.094-2.297 9.094-2.297 3.015-7.422 3.015-5.172 0-8.75-4.203-3.563-4.203-3.563-9.812V0h-8.78v36.188q0 4.53-2.11 7.124-2.094 2.594-6.094 2.594-6.297 0-10.062-4.687-3.766-4.688-3.766-12.703V0H6.594z" id="HelveticaWorld-Regular-109"/><path d="M35.89 0h-9.374v49.906H10.109v6.985q8.594.28 12.782 2.75Q27.094 62.109 29 70.313h6.89z" id="HelveticaWorld-Regular-49"/><path d="M27.594 31.39q6 0 9.75 4.047 3.765 4.063 3.765 11.97 0 6.5-3.562 10.75-3.563 4.25-10.64 4.25-6.11 0-9.876-4.298-3.75-4.297-3.75-11.53 0-7.376 3.516-11.282 3.515-3.906 10.797-3.906zm-1.282-7.906q-10 0-16.062 6.203-6.047 6.204-6.047 16.5 0 10.407 6.094 17.266 6.11 6.86 16.515 6.86 12.11 0 18.36-8.157 6.25-8.156 6.25-24.453 0-16.906-6.406-28.266Q38.625-1.905 25.875-1.905q-9.953 0-15.422 5.593-5.469 5.594-5.469 13.204h8.829q.39-5.266 3.437-8.375 3.063-3.094 8.438-3.094 7.609 0 11.515 6.781Q41.11 19 42.578 31.688l-.187.203q-5.672-8.407-16.078-8.407z" id="HelveticaWorld-Regular-57"/><path d="M3.719 68.797h48.578v-7.719Q42.28 50.875 33.984 33.484 25.687 16.11 23.391 0h-9.672q1.469 13.281 9.719 30.531 8.25 17.266 18.953 29.672H3.719z" id="HelveticaWorld-Regular-55"/><path d="M12.703 26.219q0-8.735 3.953-14.375 3.953-5.64 11.219-5.64 7.531 0 11.438 5.905 3.906 5.907 3.906 14.11 0 8.297-3.907 14.078-3.906 5.797-11.437 5.797-6.969 0-11.078-5.453-4.094-5.438-4.094-14.422zm-8.984 0q0 11.672 6.484 19.625 6.5 7.968 17.672 7.968 11.438 0 17.875-8.062 6.453-8.047 6.453-19.531 0-11.516-6.406-19.625-6.39-8.11-17.922-8.11-11.078 0-17.625 7.86-6.531 7.86-6.531 19.875z" id="HelveticaWorld-Regular-111"/><path d="M15.375 0H6.594v71.781h8.781z" id="HelveticaWorld-Regular-108"/><path d="M15.375 0H6.594v52.297h8.297v-8.688h.203q5.703 10.203 14.687 10.203 1.422 0 2.297-.296V44.39h-3.266q-5.906 0-9.671-4.016-3.766-4-3.766-9.953z" id="HelveticaWorld-Regular-114"/><path d="M6.594 61.813v9.968h8.781v-9.969zM15.375 0H6.594v52.297h8.781z" id="HelveticaWorld-Regular-105"/><path d="M36.078 37.406q-.187 4.688-3.344 6.735-3.14 2.047-9.047 2.047-4.296 0-7.359-1.907-3.047-1.89-3.047-5.468 0-2.829 1.797-4.172 1.813-1.344 7.828-2.86l8.688-2.187q7.906-2 11.297-5.11 3.406-3.093 3.406-8.656 0-7.719-5.64-12.531-5.641-4.813-15.063-4.813-11 0-16.64 4.563-5.626 4.578-5.735 13.75h8.5q.203-5.422 3.594-8.063 3.39-2.625 10.171-2.625 5.516 0 8.766 2.188 3.25 2.203 3.25 6.11 0 2.78-2.11 4.437-2.093 1.672-8.296 3.078l-10.203 2.5q-6.203 1.562-9.157 4.656-2.953 3.094-2.953 8.031 0 7.72 5.516 12.203 5.531 4.5 14.406 4.5 9.485 0 14.531-4.624 5.047-4.61 5.344-11.782z" id="HelveticaWorld-Regular-115"/><path d="M17.188 45.016V10.984q0-2 1.093-3.046 1.11-1.047 3.938-1.047h3.375V0Q20.797-.688 19-.688q-5.516 0-8.063 2.641-2.53 2.64-2.53 8.547v34.516H1.311v7.28h7.094v14.595h8.781V52.297h8.407v-7.281z" id="HelveticaWorld-Regular-116"/><path d="M49.219 0h-8.844v32.172q0 7.422-2.594 10.578-2.578 3.156-8.578 3.156-5.906 0-9.875-4.5-3.953-4.484-3.953-12.89V0H6.594v52.297h8.297v-7.375h.203q6.203 8.89 15.812 8.89 8.89 0 13.594-4.718 4.719-4.703 4.719-13.5z" id="HelveticaWorld-Regular-110"/><path d="M42.484 30.328q-.687 8.485-4.5 12.031-3.797 3.547-10.109 3.547-6.39 0-10.328-4.5-3.922-4.484-4.172-11.078zm8.391-13.922q-1.453-8.11-7.953-13.422-5.719-4.5-15.047-4.593-10.984.093-17.438 7.203Q4 12.704 4 24.704q0 13.78 6.64 21.437 6.641 7.672 18.47 7.672 10.593 0 16.546-7.922 5.953-7.907 5.953-22.594H13.375q0-8.203 3.813-12.703Q21 6.109 28.608 6.109q5.375 0 9.235 3.235 3.86 3.25 4.25 7.062z" id="HelveticaWorld-Regular-101"/><path d="M17.188 45.016V0H8.405v45.016H1.22v7.28h7.187v8.985q0 5.907 3.578 8.703 3.594 2.813 10.032 2.813 2.203 0 3.968-.188v-7.906q-1.562.188-3.578.188-2.922 0-4.078-1.438-1.14-1.437-1.14-4.656v-6.5h8.796v-7.281z" id="HelveticaWorld-Regular-102"/><path d="M37.313 0h-9.72v28.906L.485 71.781h11.329l20.609-34.469 20.562 34.47h11.422L37.312 28.905z" id="HelveticaWorld-Regular-89"/><path d="M0-12.313v4.891h55.61v-4.89z" id="HelveticaWorld-Regular-95"/></defs><use xlink:href="#HelveticaWorld-Regular-77"/><use x="85.01" xlink:href="#HelveticaWorld-Regular-97"/><use x="139.941" xlink:href="#HelveticaWorld-Regular-99"/><use x="191.211" xlink:href="#HelveticaWorld-Regular-65"/><use x="256.41" xlink:href="#HelveticaWorld-Regular-100"/><use x="313.393" xlink:href="#HelveticaWorld-Regular-97"/><use x="368.324" xlink:href="#HelveticaWorld-Regular-109"/><use x="451.332" xlink:href="#HelveticaWorld-Regular-32"/><use x="475.746" xlink:href="#HelveticaWorld-Regular-49"/><use x="531.361" xlink:href="#HelveticaWorld-Regular-57"/><use x="586.977" xlink:href="#HelveticaWorld-Regular-55"/><use x="642.592" xlink:href="#HelveticaWorld-Regular-52"/><use x="698.207" xlink:href="#HelveticaWorld-Regular-32"/><use x="722.621" xlink:href="#HelveticaWorld-Regular-99"/><use x="773.891" xlink:href="#HelveticaWorld-Regular-111"/><use x="829.799" xlink:href="#HelveticaWorld-Regular-108"/><use x="851.82" xlink:href="#HelveticaWorld-Regular-111"/><use x="907.729" xlink:href="#HelveticaWorld-Regular-114"/><use x="940.297" xlink:href="#HelveticaWorld-Regular-32"/><use x="964.711" xlink:href="#HelveticaWorld-Regular-100"/><use x="1021.693" xlink:href="#HelveticaWorld-Regular-105"/><use x="1043.715" xlink:href="#HelveticaWorld-Regular-115"/><use x="1093.715" xlink:href="#HelveticaWorld-Regular-116"/><use x="1121.4" xlink:href="#HelveticaWorld-Regular-97"/><use x="1176.332" xlink:href="#HelveticaWorld-Regular-110"/><use x="1231.508" xlink:href="#HelveticaWorld-Regular-99"/><use x="1282.777" xlink:href="#HelveticaWorld-Regular-101"/><use x="1338.197" xlink:href="#HelveticaWorld-Regular-32"/><use x="1362.611" xlink:href="#HelveticaWorld-Regular-100"/><use x="1419.594" xlink:href="#HelveticaWorld-Regular-97"/><use x="1474.525" xlink:href="#HelveticaWorld-Regular-116"/><use x="1502.211" xlink:href="#HelveticaWorld-Regular-97"/><use x="1557.143" xlink:href="#HelveticaWorld-Regular-32"/><use x="1581.557" xlink:href="#HelveticaWorld-Regular-102"/><use x="1607.242" xlink:href="#HelveticaWorld-Regular-111"/><use x="1663.15" xlink:href="#HelveticaWorld-Regular-114"/><use x="1695.719" xlink:href="#HelveticaWorld-Regular-32"/><use x="1720.133" xlink:href="#HelveticaWorld-Regular-120"/><use x="1770.133" xlink:href="#HelveticaWorld-Regular-121"/><use x="1819.742" xlink:href="#HelveticaWorld-Regular-89"/><use x="1884.537" xlink:href="#HelveticaWorld-Regular-95"/><use x="1940.152" xlink:href="#HelveticaWorld-Regular-49"/></g></g></g><defs><clipPath id="p4cb472f5c2"><path d="M48.918 47.392h247.821v266.112H48.918z"/></clipPath></defs></svg>