<svg height="476.965" viewBox="0 0 378.17 357.724" width="504.227" xmlns="http://www.w3.org/2000/svg" xmlns:xlink="http://www.w3.org/1999/xlink"><defs><style>*{stroke-linecap:butt;stroke-linejoin:round}</style></defs><g id="figure_1"><path d="M0 357.724h378.17V0H0z" fill="none" id="patch_1"/><g id="axes_1"><path d="M47.265 313.628h317.739V47.516H47.265z" fill="none" id="patch_2"/><g id="PathCollection_1"><defs><path d="M0 3a3 3 0 100-6 3 3 0 000 6z" id="m4e16130558" stroke="#000"/></defs><g clip-path="url(#pf98047bf69)" stroke="#000"><use x="61.711" xlink:href="#m4e16130558" y="76.23"/><use x="73.188" xlink:href="#m4e16130558" y="110.906"/><use x="61.711" xlink:href="#m4e16130558" y="76.23"/><use x="109.911" xlink:href="#m4e16130558" y="82.68"/><use x="73.188" xlink:href="#m4e16130558" y="110.906"/><use x="109.911" xlink:href="#m4e16130558" y="82.68"/><use x="73.188" xlink:href="#m4e16130558" y="110.906"/><use x="67.645" xlink:href="#m4e16130558" y="152.331"/><use x="73.188" xlink:href="#m4e16130558" y="110.906"/><use x="101.785" xlink:href="#m4e16130558" y="128.01"/><use x="109.911" xlink:href="#m4e16130558" y="82.68"/><use x="149.797" xlink:href="#m4e16130558" y="63.76"/><use x="109.911" xlink:href="#m4e16130558" y="82.68"/><use x="101.785" xlink:href="#m4e16130558" y="128.01"/><use x="109.911" xlink:href="#m4e16130558" y="82.68"/><use x="144.959" xlink:href="#m4e16130558" y="100.331"/><use x="149.797" xlink:href="#m4e16130558" y="63.76"/><use x="144.959" xlink:href="#m4e16130558" y="100.331"/><use x="149.797" xlink:href="#m4e16130558" y="63.76"/><use x="178.984" xlink:href="#m4e16130558" y="86.698"/><use x="67.645" xlink:href="#m4e16130558" y="152.331"/><use x="101.785" xlink:href="#m4e16130558" y="128.01"/><use x="67.645" xlink:href="#m4e16130558" y="152.331"/><use x="71.173" xlink:href="#m4e16130558" y="201.803"/><use x="67.645" xlink:href="#m4e16130558" y="152.331"/><use x="102.416" xlink:href="#m4e16130558" y="175.572"/><use x="101.785" xlink:href="#m4e16130558" y="128.01"/><use x="144.959" xlink:href="#m4e16130558" y="100.331"/><use x="101.785" xlink:href="#m4e16130558" y="128.01"/><use x="102.416" xlink:href="#m4e16130558" y="175.572"/><use x="101.785" xlink:href="#m4e16130558" y="128.01"/><use x="142.27" xlink:href="#m4e16130558" y="145.652"/><use x="144.959" xlink:href="#m4e16130558" y="100.331"/><use x="178.984" xlink:href="#m4e16130558" y="86.698"/><use x="144.959" xlink:href="#m4e16130558" y="100.331"/><use x="142.27" xlink:href="#m4e16130558" y="145.652"/><use x="144.959" xlink:href="#m4e16130558" y="100.331"/><use x="185.268" xlink:href="#m4e16130558" y="119.039"/><use x="178.984" xlink:href="#m4e16130558" y="86.698"/><use x="212.689" xlink:href="#m4e16130558" y="59.615"/><use x="178.984" xlink:href="#m4e16130558" y="86.698"/><use x="185.268" xlink:href="#m4e16130558" y="119.039"/><use x="178.984" xlink:href="#m4e16130558" y="86.698"/><use x="218.22" xlink:href="#m4e16130558" y="101.954"/><use x="212.689" xlink:href="#m4e16130558" y="59.615"/><use x="218.22" xlink:href="#m4e16130558" y="101.954"/><use x="212.689" xlink:href="#m4e16130558" y="59.615"/><use x="248.95" xlink:href="#m4e16130558" y="82.809"/><use x="71.173" xlink:href="#m4e16130558" y="201.803"/><use x="102.416" xlink:href="#m4e16130558" y="175.572"/><use x="71.173" xlink:href="#m4e16130558" y="201.803"/><use x="89.06" xlink:href="#m4e16130558" y="241.457"/><use x="71.173" xlink:href="#m4e16130558" y="201.803"/><use x="108.206" xlink:href="#m4e16130558" y="225.376"/><use x="102.416" xlink:href="#m4e16130558" y="175.572"/><use x="142.27" xlink:href="#m4e16130558" y="145.652"/><use x="102.416" xlink:href="#m4e16130558" y="175.572"/><use x="108.206" xlink:href="#m4e16130558" y="225.376"/><use x="102.416" xlink:href="#m4e16130558" y="175.572"/><use x="143.178" xlink:href="#m4e16130558" y="200.098"/><use x="142.27" xlink:href="#m4e16130558" y="145.652"/><use x="185.268" xlink:href="#m4e16130558" y="119.039"/><use x="142.27" xlink:href="#m4e16130558" y="145.652"/><use x="143.178" xlink:href="#m4e16130558" y="200.098"/><use x="142.27" xlink:href="#m4e16130558" y="145.652"/><use x="188.307" xlink:href="#m4e16130558" y="164.504"/><use x="185.268" xlink:href="#m4e16130558" y="119.039"/><use x="218.22" xlink:href="#m4e16130558" y="101.954"/><use x="185.268" xlink:href="#m4e16130558" y="119.039"/><use x="188.307" xlink:href="#m4e16130558" y="164.504"/><use x="185.268" xlink:href="#m4e16130558" y="119.039"/><use x="226.324" xlink:href="#m4e16130558" y="144.445"/><use x="218.22" xlink:href="#m4e16130558" y="101.954"/><use x="248.95" xlink:href="#m4e16130558" y="82.809"/><use x="218.22" xlink:href="#m4e16130558" y="101.954"/><use x="226.324" xlink:href="#m4e16130558" y="144.445"/><use x="218.22" xlink:href="#m4e16130558" y="101.954"/><use x="256.044" xlink:href="#m4e16130558" y="121.256"/><use x="248.95" xlink:href="#m4e16130558" y="82.809"/><use x="273.906" xlink:href="#m4e16130558" y="69.593"/><use x="248.95" xlink:href="#m4e16130558" y="82.809"/><use x="256.044" xlink:href="#m4e16130558" y="121.256"/><use x="248.95" xlink:href="#m4e16130558" y="82.809"/><use x="284.5" xlink:href="#m4e16130558" y="105.141"/><use x="273.906" xlink:href="#m4e16130558" y="69.593"/><use x="284.5" xlink:href="#m4e16130558" y="105.141"/><use x="273.906" xlink:href="#m4e16130558" y="69.593"/><use x="306.116" xlink:href="#m4e16130558" y="83.752"/><use x="89.06" xlink:href="#m4e16130558" y="241.457"/><use x="108.206" xlink:href="#m4e16130558" y="225.376"/><use x="89.06" xlink:href="#m4e16130558" y="241.457"/><use x="131.565" xlink:href="#m4e16130558" y="278.378"/><use x="108.206" xlink:href="#m4e16130558" y="225.376"/><use x="143.178" xlink:href="#m4e16130558" y="200.098"/><use x="108.206" xlink:href="#m4e16130558" y="225.376"/><use x="131.565" xlink:href="#m4e16130558" y="278.378"/><use x="108.206" xlink:href="#m4e16130558" y="225.376"/><use x="160.407" xlink:href="#m4e16130558" y="257.411"/><use x="143.178" xlink:href="#m4e16130558" y="200.098"/><use x="188.307" xlink:href="#m4e16130558" y="164.504"/><use x="143.178" xlink:href="#m4e16130558" y="200.098"/><use x="160.407" xlink:href="#m4e16130558" y="257.411"/><use x="143.178" xlink:href="#m4e16130558" y="200.098"/><use x="198.806" xlink:href="#m4e16130558" y="222.895"/><use x="188.307" xlink:href="#m4e16130558" y="164.504"/><use x="226.324" xlink:href="#m4e16130558" y="144.445"/><use x="188.307" xlink:href="#m4e16130558" y="164.504"/><use x="198.806" xlink:href="#m4e16130558" y="222.895"/><use x="188.307" xlink:href="#m4e16130558" y="164.504"/><use x="237.182" xlink:href="#m4e16130558" y="182.704"/><use x="226.324" xlink:href="#m4e16130558" y="144.445"/><use x="256.044" xlink:href="#m4e16130558" y="121.256"/><use x="226.324" xlink:href="#m4e16130558" y="144.445"/><use x="237.182" xlink:href="#m4e16130558" y="182.704"/><use x="226.324" xlink:href="#m4e16130558" y="144.445"/><use x="269.862" xlink:href="#m4e16130558" y="158.591"/><use x="256.044" xlink:href="#m4e16130558" y="121.256"/><use x="284.5" xlink:href="#m4e16130558" y="105.141"/><use x="256.044" xlink:href="#m4e16130558" y="121.256"/><use x="269.862" xlink:href="#m4e16130558" y="158.591"/><use x="256.044" xlink:href="#m4e16130558" y="121.256"/><use x="290.11" xlink:href="#m4e16130558" y="138.661"/><use x="284.5" xlink:href="#m4e16130558" y="105.141"/><use x="306.116" xlink:href="#m4e16130558" y="83.752"/><use x="284.5" xlink:href="#m4e16130558" y="105.141"/><use x="290.11" xlink:href="#m4e16130558" y="138.661"/><use x="284.5" xlink:href="#m4e16130558" y="105.141"/><use x="322.638" xlink:href="#m4e16130558" y="118.074"/><use x="306.116" xlink:href="#m4e16130558" y="83.752"/><use x="322.638" xlink:href="#m4e16130558" y="118.074"/><use x="306.116" xlink:href="#m4e16130558" y="83.752"/><use x="341.694" xlink:href="#m4e16130558" y="107.244"/><use x="131.565" xlink:href="#m4e16130558" y="278.378"/><use x="160.407" xlink:href="#m4e16130558" y="257.411"/><use x="131.565" xlink:href="#m4e16130558" y="278.378"/><use x="195.265" xlink:href="#m4e16130558" y="301.53"/><use x="160.407" xlink:href="#m4e16130558" y="257.411"/><use x="198.806" xlink:href="#m4e16130558" y="222.895"/><use x="160.407" xlink:href="#m4e16130558" y="257.411"/><use x="195.265" xlink:href="#m4e16130558" y="301.53"/><use x="160.407" xlink:href="#m4e16130558" y="257.411"/><use x="223.251" xlink:href="#m4e16130558" y="272.638"/><use x="198.806" xlink:href="#m4e16130558" y="222.895"/><use x="237.182" xlink:href="#m4e16130558" y="182.704"/><use x="198.806" xlink:href="#m4e16130558" y="222.895"/><use x="223.251" xlink:href="#m4e16130558" y="272.638"/><use x="198.806" xlink:href="#m4e16130558" y="222.895"/><use x="253.863" xlink:href="#m4e16130558" y="238.422"/><use x="237.182" xlink:href="#m4e16130558" y="182.704"/><use x="269.862" xlink:href="#m4e16130558" y="158.591"/><use x="237.182" xlink:href="#m4e16130558" y="182.704"/><use x="253.863" xlink:href="#m4e16130558" y="238.422"/><use x="237.182" xlink:href="#m4e16130558" y="182.704"/><use x="277.029" xlink:href="#m4e16130558" y="198.392"/><use x="269.862" xlink:href="#m4e16130558" y="158.591"/><use x="290.11" xlink:href="#m4e16130558" y="138.661"/><use x="269.862" xlink:href="#m4e16130558" y="158.591"/><use x="277.029" xlink:href="#m4e16130558" y="198.392"/><use x="269.862" xlink:href="#m4e16130558" y="158.591"/><use x="298.83" xlink:href="#m4e16130558" y="171.018"/><use x="290.11" xlink:href="#m4e16130558" y="138.661"/><use x="322.638" xlink:href="#m4e16130558" y="118.074"/><use x="290.11" xlink:href="#m4e16130558" y="138.661"/><use x="298.83" xlink:href="#m4e16130558" y="171.018"/><use x="290.11" xlink:href="#m4e16130558" y="138.661"/><use x="328.589" xlink:href="#m4e16130558" y="152.065"/><use x="322.638" xlink:href="#m4e16130558" y="118.074"/><use x="341.694" xlink:href="#m4e16130558" y="107.244"/><use x="322.638" xlink:href="#m4e16130558" y="118.074"/><use x="328.589" xlink:href="#m4e16130558" y="152.065"/><use x="322.638" xlink:href="#m4e16130558" y="118.074"/><use x="350.558" xlink:href="#m4e16130558" y="137.227"/><use x="341.694" xlink:href="#m4e16130558" y="107.244"/><use x="350.558" xlink:href="#m4e16130558" y="137.227"/><use x="195.265" xlink:href="#m4e16130558" y="301.53"/><use x="223.251" xlink:href="#m4e16130558" y="272.638"/><use x="223.251" xlink:href="#m4e16130558" y="272.638"/><use x="253.863" xlink:href="#m4e16130558" y="238.422"/><use x="223.251" xlink:href="#m4e16130558" y="272.638"/><use x="283.095" xlink:href="#m4e16130558" y="273.329"/><use x="253.863" xlink:href="#m4e16130558" y="238.422"/><use x="277.029" xlink:href="#m4e16130558" y="198.392"/><use x="253.863" xlink:href="#m4e16130558" y="238.422"/><use x="283.095" xlink:href="#m4e16130558" y="273.329"/><use x="253.863" xlink:href="#m4e16130558" y="238.422"/><use x="306.153" xlink:href="#m4e16130558" y="241.659"/><use x="277.029" xlink:href="#m4e16130558" y="198.392"/><use x="298.83" xlink:href="#m4e16130558" y="171.018"/><use x="277.029" xlink:href="#m4e16130558" y="198.392"/><use x="306.153" xlink:href="#m4e16130558" y="241.659"/><use x="277.029" xlink:href="#m4e16130558" y="198.392"/><use x="332.356" xlink:href="#m4e16130558" y="210.128"/><use x="298.83" xlink:href="#m4e16130558" y="171.018"/><use x="328.589" xlink:href="#m4e16130558" y="152.065"/><use x="298.83" xlink:href="#m4e16130558" y="171.018"/><use x="332.356" xlink:href="#m4e16130558" y="210.128"/><use x="298.83" xlink:href="#m4e16130558" y="171.018"/><use x="347.232" xlink:href="#m4e16130558" y="193.806"/><use x="328.589" xlink:href="#m4e16130558" y="152.065"/><use x="350.558" xlink:href="#m4e16130558" y="137.227"/><use x="328.589" xlink:href="#m4e16130558" y="152.065"/><use x="347.232" xlink:href="#m4e16130558" y="193.806"/><use x="283.095" xlink:href="#m4e16130558" y="273.329"/><use x="306.153" xlink:href="#m4e16130558" y="241.659"/><use x="306.153" xlink:href="#m4e16130558" y="241.659"/><use x="332.356" xlink:href="#m4e16130558" y="210.128"/><use x="332.356" xlink:href="#m4e16130558" y="210.128"/><use x="347.232" xlink:href="#m4e16130558" y="193.806"/></g></g><path clip-path="url(#pf98047bf69)" d="M68.77 97.557l-.017-.022.006-.002-7.051-21.302.006-.002 7.05 21.302.006-.002z" stroke="#000" id="patch_3"/><path clip-path="url(#pf98047bf69)" d="M66.13 89.58l.016.022-.006.002 7.051 21.301-.005.002-7.051-21.301-.006.002z" stroke="#000" id="patch_4"/><path clip-path="url(#pf98047bf69)" d="M86.833 79.592l-.027.005.001-.006-25.097-3.358.001-.006 25.097 3.359v-.006z" stroke="#000" id="patch_5"/><path clip-path="url(#pf98047bf69)" d="M84.789 79.318l.027-.005-.001.006 25.097 3.358-.001.006-25.097-3.358v.005z" stroke="#000" id="patch_6"/><path clip-path="url(#pf98047bf69)" d="M89.967 98.01l-.015.023-.004-.005-16.758 12.88-.003-.004 16.758-12.88-.004-.005z" stroke="#000" id="patch_7"/><path clip-path="url(#pf98047bf69)" d="M93.133 95.577l.015-.023.004.004 16.757-12.88.004.004-16.758 12.88.004.006z" stroke="#000" id="patch_8"/><path clip-path="url(#pf98047bf69)" d="M70.405 131.706l-.005-.027.006.001 2.78-20.774h.005l-2.78 20.775h.006z" stroke="#000" id="patch_9"/><path clip-path="url(#pf98047bf69)" d="M70.429 131.531l.005.028-.006-.001-2.78 20.774-.006-.001 2.78-20.774h-.006z" stroke="#000" id="patch_10"/><path clip-path="url(#pf98047bf69)" d="M87.905 119.709l-.027-.006.003-.005-14.694-8.79.003-.004 14.694 8.789.003-.005z" stroke="#000" id="patch_11"/><path clip-path="url(#pf98047bf69)" d="M87.068 119.208l.027.006-.003.005 14.694 8.788-.003.005-14.694-8.788-.003.005z" stroke="#000" id="patch_12"/><path clip-path="url(#pf98047bf69)" d="M132.087 72.16l-.02.02-.003-.005-22.151 10.507-.003-.005 22.152-10.508-.003-.005z" stroke="#000" id="patch_13"/><path clip-path="url(#pf98047bf69)" d="M127.622 74.279l.02-.02.002.006 22.152-10.508.002.005-22.151 10.508.002.005z" stroke="#000" id="patch_14"/><path clip-path="url(#pf98047bf69)" d="M105.192 109.004l-.004-.027h.006l4.714-26.298.006.001-4.714 26.299.005.001z" stroke="#000" id="patch_15"/><path clip-path="url(#pf98047bf69)" d="M106.504 101.686l.004.027-.006-.001-4.714 26.299-.006-.002 4.715-26.298-.006-.001z" stroke="#000" id="patch_16"/><path clip-path="url(#pf98047bf69)" d="M127.21 91.392l-.027-.004.003-.005-17.276-8.7.003-.006 17.276 8.7.002-.004z" stroke="#000" id="patch_17"/><path clip-path="url(#pf98047bf69)" d="M127.66 91.618l.027.004-.003.005 17.276 8.701-.003.005-17.276-8.7-.002.005z" stroke="#000" id="patch_18"/><path clip-path="url(#pf98047bf69)" d="M147.403 81.858l-.006-.027h.006l2.391-18.072.006.001-2.391 18.073h.006z" stroke="#000" id="patch_19"/><path clip-path="url(#pf98047bf69)" d="M147.353 82.232l.005.027h-.005l-2.391 18.072h-.006l2.39-18.073-.005-.001z" stroke="#000" id="patch_20"/><path clip-path="url(#pf98047bf69)" d="M165.537 76.13l-.026-.01.003-.005-15.719-12.353.004-.005 15.72 12.354.003-.005z" stroke="#000" id="patch_21"/><path clip-path="url(#pf98047bf69)" d="M163.245 74.328l.026.01-.004.004 15.72 12.353-.004.005-15.72-12.354-.003.005z" stroke="#000" id="patch_22"/><path clip-path="url(#pf98047bf69)" d="M85.406 139.679l-.016.022-.004-.005-17.739 12.638-.003-.005 17.739-12.638-.004-.004z" stroke="#000" id="patch_23"/><path clip-path="url(#pf98047bf69)" d="M84.024 140.663l.017-.022.003.004 17.74-12.637.003.004-17.74 12.638.004.005z" stroke="#000" id="patch_24"/><path clip-path="url(#pf98047bf69)" d="M69.446 177.575l-.011-.026h.006l-1.799-25.217h.006l1.799 25.216h.005z" stroke="#000" id="patch_25"/><path clip-path="url(#pf98047bf69)" d="M69.373 176.56l.01.025h-.005l1.798 25.218h-.006l-1.798-25.217h-.006z" stroke="#000" id="patch_26"/><path clip-path="url(#pf98047bf69)" d="M81.715 161.735l-.027-.007.003-.005-14.047-9.39.003-.004 14.048 9.39.003-.005z" stroke="#000" id="patch_27"/><path clip-path="url(#pf98047bf69)" d="M88.346 166.168l.027.007-.003.005 14.048 9.39-.004.004-14.047-9.39-.004.006z" stroke="#000" id="patch_28"/><path clip-path="url(#pf98047bf69)" d="M118.478 117.308l-.017.021-.003-.005-16.672 10.688-.003-.004 16.672-10.689-.003-.005z" stroke="#000" id="patch_29"/><path clip-path="url(#pf98047bf69)" d="M128.265 111.033l.018-.021.003.005 16.671-10.689.003.005-16.671 10.688.003.005z" stroke="#000" id="patch_30"/><path clip-path="url(#pf98047bf69)" d="M102.05 147.95l-.01-.027h.006l-.264-19.913h.006l.264 19.913h.006z" stroke="#000" id="patch_31"/><path clip-path="url(#pf98047bf69)" d="M102.151 155.633l.01.026h-.006l.264 19.913h-.006l-.264-19.913h-.006z" stroke="#000" id="patch_32"/><path clip-path="url(#pf98047bf69)" d="M112.834 132.825l-.028-.003.002-.005-11.024-4.804.002-.006 11.025 4.805.002-.006z" stroke="#000" id="patch_33"/><path clip-path="url(#pf98047bf69)" d="M131.222 140.838l.027.002-.002.005 11.024 4.805-.002.005-11.025-4.804-.002.005z" stroke="#000" id="patch_34"/><path clip-path="url(#pf98047bf69)" d="M164.474 92.512l-.02.017-.003-.005-19.491 7.81-.002-.006 19.49-7.81-.001-.005z" stroke="#000" id="patch_35"/><path clip-path="url(#pf98047bf69)" d="M159.469 94.517l.021-.018.002.005 19.491-7.809.003.005-19.492 7.81.003.005z" stroke="#000" id="patch_36"/><path clip-path="url(#pf98047bf69)" d="M144.062 115.455l-.008-.027h.006l.896-15.097h.006l-.896 15.098h.006z" stroke="#000" id="patch_37"/><path clip-path="url(#pf98047bf69)" d="M143.167 130.528l.008.027h-.006l-.896 15.097h-.006l.896-15.098h-.006z" stroke="#000" id="patch_38"/><path clip-path="url(#pf98047bf69)" d="M161.732 108.116l-.027-.004.002-.005-16.75-7.774.003-.005 16.75 7.774.002-.005z" stroke="#000" id="patch_39"/><path clip-path="url(#pf98047bf69)" d="M168.494 111.254l.028.003-.003.006 16.75 7.773-.002.006-16.75-7.774-.002.005z" stroke="#000" id="patch_40"/><path clip-path="url(#pf98047bf69)" d="M200.47 69.433l-.015.023-.004-.004L178.986 86.7l-.003-.005 21.465-17.248-.004-.004z" stroke="#000" id="patch_41"/><path clip-path="url(#pf98047bf69)" d="M191.203 76.88l.015-.024.004.004 21.465-17.248.004.005-21.465 17.248.003.005z" stroke="#000" id="patch_42"/><path clip-path="url(#pf98047bf69)" d="M181.674 100.543l-.013-.024h.006l-2.685-13.82.005-.002 2.685 13.82.006-.001z" stroke="#000" id="patch_43"/><path clip-path="url(#pf98047bf69)" d="M182.578 105.193l.013.024-.005.001 2.685 13.82-.006.001-2.685-13.82-.006.002z" stroke="#000" id="patch_44"/><path clip-path="url(#pf98047bf69)" d="M200.29 94.982l-.028-.002.002-.005-21.28-8.275.002-.005 21.28 8.274.002-.005z" stroke="#000" id="patch_45"/><path clip-path="url(#pf98047bf69)" d="M196.915 93.67l.028.001-.002.006 21.28 8.274-.002.005-21.28-8.274-.002.005z" stroke="#000" id="patch_46"/><path clip-path="url(#pf98047bf69)" d="M215.362 80.08l-.012-.025h.006l-2.67-20.44h.006l2.67 20.438h.006z" stroke="#000" id="patch_47"/><path clip-path="url(#pf98047bf69)" d="M215.546 81.489l.013.024-.006.001 2.67 20.44h-.006l-2.67-20.44-.006.002z" stroke="#000" id="patch_48"/><path clip-path="url(#pf98047bf69)" d="M234.868 73.801l-.027-.006.003-.005-22.157-14.173.003-.005 22.157 14.173.003-.005z" stroke="#000" id="patch_49"/><path clip-path="url(#pf98047bf69)" d="M226.771 68.622l.027.007-.003.005 22.156 14.173-.003.005-22.156-14.173-.004.005z" stroke="#000" id="patch_50"/><path clip-path="url(#pf98047bf69)" d="M83.818 191.187l-.015.023-.004-.004-12.624 10.6-.003-.005 12.624-10.6-.004-.004z" stroke="#000" id="patch_51"/><path clip-path="url(#pf98047bf69)" d="M89.772 186.188l.014-.024.004.005 12.624-10.6.004.005-12.624 10.6.003.004z" stroke="#000" id="patch_52"/><path clip-path="url(#pf98047bf69)" d="M81.27 224.186l-.02-.02.006-.003-10.085-22.359.005-.002 10.086 22.359.005-.003z" stroke="#000" id="patch_53"/><path clip-path="url(#pf98047bf69)" d="M78.964 219.074l.019.02-.006.003 10.086 22.359-.006.002-10.085-22.359-.005.002z" stroke="#000" id="patch_54"/><path clip-path="url(#pf98047bf69)" d="M88.979 213.137l-.027-.007.003-.005-17.783-11.32.003-.004 17.783 11.32.003-.005z" stroke="#000" id="patch_55"/><path clip-path="url(#pf98047bf69)" d="M90.4 214.042l.027.007-.003.005 17.783 11.32-.003.005-17.783-11.32-.003.004z" stroke="#000" id="patch_56"/><path clip-path="url(#pf98047bf69)" d="M118.917 163.184l-.016.023-.004-.005-16.48 12.372-.003-.004 16.48-12.372-.004-.005z" stroke="#000" id="patch_57"/><path clip-path="url(#pf98047bf69)" d="M125.77 158.04l.015-.023.004.005 16.48-12.372.003.005-16.48 12.371.004.005z" stroke="#000" id="patch_58"/><path clip-path="url(#pf98047bf69)" d="M105.447 201.647l-.011-.025h.005l-3.028-26.05h.006l3.028 26.05.006-.002z" stroke="#000" id="patch_59"/><path clip-path="url(#pf98047bf69)" d="M105.174 199.3l.012.026h-.006l3.029 26.05h-.006l-3.028-26.05-.006.002z" stroke="#000" id="patch_60"/><path clip-path="url(#pf98047bf69)" d="M116.163 183.843l-.027-.006.003-.005-13.725-8.258.003-.005 13.725 8.258.003-.005z" stroke="#000" id="patch_61"/><path clip-path="url(#pf98047bf69)" d="M129.432 191.827l.027.006-.003.005 13.724 8.257-.003.005-13.724-8.257-.003.005z" stroke="#000" id="patch_62"/><path clip-path="url(#pf98047bf69)" d="M158.124 135.84l-.018.02-.003-.004-15.831 9.799-.003-.005 15.831-9.8-.003-.004z" stroke="#000" id="patch_63"/><path clip-path="url(#pf98047bf69)" d="M169.414 128.852l.018-.022.003.005 15.831-9.799.003.005-15.831 9.8.003.004z" stroke="#000" id="patch_64"/><path clip-path="url(#pf98047bf69)" d="M142.638 167.717l-.009-.026h.006l-.368-22.039h.006l.368 22.04h.006z" stroke="#000" id="patch_65"/><path clip-path="url(#pf98047bf69)" d="M142.81 178.033l.01.026h-.006l.367 22.039h-.005l-.368-22.04h-.006z" stroke="#000" id="patch_66"/><path clip-path="url(#pf98047bf69)" d="M159.696 152.788l-.028-.002.002-.005-17.4-7.126.001-.005 17.401 7.125.003-.005z" stroke="#000" id="patch_67"/><path clip-path="url(#pf98047bf69)" d="M170.882 157.369l.028.001-.002.006 17.4 7.125-.002.006-17.4-7.126-.003.006z" stroke="#000" id="patch_68"/><path clip-path="url(#pf98047bf69)" d="M203.492 109.59l-.02.02-.002-.005-18.2 9.437-.003-.006 18.2-9.436-.003-.006z" stroke="#000" id="patch_69"/><path clip-path="url(#pf98047bf69)" d="M199.996 111.402l.02-.02.002.006 18.2-9.437.003.005-18.2 9.437.003.005z" stroke="#000" id="patch_70"/><path clip-path="url(#pf98047bf69)" d="M186.474 137.083l-.01-.026h.006l-1.205-18.018h.006l1.204 18.017h.006z" stroke="#000" id="patch_71"/><path clip-path="url(#pf98047bf69)" d="M187.101 146.46l.01.026h-.005l1.204 18.018h-.005l-1.205-18.017h-.006z" stroke="#000" id="patch_72"/><path clip-path="url(#pf98047bf69)" d="M201.73 129.226l-.027-.006.003-.005-16.44-10.174.003-.005 16.44 10.174.003-.005z" stroke="#000" id="patch_73"/><path clip-path="url(#pf98047bf69)" d="M209.862 134.258l.027.007-.003.005 16.44 10.173-.003.005-16.44-10.173-.003.005z" stroke="#000" id="patch_74"/><path clip-path="url(#pf98047bf69)" d="M238.538 89.295l-.017.022-.003-.005-20.296 12.644-.003-.005 20.296-12.644-.003-.005z" stroke="#000" id="patch_75"/><path clip-path="url(#pf98047bf69)" d="M228.631 95.467l.018-.02.003.004 20.296-12.644.003.005-20.296 12.644.003.005z" stroke="#000" id="patch_76"/><path clip-path="url(#pf98047bf69)" d="M221.26 117.895l-.013-.024.006-.001-3.036-15.916h.006l3.035 15.915.006-.001z" stroke="#000" id="patch_77"/><path clip-path="url(#pf98047bf69)" d="M223.284 128.504l.013.024-.005.001 3.035 15.916h-.006l-3.035-15.915-.006.001z" stroke="#000" id="patch_78"/><path clip-path="url(#pf98047bf69)" d="M238.727 112.419l-.027-.004.002-.005-20.483-10.454.002-.005 20.484 10.453.003-.005z" stroke="#000" id="patch_79"/><path clip-path="url(#pf98047bf69)" d="M235.537 110.79l.027.005-.002.005 20.483 10.454-.002.005-20.484-10.454-.003.006z" stroke="#000" id="patch_80"/><path clip-path="url(#pf98047bf69)" d="M263.85 74.918l-.019.02-.002-.005-14.878 7.879-.003-.005 14.878-7.88-.003-.004z" stroke="#000" id="patch_81"/><path clip-path="url(#pf98047bf69)" d="M259.005 77.484l.02-.02.002.005 14.878-7.879.002.005-14.877 7.88.003.004z" stroke="#000" id="patch_82"/><path clip-path="url(#pf98047bf69)" d="M252.995 104.734l-.013-.025h.006l-4.041-21.9h.006l4.04 21.898H253z" stroke="#000" id="patch_83"/><path clip-path="url(#pf98047bf69)" d="M251.998 99.332l.014.024-.006.001 4.04 21.899h-.005l-4.04-21.898-.006.001z" stroke="#000" id="patch_84"/><path clip-path="url(#pf98047bf69)" d="M268.706 95.22l-.027-.007.003-.005-19.734-12.396.003-.005 19.734 12.396.003-.005z" stroke="#000" id="patch_85"/><path clip-path="url(#pf98047bf69)" d="M264.744 92.73l.027.007-.003.005 19.734 12.397-.003.005-19.734-12.397-.003.005z" stroke="#000" id="patch_86"/><path clip-path="url(#pf98047bf69)" d="M280.129 90.473l-.016-.022.006-.002-6.216-20.855.006-.002 6.215 20.855.006-.001z" stroke="#000" id="patch_87"/><path clip-path="url(#pf98047bf69)" d="M278.277 84.26l.016.023-.005.002 6.215 20.855-.005.002-6.216-20.855-.005.001z" stroke="#000" id="patch_88"/><path clip-path="url(#pf98047bf69)" d="M296.486 79.519l-.028-.003.003-.005-22.556-9.915.002-.006 22.556 9.915.002-.005z" stroke="#000" id="patch_89"/><path clip-path="url(#pf98047bf69)" d="M283.537 73.826l.027.003-.002.005 22.556 9.915-.003.006-22.556-9.916-.002.006z" stroke="#000" id="patch_90"/><path clip-path="url(#pf98047bf69)" d="M101.782 230.772l-.015.023-.003-.004-12.702 10.668-.004-.005 12.702-10.668-.004-.004z" stroke="#000" id="patch_91"/><path clip-path="url(#pf98047bf69)" d="M95.484 236.061l.014-.023.004.004 12.702-10.668.004.004-12.702 10.669.004.004z" stroke="#000" id="patch_92"/><path clip-path="url(#pf98047bf69)" d="M114.016 263.134l-.025-.01.003-.005-24.936-21.66.004-.004 24.936 21.66.004-.005z" stroke="#000" id="patch_93"/><path clip-path="url(#pf98047bf69)" d="M106.61 256.7l.025.011-.004.004 24.936 21.66-.003.005-24.937-21.66-.004.004z" stroke="#000" id="patch_94"/><path clip-path="url(#pf98047bf69)" d="M125.862 212.614l-.017.023-.003-.005-17.635 12.746-.003-.004 17.635-12.747-.004-.004z" stroke="#000" id="patch_95"/><path clip-path="url(#pf98047bf69)" d="M125.523 212.86l.016-.023.003.005 17.635-12.747.003.005-17.635 12.746.004.005z" stroke="#000" id="patch_96"/><path clip-path="url(#pf98047bf69)" d="M121.322 255.135l-.019-.02.005-.003-13.105-29.735.005-.002 13.106 29.735.005-.002z" stroke="#000" id="patch_97"/><path clip-path="url(#pf98047bf69)" d="M118.45 248.619l.018.02-.005.002 13.105 29.736-.005.002-13.106-29.735-.005.002z" stroke="#000" id="patch_98"/><path clip-path="url(#pf98047bf69)" d="M134.835 241.718l-.027-.006.003-.005-26.607-16.328.003-.005 26.607 16.328.004-.005z" stroke="#000" id="patch_99"/><path clip-path="url(#pf98047bf69)" d="M133.777 241.069l.027.006-.003.005 26.607 16.329-.003.005-26.607-16.329-.003.005z" stroke="#000" id="patch_100"/><path clip-path="url(#pf98047bf69)" d="M161.01 186.034l-.016.023-.003-.004-17.81 14.047-.004-.005 17.81-14.047-.004-.004z" stroke="#000" id="patch_101"/><path clip-path="url(#pf98047bf69)" d="M170.476 178.568l.016-.024.003.005 17.81-14.047.004.004-17.81 14.048.003.004z" stroke="#000" id="patch_102"/><path clip-path="url(#pf98047bf69)" d="M151.548 227.942l-.016-.023.006-.001-8.362-27.82.005-.001 8.362 27.819.006-.002z" stroke="#000" id="patch_103"/><path clip-path="url(#pf98047bf69)" d="M152.037 229.567l.016.023-.006.001 8.362 27.82-.005.001-8.363-27.819-.005.002z" stroke="#000" id="patch_104"/><path clip-path="url(#pf98047bf69)" d="M165.974 209.44l-.027-.002.002-.005-22.772-9.333.003-.005 22.77 9.332.003-.005z" stroke="#000" id="patch_105"/><path clip-path="url(#pf98047bf69)" d="M176.01 213.553l.028.002-.002.005 22.771 9.332-.002.006-22.771-9.333-.003.006z" stroke="#000" id="patch_106"/><path clip-path="url(#pf98047bf69)" d="M207.709 154.267l-.02.02-.002-.005-19.378 10.225-.003-.005 19.378-10.225-.002-.005z" stroke="#000" id="patch_107"/><path clip-path="url(#pf98047bf69)" d="M206.923 154.682l.019-.02.003.005 19.378-10.224.003.005-19.379 10.225.003.005z" stroke="#000" id="patch_108"/><path clip-path="url(#pf98047bf69)" d="M192.501 187.827l-.013-.024.005-.001-4.188-23.297.005-.001 4.19 23.297.005-.001z" stroke="#000" id="patch_109"/><path clip-path="url(#pf98047bf69)" d="M194.613 199.572l.013.024-.006.001 4.189 23.297-.006.001-4.189-23.297-.005.001z" stroke="#000" id="patch_110"/><path clip-path="url(#pf98047bf69)" d="M210.047 172.6l-.028-.001.002-.006-21.715-8.086.002-.006 21.715 8.087.002-.006z" stroke="#000" id="patch_111"/><path clip-path="url(#pf98047bf69)" d="M215.443 174.609h.028l-.003.006 21.715 8.087-.002.005-21.715-8.086-.002.005z" stroke="#000" id="patch_112"/><path clip-path="url(#pf98047bf69)" d="M238.583 134.88l-.015.023-.003-.005-12.239 9.55-.004-.005 12.239-9.55-.004-.004z" stroke="#000" id="patch_113"/><path clip-path="url(#pf98047bf69)" d="M243.785 130.822l.015-.023.004.004 12.238-9.55.004.005-12.239 9.55.004.004z" stroke="#000" id="patch_114"/><path clip-path="url(#pf98047bf69)" d="M231.062 161.139l-.016-.023.006-.002-4.73-16.668.005-.001 4.73 16.668.006-.002z" stroke="#000" id="patch_115"/><path clip-path="url(#pf98047bf69)" d="M232.445 166.01l.015.024-.005.001 4.73 16.669-.005.001-4.731-16.668-.006.002z" stroke="#000" id="patch_116"/><path clip-path="url(#pf98047bf69)" d="M248.094 151.519h-.027l.001-.006-21.745-7.065.002-.005 21.745 7.065.002-.006z" stroke="#000" id="patch_117"/><path clip-path="url(#pf98047bf69)" d="M248.092 151.518h.028l-.002.005 21.745 7.065-.002.006-21.745-7.065-.001.005z" stroke="#000" id="patch_118"/><path clip-path="url(#pf98047bf69)" d="M267.94 114.52l-.018.02-.003-.005-11.874 6.724-.002-.005 11.873-6.724-.003-.005z" stroke="#000" id="patch_119"/><path clip-path="url(#pf98047bf69)" d="M272.604 111.878l.019-.02.002.005 11.874-6.724.003.005-11.874 6.724.003.005z" stroke="#000" id="patch_120"/><path clip-path="url(#pf98047bf69)" d="M261.568 136.182l-.017-.021.006-.003-5.516-14.9.006-.003 5.515 14.901.005-.002z" stroke="#000" id="patch_121"/><path clip-path="url(#pf98047bf69)" d="M264.338 143.665l.017.022-.005.002 5.515 14.901-.005.002-5.516-14.901-.005.002z" stroke="#000" id="patch_122"/><path clip-path="url(#pf98047bf69)" d="M274.663 130.769l-.027-.004.002-.006-18.595-9.5.002-.005 18.596 9.5.003-.005z" stroke="#000" id="patch_123"/><path clip-path="url(#pf98047bf69)" d="M271.491 129.148l.028.004-.003.006 18.596 9.5-.003.005-18.596-9.5-.002.005z" stroke="#000" id="patch_124"/><path clip-path="url(#pf98047bf69)" d="M296.819 92.952l-.013.025-.004-.004-12.3 12.17-.004-.004 12.3-12.17-.004-.005z" stroke="#000" id="patch_125"/><path clip-path="url(#pf98047bf69)" d="M293.798 95.941l.012-.024.004.004 12.3-12.171.004.004-12.3 12.17.005.005z" stroke="#000" id="patch_126"/><path clip-path="url(#pf98047bf69)" d="M287.503 123.082l-.013-.024.006-.001-2.999-17.915.006-.001 2.999 17.915.005-.001z" stroke="#000" id="patch_127"/><path clip-path="url(#pf98047bf69)" d="M287.108 120.72l.013.024-.006.001 2.998 17.915-.005.001-2.999-17.915-.006.001z" stroke="#000" id="patch_128"/><path clip-path="url(#pf98047bf69)" d="M307.593 112.972h-.028l.002-.005-23.068-7.823.002-.006 23.068 7.823.002-.005z" stroke="#000" id="patch_129"/><path clip-path="url(#pf98047bf69)" d="M299.545 110.243h.028l-.002.006 23.068 7.823-.002.005-23.068-7.823-.002.006z" stroke="#000" id="patch_130"/><path clip-path="url(#pf98047bf69)" d="M318.098 108.643l-.02-.02.006-.002-11.97-24.868.005-.002 11.97 24.867.005-.002z" stroke="#000" id="patch_131"/><path clip-path="url(#pf98047bf69)" d="M310.656 93.183l.02.02-.006.003 11.97 24.867-.005.003-11.97-24.868-.005.003z" stroke="#000" id="patch_132"/><path clip-path="url(#pf98047bf69)" d="M329.205 98.998l-.027-.007.003-.005-23.066-15.231.003-.005 23.066 15.23.004-.004z" stroke="#000" id="patch_133"/><path clip-path="url(#pf98047bf69)" d="M318.606 91.999l.026.007-.003.005 23.066 15.231-.003.005-23.066-15.231-.003.005z" stroke="#000" id="patch_134"/><path clip-path="url(#pf98047bf69)" d="M149.05 265.668l-.017.022-.003-.005-17.463 12.695-.003-.005 17.462-12.694-.003-.005z" stroke="#000" id="patch_135"/><path clip-path="url(#pf98047bf69)" d="M142.923 270.121l.016-.022.003.005 17.463-12.695.003.005-17.462 12.694.003.005z" stroke="#000" id="patch_136"/><path clip-path="url(#pf98047bf69)" d="M162.246 289.529l-.028-.001.002-.006-30.656-11.142.002-.005 30.656 11.142.002-.006z" stroke="#000" id="patch_137"/><path clip-path="url(#pf98047bf69)" d="M164.585 290.379h.028l-.002.006 30.655 11.142-.002.005-30.655-11.142-.002.006z" stroke="#000" id="patch_138"/><path clip-path="url(#pf98047bf69)" d="M175.736 243.632l-.014.024-.004-.004-15.31 13.761-.003-.004 15.31-13.761-.005-.005z" stroke="#000" id="patch_139"/><path clip-path="url(#pf98047bf69)" d="M183.477 236.674l.014-.024.004.004 15.31-13.761.003.004-15.31 13.761.004.005z" stroke="#000" id="patch_140"/><path clip-path="url(#pf98047bf69)" d="M178.394 280.177l-.023-.015.005-.003-17.972-22.746.005-.004 17.971 22.746.005-.004z" stroke="#000" id="patch_141"/><path clip-path="url(#pf98047bf69)" d="M177.277 278.763l.023.016-.004.003 17.971 22.746-.004.003-17.972-22.745-.004.003z" stroke="#000" id="patch_142"/><path clip-path="url(#pf98047bf69)" d="M186.131 263.644l-.028.003.002-.006-25.7-6.227.002-.006 25.7 6.227v-.005z" stroke="#000" id="patch_143"/><path clip-path="url(#pf98047bf69)" d="M197.526 266.405l.028-.002-.001.006 25.699 6.226-.002.006-25.699-6.227-.001.006z" stroke="#000" id="patch_144"/><path clip-path="url(#pf98047bf69)" d="M212.019 209.058l-.012.025-.004-.004-13.195 13.818-.004-.004 13.194-13.818-.004-.004z" stroke="#000" id="patch_145"/><path clip-path="url(#pf98047bf69)" d="M223.97 196.541l.012-.025.004.004 13.194-13.818.004.004-13.194 13.818.004.004z" stroke="#000" id="patch_146"/><path clip-path="url(#pf98047bf69)" d="M210.512 246.715l-.02-.02.006-.002-11.694-23.797.005-.002 11.694 23.796.005-.002z" stroke="#000" id="patch_147"/><path clip-path="url(#pf98047bf69)" d="M211.545 248.818l.02.02-.006.002 11.695 23.797-.006.002-11.694-23.796-.005.002z" stroke="#000" id="patch_148"/><path clip-path="url(#pf98047bf69)" d="M222.293 229.518l-.028.002.002-.006-23.462-6.616.002-.006 23.462 6.617.001-.006z" stroke="#000" id="patch_149"/><path clip-path="url(#pf98047bf69)" d="M230.377 231.798l.027-.001-.001.005 23.461 6.617-.001.006-23.462-6.617-.002.006z" stroke="#000" id="patch_150"/><path clip-path="url(#pf98047bf69)" d="M252.74 171.225l-.016.022-.003-.004-15.537 11.464-.003-.005 15.536-11.464-.003-.005z" stroke="#000" id="patch_151"/><path clip-path="url(#pf98047bf69)" d="M254.304 170.07l.016-.022.004.005 15.537-11.464.003.004-15.537 11.464.004.005z" stroke="#000" id="patch_152"/><path clip-path="url(#pf98047bf69)" d="M244.744 207.961l-.016-.022.006-.002-7.554-25.232.005-.001 7.554 25.231.006-.001z" stroke="#000" id="patch_153"/><path clip-path="url(#pf98047bf69)" d="M246.302 213.165l.016.022-.006.002 7.554 25.232-.005.002-7.554-25.232-.006.001z" stroke="#000" id="patch_154"/><path clip-path="url(#pf98047bf69)" d="M254.533 189.535l-.028-.001.002-.006-17.326-6.82.002-.006 17.326 6.82.002-.005z" stroke="#000" id="patch_155"/><path clip-path="url(#pf98047bf69)" d="M259.68 191.561l.027.002-.002.005 17.326 6.821-.003.006-17.325-6.821-.003.005z" stroke="#000" id="patch_156"/><path clip-path="url(#pf98047bf69)" d="M279.352 149.25l-.013.025-.004-.004-9.47 9.322-.005-.004 9.471-9.322-.004-.004z" stroke="#000" id="patch_157"/><path clip-path="url(#pf98047bf69)" d="M280.621 148.001l.013-.024.004.004 9.47-9.322.004.004-9.47 9.322.004.004z" stroke="#000" id="patch_158"/><path clip-path="url(#pf98047bf69)" d="M273.427 178.387l-.013-.024.006-.001-3.56-19.77.005-.001 3.56 19.77.006-.001z" stroke="#000" id="patch_159"/><path clip-path="url(#pf98047bf69)" d="M273.465 178.596l.013.025h-.006l3.56 19.77-.005.002-3.56-19.77h-.006z" stroke="#000" id="patch_160"/><path clip-path="url(#pf98047bf69)" d="M283.22 164.321l-.028-.002.002-.006-13.333-5.72.003-.005 13.332 5.72.002-.005z" stroke="#000" id="patch_161"/><path clip-path="url(#pf98047bf69)" d="M285.474 165.288l.027.002-.002.006 13.333 5.72-.003.005-13.332-5.72-.003.006z" stroke="#000" id="patch_162"/><path clip-path="url(#pf98047bf69)" d="M306.964 127.994l-.018.022-.003-.005-16.831 10.652-.003-.005 16.831-10.652-.003-.005z" stroke="#000" id="patch_163"/><path clip-path="url(#pf98047bf69)" d="M305.784 128.74l.018-.02.003.004 16.831-10.652.003.005-16.831 10.652.003.005z" stroke="#000" id="patch_164"/><path clip-path="url(#pf98047bf69)" d="M296.387 161.95l-.015-.023.005-.001-6.27-23.265.006-.001 6.27 23.264.005-.001z" stroke="#000" id="patch_165"/><path clip-path="url(#pf98047bf69)" d="M292.554 147.728l.015.023-.005.002 6.27 23.264-.006.002-6.27-23.265-.006.002z" stroke="#000" id="patch_166"/><path clip-path="url(#pf98047bf69)" d="M308.792 145.168h-.028l.002-.005-18.657-6.5.002-.005 18.657 6.499.002-.005z" stroke="#000" id="patch_167"/><path clip-path="url(#pf98047bf69)" d="M309.908 145.557h.027l-.001.006 18.656 6.5-.002.005-18.656-6.5-.002.006z" stroke="#000" id="patch_168"/><path clip-path="url(#pf98047bf69)" d="M332.709 112.35l-.018.021-.003-.005-10.049 5.71-.003-.004 10.049-5.71-.003-.006z" stroke="#000" id="patch_169"/><path clip-path="url(#pf98047bf69)" d="M331.622 112.968l.019-.02.003.005 10.048-5.711.003.005-10.048 5.71.002.006z" stroke="#000" id="patch_170"/><path clip-path="url(#pf98047bf69)" d="M326.831 142.023l-.013-.024.006-.001-4.19-23.923.006-.001 4.19 23.923.005-.001z" stroke="#000" id="patch_171"/><path clip-path="url(#pf98047bf69)" d="M324.396 128.116l.013.024-.006.001 4.19 23.923-.006.001-4.19-23.923-.005.001z" stroke="#000" id="patch_172"/><path clip-path="url(#pf98047bf69)" d="M342.42 131.645l-.026-.008.003-.005-19.761-13.555.003-.005 19.762 13.555.003-.004z" stroke="#000" id="patch_173"/><path clip-path="url(#pf98047bf69)" d="M330.775 123.656l.027.008-.003.005 19.761 13.555-.003.005-19.762-13.555-.003.005z" stroke="#000" id="patch_174"/><path clip-path="url(#pf98047bf69)" d="M348.764 131.158l-.016-.022.006-.002-7.063-23.889.006-.001 7.062 23.888.006-.001z" stroke="#000" id="patch_175"/><path clip-path="url(#pf98047bf69)" d="M343.488 113.313l.016.023-.006.001 7.063 23.889-.005.002-7.063-23.889-.006.002z" stroke="#000" id="patch_176"/><path clip-path="url(#pf98047bf69)" d="M213.586 282.616l-.012.024-.004-.004-18.303 18.896-.004-.005 18.303-18.895-.004-.004z" stroke="#000" id="patch_177"/><path clip-path="url(#pf98047bf69)" d="M204.93 291.552l.012-.025.004.004 18.303-18.895.004.004-18.303 18.895.004.004z" stroke="#000" id="patch_178"/><path clip-path="url(#pf98047bf69)" d="M234.835 259.69l-.011.026-.005-.004-11.566 12.928-.004-.004 11.566-12.928-.004-.003z" stroke="#000" id="patch_179"/><path clip-path="url(#pf98047bf69)" d="M242.28 251.37l.01-.026.005.004 11.566-12.928.005.004-11.567 12.928.005.003z" stroke="#000" id="patch_180"/><path clip-path="url(#pf98047bf69)" d="M246.931 272.911l-.026.009v-.006l-23.654-.273v-.006l23.654.273v-.006z" stroke="#000" id="patch_181"/><path clip-path="url(#pf98047bf69)" d="M259.414 273.055l.027-.008v.006l23.654.273v.006l-23.654-.273v.006z" stroke="#000" id="patch_182"/><path clip-path="url(#pf98047bf69)" d="M263.06 222.532l-.006.027-.005-.003-9.183 15.867-.005-.003 9.183-15.867-.005-.003z" stroke="#000" id="patch_183"/><path clip-path="url(#pf98047bf69)" d="M267.834 214.282l.005-.027.005.003 9.183-15.867.005.003-9.183 15.867.005.003z" stroke="#000" id="patch_184"/><path clip-path="url(#pf98047bf69)" d="M267.178 254.322l-.023-.015.004-.003-13.298-15.88.005-.004 13.298 15.88.004-.004z" stroke="#000" id="patch_185"/><path clip-path="url(#pf98047bf69)" d="M269.78 257.429l.023.014-.004.004 13.298 15.88-.005.004-13.298-15.88-.004.003z" stroke="#000" id="patch_186"/><path clip-path="url(#pf98047bf69)" d="M276.877 239.847l-.027.007v-.006l-22.987-1.423v-.006l22.988 1.423v-.006z" stroke="#000" id="patch_187"/><path clip-path="url(#pf98047bf69)" d="M283.14 240.234l.027-.007v.006l22.987 1.423v.006l-22.988-1.423v.006z" stroke="#000" id="patch_188"/><path clip-path="url(#pf98047bf69)" d="M288.57 183.902l-.01.026-.005-.003-11.523 14.469-.005-.004 11.524-14.469-.005-.003z" stroke="#000" id="patch_189"/><path clip-path="url(#pf98047bf69)" d="M287.29 185.508l.01-.026.005.004 11.523-14.47.005.004-11.524 14.47.005.003z" stroke="#000" id="patch_190"/><path clip-path="url(#pf98047bf69)" d="M292.525 221.412l-.022-.017.005-.003-15.481-22.998.005-.003 15.48 22.998.005-.003z" stroke="#000" id="patch_191"/><path clip-path="url(#pf98047bf69)" d="M290.658 218.64l.022.016-.005.003 15.48 22.999-.004.003-15.48-22.999-.005.004z" stroke="#000" id="patch_192"/><path clip-path="url(#pf98047bf69)" d="M296.28 202.476l-.028.003.002-.006-19.225-4.078.001-.006 19.225 4.078.001-.005z" stroke="#000" id="patch_193"/><path clip-path="url(#pf98047bf69)" d="M313.105 206.044l.028-.003-.001.006 19.225 4.078-.002.006-19.224-4.078-.002.005z" stroke="#000" id="patch_194"/><path clip-path="url(#pf98047bf69)" d="M310.945 163.302l-.017.022-.003-.005-12.093 7.702-.003-.005 12.093-7.702-.003-.005z" stroke="#000" id="patch_195"/><path clip-path="url(#pf98047bf69)" d="M316.474 159.78l.018-.02.003.004 12.093-7.702.003.005-12.093 7.702.003.005z" stroke="#000" id="patch_196"/><path clip-path="url(#pf98047bf69)" d="M314.171 188.914l-.023-.014.004-.004-15.324-17.876.005-.004 15.324 17.877.004-.004z" stroke="#000" id="patch_197"/><path clip-path="url(#pf98047bf69)" d="M317.015 192.232l.024.014-.005.004 15.324 17.876-.004.004-15.324-17.877-.005.004z" stroke="#000" id="patch_198"/><path clip-path="url(#pf98047bf69)" d="M321.02 181.465l-.027-.003.002-.005-22.166-10.436.003-.005 22.166 10.436.002-.006z" stroke="#000" id="patch_199"/><path clip-path="url(#pf98047bf69)" d="M325.042 183.359l.027.003-.002.006 22.166 10.436-.003.005-22.166-10.436-.002.005z" stroke="#000" id="patch_200"/><path clip-path="url(#pf98047bf69)" d="M340.333 144.133l-.017.022-.003-.005-11.722 7.917-.003-.005 11.722-7.917-.004-.004z" stroke="#000" id="patch_201"/><path clip-path="url(#pf98047bf69)" d="M338.815 145.159l.017-.022.003.004 11.722-7.917.003.005-11.722 7.917.003.005z" stroke="#000" id="patch_202"/><path clip-path="url(#pf98047bf69)" d="M340.261 178.2l-.018-.02.005-.003-11.661-26.111.005-.002 11.661 26.11.006-.002z" stroke="#000" id="patch_203"/><path clip-path="url(#pf98047bf69)" d="M335.56 167.672l.018.02-.005.002 11.661 26.111-.005.003-11.661-26.111-.006.002z" stroke="#000" id="patch_204"/><path clip-path="url(#pf98047bf69)" d="M295.86 255.796l-.008.027-.005-.004-12.75 17.511-.005-.003 12.75-17.511-.004-.004z" stroke="#000" id="patch_205"/><path clip-path="url(#pf98047bf69)" d="M293.388 259.192l.008-.027.005.004 12.75-17.512.005.004-12.75 17.511.004.004z" stroke="#000" id="patch_206"/><path clip-path="url(#pf98047bf69)" d="M319.154 226.014l-.01.026-.004-.004-12.984 15.625-.005-.004 12.984-15.625-.004-.003z" stroke="#000" id="patch_207"/><path clip-path="url(#pf98047bf69)" d="M319.355 225.773l.01-.026.004.004 12.985-15.625.004.004-12.984 15.625.004.003z" stroke="#000" id="patch_208"/><path clip-path="url(#pf98047bf69)" d="M340.658 201.019l-.011.025-.005-.004-8.284 9.09-.004-.004 8.284-9.09-.004-.004z" stroke="#000" id="patch_209"/><path clip-path="url(#pf98047bf69)" d="M338.93 202.915l.01-.025.005.004 8.284-9.09.005.004-8.285 9.09.005.004z" stroke="#000" id="patch_210"/><g id="matplotlib.axis_1"><g id="xtick_1"><g id="line2d_1"><defs><path d="M0 0v3.5" id="m1ab1508e13" stroke="#969696" stroke-width=".4"/></defs><use x="97.969" xlink:href="#m1ab1508e13" y="313.628" fill="#969696" stroke="#969696" stroke-width=".4"/></g><g transform="matrix(.14 0 0 -.14 86.082 330.678)" fill="#969696" id="text_1"><defs><path d="M54.594 21.578H4v7.328h50.594z" id="HelveticaWorld-Regular-8722"/><path d="M4.39 45.125q0 12.39 6.391 18.781 6.406 6.407 17.938 6.407 9.656 0 15.812-5.86 6.157-5.86 6.157-15.14 0-7.22-3.547-12.188-3.532-4.953-10.422-8.703l-12.11-6.64Q13.922 15.921 12.5 8.296h38.188V0H2.593q.39 9.906 4.297 16.5 3.906 6.594 12.203 11.375l12.593 7.328q5.032 2.89 7.329 5.984 2.297 3.094 2.297 8.516 0 5.375-3.766 9.031-3.75 3.672-10.156 3.672-7.078 0-10.594-4.672-3.516-4.656-3.61-12.609z" id="HelveticaWorld-Regular-50"/><path d="M42.484 34.188q0 14.109-3.734 21.156-3.734 7.062-10.969 7.062-7.078 0-10.89-7.062-3.797-7.047-3.797-21.157 0-13.671 3.75-20.937Q20.609 6 27.78 6q7.235 0 10.969 7 3.734 7.016 3.734 21.188zm9.422 0q0-17.297-6.25-26.704-6.25-9.39-17.875-9.39-12.062 0-18.062 9.734-6 9.75-6 26.36 0 17.03 6.14 26.578 6.157 9.547 17.922 9.547 11.625 0 17.875-9.5t6.25-26.626z" id="HelveticaWorld-Regular-48"/></defs><use xlink:href="#HelveticaWorld-Regular-8722"/><use x="58.594" xlink:href="#HelveticaWorld-Regular-50"/><use x="114.209" xlink:href="#HelveticaWorld-Regular-48"/></g></g><g id="xtick_2"><use x="156.247" xlink:href="#m1ab1508e13" y="313.628" fill="#969696" stroke="#969696" stroke-width=".4" id="line2d_2"/><g transform="matrix(.14 0 0 -.14 144.36 330.678)" fill="#969696" id="text_2"><defs><path d="M35.89 0h-9.374v49.906H10.109v6.985q8.594.28 12.782 2.75Q27.094 62.109 29 70.313h6.89z" id="HelveticaWorld-Regular-49"/></defs><use xlink:href="#HelveticaWorld-Regular-8722"/><use x="58.594" xlink:href="#HelveticaWorld-Regular-49"/><use x="114.209" xlink:href="#HelveticaWorld-Regular-48"/></g></g><g id="xtick_3"><use x="214.526" xlink:href="#m1ab1508e13" y="313.628" fill="#969696" stroke="#969696" stroke-width=".4" id="line2d_3"/><use xlink:href="#HelveticaWorld-Regular-48" transform="matrix(.14 0 0 -.14 210.633 330.678)" fill="#969696" id="text_3"/></g><g id="xtick_4"><use x="272.804" xlink:href="#m1ab1508e13" y="313.628" fill="#969696" stroke="#969696" stroke-width=".4" id="line2d_4"/><g transform="matrix(.14 0 0 -.14 265.019 330.678)" fill="#969696" id="text_4"><use xlink:href="#HelveticaWorld-Regular-49"/><use x="55.615" xlink:href="#HelveticaWorld-Regular-48"/></g></g><g id="xtick_5"><use x="331.082" xlink:href="#m1ab1508e13" y="313.628" fill="#969696" stroke="#969696" stroke-width=".4" id="line2d_5"/><g transform="matrix(.14 0 0 -.14 323.297 330.678)" fill="#969696" id="text_5"><use xlink:href="#HelveticaWorld-Regular-50"/><use x="55.615" xlink:href="#HelveticaWorld-Regular-48"/></g></g><g transform="matrix(.14 0 0 -.14 200.952 347.625)" fill="#969696" id="text_6"><defs><path d="M38.375 26.703q-.969-1.015-3.828-1.656-2.86-.625-10.672-1.656-5.766-.688-8.469-2.844-2.703-2.14-2.703-5.656 0-4.297 2.281-6.688 2.297-2.39 7.329-2.39 6.296 0 11.171 3.578 4.891 3.593 4.891 8.718zM6.203 36.375q.297 8.844 5.734 13.14 5.454 4.297 15.844 4.297 8.297 0 13.907-3.765 5.624-3.75 5.624-10.844V9.078Q47.313 6 50.094 6q1.125 0 2.89.39V0Q50.594-.984 48-.984q-4.5 0-6.703 1.921-2.188 1.938-2.281 6.047-7.516-8.5-18.891-8.5-7.422 0-11.922 4.204Q3.72 6.89 3.72 13.624q0 6.89 3.906 11.125Q11.531 29 19 29.89l15.516 1.891q4.203.64 4.203 6.203 0 4.11-3.047 6.297-3.047 2.203-9.25 2.203-5.516 0-8.485-2.437-2.953-2.438-3.53-7.672z" id="HelveticaWorld-Regular-97"/><path d="M5.906 71.781h7.282V46.297H5.905z" id="HelveticaWorld-Regular-39"/></defs><use xlink:href="#HelveticaWorld-Regular-97"/><use x="54.932" xlink:href="#HelveticaWorld-Regular-39"/></g></g><g id="matplotlib.axis_2"><g id="ytick_1"><g id="line2d_6"><defs><path d="M0 0h-3.5" id="m9bd43f3d4c" stroke="#969696" stroke-width=".3"/></defs><use x="47.265" xlink:href="#m9bd43f3d4c" y="312.041" fill="#969696" stroke="#969696" stroke-width=".3"/></g><g transform="matrix(.14 0 0 -.14 16.492 317.066)" fill="#969696" id="text_7"><use xlink:href="#HelveticaWorld-Regular-8722"/><use x="58.594" xlink:href="#HelveticaWorld-Regular-50"/><use x="114.209" xlink:href="#HelveticaWorld-Regular-48"/></g></g><g id="ytick_2"><use x="47.265" xlink:href="#m9bd43f3d4c" y="253.763" fill="#969696" stroke="#969696" stroke-width=".3" id="line2d_7"/><g transform="matrix(.14 0 0 -.14 16.492 258.787)" fill="#969696" id="text_8"><use xlink:href="#HelveticaWorld-Regular-8722"/><use x="58.594" xlink:href="#HelveticaWorld-Regular-49"/><use x="114.209" xlink:href="#HelveticaWorld-Regular-48"/></g></g><g id="ytick_3"><use x="47.265" xlink:href="#m9bd43f3d4c" y="195.484" fill="#969696" stroke="#969696" stroke-width=".3" id="line2d_8"/><use xlink:href="#HelveticaWorld-Regular-48" transform="matrix(.14 0 0 -.14 32.48 200.51)" fill="#969696" id="text_9"/></g><g id="ytick_4"><use x="47.265" xlink:href="#m9bd43f3d4c" y="137.206" fill="#969696" stroke="#969696" stroke-width=".3" id="line2d_9"/><g transform="matrix(.14 0 0 -.14 24.695 142.23)" fill="#969696" id="text_10"><use xlink:href="#HelveticaWorld-Regular-49"/><use x="55.615" xlink:href="#HelveticaWorld-Regular-48"/></g></g><g id="ytick_5"><use x="47.265" xlink:href="#m9bd43f3d4c" y="78.928" fill="#969696" stroke="#969696" stroke-width=".3" id="line2d_10"/><g transform="matrix(.14 0 0 -.14 24.695 83.952)" fill="#969696" id="text_11"><use xlink:href="#HelveticaWorld-Regular-50"/><use x="55.615" xlink:href="#HelveticaWorld-Regular-48"/></g></g><g transform="matrix(.14 0 0 -.14 7.2 177.674)" fill="#969696" id="text_12"><defs><path d="M43.406 26.313q0 10.5-3.718 15.046-3.704 4.547-10.579 4.547-6.984-.11-10.562-5.453Q14.984 35.11 14.984 25q0-10.297 4.297-14.594Q23.578 6.11 29.297 6.11q6.5 0 10.297 5.344 3.812 5.344 3.812 14.86zM6.594 0v71.781h8.781V45.703h.203q5.61 8.11 15.14 8.11 9.766 0 15.766-7.25t6-18.876q0-13.093-6.062-21.156Q40.375-1.516 29.5-1.516q-9.578 0-14.406 8.016h-.203V0z" id="HelveticaWorld-Regular-98"/></defs><use xlink:href="#HelveticaWorld-Regular-98"/><use x="56.494" xlink:href="#HelveticaWorld-Regular-39"/></g></g><g transform="matrix(.14 0 0 -.14 41.299 17.516)" fill="#969696" id="text_13"><defs><path d="M67.484 0v42.39q0 .829.094 8.126t.094 9.78h-.281L47.312 0h-9.609L17.578 60.203h-.297q0-3.61.094-10.297.11-6.687.11-7.515V0H8.108v71.781h13.86L42.39 11.078h.28l20.313 60.703h13.922V0z" id="HelveticaWorld-Regular-77"/><path d="M39.594 34.719q-1.89 11.187-12.39 11.187-6.5 0-10.454-5.203-3.953-5.203-3.953-14.484 0-10.11 3.656-15.11 3.672-5 10.64-5 4.688 0 8.11 3.438 3.422 3.437 4.39 8.953h8.5q-1.312-9.703-6.859-14.86-5.547-5.156-14.328-5.156-10.297 0-16.89 7.047-6.594 7.063-6.594 19.172 0 13.281 6.594 21.188 6.593 7.922 18.5 7.922 8.687 0 13.843-5.204 5.157-5.203 5.735-13.89z" id="HelveticaWorld-Regular-99"/><path d="M44 29.5L33.406 61.078h-.203L21.687 29.5zm-25.297-8.594L11.188 0h-9.97l27 71.781h10.985L65.187 0H54.594l-7.078 20.906z" id="HelveticaWorld-Regular-65"/><path d="M13.094 26.313q0-9.704 3.844-14.954 3.859-5.25 10.265-5.25 6.094 0 10.188 4.485 4.109 4.5 4.109 13.094 0 11.03-3.5 16.625-3.484 5.593-10.61 5.593-6.78 0-10.546-4.453-3.75-4.437-3.75-15.14zM50.39 0h-8.297v7.172h-.203q-4.97-8.688-15.078-8.688-10.891 0-16.86 8.297Q4 15.094 4 27.688q0 11.625 5.906 18.875 5.922 7.25 15.875 7.25 9.813 0 15.625-8.891l.203.594V71.78h8.782z" id="HelveticaWorld-Regular-100"/><path d="M6.594 52.297h8.297v-7.375h.203q5.906 8.89 15.812 8.89 9.813 0 13.922-8.5 3.75 4.594 7.266 6.547 3.515 1.953 8.703 1.953 6.781 0 11.484-4.453Q77 44.922 77 36.187V0h-8.781v33.797q0 6.094-2.297 9.094-2.297 3.015-7.422 3.015-5.172 0-8.75-4.203-3.563-4.203-3.563-9.812V0h-8.78v36.188q0 4.53-2.11 7.124-2.094 2.594-6.094 2.594-6.297 0-10.062-4.687-3.766-4.688-3.766-12.703V0H6.594z" id="HelveticaWorld-Regular-109"/><path d="M27.594 31.39q6 0 9.75 4.047 3.765 4.063 3.765 11.97 0 6.5-3.562 10.75-3.563 4.25-10.64 4.25-6.11 0-9.876-4.298-3.75-4.297-3.75-11.53 0-7.376 3.516-11.282 3.515-3.906 10.797-3.906zm-1.282-7.906q-10 0-16.062 6.203-6.047 6.204-6.047 16.5 0 10.407 6.094 17.266 6.11 6.86 16.515 6.86 12.11 0 18.36-8.157 6.25-8.156 6.25-24.453 0-16.906-6.406-28.266Q38.625-1.905 25.875-1.905q-9.953 0-15.422 5.593-5.469 5.594-5.469 13.204h8.829q.39-5.266 3.437-8.375 3.063-3.094 8.438-3.094 7.609 0 11.515 6.781Q41.11 19 42.578 31.688l-.187.203q-5.672-8.407-16.078-8.407z" id="HelveticaWorld-Regular-57"/><path d="M3.719 68.797h48.578v-7.719Q42.28 50.875 33.984 33.484 25.687 16.11 23.391 0h-9.672q1.469 13.281 9.719 30.531 8.25 17.266 18.953 29.672H3.719z" id="HelveticaWorld-Regular-55"/><path d="M10.594 24.703h22.61v31.89h-.188zM42 17.093V0h-8.797v17.094H2.484v8.593L34.72 70.314H42v-45.61h10.297v-7.61z" id="HelveticaWorld-Regular-52"/><path d="M12.703 26.219q0-8.735 3.953-14.375 3.953-5.64 11.219-5.64 7.531 0 11.438 5.905 3.906 5.907 3.906 14.11 0 8.297-3.907 14.078-3.906 5.797-11.437 5.797-6.969 0-11.078-5.453-4.094-5.438-4.094-14.422zm-8.984 0q0 11.672 6.484 19.625 6.5 7.968 17.672 7.968 11.438 0 17.875-8.062 6.453-8.047 6.453-19.531 0-11.516-6.406-19.625-6.39-8.11-17.922-8.11-11.078 0-17.625 7.86-6.531 7.86-6.531 19.875z" id="HelveticaWorld-Regular-111"/><path d="M15.375 0H6.594v71.781h8.781z" id="HelveticaWorld-Regular-108"/><path d="M15.375 0H6.594v52.297h8.297v-8.688h.203q5.703 10.203 14.687 10.203 1.422 0 2.297-.296V44.39h-3.266q-5.906 0-9.671-4.016-3.766-4-3.766-9.953z" id="HelveticaWorld-Regular-114"/><path d="M6.594 61.813v9.968h8.781v-9.969zM15.375 0H6.594v52.297h8.781z" id="HelveticaWorld-Regular-105"/><path d="M36.078 37.406q-.187 4.688-3.344 6.735-3.14 2.047-9.047 2.047-4.296 0-7.359-1.907-3.047-1.89-3.047-5.468 0-2.829 1.797-4.172 1.813-1.344 7.828-2.86l8.688-2.187q7.906-2 11.297-5.11 3.406-3.093 3.406-8.656 0-7.719-5.64-12.531-5.641-4.813-15.063-4.813-11 0-16.64 4.563-5.626 4.578-5.735 13.75h8.5q.203-5.422 3.594-8.063 3.39-2.625 10.171-2.625 5.516 0 8.766 2.188 3.25 2.203 3.25 6.11 0 2.78-2.11 4.437-2.093 1.672-8.296 3.078l-10.203 2.5q-6.203 1.562-9.157 4.656-2.953 3.094-2.953 8.031 0 7.72 5.516 12.203 5.531 4.5 14.406 4.5 9.485 0 14.531-4.624 5.047-4.61 5.344-11.782z" id="HelveticaWorld-Regular-115"/><path d="M17.188 45.016V10.984q0-2 1.093-3.046 1.11-1.047 3.938-1.047h3.375V0Q20.797-.688 19-.688q-5.516 0-8.063 2.641-2.53 2.64-2.53 8.547v34.516H1.311v7.28h7.094v14.595h8.781V52.297h8.407v-7.281z" id="HelveticaWorld-Regular-116"/><path d="M49.219 0h-8.844v32.172q0 7.422-2.594 10.578-2.578 3.156-8.578 3.156-5.906 0-9.875-4.5-3.953-4.484-3.953-12.89V0H6.594v52.297h8.297v-7.375h.203q6.203 8.89 15.812 8.89 8.89 0 13.594-4.718 4.719-4.703 4.719-13.5z" id="HelveticaWorld-Regular-110"/><path d="M42.484 30.328q-.687 8.485-4.5 12.031-3.797 3.547-10.109 3.547-6.39 0-10.328-4.5-3.922-4.484-4.172-11.078zm8.391-13.922q-1.453-8.11-7.953-13.422-5.719-4.5-15.047-4.593-10.984.093-17.438 7.203Q4 12.704 4 24.704q0 13.78 6.64 21.437 6.641 7.672 18.47 7.672 10.593 0 16.546-7.922 5.953-7.907 5.953-22.594H13.375q0-8.203 3.813-12.703Q21 6.109 28.608 6.109q5.375 0 9.235 3.235 3.86 3.25 4.25 7.062z" id="HelveticaWorld-Regular-101"/><path d="M17.188 45.016V0H8.405v45.016H1.22v7.28h7.187v8.985q0 5.907 3.578 8.703 3.594 2.813 10.032 2.813 2.203 0 3.968-.188v-7.906q-1.562.188-3.578.188-2.922 0-4.078-1.438-1.14-1.437-1.14-4.656v-6.5h8.796v-7.281z" id="HelveticaWorld-Regular-102"/><path d="M58.016 50.203q-1.625 7.313-6.782 11.094-5.14 3.797-13.343 3.797-10.594 0-17.047-7.703-6.438-7.688-6.438-20.766 0-15.14 6.094-22.547 6.11-7.39 17.688-7.39 7.609 0 13.093 5.046 5.5 5.063 7.407 14.688h9.421Q66.22 12.594 57.625 5.344t-20.906-7.25q-14.703 0-23.516 10.11Q4.391 18.311 4.391 36.28q0 17.328 9.203 27.36 9.203 10.047 24.297 10.047 12.5 0 20.265-6.454 7.766-6.437 9.235-17.03z" id="HelveticaWorld-Regular-67"/><path d="M14.11 21.578q0-6.875 4.093-11.234Q22.313 6 28.906 6q6.297 0 10.032 4.438 3.734 4.453 3.734 11.687 0 6.297-3.688 10.547-3.687 4.25-10.468 4.25-6.594 0-10.5-4.156-3.907-4.157-3.907-11.188zM41.702 51.61q-.984 5.375-3.984 8.078-3 2.72-8.125 2.72-8.11 0-12.36-7.923-4.25-7.906-4.343-18.109l.203-.188q5.61 8.641 16.687 8.641 8.844 0 15.438-5.86 6.593-5.859 6.593-16.452 0-10.5-6.25-17.47-6.25-6.952-16.843-6.952-12.219 0-18.563 8.687-6.344 8.703-6.344 25.938 0 16.593 6.485 27.093 6.5 10.5 19.484 10.5 8.407 0 14.219-5.015 5.813-5 6.297-13.688z" id="HelveticaWorld-Regular-54"/><path d="M29.781 73.297q-8.875-15.875-11.218-25.844-2.344-9.953-2.344-21.969 0-11.859 3.187-22.125Q22.61-6.89 29.891-20.703h-5.86Q15.72-8.593 11.25 2.187 6.781 12.985 6.781 26.125q0 12.36 4.047 23.563 4.063 11.203 12.86 23.609z" id="HelveticaWorld-Regular-40"/><path d="M64.11 71.781V25.203q0-11.922-7.547-19.515-7.532-7.594-21.36-7.594-12.89 0-20.234 7-7.344 7.015-7.344 18.781v47.906h9.563V26.61q0-9.906 4.953-14.922 4.953-5 13.265-5 8.875 0 13.875 5 5.016 5.016 5.016 14.735v45.36z" id="HelveticaWorld-Regular-85"/><path d="M50.39 50.781q-.296 6.844-5.109 10.719-4.797 3.875-12.656 3.875-7.922 0-12.172-3.25-4.234-3.234-4.234-9.344 0-3.265 1.843-5.61 1.86-2.343 6.641-3.468l20.516-4.687q8.297-1.813 12.297-6.875 4.015-5.047 4.015-12.313 0-10.64-7.812-16.187-7.813-5.547-20.313-5.547-9.531 0-15.031 2.437-5.484 2.453-9.734 7.766-4.25 5.328-4.25 14.89h9.093q0-8 5.313-12.406 5.328-4.39 14.5-4.39 8.89 0 13.844 3.156 4.953 3.156 4.953 8.953 0 5.281-2.953 7.89Q46.188 29 37.594 31l-15.469 3.625q-7.719 1.75-11.531 6.125Q6.78 45.125 6.78 51.516q0 9.672 6.516 15.922 6.531 6.25 18.203 6.25 13.172 0 20.328-5.5 7.156-5.485 7.688-17.407z" id="HelveticaWorld-Regular-83"/><path d="M3.516-20.703q8.796 15.922 11.14 25.86Q17 15.093 17 27.093q0 11.922-3.156 22.172T3.422 73.296h5.765q8.391-12.109 12.86-22.905 4.469-10.797 4.469-23.875 0-12.407-4.063-23.61-4.047-11.203-12.828-23.61z" id="HelveticaWorld-Regular-41"/></defs><use xlink:href="#HelveticaWorld-Regular-77"/><use x="85.01" xlink:href="#HelveticaWorld-Regular-97"/><use x="139.941" xlink:href="#HelveticaWorld-Regular-99"/><use x="191.211" xlink:href="#HelveticaWorld-Regular-65"/><use x="256.41" xlink:href="#HelveticaWorld-Regular-100"/><use x="313.393" xlink:href="#HelveticaWorld-Regular-97"/><use x="368.324" xlink:href="#HelveticaWorld-Regular-109"/><use x="451.332" xlink:href="#HelveticaWorld-Regular-32"/><use x="475.746" xlink:href="#HelveticaWorld-Regular-49"/><use x="531.361" xlink:href="#HelveticaWorld-Regular-57"/><use x="586.977" xlink:href="#HelveticaWorld-Regular-55"/><use x="642.592" xlink:href="#HelveticaWorld-Regular-52"/><use x="698.207" xlink:href="#HelveticaWorld-Regular-32"/><use x="722.621" xlink:href="#HelveticaWorld-Regular-99"/><use x="773.891" xlink:href="#HelveticaWorld-Regular-111"/><use x="829.799" xlink:href="#HelveticaWorld-Regular-108"/><use x="851.82" xlink:href="#HelveticaWorld-Regular-111"/><use x="907.729" xlink:href="#HelveticaWorld-Regular-114"/><use x="940.297" xlink:href="#HelveticaWorld-Regular-32"/><use x="964.711" xlink:href="#HelveticaWorld-Regular-100"/><use x="1021.693" xlink:href="#HelveticaWorld-Regular-105"/><use x="1043.715" xlink:href="#HelveticaWorld-Regular-115"/><use x="1093.715" xlink:href="#HelveticaWorld-Regular-116"/><use x="1121.4" xlink:href="#HelveticaWorld-Regular-97"/><use x="1176.332" xlink:href="#HelveticaWorld-Regular-110"/><use x="1231.508" xlink:href="#HelveticaWorld-Regular-99"/><use x="1282.777" xlink:href="#HelveticaWorld-Regular-101"/><use x="1338.197" xlink:href="#HelveticaWorld-Regular-32"/><use x="1362.611" xlink:href="#HelveticaWorld-Regular-100"/><use x="1419.594" xlink:href="#HelveticaWorld-Regular-97"/><use x="1474.525" xlink:href="#HelveticaWorld-Regular-116"/><use x="1502.211" xlink:href="#HelveticaWorld-Regular-97"/><use x="1557.143" xlink:href="#HelveticaWorld-Regular-32"/><use x="1581.557" xlink:href="#HelveticaWorld-Regular-102"/><use x="1607.242" xlink:href="#HelveticaWorld-Regular-111"/><use x="1663.15" xlink:href="#HelveticaWorld-Regular-114"/><use x="1695.719" xlink:href="#HelveticaWorld-Regular-32"/><use x="1720.133" xlink:href="#HelveticaWorld-Regular-67"/><use x="1790.697" xlink:href="#HelveticaWorld-Regular-65"/><use x="1857.396" xlink:href="#HelveticaWorld-Regular-77"/><use x="1942.406" xlink:href="#HelveticaWorld-Regular-49"/><use x="1998.021" xlink:href="#HelveticaWorld-Regular-54"/><use x="2053.637" xlink:href="#HelveticaWorld-Regular-32"/><use x="2078.051" xlink:href="#HelveticaWorld-Regular-40"/><use x="2111.352" xlink:href="#HelveticaWorld-Regular-85"/><use x="2182.934" xlink:href="#HelveticaWorld-Regular-67"/><use x="2255.248" xlink:href="#HelveticaWorld-Regular-83"/><use x="2321.459" xlink:href="#HelveticaWorld-Regular-41"/></g></g></g><defs><clipPath id="pf98047bf69"><path d="M47.265 47.516h317.738v266.112H47.265z"/></clipPath></defs></svg>