<svg xmlns:xlink="http://www.w3.org/1999/xlink" width="541.697" height="420.159" viewBox="0 0 406.273 315.119" xmlns="http://www.w3.org/2000/svg"><defs><style>*{stroke-linejoin:round;stroke-linecap:butt}</style></defs><g id="figure_1"><path d="M0 315.12h406.273V0H0v315.12z" style="fill:none" id="patch_1"/><g id="axes_1"><path d="M41.953 273.312h357.12V7.2H41.953v266.112z" style="fill:none" id="patch_2"/><g id="matplotlib.axis_1"><g id="xtick_1"><path d="M77.665 273.312V7.2" clip-path="url(#p5d4f94115b)" style="fill:none;stroke:#b0b0b0;stroke-width:.8;stroke-linecap:square" id="line2d_1"/><g id="line2d_2"><defs><path id="ma46a0685fa" d="M0 0v3.5" style="stroke:#000;stroke-width:.8"/></defs><use xlink:href="#ma46a0685fa" x="77.665" y="273.312" style="stroke:#000;stroke-width:.8"/></g><g transform="matrix(.13 0 0 -.13 74.33 289.542)" id="text_1"><defs><path id="MyriadPro-Regular-30" d="M1677 4230c-845 0-1447-768-1447-2163C243 691 794-70 1606-70c922 0 1447 780 1447 2195 0 1325-499 2105-1376 2105zm-32-435c582 0 845-672 845-1696 0-1062-276-1734-852-1734-512 0-844 614-844 1696 0 1133 358 1734 851 1734z" transform="scale(.01563)"/></defs><use xlink:href="#MyriadPro-Regular-30"/></g></g><g id="xtick_2"><path d="M149.089 273.312V7.2" clip-path="url(#p5d4f94115b)" style="fill:none;stroke:#b0b0b0;stroke-width:.8;stroke-linecap:square" id="line2d_3"/><use xlink:href="#ma46a0685fa" x="149.089" y="273.312" style="stroke:#000;stroke-width:.8" id="line2d_4"/><g transform="matrix(.13 0 0 -.13 145.755 289.542)" id="text_2"><defs><path id="MyriadPro-Regular-31" d="M1510 0h544v4160h-480l-908-486 108-429 724 390h12V0z" transform="scale(.01563)"/></defs><use xlink:href="#MyriadPro-Regular-31"/></g></g><g id="xtick_3"><path d="M220.513 273.312V7.2" clip-path="url(#p5d4f94115b)" style="fill:none;stroke:#b0b0b0;stroke-width:.8;stroke-linecap:square" id="line2d_5"/><use xlink:href="#ma46a0685fa" x="220.513" y="273.312" style="stroke:#000;stroke-width:.8" id="line2d_6"/><g transform="matrix(.13 0 0 -.13 217.179 289.542)" id="text_3"><defs><path id="MyriadPro-Regular-32" d="M2944 0v467H1075v13l333 307c877 845 1434 1466 1434 2234 0 595-378 1209-1274 1209-480 0-890-179-1178-422l180-397c192 160 505 352 883 352 621 0 825-390 825-813-6-627-486-1164-1548-2176L288 346V0h2656z" transform="scale(.01563)"/></defs><use xlink:href="#MyriadPro-Regular-32"/></g></g><g id="xtick_4"><path d="M291.937 273.312V7.2" clip-path="url(#p5d4f94115b)" style="fill:none;stroke:#b0b0b0;stroke-width:.8;stroke-linecap:square" id="line2d_7"/><use xlink:href="#ma46a0685fa" x="291.937" y="273.312" style="stroke:#000;stroke-width:.8" id="line2d_8"/><g transform="matrix(.13 0 0 -.13 288.603 289.542)" id="text_4"><defs><path id="MyriadPro-Regular-33" d="M269 211C474 77 883-70 1350-70c999 0 1517 582 1517 1248 0 582-416 966-928 1068v13c512 186 768 551 768 979 0 506-371 992-1190 992-448 0-871-160-1088-320l147-409c179 128 499 275 832 275 518 0 730-294 730-627 0-493-519-704-928-704H896v-423h314c544 0 1068-249 1075-832 6-345-218-806-941-806-390 0-762 160-922 262L269 211z" transform="scale(.01563)"/></defs><use xlink:href="#MyriadPro-Regular-33"/></g></g><g id="xtick_5"><path d="M363.361 273.312V7.2" clip-path="url(#p5d4f94115b)" style="fill:none;stroke:#b0b0b0;stroke-width:.8;stroke-linecap:square" id="line2d_9"/><use xlink:href="#ma46a0685fa" x="363.361" y="273.312" style="stroke:#000;stroke-width:.8" id="line2d_10"/><g transform="matrix(.13 0 0 -.13 360.027 289.542)" id="text_5"><defs><path id="MyriadPro-Regular-34" d="M2560 0v1133h582v441h-582v2586h-608L96 1504v-371h1933V0h531zM666 1574v13l1017 1415c115 192 218 371 346 614h19c-13-218-19-435-19-653V1574H666z" transform="scale(.01563)"/></defs><use xlink:href="#MyriadPro-Regular-34"/></g></g><g transform="matrix(.13 0 0 -.13 215.73 305.346)" id="text_6"><defs><path id="MyriadPro-Regular-77" d="M115 3098 1050 0h512l499 1472c109 333 205 653 281 1024h13c77-365 167-672 275-1018L3104 0h512l998 3098h-556l-442-1556c-102-364-186-691-237-1004h-19c-70 313-160 640-275 1011l-480 1549h-474l-505-1575c-103-339-205-672-276-985h-19c-57 320-141 640-230 985L691 3098H115z" transform="scale(.01563)"/></defs><use xlink:href="#MyriadPro-Regular-77"/></g></g><g id="matplotlib.axis_2"><g id="ytick_1"><path d="M41.953 251.136h357.12" clip-path="url(#p5d4f94115b)" style="fill:none;stroke:#b0b0b0;stroke-width:.8;stroke-linecap:square" id="line2d_11"/><g id="line2d_12"><defs><path id="m50390ece4c" d="M0 0h-3.5" style="stroke:#000;stroke-width:.8"/></defs><use xlink:href="#m50390ece4c" x="41.953" y="251.136" style="stroke:#000;stroke-width:.8"/></g><g transform="matrix(.13 0 0 -.13 7.2 255.751)" id="text_7"><defs><path id="MyriadPro-Regular-2212" d="M256 1901v-384h3302v384H256z" transform="scale(.01563)"/></defs><use xlink:href="#MyriadPro-Regular-2212"/><use xlink:href="#MyriadPro-Regular-31" x="59.6"/><use xlink:href="#MyriadPro-Regular-30" x="110.9"/><use xlink:href="#MyriadPro-Regular-30" x="162.2"/></g></g><g id="ytick_2"><path d="M41.953 195.696h357.12" clip-path="url(#p5d4f94115b)" style="fill:none;stroke:#b0b0b0;stroke-width:.8;stroke-linecap:square" id="line2d_13"/><use xlink:href="#m50390ece4c" x="41.953" y="195.696" style="stroke:#000;stroke-width:.8" id="line2d_14"/><g transform="matrix(.13 0 0 -.13 13.869 200.311)" id="text_8"><defs><path id="MyriadPro-Regular-35" d="M2771 4160H781L512 2163c154 19 339 45 576 45 832 0 1190-384 1197-922 0-556-455-902-986-902-377 0-717 128-889 230L269 186C467 58 851-70 1306-70c902 0 1548 608 1548 1420 0 525-268 884-595 1069-256 154-576 224-896 224-153 0-243-13-339-25l160 1068h1587v474z" transform="scale(.01563)"/></defs><use xlink:href="#MyriadPro-Regular-2212"/><use xlink:href="#MyriadPro-Regular-35" x="59.6"/><use xlink:href="#MyriadPro-Regular-30" x="110.9"/></g></g><g id="ytick_3"><path d="M41.953 140.256h357.12" clip-path="url(#p5d4f94115b)" style="fill:none;stroke:#b0b0b0;stroke-width:.8;stroke-linecap:square" id="line2d_15"/><use xlink:href="#m50390ece4c" x="41.953" y="140.256" style="stroke:#000;stroke-width:.8" id="line2d_16"/><use xlink:href="#MyriadPro-Regular-30" transform="matrix(.13 0 0 -.13 28.284 144.871)" id="text_9"/></g><g id="ytick_4"><path d="M41.953 84.816h357.12" clip-path="url(#p5d4f94115b)" style="fill:none;stroke:#b0b0b0;stroke-width:.8;stroke-linecap:square" id="line2d_17"/><use xlink:href="#m50390ece4c" x="41.953" y="84.816" style="stroke:#000;stroke-width:.8" id="line2d_18"/><g transform="matrix(.13 0 0 -.13 21.616 89.431)" id="text_10"><use xlink:href="#MyriadPro-Regular-35"/><use xlink:href="#MyriadPro-Regular-30" x="51.3"/></g></g><g id="ytick_5"><path d="M41.953 29.376h357.12" clip-path="url(#p5d4f94115b)" style="fill:none;stroke:#b0b0b0;stroke-width:.8;stroke-linecap:square" id="line2d_19"/><use xlink:href="#m50390ece4c" x="41.953" y="29.376" style="stroke:#000;stroke-width:.8" id="line2d_20"/><g transform="matrix(.13 0 0 -.13 14.947 33.991)" id="text_11"><use xlink:href="#MyriadPro-Regular-31"/><use xlink:href="#MyriadPro-Regular-30" x="51.3"/><use xlink:href="#MyriadPro-Regular-30" x="102.6"/></g></g></g><path d="m6.241 259.356 5.163-.115 5.163-.105 5.164-.097 5.163-.094 5.163-.098 5.163-.119 5.163-.192 5.163-.433 5.164-1.24 5.163-3.845 5.163-11.036 5.163-25.045 5.163-39.576 5.163-42.819 5.164-36.59 5.163-31.895 5.163-34.302L97.781-1m16.685 0 .202 1.583 5.163 30.761 5.163 23.907 5.163 18.922 5.163 15.199 5.164 12.354 5.163 10.139 5.163 8.38 5.163 6.96 5.163 5.803 5.164 4.84 5.163 4.032 5.163 3.347 5.163 2.758 5.163 2.248 5.163 1.8 5.164 1.404 5.163 1.052 5.163.734 5.163.446 5.163.183 5.164-.06 5.163-.283 5.163-.494 5.163-.691 5.163-.877 5.163-1.054 5.164-1.223 5.163-1.385 5.163-1.541 5.163-1.693 5.163-1.84 5.164-1.983 5.163-2.124 5.163-2.26 5.163-2.397 5.163-2.53 5.163-2.663 5.164-2.794 5.163-2.923 5.163-3.053 5.163-3.18 5.163-3.31 5.164-3.438 5.163-3.565 5.163-3.694 5.163-3.822 5.163-3.95 5.163-4.079 5.164-4.208 5.163-4.339 5.163-4.468 5.163-4.6 5.163-4.732 5.164-4.864 5.163-4.997 5.163-5.132 3.467-3.537" clip-path="url(#p5d4f94115b)" style="fill:none;stroke:#1f77b4;stroke-width:1.5;stroke-linecap:square" id="line2d_21"/><path d="M41.953 273.312V7.2" style="fill:none;stroke:#000;stroke-width:.8;stroke-linejoin:miter;stroke-linecap:square" id="patch_3"/><path d="M399.073 273.312V7.2" style="fill:none;stroke:#000;stroke-width:.8;stroke-linejoin:miter;stroke-linecap:square" id="patch_4"/><path d="M41.953 273.312h357.12" style="fill:none;stroke:#000;stroke-width:.8;stroke-linejoin:miter;stroke-linecap:square" id="patch_5"/><path d="M41.953 7.2h357.12" style="fill:none;stroke:#000;stroke-width:.8;stroke-linejoin:miter;stroke-linecap:square" id="patch_6"/></g></g><defs><clipPath id="p5d4f94115b"><path d="M41.953 7.2h357.12v266.112H41.953z"/></clipPath></defs></svg>