<svg xmlns:xlink="http://www.w3.org/1999/xlink" width="638.165" height="473.158" viewBox="0 0 478.624 354.868" xmlns="http://www.w3.org/2000/svg"><defs><style>*{stroke-linejoin:round;stroke-linecap:butt}</style></defs><g id="figure_1"><path d="M0 354.868h478.624V0H0v354.868z" style="fill:none" id="patch_1"/><g id="axes_1"><path d="M42.926 323.252h357.12V57.14H42.926v266.112z" style="fill:none" id="patch_2"/><g id="matplotlib.axis_1"><g id="xtick_1"><g id="line2d_1"><defs><path id="mdb39eceeaf" d="M0 0v3.5" style="stroke:#b0b0b0;stroke-width:.4"/></defs><use xlink:href="#mdb39eceeaf" x="42.926" y="323.252" style="fill:#b0b0b0;stroke:#b0b0b0;stroke-width:.4"/></g><g style="fill:#b0b0b0" transform="matrix(.14 0 0 -.14 32.986 340.192)" id="text_1"><defs><path id="MyriadPro-Regular-31" d="M1510 0h544v4160h-480l-908-486 108-429 724 390h12V0z" transform="scale(.01563)"/><path id="MyriadPro-Regular-30" d="M1677 4230c-845 0-1447-768-1447-2163C243 691 794-70 1606-70c922 0 1447 780 1447 2195 0 1325-499 2105-1376 2105zm-32-435c582 0 845-672 845-1696 0-1062-276-1734-852-1734-512 0-844 614-844 1696 0 1133 358 1734 851 1734z" transform="scale(.01563)"/></defs><use xlink:href="#MyriadPro-Regular-31" transform="translate(0 .85)"/><use xlink:href="#MyriadPro-Regular-30" transform="translate(51.3 .85)"/><use xlink:href="#MyriadPro-Regular-30" transform="matrix(.7 0 0 .7 103.447 34.734)"/></g></g><g id="xtick_2"><use xlink:href="#mdb39eceeaf" x="96.85" y="323.252" style="fill:#b0b0b0;stroke:#b0b0b0;stroke-width:.4" id="line2d_2"/><g style="fill:#b0b0b0" transform="matrix(.14 0 0 -.14 86.91 340.192)" id="text_2"><use xlink:href="#MyriadPro-Regular-31" transform="translate(0 .616)"/><use xlink:href="#MyriadPro-Regular-30" transform="translate(51.3 .616)"/><use xlink:href="#MyriadPro-Regular-31" transform="matrix(.7 0 0 .7 103.447 34.5)"/></g></g><g id="xtick_3"><use xlink:href="#mdb39eceeaf" x="150.774" y="323.252" style="fill:#b0b0b0;stroke:#b0b0b0;stroke-width:.4" id="line2d_3"/><g style="fill:#b0b0b0" transform="matrix(.14 0 0 -.14 140.834 340.192)" id="text_3"><defs><path id="MyriadPro-Regular-32" d="M2944 0v467H1075v13l333 307c877 845 1434 1466 1434 2234 0 595-378 1209-1274 1209-480 0-890-179-1178-422l180-397c192 160 505 352 883 352 621 0 825-390 825-813-6-627-486-1164-1548-2176L288 346V0h2656z" transform="scale(.01563)"/></defs><use xlink:href="#MyriadPro-Regular-31" transform="translate(0 .85)"/><use xlink:href="#MyriadPro-Regular-30" transform="translate(51.3 .85)"/><use xlink:href="#MyriadPro-Regular-32" transform="matrix(.7 0 0 .7 103.447 34.734)"/></g></g><g id="xtick_4"><use xlink:href="#mdb39eceeaf" x="204.698" y="323.252" style="fill:#b0b0b0;stroke:#b0b0b0;stroke-width:.4" id="line2d_4"/><g style="fill:#b0b0b0" transform="matrix(.14 0 0 -.14 194.758 340.192)" id="text_4"><defs><path id="MyriadPro-Regular-33" d="M269 211C474 77 883-70 1350-70c999 0 1517 582 1517 1248 0 582-416 966-928 1068v13c512 186 768 551 768 979 0 506-371 992-1190 992-448 0-871-160-1088-320l147-409c179 128 499 275 832 275 518 0 730-294 730-627 0-493-519-704-928-704H896v-423h314c544 0 1068-249 1075-832 6-345-218-806-941-806-390 0-762 160-922 262L269 211z" transform="scale(.01563)"/></defs><use xlink:href="#MyriadPro-Regular-31" transform="translate(0 .85)"/><use xlink:href="#MyriadPro-Regular-30" transform="translate(51.3 .85)"/><use xlink:href="#MyriadPro-Regular-33" transform="matrix(.7 0 0 .7 103.447 34.734)"/></g></g><g id="xtick_5"><use xlink:href="#mdb39eceeaf" x="258.622" y="323.252" style="fill:#b0b0b0;stroke:#b0b0b0;stroke-width:.4" id="line2d_5"/><g style="fill:#b0b0b0" transform="matrix(.14 0 0 -.14 248.682 340.192)" id="text_5"><defs><path id="MyriadPro-Regular-34" d="M2560 0v1133h582v441h-582v2586h-608L96 1504v-371h1933V0h531zM666 1574v13l1017 1415c115 192 218 371 346 614h19c-13-218-19-435-19-653V1574H666z" transform="scale(.01563)"/></defs><use xlink:href="#MyriadPro-Regular-31" transform="translate(0 .616)"/><use xlink:href="#MyriadPro-Regular-30" transform="translate(51.3 .616)"/><use xlink:href="#MyriadPro-Regular-34" transform="matrix(.7 0 0 .7 103.447 34.5)"/></g></g><g id="xtick_6"><use xlink:href="#mdb39eceeaf" x="312.546" y="323.252" style="fill:#b0b0b0;stroke:#b0b0b0;stroke-width:.4" id="line2d_6"/><g style="fill:#b0b0b0" transform="matrix(.14 0 0 -.14 302.606 340.192)" id="text_6"><defs><path id="MyriadPro-Regular-35" d="M2771 4160H781L512 2163c154 19 339 45 576 45 832 0 1190-384 1197-922 0-556-455-902-986-902-377 0-717 128-889 230L269 186C467 58 851-70 1306-70c902 0 1548 608 1548 1420 0 525-268 884-595 1069-256 154-576 224-896 224-153 0-243-13-339-25l160 1068h1587v474z" transform="scale(.01563)"/></defs><use xlink:href="#MyriadPro-Regular-31" transform="translate(0 .616)"/><use xlink:href="#MyriadPro-Regular-30" transform="translate(51.3 .616)"/><use xlink:href="#MyriadPro-Regular-35" transform="matrix(.7 0 0 .7 103.447 34.5)"/></g></g><g id="xtick_7"><use xlink:href="#mdb39eceeaf" x="366.47" y="323.252" style="fill:#b0b0b0;stroke:#b0b0b0;stroke-width:.4" id="line2d_7"/><g style="fill:#b0b0b0" transform="matrix(.14 0 0 -.14 356.53 340.192)" id="text_7"><defs><path id="MyriadPro-Regular-36" d="M2662 4224c-102 0-243-6-409-32-525-64-986-275-1331-614-410-410-704-1056-704-1876C218 621 800-70 1690-70c864 0 1382 704 1382 1465 0 813-518 1344-1254 1344-461 0-807-217-1005-480h-19c96 685 563 1331 1446 1479 160 25 307 32 422 25v461zM1690 365c-589 0-903 505-916 1190 0 103 26 186 64 250 154 301 468 512 807 512 518 0 857-359 857-954s-326-998-806-998h-6z" transform="scale(.01563)"/></defs><use xlink:href="#MyriadPro-Regular-31" transform="translate(0 .916)"/><use xlink:href="#MyriadPro-Regular-30" transform="translate(51.3 .916)"/><use xlink:href="#MyriadPro-Regular-36" transform="matrix(.7 0 0 .7 103.447 34.8)"/></g></g></g><g id="matplotlib.axis_2"><g id="ytick_1"><path d="M42.926 323.252h357.12" clip-path="url(#pd36d7a248b)" style="fill:none;stroke:#b0b0b0;stroke-width:.3;stroke-linecap:square" id="line2d_8"/><g id="line2d_9"><defs><path id="m0149a25ddb" d="M0 0h-3.5" style="stroke:#b0b0b0;stroke-width:.3"/></defs><use xlink:href="#m0149a25ddb" x="42.926" y="323.252" style="fill:#b0b0b0;stroke:#b0b0b0;stroke-width:.3"/></g><use xlink:href="#MyriadPro-Regular-30" style="fill:#b0b0b0" transform="matrix(.14 0 0 -.14 28.745 328.222)" id="text_8"/></g><g id="ytick_2"><path d="M42.926 283.729h357.12" clip-path="url(#pd36d7a248b)" style="fill:none;stroke:#b0b0b0;stroke-width:.3;stroke-linecap:square" id="line2d_10"/><use xlink:href="#m0149a25ddb" x="42.926" y="283.729" style="fill:#b0b0b0;stroke:#b0b0b0;stroke-width:.3" id="line2d_11"/><g style="fill:#b0b0b0" transform="matrix(.14 0 0 -.14 14.382 288.699)" id="text_9"><use xlink:href="#MyriadPro-Regular-32"/><use xlink:href="#MyriadPro-Regular-30" x="51.3"/><use xlink:href="#MyriadPro-Regular-30" x="102.6"/></g></g><g id="ytick_3"><path d="M42.926 244.206h357.12" clip-path="url(#pd36d7a248b)" style="fill:none;stroke:#b0b0b0;stroke-width:.3;stroke-linecap:square" id="line2d_12"/><use xlink:href="#m0149a25ddb" x="42.926" y="244.206" style="fill:#b0b0b0;stroke:#b0b0b0;stroke-width:.3" id="line2d_13"/><g style="fill:#b0b0b0" transform="matrix(.14 0 0 -.14 14.382 249.176)" id="text_10"><use xlink:href="#MyriadPro-Regular-34"/><use xlink:href="#MyriadPro-Regular-30" x="51.3"/><use xlink:href="#MyriadPro-Regular-30" x="102.6"/></g></g><g id="ytick_4"><path d="M42.926 204.682h357.12" clip-path="url(#pd36d7a248b)" style="fill:none;stroke:#b0b0b0;stroke-width:.3;stroke-linecap:square" id="line2d_14"/><use xlink:href="#m0149a25ddb" x="42.926" y="204.682" style="fill:#b0b0b0;stroke:#b0b0b0;stroke-width:.3" id="line2d_15"/><g style="fill:#b0b0b0" transform="matrix(.14 0 0 -.14 14.382 209.652)" id="text_11"><use xlink:href="#MyriadPro-Regular-36"/><use xlink:href="#MyriadPro-Regular-30" x="51.3"/><use xlink:href="#MyriadPro-Regular-30" x="102.6"/></g></g><g id="ytick_5"><path d="M42.926 165.16h357.12" clip-path="url(#pd36d7a248b)" style="fill:none;stroke:#b0b0b0;stroke-width:.3;stroke-linecap:square" id="line2d_16"/><use xlink:href="#m0149a25ddb" x="42.926" y="165.159" style="fill:#b0b0b0;stroke:#b0b0b0;stroke-width:.3" id="line2d_17"/><g style="fill:#b0b0b0" transform="matrix(.14 0 0 -.14 14.382 170.13)" id="text_12"><defs><path id="MyriadPro-Regular-38" d="M1062 2170c-512-218-825-589-825-1114C237 448 762-70 1632-70c794 0 1414 486 1414 1209 0 506-320 871-838 1075v20c512 243 685 620 685 972 0 519-403 1024-1210 1024-729 0-1286-448-1286-1107 0-358 198-717 659-934l6-19zm583-1831c-531 0-851 371-832 794 0 397 262 717 749 857 563-160 915-403 915-908 0-423-327-743-832-743zm6 3488c506 0 704-345 704-678 0-378-275-634-633-755-480 128-794 352-794 768 0 358 256 665 723 665z" transform="scale(.01563)"/></defs><use xlink:href="#MyriadPro-Regular-38"/><use xlink:href="#MyriadPro-Regular-30" x="51.3"/><use xlink:href="#MyriadPro-Regular-30" x="102.6"/></g></g><g id="ytick_6"><path d="M42.926 125.636h357.12" clip-path="url(#pd36d7a248b)" style="fill:none;stroke:#b0b0b0;stroke-width:.3;stroke-linecap:square" id="line2d_18"/><use xlink:href="#m0149a25ddb" x="42.926" y="125.636" style="fill:#b0b0b0;stroke:#b0b0b0;stroke-width:.3" id="line2d_19"/><g style="fill:#b0b0b0" transform="matrix(.14 0 0 -.14 7.2 130.606)" id="text_13"><use xlink:href="#MyriadPro-Regular-31"/><use xlink:href="#MyriadPro-Regular-30" x="51.3"/><use xlink:href="#MyriadPro-Regular-30" x="102.6"/><use xlink:href="#MyriadPro-Regular-30" x="153.9"/></g></g><g id="ytick_7"><path d="M42.926 86.113h357.12" clip-path="url(#pd36d7a248b)" style="fill:none;stroke:#b0b0b0;stroke-width:.3;stroke-linecap:square" id="line2d_20"/><use xlink:href="#m0149a25ddb" x="42.926" y="86.113" style="fill:#b0b0b0;stroke:#b0b0b0;stroke-width:.3" id="line2d_21"/><g style="fill:#b0b0b0" transform="matrix(.14 0 0 -.14 7.2 91.083)" id="text_14"><use xlink:href="#MyriadPro-Regular-31"/><use xlink:href="#MyriadPro-Regular-32" x="51.3"/><use xlink:href="#MyriadPro-Regular-30" x="102.6"/><use xlink:href="#MyriadPro-Regular-30" x="153.9"/></g></g></g><path d="m42.926 57.14 16.233 63.735 16.233 32.845 16.232-6.68 16.233 70.218 16.233 41.6 16.233 21.028 16.232 18.27 16.233 13.898 16.233 1.87 16.233 3.958 16.232 1.985 16.233-.238 16.233.39 16.232.27 16.233-2.243 16.233-1.666 16.233 1.885 16.232-2.055 16.233.587 16.233.035 16.233.124 16.232-3.896" clip-path="url(#pd36d7a248b)" style="fill:none;stroke:#1f77b4;stroke-width:1.5;stroke-linecap:square" id="line2d_22"/><path d="m42.926 311.091 16.233.676 16.233 1.93 16.232 2.375 16.233 2.23 16.233 2.004 16.233 1.213 16.232.77 16.233.25 16.233.4 16.233.123 16.232-.01 16.233.105 16.233.019 16.232.009 16.233-.042h16.233l16.233-.229 16.232.127 16.233-.307 16.233.28 16.233-.001 16.232.08" clip-path="url(#pd36d7a248b)" style="fill:none;stroke:#ff7f0e;stroke-width:1.5;stroke-linecap:square" id="line2d_23"/><path d="m42.926 274.09 16.233 4.924 16.233 7.784 16.232 8.065 16.233 8.682 16.233 7.745 16.233 4.943 16.232 2.9 16.233 1.638 16.233.87 16.233.511 16.232.246 16.233.137 16.233.066 16.232.022 16.233-.867 16.233-.168 16.233-.177 16.232-.037 16.233.113 16.233-.171 16.233 1.024 16.232-.299" clip-path="url(#pd36d7a248b)" style="fill:none;stroke:#2ca02c;stroke-width:1.5;stroke-linecap:square" id="line2d_24"/><path d="M42.926 323.054h357.12" clip-path="url(#pd36d7a248b)" style="fill:none;stroke:#d62728;stroke-width:1.5;stroke-linecap:square" id="line2d_25"/><g style="fill:#1f77b4" transform="matrix(.14 0 0 -.14 410.76 302.897)" id="text_15"><defs><path id="MyriadPro-Regular-4f" d="M2234 4384c-1152 0-2004-896-2004-2266C230 813 1030-70 2170-70c1100 0 2003 787 2003 2272 0 1280-762 2182-1939 2182zm-26-454c928 0 1376-896 1376-1754 0-979-499-1792-1382-1792-877 0-1376 826-1376 1747 0 947 460 1799 1382 1799z" transform="scale(.01563)"/><path id="MyriadPro-Regular-53" d="M269 211C499 58 954-70 1370-70c1017 0 1510 582 1510 1248 0 633-371 985-1101 1267-595 230-857 429-857 832 0 294 224 646 812 646 391 0 679-128 820-205l153 455c-192 109-512 211-953 211-839 0-1396-499-1396-1171 0-608 436-973 1140-1223 582-224 812-454 812-857 0-435-332-736-902-736-384 0-749 128-998 281L269 211z" transform="scale(.01563)"/><path id="MyriadPro-Regular-41" d="M2714 1357 3174 0h596L2298 4314h-672L160 0h576l448 1357h1530zm-1415 435 423 1248c83 262 153 525 217 781h13c64-250 128-506 224-787l422-1242H1299z" transform="scale(.01563)"/><path id="MyriadPro-Regular-2d" d="M192 1939v-416h1581v416H192z" transform="scale(.01563)"/><path id="MyriadPro-Regular-55" d="M480 4314V1773C480 435 1146-70 2029-70c934 0 1632 544 1632 1868v2516h-563V1760c0-954-410-1376-1050-1376-576 0-1005 410-1005 1376v2554H480z" transform="scale(.01563)"/><path id="MyriadPro-Regular-43" d="M3386 582c-224-108-570-179-909-179-1050 0-1658 679-1658 1735 0 1132 672 1779 1683 1779 359 0 660-77 871-179l134 454c-147 77-486 192-1024 192-1337 0-2253-915-2253-2266C230 704 1146-70 2362-70c524 0 934 108 1139 211l-115 441z" transform="scale(.01563)"/></defs><use xlink:href="#MyriadPro-Regular-4f"/><use xlink:href="#MyriadPro-Regular-53" x="68.9"/><use xlink:href="#MyriadPro-Regular-41" x="118.2"/><use xlink:href="#MyriadPro-Regular-2d" x="179.4"/><use xlink:href="#MyriadPro-Regular-55" x="210.1"/><use xlink:href="#MyriadPro-Regular-43" x="274.8"/><use xlink:href="#MyriadPro-Regular-53" x="332.8"/></g><g style="fill:#ff7f0e" transform="matrix(.14 0 0 -.14 410.76 344.897)" id="text_16"><defs><path id="MyriadPro-Regular-49" d="M486 4314V0h557v4314H486z" transform="scale(.01563)"/><path id="MyriadPro-Regular-45" d="M2720 2483H1043v1363h1773v468H486V0h2426v467H1043v1555h1677v461z" transform="scale(.01563)"/><path id="MyriadPro-Regular-4c" d="M486 0h2400v467H1043v3847H486V0z" transform="scale(.01563)"/><path id="MyriadPro-Regular-42" d="M486 13c186-26 480-51 864-51 704 0 1191 128 1492 403 217 211 364 493 364 864 0 640-480 979-889 1081v13c454 167 729 531 729 947 0 340-134 596-358 762-269 218-627 314-1184 314-390 0-774-39-1018-90V13zm557 3865c90 20 237 39 493 39 563 0 947-199 947-704 0-416-345-723-934-723h-506v1388zm0-1811h461c608 0 1114-243 1114-832 0-627-532-838-1108-838-198 0-358 6-467 25v1645z" transform="scale(.01563)"/></defs><use xlink:href="#MyriadPro-Regular-43"/><use xlink:href="#MyriadPro-Regular-49" x="58"/><use xlink:href="#MyriadPro-Regular-45" x="81.9"/><use xlink:href="#MyriadPro-Regular-4c" x="131.1"/><use xlink:href="#MyriadPro-Regular-41" x="178.3"/><use xlink:href="#MyriadPro-Regular-42" x="239.5"/></g><g style="fill:#2ca02c" transform="matrix(.14 0 0 -.14 410.76 316.897)" id="text_17"><defs><path id="MyriadPro-Regular-4d" d="M4230 0h544l-268 4314h-711l-768-2087c-192-544-345-1017-454-1453h-19c-109 448-256 922-436 1453l-736 2087H672L371 0h531l116 1850c38 646 70 1369 83 1907h13c121-512 294-1069 499-1677L2310 26h423l761 2092c218 589 397 1133 544 1639h20c-7-538 32-1261 64-1863L4230 0z" transform="scale(.01563)"/></defs><use xlink:href="#MyriadPro-Regular-43"/><use xlink:href="#MyriadPro-Regular-49" x="58"/><use xlink:href="#MyriadPro-Regular-45" x="81.9"/><use xlink:href="#MyriadPro-Regular-43" x="131.1"/><use xlink:href="#MyriadPro-Regular-41" x="189.1"/><use xlink:href="#MyriadPro-Regular-4d" x="250.3"/><use xlink:href="#MyriadPro-Regular-30" x="330.7"/><use xlink:href="#MyriadPro-Regular-32" x="382"/></g><g style="fill:#d62728" transform="matrix(.14 0 0 -.14 410.76 330.897)" id="text_18"><defs><path id="MyriadPro-Regular-63" d="M2579 538c-160-71-371-154-691-154-614 0-1075 442-1075 1158 0 647 384 1172 1094 1172 307 0 519-71 653-148l128 436c-154 76-448 160-781 160-1011 0-1664-692-1664-1645C243 570 851-70 1786-70c416 0 742 108 889 185l-96 423z" transform="scale(.01563)"/><path id="MyriadPro-Regular-62" d="M467 800c0-275-13-589-25-800h486l26 512h19c230-410 589-582 1037-582 691 0 1388 550 1388 1657 7 941-537 1581-1305 1581-499 0-858-224-1056-570h-13v1946H467V800zm557 998c0 90 19 167 32 231 115 429 474 691 858 691 601 0 921-531 921-1152 0-710-352-1190-941-1190-409 0-736 268-844 659-13 64-26 134-26 205v556z" transform="scale(.01563)"/><path id="MyriadPro-Regular-72" d="M467 0h557v1651c0 96 13 186 26 263 76 422 358 723 755 723 77 0 134-7 192-19v531c-51 13-96 19-160 19-378 0-717-262-858-678h-25l-20 608H442c19-288 25-602 25-967V0z" transform="scale(.01563)"/><path id="MyriadPro-Regular-74" d="M595 3667v-569H115v-429h480V979c0-365 58-640 218-806C947 19 1158-70 1421-70c217 0 390 38 499 83l-26 422c-83-25-172-38-326-38-314 0-422 217-422 601v1671h806v429h-806v742l-551-173z" transform="scale(.01563)"/></defs><use xlink:href="#MyriadPro-Regular-63"/><use xlink:href="#MyriadPro-Regular-62" x="44.8"/><use xlink:href="#MyriadPro-Regular-72" x="101.7"/><use xlink:href="#MyriadPro-Regular-74" x="134.4"/></g><g style="fill:#b0b0b0" transform="matrix(.14 0 0 -.14 152.692 17.14)" id="text_19"><defs><path id="MyriadPro-Regular-52" d="M486 0h557v1869h525c506-19 736-243 864-839 122-537 218-902 288-1030h576c-90 166-192 582-333 1184-102 448-301 755-633 870v20c454 153 812 531 812 1100 0 333-121 628-339 820-269 243-653 352-1248 352-384 0-787-32-1069-90V0zm557 3866c90 25 282 51 551 51 588-7 992-250 992-807 0-492-378-819-973-819h-570v1575z" transform="scale(.01563)"/><path id="MyriadPro-Regular-75" d="M3059 3098h-563V1197c0-103-19-205-51-288-103-250-365-512-743-512-512 0-691 397-691 985v1716H448V1286C448 198 1030-70 1517-70c550 0 877 326 1024 576h13l32-506h499c-19 243-26 525-26 845v2253z" transform="scale(.01563)"/><path id="MyriadPro-Regular-6e" d="M467 0h563v1862c0 96 13 192 39 263 96 313 384 576 755 576 531 0 717-416 717-915V0h563v1850c0 1062-666 1318-1094 1318-512 0-871-288-1024-582h-13l-32 512H442c19-256 25-519 25-839V0z" transform="scale(.01563)"/><path id="MyriadPro-Regular-69" d="M1030 0v3098H467V0h563zM749 4320c-205 0-352-154-352-352 0-192 141-346 339-346 224 0 365 154 358 346 0 198-134 352-345 352z" transform="scale(.01563)"/><path id="MyriadPro-Regular-6d" d="M467 0h551v1869c0 96 12 192 44 275 90 282 346 563 698 563 429 0 646-358 646-851V0h551v1914c0 102 19 204 45 281 96 275 345 512 665 512 455 0 672-358 672-953V0h551v1824c0 1075-608 1344-1018 1344-294 0-499-77-685-218-128-96-249-230-345-403h-13c-135 365-455 621-877 621-512 0-800-275-973-570h-19l-26 500H442c19-256 25-519 25-839V0z" transform="scale(.01563)"/><path id="MyriadPro-Regular-65" d="M2957 1446c6 58 19 148 19 263 0 569-269 1459-1280 1459-902 0-1453-736-1453-1670C243 563 813-70 1766-70c493 0 832 108 1031 198l-96 403c-211-89-455-160-858-160-563 0-1049 314-1062 1075h2176zM787 1850c45 390 295 915 864 915 634 0 787-557 781-915H787z" transform="scale(.01563)"/><path id="MyriadPro-Regular-6c" d="M467 0h563v4544H467V0z" transform="scale(.01563)"/><path id="MyriadPro-Regular-61" d="M2643 1901c0 621-230 1267-1177 1267-391 0-762-109-1018-275l128-371c218 140 518 230 806 230 634 0 704-461 704-717v-64C890 1978 224 1568 224 819c0-448 320-889 947-889 442 0 775 217 947 460h20l44-390h512c-38 211-51 474-51 742v1159zm-544-858c0-57-13-121-32-179-89-262-345-518-749-518-288 0-531 172-531 537 0 602 698 711 1312 698v-538z" transform="scale(.01563)"/><path id="MyriadPro-Regular-76" d="M83 3098 1261 0h537l1216 3098h-588l-602-1741c-102-282-192-538-262-794h-20c-64 256-147 512-249 794L685 3098H83z" transform="scale(.01563)"/><path id="MyriadPro-Regular-6f" d="M1779 3168c-857 0-1536-608-1536-1645C243 544 890-70 1728-70c749 0 1542 499 1542 1644 0 948-601 1594-1491 1594zm-13-422c666 0 928-666 928-1191 0-697-403-1203-940-1203-551 0-941 512-941 1190 0 589 288 1204 953 1204z" transform="scale(.01563)"/></defs><use xlink:href="#MyriadPro-Regular-52"/><use xlink:href="#MyriadPro-Regular-75" x="53.8"/><use xlink:href="#MyriadPro-Regular-6e" x="108.9"/><use xlink:href="#MyriadPro-Regular-74" x="164.4"/><use xlink:href="#MyriadPro-Regular-69" x="197.5"/><use xlink:href="#MyriadPro-Regular-6d" x="220.9"/><use xlink:href="#MyriadPro-Regular-65" x="304.3"/><use xlink:href="#MyriadPro-Regular-20" x="354.4"/><use xlink:href="#MyriadPro-Regular-72" x="375.6"/><use xlink:href="#MyriadPro-Regular-65" x="408.3"/><use xlink:href="#MyriadPro-Regular-6c" x="458.4"/><use xlink:href="#MyriadPro-Regular-61" x="482"/><use xlink:href="#MyriadPro-Regular-74" x="530.2"/><use xlink:href="#MyriadPro-Regular-69" x="563.3"/><use xlink:href="#MyriadPro-Regular-76" x="586.7"/><use xlink:href="#MyriadPro-Regular-65" x="634.8"/><use xlink:href="#MyriadPro-Regular-20" x="684.9"/><use xlink:href="#MyriadPro-Regular-74" x="706.1"/><use xlink:href="#MyriadPro-Regular-6f" x="739.2"/><use xlink:href="#MyriadPro-Regular-20" x="794.1"/><use xlink:href="#MyriadPro-Regular-63" x="815.3"/><use xlink:href="#MyriadPro-Regular-62" x="860.1"/><use xlink:href="#MyriadPro-Regular-72" x="917"/><use xlink:href="#MyriadPro-Regular-74" x="949.7"/></g></g></g><defs><clipPath id="pd36d7a248b"><path d="M42.926 57.14h357.12v266.112H42.926z"/></clipPath></defs></svg>