<svg height="396.254" viewBox="0 0 399.625 297.19" width="532.833" xmlns="http://www.w3.org/2000/svg" xmlns:xlink="http://www.w3.org/1999/xlink"><defs><style>*{stroke-linecap:butt;stroke-linejoin:round}</style></defs><g id="figure_1"><path d="M0 297.19h399.625V0H0z" fill="none" id="patch_1"/><g id="axes_1"><path d="M35.305 273.312h357.12V7.2H35.305z" fill="none" id="patch_2"/><g id="matplotlib.axis_1"><g id="xtick_1"><g id="line2d_1"><defs><path d="M0 0v3.5" id="m5c12f5d207" stroke="#000" stroke-width=".8"/></defs><use x="52.252" xlink:href="#m5c12f5d207" y="273.312" stroke="#000" stroke-width=".8"/></g><g id="text_1"><defs><path d="M10.594 35.5h62.593v-8.297H10.594z" id="DejaVuSans-8722"/><path d="M40.578 39.313Q47.656 37.797 51.625 33q3.984-4.781 3.984-11.813 0-10.78-7.422-16.703-7.421-5.906-21.093-5.906-4.578 0-9.438.906-4.86.907-10.031 2.72v9.515q4.094-2.39 8.969-3.61 4.89-1.218 10.218-1.218 9.266 0 14.125 3.656 4.86 3.656 4.86 10.64 0 6.454-4.516 10.079-4.515 3.64-12.562 3.64h-8.5v8.11h8.89q7.266 0 11.125 2.906 3.86 2.906 3.86 8.375 0 5.61-3.985 8.61-3.968 3.015-11.39 3.015-4.063 0-8.703-.89-4.641-.876-10.203-2.72v8.782q5.624 1.562 10.53 2.344 4.907.78 9.25.78 11.235 0 17.766-5.109 6.547-5.093 6.547-13.78 0-6.063-3.468-10.235-3.47-4.172-9.86-5.782z" id="DejaVuSans-51"/><path d="M31.781 66.406q-7.61 0-11.453-7.5Q16.5 51.422 16.5 36.375q0-14.984 3.828-22.484 3.844-7.5 11.453-7.5 7.672 0 11.5 7.5 3.844 7.5 3.844 22.484 0 15.047-3.844 22.531-3.828 7.5-11.5 7.5zm0 7.813q12.266 0 18.735-9.703 6.468-9.688 6.468-28.141 0-18.406-6.468-28.11-6.47-9.687-18.735-9.687-12.25 0-18.718 9.688-6.47 9.703-6.47 28.109 0 18.453 6.47 28.14Q19.53 74.22 31.78 74.22z" id="DejaVuSans-48"/></defs><g transform="matrix(.1 0 0 -.1 41.7 287.91)"><use xlink:href="#DejaVuSans-8722"/><use x="83.789" xlink:href="#DejaVuSans-51"/><use x="147.412" xlink:href="#DejaVuSans-48"/></g></g></g><g id="xtick_2"><use x="98.732" xlink:href="#m5c12f5d207" y="273.312" stroke="#000" stroke-width=".8" id="line2d_2"/><g id="text_2"><defs><path d="M19.188 8.297h34.421V0H7.33v8.297q5.609 5.812 15.296 15.594 9.703 9.797 12.188 12.64 4.734 5.313 6.609 9 1.89 3.688 1.89 7.25 0 5.813-4.078 9.469-4.078 3.672-10.625 3.672-4.64 0-9.797-1.61-5.14-1.609-11-4.89v9.969Q13.767 71.78 18.938 73q5.188 1.219 9.485 1.219 11.328 0 18.062-5.672 6.735-5.656 6.735-15.125 0-4.5-1.688-8.531-1.672-4.016-6.125-9.485-1.218-1.422-7.765-8.187-6.532-6.766-18.453-18.922z" id="DejaVuSans-50"/></defs><g transform="matrix(.1 0 0 -.1 88.18 287.91)"><use xlink:href="#DejaVuSans-8722"/><use x="83.789" xlink:href="#DejaVuSans-50"/><use x="147.412" xlink:href="#DejaVuSans-48"/></g></g></g><g id="xtick_3"><use x="145.213" xlink:href="#m5c12f5d207" y="273.312" stroke="#000" stroke-width=".8" id="line2d_3"/><g id="text_3"><defs><path d="M12.406 8.297h16.11v55.625l-17.532-3.516v8.985l17.438 3.515h9.86V8.296H54.39V0H12.406z" id="DejaVuSans-49"/></defs><g transform="matrix(.1 0 0 -.1 134.661 287.91)"><use xlink:href="#DejaVuSans-8722"/><use x="83.789" xlink:href="#DejaVuSans-49"/><use x="147.412" xlink:href="#DejaVuSans-48"/></g></g></g><g id="xtick_4"><use x="191.694" xlink:href="#m5c12f5d207" y="273.312" stroke="#000" stroke-width=".8" id="line2d_4"/><use xlink:href="#DejaVuSans-48" transform="matrix(.1 0 0 -.1 188.513 287.91)" id="text_4"/></g><g id="xtick_5"><use x="238.175" xlink:href="#m5c12f5d207" y="273.312" stroke="#000" stroke-width=".8" id="line2d_5"/><g transform="matrix(.1 0 0 -.1 231.813 287.91)" id="text_5"><use xlink:href="#DejaVuSans-49"/><use x="63.623" xlink:href="#DejaVuSans-48"/></g></g><g id="xtick_6"><use x="284.656" xlink:href="#m5c12f5d207" y="273.312" stroke="#000" stroke-width=".8" id="line2d_6"/><g transform="matrix(.1 0 0 -.1 278.293 287.91)" id="text_6"><use xlink:href="#DejaVuSans-50"/><use x="63.623" xlink:href="#DejaVuSans-48"/></g></g><g id="xtick_7"><use x="331.137" xlink:href="#m5c12f5d207" y="273.312" stroke="#000" stroke-width=".8" id="line2d_7"/><g transform="matrix(.1 0 0 -.1 324.774 287.91)" id="text_7"><use xlink:href="#DejaVuSans-51"/><use x="63.623" xlink:href="#DejaVuSans-48"/></g></g><g id="xtick_8"><use x="377.618" xlink:href="#m5c12f5d207" y="273.312" stroke="#000" stroke-width=".8" id="line2d_8"/><g id="text_8"><defs><path d="M37.797 64.313L12.89 25.39h24.906zm-2.594 8.593H47.61V25.391h10.407v-8.203H47.609V0h-9.812v17.188H4.89v9.515z" id="DejaVuSans-52"/></defs><g transform="matrix(.1 0 0 -.1 371.255 287.91)"><use xlink:href="#DejaVuSans-52"/><use x="63.623" xlink:href="#DejaVuSans-48"/></g></g></g></g><g id="matplotlib.axis_2"><g id="ytick_1"><g id="line2d_9"><defs><path d="M0 0h-3.5" id="m72991a5867" stroke="#000" stroke-width=".8"/></defs><use x="35.305" xlink:href="#m72991a5867" y="234.064" stroke="#000" stroke-width=".8"/></g><g transform="matrix(.1 0 0 -.1 7.2 237.863)" id="text_9"><use xlink:href="#DejaVuSans-8722"/><use x="83.789" xlink:href="#DejaVuSans-50"/><use x="147.412" xlink:href="#DejaVuSans-48"/></g></g><g id="ytick_2"><use x="35.305" xlink:href="#m72991a5867" y="187.583" stroke="#000" stroke-width=".8" id="line2d_10"/><g transform="matrix(.1 0 0 -.1 7.2 191.383)" id="text_10"><use xlink:href="#DejaVuSans-8722"/><use x="83.789" xlink:href="#DejaVuSans-49"/><use x="147.412" xlink:href="#DejaVuSans-48"/></g></g><g id="ytick_3"><use x="35.305" xlink:href="#m72991a5867" y="141.102" stroke="#000" stroke-width=".8" id="line2d_11"/><use xlink:href="#DejaVuSans-48" transform="matrix(.1 0 0 -.1 21.942 144.902)" id="text_11"/></g><g id="ytick_4"><use x="35.305" xlink:href="#m72991a5867" y="94.622" stroke="#000" stroke-width=".8" id="line2d_12"/><g transform="matrix(.1 0 0 -.1 15.58 98.42)" id="text_12"><use xlink:href="#DejaVuSans-49"/><use x="63.623" xlink:href="#DejaVuSans-48"/></g></g><g id="ytick_5"><use x="35.305" xlink:href="#m72991a5867" y="48.141" stroke="#000" stroke-width=".8" id="line2d_13"/><g transform="matrix(.1 0 0 -.1 15.58 51.94)" id="text_13"><use xlink:href="#DejaVuSans-50"/><use x="63.623" xlink:href="#DejaVuSans-48"/></g></g></g><path clip-path="url(#p9c0e1b1846)" d="M190.163 183.241l-48.908 77.906" fill="none" stroke="gray" stroke-linecap="square" stroke-width="1.5" id="line2d_14"/><g id="line2d_15"><defs><path d="M0 3a3 3 0 100-6 3 3 0 000 6z" id="m490140bcad" stroke="#000"/></defs><g clip-path="url(#p9c0e1b1846)"><use x="141.364" xlink:href="#m490140bcad" y="261.216" fill="#fff" stroke="#000"/></g></g><g id="line2d_16"><defs><path d="M0 3a3 3 0 100-6 3 3 0 000 6z" id="mfccdb74a59" stroke="#a7cafa"/></defs><g clip-path="url(#p9c0e1b1846)"><use x="168.889" xlink:href="#mfccdb74a59" y="227.212" fill="#a7cafa" stroke="#a7cafa"/></g></g><g id="line2d_17"><defs><path d="M0 3a3 3 0 100-6 3 3 0 000 6z" id="mad81e25236" stroke="#40abf3"/></defs><g clip-path="url(#p9c0e1b1846)"><use x="138.171" xlink:href="#mad81e25236" y="258.136" fill="#40abf3" stroke="#40abf3"/></g></g><g id="line2d_18"><defs><path d="M0 3a3 3 0 100-6 3 3 0 000 6z" id="m5932a16fed" stroke="#26547d"/></defs><g clip-path="url(#p9c0e1b1846)"><use x="162.226" xlink:href="#m5932a16fed" y="227.93" fill="#26547d" stroke="#26547d"/></g></g><g clip-path="url(#p9c0e1b1846)" id="line2d_19"><use x="153.62" xlink:href="#m490140bcad" y="248.972" fill="#fff" stroke="#000"/></g><g clip-path="url(#p9c0e1b1846)" id="line2d_20"><use x="137.462" xlink:href="#m490140bcad" y="257.172" fill="#fff" stroke="#000"/></g><g id="line2d_21"><defs><path d="M0 3a3 3 0 100-6 3 3 0 000 6z" id="mc466e98e72" stroke="#6182a9"/></defs><g clip-path="url(#p9c0e1b1846)"><use x="167.925" xlink:href="#mc466e98e72" y="220.726" fill="#6182a9" stroke="#6182a9"/></g></g><g id="line2d_22"><defs><path d="M0 3a3 3 0 100-6 3 3 0 000 6z" id="m75e4940404" stroke="#3b85bd"/></defs><g clip-path="url(#p9c0e1b1846)"><use x="148.077" xlink:href="#m75e4940404" y="243.605" fill="#3b85bd" stroke="#3b85bd"/></g></g><g id="line2d_23"><defs><path d="M0 3a3 3 0 100-6 3 3 0 000 6z" id="m0b3941ddd4" stroke="#335377"/></defs><g clip-path="url(#p9c0e1b1846)"><use x="169.873" xlink:href="#m0b3941ddd4" y="220.08" fill="#335377" stroke="#335377"/></g></g><path clip-path="url(#p9c0e1b1846)" d="M190.163 183.241L68.924 118.677" fill="none" stroke="gray" stroke-linecap="square" stroke-width="1.5" id="line2d_24"/><g id="line2d_25"><defs><path d="M0 3a3 3 0 100-6 3 3 0 000 6z" id="m4ecb887472" stroke="#658684"/></defs><g clip-path="url(#p9c0e1b1846)"><use x="139.194" xlink:href="#m4ecb887472" y="155.818" fill="#658684" stroke="#658684"/></g></g><g id="line2d_26"><defs><path d="M0 3a3 3 0 100-6 3 3 0 000 6z" id="m5d294667be" stroke="#abcdd4"/></defs><g clip-path="url(#p9c0e1b1846)"><use x="142.604" xlink:href="#m5d294667be" y="170.63" fill="#abcdd4" stroke="#abcdd4"/></g></g><g id="line2d_27"><defs><path d="M0 3a3 3 0 100-6 3 3 0 000 6z" id="ma5b6e4977c" stroke="#3a5751"/></defs><g clip-path="url(#p9c0e1b1846)"><use x="139.942" xlink:href="#ma5b6e4977c" y="145.286" fill="#3a5751" stroke="#3a5751"/></g></g><g id="line2d_28"><defs><path d="M0 3a3 3 0 100-6 3 3 0 000 6z" id="m88cd23769b" stroke="#56deb3"/></defs><g clip-path="url(#p9c0e1b1846)"><use x="67.206" xlink:href="#m88cd23769b" y="122.013" fill="#56deb3" stroke="#56deb3"/></g></g><g id="line2d_29"><defs><path d="M0 3a3 3 0 100-6 3 3 0 000 6z" id="m2119bf6be7" stroke="#84d7c2"/></defs><g clip-path="url(#p9c0e1b1846)"><use x="95.203" xlink:href="#m2119bf6be7" y="139.263" fill="#84d7c2" stroke="#84d7c2"/></g></g><g id="line2d_30"><defs><path d="M0 3a3 3 0 100-6 3 3 0 000 6z" id="mbbabf9c8b4" stroke="#9bd2cc"/></defs><g clip-path="url(#p9c0e1b1846)"><use x="118.523" xlink:href="#mbbabf9c8b4" y="154.978" fill="#9bd2cc" stroke="#9bd2cc"/></g></g><g id="line2d_31"><defs><path d="M0 3a3 3 0 100-6 3 3 0 000 6z" id="m8b5f916a7a" stroke="#368e71"/></defs><g clip-path="url(#p9c0e1b1846)"><use x="91.606" xlink:href="#m8b5f916a7a" y="124.865" fill="#368e71" stroke="#368e71"/></g></g><g id="line2d_32"><defs><path d="M0 3a3 3 0 100-6 3 3 0 000 6z" id="md145e6418d" stroke="#548a7c"/></defs><g clip-path="url(#p9c0e1b1846)"><use x="115.722" xlink:href="#md145e6418d" y="139.751" fill="#548a7c" stroke="#548a7c"/></g></g><g id="line2d_33"><defs><path d="M0 3a3 3 0 100-6 3 3 0 000 6z" id="mdc82f0429e" stroke="#2d594c"/></defs><g clip-path="url(#p9c0e1b1846)"><use x="123.604" xlink:href="#mdc82f0429e" y="135.581" fill="#2d594c" stroke="#2d594c"/></g></g><path clip-path="url(#p9c0e1b1846)" d="M190.163 183.241l168.534-75.977" fill="none" stroke="gray" stroke-linecap="square" stroke-width="1.5" id="line2d_34"/><g id="line2d_35"><defs><path d="M0 3a3 3 0 100-6 3 3 0 000 6z" id="m8eca5a1a19" stroke="#ff7493"/></defs><g clip-path="url(#p9c0e1b1846)"><use x="333.23" xlink:href="#m8eca5a1a19" y="121.261" fill="#ff7493" stroke="#ff7493"/></g></g><g id="line2d_36"><defs><path d="M0 3a3 3 0 100-6 3 3 0 000 6z" id="m9b74cb1f20" stroke="#e8839e"/></defs><g clip-path="url(#p9c0e1b1846)"><use x="305.319" xlink:href="#m9b74cb1f20" y="133.258" fill="#e8839e" stroke="#e8839e"/></g></g><g id="line2d_37"><defs><path d="M0 3a3 3 0 100-6 3 3 0 000 6z" id="m179f314eeb" stroke="#f1b6d1"/></defs><g clip-path="url(#p9c0e1b1846)"><use x="266.537" xlink:href="#m179f314eeb" y="154.423" fill="#f1b6d1" stroke="#f1b6d1"/></g></g><g id="line2d_38"><defs><path d="M0 3a3 3 0 100-6 3 3 0 000 6z" id="m9782cecdfa" stroke="#e43b65"/></defs><g clip-path="url(#p9c0e1b1846)"><use x="360.523" xlink:href="#m9782cecdfa" y="111.451" fill="#e43b65" stroke="#e43b65"/></g></g><g id="line2d_39"><defs><path d="M0 3a3 3 0 100-6 3 3 0 000 6z" id="mb9650ac579" stroke="#d64d6a"/></defs><g clip-path="url(#p9c0e1b1846)"><use x="339.273" xlink:href="#mb9650ac579" y="115.451" fill="#d64d6a" stroke="#d64d6a"/></g></g><g id="line2d_40"><defs><path d="M0 3a3 3 0 100-6 3 3 0 000 6z" id="mbb8f9c2d2a" stroke="#c15e76"/></defs><g clip-path="url(#p9c0e1b1846)"><use x="309.557" xlink:href="#mbb8f9c2d2a" y="127.965" fill="#c15e76" stroke="#c15e76"/></g></g><g id="line2d_41"><defs><path d="M0 3a3 3 0 100-6 3 3 0 000 6z" id="m86ee24b65d" stroke="#a76e82"/></defs><g clip-path="url(#p9c0e1b1846)"><use x="270.871" xlink:href="#m86ee24b65d" y="144.136" fill="#a76e82" stroke="#a76e82"/></g></g><g id="line2d_42"><defs><path d="M0 3a3 3 0 100-6 3 3 0 000 6z" id="m10fbc0fbdf" stroke="#8e2b42"/></defs><g clip-path="url(#p9c0e1b1846)"><use x="319.841" xlink:href="#m10fbc0fbdf" y="119.992" fill="#8e2b42" stroke="#8e2b42"/></g></g><g id="line2d_43"><defs><path d="M0 3a3 3 0 100-6 3 3 0 000 6z" id="mbd2563dd64" stroke="#793d4e"/></defs><g clip-path="url(#p9c0e1b1846)"><use x="281.318" xlink:href="#mbd2563dd64" y="136.608" fill="#793d4e" stroke="#793d4e"/></g></g><path clip-path="url(#p9c0e1b1846)" d="M190.163 183.241l9.68-163.738" fill="none" stroke="gray" stroke-linecap="square" stroke-width="1.5" id="line2d_44"/><g id="line2d_45"><defs><path d="M0 3a3 3 0 100-6 3 3 0 000 6z" id="md8d11cdd5e" stroke="#eac342"/></defs><g clip-path="url(#p9c0e1b1846)"><use x="185.089" xlink:href="#md8d11cdd5e" y="19.296" fill="#eac342" stroke="#eac342"/></g></g><g id="line2d_46"><defs><path d="M0 3a3 3 0 100-6 3 3 0 000 6z" id="md9fd4b5f76" stroke="#e3c474"/></defs><g clip-path="url(#p9c0e1b1846)"><use x="190.576" xlink:href="#md9fd4b5f76" y="52.059" fill="#e3c474" stroke="#e3c474"/></g></g><g id="line2d_47"><defs><path d="M0 3a3 3 0 100-6 3 3 0 000 6z" id="mc7ae719c7c" stroke="#dcc496"/></defs><g clip-path="url(#p9c0e1b1846)"><use x="195.278" xlink:href="#mc7ae719c7c" y="82.58" fill="#dcc496" stroke="#dcc496"/></g></g><g id="line2d_48"><defs><path d="M0 3a3 3 0 100-6 3 3 0 000 6z" id="mf31d32a110" stroke="#d4c5b1"/></defs><g clip-path="url(#p9c0e1b1846)"><use x="197.106" xlink:href="#mf31d32a110" y="112.502" fill="#d4c5b1" stroke="#d4c5b1"/></g></g><g id="line2d_49"><defs><path d="M0 3a3 3 0 100-6 3 3 0 000 6z" id="m769428fde8" stroke="#604d37"/></defs><g clip-path="url(#p9c0e1b1846)"><use x="204.586" xlink:href="#m769428fde8" y="100.397" fill="#604d37" stroke="#604d37"/></g></g><g id="line2d_50"><defs><path d="M0 3a3 3 0 100-6 3 3 0 000 6z" id="m56dd744457" stroke="#5b4e45"/></defs><g clip-path="url(#p9c0e1b1846)"><use x="205.065" xlink:href="#m56dd744457" y="122.054" fill="#5b4e45" stroke="#5b4e45"/></g></g><g id="line2d_51"><defs><path d="M0 3a3 3 0 100-6 3 3 0 000 6z" id="m28732ffb34" stroke="#8a7d6d"/></defs><g clip-path="url(#p9c0e1b1846)"><use x="197.435" xlink:href="#m28732ffb34" y="113.868" fill="#8a7d6d" stroke="#8a7d6d"/></g></g><g id="line2d_52"><defs><path d="M0 3a3 3 0 100-6 3 3 0 000 6z" id="mc2dd7538d3" stroke="#957c3b"/></defs><g clip-path="url(#p9c0e1b1846)"><use x="192.11" xlink:href="#mc2dd7538d3" y="58.249" fill="#957c3b" stroke="#957c3b"/></g></g><g id="line2d_53"><defs><path d="M0 3a3 3 0 100-6 3 3 0 000 6z" id="m5f801cbc78" stroke="#8e7d5f"/></defs><g clip-path="url(#p9c0e1b1846)"><use x="196.975" xlink:href="#m5f801cbc78" y="95.794" fill="#8e7d5f" stroke="#8e7d5f"/></g></g><path d="M35.305 273.312V7.2" fill="none" stroke="#000" stroke-linecap="square" stroke-width=".8" id="patch_3"/><path d="M392.425 273.312V7.2" fill="none" stroke="#000" stroke-linecap="square" stroke-width=".8" id="patch_4"/><path d="M35.305 273.312h357.12" fill="none" stroke="#000" stroke-linecap="square" stroke-width=".8" id="patch_5"/><path d="M35.305 7.2h357.12" fill="none" stroke="#000" stroke-linecap="square" stroke-width=".8" id="patch_6"/></g></g><defs><clipPath id="p9c0e1b1846"><path d="M35.305 7.2h357.12v266.112H35.305z"/></clipPath></defs></svg>