<svg height="396.254" viewBox="0 0 415.528 297.19" width="554.037" xmlns="http://www.w3.org/2000/svg" xmlns:xlink="http://www.w3.org/1999/xlink"><defs><style>*{stroke-linecap:butt;stroke-linejoin:round}</style></defs><g id="figure_1"><path d="M0 297.19h415.528V0H0z" fill="none" id="patch_1"/><g id="axes_1"><path d="M51.208 273.312h357.12V7.2H51.208z" fill="none" id="patch_2"/><g id="matplotlib.axis_1"><g id="xtick_1"><g id="line2d_1"><defs><path d="M0 0v3.5" id="mc853c7400a" stroke="#000" stroke-width=".8"/></defs><use x="56.63" xlink:href="#mc853c7400a" y="273.312" stroke="#000" stroke-width=".8"/></g><g id="text_1"><defs><path d="M10.594 35.5h62.593v-8.297H10.594z" id="DejaVuSans-8722"/><path d="M31.781 66.406q-7.61 0-11.453-7.5Q16.5 51.422 16.5 36.375q0-14.984 3.828-22.484 3.844-7.5 11.453-7.5 7.672 0 11.5 7.5 3.844 7.5 3.844 22.484 0 15.047-3.844 22.531-3.828 7.5-11.5 7.5zm0 7.813q12.266 0 18.735-9.703 6.468-9.688 6.468-28.141 0-18.406-6.468-28.11-6.47-9.687-18.735-9.687-12.25 0-18.718 9.688-6.47 9.703-6.47 28.109 0 18.453 6.47 28.14Q19.53 74.22 31.78 74.22z" id="DejaVuSans-48"/><path d="M10.688 12.406H21V0H10.687z" id="DejaVuSans-46"/><path d="M12.406 8.297h16.11v55.625l-17.532-3.516v8.985l17.438 3.515h9.86V8.296H54.39V0H12.406z" id="DejaVuSans-49"/></defs><g transform="matrix(.1 0 0 -.1 41.308 287.91)"><use xlink:href="#DejaVuSans-8722"/><use x="83.789" xlink:href="#DejaVuSans-48"/><use x="147.412" xlink:href="#DejaVuSans-46"/><use x="179.199" xlink:href="#DejaVuSans-49"/><use x="242.822" xlink:href="#DejaVuSans-48"/></g></g></g><g id="xtick_2"><use x="130.19" xlink:href="#mc853c7400a" y="273.312" stroke="#000" stroke-width=".8" id="line2d_2"/><g id="text_2"><defs><path d="M10.797 72.906h38.719v-8.312H19.828v-17.86q2.14.735 4.281 1.094 2.157.36 4.313.36 12.203 0 19.328-6.688 7.14-6.688 7.14-18.11 0-11.765-7.328-18.296-7.328-6.516-20.656-6.516-4.593 0-9.36.781-4.75.782-9.827 2.344v9.922q4.39-2.39 9.078-3.563 4.687-1.171 9.906-1.171 8.453 0 13.375 4.437 4.938 4.438 4.938 12.063 0 7.609-4.938 12.047-4.922 4.453-13.375 4.453-3.953 0-7.89-.875-3.922-.875-8.016-2.735z" id="DejaVuSans-53"/></defs><g transform="matrix(.1 0 0 -.1 114.867 287.91)"><use xlink:href="#DejaVuSans-8722"/><use x="83.789" xlink:href="#DejaVuSans-48"/><use x="147.412" xlink:href="#DejaVuSans-46"/><use x="179.199" xlink:href="#DejaVuSans-48"/><use x="242.822" xlink:href="#DejaVuSans-53"/></g></g></g><g id="xtick_3"><use x="203.749" xlink:href="#mc853c7400a" y="273.312" stroke="#000" stroke-width=".8" id="line2d_3"/><g transform="matrix(.1 0 0 -.1 192.616 287.91)" id="text_3"><use xlink:href="#DejaVuSans-48"/><use x="63.623" xlink:href="#DejaVuSans-46"/><use x="95.41" xlink:href="#DejaVuSans-48"/><use x="159.033" xlink:href="#DejaVuSans-48"/></g></g><g id="xtick_4"><use x="277.308" xlink:href="#mc853c7400a" y="273.312" stroke="#000" stroke-width=".8" id="line2d_4"/><g transform="matrix(.1 0 0 -.1 266.175 287.91)" id="text_4"><use xlink:href="#DejaVuSans-48"/><use x="63.623" xlink:href="#DejaVuSans-46"/><use x="95.41" xlink:href="#DejaVuSans-48"/><use x="159.033" xlink:href="#DejaVuSans-53"/></g></g><g id="xtick_5"><use x="350.868" xlink:href="#mc853c7400a" y="273.312" stroke="#000" stroke-width=".8" id="line2d_5"/><g transform="matrix(.1 0 0 -.1 339.735 287.91)" id="text_5"><use xlink:href="#DejaVuSans-48"/><use x="63.623" xlink:href="#DejaVuSans-46"/><use x="95.41" xlink:href="#DejaVuSans-49"/><use x="159.033" xlink:href="#DejaVuSans-48"/></g></g></g><g id="matplotlib.axis_2"><g id="ytick_1"><g id="line2d_6"><defs><path d="M0 0h-3.5" id="ma82c27d584" stroke="#000" stroke-width=".8"/></defs><use x="51.208" xlink:href="#ma82c27d584" y="261.36" stroke="#000" stroke-width=".8"/></g><g id="text_6"><defs><path d="M8.203 72.906h46.875v-4.203L28.61 0H18.312L43.22 64.594H8.203z" id="DejaVuSans-55"/></defs><g transform="matrix(.1 0 0 -.1 7.2 265.159)"><use xlink:href="#DejaVuSans-8722"/><use x="83.789" xlink:href="#DejaVuSans-48"/><use x="147.412" xlink:href="#DejaVuSans-46"/><use x="179.199" xlink:href="#DejaVuSans-48"/><use x="242.822" xlink:href="#DejaVuSans-55"/><use x="306.445" xlink:href="#DejaVuSans-53"/></g></g></g><g id="ytick_2"><use x="51.208" xlink:href="#ma82c27d584" y="224.58" stroke="#000" stroke-width=".8" id="line2d_7"/><g transform="matrix(.1 0 0 -.1 7.2 228.38)" id="text_7"><use xlink:href="#DejaVuSans-8722"/><use x="83.789" xlink:href="#DejaVuSans-48"/><use x="147.412" xlink:href="#DejaVuSans-46"/><use x="179.199" xlink:href="#DejaVuSans-48"/><use x="242.822" xlink:href="#DejaVuSans-53"/><use x="306.445" xlink:href="#DejaVuSans-48"/></g></g><g id="ytick_3"><use x="51.208" xlink:href="#ma82c27d584" y="187.8" stroke="#000" stroke-width=".8" id="line2d_8"/><g id="text_8"><defs><path d="M19.188 8.297h34.421V0H7.33v8.297q5.609 5.812 15.296 15.594 9.703 9.797 12.188 12.64 4.734 5.313 6.609 9 1.89 3.688 1.89 7.25 0 5.813-4.078 9.469-4.078 3.672-10.625 3.672-4.64 0-9.797-1.61-5.14-1.609-11-4.89v9.969Q13.767 71.78 18.938 73q5.188 1.219 9.485 1.219 11.328 0 18.062-5.672 6.735-5.656 6.735-15.125 0-4.5-1.688-8.531-1.672-4.016-6.125-9.485-1.218-1.422-7.765-8.187-6.532-6.766-18.453-18.922z" id="DejaVuSans-50"/></defs><g transform="matrix(.1 0 0 -.1 7.2 191.6)"><use xlink:href="#DejaVuSans-8722"/><use x="83.789" xlink:href="#DejaVuSans-48"/><use x="147.412" xlink:href="#DejaVuSans-46"/><use x="179.199" xlink:href="#DejaVuSans-48"/><use x="242.822" xlink:href="#DejaVuSans-50"/><use x="306.445" xlink:href="#DejaVuSans-53"/></g></g></g><g id="ytick_4"><use x="51.208" xlink:href="#ma82c27d584" y="151.021" stroke="#000" stroke-width=".8" id="line2d_9"/><g transform="matrix(.1 0 0 -.1 15.58 154.82)" id="text_9"><use xlink:href="#DejaVuSans-48"/><use x="63.623" xlink:href="#DejaVuSans-46"/><use x="95.41" xlink:href="#DejaVuSans-48"/><use x="159.033" xlink:href="#DejaVuSans-48"/><use x="222.656" xlink:href="#DejaVuSans-48"/></g></g><g id="ytick_5"><use x="51.208" xlink:href="#ma82c27d584" y="114.241" stroke="#000" stroke-width=".8" id="line2d_10"/><g transform="matrix(.1 0 0 -.1 15.58 118.04)" id="text_10"><use xlink:href="#DejaVuSans-48"/><use x="63.623" xlink:href="#DejaVuSans-46"/><use x="95.41" xlink:href="#DejaVuSans-48"/><use x="159.033" xlink:href="#DejaVuSans-50"/><use x="222.656" xlink:href="#DejaVuSans-53"/></g></g><g id="ytick_6"><use x="51.208" xlink:href="#ma82c27d584" y="77.461" stroke="#000" stroke-width=".8" id="line2d_11"/><g transform="matrix(.1 0 0 -.1 15.58 81.26)" id="text_11"><use xlink:href="#DejaVuSans-48"/><use x="63.623" xlink:href="#DejaVuSans-46"/><use x="95.41" xlink:href="#DejaVuSans-48"/><use x="159.033" xlink:href="#DejaVuSans-53"/><use x="222.656" xlink:href="#DejaVuSans-48"/></g></g><g id="ytick_7"><use x="51.208" xlink:href="#ma82c27d584" y="40.682" stroke="#000" stroke-width=".8" id="line2d_12"/><g transform="matrix(.1 0 0 -.1 15.58 44.48)" id="text_12"><use xlink:href="#DejaVuSans-48"/><use x="63.623" xlink:href="#DejaVuSans-46"/><use x="95.41" xlink:href="#DejaVuSans-48"/><use x="159.033" xlink:href="#DejaVuSans-55"/><use x="222.656" xlink:href="#DejaVuSans-53"/></g></g></g><path clip-path="url(#pef1f3f372e)" d="M202.553 172.628l-49.981 88.588" fill="none" stroke="gray" stroke-linecap="square" stroke-width="1.5" id="line2d_13"/><g id="line2d_14"><defs><path d="M0 3a3 3 0 100-6 3 3 0 000 6z" id="m6c10023587" stroke="#000"/></defs><g clip-path="url(#pef1f3f372e)"><use x="156.321" xlink:href="#m6c10023587" y="253.275" fill="#fff" stroke="#000"/></g></g><g id="line2d_15"><defs><path d="M0 3a3 3 0 100-6 3 3 0 000 6z" id="m8c86237179" stroke="#a7cafa"/></defs><g clip-path="url(#pef1f3f372e)"><use x="185.786" xlink:href="#m8c86237179" y="210.58" fill="#a7cafa" stroke="#a7cafa"/></g></g><g id="line2d_16"><defs><path d="M0 3a3 3 0 100-6 3 3 0 000 6z" id="mefa8d7547e" stroke="#40abf3"/></defs><g clip-path="url(#pef1f3f372e)"><use x="151.934" xlink:href="#mefa8d7547e" y="254.629" fill="#40abf3" stroke="#40abf3"/></g></g><g id="line2d_17"><defs><path d="M0 3a3 3 0 100-6 3 3 0 000 6z" id="m2d17486571" stroke="#26547d"/></defs><g clip-path="url(#pef1f3f372e)"><use x="176.533" xlink:href="#m2d17486571" y="220.316" fill="#26547d" stroke="#26547d"/></g></g><g clip-path="url(#pef1f3f372e)" id="line2d_18"><use x="170.16" xlink:href="#m6c10023587" y="235.945" fill="#fff" stroke="#000"/></g><g clip-path="url(#pef1f3f372e)" id="line2d_19"><use x="147.775" xlink:href="#m6c10023587" y="258.333" fill="#fff" stroke="#000"/></g><g id="line2d_20"><defs><path d="M0 3a3 3 0 100-6 3 3 0 000 6z" id="m25a8be79d1" stroke="#6182a9"/></defs><g clip-path="url(#pef1f3f372e)"><use x="184.385" xlink:href="#m25a8be79d1" y="208.821" fill="#6182a9" stroke="#6182a9"/></g></g><g id="line2d_21"><defs><path d="M0 3a3 3 0 100-6 3 3 0 000 6z" id="mf2eb9b01f4" stroke="#3b85bd"/></defs><g clip-path="url(#pef1f3f372e)"><use x="163.497" xlink:href="#mf2eb9b01f4" y="237.877" fill="#3b85bd" stroke="#3b85bd"/></g></g><g id="line2d_22"><defs><path d="M0 3a3 3 0 100-6 3 3 0 000 6z" id="me4f1f4e012" stroke="#335377"/></defs><g clip-path="url(#pef1f3f372e)"><use x="183.837" xlink:href="#me4f1f4e012" y="210.472" fill="#335377" stroke="#335377"/></g></g><path clip-path="url(#pef1f3f372e)" d="M202.553 172.628l-74.922-38.483" fill="none" stroke="gray" stroke-linecap="square" stroke-width="1.5" id="line2d_23"/><g id="line2d_24"><defs><path d="M0 3a3 3 0 100-6 3 3 0 000 6z" id="me9813a7239" stroke="#658684"/></defs><g clip-path="url(#pef1f3f372e)"><use x="180.454" xlink:href="#me9813a7239" y="161.02" fill="#658684" stroke="#658684"/></g></g><g id="line2d_25"><defs><path d="M0 3a3 3 0 100-6 3 3 0 000 6z" id="m074532d881" stroke="#abcdd4"/></defs><g clip-path="url(#pef1f3f372e)"><use x="183.079" xlink:href="#m074532d881" y="168.845" fill="#abcdd4" stroke="#abcdd4"/></g></g><g id="line2d_26"><defs><path d="M0 3a3 3 0 100-6 3 3 0 000 6z" id="m7052061fa4" stroke="#3a5751"/></defs><g clip-path="url(#pef1f3f372e)"><use x="180.611" xlink:href="#m7052061fa4" y="154.458" fill="#3a5751" stroke="#3a5751"/></g></g><g id="line2d_27"><defs><path d="M0 3a3 3 0 100-6 3 3 0 000 6z" id="m2dd65fba2b" stroke="#56deb3"/></defs><g clip-path="url(#pef1f3f372e)"><use x="126.24" xlink:href="#m2dd65fba2b" y="136.983" fill="#56deb3" stroke="#56deb3"/></g></g><g id="line2d_28"><defs><path d="M0 3a3 3 0 100-6 3 3 0 000 6z" id="mdb778ff732" stroke="#84d7c2"/></defs><g clip-path="url(#pef1f3f372e)"><use x="152.177" xlink:href="#mdb778ff732" y="151.388" fill="#84d7c2" stroke="#84d7c2"/></g></g><g id="line2d_29"><defs><path d="M0 3a3 3 0 100-6 3 3 0 000 6z" id="mcdc7910c8e" stroke="#9bd2cc"/></defs><g clip-path="url(#pef1f3f372e)"><use x="169.339" xlink:href="#mcdc7910c8e" y="161.402" fill="#9bd2cc" stroke="#9bd2cc"/></g></g><g id="line2d_30"><defs><path d="M0 3a3 3 0 100-6 3 3 0 000 6z" id="me58778c11f" stroke="#368e71"/></defs><g clip-path="url(#pef1f3f372e)"><use x="144.986" xlink:href="#me58778c11f" y="139.537" fill="#368e71" stroke="#368e71"/></g></g><g id="line2d_31"><defs><path d="M0 3a3 3 0 100-6 3 3 0 000 6z" id="m8a6e5d8b16" stroke="#548a7c"/></defs><g clip-path="url(#pef1f3f372e)"><use x="164.979" xlink:href="#m8a6e5d8b16" y="151.336" fill="#548a7c" stroke="#548a7c"/></g></g><g id="line2d_32"><defs><path d="M0 3a3 3 0 100-6 3 3 0 000 6z" id="m7cdfb28cfc" stroke="#2d594c"/></defs><g clip-path="url(#pef1f3f372e)"><use x="169.83" xlink:href="#m7cdfb28cfc" y="148.252" fill="#2d594c" stroke="#2d594c"/></g></g><path clip-path="url(#pef1f3f372e)" d="M202.553 172.628l130.742-69.805" fill="none" stroke="gray" stroke-linecap="square" stroke-width="1.5" id="line2d_33"/><g id="line2d_34"><defs><path d="M0 3a3 3 0 100-6 3 3 0 000 6z" id="m939c9034da" stroke="#ff7493"/></defs><g clip-path="url(#pef1f3f372e)"><use x="307.056" xlink:href="#m939c9034da" y="117.544" fill="#ff7493" stroke="#ff7493"/></g></g><g id="line2d_35"><defs><path d="M0 3a3 3 0 100-6 3 3 0 000 6z" id="m2ae4d14d69" stroke="#e8839e"/></defs><g clip-path="url(#pef1f3f372e)"><use x="280.808" xlink:href="#m2ae4d14d69" y="134.97" fill="#e8839e" stroke="#e8839e"/></g></g><g id="line2d_36"><defs><path d="M0 3a3 3 0 100-6 3 3 0 000 6z" id="m78116609c4" stroke="#f1b6d1"/></defs><g clip-path="url(#pef1f3f372e)"><use x="245.898" xlink:href="#m78116609c4" y="157.387" fill="#f1b6d1" stroke="#f1b6d1"/></g></g><g id="line2d_37"><defs><path d="M0 3a3 3 0 100-6 3 3 0 000 6z" id="m54b9e4aa8c" stroke="#e43b65"/></defs><g clip-path="url(#pef1f3f372e)"><use x="331.933" xlink:href="#m54b9e4aa8c" y="100.328" fill="#e43b65" stroke="#e43b65"/></g></g><g id="line2d_38"><defs><path d="M0 3a3 3 0 100-6 3 3 0 000 6z" id="m150f3d997f" stroke="#d64d6a"/></defs><g clip-path="url(#pef1f3f372e)"><use x="312.367" xlink:href="#m150f3d997f" y="109.4" fill="#d64d6a" stroke="#d64d6a"/></g></g><g id="line2d_39"><defs><path d="M0 3a3 3 0 100-6 3 3 0 000 6z" id="m8ca243684d" stroke="#c15e76"/></defs><g clip-path="url(#pef1f3f372e)"><use x="285.212" xlink:href="#m8ca243684d" y="128.612" fill="#c15e76" stroke="#c15e76"/></g></g><g id="line2d_40"><defs><path d="M0 3a3 3 0 100-6 3 3 0 000 6z" id="m656592d821" stroke="#a76e82"/></defs><g clip-path="url(#pef1f3f372e)"><use x="251.881" xlink:href="#m656592d821" y="148.739" fill="#a76e82" stroke="#a76e82"/></g></g><g id="line2d_41"><defs><path d="M0 3a3 3 0 100-6 3 3 0 000 6z" id="md6232d710a" stroke="#8e2b42"/></defs><g clip-path="url(#pef1f3f372e)"><use x="290.705" xlink:href="#md6232d710a" y="119.19" fill="#8e2b42" stroke="#8e2b42"/></g></g><g id="line2d_42"><defs><path d="M0 3a3 3 0 100-6 3 3 0 000 6z" id="m296c846afb" stroke="#793d4e"/></defs><g clip-path="url(#pef1f3f372e)"><use x="259.439" xlink:href="#m296c846afb" y="141.146" fill="#793d4e" stroke="#793d4e"/></g></g><path clip-path="url(#pef1f3f372e)" d="M202.553 172.628l17.36-152.418" fill="none" stroke="gray" stroke-linecap="square" stroke-width="1.5" id="line2d_43"/><g id="line2d_44"><defs><path d="M0 3a3 3 0 100-6 3 3 0 000 6z" id="m14576a85d2" stroke="#eac342"/></defs><g clip-path="url(#pef1f3f372e)"><use x="207.232" xlink:href="#m14576a85d2" y="19.296" fill="#eac342" stroke="#eac342"/></g></g><g id="line2d_45"><defs><path d="M0 3a3 3 0 100-6 3 3 0 000 6z" id="m280fcda6e2" stroke="#e3c474"/></defs><g clip-path="url(#pef1f3f372e)"><use x="210.483" xlink:href="#m280fcda6e2" y="59.14" fill="#e3c474" stroke="#e3c474"/></g></g><g id="line2d_46"><defs><path d="M0 3a3 3 0 100-6 3 3 0 000 6z" id="m1d3affd74b" stroke="#dcc496"/></defs><g clip-path="url(#pef1f3f372e)"><use x="212.204" xlink:href="#m1d3affd74b" y="94.293" fill="#dcc496" stroke="#dcc496"/></g></g><g id="line2d_47"><defs><path d="M0 3a3 3 0 100-6 3 3 0 000 6z" id="m9022f86982" stroke="#d4c5b1"/></defs><g clip-path="url(#pef1f3f372e)"><use x="211.076" xlink:href="#m9022f86982" y="125.119" fill="#d4c5b1" stroke="#d4c5b1"/></g></g><g id="line2d_48"><defs><path d="M0 3a3 3 0 100-6 3 3 0 000 6z" id="ma3aec69295" stroke="#604d37"/></defs><g clip-path="url(#pef1f3f372e)"><use x="215.448" xlink:href="#ma3aec69295" y="113.243" fill="#604d37" stroke="#604d37"/></g></g><g id="line2d_49"><defs><path d="M0 3a3 3 0 100-6 3 3 0 000 6z" id="m67acafb2ea" stroke="#5b4e45"/></defs><g clip-path="url(#pef1f3f372e)"><use x="213.736" xlink:href="#m67acafb2ea" y="133.667" fill="#5b4e45" stroke="#5b4e45"/></g></g><g id="line2d_50"><defs><path d="M0 3a3 3 0 100-6 3 3 0 000 6z" id="m25f2260e25" stroke="#8a7d6d"/></defs><g clip-path="url(#pef1f3f372e)"><use x="210.78" xlink:href="#m25f2260e25" y="126.032" fill="#8a7d6d" stroke="#8a7d6d"/></g></g><g id="line2d_51"><defs><path d="M0 3a3 3 0 100-6 3 3 0 000 6z" id="mc794fd39be" stroke="#957c3b"/></defs><g clip-path="url(#pef1f3f372e)"><use x="210.662" xlink:href="#mc794fd39be" y="67.802" fill="#957c3b" stroke="#957c3b"/></g></g><g id="line2d_52"><defs><path d="M0 3a3 3 0 100-6 3 3 0 000 6z" id="m1cc27db34e" stroke="#8e7d5f"/></defs><g clip-path="url(#pef1f3f372e)"><use x="211.903" xlink:href="#m1cc27db34e" y="107.887" fill="#8e7d5f" stroke="#8e7d5f"/></g></g><path d="M51.208 273.312V7.2" fill="none" stroke="#000" stroke-linecap="square" stroke-width=".8" id="patch_3"/><path d="M408.328 273.312V7.2" fill="none" stroke="#000" stroke-linecap="square" stroke-width=".8" id="patch_4"/><path d="M51.208 273.312h357.12" fill="none" stroke="#000" stroke-linecap="square" stroke-width=".8" id="patch_5"/><path d="M51.208 7.2h357.12" fill="none" stroke="#000" stroke-linecap="square" stroke-width=".8" id="patch_6"/></g></g><defs><clipPath id="pef1f3f372e"><path d="M51.208 7.2h357.12v266.112H51.208z"/></clipPath></defs></svg>