<svg height="396.254" viewBox="0 0 399.625 297.19" width="532.833" xmlns="http://www.w3.org/2000/svg" xmlns:xlink="http://www.w3.org/1999/xlink"><defs><style>*{stroke-linecap:butt;stroke-linejoin:round}</style></defs><g id="figure_1"><path d="M0 297.19h399.625V0H0z" fill="none" id="patch_1"/><g id="axes_1"><path d="M35.305 273.312h357.12V7.2H35.305z" fill="none" id="patch_2"/><g id="matplotlib.axis_1"><g id="xtick_1"><g id="line2d_1"><defs><path d="M0 0v3.5" id="md63ddad2ed" stroke="#000" stroke-width=".8"/></defs><use x="64.36" xlink:href="#md63ddad2ed" y="273.312" stroke="#000" stroke-width=".8"/></g><g id="text_1"><defs><path d="M10.594 35.5h62.593v-8.297H10.594z" id="DejaVuSans-8722"/><path d="M33.016 40.375q-6.641 0-10.532-4.547-3.875-4.531-3.875-12.437 0-7.86 3.875-12.438 3.891-4.562 10.532-4.562 6.64 0 10.515 4.562 3.875 4.578 3.875 12.438 0 7.906-3.875 12.437-3.875 4.547-10.515 4.547zm19.578 30.922v-8.984q-3.719 1.75-7.5 2.671-3.782.938-7.5.938-9.766 0-14.922-6.594-5.14-6.594-5.875-19.922 2.875 4.25 7.219 6.516 4.359 2.266 9.578 2.266 10.984 0 17.36-6.672 6.374-6.657 6.374-18.125 0-11.235-6.64-18.032-6.641-6.78-17.672-6.78-12.657 0-19.344 9.687-6.688 9.703-6.688 28.109 0 17.281 8.204 27.563 8.203 10.28 22.015 10.28 3.719 0 7.5-.734t7.89-2.187z" id="DejaVuSans-54"/><path d="M31.781 66.406q-7.61 0-11.453-7.5Q16.5 51.422 16.5 36.375q0-14.984 3.828-22.484 3.844-7.5 11.453-7.5 7.672 0 11.5 7.5 3.844 7.5 3.844 22.484 0 15.047-3.844 22.531-3.828 7.5-11.5 7.5zm0 7.813q12.266 0 18.735-9.703 6.468-9.688 6.468-28.141 0-18.406-6.468-28.11-6.47-9.687-18.735-9.687-12.25 0-18.718 9.688-6.47 9.703-6.47 28.109 0 18.453 6.47 28.14Q19.53 74.22 31.78 74.22z" id="DejaVuSans-48"/></defs><g transform="matrix(.1 0 0 -.1 53.807 287.91)"><use xlink:href="#DejaVuSans-8722"/><use x="83.789" xlink:href="#DejaVuSans-54"/><use x="147.412" xlink:href="#DejaVuSans-48"/></g></g></g><g id="xtick_2"><use x="107.255" xlink:href="#md63ddad2ed" y="273.312" stroke="#000" stroke-width=".8" id="line2d_2"/><g id="text_2"><defs><path d="M37.797 64.313L12.89 25.39h24.906zm-2.594 8.593H47.61V25.391h10.407v-8.203H47.609V0h-9.812v17.188H4.89v9.515z" id="DejaVuSans-52"/></defs><g transform="matrix(.1 0 0 -.1 96.703 287.91)"><use xlink:href="#DejaVuSans-8722"/><use x="83.789" xlink:href="#DejaVuSans-52"/><use x="147.412" xlink:href="#DejaVuSans-48"/></g></g></g><g id="xtick_3"><use x="150.15" xlink:href="#md63ddad2ed" y="273.312" stroke="#000" stroke-width=".8" id="line2d_3"/><g id="text_3"><defs><path d="M19.188 8.297h34.421V0H7.33v8.297q5.609 5.812 15.296 15.594 9.703 9.797 12.188 12.64 4.734 5.313 6.609 9 1.89 3.688 1.89 7.25 0 5.813-4.078 9.469-4.078 3.672-10.625 3.672-4.64 0-9.797-1.61-5.14-1.609-11-4.89v9.969Q13.767 71.78 18.938 73q5.188 1.219 9.485 1.219 11.328 0 18.062-5.672 6.735-5.656 6.735-15.125 0-4.5-1.688-8.531-1.672-4.016-6.125-9.485-1.218-1.422-7.765-8.187-6.532-6.766-18.453-18.922z" id="DejaVuSans-50"/></defs><g transform="matrix(.1 0 0 -.1 139.598 287.91)"><use xlink:href="#DejaVuSans-8722"/><use x="83.789" xlink:href="#DejaVuSans-50"/><use x="147.412" xlink:href="#DejaVuSans-48"/></g></g></g><g id="xtick_4"><use x="193.045" xlink:href="#md63ddad2ed" y="273.312" stroke="#000" stroke-width=".8" id="line2d_4"/><use xlink:href="#DejaVuSans-48" transform="matrix(.1 0 0 -.1 189.864 287.91)" id="text_4"/></g><g id="xtick_5"><use x="235.94" xlink:href="#md63ddad2ed" y="273.312" stroke="#000" stroke-width=".8" id="line2d_5"/><g transform="matrix(.1 0 0 -.1 229.578 287.91)" id="text_5"><use xlink:href="#DejaVuSans-50"/><use x="63.623" xlink:href="#DejaVuSans-48"/></g></g><g id="xtick_6"><use x="278.836" xlink:href="#md63ddad2ed" y="273.312" stroke="#000" stroke-width=".8" id="line2d_6"/><g transform="matrix(.1 0 0 -.1 272.473 287.91)" id="text_6"><use xlink:href="#DejaVuSans-52"/><use x="63.623" xlink:href="#DejaVuSans-48"/></g></g><g id="xtick_7"><use x="321.731" xlink:href="#md63ddad2ed" y="273.312" stroke="#000" stroke-width=".8" id="line2d_7"/><g transform="matrix(.1 0 0 -.1 315.368 287.91)" id="text_7"><use xlink:href="#DejaVuSans-54"/><use x="63.623" xlink:href="#DejaVuSans-48"/></g></g><g id="xtick_8"><use x="364.626" xlink:href="#md63ddad2ed" y="273.312" stroke="#000" stroke-width=".8" id="line2d_8"/><g id="text_8"><defs><path d="M31.781 34.625q-7.031 0-11.062-3.766-4.016-3.765-4.016-10.343 0-6.594 4.016-10.36Q24.75 6.391 31.78 6.391q7.032 0 11.078 3.78 4.063 3.798 4.063 10.345 0 6.578-4.031 10.343-4.016 3.766-11.11 3.766zm-9.86 4.188q-6.343 1.562-9.89 5.906Q8.5 49.079 8.5 55.329q0 8.733 6.219 13.812 6.234 5.078 17.062 5.078 10.89 0 17.094-5.078 6.203-5.079 6.203-13.813 0-6.25-3.547-10.61-3.531-4.343-9.828-5.906 7.125-1.656 11.094-6.5 3.984-4.828 3.984-11.796 0-10.61-6.468-16.282-6.47-5.656-18.532-5.656-12.047 0-18.531 5.656-6.469 5.672-6.469 16.282 0 6.968 4 11.797 4.016 4.843 11.14 6.5zM18.314 54.39q0-5.657 3.53-8.828 3.548-3.172 9.938-3.172 6.36 0 9.938 3.172 3.593 3.171 3.593 8.828 0 5.672-3.593 8.843-3.578 3.172-9.938 3.172-6.39 0-9.937-3.172-3.532-3.172-3.532-8.843z" id="DejaVuSans-56"/></defs><g transform="matrix(.1 0 0 -.1 358.263 287.91)"><use xlink:href="#DejaVuSans-56"/><use x="63.623" xlink:href="#DejaVuSans-48"/></g></g></g></g><g id="matplotlib.axis_2"><g id="ytick_1"><g id="line2d_9"><defs><path d="M0 0h-3.5" id="md49a8e3f19" stroke="#000" stroke-width=".8"/></defs><use x="35.305" xlink:href="#md49a8e3f19" y="247.73" stroke="#000" stroke-width=".8"/></g><g transform="matrix(.1 0 0 -.1 7.2 251.53)" id="text_9"><use xlink:href="#DejaVuSans-8722"/><use x="83.789" xlink:href="#DejaVuSans-52"/><use x="147.412" xlink:href="#DejaVuSans-48"/></g></g><g id="ytick_2"><use x="35.305" xlink:href="#md49a8e3f19" y="204.835" stroke="#000" stroke-width=".8" id="line2d_10"/><g transform="matrix(.1 0 0 -.1 7.2 208.634)" id="text_10"><use xlink:href="#DejaVuSans-8722"/><use x="83.789" xlink:href="#DejaVuSans-50"/><use x="147.412" xlink:href="#DejaVuSans-48"/></g></g><g id="ytick_3"><use x="35.305" xlink:href="#md49a8e3f19" y="161.94" stroke="#000" stroke-width=".8" id="line2d_11"/><use xlink:href="#DejaVuSans-48" transform="matrix(.1 0 0 -.1 21.942 165.74)" id="text_11"/></g><g id="ytick_4"><use x="35.305" xlink:href="#md49a8e3f19" y="119.045" stroke="#000" stroke-width=".8" id="line2d_12"/><g transform="matrix(.1 0 0 -.1 15.58 122.844)" id="text_12"><use xlink:href="#DejaVuSans-50"/><use x="63.623" xlink:href="#DejaVuSans-48"/></g></g><g id="ytick_5"><use x="35.305" xlink:href="#md49a8e3f19" y="76.15" stroke="#000" stroke-width=".8" id="line2d_13"/><g transform="matrix(.1 0 0 -.1 15.58 79.949)" id="text_13"><use xlink:href="#DejaVuSans-52"/><use x="63.623" xlink:href="#DejaVuSans-48"/></g></g><g id="ytick_6"><use x="35.305" xlink:href="#md49a8e3f19" y="33.255" stroke="#000" stroke-width=".8" id="line2d_14"/><g transform="matrix(.1 0 0 -.1 15.58 37.054)" id="text_14"><use xlink:href="#DejaVuSans-54"/><use x="63.623" xlink:href="#DejaVuSans-48"/></g></g></g><path clip-path="url(#pac86830b98)" d="M197.505 183.487l-17.302 77.729" fill="none" stroke="gray" stroke-linecap="square" stroke-width="1.5" id="line2d_15"/><g id="line2d_16"><defs><path d="M0 3a3 3 0 100-6 3 3 0 000 6z" id="m9f868fe336" stroke="#000"/></defs><g clip-path="url(#pac86830b98)"><use x="179.949" xlink:href="#m9f868fe336" y="261.159" fill="#fff" stroke="#000"/></g></g><g id="line2d_17"><defs><path d="M0 3a3 3 0 100-6 3 3 0 000 6z" id="mef235052d9" stroke="#a7cafa"/></defs><g clip-path="url(#pac86830b98)"><use x="191.413" xlink:href="#mef235052d9" y="219.962" fill="#a7cafa" stroke="#a7cafa"/></g></g><g id="line2d_18"><defs><path d="M0 3a3 3 0 100-6 3 3 0 000 6z" id="m2337a8fabd" stroke="#40abf3"/></defs><g clip-path="url(#pac86830b98)"><use x="178.224" xlink:href="#m2337a8fabd" y="257.823" fill="#40abf3" stroke="#40abf3"/></g></g><g id="line2d_19"><defs><path d="M0 3a3 3 0 100-6 3 3 0 000 6z" id="m9d0b14999b" stroke="#26547d"/></defs><g clip-path="url(#pac86830b98)"><use x="190.255" xlink:href="#m9d0b14999b" y="221.634" fill="#26547d" stroke="#26547d"/></g></g><g clip-path="url(#pac86830b98)" id="line2d_20"><use x="185.717" xlink:href="#m9f868fe336" y="244.447" fill="#fff" stroke="#000"/></g><g clip-path="url(#pac86830b98)" id="line2d_21"><use x="179.713" xlink:href="#m9f868fe336" y="257.356" fill="#fff" stroke="#000"/></g><g id="line2d_22"><defs><path d="M0 3a3 3 0 100-6 3 3 0 000 6z" id="m4e5d33748a" stroke="#6182a9"/></defs><g clip-path="url(#pac86830b98)"><use x="190.454" xlink:href="#m4e5d33748a" y="213.652" fill="#6182a9" stroke="#6182a9"/></g></g><g id="line2d_23"><defs><path d="M0 3a3 3 0 100-6 3 3 0 000 6z" id="ma0295a0d19" stroke="#3b85bd"/></defs><g clip-path="url(#pac86830b98)"><use x="182.941" xlink:href="#ma0295a0d19" y="239.072" fill="#3b85bd" stroke="#3b85bd"/></g></g><g id="line2d_24"><defs><path d="M0 3a3 3 0 100-6 3 3 0 000 6z" id="m67af7e712a" stroke="#335377"/></defs><g clip-path="url(#pac86830b98)"><use x="192.665" xlink:href="#m67af7e712a" y="213.446" fill="#335377" stroke="#335377"/></g></g><path clip-path="url(#pac86830b98)" d="M197.505 183.487L93.534 135.613" fill="none" stroke="gray" stroke-linecap="square" stroke-width="1.5" id="line2d_25"/><g id="line2d_26"><defs><path d="M0 3a3 3 0 100-6 3 3 0 000 6z" id="m4d28f0d464" stroke="#658684"/></defs><g clip-path="url(#pac86830b98)"><use x="168.327" xlink:href="#m4d28f0d464" y="168.714" fill="#658684" stroke="#658684"/></g></g><g id="line2d_27"><defs><path d="M0 3a3 3 0 100-6 3 3 0 000 6z" id="m236c6196db" stroke="#abcdd4"/></defs><g clip-path="url(#pac86830b98)"><use x="172.077" xlink:href="#m236c6196db" y="177.334" fill="#abcdd4" stroke="#abcdd4"/></g></g><g id="line2d_28"><defs><path d="M0 3a3 3 0 100-6 3 3 0 000 6z" id="ma340b3e177" stroke="#3a5751"/></defs><g clip-path="url(#pac86830b98)"><use x="167.177" xlink:href="#ma340b3e177" y="162.66" fill="#3a5751" stroke="#3a5751"/></g></g><g id="line2d_29"><defs><path d="M0 3a3 3 0 100-6 3 3 0 000 6z" id="m16af0d1c50" stroke="#56deb3"/></defs><g clip-path="url(#pac86830b98)"><use x="91.812" xlink:href="#m16af0d1c50" y="139.543" fill="#56deb3" stroke="#56deb3"/></g></g><g id="line2d_30"><defs><path d="M0 3a3 3 0 100-6 3 3 0 000 6z" id="m31e628d840" stroke="#84d7c2"/></defs><g clip-path="url(#pac86830b98)"><use x="128.382" xlink:href="#m31e628d840" y="156.521" fill="#84d7c2" stroke="#84d7c2"/></g></g><g id="line2d_31"><defs><path d="M0 3a3 3 0 100-6 3 3 0 000 6z" id="m99e68803ed" stroke="#9bd2cc"/></defs><g clip-path="url(#pac86830b98)"><use x="152.71" xlink:href="#m99e68803ed" y="168.349" fill="#9bd2cc" stroke="#9bd2cc"/></g></g><g id="line2d_32"><defs><path d="M0 3a3 3 0 100-6 3 3 0 000 6z" id="mdd1fc52a46" stroke="#368e71"/></defs><g clip-path="url(#pac86830b98)"><use x="120.99" xlink:href="#mdd1fc52a46" y="145.254" fill="#368e71" stroke="#368e71"/></g></g><g id="line2d_33"><defs><path d="M0 3a3 3 0 100-6 3 3 0 000 6z" id="m4824186f57" stroke="#548a7c"/></defs><g clip-path="url(#pac86830b98)"><use x="147.632" xlink:href="#m4824186f57" y="158.168" fill="#548a7c" stroke="#548a7c"/></g></g><g id="line2d_34"><defs><path d="M0 3a3 3 0 100-6 3 3 0 000 6z" id="m08f5efc027" stroke="#2d594c"/></defs><g clip-path="url(#pac86830b98)"><use x="153.02" xlink:href="#m08f5efc027" y="155.933" fill="#2d594c" stroke="#2d594c"/></g></g><path clip-path="url(#pac86830b98)" d="M197.505 183.487l138.412-53.965" fill="none" stroke="gray" stroke-linecap="square" stroke-width="1.5" id="line2d_35"/><g id="line2d_36"><defs><path d="M0 3a3 3 0 100-6 3 3 0 000 6z" id="m7342d4b136" stroke="#ff7493"/></defs><g clip-path="url(#pac86830b98)"><use x="311.523" xlink:href="#m7342d4b136" y="141.066" fill="#ff7493" stroke="#ff7493"/></g></g><g id="line2d_37"><defs><path d="M0 3a3 3 0 100-6 3 3 0 000 6z" id="md2e5925acf" stroke="#e8839e"/></defs><g clip-path="url(#pac86830b98)"><use x="282.198" xlink:href="#md2e5925acf" y="155.115" fill="#e8839e" stroke="#e8839e"/></g></g><g id="line2d_38"><defs><path d="M0 3a3 3 0 100-6 3 3 0 000 6z" id="m9654f78de7" stroke="#f1b6d1"/></defs><g clip-path="url(#pac86830b98)"><use x="247.109" xlink:href="#m9654f78de7" y="173.224" fill="#f1b6d1" stroke="#f1b6d1"/></g></g><g id="line2d_39"><defs><path d="M0 3a3 3 0 100-6 3 3 0 000 6z" id="m1b640a1ba0" stroke="#e43b65"/></defs><g clip-path="url(#pac86830b98)"><use x="335.121" xlink:href="#m1b640a1ba0" y="127.524" fill="#e43b65" stroke="#e43b65"/></g></g><g id="line2d_40"><defs><path d="M0 3a3 3 0 100-6 3 3 0 000 6z" id="m7dc5876fb8" stroke="#d64d6a"/></defs><g clip-path="url(#pac86830b98)"><use x="312.869" xlink:href="#m7dc5876fb8" y="134.277" fill="#d64d6a" stroke="#d64d6a"/></g></g><g id="line2d_41"><defs><path d="M0 3a3 3 0 100-6 3 3 0 000 6z" id="m063345d104" stroke="#c15e76"/></defs><g clip-path="url(#pac86830b98)"><use x="283.203" xlink:href="#m063345d104" y="149.801" fill="#c15e76" stroke="#c15e76"/></g></g><g id="line2d_42"><defs><path d="M0 3a3 3 0 100-6 3 3 0 000 6z" id="m571c4ea135" stroke="#a76e82"/></defs><g clip-path="url(#pac86830b98)"><use x="248.101" xlink:href="#m571c4ea135" y="165.04" fill="#a76e82" stroke="#a76e82"/></g></g><g id="line2d_43"><defs><path d="M0 3a3 3 0 100-6 3 3 0 000 6z" id="mfbdb756095" stroke="#8e2b42"/></defs><g clip-path="url(#pac86830b98)"><use x="286.164" xlink:href="#mfbdb756095" y="141.4" fill="#8e2b42" stroke="#8e2b42"/></g></g><g id="line2d_44"><defs><path d="M0 3a3 3 0 100-6 3 3 0 000 6z" id="m32531969be" stroke="#793d4e"/></defs><g clip-path="url(#pac86830b98)"><use x="253.755" xlink:href="#m32531969be" y="158.852" fill="#793d4e" stroke="#793d4e"/></g></g><path clip-path="url(#pac86830b98)" d="M197.505 183.487l.105-164.191" fill="none" stroke="gray" stroke-linecap="square" stroke-width="1.5" id="line2d_45"/><g id="line2d_46"><defs><path d="M0 3a3 3 0 100-6 3 3 0 000 6z" id="m6123a0571e" stroke="#eac342"/></defs><g clip-path="url(#pac86830b98)"><use x="194.479" xlink:href="#m6123a0571e" y="19.324" fill="#eac342" stroke="#eac342"/></g></g><g id="line2d_47"><defs><path d="M0 3a3 3 0 100-6 3 3 0 000 6z" id="m3e2d44778e" stroke="#e3c474"/></defs><g clip-path="url(#pac86830b98)"><use x="194.576" xlink:href="#m3e2d44778e" y="67.692" fill="#e3c474" stroke="#e3c474"/></g></g><g id="line2d_48"><defs><path d="M0 3a3 3 0 100-6 3 3 0 000 6z" id="mf21b5c3b07" stroke="#dcc496"/></defs><g clip-path="url(#pac86830b98)"><use x="196.476" xlink:href="#mf21b5c3b07" y="105.426" fill="#dcc496" stroke="#dcc496"/></g></g><g id="line2d_49"><defs><path d="M0 3a3 3 0 100-6 3 3 0 000 6z" id="mf67cf4dd86" stroke="#d4c5b1"/></defs><g clip-path="url(#pac86830b98)"><use x="197.743" xlink:href="#mf67cf4dd86" y="136.703" fill="#d4c5b1" stroke="#d4c5b1"/></g></g><g id="line2d_50"><defs><path d="M0 3a3 3 0 100-6 3 3 0 000 6z" id="m4835f07ca6" stroke="#604d37"/></defs><g clip-path="url(#pac86830b98)"><use x="202.113" xlink:href="#m4835f07ca6" y="127.047" fill="#604d37" stroke="#604d37"/></g></g><g id="line2d_51"><defs><path d="M0 3a3 3 0 100-6 3 3 0 000 6z" id="mdf490c0dcf" stroke="#5b4e45"/></defs><g clip-path="url(#pac86830b98)"><use x="201.703" xlink:href="#mdf490c0dcf" y="146.817" fill="#5b4e45" stroke="#5b4e45"/></g></g><g id="line2d_52"><defs><path d="M0 3a3 3 0 100-6 3 3 0 000 6z" id="mea94037512" stroke="#8a7d6d"/></defs><g clip-path="url(#pac86830b98)"><use x="197.357" xlink:href="#mea94037512" y="139.121" fill="#8a7d6d" stroke="#8a7d6d"/></g></g><g id="line2d_53"><defs><path d="M0 3a3 3 0 100-6 3 3 0 000 6z" id="md13f6b6d0b" stroke="#957c3b"/></defs><g clip-path="url(#pac86830b98)"><use x="196.341" xlink:href="#md13f6b6d0b" y="79.384" fill="#957c3b" stroke="#957c3b"/></g></g><g id="line2d_54"><defs><path d="M0 3a3 3 0 100-6 3 3 0 000 6z" id="md05fee2a5f" stroke="#8e7d5f"/></defs><g clip-path="url(#pac86830b98)"><use x="197.211" xlink:href="#md05fee2a5f" y="121.694" fill="#8e7d5f" stroke="#8e7d5f"/></g></g><path d="M35.305 273.312V7.2" fill="none" stroke="#000" stroke-linecap="square" stroke-width=".8" id="patch_3"/><path d="M392.425 273.312V7.2" fill="none" stroke="#000" stroke-linecap="square" stroke-width=".8" id="patch_4"/><path d="M35.305 273.312h357.12" fill="none" stroke="#000" stroke-linecap="square" stroke-width=".8" id="patch_5"/><path d="M35.305 7.2h357.12" fill="none" stroke="#000" stroke-linecap="square" stroke-width=".8" id="patch_6"/></g></g><defs><clipPath id="pac86830b98"><path d="M35.305 7.2h357.12v266.112H35.305z"/></clipPath></defs></svg>