<svg height="414.491" viewBox="0 0 413.303 310.868" width="551.07" xmlns="http://www.w3.org/2000/svg" xmlns:xlink="http://www.w3.org/1999/xlink"><defs><style>*{stroke-linecap:butt;stroke-linejoin:round}</style></defs><g id="figure_1"><path d="M0 310.868h413.303V0H0z" fill="none" id="patch_1"/><g id="axes_1"><path d="M48.983 273.312h357.12V7.2H48.983z" fill="none" id="patch_2"/><g id="matplotlib.axis_1"><g id="xtick_1"><path clip-path="url(#pfd86a38ea2)" d="M78.038 273.312V7.2" fill="none" stroke="#b0b0b0" stroke-linecap="square" stroke-width=".8" id="line2d_1"/><g id="line2d_2"><defs><path d="M0 0v3.5" id="mcc09752204" stroke="#000" stroke-width=".8"/></defs><use x="78.038" xlink:href="#mcc09752204" y="273.312" stroke="#000" stroke-width=".8"/></g><g id="text_1"><defs><path d="M10.594 35.5h62.593v-8.297H10.594z" id="DejaVuSans-8722"/><path d="M33.016 40.375q-6.641 0-10.532-4.547-3.875-4.531-3.875-12.437 0-7.86 3.875-12.438 3.891-4.562 10.532-4.562 6.64 0 10.515 4.562 3.875 4.578 3.875 12.438 0 7.906-3.875 12.437-3.875 4.547-10.515 4.547zm19.578 30.922v-8.984q-3.719 1.75-7.5 2.671-3.782.938-7.5.938-9.766 0-14.922-6.594-5.14-6.594-5.875-19.922 2.875 4.25 7.219 6.516 4.359 2.266 9.578 2.266 10.984 0 17.36-6.672 6.374-6.657 6.374-18.125 0-11.235-6.64-18.032-6.641-6.78-17.672-6.78-12.657 0-19.344 9.687-6.688 9.703-6.688 28.109 0 17.281 8.204 27.563 8.203 10.28 22.015 10.28 3.719 0 7.5-.734t7.89-2.187z" id="DejaVuSans-54"/><path d="M31.781 66.406q-7.61 0-11.453-7.5Q16.5 51.422 16.5 36.375q0-14.984 3.828-22.484 3.844-7.5 11.453-7.5 7.672 0 11.5 7.5 3.844 7.5 3.844 22.484 0 15.047-3.844 22.531-3.828 7.5-11.5 7.5zm0 7.813q12.266 0 18.735-9.703 6.468-9.688 6.468-28.141 0-18.406-6.468-28.11-6.47-9.687-18.735-9.687-12.25 0-18.718 9.688-6.47 9.703-6.47 28.109 0 18.453 6.47 28.14Q19.53 74.22 31.78 74.22z" id="DejaVuSans-48"/></defs><g transform="matrix(.1 0 0 -.1 67.486 287.91)"><use xlink:href="#DejaVuSans-8722"/><use x="83.789" xlink:href="#DejaVuSans-54"/><use x="147.412" xlink:href="#DejaVuSans-48"/></g></g></g><g id="xtick_2"><path clip-path="url(#pfd86a38ea2)" d="M120.933 273.312V7.2" fill="none" stroke="#b0b0b0" stroke-linecap="square" stroke-width=".8" id="line2d_3"/><use x="120.933" xlink:href="#mcc09752204" y="273.312" stroke="#000" stroke-width=".8" id="line2d_4"/><g id="text_2"><defs><path d="M37.797 64.313L12.89 25.39h24.906zm-2.594 8.593H47.61V25.391h10.407v-8.203H47.609V0h-9.812v17.188H4.89v9.515z" id="DejaVuSans-52"/></defs><g transform="matrix(.1 0 0 -.1 110.38 287.91)"><use xlink:href="#DejaVuSans-8722"/><use x="83.789" xlink:href="#DejaVuSans-52"/><use x="147.412" xlink:href="#DejaVuSans-48"/></g></g></g><g id="xtick_3"><path clip-path="url(#pfd86a38ea2)" d="M163.828 273.312V7.2" fill="none" stroke="#b0b0b0" stroke-linecap="square" stroke-width=".8" id="line2d_5"/><use x="163.828" xlink:href="#mcc09752204" y="273.312" stroke="#000" stroke-width=".8" id="line2d_6"/><g id="text_3"><defs><path d="M19.188 8.297h34.421V0H7.33v8.297q5.609 5.812 15.296 15.594 9.703 9.797 12.188 12.64 4.734 5.313 6.609 9 1.89 3.688 1.89 7.25 0 5.813-4.078 9.469-4.078 3.672-10.625 3.672-4.64 0-9.797-1.61-5.14-1.609-11-4.89v9.969Q13.767 71.78 18.938 73q5.188 1.219 9.485 1.219 11.328 0 18.062-5.672 6.735-5.656 6.735-15.125 0-4.5-1.688-8.531-1.672-4.016-6.125-9.485-1.218-1.422-7.765-8.187-6.532-6.766-18.453-18.922z" id="DejaVuSans-50"/></defs><g transform="matrix(.1 0 0 -.1 153.276 287.91)"><use xlink:href="#DejaVuSans-8722"/><use x="83.789" xlink:href="#DejaVuSans-50"/><use x="147.412" xlink:href="#DejaVuSans-48"/></g></g></g><g id="xtick_4"><path clip-path="url(#pfd86a38ea2)" d="M206.723 273.312V7.2" fill="none" stroke="#b0b0b0" stroke-linecap="square" stroke-width=".8" id="line2d_7"/><use x="206.723" xlink:href="#mcc09752204" y="273.312" stroke="#000" stroke-width=".8" id="line2d_8"/><use xlink:href="#DejaVuSans-48" transform="matrix(.1 0 0 -.1 203.542 287.91)" id="text_4"/></g><g id="xtick_5"><path clip-path="url(#pfd86a38ea2)" d="M249.619 273.312V7.2" fill="none" stroke="#b0b0b0" stroke-linecap="square" stroke-width=".8" id="line2d_9"/><use x="249.619" xlink:href="#mcc09752204" y="273.312" stroke="#000" stroke-width=".8" id="line2d_10"/><g transform="matrix(.1 0 0 -.1 243.256 287.91)" id="text_5"><use xlink:href="#DejaVuSans-50"/><use x="63.623" xlink:href="#DejaVuSans-48"/></g></g><g id="xtick_6"><path clip-path="url(#pfd86a38ea2)" d="M292.514 273.312V7.2" fill="none" stroke="#b0b0b0" stroke-linecap="square" stroke-width=".8" id="line2d_11"/><use x="292.514" xlink:href="#mcc09752204" y="273.312" stroke="#000" stroke-width=".8" id="line2d_12"/><g transform="matrix(.1 0 0 -.1 286.151 287.91)" id="text_6"><use xlink:href="#DejaVuSans-52"/><use x="63.623" xlink:href="#DejaVuSans-48"/></g></g><g id="xtick_7"><path clip-path="url(#pfd86a38ea2)" d="M335.409 273.312V7.2" fill="none" stroke="#b0b0b0" stroke-linecap="square" stroke-width=".8" id="line2d_13"/><use x="335.409" xlink:href="#mcc09752204" y="273.312" stroke="#000" stroke-width=".8" id="line2d_14"/><g transform="matrix(.1 0 0 -.1 329.046 287.91)" id="text_7"><use xlink:href="#DejaVuSans-54"/><use x="63.623" xlink:href="#DejaVuSans-48"/></g></g><g id="xtick_8"><path clip-path="url(#pfd86a38ea2)" d="M378.304 273.312V7.2" fill="none" stroke="#b0b0b0" stroke-linecap="square" stroke-width=".8" id="line2d_15"/><use x="378.304" xlink:href="#mcc09752204" y="273.312" stroke="#000" stroke-width=".8" id="line2d_16"/><g id="text_8"><defs><path d="M31.781 34.625q-7.031 0-11.062-3.766-4.016-3.765-4.016-10.343 0-6.594 4.016-10.36Q24.75 6.391 31.78 6.391q7.032 0 11.078 3.78 4.063 3.798 4.063 10.345 0 6.578-4.031 10.343-4.016 3.766-11.11 3.766zm-9.86 4.188q-6.343 1.562-9.89 5.906Q8.5 49.079 8.5 55.329q0 8.733 6.219 13.812 6.234 5.078 17.062 5.078 10.89 0 17.094-5.078 6.203-5.079 6.203-13.813 0-6.25-3.547-10.61-3.531-4.343-9.828-5.906 7.125-1.656 11.094-6.5 3.984-4.828 3.984-11.796 0-10.61-6.468-16.282-6.47-5.656-18.532-5.656-12.047 0-18.531 5.656-6.469 5.672-6.469 16.282 0 6.968 4 11.797 4.016 4.843 11.14 6.5zM18.314 54.39q0-5.657 3.53-8.828 3.548-3.172 9.938-3.172 6.36 0 9.938 3.172 3.593 3.171 3.593 8.828 0 5.672-3.593 8.843-3.578 3.172-9.938 3.172-6.39 0-9.937-3.172-3.532-3.172-3.532-8.843z" id="DejaVuSans-56"/></defs><g transform="matrix(.1 0 0 -.1 371.942 287.91)"><use xlink:href="#DejaVuSans-56"/><use x="63.623" xlink:href="#DejaVuSans-48"/></g></g></g><g id="text_9"><defs><path d="M34.281 27.484q-10.89 0-15.093-2.484-4.204-2.484-4.204-8.5 0-4.781 3.157-7.594 3.156-2.797 8.562-2.797 7.485 0 12 5.297 4.516 5.297 4.516 14.078v2zm17.922 3.72V0H43.22v8.297Q40.14 3.328 35.547.953q-4.594-2.375-11.234-2.375-8.391 0-13.36 4.719Q6 8.016 6 15.922q0 9.219 6.172 13.906 6.187 4.688 18.437 4.688h12.61v.89q0 6.203-4.078 9.594-4.078 3.39-11.453 3.39-4.688 0-9.141-1.124-4.438-1.125-8.531-3.375v8.312q4.921 1.906 9.562 2.844 4.64.953 9.031.953 11.875 0 17.735-6.156 5.86-6.14 5.86-18.64z" id="DejaVuSans-97"/><path d="M47.016 60.89L29.5 51.423l17.516-9.531-2.828-4.782-16.407 9.907V28.609H22.22v18.407L5.812 37.109l-2.828 4.782 17.532 9.53-17.532 9.47 2.829 4.828 16.406-9.906v18.406h5.562V55.813l16.407 9.906z" id="DejaVuSans-42"/></defs><g transform="matrix(.1 0 0 -.1 221.979 301.589)"><use xlink:href="#DejaVuSans-97"/><use x="61.279" xlink:href="#DejaVuSans-42"/></g></g></g><g id="matplotlib.axis_2"><g id="ytick_1"><path clip-path="url(#pfd86a38ea2)" d="M48.983 247.73h357.12" fill="none" stroke="#b0b0b0" stroke-linecap="square" stroke-width=".8" id="line2d_17"/><g id="line2d_18"><defs><path d="M0 0h-3.5" id="ma190741692" stroke="#000" stroke-width=".8"/></defs><use x="48.983" xlink:href="#ma190741692" y="247.73" stroke="#000" stroke-width=".8"/></g><g transform="matrix(.1 0 0 -.1 20.878 251.53)" id="text_10"><use xlink:href="#DejaVuSans-8722"/><use x="83.789" xlink:href="#DejaVuSans-52"/><use x="147.412" xlink:href="#DejaVuSans-48"/></g></g><g id="ytick_2"><path clip-path="url(#pfd86a38ea2)" d="M48.983 204.835h357.12" fill="none" stroke="#b0b0b0" stroke-linecap="square" stroke-width=".8" id="line2d_19"/><use x="48.983" xlink:href="#ma190741692" y="204.835" stroke="#000" stroke-width=".8" id="line2d_20"/><g transform="matrix(.1 0 0 -.1 20.878 208.634)" id="text_11"><use xlink:href="#DejaVuSans-8722"/><use x="83.789" xlink:href="#DejaVuSans-50"/><use x="147.412" xlink:href="#DejaVuSans-48"/></g></g><g id="ytick_3"><path clip-path="url(#pfd86a38ea2)" d="M48.983 161.94h357.12" fill="none" stroke="#b0b0b0" stroke-linecap="square" stroke-width=".8" id="line2d_21"/><use x="48.983" xlink:href="#ma190741692" y="161.94" stroke="#000" stroke-width=".8" id="line2d_22"/><use xlink:href="#DejaVuSans-48" transform="matrix(.1 0 0 -.1 35.62 165.74)" id="text_12"/></g><g id="ytick_4"><path clip-path="url(#pfd86a38ea2)" d="M48.983 119.045h357.12" fill="none" stroke="#b0b0b0" stroke-linecap="square" stroke-width=".8" id="line2d_23"/><use x="48.983" xlink:href="#ma190741692" y="119.045" stroke="#000" stroke-width=".8" id="line2d_24"/><g transform="matrix(.1 0 0 -.1 29.258 122.844)" id="text_13"><use xlink:href="#DejaVuSans-50"/><use x="63.623" xlink:href="#DejaVuSans-48"/></g></g><g id="ytick_5"><path clip-path="url(#pfd86a38ea2)" d="M48.983 76.15h357.12" fill="none" stroke="#b0b0b0" stroke-linecap="square" stroke-width=".8" id="line2d_25"/><use x="48.983" xlink:href="#ma190741692" y="76.15" stroke="#000" stroke-width=".8" id="line2d_26"/><g transform="matrix(.1 0 0 -.1 29.258 79.949)" id="text_14"><use xlink:href="#DejaVuSans-52"/><use x="63.623" xlink:href="#DejaVuSans-48"/></g></g><g id="ytick_6"><path clip-path="url(#pfd86a38ea2)" d="M48.983 33.255h357.12" fill="none" stroke="#b0b0b0" stroke-linecap="square" stroke-width=".8" id="line2d_27"/><use x="48.983" xlink:href="#ma190741692" y="33.255" stroke="#000" stroke-width=".8" id="line2d_28"/><g transform="matrix(.1 0 0 -.1 29.258 37.054)" id="text_15"><use xlink:href="#DejaVuSans-54"/><use x="63.623" xlink:href="#DejaVuSans-48"/></g></g><g id="text_16"><defs><path d="M48.688 27.297q0 9.906-4.079 15.547-4.078 5.64-11.203 5.64-7.14 0-11.218-5.64-4.079-5.64-4.079-15.547 0-9.906 4.078-15.547 4.079-5.64 11.22-5.64 7.124 0 11.202 5.64t4.078 15.547zM18.108 46.39q2.844 4.875 7.157 7.234Q29.594 56 35.594 56q9.968 0 16.187-7.906 6.235-7.907 6.235-20.797T51.78 6.484q-6.218-7.906-16.187-7.906-6 0-10.328 2.375-4.313 2.375-7.157 7.25V0H9.08v75.984h9.03z" id="DejaVuSans-98"/></defs><g transform="matrix(0 -.1 -.1 0 14.798 145.93)"><use xlink:href="#DejaVuSans-98"/><use x="63.477" xlink:href="#DejaVuSans-42"/></g></g></g><path clip-path="url(#pfd86a38ea2)" d="M211.183 183.487l-17.302 77.729" fill="none" stroke="gray" stroke-linecap="square" stroke-width="1.5" id="line2d_29"/><g id="line2d_30"><defs><path d="M0 3a3 3 0 100-6 3 3 0 000 6z" id="m4723a0f54d" stroke="#000"/></defs><g clip-path="url(#pfd86a38ea2)"><use x="193.627" xlink:href="#m4723a0f54d" y="261.159" fill="#fff" stroke="#000"/></g></g><g id="line2d_31"><defs><path d="M0 3a3 3 0 100-6 3 3 0 000 6z" id="md515715c88" stroke="#a7cafa"/></defs><g clip-path="url(#pfd86a38ea2)"><use x="205.091" xlink:href="#md515715c88" y="219.962" fill="#a7cafa" stroke="#a7cafa"/></g></g><g id="line2d_32"><defs><path d="M0 3a3 3 0 100-6 3 3 0 000 6z" id="ma14e2e6930" stroke="#40abf3"/></defs><g clip-path="url(#pfd86a38ea2)"><use x="191.902" xlink:href="#ma14e2e6930" y="257.823" fill="#40abf3" stroke="#40abf3"/></g></g><g id="line2d_33"><defs><path d="M0 3a3 3 0 100-6 3 3 0 000 6z" id="m5c9f232863" stroke="#26547d"/></defs><g clip-path="url(#pfd86a38ea2)"><use x="203.933" xlink:href="#m5c9f232863" y="221.634" fill="#26547d" stroke="#26547d"/></g></g><g clip-path="url(#pfd86a38ea2)" id="line2d_34"><use x="199.395" xlink:href="#m4723a0f54d" y="244.447" fill="#fff" stroke="#000"/></g><g clip-path="url(#pfd86a38ea2)" id="line2d_35"><use x="193.391" xlink:href="#m4723a0f54d" y="257.356" fill="#fff" stroke="#000"/></g><g id="line2d_36"><defs><path d="M0 3a3 3 0 100-6 3 3 0 000 6z" id="m4e365b1174" stroke="#6182a9"/></defs><g clip-path="url(#pfd86a38ea2)"><use x="204.132" xlink:href="#m4e365b1174" y="213.652" fill="#6182a9" stroke="#6182a9"/></g></g><g id="line2d_37"><defs><path d="M0 3a3 3 0 100-6 3 3 0 000 6z" id="mb3f6df689c" stroke="#3b85bd"/></defs><g clip-path="url(#pfd86a38ea2)"><use x="196.619" xlink:href="#mb3f6df689c" y="239.072" fill="#3b85bd" stroke="#3b85bd"/></g></g><g id="line2d_38"><defs><path d="M0 3a3 3 0 100-6 3 3 0 000 6z" id="m7c58546fa1" stroke="#335377"/></defs><g clip-path="url(#pfd86a38ea2)"><use x="206.343" xlink:href="#m7c58546fa1" y="213.446" fill="#335377" stroke="#335377"/></g></g><path clip-path="url(#pfd86a38ea2)" d="M211.183 183.487l-103.971-47.874" fill="none" stroke="gray" stroke-linecap="square" stroke-width="1.5" id="line2d_39"/><g id="line2d_40"><defs><path d="M0 3a3 3 0 100-6 3 3 0 000 6z" id="m39057f439a" stroke="#658684"/></defs><g clip-path="url(#pfd86a38ea2)"><use x="182.005" xlink:href="#m39057f439a" y="168.714" fill="#658684" stroke="#658684"/></g></g><g id="line2d_41"><defs><path d="M0 3a3 3 0 100-6 3 3 0 000 6z" id="m7df8301fa0" stroke="#abcdd4"/></defs><g clip-path="url(#pfd86a38ea2)"><use x="185.755" xlink:href="#m7df8301fa0" y="177.334" fill="#abcdd4" stroke="#abcdd4"/></g></g><g id="line2d_42"><defs><path d="M0 3a3 3 0 100-6 3 3 0 000 6z" id="ma66b2d6a91" stroke="#3a5751"/></defs><g clip-path="url(#pfd86a38ea2)"><use x="180.855" xlink:href="#ma66b2d6a91" y="162.66" fill="#3a5751" stroke="#3a5751"/></g></g><g id="line2d_43"><defs><path d="M0 3a3 3 0 100-6 3 3 0 000 6z" id="mfeaaa5b260" stroke="#56deb3"/></defs><g clip-path="url(#pfd86a38ea2)"><use x="105.49" xlink:href="#mfeaaa5b260" y="139.543" fill="#56deb3" stroke="#56deb3"/></g></g><g id="line2d_44"><defs><path d="M0 3a3 3 0 100-6 3 3 0 000 6z" id="mfe470ac68e" stroke="#84d7c2"/></defs><g clip-path="url(#pfd86a38ea2)"><use x="142.06" xlink:href="#mfe470ac68e" y="156.521" fill="#84d7c2" stroke="#84d7c2"/></g></g><g id="line2d_45"><defs><path d="M0 3a3 3 0 100-6 3 3 0 000 6z" id="mbcf41377f3" stroke="#9bd2cc"/></defs><g clip-path="url(#pfd86a38ea2)"><use x="166.388" xlink:href="#mbcf41377f3" y="168.349" fill="#9bd2cc" stroke="#9bd2cc"/></g></g><g id="line2d_46"><defs><path d="M0 3a3 3 0 100-6 3 3 0 000 6z" id="mafae6c7321" stroke="#368e71"/></defs><g clip-path="url(#pfd86a38ea2)"><use x="134.668" xlink:href="#mafae6c7321" y="145.254" fill="#368e71" stroke="#368e71"/></g></g><g id="line2d_47"><defs><path d="M0 3a3 3 0 100-6 3 3 0 000 6z" id="m67ee119073" stroke="#548a7c"/></defs><g clip-path="url(#pfd86a38ea2)"><use x="161.311" xlink:href="#m67ee119073" y="158.168" fill="#548a7c" stroke="#548a7c"/></g></g><g id="line2d_48"><defs><path d="M0 3a3 3 0 100-6 3 3 0 000 6z" id="m19090fcc09" stroke="#2d594c"/></defs><g clip-path="url(#pfd86a38ea2)"><use x="166.698" xlink:href="#m19090fcc09" y="155.933" fill="#2d594c" stroke="#2d594c"/></g></g><path clip-path="url(#pfd86a38ea2)" d="M211.183 183.487l138.412-53.965" fill="none" stroke="gray" stroke-linecap="square" stroke-width="1.5" id="line2d_49"/><g id="line2d_50"><defs><path d="M0 3a3 3 0 100-6 3 3 0 000 6z" id="m390c0723cd" stroke="#ff7493"/></defs><g clip-path="url(#pfd86a38ea2)"><use x="325.201" xlink:href="#m390c0723cd" y="141.066" fill="#ff7493" stroke="#ff7493"/></g></g><g id="line2d_51"><defs><path d="M0 3a3 3 0 100-6 3 3 0 000 6z" id="m7edb2aba45" stroke="#e8839e"/></defs><g clip-path="url(#pfd86a38ea2)"><use x="295.876" xlink:href="#m7edb2aba45" y="155.115" fill="#e8839e" stroke="#e8839e"/></g></g><g id="line2d_52"><defs><path d="M0 3a3 3 0 100-6 3 3 0 000 6z" id="m2722ecb5c6" stroke="#f1b6d1"/></defs><g clip-path="url(#pfd86a38ea2)"><use x="260.787" xlink:href="#m2722ecb5c6" y="173.224" fill="#f1b6d1" stroke="#f1b6d1"/></g></g><g id="line2d_53"><defs><path d="M0 3a3 3 0 100-6 3 3 0 000 6z" id="m72dd115b11" stroke="#e43b65"/></defs><g clip-path="url(#pfd86a38ea2)"><use x="348.799" xlink:href="#m72dd115b11" y="127.524" fill="#e43b65" stroke="#e43b65"/></g></g><g id="line2d_54"><defs><path d="M0 3a3 3 0 100-6 3 3 0 000 6z" id="m1de1f06a87" stroke="#d64d6a"/></defs><g clip-path="url(#pfd86a38ea2)"><use x="326.547" xlink:href="#m1de1f06a87" y="134.277" fill="#d64d6a" stroke="#d64d6a"/></g></g><g id="line2d_55"><defs><path d="M0 3a3 3 0 100-6 3 3 0 000 6z" id="md2f468d491" stroke="#c15e76"/></defs><g clip-path="url(#pfd86a38ea2)"><use x="296.881" xlink:href="#md2f468d491" y="149.801" fill="#c15e76" stroke="#c15e76"/></g></g><g id="line2d_56"><defs><path d="M0 3a3 3 0 100-6 3 3 0 000 6z" id="mdd94e85990" stroke="#a76e82"/></defs><g clip-path="url(#pfd86a38ea2)"><use x="261.779" xlink:href="#mdd94e85990" y="165.04" fill="#a76e82" stroke="#a76e82"/></g></g><g id="line2d_57"><defs><path d="M0 3a3 3 0 100-6 3 3 0 000 6z" id="me9f5348b6a" stroke="#8e2b42"/></defs><g clip-path="url(#pfd86a38ea2)"><use x="299.842" xlink:href="#me9f5348b6a" y="141.4" fill="#8e2b42" stroke="#8e2b42"/></g></g><g id="line2d_58"><defs><path d="M0 3a3 3 0 100-6 3 3 0 000 6z" id="m6cac13aa80" stroke="#793d4e"/></defs><g clip-path="url(#pfd86a38ea2)"><use x="267.433" xlink:href="#m6cac13aa80" y="158.852" fill="#793d4e" stroke="#793d4e"/></g></g><path clip-path="url(#pfd86a38ea2)" d="M211.183 183.487l.105-164.191" fill="none" stroke="gray" stroke-linecap="square" stroke-width="1.5" id="line2d_59"/><g id="line2d_60"><defs><path d="M0 3a3 3 0 100-6 3 3 0 000 6z" id="maef15d1cba" stroke="#eac342"/></defs><g clip-path="url(#pfd86a38ea2)"><use x="208.157" xlink:href="#maef15d1cba" y="19.324" fill="#eac342" stroke="#eac342"/></g></g><g id="line2d_61"><defs><path d="M0 3a3 3 0 100-6 3 3 0 000 6z" id="mabafbe6867" stroke="#e3c474"/></defs><g clip-path="url(#pfd86a38ea2)"><use x="208.254" xlink:href="#mabafbe6867" y="67.692" fill="#e3c474" stroke="#e3c474"/></g></g><g id="line2d_62"><defs><path d="M0 3a3 3 0 100-6 3 3 0 000 6z" id="m3384f2a7e1" stroke="#dcc496"/></defs><g clip-path="url(#pfd86a38ea2)"><use x="210.154" xlink:href="#m3384f2a7e1" y="105.426" fill="#dcc496" stroke="#dcc496"/></g></g><g id="line2d_63"><defs><path d="M0 3a3 3 0 100-6 3 3 0 000 6z" id="mc2eaeee594" stroke="#d4c5b1"/></defs><g clip-path="url(#pfd86a38ea2)"><use x="211.421" xlink:href="#mc2eaeee594" y="136.703" fill="#d4c5b1" stroke="#d4c5b1"/></g></g><g id="line2d_64"><defs><path d="M0 3a3 3 0 100-6 3 3 0 000 6z" id="me6b963e79b" stroke="#604d37"/></defs><g clip-path="url(#pfd86a38ea2)"><use x="215.791" xlink:href="#me6b963e79b" y="127.047" fill="#604d37" stroke="#604d37"/></g></g><g id="line2d_65"><defs><path d="M0 3a3 3 0 100-6 3 3 0 000 6z" id="mdf40748d6b" stroke="#5b4e45"/></defs><g clip-path="url(#pfd86a38ea2)"><use x="215.381" xlink:href="#mdf40748d6b" y="146.817" fill="#5b4e45" stroke="#5b4e45"/></g></g><g id="line2d_66"><defs><path d="M0 3a3 3 0 100-6 3 3 0 000 6z" id="m32bee9cdfb" stroke="#8a7d6d"/></defs><g clip-path="url(#pfd86a38ea2)"><use x="211.035" xlink:href="#m32bee9cdfb" y="139.121" fill="#8a7d6d" stroke="#8a7d6d"/></g></g><g id="line2d_67"><defs><path d="M0 3a3 3 0 100-6 3 3 0 000 6z" id="m10464d525a" stroke="#957c3b"/></defs><g clip-path="url(#pfd86a38ea2)"><use x="210.019" xlink:href="#m10464d525a" y="79.384" fill="#957c3b" stroke="#957c3b"/></g></g><g id="line2d_68"><defs><path d="M0 3a3 3 0 100-6 3 3 0 000 6z" id="mb06bf6c4b0" stroke="#8e7d5f"/></defs><g clip-path="url(#pfd86a38ea2)"><use x="210.889" xlink:href="#mb06bf6c4b0" y="121.694" fill="#8e7d5f" stroke="#8e7d5f"/></g></g><path d="M48.983 273.312V7.2" fill="none" stroke="#000" stroke-linecap="square" stroke-width=".8" id="patch_3"/><path d="M406.103 273.312V7.2" fill="none" stroke="#000" stroke-linecap="square" stroke-width=".8" id="patch_4"/><path d="M48.983 273.312h357.12" fill="none" stroke="#000" stroke-linecap="square" stroke-width=".8" id="patch_5"/><path d="M48.983 7.2h357.12" fill="none" stroke="#000" stroke-linecap="square" stroke-width=".8" id="patch_6"/></g></g><defs><clipPath id="pfd86a38ea2"><path d="M48.983 7.2h357.12v266.112H48.983z"/></clipPath></defs></svg>