<svg height="414.491" viewBox="0 0 413.303 310.868" width="551.07" xmlns="http://www.w3.org/2000/svg" xmlns:xlink="http://www.w3.org/1999/xlink"><defs><style>*{stroke-linecap:butt;stroke-linejoin:round}</style></defs><g id="figure_1"><path d="M0 310.868h413.303V0H0z" fill="none" id="patch_1"/><g id="axes_1"><path d="M48.983 273.312h357.12V7.2H48.983z" fill="none" id="patch_2"/><g id="matplotlib.axis_1"><g id="xtick_1"><path clip-path="url(#p8e5431e617)" d="M65.93 273.312V7.2" fill="none" stroke="#b0b0b0" stroke-linecap="square" stroke-width=".8" id="line2d_1"/><g id="line2d_2"><defs><path d="M0 0v3.5" id="m5bee4548ec" stroke="#000" stroke-width=".8"/></defs><use x="65.93" xlink:href="#m5bee4548ec" y="273.312" stroke="#000" stroke-width=".8"/></g><g id="text_1"><defs><path d="M10.594 35.5h62.593v-8.297H10.594z" id="DejaVuSans-8722"/><path d="M40.578 39.313Q47.656 37.797 51.625 33q3.984-4.781 3.984-11.813 0-10.78-7.422-16.703-7.421-5.906-21.093-5.906-4.578 0-9.438.906-4.86.907-10.031 2.72v9.515q4.094-2.39 8.969-3.61 4.89-1.218 10.218-1.218 9.266 0 14.125 3.656 4.86 3.656 4.86 10.64 0 6.454-4.516 10.079-4.515 3.64-12.562 3.64h-8.5v8.11h8.89q7.266 0 11.125 2.906 3.86 2.906 3.86 8.375 0 5.61-3.985 8.61-3.968 3.015-11.39 3.015-4.063 0-8.703-.89-4.641-.876-10.203-2.72v8.782q5.624 1.562 10.53 2.344 4.907.78 9.25.78 11.235 0 17.766-5.109 6.547-5.093 6.547-13.78 0-6.063-3.468-10.235-3.47-4.172-9.86-5.782z" id="DejaVuSans-51"/><path d="M31.781 66.406q-7.61 0-11.453-7.5Q16.5 51.422 16.5 36.375q0-14.984 3.828-22.484 3.844-7.5 11.453-7.5 7.672 0 11.5 7.5 3.844 7.5 3.844 22.484 0 15.047-3.844 22.531-3.828 7.5-11.5 7.5zm0 7.813q12.266 0 18.735-9.703 6.468-9.688 6.468-28.141 0-18.406-6.468-28.11-6.47-9.687-18.735-9.687-12.25 0-18.718 9.688-6.47 9.703-6.47 28.109 0 18.453 6.47 28.14Q19.53 74.22 31.78 74.22z" id="DejaVuSans-48"/></defs><g transform="matrix(.1 0 0 -.1 55.377 287.91)"><use xlink:href="#DejaVuSans-8722"/><use x="83.789" xlink:href="#DejaVuSans-51"/><use x="147.412" xlink:href="#DejaVuSans-48"/></g></g></g><g id="xtick_2"><path clip-path="url(#p8e5431e617)" d="M112.41 273.312V7.2" fill="none" stroke="#b0b0b0" stroke-linecap="square" stroke-width=".8" id="line2d_3"/><use x="112.411" xlink:href="#m5bee4548ec" y="273.312" stroke="#000" stroke-width=".8" id="line2d_4"/><g id="text_2"><defs><path d="M19.188 8.297h34.421V0H7.33v8.297q5.609 5.812 15.296 15.594 9.703 9.797 12.188 12.64 4.734 5.313 6.609 9 1.89 3.688 1.89 7.25 0 5.813-4.078 9.469-4.078 3.672-10.625 3.672-4.64 0-9.797-1.61-5.14-1.609-11-4.89v9.969Q13.767 71.78 18.938 73q5.188 1.219 9.485 1.219 11.328 0 18.062-5.672 6.735-5.656 6.735-15.125 0-4.5-1.688-8.531-1.672-4.016-6.125-9.485-1.218-1.422-7.765-8.187-6.532-6.766-18.453-18.922z" id="DejaVuSans-50"/></defs><g transform="matrix(.1 0 0 -.1 101.858 287.91)"><use xlink:href="#DejaVuSans-8722"/><use x="83.789" xlink:href="#DejaVuSans-50"/><use x="147.412" xlink:href="#DejaVuSans-48"/></g></g></g><g id="xtick_3"><path clip-path="url(#p8e5431e617)" d="M158.891 273.312V7.2" fill="none" stroke="#b0b0b0" stroke-linecap="square" stroke-width=".8" id="line2d_5"/><use x="158.891" xlink:href="#m5bee4548ec" y="273.312" stroke="#000" stroke-width=".8" id="line2d_6"/><g id="text_3"><defs><path d="M12.406 8.297h16.11v55.625l-17.532-3.516v8.985l17.438 3.515h9.86V8.296H54.39V0H12.406z" id="DejaVuSans-49"/></defs><g transform="matrix(.1 0 0 -.1 148.34 287.91)"><use xlink:href="#DejaVuSans-8722"/><use x="83.789" xlink:href="#DejaVuSans-49"/><use x="147.412" xlink:href="#DejaVuSans-48"/></g></g></g><g id="xtick_4"><path clip-path="url(#p8e5431e617)" d="M205.372 273.312V7.2" fill="none" stroke="#b0b0b0" stroke-linecap="square" stroke-width=".8" id="line2d_7"/><use x="205.372" xlink:href="#m5bee4548ec" y="273.312" stroke="#000" stroke-width=".8" id="line2d_8"/><use xlink:href="#DejaVuSans-48" transform="matrix(.1 0 0 -.1 202.191 287.91)" id="text_4"/></g><g id="xtick_5"><path clip-path="url(#p8e5431e617)" d="M251.853 273.312V7.2" fill="none" stroke="#b0b0b0" stroke-linecap="square" stroke-width=".8" id="line2d_9"/><use x="251.853" xlink:href="#m5bee4548ec" y="273.312" stroke="#000" stroke-width=".8" id="line2d_10"/><g transform="matrix(.1 0 0 -.1 245.49 287.91)" id="text_5"><use xlink:href="#DejaVuSans-49"/><use x="63.623" xlink:href="#DejaVuSans-48"/></g></g><g id="xtick_6"><path clip-path="url(#p8e5431e617)" d="M298.334 273.312V7.2" fill="none" stroke="#b0b0b0" stroke-linecap="square" stroke-width=".8" id="line2d_11"/><use x="298.334" xlink:href="#m5bee4548ec" y="273.312" stroke="#000" stroke-width=".8" id="line2d_12"/><g transform="matrix(.1 0 0 -.1 291.972 287.91)" id="text_6"><use xlink:href="#DejaVuSans-50"/><use x="63.623" xlink:href="#DejaVuSans-48"/></g></g><g id="xtick_7"><path clip-path="url(#p8e5431e617)" d="M344.815 273.312V7.2" fill="none" stroke="#b0b0b0" stroke-linecap="square" stroke-width=".8" id="line2d_13"/><use x="344.815" xlink:href="#m5bee4548ec" y="273.312" stroke="#000" stroke-width=".8" id="line2d_14"/><g transform="matrix(.1 0 0 -.1 338.453 287.91)" id="text_7"><use xlink:href="#DejaVuSans-51"/><use x="63.623" xlink:href="#DejaVuSans-48"/></g></g><g id="xtick_8"><path clip-path="url(#p8e5431e617)" d="M391.296 273.312V7.2" fill="none" stroke="#b0b0b0" stroke-linecap="square" stroke-width=".8" id="line2d_15"/><use x="391.296" xlink:href="#m5bee4548ec" y="273.312" stroke="#000" stroke-width=".8" id="line2d_16"/><g id="text_8"><defs><path d="M37.797 64.313L12.89 25.39h24.906zm-2.594 8.593H47.61V25.391h10.407v-8.203H47.609V0h-9.812v17.188H4.89v9.515z" id="DejaVuSans-52"/></defs><g transform="matrix(.1 0 0 -.1 384.933 287.91)"><use xlink:href="#DejaVuSans-52"/><use x="63.623" xlink:href="#DejaVuSans-48"/></g></g></g><g id="text_9"><defs><path d="M34.281 27.484q-10.89 0-15.093-2.484-4.204-2.484-4.204-8.5 0-4.781 3.157-7.594 3.156-2.797 8.562-2.797 7.485 0 12 5.297 4.516 5.297 4.516 14.078v2zm17.922 3.72V0H43.22v8.297Q40.14 3.328 35.547.953q-4.594-2.375-11.234-2.375-8.391 0-13.36 4.719Q6 8.016 6 15.922q0 9.219 6.172 13.906 6.187 4.688 18.437 4.688h12.61v.89q0 6.203-4.078 9.594-4.078 3.39-11.453 3.39-4.688 0-9.141-1.124-4.438-1.125-8.531-3.375v8.312q4.921 1.906 9.562 2.844 4.64.953 9.031.953 11.875 0 17.735-6.156 5.86-6.14 5.86-18.64z" id="DejaVuSans-97"/><path d="M17.922 72.906v-27.11H9.625v27.11z" id="DejaVuSans-39"/></defs><g transform="matrix(.1 0 0 -.1 223.105 301.589)"><use xlink:href="#DejaVuSans-97"/><use x="61.279" xlink:href="#DejaVuSans-39"/></g></g></g><g id="matplotlib.axis_2"><g id="ytick_1"><path clip-path="url(#p8e5431e617)" d="M48.983 234.064h357.12" fill="none" stroke="#b0b0b0" stroke-linecap="square" stroke-width=".8" id="line2d_17"/><g id="line2d_18"><defs><path d="M0 0h-3.5" id="m7794178363" stroke="#000" stroke-width=".8"/></defs><use x="48.983" xlink:href="#m7794178363" y="234.064" stroke="#000" stroke-width=".8"/></g><g transform="matrix(.1 0 0 -.1 20.878 237.863)" id="text_10"><use xlink:href="#DejaVuSans-8722"/><use x="83.789" xlink:href="#DejaVuSans-50"/><use x="147.412" xlink:href="#DejaVuSans-48"/></g></g><g id="ytick_2"><path clip-path="url(#p8e5431e617)" d="M48.983 187.583h357.12" fill="none" stroke="#b0b0b0" stroke-linecap="square" stroke-width=".8" id="line2d_19"/><use x="48.983" xlink:href="#m7794178363" y="187.583" stroke="#000" stroke-width=".8" id="line2d_20"/><g transform="matrix(.1 0 0 -.1 20.878 191.383)" id="text_11"><use xlink:href="#DejaVuSans-8722"/><use x="83.789" xlink:href="#DejaVuSans-49"/><use x="147.412" xlink:href="#DejaVuSans-48"/></g></g><g id="ytick_3"><path clip-path="url(#p8e5431e617)" d="M48.983 141.102h357.12" fill="none" stroke="#b0b0b0" stroke-linecap="square" stroke-width=".8" id="line2d_21"/><use x="48.983" xlink:href="#m7794178363" y="141.102" stroke="#000" stroke-width=".8" id="line2d_22"/><use xlink:href="#DejaVuSans-48" transform="matrix(.1 0 0 -.1 35.62 144.902)" id="text_12"/></g><g id="ytick_4"><path clip-path="url(#p8e5431e617)" d="M48.983 94.622h357.12" fill="none" stroke="#b0b0b0" stroke-linecap="square" stroke-width=".8" id="line2d_23"/><use x="48.983" xlink:href="#m7794178363" y="94.622" stroke="#000" stroke-width=".8" id="line2d_24"/><g transform="matrix(.1 0 0 -.1 29.258 98.42)" id="text_13"><use xlink:href="#DejaVuSans-49"/><use x="63.623" xlink:href="#DejaVuSans-48"/></g></g><g id="ytick_5"><path clip-path="url(#p8e5431e617)" d="M48.983 48.14h357.12" fill="none" stroke="#b0b0b0" stroke-linecap="square" stroke-width=".8" id="line2d_25"/><use x="48.983" xlink:href="#m7794178363" y="48.141" stroke="#000" stroke-width=".8" id="line2d_26"/><g transform="matrix(.1 0 0 -.1 29.258 51.94)" id="text_14"><use xlink:href="#DejaVuSans-50"/><use x="63.623" xlink:href="#DejaVuSans-48"/></g></g><g id="text_15"><defs><path d="M48.688 27.297q0 9.906-4.079 15.547-4.078 5.64-11.203 5.64-7.14 0-11.218-5.64-4.079-5.64-4.079-15.547 0-9.906 4.078-15.547 4.079-5.64 11.22-5.64 7.124 0 11.202 5.64t4.078 15.547zM18.108 46.39q2.844 4.875 7.157 7.234Q29.594 56 35.594 56q9.968 0 16.187-7.906 6.235-7.907 6.235-20.797T51.78 6.484q-6.218-7.906-16.187-7.906-6 0-10.328 2.375-4.313 2.375-7.157 7.25V0H9.08v75.984h9.03z" id="DejaVuSans-98"/></defs><g transform="matrix(0 -.1 -.1 0 14.798 144.804)"><use xlink:href="#DejaVuSans-98"/><use x="63.477" xlink:href="#DejaVuSans-39"/></g></g></g><path clip-path="url(#p8e5431e617)" d="M203.841 183.241l-48.908 77.906" fill="none" stroke="gray" stroke-linecap="square" stroke-width="1.5" id="line2d_27"/><g id="line2d_28"><defs><path d="M0 3a3 3 0 100-6 3 3 0 000 6z" id="m47240a861d" stroke="#000"/></defs><g clip-path="url(#p8e5431e617)"><use x="155.042" xlink:href="#m47240a861d" y="261.216" fill="#fff" stroke="#000"/></g></g><g id="line2d_29"><defs><path d="M0 3a3 3 0 100-6 3 3 0 000 6z" id="me0378446ac" stroke="#a7cafa"/></defs><g clip-path="url(#p8e5431e617)"><use x="182.568" xlink:href="#me0378446ac" y="227.212" fill="#a7cafa" stroke="#a7cafa"/></g></g><g id="line2d_30"><defs><path d="M0 3a3 3 0 100-6 3 3 0 000 6z" id="m5a457d97d4" stroke="#40abf3"/></defs><g clip-path="url(#p8e5431e617)"><use x="151.849" xlink:href="#m5a457d97d4" y="258.136" fill="#40abf3" stroke="#40abf3"/></g></g><g id="line2d_31"><defs><path d="M0 3a3 3 0 100-6 3 3 0 000 6z" id="m3b83aaef8c" stroke="#26547d"/></defs><g clip-path="url(#p8e5431e617)"><use x="175.904" xlink:href="#m3b83aaef8c" y="227.93" fill="#26547d" stroke="#26547d"/></g></g><g clip-path="url(#p8e5431e617)" id="line2d_32"><use x="167.298" xlink:href="#m47240a861d" y="248.972" fill="#fff" stroke="#000"/></g><g clip-path="url(#p8e5431e617)" id="line2d_33"><use x="151.14" xlink:href="#m47240a861d" y="257.172" fill="#fff" stroke="#000"/></g><g id="line2d_34"><defs><path d="M0 3a3 3 0 100-6 3 3 0 000 6z" id="m5e2e904b07" stroke="#6182a9"/></defs><g clip-path="url(#p8e5431e617)"><use x="181.603" xlink:href="#m5e2e904b07" y="220.726" fill="#6182a9" stroke="#6182a9"/></g></g><g id="line2d_35"><defs><path d="M0 3a3 3 0 100-6 3 3 0 000 6z" id="m448e0c40bb" stroke="#3b85bd"/></defs><g clip-path="url(#p8e5431e617)"><use x="161.755" xlink:href="#m448e0c40bb" y="243.605" fill="#3b85bd" stroke="#3b85bd"/></g></g><g id="line2d_36"><defs><path d="M0 3a3 3 0 100-6 3 3 0 000 6z" id="m161de318ab" stroke="#335377"/></defs><g clip-path="url(#p8e5431e617)"><use x="183.551" xlink:href="#m161de318ab" y="220.08" fill="#335377" stroke="#335377"/></g></g><path clip-path="url(#p8e5431e617)" d="M203.841 183.241L82.602 118.677" fill="none" stroke="gray" stroke-linecap="square" stroke-width="1.5" id="line2d_37"/><g id="line2d_38"><defs><path d="M0 3a3 3 0 100-6 3 3 0 000 6z" id="m58e441bfd9" stroke="#658684"/></defs><g clip-path="url(#p8e5431e617)"><use x="152.872" xlink:href="#m58e441bfd9" y="155.818" fill="#658684" stroke="#658684"/></g></g><g id="line2d_39"><defs><path d="M0 3a3 3 0 100-6 3 3 0 000 6z" id="m019f2dd663" stroke="#abcdd4"/></defs><g clip-path="url(#p8e5431e617)"><use x="156.282" xlink:href="#m019f2dd663" y="170.63" fill="#abcdd4" stroke="#abcdd4"/></g></g><g id="line2d_40"><defs><path d="M0 3a3 3 0 100-6 3 3 0 000 6z" id="m1f3620ba99" stroke="#3a5751"/></defs><g clip-path="url(#p8e5431e617)"><use x="153.62" xlink:href="#m1f3620ba99" y="145.286" fill="#3a5751" stroke="#3a5751"/></g></g><g id="line2d_41"><defs><path d="M0 3a3 3 0 100-6 3 3 0 000 6z" id="m346c3716a9" stroke="#56deb3"/></defs><g clip-path="url(#p8e5431e617)"><use x="80.884" xlink:href="#m346c3716a9" y="122.013" fill="#56deb3" stroke="#56deb3"/></g></g><g id="line2d_42"><defs><path d="M0 3a3 3 0 100-6 3 3 0 000 6z" id="m7ea4b4972e" stroke="#84d7c2"/></defs><g clip-path="url(#p8e5431e617)"><use x="108.881" xlink:href="#m7ea4b4972e" y="139.263" fill="#84d7c2" stroke="#84d7c2"/></g></g><g id="line2d_43"><defs><path d="M0 3a3 3 0 100-6 3 3 0 000 6z" id="m4f671308d7" stroke="#9bd2cc"/></defs><g clip-path="url(#p8e5431e617)"><use x="132.201" xlink:href="#m4f671308d7" y="154.978" fill="#9bd2cc" stroke="#9bd2cc"/></g></g><g id="line2d_44"><defs><path d="M0 3a3 3 0 100-6 3 3 0 000 6z" id="mfa9227478d" stroke="#368e71"/></defs><g clip-path="url(#p8e5431e617)"><use x="105.284" xlink:href="#mfa9227478d" y="124.865" fill="#368e71" stroke="#368e71"/></g></g><g id="line2d_45"><defs><path d="M0 3a3 3 0 100-6 3 3 0 000 6z" id="mdad027bce7" stroke="#548a7c"/></defs><g clip-path="url(#p8e5431e617)"><use x="129.4" xlink:href="#mdad027bce7" y="139.751" fill="#548a7c" stroke="#548a7c"/></g></g><g id="line2d_46"><defs><path d="M0 3a3 3 0 100-6 3 3 0 000 6z" id="m8ecf56482a" stroke="#2d594c"/></defs><g clip-path="url(#p8e5431e617)"><use x="137.282" xlink:href="#m8ecf56482a" y="135.581" fill="#2d594c" stroke="#2d594c"/></g></g><path clip-path="url(#p8e5431e617)" d="M203.841 183.241l168.535-75.977" fill="none" stroke="gray" stroke-linecap="square" stroke-width="1.5" id="line2d_47"/><g id="line2d_48"><defs><path d="M0 3a3 3 0 100-6 3 3 0 000 6z" id="meaf7c23243" stroke="#ff7493"/></defs><g clip-path="url(#p8e5431e617)"><use x="346.908" xlink:href="#meaf7c23243" y="121.261" fill="#ff7493" stroke="#ff7493"/></g></g><g id="line2d_49"><defs><path d="M0 3a3 3 0 100-6 3 3 0 000 6z" id="mff3499d38c" stroke="#e8839e"/></defs><g clip-path="url(#p8e5431e617)"><use x="318.997" xlink:href="#mff3499d38c" y="133.258" fill="#e8839e" stroke="#e8839e"/></g></g><g id="line2d_50"><defs><path d="M0 3a3 3 0 100-6 3 3 0 000 6z" id="m43966e6cd8" stroke="#f1b6d1"/></defs><g clip-path="url(#p8e5431e617)"><use x="280.215" xlink:href="#m43966e6cd8" y="154.423" fill="#f1b6d1" stroke="#f1b6d1"/></g></g><g id="line2d_51"><defs><path d="M0 3a3 3 0 100-6 3 3 0 000 6z" id="m1222cc470b" stroke="#e43b65"/></defs><g clip-path="url(#p8e5431e617)"><use x="374.201" xlink:href="#m1222cc470b" y="111.451" fill="#e43b65" stroke="#e43b65"/></g></g><g id="line2d_52"><defs><path d="M0 3a3 3 0 100-6 3 3 0 000 6z" id="m5fa4f68206" stroke="#d64d6a"/></defs><g clip-path="url(#p8e5431e617)"><use x="352.951" xlink:href="#m5fa4f68206" y="115.451" fill="#d64d6a" stroke="#d64d6a"/></g></g><g id="line2d_53"><defs><path d="M0 3a3 3 0 100-6 3 3 0 000 6z" id="m422c24c260" stroke="#c15e76"/></defs><g clip-path="url(#p8e5431e617)"><use x="323.235" xlink:href="#m422c24c260" y="127.965" fill="#c15e76" stroke="#c15e76"/></g></g><g id="line2d_54"><defs><path d="M0 3a3 3 0 100-6 3 3 0 000 6z" id="m8b04416816" stroke="#a76e82"/></defs><g clip-path="url(#p8e5431e617)"><use x="284.549" xlink:href="#m8b04416816" y="144.136" fill="#a76e82" stroke="#a76e82"/></g></g><g id="line2d_55"><defs><path d="M0 3a3 3 0 100-6 3 3 0 000 6z" id="mbac1f3fa97" stroke="#8e2b42"/></defs><g clip-path="url(#p8e5431e617)"><use x="333.519" xlink:href="#mbac1f3fa97" y="119.992" fill="#8e2b42" stroke="#8e2b42"/></g></g><g id="line2d_56"><defs><path d="M0 3a3 3 0 100-6 3 3 0 000 6z" id="me0e1ad7143" stroke="#793d4e"/></defs><g clip-path="url(#p8e5431e617)"><use x="294.996" xlink:href="#me0e1ad7143" y="136.608" fill="#793d4e" stroke="#793d4e"/></g></g><path clip-path="url(#p8e5431e617)" d="M203.841 183.241l9.68-163.738" fill="none" stroke="gray" stroke-linecap="square" stroke-width="1.5" id="line2d_57"/><g id="line2d_58"><defs><path d="M0 3a3 3 0 100-6 3 3 0 000 6z" id="mece306653b" stroke="#eac342"/></defs><g clip-path="url(#p8e5431e617)"><use x="198.768" xlink:href="#mece306653b" y="19.296" fill="#eac342" stroke="#eac342"/></g></g><g id="line2d_59"><defs><path d="M0 3a3 3 0 100-6 3 3 0 000 6z" id="ma1531e54a1" stroke="#e3c474"/></defs><g clip-path="url(#p8e5431e617)"><use x="204.254" xlink:href="#ma1531e54a1" y="52.059" fill="#e3c474" stroke="#e3c474"/></g></g><g id="line2d_60"><defs><path d="M0 3a3 3 0 100-6 3 3 0 000 6z" id="m8a04dfef6a" stroke="#dcc496"/></defs><g clip-path="url(#p8e5431e617)"><use x="208.957" xlink:href="#m8a04dfef6a" y="82.58" fill="#dcc496" stroke="#dcc496"/></g></g><g id="line2d_61"><defs><path d="M0 3a3 3 0 100-6 3 3 0 000 6z" id="m5ad8321799" stroke="#d4c5b1"/></defs><g clip-path="url(#p8e5431e617)"><use x="210.784" xlink:href="#m5ad8321799" y="112.502" fill="#d4c5b1" stroke="#d4c5b1"/></g></g><g id="line2d_62"><defs><path d="M0 3a3 3 0 100-6 3 3 0 000 6z" id="m790e8d8feb" stroke="#604d37"/></defs><g clip-path="url(#p8e5431e617)"><use x="218.264" xlink:href="#m790e8d8feb" y="100.397" fill="#604d37" stroke="#604d37"/></g></g><g id="line2d_63"><defs><path d="M0 3a3 3 0 100-6 3 3 0 000 6z" id="m7b9e8eaf24" stroke="#5b4e45"/></defs><g clip-path="url(#p8e5431e617)"><use x="218.743" xlink:href="#m7b9e8eaf24" y="122.054" fill="#5b4e45" stroke="#5b4e45"/></g></g><g id="line2d_64"><defs><path d="M0 3a3 3 0 100-6 3 3 0 000 6z" id="mcac63fa366" stroke="#8a7d6d"/></defs><g clip-path="url(#p8e5431e617)"><use x="211.114" xlink:href="#mcac63fa366" y="113.868" fill="#8a7d6d" stroke="#8a7d6d"/></g></g><g id="line2d_65"><defs><path d="M0 3a3 3 0 100-6 3 3 0 000 6z" id="meaec8a3095" stroke="#957c3b"/></defs><g clip-path="url(#p8e5431e617)"><use x="205.788" xlink:href="#meaec8a3095" y="58.249" fill="#957c3b" stroke="#957c3b"/></g></g><g id="line2d_66"><defs><path d="M0 3a3 3 0 100-6 3 3 0 000 6z" id="m65cfca447a" stroke="#8e7d5f"/></defs><g clip-path="url(#p8e5431e617)"><use x="210.653" xlink:href="#m65cfca447a" y="95.794" fill="#8e7d5f" stroke="#8e7d5f"/></g></g><path d="M48.983 273.312V7.2" fill="none" stroke="#000" stroke-linecap="square" stroke-width=".8" id="patch_3"/><path d="M406.103 273.312V7.2" fill="none" stroke="#000" stroke-linecap="square" stroke-width=".8" id="patch_4"/><path d="M48.983 273.312h357.12" fill="none" stroke="#000" stroke-linecap="square" stroke-width=".8" id="patch_5"/><path d="M48.983 7.2h357.12" fill="none" stroke="#000" stroke-linecap="square" stroke-width=".8" id="patch_6"/></g></g><defs><clipPath id="p8e5431e617"><path d="M48.983 7.2h357.12v266.112H48.983z"/></clipPath></defs></svg>