<svg height="414.491" viewBox="0 0 414.464 310.868" width="552.618" xmlns="http://www.w3.org/2000/svg" xmlns:xlink="http://www.w3.org/1999/xlink"><defs><style>*{stroke-linecap:butt;stroke-linejoin:round}</style></defs><g id="figure_1"><path d="M0 310.868h414.464V0H0z" fill="none" id="patch_1"/><g id="axes_1"><path d="M50.144 273.312h357.12V7.2H50.144z" fill="none" id="patch_2"/><g id="matplotlib.axis_1"><g id="xtick_1"><path clip-path="url(#p68f29506d2)" d="M76.85 273.312V7.2" fill="none" stroke="#b0b0b0" stroke-linecap="square" stroke-width=".8" id="line2d_1"/><g id="line2d_2"><defs><path d="M0 0v3.5" id="m8787ec0f4e" stroke="#000" stroke-width=".8"/></defs><use x="76.849" xlink:href="#m8787ec0f4e" y="273.312" stroke="#000" stroke-width=".8"/></g><g id="text_1"><defs><path d="M31.781 66.406q-7.61 0-11.453-7.5Q16.5 51.422 16.5 36.375q0-14.984 3.828-22.484 3.844-7.5 11.453-7.5 7.672 0 11.5 7.5 3.844 7.5 3.844 22.484 0 15.047-3.844 22.531-3.828 7.5-11.5 7.5zm0 7.813q12.266 0 18.735-9.703 6.468-9.688 6.468-28.141 0-18.406-6.468-28.11-6.47-9.687-18.735-9.687-12.25 0-18.718 9.688-6.47 9.703-6.47 28.109 0 18.453 6.47 28.14Q19.53 74.22 31.78 74.22z" id="DejaVuSans-48"/><path d="M10.688 12.406H21V0H10.687z" id="DejaVuSans-46"/><path d="M19.188 8.297h34.421V0H7.33v8.297q5.609 5.812 15.296 15.594 9.703 9.797 12.188 12.64 4.734 5.313 6.609 9 1.89 3.688 1.89 7.25 0 5.813-4.078 9.469-4.078 3.672-10.625 3.672-4.64 0-9.797-1.61-5.14-1.609-11-4.89v9.969Q13.767 71.78 18.938 73q5.188 1.219 9.485 1.219 11.328 0 18.062-5.672 6.735-5.656 6.735-15.125 0-4.5-1.688-8.531-1.672-4.016-6.125-9.485-1.218-1.422-7.765-8.187-6.532-6.766-18.453-18.922z" id="DejaVuSans-50"/></defs><g transform="matrix(.1 0 0 -.1 65.717 287.91)"><use xlink:href="#DejaVuSans-48"/><use x="63.623" xlink:href="#DejaVuSans-46"/><use x="95.41" xlink:href="#DejaVuSans-50"/><use x="159.033" xlink:href="#DejaVuSans-48"/></g></g></g><g id="xtick_2"><path clip-path="url(#p68f29506d2)" d="M128.186 273.312V7.2" fill="none" stroke="#b0b0b0" stroke-linecap="square" stroke-width=".8" id="line2d_3"/><use x="128.186" xlink:href="#m8787ec0f4e" y="273.312" stroke="#000" stroke-width=".8" id="line2d_4"/><g id="text_2"><defs><path d="M10.797 72.906h38.719v-8.312H19.828v-17.86q2.14.735 4.281 1.094 2.157.36 4.313.36 12.203 0 19.328-6.688 7.14-6.688 7.14-18.11 0-11.765-7.328-18.296-7.328-6.516-20.656-6.516-4.593 0-9.36.781-4.75.782-9.827 2.344v9.922q4.39-2.39 9.078-3.563 4.687-1.171 9.906-1.171 8.453 0 13.375 4.437 4.938 4.438 4.938 12.063 0 7.609-4.938 12.047-4.922 4.453-13.375 4.453-3.953 0-7.89-.875-3.922-.875-8.016-2.735z" id="DejaVuSans-53"/></defs><g transform="matrix(.1 0 0 -.1 117.053 287.91)"><use xlink:href="#DejaVuSans-48"/><use x="63.623" xlink:href="#DejaVuSans-46"/><use x="95.41" xlink:href="#DejaVuSans-50"/><use x="159.033" xlink:href="#DejaVuSans-53"/></g></g></g><g id="xtick_3"><path clip-path="url(#p68f29506d2)" d="M179.523 273.312V7.2" fill="none" stroke="#b0b0b0" stroke-linecap="square" stroke-width=".8" id="line2d_5"/><use x="179.523" xlink:href="#m8787ec0f4e" y="273.312" stroke="#000" stroke-width=".8" id="line2d_6"/><g id="text_3"><defs><path d="M40.578 39.313Q47.656 37.797 51.625 33q3.984-4.781 3.984-11.813 0-10.78-7.422-16.703-7.421-5.906-21.093-5.906-4.578 0-9.438.906-4.86.907-10.031 2.72v9.515q4.094-2.39 8.969-3.61 4.89-1.218 10.218-1.218 9.266 0 14.125 3.656 4.86 3.656 4.86 10.64 0 6.454-4.516 10.079-4.515 3.64-12.562 3.64h-8.5v8.11h8.89q7.266 0 11.125 2.906 3.86 2.906 3.86 8.375 0 5.61-3.985 8.61-3.968 3.015-11.39 3.015-4.063 0-8.703-.89-4.641-.876-10.203-2.72v8.782q5.624 1.562 10.53 2.344 4.907.78 9.25.78 11.235 0 17.766-5.109 6.547-5.093 6.547-13.78 0-6.063-3.468-10.235-3.47-4.172-9.86-5.782z" id="DejaVuSans-51"/></defs><g transform="matrix(.1 0 0 -.1 168.39 287.91)"><use xlink:href="#DejaVuSans-48"/><use x="63.623" xlink:href="#DejaVuSans-46"/><use x="95.41" xlink:href="#DejaVuSans-51"/><use x="159.033" xlink:href="#DejaVuSans-48"/></g></g></g><g id="xtick_4"><path clip-path="url(#p68f29506d2)" d="M230.86 273.312V7.2" fill="none" stroke="#b0b0b0" stroke-linecap="square" stroke-width=".8" id="line2d_7"/><use x="230.86" xlink:href="#m8787ec0f4e" y="273.312" stroke="#000" stroke-width=".8" id="line2d_8"/><g transform="matrix(.1 0 0 -.1 219.727 287.91)" id="text_4"><use xlink:href="#DejaVuSans-48"/><use x="63.623" xlink:href="#DejaVuSans-46"/><use x="95.41" xlink:href="#DejaVuSans-51"/><use x="159.033" xlink:href="#DejaVuSans-53"/></g></g><g id="xtick_5"><path clip-path="url(#p68f29506d2)" d="M282.196 273.312V7.2" fill="none" stroke="#b0b0b0" stroke-linecap="square" stroke-width=".8" id="line2d_9"/><use x="282.196" xlink:href="#m8787ec0f4e" y="273.312" stroke="#000" stroke-width=".8" id="line2d_10"/><g id="text_5"><defs><path d="M37.797 64.313L12.89 25.39h24.906zm-2.594 8.593H47.61V25.391h10.407v-8.203H47.609V0h-9.812v17.188H4.89v9.515z" id="DejaVuSans-52"/></defs><g transform="matrix(.1 0 0 -.1 271.064 287.91)"><use xlink:href="#DejaVuSans-48"/><use x="63.623" xlink:href="#DejaVuSans-46"/><use x="95.41" xlink:href="#DejaVuSans-52"/><use x="159.033" xlink:href="#DejaVuSans-48"/></g></g></g><g id="xtick_6"><path clip-path="url(#p68f29506d2)" d="M333.533 273.312V7.2" fill="none" stroke="#b0b0b0" stroke-linecap="square" stroke-width=".8" id="line2d_11"/><use x="333.533" xlink:href="#m8787ec0f4e" y="273.312" stroke="#000" stroke-width=".8" id="line2d_12"/><g transform="matrix(.1 0 0 -.1 322.4 287.91)" id="text_6"><use xlink:href="#DejaVuSans-48"/><use x="63.623" xlink:href="#DejaVuSans-46"/><use x="95.41" xlink:href="#DejaVuSans-52"/><use x="159.033" xlink:href="#DejaVuSans-53"/></g></g><g id="xtick_7"><path clip-path="url(#p68f29506d2)" d="M384.87 273.312V7.2" fill="none" stroke="#b0b0b0" stroke-linecap="square" stroke-width=".8" id="line2d_13"/><use x="384.87" xlink:href="#m8787ec0f4e" y="273.312" stroke="#000" stroke-width=".8" id="line2d_14"/><g transform="matrix(.1 0 0 -.1 373.737 287.91)" id="text_7"><use xlink:href="#DejaVuSans-48"/><use x="63.623" xlink:href="#DejaVuSans-46"/><use x="95.41" xlink:href="#DejaVuSans-53"/><use x="159.033" xlink:href="#DejaVuSans-48"/></g></g><g id="text_8"><defs><path d="M54.89 54.688l-19.78-26.61L55.905 0H45.313L29.39 21.484 13.484 0H2.875l21.25 28.61L4.687 54.687h10.594l14.5-19.485 14.5 19.484z" id="DejaVuSans-120"/></defs><use xlink:href="#DejaVuSans-120" transform="matrix(.1 0 0 -.1 225.744 301.589)"/></g></g><g id="matplotlib.axis_2"><g id="ytick_1"><path clip-path="url(#p68f29506d2)" d="M50.144 226.945h357.12" fill="none" stroke="#b0b0b0" stroke-linecap="square" stroke-width=".8" id="line2d_15"/><g id="line2d_16"><defs><path d="M0 0h-3.5" id="m975e8d54ab" stroke="#000" stroke-width=".8"/></defs><use x="50.144" xlink:href="#m975e8d54ab" y="226.945" stroke="#000" stroke-width=".8"/></g><g transform="matrix(.1 0 0 -.1 20.878 230.744)" id="text_9"><use xlink:href="#DejaVuSans-48"/><use x="63.623" xlink:href="#DejaVuSans-46"/><use x="95.41" xlink:href="#DejaVuSans-50"/><use x="159.033" xlink:href="#DejaVuSans-53"/></g></g><g id="ytick_2"><path clip-path="url(#p68f29506d2)" d="M50.144 175.608h357.12" fill="none" stroke="#b0b0b0" stroke-linecap="square" stroke-width=".8" id="line2d_17"/><use x="50.144" xlink:href="#m975e8d54ab" y="175.608" stroke="#000" stroke-width=".8" id="line2d_18"/><g transform="matrix(.1 0 0 -.1 20.878 179.407)" id="text_10"><use xlink:href="#DejaVuSans-48"/><use x="63.623" xlink:href="#DejaVuSans-46"/><use x="95.41" xlink:href="#DejaVuSans-51"/><use x="159.033" xlink:href="#DejaVuSans-48"/></g></g><g id="ytick_3"><path clip-path="url(#p68f29506d2)" d="M50.144 124.271h357.12" fill="none" stroke="#b0b0b0" stroke-linecap="square" stroke-width=".8" id="line2d_19"/><use x="50.144" xlink:href="#m975e8d54ab" y="124.271" stroke="#000" stroke-width=".8" id="line2d_20"/><g transform="matrix(.1 0 0 -.1 20.878 128.07)" id="text_11"><use xlink:href="#DejaVuSans-48"/><use x="63.623" xlink:href="#DejaVuSans-46"/><use x="95.41" xlink:href="#DejaVuSans-51"/><use x="159.033" xlink:href="#DejaVuSans-53"/></g></g><g id="ytick_4"><path clip-path="url(#p68f29506d2)" d="M50.144 72.934h357.12" fill="none" stroke="#b0b0b0" stroke-linecap="square" stroke-width=".8" id="line2d_21"/><use x="50.144" xlink:href="#m975e8d54ab" y="72.934" stroke="#000" stroke-width=".8" id="line2d_22"/><g transform="matrix(.1 0 0 -.1 20.878 76.734)" id="text_12"><use xlink:href="#DejaVuSans-48"/><use x="63.623" xlink:href="#DejaVuSans-46"/><use x="95.41" xlink:href="#DejaVuSans-52"/><use x="159.033" xlink:href="#DejaVuSans-48"/></g></g><g id="ytick_5"><path clip-path="url(#p68f29506d2)" d="M50.144 21.598h357.12" fill="none" stroke="#b0b0b0" stroke-linecap="square" stroke-width=".8" id="line2d_23"/><use x="50.144" xlink:href="#m975e8d54ab" y="21.598" stroke="#000" stroke-width=".8" id="line2d_24"/><g transform="matrix(.1 0 0 -.1 20.878 25.397)" id="text_13"><use xlink:href="#DejaVuSans-48"/><use x="63.623" xlink:href="#DejaVuSans-46"/><use x="95.41" xlink:href="#DejaVuSans-52"/><use x="159.033" xlink:href="#DejaVuSans-53"/></g></g><g id="text_14"><defs><path d="M32.172-5.078q-3.797-9.766-7.422-12.735-3.61-2.984-9.656-2.984H7.906v7.516h5.282q3.703 0 5.75 1.765Q21-9.766 23.483-3.219l1.61 4.094-22.11 53.813H12.5l17.094-42.766 17.093 42.766h9.516z" id="DejaVuSans-121"/></defs><use xlink:href="#DejaVuSans-121" transform="matrix(0 -.1 -.1 0 14.798 143.215)"/></g></g><path clip-path="url(#p68f29506d2)" d="M175.309 168.676l-108.413 97.18" fill="none" stroke="gray" stroke-linecap="square" stroke-width="1.5" id="line2d_25"/><g id="line2d_26"><defs><path d="M0 3a3 3 0 100-6 3 3 0 000 6z" id="m3bd970324f" stroke="#000"/></defs><g clip-path="url(#p68f29506d2)"><use x="94.694" xlink:href="#m3bd970324f" y="238.15" fill="#fff" stroke="#000"/></g></g><g id="line2d_27"><defs><path d="M0 3a3 3 0 100-6 3 3 0 000 6z" id="mcdf94468b3" stroke="#a7cafa"/></defs><g clip-path="url(#p68f29506d2)"><use x="136.904" xlink:href="#mcdf94468b3" y="202.857" fill="#a7cafa" stroke="#a7cafa"/></g></g><g id="line2d_28"><defs><path d="M0 3a3 3 0 100-6 3 3 0 000 6z" id="m3a6469bd61" stroke="#40abf3"/></defs><g clip-path="url(#p68f29506d2)"><use x="82.771" xlink:href="#m3a6469bd61" y="247.964" fill="#40abf3" stroke="#40abf3"/></g></g><g id="line2d_29"><defs><path d="M0 3a3 3 0 100-6 3 3 0 000 6z" id="mac94aec3c4" stroke="#26547d"/></defs><g clip-path="url(#p68f29506d2)"><use x="87.501" xlink:href="#mac94aec3c4" y="252.246" fill="#26547d" stroke="#26547d"/></g></g><g clip-path="url(#p68f29506d2)" id="line2d_30"><use x="111.909" xlink:href="#m3bd970324f" y="224.353" fill="#fff" stroke="#000"/></g><g clip-path="url(#p68f29506d2)" id="line2d_31"><use x="66.376" xlink:href="#m3bd970324f" y="265.274" fill="#fff" stroke="#000"/></g><g id="line2d_32"><defs><path d="M0 3a3 3 0 100-6 3 3 0 000 6z" id="m16c26b881a" stroke="#6182a9"/></defs><g clip-path="url(#p68f29506d2)"><use x="123.354" xlink:href="#m16c26b881a" y="215.414" fill="#6182a9" stroke="#6182a9"/></g></g><g id="line2d_33"><defs><path d="M0 3a3 3 0 100-6 3 3 0 000 6z" id="m9103e14ea0" stroke="#3b85bd"/></defs><g clip-path="url(#p68f29506d2)"><use x="87.869" xlink:href="#m9103e14ea0" y="244.889" fill="#3b85bd" stroke="#3b85bd"/></g></g><g id="line2d_34"><defs><path d="M0 3a3 3 0 100-6 3 3 0 000 6z" id="m3e319a9add" stroke="#335377"/></defs><g clip-path="url(#p68f29506d2)"><use x="102.621" xlink:href="#m3e319a9add" y="239.87" fill="#335377" stroke="#335377"/></g></g><path clip-path="url(#p68f29506d2)" d="M175.309 168.676L133.348 84.14" fill="none" stroke="gray" stroke-linecap="square" stroke-width="1.5" id="line2d_35"/><g id="line2d_36"><defs><path d="M0 3a3 3 0 100-6 3 3 0 000 6z" id="medd67be3a2" stroke="#658684"/></defs><g clip-path="url(#p68f29506d2)"><use x="158.493" xlink:href="#medd67be3a2" y="143.889" fill="#658684" stroke="#658684"/></g></g><g id="line2d_37"><defs><path d="M0 3a3 3 0 100-6 3 3 0 000 6z" id="mb23bdfac93" stroke="#abcdd4"/></defs><g clip-path="url(#p68f29506d2)"><use x="162.625" xlink:href="#mb23bdfac93" y="154.654" fill="#abcdd4" stroke="#abcdd4"/></g></g><g id="line2d_38"><defs><path d="M0 3a3 3 0 100-6 3 3 0 000 6z" id="m02d00d9466" stroke="#3a5751"/></defs><g clip-path="url(#p68f29506d2)"><use x="154.88" xlink:href="#m02d00d9466" y="129.897" fill="#3a5751" stroke="#3a5751"/></g></g><g id="line2d_39"><defs><path d="M0 3a3 3 0 100-6 3 3 0 000 6z" id="m4f57dc6921" stroke="#56deb3"/></defs><g clip-path="url(#p68f29506d2)"><use x="137.225" xlink:href="#m4f57dc6921" y="82.325" fill="#56deb3" stroke="#56deb3"/></g></g><g id="line2d_40"><defs><path d="M0 3a3 3 0 100-6 3 3 0 000 6z" id="mbafd7565fe" stroke="#84d7c2"/></defs><g clip-path="url(#p68f29506d2)"><use x="149.735" xlink:href="#mbafd7565fe" y="116.704" fill="#84d7c2" stroke="#84d7c2"/></g></g><g id="line2d_41"><defs><path d="M0 3a3 3 0 100-6 3 3 0 000 6z" id="m07a17a6e5b" stroke="#9bd2cc"/></defs><g clip-path="url(#p68f29506d2)"><use x="156.887" xlink:href="#m07a17a6e5b" y="138.597" fill="#9bd2cc" stroke="#9bd2cc"/></g></g><g id="line2d_42"><defs><path d="M0 3a3 3 0 100-6 3 3 0 000 6z" id="ma7a37c248a" stroke="#368e71"/></defs><g clip-path="url(#p68f29506d2)"><use x="138.745" xlink:href="#ma7a37c248a" y="81.805" fill="#368e71" stroke="#368e71"/></g></g><g id="line2d_43"><defs><path d="M0 3a3 3 0 100-6 3 3 0 000 6z" id="md40b7ae86f" stroke="#548a7c"/></defs><g clip-path="url(#p68f29506d2)"><use x="150.74" xlink:href="#md40b7ae86f" y="117.482" fill="#548a7c" stroke="#548a7c"/></g></g><g id="line2d_44"><defs><path d="M0 3a3 3 0 100-6 3 3 0 000 6z" id="mf396cc201a" stroke="#2d594c"/></defs><g clip-path="url(#p68f29506d2)"><use x="146.318" xlink:href="#mf396cc201a" y="105.214" fill="#2d594c" stroke="#2d594c"/></g></g><path clip-path="url(#p68f29506d2)" d="M175.309 168.676l215.712 17.202" fill="none" stroke="gray" stroke-linecap="square" stroke-width="1.5" id="line2d_45"/><g id="line2d_46"><defs><path d="M0 3a3 3 0 100-6 3 3 0 000 6z" id="m48bd23dd06" stroke="#ff7493"/></defs><g clip-path="url(#p68f29506d2)"><use x="321.415" xlink:href="#m48bd23dd06" y="176.819" fill="#ff7493" stroke="#ff7493"/></g></g><g id="line2d_47"><defs><path d="M0 3a3 3 0 100-6 3 3 0 000 6z" id="m5806f68596" stroke="#e8839e"/></defs><g clip-path="url(#p68f29506d2)"><use x="278.421" xlink:href="#m5806f68596" y="176.385" fill="#e8839e" stroke="#e8839e"/></g></g><g id="line2d_48"><defs><path d="M0 3a3 3 0 100-6 3 3 0 000 6z" id="m6035b01747" stroke="#f1b6d1"/></defs><g clip-path="url(#p68f29506d2)"><use x="221.3" xlink:href="#m6035b01747" y="175.343" fill="#f1b6d1" stroke="#f1b6d1"/></g></g><g id="line2d_49"><defs><path d="M0 3a3 3 0 100-6 3 3 0 000 6z" id="m7445ce0a2c" stroke="#e43b65"/></defs><g clip-path="url(#p68f29506d2)"><use x="391.031" xlink:href="#m7445ce0a2c" y="185.748" fill="#e43b65" stroke="#e43b65"/></g></g><g id="line2d_50"><defs><path d="M0 3a3 3 0 100-6 3 3 0 000 6z" id="m0d623390d9" stroke="#d64d6a"/></defs><g clip-path="url(#p68f29506d2)"><use x="358.577" xlink:href="#m0d623390d9" y="178.738" fill="#d64d6a" stroke="#d64d6a"/></g></g><g id="line2d_51"><defs><path d="M0 3a3 3 0 100-6 3 3 0 000 6z" id="m2a62fcdbe0" stroke="#c15e76"/></defs><g clip-path="url(#p68f29506d2)"><use x="304.682" xlink:href="#m2a62fcdbe0" y="177.669" fill="#c15e76" stroke="#c15e76"/></g></g><g id="line2d_52"><defs><path d="M0 3a3 3 0 100-6 3 3 0 000 6z" id="m039ec6c412" stroke="#a76e82"/></defs><g clip-path="url(#p68f29506d2)"><use x="245.314" xlink:href="#m039ec6c412" y="176.957" fill="#a76e82" stroke="#a76e82"/></g></g><g id="line2d_53"><defs><path d="M0 3a3 3 0 100-6 3 3 0 000 6z" id="m868b78edeb" stroke="#8e2b42"/></defs><g clip-path="url(#p68f29506d2)"><use x="368.4" xlink:href="#m868b78edeb" y="183.102" fill="#8e2b42" stroke="#8e2b42"/></g></g><g id="line2d_54"><defs><path d="M0 3a3 3 0 100-6 3 3 0 000 6z" id="m2d3990729e" stroke="#793d4e"/></defs><g clip-path="url(#p68f29506d2)"><use x="286.085" xlink:href="#m2d3990729e" y="182.813" fill="#793d4e" stroke="#793d4e"/></g></g><path clip-path="url(#p68f29506d2)" d="M175.309 168.676L324.304 19.389" fill="none" stroke="gray" stroke-linecap="square" stroke-width="1.5" id="line2d_55"/><g id="line2d_56"><defs><path d="M0 3a3 3 0 100-6 3 3 0 000 6z" id="m422ee7c93a" stroke="#eac342"/></defs><g clip-path="url(#p68f29506d2)"><use x="319.406" xlink:href="#m422ee7c93a" y="14.656" fill="#eac342" stroke="#eac342"/></g></g><g id="line2d_57"><defs><path d="M0 3a3 3 0 100-6 3 3 0 000 6z" id="me9e8b61c81" stroke="#e3c474"/></defs><g clip-path="url(#p68f29506d2)"><use x="282.311" xlink:href="#me9e8b61c81" y="53.636" fill="#e3c474" stroke="#e3c474"/></g></g><g id="line2d_58"><defs><path d="M0 3a3 3 0 100-6 3 3 0 000 6z" id="m039f2e4363" stroke="#dcc496"/></defs><g clip-path="url(#p68f29506d2)"><use x="249.848" xlink:href="#m039f2e4363" y="90.14" fill="#dcc496" stroke="#dcc496"/></g></g><g id="line2d_59"><defs><path d="M0 3a3 3 0 100-6 3 3 0 000 6z" id="m62591d69e9" stroke="#d4c5b1"/></defs><g clip-path="url(#p68f29506d2)"><use x="220.763" xlink:href="#m62591d69e9" y="121.932" fill="#d4c5b1" stroke="#d4c5b1"/></g></g><g id="line2d_60"><defs><path d="M0 3a3 3 0 100-6 3 3 0 000 6z" id="mecf57fa652" stroke="#604d37"/></defs><g clip-path="url(#p68f29506d2)"><use x="270.876" xlink:href="#mecf57fa652" y="87.173" fill="#604d37" stroke="#604d37"/></g></g><g id="line2d_61"><defs><path d="M0 3a3 3 0 100-6 3 3 0 000 6z" id="m5dcb4f3acc" stroke="#5b4e45"/></defs><g clip-path="url(#p68f29506d2)"><use x="233.705" xlink:href="#m5dcb4f3acc" y="123.14" fill="#5b4e45" stroke="#5b4e45"/></g></g><g id="line2d_62"><defs><path d="M0 3a3 3 0 100-6 3 3 0 000 6z" id="m3a4ebf05e1" stroke="#8a7d6d"/></defs><g clip-path="url(#p68f29506d2)"><use x="228.134" xlink:href="#m3a4ebf05e1" y="115.911" fill="#8a7d6d" stroke="#8a7d6d"/></g></g><g id="line2d_63"><defs><path d="M0 3a3 3 0 100-6 3 3 0 000 6z" id="m5534de0447" stroke="#957c3b"/></defs><g clip-path="url(#p68f29506d2)"><use x="301.919" xlink:href="#m5534de0447" y="37.724" fill="#957c3b" stroke="#957c3b"/></g></g><g id="line2d_64"><defs><path d="M0 3a3 3 0 100-6 3 3 0 000 6z" id="m601511ddf7" stroke="#8e7d5f"/></defs><g clip-path="url(#p68f29506d2)"><use x="251.264" xlink:href="#m601511ddf7" y="91.792" fill="#8e7d5f" stroke="#8e7d5f"/></g></g><path d="M50.144 273.312V7.2" fill="none" stroke="#000" stroke-linecap="square" stroke-width=".8" id="patch_3"/><path d="M407.264 273.312V7.2" fill="none" stroke="#000" stroke-linecap="square" stroke-width=".8" id="patch_4"/><path d="M50.144 273.312h357.12" fill="none" stroke="#000" stroke-linecap="square" stroke-width=".8" id="patch_5"/><path d="M50.144 7.2h357.12" fill="none" stroke="#000" stroke-linecap="square" stroke-width=".8" id="patch_6"/></g></g><defs><clipPath id="p68f29506d2"><path d="M50.144 7.2h357.12v266.112H50.144z"/></clipPath></defs></svg>