<svg xmlns="http://www.w3.org/2000/svg" xmlns:xlink="http://www.w3.org/1999/xlink" width="702.935" height="466.584" viewBox="0 0 527.201 349.938"><defs><style>*{stroke-linejoin:round;stroke-linecap:butt}</style></defs><g id="figure_1"><path id="patch_1" d="M0 349.938h527.201V0H0v349.938z" style="fill:none"/><g id="axes_1"><path id="patch_2" d="M76.78 292.162H433.9V26.05H76.78v266.112z" style="fill:none"/><g id="matplotlib.axis_1"><g id="xtick_1"><g id="line2d_1"><defs><path id="m725a773f96" d="M0 0v3.5" style="stroke:#969696;stroke-width:.4"/></defs><use xlink:href="#m725a773f96" x="76.78" y="292.162" style="fill:#969696;stroke:#969696;stroke-width:.4"/></g><g id="text_1" style="fill:#969696" transform="matrix(.14 0 0 -.14 68.15 309.102)"><defs><path id="MyriadPro-Regular-30" d="M1677 4230c-845 0-1447-768-1447-2163C243 691 794-70 1606-70c922 0 1447 780 1447 2195 0 1325-499 2105-1376 2105zm-32-435c582 0 845-672 845-1696 0-1062-276-1734-852-1734-512 0-844 614-844 1696 0 1133 358 1734 851 1734z" transform="scale(.01563)"/><path id="MyriadPro-Regular-2e" d="M710-70c237 0 384 172 384 403 0 237-153 403-377 403S333 570 333 333c0-231 153-403 371-403h6z" transform="scale(.01563)"/></defs><use xlink:href="#MyriadPro-Regular-30"/><use xlink:href="#MyriadPro-Regular-2e" x="51.3"/><use xlink:href="#MyriadPro-Regular-30" x="72"/></g></g><g id="xtick_2"><use xlink:href="#m725a773f96" id="line2d_2" x="148.204" y="292.162" style="fill:#969696;stroke:#969696;stroke-width:.4"/><g id="text_2" style="fill:#969696" transform="matrix(.14 0 0 -.14 139.573 309.102)"><defs><path id="MyriadPro-Regular-32" d="M2944 0v467H1075v13l333 307c877 845 1434 1466 1434 2234 0 595-378 1209-1274 1209-480 0-890-179-1178-422l180-397c192 160 505 352 883 352 621 0 825-390 825-813-6-627-486-1164-1548-2176L288 346V0h2656z" transform="scale(.01563)"/></defs><use xlink:href="#MyriadPro-Regular-30"/><use xlink:href="#MyriadPro-Regular-2e" x="51.3"/><use xlink:href="#MyriadPro-Regular-32" x="72"/></g></g><g id="xtick_3"><use xlink:href="#m725a773f96" id="line2d_3" x="219.628" y="292.162" style="fill:#969696;stroke:#969696;stroke-width:.4"/><g id="text_3" style="fill:#969696" transform="matrix(.14 0 0 -.14 210.997 309.102)"><defs><path id="MyriadPro-Regular-34" d="M2560 0v1133h582v441h-582v2586h-608L96 1504v-371h1933V0h531zM666 1574v13l1017 1415c115 192 218 371 346 614h19c-13-218-19-435-19-653V1574H666z" transform="scale(.01563)"/></defs><use xlink:href="#MyriadPro-Regular-30"/><use xlink:href="#MyriadPro-Regular-2e" x="51.3"/><use xlink:href="#MyriadPro-Regular-34" x="72"/></g></g><g id="xtick_4"><use xlink:href="#m725a773f96" id="line2d_4" x="291.052" y="292.162" style="fill:#969696;stroke:#969696;stroke-width:.4"/><g id="text_4" style="fill:#969696" transform="matrix(.14 0 0 -.14 282.421 309.102)"><defs><path id="MyriadPro-Regular-36" d="M2662 4224c-102 0-243-6-409-32-525-64-986-275-1331-614-410-410-704-1056-704-1876C218 621 800-70 1690-70c864 0 1382 704 1382 1465 0 813-518 1344-1254 1344-461 0-807-217-1005-480h-19c96 685 563 1331 1446 1479 160 25 307 32 422 25v461zM1690 365c-589 0-903 505-916 1190 0 103 26 186 64 250 154 301 468 512 807 512 518 0 857-359 857-954s-326-998-806-998h-6z" transform="scale(.01563)"/></defs><use xlink:href="#MyriadPro-Regular-30"/><use xlink:href="#MyriadPro-Regular-2e" x="51.3"/><use xlink:href="#MyriadPro-Regular-36" x="72"/></g></g><g id="xtick_5"><use xlink:href="#m725a773f96" id="line2d_5" x="362.476" y="292.162" style="fill:#969696;stroke:#969696;stroke-width:.4"/><g id="text_5" style="fill:#969696" transform="matrix(.14 0 0 -.14 353.845 309.102)"><defs><path id="MyriadPro-Regular-38" d="M1062 2170c-512-218-825-589-825-1114C237 448 762-70 1632-70c794 0 1414 486 1414 1209 0 506-320 871-838 1075v20c512 243 685 620 685 972 0 519-403 1024-1210 1024-729 0-1286-448-1286-1107 0-358 198-717 659-934l6-19zm583-1831c-531 0-851 371-832 794 0 397 262 717 749 857 563-160 915-403 915-908 0-423-327-743-832-743zm6 3488c506 0 704-345 704-678 0-378-275-634-633-755-480 128-794 352-794 768 0 358 256 665 723 665z" transform="scale(.01563)"/></defs><use xlink:href="#MyriadPro-Regular-30"/><use xlink:href="#MyriadPro-Regular-2e" x="51.3"/><use xlink:href="#MyriadPro-Regular-38" x="72"/></g></g><g id="xtick_6"><use xlink:href="#m725a773f96" id="line2d_6" x="433.9" y="292.162" style="fill:#969696;stroke:#969696;stroke-width:.4"/><g id="text_6" style="fill:#969696" transform="matrix(.14 0 0 -.14 425.27 309.102)"><defs><path id="MyriadPro-Regular-31" d="M1510 0h544v4160h-480l-908-486 108-429 724 390h12V0z" transform="scale(.01563)"/></defs><use xlink:href="#MyriadPro-Regular-31"/><use xlink:href="#MyriadPro-Regular-2e" x="51.3"/><use xlink:href="#MyriadPro-Regular-30" x="72"/></g></g><g id="text_7" style="fill:#969696" transform="matrix(.14 0 0 -.14 181.342 339.967)"><defs><path id="MyriadPro-Regular-4e" d="M1011 0v1843c0 717-13 1235-45 1779l20 7c217-467 505-960 806-1440L3162 0h563v4314h-525V2509c0-672 13-1197 64-1773l-13-6c-205 441-454 896-774 1401L1094 4314H486V0h525z" transform="scale(.01563)"/><path id="MyriadPro-Regular-75" d="M3059 3098h-563V1197c0-103-19-205-51-288-103-250-365-512-743-512-512 0-691 397-691 985v1716H448V1286C448 198 1030-70 1517-70c550 0 877 326 1024 576h13l32-506h499c-19 243-26 525-26 845v2253z" transform="scale(.01563)"/><path id="MyriadPro-Regular-6d" d="M467 0h551v1869c0 96 12 192 44 275 90 282 346 563 698 563 429 0 646-358 646-851V0h551v1914c0 102 19 204 45 281 96 275 345 512 665 512 455 0 672-358 672-953V0h551v1824c0 1075-608 1344-1018 1344-294 0-499-77-685-218-128-96-249-230-345-403h-13c-135 365-455 621-877 621-512 0-800-275-973-570h-19l-26 500H442c19-256 25-519 25-839V0z" transform="scale(.01563)"/><path id="MyriadPro-Regular-62" d="M467 800c0-275-13-589-25-800h486l26 512h19c230-410 589-582 1037-582 691 0 1388 550 1388 1657 7 941-537 1581-1305 1581-499 0-858-224-1056-570h-13v1946H467V800zm557 998c0 90 19 167 32 231 115 429 474 691 858 691 601 0 921-531 921-1152 0-710-352-1190-941-1190-409 0-736 268-844 659-13 64-26 134-26 205v556z" transform="scale(.01563)"/><path id="MyriadPro-Regular-65" d="M2957 1446c6 58 19 148 19 263 0 569-269 1459-1280 1459-902 0-1453-736-1453-1670C243 563 813-70 1766-70c493 0 832 108 1031 198l-96 403c-211-89-455-160-858-160-563 0-1049 314-1062 1075h2176zM787 1850c45 390 295 915 864 915 634 0 787-557 781-915H787z" transform="scale(.01563)"/><path id="MyriadPro-Regular-72" d="M467 0h557v1651c0 96 13 186 26 263 76 422 358 723 755 723 77 0 134-7 192-19v531c-51 13-96 19-160 19-378 0-717-262-858-678h-25l-20 608H442c19-288 25-602 25-967V0z" transform="scale(.01563)"/><path id="MyriadPro-Regular-6f" d="M1779 3168c-857 0-1536-608-1536-1645C243 544 890-70 1728-70c749 0 1542 499 1542 1644 0 948-601 1594-1491 1594zm-13-422c666 0 928-666 928-1191 0-697-403-1203-940-1203-551 0-941 512-941 1190 0 589 288 1204 953 1204z" transform="scale(.01563)"/><path id="MyriadPro-Regular-66" d="M1082 0v2669h748v429h-748v166c0 474 121 896 601 896 160 0 275-32 359-70l76 435c-108 45-281 89-480 89-262 0-544-83-755-288-262-249-358-646-358-1081v-147H90v-429h435V0h557z" transform="scale(.01563)"/><path id="MyriadPro-Regular-69" d="M1030 0v3098H467V0h563zM749 4320c-205 0-352-154-352-352 0-192 141-346 339-346 224 0 365 154 358 346 0 198-134 352-345 352z" transform="scale(.01563)"/><path id="MyriadPro-Regular-6e" d="M467 0h563v1862c0 96 13 192 39 263 96 313 384 576 755 576 531 0 717-416 717-915V0h563v1850c0 1062-666 1318-1094 1318-512 0-871-288-1024-582h-13l-32 512H442c19-256 25-519 25-839V0z" transform="scale(.01563)"/><path id="MyriadPro-Regular-70" d="M467-1267h557V416h13c185-307 544-486 953-486 730 0 1408 550 1408 1664 0 940-563 1574-1312 1574-505 0-870-224-1100-602h-13l-26 532H442c12-295 25-615 25-1012v-3353zm557 3059c0 77 19 160 38 230 109 423 468 698 852 698 595 0 921-531 921-1152 0-710-345-1197-941-1197-403 0-742 269-844 659-13 71-26 148-26 231v531z" transform="scale(.01563)"/><path id="MyriadPro-Regular-74" d="M595 3667v-569H115v-429h480V979c0-365 58-640 218-806C947 19 1158-70 1421-70c217 0 390 38 499 83l-26 422c-83-25-172-38-326-38-314 0-422 217-422 601v1671h806v429h-806v742l-551-173z" transform="scale(.01563)"/><path id="MyriadPro-Regular-73" d="M250 147C467 19 781-70 1120-70c736 0 1158 390 1158 934 0 461-275 730-812 934-404 154-589 269-589 525 0 231 185 423 518 423 288 0 512-103 634-180l141 410c-173 102-448 192-762 192-666 0-1069-410-1069-909 0-371 263-678 819-877 416-153 576-300 576-569 0-256-192-461-601-461-282 0-576 115-743 224L250 147z" transform="scale(.01563)"/><path id="MyriadPro-Regular-61" d="M2643 1901c0 621-230 1267-1177 1267-391 0-762-109-1018-275l128-371c218 140 518 230 806 230 634 0 704-461 704-717v-64C890 1978 224 1568 224 819c0-448 320-889 947-889 442 0 775 217 947 460h20l44-390h512c-38 211-51 474-51 742v1159zm-544-858c0-57-13-121-32-179-89-262-345-518-749-518-288 0-531 172-531 537 0 602 698 711 1312 698v-538z" transform="scale(.01563)"/><path id="MyriadPro-Regular-6c" d="M467 0h563v4544H467V0z" transform="scale(.01563)"/></defs><use xlink:href="#MyriadPro-Regular-4e"/><use xlink:href="#MyriadPro-Regular-75" x="65.8"/><use xlink:href="#MyriadPro-Regular-6d" x="120.9"/><use xlink:href="#MyriadPro-Regular-62" x="204.3"/><use xlink:href="#MyriadPro-Regular-65" x="261.2"/><use xlink:href="#MyriadPro-Regular-72" x="311.3"/><use xlink:href="#MyriadPro-Regular-20" x="344"/><use xlink:href="#MyriadPro-Regular-6f" x="365.2"/><use xlink:href="#MyriadPro-Regular-66" x="420.1"/><use xlink:href="#MyriadPro-Regular-20" x="449.3"/><use xlink:href="#MyriadPro-Regular-69" x="470.5"/><use xlink:href="#MyriadPro-Regular-6e" x="493.9"/><use xlink:href="#MyriadPro-Regular-70" x="549.4"/><use xlink:href="#MyriadPro-Regular-75" x="606.3"/><use xlink:href="#MyriadPro-Regular-74" x="661.4"/><use xlink:href="#MyriadPro-Regular-20" x="694.5"/><use xlink:href="#MyriadPro-Regular-73" x="715.7"/><use xlink:href="#MyriadPro-Regular-61" x="755.3"/><use xlink:href="#MyriadPro-Regular-6d" x="803.5"/><use xlink:href="#MyriadPro-Regular-70" x="886.9"/><use xlink:href="#MyriadPro-Regular-6c" x="943.8"/><use xlink:href="#MyriadPro-Regular-65" x="967.4"/><use xlink:href="#MyriadPro-Regular-73" x="1017.5"/></g><g id="text_8" style="fill:#969696" transform="matrix(.14 0 0 -.14 412.524 324.814)"><use xlink:href="#MyriadPro-Regular-31"/><use xlink:href="#MyriadPro-Regular-65" x="51.3"/><use xlink:href="#MyriadPro-Regular-36" x="101.4"/></g></g><g id="matplotlib.axis_2"><g id="ytick_1"><path id="line2d_7" d="M76.78 251.318H433.9" clip-path="url(#p3950007646)" style="fill:none;stroke:#969696;stroke-width:.3;stroke-linecap:square"/><g id="line2d_8"><defs><path id="m43d60e20c9" d="M0 0h-3.5" style="stroke:#969696;stroke-width:.3"/></defs><use xlink:href="#m43d60e20c9" x="76.78" y="251.318" style="fill:#969696;stroke:#969696;stroke-width:.3"/></g><g id="text_9" style="fill:#969696" transform="matrix(.14 0 0 -.14 52.518 256.288)"><use xlink:href="#MyriadPro-Regular-30"/><use xlink:href="#MyriadPro-Regular-2e" x="51.3"/><use xlink:href="#MyriadPro-Regular-31" x="72"/></g></g><g id="ytick_2"><path id="line2d_9" d="M76.78 210.359H433.9" clip-path="url(#p3950007646)" style="fill:none;stroke:#969696;stroke-width:.3;stroke-linecap:square"/><use xlink:href="#m43d60e20c9" id="line2d_10" x="76.78" y="210.359" style="fill:#969696;stroke:#969696;stroke-width:.3"/><g id="text_10" style="fill:#969696" transform="matrix(.14 0 0 -.14 52.518 215.329)"><use xlink:href="#MyriadPro-Regular-30"/><use xlink:href="#MyriadPro-Regular-2e" x="51.3"/><use xlink:href="#MyriadPro-Regular-32" x="72"/></g></g><g id="ytick_3"><path id="line2d_11" d="M76.78 169.4H433.9" clip-path="url(#p3950007646)" style="fill:none;stroke:#969696;stroke-width:.3;stroke-linecap:square"/><use xlink:href="#m43d60e20c9" id="line2d_12" x="76.78" y="169.4" style="fill:#969696;stroke:#969696;stroke-width:.3"/><g id="text_11" style="fill:#969696" transform="matrix(.14 0 0 -.14 52.518 174.37)"><defs><path id="MyriadPro-Regular-33" d="M269 211C474 77 883-70 1350-70c999 0 1517 582 1517 1248 0 582-416 966-928 1068v13c512 186 768 551 768 979 0 506-371 992-1190 992-448 0-871-160-1088-320l147-409c179 128 499 275 832 275 518 0 730-294 730-627 0-493-519-704-928-704H896v-423h314c544 0 1068-249 1075-832 6-345-218-806-941-806-390 0-762 160-922 262L269 211z" transform="scale(.01563)"/></defs><use xlink:href="#MyriadPro-Regular-30"/><use xlink:href="#MyriadPro-Regular-2e" x="51.3"/><use xlink:href="#MyriadPro-Regular-33" x="72"/></g></g><g id="ytick_4"><path id="line2d_13" d="M76.78 128.44H433.9" clip-path="url(#p3950007646)" style="fill:none;stroke:#969696;stroke-width:.3;stroke-linecap:square"/><use xlink:href="#m43d60e20c9" id="line2d_14" x="76.78" y="128.441" style="fill:#969696;stroke:#969696;stroke-width:.3"/><g id="text_12" style="fill:#969696" transform="matrix(.14 0 0 -.14 52.518 133.41)"><use xlink:href="#MyriadPro-Regular-30"/><use xlink:href="#MyriadPro-Regular-2e" x="51.3"/><use xlink:href="#MyriadPro-Regular-34" x="72"/></g></g><g id="ytick_5"><path id="line2d_15" d="M76.78 87.482H433.9" clip-path="url(#p3950007646)" style="fill:none;stroke:#969696;stroke-width:.3;stroke-linecap:square"/><use xlink:href="#m43d60e20c9" id="line2d_16" x="76.78" y="87.482" style="fill:#969696;stroke:#969696;stroke-width:.3"/><g id="text_13" style="fill:#969696" transform="matrix(.14 0 0 -.14 52.518 92.452)"><defs><path id="MyriadPro-Regular-35" d="M2771 4160H781L512 2163c154 19 339 45 576 45 832 0 1190-384 1197-922 0-556-455-902-986-902-377 0-717 128-889 230L269 186C467 58 851-70 1306-70c902 0 1548 608 1548 1420 0 525-268 884-595 1069-256 154-576 224-896 224-153 0-243-13-339-25l160 1068h1587v474z" transform="scale(.01563)"/></defs><use xlink:href="#MyriadPro-Regular-30"/><use xlink:href="#MyriadPro-Regular-2e" x="51.3"/><use xlink:href="#MyriadPro-Regular-35" x="72"/></g></g><g id="ytick_6"><path id="line2d_17" d="M76.78 46.523H433.9" clip-path="url(#p3950007646)" style="fill:none;stroke:#969696;stroke-width:.3;stroke-linecap:square"/><use xlink:href="#m43d60e20c9" id="line2d_18" x="76.78" y="46.523" style="fill:#969696;stroke:#969696;stroke-width:.3"/><g id="text_14" style="fill:#969696" transform="matrix(.14 0 0 -.14 52.518 51.493)"><use xlink:href="#MyriadPro-Regular-30"/><use xlink:href="#MyriadPro-Regular-2e" x="51.3"/><use xlink:href="#MyriadPro-Regular-36" x="72"/></g></g><g id="text_15" style="fill:#969696" transform="matrix(.14 0 0 -.14 7.2 17.14)"><defs><path id="MyriadPro-Regular-52" d="M486 0h557v1869h525c506-19 736-243 864-839 122-537 218-902 288-1030h576c-90 166-192 582-333 1184-102 448-301 755-633 870v20c454 153 812 531 812 1100 0 333-121 628-339 820-269 243-653 352-1248 352-384 0-787-32-1069-90V0zm557 3866c90 25 282 51 551 51 588-7 992-250 992-807 0-492-378-819-973-819h-570v1575z" transform="scale(.01563)"/><path id="MyriadPro-Regular-5b" d="M1696-717v352H960v4403h736v352H525V-717h1171z" transform="scale(.01563)"/><path id="MyriadPro-Regular-5d" d="M122 4390v-352h736V-365H122v-352h1171v5107H122z" transform="scale(.01563)"/></defs><use xlink:href="#MyriadPro-Regular-52"/><use xlink:href="#MyriadPro-Regular-75" x="53.8"/><use xlink:href="#MyriadPro-Regular-6e" x="108.9"/><use xlink:href="#MyriadPro-Regular-74" x="164.4"/><use xlink:href="#MyriadPro-Regular-69" x="197.5"/><use xlink:href="#MyriadPro-Regular-6d" x="220.9"/><use xlink:href="#MyriadPro-Regular-65" x="304.3"/><use xlink:href="#MyriadPro-Regular-20" x="354.4"/><use xlink:href="#MyriadPro-Regular-5b" x="375.6"/><use xlink:href="#MyriadPro-Regular-73" x="404"/><use xlink:href="#MyriadPro-Regular-5d" x="443.6"/></g></g><path id="line2d_19" d="m76.78 292.119 35.712-23.434 35.712-27.376 35.712-27.585 35.712-26.108 35.712-26.451 35.712-25.01 35.712-27.21 35.712-25.152 35.712-31.244L433.9 26.05" clip-path="url(#p3950007646)" style="fill:none;stroke:#1f77b4;stroke-width:1.5;stroke-linecap:square"/><path id="line2d_20" d="m76.78 292.162 35.712-22.043 35.712-25.561 35.712-26.272 35.712-25.156 35.712-23.947 35.712-26.776 35.712-26.637 35.712-22.187 35.712-28.906 35.712-24.98" clip-path="url(#p3950007646)" style="fill:none;stroke:#ff7f0e;stroke-width:1.5;stroke-linecap:square"/><g id="text_16" style="fill:#1f77b4" transform="matrix(.14 0 0 -.14 444.614 29.458)"><defs><path id="MyriadPro-Regular-77" d="M115 3098 1050 0h512l499 1472c109 333 205 653 281 1024h13c77-365 167-672 275-1018L3104 0h512l998 3098h-556l-442-1556c-102-364-186-691-237-1004h-19c-70 313-160 640-275 1011l-480 1549h-474l-505-1575c-103-339-205-672-276-985h-19c-57 320-141 640-230 985L691 3098H115z" transform="scale(.01563)"/><path id="MyriadPro-Regular-68" d="M467 0h563v1869c0 109 7 192 39 269 102 307 390 563 755 563 531 0 717-423 717-922V0h563v1843c0 1069-666 1325-1082 1325-211 0-409-64-576-160-172-96-313-237-403-397h-13v1933H467V0z" transform="scale(.01563)"/><path id="MyriadPro-Regular-78" d="m102 3098 1050-1517L51 0h621l448 698c115 185 224 345 326 537h13c109-185 211-358 333-537L2246 0h640L1798 1600l1056 1498h-608l-435-660c-102-166-205-326-307-512h-19c-103 173-199 333-314 506l-441 666H102z" transform="scale(.01563)"/></defs><use xlink:href="#MyriadPro-Regular-77"/><use xlink:href="#MyriadPro-Regular-69" x="73.6"/><use xlink:href="#MyriadPro-Regular-74" x="97"/><use xlink:href="#MyriadPro-Regular-68" x="130.1"/><use xlink:href="#MyriadPro-Regular-6f" x="185.6"/><use xlink:href="#MyriadPro-Regular-75" x="240.5"/><use xlink:href="#MyriadPro-Regular-74" x="295.6"/><use xlink:href="#MyriadPro-Regular-20" x="328.7"/><use xlink:href="#MyriadPro-Regular-66" x="349.9"/><use xlink:href="#MyriadPro-Regular-69" x="379.1"/><use xlink:href="#MyriadPro-Regular-78" x="402.5"/><use xlink:href="#MyriadPro-Regular-65" x="448.8"/><use xlink:href="#MyriadPro-Regular-73" x="498.9"/></g><g id="text_17" style="fill:#ff7f0e" transform="matrix(.14 0 0 -.14 444.614 43.458)"><use xlink:href="#MyriadPro-Regular-77"/><use xlink:href="#MyriadPro-Regular-69" x="73.6"/><use xlink:href="#MyriadPro-Regular-74" x="97"/><use xlink:href="#MyriadPro-Regular-68" x="130.1"/><use xlink:href="#MyriadPro-Regular-20" x="185.6"/><use xlink:href="#MyriadPro-Regular-66" x="206.8"/><use xlink:href="#MyriadPro-Regular-69" x="236"/><use xlink:href="#MyriadPro-Regular-78" x="259.4"/><use xlink:href="#MyriadPro-Regular-65" x="305.7"/><use xlink:href="#MyriadPro-Regular-73" x="355.8"/></g></g></g><defs><clipPath id="p3950007646"><path d="M76.78 26.05H433.9v266.112H76.78z"/></clipPath></defs></svg>