<svg xmlns="http://www.w3.org/2000/svg" xmlns:xlink="http://www.w3.org/1999/xlink" width="527.709" height="441.454" viewBox="0 0 395.782 331.09"><defs><style>*{stroke-linejoin:round;stroke-linecap:butt}</style></defs><g id="figure_1"><path id="patch_1" d="M0 331.09h395.782V0H0v331.09z" style="fill:none"/><g id="axes_1"><path id="patch_2" d="M31.462 273.312h357.12V7.2H31.462v266.112z" style="fill:none"/><g id="matplotlib.axis_1"><g id="xtick_1"><g id="line2d_1"><defs><path id="mde1fc08108" d="M0 0v3.5" style="stroke:#969696;stroke-width:.4"/></defs><use xlink:href="#mde1fc08108" x="61.855" y="273.312" style="fill:#969696;stroke:#969696;stroke-width:.4"/></g><g id="text_1" style="fill:#969696" transform="matrix(.14 0 0 -.14 51.082 290.252)"><defs><path id="MyriadPro-Regular-34" d="M2560 0v1133h582v441h-582v2586h-608L96 1504v-371h1933V0h531zM666 1574v13l1017 1415c115 192 218 371 346 614h19c-13-218-19-435-19-653V1574H666z" transform="scale(.01563)"/><path id="MyriadPro-Regular-30" d="M1677 4230c-845 0-1447-768-1447-2163C243 691 794-70 1606-70c922 0 1447 780 1447 2195 0 1325-499 2105-1376 2105zm-32-435c582 0 845-672 845-1696 0-1062-276-1734-852-1734-512 0-844 614-844 1696 0 1133 358 1734 851 1734z" transform="scale(.01563)"/></defs><use xlink:href="#MyriadPro-Regular-34"/><use xlink:href="#MyriadPro-Regular-30" x="51.3"/><use xlink:href="#MyriadPro-Regular-30" x="102.6"/></g></g><g id="xtick_2"><use xlink:href="#mde1fc08108" id="line2d_2" x="137.838" y="273.312" style="fill:#969696;stroke:#969696;stroke-width:.4"/><g id="text_2" style="fill:#969696" transform="matrix(.14 0 0 -.14 127.065 290.252)"><defs><path id="MyriadPro-Regular-35" d="M2771 4160H781L512 2163c154 19 339 45 576 45 832 0 1190-384 1197-922 0-556-455-902-986-902-377 0-717 128-889 230L269 186C467 58 851-70 1306-70c902 0 1548 608 1548 1420 0 525-268 884-595 1069-256 154-576 224-896 224-153 0-243-13-339-25l160 1068h1587v474z" transform="scale(.01563)"/></defs><use xlink:href="#MyriadPro-Regular-35"/><use xlink:href="#MyriadPro-Regular-30" x="51.3"/><use xlink:href="#MyriadPro-Regular-30" x="102.6"/></g></g><g id="xtick_3"><use xlink:href="#mde1fc08108" id="line2d_3" x="213.821" y="273.312" style="fill:#969696;stroke:#969696;stroke-width:.4"/><g id="text_3" style="fill:#969696" transform="matrix(.14 0 0 -.14 203.048 290.252)"><defs><path id="MyriadPro-Regular-36" d="M2662 4224c-102 0-243-6-409-32-525-64-986-275-1331-614-410-410-704-1056-704-1876C218 621 800-70 1690-70c864 0 1382 704 1382 1465 0 813-518 1344-1254 1344-461 0-807-217-1005-480h-19c96 685 563 1331 1446 1479 160 25 307 32 422 25v461zM1690 365c-589 0-903 505-916 1190 0 103 26 186 64 250 154 301 468 512 807 512 518 0 857-359 857-954s-326-998-806-998h-6z" transform="scale(.01563)"/></defs><use xlink:href="#MyriadPro-Regular-36"/><use xlink:href="#MyriadPro-Regular-30" x="51.3"/><use xlink:href="#MyriadPro-Regular-30" x="102.6"/></g></g><g id="xtick_4"><use xlink:href="#mde1fc08108" id="line2d_4" x="289.804" y="273.312" style="fill:#969696;stroke:#969696;stroke-width:.4"/><g id="text_4" style="fill:#969696" transform="matrix(.14 0 0 -.14 279.031 290.252)"><defs><path id="MyriadPro-Regular-37" d="M365 4160v-467h2035v-13L595 0h583l1811 3789v371H365z" transform="scale(.01563)"/></defs><use xlink:href="#MyriadPro-Regular-37"/><use xlink:href="#MyriadPro-Regular-30" x="51.3"/><use xlink:href="#MyriadPro-Regular-30" x="102.6"/></g></g><g id="xtick_5"><use xlink:href="#mde1fc08108" id="line2d_5" x="365.787" y="273.312" style="fill:#969696;stroke:#969696;stroke-width:.4"/><g id="text_5" style="fill:#969696" transform="matrix(.14 0 0 -.14 355.014 290.252)"><defs><path id="MyriadPro-Regular-38" d="M1062 2170c-512-218-825-589-825-1114C237 448 762-70 1632-70c794 0 1414 486 1414 1209 0 506-320 871-838 1075v20c512 243 685 620 685 972 0 519-403 1024-1210 1024-729 0-1286-448-1286-1107 0-358 198-717 659-934l6-19zm583-1831c-531 0-851 371-832 794 0 397 262 717 749 857 563-160 915-403 915-908 0-423-327-743-832-743zm6 3488c506 0 704-345 704-678 0-378-275-634-633-755-480 128-794 352-794 768 0 358 256 665 723 665z" transform="scale(.01563)"/></defs><use xlink:href="#MyriadPro-Regular-38"/><use xlink:href="#MyriadPro-Regular-30" x="51.3"/><use xlink:href="#MyriadPro-Regular-30" x="102.6"/></g></g><g id="text_6" style="fill:#969696" transform="matrix(.14 0 0 -.14 160.28 320.964)"><defs><path id="MyriadPro-Regular-77" d="M115 3098 1050 0h512l499 1472c109 333 205 653 281 1024h13c77-365 167-672 275-1018L3104 0h512l998 3098h-556l-442-1556c-102-364-186-691-237-1004h-19c-70 313-160 640-275 1011l-480 1549h-474l-505-1575c-103-339-205-672-276-985h-19c-57 320-141 640-230 985L691 3098H115z" transform="scale(.01563)"/><path id="MyriadPro-Regular-61" d="M2643 1901c0 621-230 1267-1177 1267-391 0-762-109-1018-275l128-371c218 140 518 230 806 230 634 0 704-461 704-717v-64C890 1978 224 1568 224 819c0-448 320-889 947-889 442 0 775 217 947 460h20l44-390h512c-38 211-51 474-51 742v1159zm-544-858c0-57-13-121-32-179-89-262-345-518-749-518-288 0-531 172-531 537 0 602 698 711 1312 698v-538z" transform="scale(.01563)"/><path id="MyriadPro-Regular-76" d="M83 3098 1261 0h537l1216 3098h-588l-602-1741c-102-282-192-538-262-794h-20c-64 256-147 512-249 794L685 3098H83z" transform="scale(.01563)"/><path id="MyriadPro-Regular-65" d="M2957 1446c6 58 19 148 19 263 0 569-269 1459-1280 1459-902 0-1453-736-1453-1670C243 563 813-70 1766-70c493 0 832 108 1031 198l-96 403c-211-89-455-160-858-160-563 0-1049 314-1062 1075h2176zM787 1850c45 390 295 915 864 915 634 0 787-557 781-915H787z" transform="scale(.01563)"/><path id="MyriadPro-Regular-6c" d="M467 0h563v4544H467V0z" transform="scale(.01563)"/><path id="MyriadPro-Regular-6e" d="M467 0h563v1862c0 96 13 192 39 263 96 313 384 576 755 576 531 0 717-416 717-915V0h563v1850c0 1062-666 1318-1094 1318-512 0-871-288-1024-582h-13l-32 512H442c19-256 25-519 25-839V0z" transform="scale(.01563)"/><path id="MyriadPro-Regular-67" d="M3110 2246c0 378 13 628 26 852h-493l-25-468h-13c-135 256-429 538-967 538-710 0-1395-595-1395-1645C243 666 794 13 1562 13c480 0 812 230 985 518h13V186c0-781-422-1082-998-1082-384 0-704 115-909 243l-141-429c250-166 659-256 1030-256 391 0 826 90 1127 372 301 268 441 704 441 1414v1798zm-556-928c0-96-13-204-45-300-122-359-435-576-781-576-608 0-915 505-915 1113 0 717 384 1171 921 1171 410 0 685-268 788-595 25-77 32-160 32-256v-557z" transform="scale(.01563)"/><path id="MyriadPro-Regular-74" d="M595 3667v-569H115v-429h480V979c0-365 58-640 218-806C947 19 1158-70 1421-70c217 0 390 38 499 83l-26 422c-83-25-172-38-326-38-314 0-422 217-422 601v1671h806v429h-806v742l-551-173z" transform="scale(.01563)"/><path id="MyriadPro-Regular-68" d="M467 0h563v1869c0 109 7 192 39 269 102 307 390 563 755 563 531 0 717-423 717-922V0h563v1843c0 1069-666 1325-1082 1325-211 0-409-64-576-160-172-96-313-237-403-397h-13v1933H467V0z" transform="scale(.01563)"/><path id="MyriadPro-Regular-5b" d="M1696-717v352H960v4403h736v352H525V-717h1171z" transform="scale(.01563)"/><path id="MyriadPro-Regular-6d" d="M467 0h551v1869c0 96 12 192 44 275 90 282 346 563 698 563 429 0 646-358 646-851V0h551v1914c0 102 19 204 45 281 96 275 345 512 665 512 455 0 672-358 672-953V0h551v1824c0 1075-608 1344-1018 1344-294 0-499-77-685-218-128-96-249-230-345-403h-13c-135 365-455 621-877 621-512 0-800-275-973-570h-19l-26 500H442c19-256 25-519 25-839V0z" transform="scale(.01563)"/><path id="MyriadPro-Regular-5d" d="M122 4390v-352h736V-365H122v-352h1171v5107H122z" transform="scale(.01563)"/></defs><use xlink:href="#MyriadPro-Regular-77"/><use xlink:href="#MyriadPro-Regular-61" x="73.6"/><use xlink:href="#MyriadPro-Regular-76" x="121.8"/><use xlink:href="#MyriadPro-Regular-65" x="169.9"/><use xlink:href="#MyriadPro-Regular-6c" x="220"/><use xlink:href="#MyriadPro-Regular-65" x="243.6"/><use xlink:href="#MyriadPro-Regular-6e" x="293.7"/><use xlink:href="#MyriadPro-Regular-67" x="349.2"/><use xlink:href="#MyriadPro-Regular-74" x="405.1"/><use xlink:href="#MyriadPro-Regular-68" x="438.2"/><use xlink:href="#MyriadPro-Regular-20" x="493.7"/><use xlink:href="#MyriadPro-Regular-5b" x="514.9"/><use xlink:href="#MyriadPro-Regular-6e" x="543.3"/><use xlink:href="#MyriadPro-Regular-6d" x="598.8"/><use xlink:href="#MyriadPro-Regular-5d" x="682.2"/></g></g><g id="matplotlib.axis_2"><g id="ytick_1"><path id="line2d_6" d="M31.462 273.312h357.12" clip-path="url(#p27586d5adf)" style="fill:none;stroke:#969696;stroke-width:.3;stroke-linecap:square"/><g id="line2d_7"><defs><path id="m4b7124d2cb" d="M0 0h-3.5" style="stroke:#969696;stroke-width:.3"/></defs><use xlink:href="#m4b7124d2cb" x="31.462" y="273.312" style="fill:#969696;stroke:#969696;stroke-width:.3"/></g><g id="text_7" style="fill:#969696" transform="matrix(.14 0 0 -.14 7.2 278.282)"><defs><path id="MyriadPro-Regular-2e" d="M710-70c237 0 384 172 384 403 0 237-153 403-377 403S333 570 333 333c0-231 153-403 371-403h6z" transform="scale(.01563)"/></defs><use xlink:href="#MyriadPro-Regular-30"/><use xlink:href="#MyriadPro-Regular-2e" x="51.3"/><use xlink:href="#MyriadPro-Regular-30" x="72"/></g></g><g id="ytick_2"><path id="line2d_8" d="M31.462 243.462h357.12" clip-path="url(#p27586d5adf)" style="fill:none;stroke:#969696;stroke-width:.3;stroke-linecap:square"/><use xlink:href="#m4b7124d2cb" id="line2d_9" x="31.462" y="243.462" style="fill:#969696;stroke:#969696;stroke-width:.3"/><g id="text_8" style="fill:#969696" transform="matrix(.14 0 0 -.14 7.2 248.432)"><defs><path id="MyriadPro-Regular-32" d="M2944 0v467H1075v13l333 307c877 845 1434 1466 1434 2234 0 595-378 1209-1274 1209-480 0-890-179-1178-422l180-397c192 160 505 352 883 352 621 0 825-390 825-813-6-627-486-1164-1548-2176L288 346V0h2656z" transform="scale(.01563)"/></defs><use xlink:href="#MyriadPro-Regular-30"/><use xlink:href="#MyriadPro-Regular-2e" x="51.3"/><use xlink:href="#MyriadPro-Regular-32" x="72"/></g></g><g id="ytick_3"><path id="line2d_10" d="M31.462 213.611h357.12" clip-path="url(#p27586d5adf)" style="fill:none;stroke:#969696;stroke-width:.3;stroke-linecap:square"/><use xlink:href="#m4b7124d2cb" id="line2d_11" x="31.462" y="213.611" style="fill:#969696;stroke:#969696;stroke-width:.3"/><g id="text_9" style="fill:#969696" transform="matrix(.14 0 0 -.14 7.2 218.581)"><use xlink:href="#MyriadPro-Regular-30"/><use xlink:href="#MyriadPro-Regular-2e" x="51.3"/><use xlink:href="#MyriadPro-Regular-34" x="72"/></g></g><g id="ytick_4"><path id="line2d_12" d="M31.462 183.76h357.12" clip-path="url(#p27586d5adf)" style="fill:none;stroke:#969696;stroke-width:.3;stroke-linecap:square"/><use xlink:href="#m4b7124d2cb" id="line2d_13" x="31.462" y="183.761" style="fill:#969696;stroke:#969696;stroke-width:.3"/><g id="text_10" style="fill:#969696" transform="matrix(.14 0 0 -.14 7.2 188.73)"><use xlink:href="#MyriadPro-Regular-30"/><use xlink:href="#MyriadPro-Regular-2e" x="51.3"/><use xlink:href="#MyriadPro-Regular-36" x="72"/></g></g><g id="ytick_5"><path id="line2d_14" d="M31.462 153.91h357.12" clip-path="url(#p27586d5adf)" style="fill:none;stroke:#969696;stroke-width:.3;stroke-linecap:square"/><use xlink:href="#m4b7124d2cb" id="line2d_15" x="31.462" y="153.91" style="fill:#969696;stroke:#969696;stroke-width:.3"/><g id="text_11" style="fill:#969696" transform="matrix(.14 0 0 -.14 7.2 158.88)"><use xlink:href="#MyriadPro-Regular-30"/><use xlink:href="#MyriadPro-Regular-2e" x="51.3"/><use xlink:href="#MyriadPro-Regular-38" x="72"/></g></g><g id="ytick_6"><path id="line2d_16" d="M31.462 124.06h357.12" clip-path="url(#p27586d5adf)" style="fill:none;stroke:#969696;stroke-width:.3;stroke-linecap:square"/><use xlink:href="#m4b7124d2cb" id="line2d_17" x="31.462" y="124.06" style="fill:#969696;stroke:#969696;stroke-width:.3"/><g id="text_12" style="fill:#969696" transform="matrix(.14 0 0 -.14 7.2 129.03)"><defs><path id="MyriadPro-Regular-31" d="M1510 0h544v4160h-480l-908-486 108-429 724 390h12V0z" transform="scale(.01563)"/></defs><use xlink:href="#MyriadPro-Regular-31"/><use xlink:href="#MyriadPro-Regular-2e" x="51.3"/><use xlink:href="#MyriadPro-Regular-30" x="72"/></g></g><g id="ytick_7"><path id="line2d_18" d="M31.462 94.21h357.12" clip-path="url(#p27586d5adf)" style="fill:none;stroke:#969696;stroke-width:.3;stroke-linecap:square"/><use xlink:href="#m4b7124d2cb" id="line2d_19" x="31.462" y="94.209" style="fill:#969696;stroke:#969696;stroke-width:.3"/><g id="text_13" style="fill:#969696" transform="matrix(.14 0 0 -.14 7.2 99.18)"><use xlink:href="#MyriadPro-Regular-31"/><use xlink:href="#MyriadPro-Regular-2e" x="51.3"/><use xlink:href="#MyriadPro-Regular-32" x="72"/></g></g><g id="ytick_8"><path id="line2d_20" d="M31.462 64.359h357.12" clip-path="url(#p27586d5adf)" style="fill:none;stroke:#969696;stroke-width:.3;stroke-linecap:square"/><use xlink:href="#m4b7124d2cb" id="line2d_21" x="31.462" y="64.359" style="fill:#969696;stroke:#969696;stroke-width:.3"/><g id="text_14" style="fill:#969696" transform="matrix(.14 0 0 -.14 7.2 69.329)"><use xlink:href="#MyriadPro-Regular-31"/><use xlink:href="#MyriadPro-Regular-2e" x="51.3"/><use xlink:href="#MyriadPro-Regular-34" x="72"/></g></g><g id="ytick_9"><path id="line2d_22" d="M31.462 34.508h357.12" clip-path="url(#p27586d5adf)" style="fill:none;stroke:#969696;stroke-width:.3;stroke-linecap:square"/><use xlink:href="#m4b7124d2cb" id="line2d_23" x="31.462" y="34.508" style="fill:#969696;stroke:#969696;stroke-width:.3"/><g id="text_15" style="fill:#969696" transform="matrix(.14 0 0 -.14 7.2 39.478)"><use xlink:href="#MyriadPro-Regular-31"/><use xlink:href="#MyriadPro-Regular-2e" x="51.3"/><use xlink:href="#MyriadPro-Regular-36" x="72"/></g></g></g><path id="line2d_24" d="m31.462 273.293 13.676-.144 6.839-.269 4.559-.46 2.28-.414 4.558-1.253 1.52-.538 1.52-.815 1.52-1.145 1.52-1.437 1.519-1.718 1.52-2.118 1.519-2.649 1.52-3.2 1.52-3.878 1.519-4.629 3.04-9.67 1.519-4.267 1.52-3.75 1.52-3.133 1.519-2.5 1.52-1.897 1.52-1.309 1.519-.77.76-.197 1.52-.061 1.52.291 1.519.567 2.28 1.203 2.279 1.428 1.52 1.184 1.52 1.465 1.519 1.736 2.28 3.065 1.519 2.432 1.52 2.922 7.598 16.219 2.28 4.161 2.279 3.73 1.52 2.198 1.52 1.898 1.519 1.6 2.28 1.974 1.519 1.08 1.52.893 1.52.713 1.519.541 1.52.376 1.52.202 1.519.004 1.52-.215 1.52-.47 1.519-.77 1.52-1.094 1.52-1.436 1.519-1.794 1.52-2.128 1.52-2.427 2.279-4.152 2.28-4.725 3.798-8.66 3.8-9.243 3.799-9.926 3.799-10.607 3.799-11.298 3.799-11.993 8.358-27.483 4.56-14.626 3.038-9.115 2.28-6.255 2.28-5.584 2.279-4.826 1.52-2.755 1.52-2.384 1.519-1.971 1.52-1.42.76-.462.76-.299.76-.15.759-.016.76.106.76.219.76.342.76.48.759.634.76.803 1.52 2.125 1.52 2.733 1.519 3.236 1.52 3.713 1.52 4.193 2.279 7.149 2.28 8.27 2.279 9.274 6.838 28.634 3.8 14.382 3.798 13.447 3.04 9.87 2.28 6.719 2.279 6.016 2.28 5.387 2.279 4.816 2.28 4.269 2.279 3.736 2.28 3.21 1.519 1.834 1.52 1.582 2.279 1.97 2.28 1.587 3.799 2.224 2.28 1.12 2.279.912 2.28.725 3.038.717 3.8.622 4.558.528 6.08.445 7.597.307 11.398.203 19.755.087 48.63.016h0" clip-path="url(#p27586d5adf)" style="fill:none;stroke:#fc0023;stroke-width:1.5;stroke-linecap:square"/><path id="line2d_25" d="m31.462 273.311 34.952-.107 7.598-.258 3.8-.313 4.558-.65 4.56-.855 4.558-1.057 5.319-1.432 3.8-1.274 3.798-1.552 3.8-1.844 3.039-1.687 3.039-1.99 2.28-1.763 2.279-2.023 2.28-2.297 3.039-3.355 2.28-2.81 2.279-3.28 1.52-2.5 1.52-2.793 2.279-4.756 2.28-5.44 1.519-4.171 1.52-4.73 2.279-7.852 3.04-11.29 3.039-12.35 4.558-18.68 2.28-8.152 2.28-7.125 2.279-6.434 2.28-5.597 1.52-3.236 2.279-4.215 1.52-2.417 1.519-2.1 1.52-1.793 1.52-1.495 1.519-1.204 1.52-.928 1.52-.693 1.519-.47 1.52-.246 1.52-.016 1.519.229 1.52.496 1.52.785 1.519 1.047 1.52 1.29 1.52 1.526 1.519 1.77 2.28 3.11 2.279 3.605 2.28 4.064 2.279 4.535 3.04 6.657 3.798 8.96 5.32 13.147 12.156 30.339 8.358 19.761 3.04 6.772 2.28 4.588 3.039 5.481 3.039 4.95 3.04 4.459 2.279 3 2.28 2.69 2.279 2.37 2.28 2.09 2.279 1.843 2.28 1.614 2.279 1.4 2.28 1.196 2.279.985 3.039 1.01 3.04.757 4.558.926 3.8.554 4.558.428 6.839.36 9.118.244 14.437.143 33.432.048 37.992.002h0" clip-path="url(#p27586d5adf)" style="fill:none;stroke:#00c600;stroke-width:1.5;stroke-linecap:square"/><path id="line2d_26" d="m31.462 273.222 7.598-.2 4.559-.303 5.319-.676 2.28-.517 2.279-.86 2.28-1.116 1.519-.999 1.52-1.424 1.52-1.893 3.798-5.228.76-1.401.76-1.74.76-2.152 1.52-5.476 1.52-6.88 1.519-8.24 1.52-10.177 1.519-12.748 1.52-15.446 1.52-18.791L78.57 154.4l3.04-47.56 1.519-21.307 1.52-19.026 1.52-16.299 1.519-13.444 1.52-10.675.76-4.312.76-3.669.76-3.06.759-2.49.76-1.938.76-1.43.76-.99.76-.623.76-.323.759-.055.76.19.76.373 1.52 1.058 1.519 1.204.76.76.76.967.76 1.25.76 1.572.76 1.896 1.519 4.794 1.52 6.15 1.519 7.688.76 4.7.76 5.438 1.52 13.22 7.598 73.458 3.039 26.393 2.28 17.673 1.52 10.414 1.519 9.252 1.52 8.233 1.52 7.313 1.519 6.453 1.52 5.685 1.52 5.003 1.519 4.378 1.52 3.809 3.039 6.763 3.039 6.413 2.28 4.36 1.52 2.58 1.519 2.244 1.52 1.914 1.52 1.587 1.519 1.29 2.28 1.592 2.279 1.344 3.04 1.558 3.038 1.308 3.04 1.041 3.04.794 3.038.578 3.8.49 4.559.35 6.078.237 9.118.099 44.83.243 145.128.003h0" clip-path="url(#p27586d5adf)" style="fill:none;stroke:#001d99;stroke-width:1.5;stroke-linecap:square"/><g id="legend_1"><path id="patch_3" d="M325.582 78.963h53.2q2.8 0 2.8-2.8V17q0-2.8-2.8-2.8h-53.2q-2.8 0-2.8 2.8v59.163q0 2.8 2.8 2.8z" style="fill:#fff;opacity:.8;stroke:#ccc;stroke-linejoin:miter"/><path id="line2d_27" d="M328.382 24.84h28" style="fill:none;stroke:#fc0023;stroke-width:1.5;stroke-linecap:square"/><g id="text_16" style="fill:#969696" transform="matrix(.14 0 0 -.14 367.582 29.74)"><defs><path id="DejaVuSans-Oblique-78" d="M3841 3500 2234 1784 3219 0h-660l-740 1388L531 0h-697l1722 1844-915 1656h659l672-1266 1172 1266h697z" transform="scale(.01563)"/></defs><use xlink:href="#DejaVuSans-Oblique-78" transform="translate(0 1.063)"/><path d="M0 67.5v6.25h59.18V67.5H0z"/></g><path id="line2d_29" d="M328.382 45.812h28" style="fill:none;stroke:#00c600;stroke-width:1.5;stroke-linecap:square"/><g id="text_17" style="fill:#969696" transform="matrix(.14 0 0 -.14 367.582 50.712)"><defs><path id="DejaVuSans-Oblique-79" d="M1588-325q-400-672-652-839t-642-167h-453l96 481h332q240 0 409 131t378 513l178 334-775 3372h610l581-2681 1606 2681h603L1588-325z" transform="scale(.01563)"/></defs><use xlink:href="#DejaVuSans-Oblique-79" transform="translate(0 1.063)"/><path d="M0 67.5v6.25h59.18V67.5H0z"/></g><path id="line2d_31" d="M328.382 65.692h28" style="fill:none;stroke:#001d99;stroke-width:1.5;stroke-linecap:square"/><g id="text_18" style="fill:#969696" transform="matrix(.14 0 0 -.14 367.582 70.592)"><defs><path id="DejaVuSans-Oblique-7a" d="M744 3500h2731l-103-525L738 459h2175L2822 0H-19L84 525l2635 2516H653l91 459z" transform="scale(.01563)"/></defs><use xlink:href="#DejaVuSans-Oblique-7a" transform="translate(0 1.063)"/><path d="M0 67.5v6.25h52.49V67.5H0z"/></g></g></g></g><defs><clipPath id="p27586d5adf"><path d="M31.462 7.2h357.12v266.112H31.462z"/></clipPath></defs></svg>