<svg xmlns="http://www.w3.org/2000/svg" xmlns:xlink="http://www.w3.org/1999/xlink" width="549.991" height="476.965" viewBox="0 0 412.493 357.724"><defs><style>*{stroke-linecap:butt;stroke-linejoin:round}</style></defs><g id="figure_1"><path id="patch_1" fill="none" d="M0 357.724h412.493V0H0z"/><g id="axes_1"><path id="patch_2" fill="none" d="M48.173 313.628h357.12V47.516H48.173z"/><g id="matplotlib.axis_1"><g id="xtick_1"><g id="line2d_1"><defs><path id="m74eccbf2e6" stroke="#969696" stroke-width=".4" d="M0 0v3.5"/></defs><use xlink:href="#m74eccbf2e6" x="48.173" y="313.628" fill="#969696" stroke="#969696" stroke-width=".4"/></g><g id="text_1" fill="#969696" transform="matrix(.14 0 0 -.14 44.28 330.678)"><defs><path id="HelveticaWorld-Regular-48" d="M42.484 34.188q0 14.109-3.734 21.156-3.734 7.062-10.969 7.062-7.078 0-10.89-7.062-3.797-7.047-3.797-21.157 0-13.671 3.75-20.937Q20.609 6 27.78 6q7.235 0 10.969 7 3.734 7.016 3.734 21.188zm9.422 0q0-17.297-6.25-26.704-6.25-9.39-17.875-9.39-12.062 0-18.062 9.734-6 9.75-6 26.36 0 17.03 6.14 26.578 6.157 9.547 17.922 9.547 11.625 0 17.875-9.5t6.25-26.626z"/></defs><use xlink:href="#HelveticaWorld-Regular-48"/></g></g><g id="xtick_2"><use xlink:href="#m74eccbf2e6" id="line2d_2" x="96.226" y="313.628" fill="#969696" stroke="#969696" stroke-width=".4"/><g id="text_2" fill="#969696" transform="matrix(.14 0 0 -.14 80.656 330.678)"><defs><path id="HelveticaWorld-Regular-49" d="M35.89 0h-9.374v49.906H10.109v6.985q8.594.28 12.782 2.75Q27.094 62.109 29 70.313h6.89z"/></defs><use xlink:href="#HelveticaWorld-Regular-49"/><use xlink:href="#HelveticaWorld-Regular-48" x="55.615"/><use xlink:href="#HelveticaWorld-Regular-48" x="111.23"/><use xlink:href="#HelveticaWorld-Regular-48" x="166.846"/></g></g><g id="xtick_3"><use xlink:href="#m74eccbf2e6" id="line2d_3" x="144.28" y="313.628" fill="#969696" stroke="#969696" stroke-width=".4"/><g id="text_3" fill="#969696" transform="matrix(.14 0 0 -.14 128.709 330.678)"><defs><path id="HelveticaWorld-Regular-50" d="M4.39 45.125q0 12.39 6.391 18.781 6.406 6.407 17.938 6.407 9.656 0 15.812-5.86 6.157-5.86 6.157-15.14 0-7.22-3.547-12.188-3.532-4.953-10.422-8.703l-12.11-6.64Q13.922 15.921 12.5 8.296h38.188V0H2.593q.39 9.906 4.297 16.5 3.906 6.594 12.203 11.375l12.593 7.328q5.032 2.89 7.329 5.984 2.297 3.094 2.297 8.516 0 5.375-3.766 9.031-3.75 3.672-10.156 3.672-7.078 0-10.594-4.672-3.516-4.656-3.61-12.609z"/></defs><use xlink:href="#HelveticaWorld-Regular-50"/><use xlink:href="#HelveticaWorld-Regular-48" x="55.615"/><use xlink:href="#HelveticaWorld-Regular-48" x="111.23"/><use xlink:href="#HelveticaWorld-Regular-48" x="166.846"/></g></g><g id="xtick_4"><use xlink:href="#m74eccbf2e6" id="line2d_4" x="192.333" y="313.628" fill="#969696" stroke="#969696" stroke-width=".4"/><g id="text_4" fill="#969696" transform="matrix(.14 0 0 -.14 176.762 330.678)"><defs><path id="HelveticaWorld-Regular-51" d="M22.406 39.984q2.203-.187 4.594-.187 6.203 0 9.781 2.86 3.594 2.859 3.594 8.656 0 4.687-3.344 7.89-3.343 3.203-9.64 3.203-6.985 0-10.235-4.11-3.234-4.093-3.437-10.983h-8.64q0 10.984 5.765 16.984 5.765 6.016 16.937 6.016 9.922 0 15.828-5.11 5.907-5.094 5.907-13.39 0-10.704-9.032-14.5v-.204q11.72-4 11.72-16.406 0-9.906-6.595-16.265-6.593-6.344-18.703-6.344-9.906 0-16.312 5.203Q4.204 8.5 3.422 21.484H12.5q.203-8.109 4-11.797Q20.313 6 27.484 6q6.938 0 11.141 3.86 4.203 3.859 4.203 9.718 0 6.406-4.016 9.672-4 3.266-12.39 3.266-2 0-4.016-.094z"/></defs><use xlink:href="#HelveticaWorld-Regular-51"/><use xlink:href="#HelveticaWorld-Regular-48" x="55.615"/><use xlink:href="#HelveticaWorld-Regular-48" x="111.23"/><use xlink:href="#HelveticaWorld-Regular-48" x="166.846"/></g></g><g id="xtick_5"><use xlink:href="#m74eccbf2e6" id="line2d_5" x="240.386" y="313.628" fill="#969696" stroke="#969696" stroke-width=".4"/><g id="text_5" fill="#969696" transform="matrix(.14 0 0 -.14 224.815 330.678)"><defs><path id="HelveticaWorld-Regular-52" d="M10.594 24.703h22.61v31.89h-.188zM42 17.093V0h-8.797v17.094H2.484v8.593L34.72 70.314H42v-45.61h10.297v-7.61z"/></defs><use xlink:href="#HelveticaWorld-Regular-52"/><use xlink:href="#HelveticaWorld-Regular-48" x="55.615"/><use xlink:href="#HelveticaWorld-Regular-48" x="111.23"/><use xlink:href="#HelveticaWorld-Regular-48" x="166.846"/></g></g><g id="xtick_6"><use xlink:href="#m74eccbf2e6" id="line2d_6" x="288.439" y="313.628" fill="#969696" stroke="#969696" stroke-width=".4"/><g id="text_6" fill="#969696" transform="matrix(.14 0 0 -.14 272.869 330.678)"><defs><path id="HelveticaWorld-Regular-53" d="M14.703 40.922q5.813 4.39 13.625 4.39 9.469 0 16.281-6.296 6.813-6.297 6.813-16.22 0-10.78-6.578-17.796-6.563-7-18.422-7-10.313 0-16.266 5.047Q4.203 8.109 3.22 17.39h9.094q.671-5.672 4.437-8.672 3.766-3 10.453-3 6.485 0 10.64 4.484Q42 14.703 42 21.688q0 7.125-4.36 11.421-4.343 4.297-11.218 4.297-7.813 0-13.047-6.687l-7.563.39 5.266 37.594h36.438v-8.5H17.672z"/></defs><use xlink:href="#HelveticaWorld-Regular-53"/><use xlink:href="#HelveticaWorld-Regular-48" x="55.615"/><use xlink:href="#HelveticaWorld-Regular-48" x="111.23"/><use xlink:href="#HelveticaWorld-Regular-48" x="166.846"/></g></g><g id="xtick_7"><use xlink:href="#m74eccbf2e6" id="line2d_7" x="336.492" y="313.628" fill="#969696" stroke="#969696" stroke-width=".4"/><g id="text_7" fill="#969696" transform="matrix(.14 0 0 -.14 320.922 330.678)"><defs><path id="HelveticaWorld-Regular-54" d="M14.11 21.578q0-6.875 4.093-11.234Q22.313 6 28.906 6q6.297 0 10.032 4.438 3.734 4.453 3.734 11.687 0 6.297-3.688 10.547-3.687 4.25-10.468 4.25-6.594 0-10.5-4.156-3.907-4.157-3.907-11.188zM41.702 51.61q-.984 5.375-3.984 8.078-3 2.72-8.125 2.72-8.11 0-12.36-7.923-4.25-7.906-4.343-18.109l.203-.188q5.61 8.641 16.687 8.641 8.844 0 15.438-5.86 6.593-5.859 6.593-16.452 0-10.5-6.25-17.47-6.25-6.952-16.843-6.952-12.219 0-18.563 8.687-6.344 8.703-6.344 25.938 0 16.593 6.485 27.093 6.5 10.5 19.484 10.5 8.407 0 14.219-5.015 5.813-5 6.297-13.688z"/></defs><use xlink:href="#HelveticaWorld-Regular-54"/><use xlink:href="#HelveticaWorld-Regular-48" x="55.615"/><use xlink:href="#HelveticaWorld-Regular-48" x="111.23"/><use xlink:href="#HelveticaWorld-Regular-48" x="166.846"/></g></g><g id="xtick_8"><use xlink:href="#m74eccbf2e6" id="line2d_8" x="384.546" y="313.628" fill="#969696" stroke="#969696" stroke-width=".4"/><g id="text_8" fill="#969696" transform="matrix(.14 0 0 -.14 368.975 330.678)"><defs><path id="HelveticaWorld-Regular-55" d="M3.719 68.797h48.578v-7.719Q42.28 50.875 33.984 33.484 25.687 16.11 23.391 0h-9.672q1.469 13.281 9.719 30.531 8.25 17.266 18.953 29.672H3.719z"/></defs><use xlink:href="#HelveticaWorld-Regular-55"/><use xlink:href="#HelveticaWorld-Regular-48" x="55.615"/><use xlink:href="#HelveticaWorld-Regular-48" x="111.23"/><use xlink:href="#HelveticaWorld-Regular-48" x="166.846"/></g></g><g id="text_9" fill="#969696" transform="matrix(.14 0 0 -.14 222.197 347.625)"><defs><path id="HelveticaWorld-Regular-89" d="M37.313 0h-9.72v28.906L.485 71.781h11.329l20.609-34.469 20.562 34.47h11.422L37.312 28.905z"/></defs><use xlink:href="#HelveticaWorld-Regular-89"/></g></g><g id="matplotlib.axis_2"><g id="ytick_1"><path id="line2d_9" fill="none" stroke="#969696" stroke-linecap="square" stroke-width=".3" d="M48.173 313.628h357.12" clip-path="url(#pc552f892da)"/><g id="line2d_10"><defs><path id="mf23d309cda" stroke="#969696" stroke-width=".3" d="M0 0h-3.5"/></defs><use xlink:href="#mf23d309cda" x="48.173" y="313.628" fill="#969696" stroke="#969696" stroke-width=".3"/></g><use xlink:href="#HelveticaWorld-Regular-48" id="text_10" fill="#969696" transform="matrix(.14 0 0 -.14 33.388 318.653)"/></g><g id="ytick_2"><path id="line2d_11" fill="none" stroke="#969696" stroke-linecap="square" stroke-width=".3" d="M48.173 257.213h357.12" clip-path="url(#pc552f892da)"/><use xlink:href="#mf23d309cda" id="line2d_12" x="48.173" y="257.213" fill="#969696" stroke="#969696" stroke-width=".3"/><g id="text_11" fill="#969696" transform="matrix(.14 0 0 -.14 17.817 262.238)"><use xlink:href="#HelveticaWorld-Regular-49"/><use xlink:href="#HelveticaWorld-Regular-48" x="55.615"/><use xlink:href="#HelveticaWorld-Regular-48" x="111.23"/></g></g><g id="ytick_3"><path id="line2d_13" fill="none" stroke="#969696" stroke-linecap="square" stroke-width=".3" d="M48.173 200.798h357.12" clip-path="url(#pc552f892da)"/><use xlink:href="#mf23d309cda" id="line2d_14" x="48.173" y="200.798" fill="#969696" stroke="#969696" stroke-width=".3"/><g id="text_12" fill="#969696" transform="matrix(.14 0 0 -.14 17.817 205.823)"><use xlink:href="#HelveticaWorld-Regular-50"/><use xlink:href="#HelveticaWorld-Regular-48" x="55.615"/><use xlink:href="#HelveticaWorld-Regular-48" x="111.23"/></g></g><g id="ytick_4"><path id="line2d_15" fill="none" stroke="#969696" stroke-linecap="square" stroke-width=".3" d="M48.173 144.383h357.12" clip-path="url(#pc552f892da)"/><use xlink:href="#mf23d309cda" id="line2d_16" x="48.173" y="144.383" fill="#969696" stroke="#969696" stroke-width=".3"/><g id="text_13" fill="#969696" transform="matrix(.14 0 0 -.14 17.817 149.407)"><use xlink:href="#HelveticaWorld-Regular-51"/><use xlink:href="#HelveticaWorld-Regular-48" x="55.615"/><use xlink:href="#HelveticaWorld-Regular-48" x="111.23"/></g></g><g id="ytick_5"><path id="line2d_17" fill="none" stroke="#969696" stroke-linecap="square" stroke-width=".3" d="M48.173 87.967h357.12" clip-path="url(#pc552f892da)"/><use xlink:href="#mf23d309cda" id="line2d_18" x="48.173" y="87.967" fill="#969696" stroke="#969696" stroke-width=".3"/><g id="text_14" fill="#969696" transform="matrix(.14 0 0 -.14 17.817 92.992)"><use xlink:href="#HelveticaWorld-Regular-52"/><use xlink:href="#HelveticaWorld-Regular-48" x="55.615"/><use xlink:href="#HelveticaWorld-Regular-48" x="111.23"/></g></g><g id="text_15" fill="#969696" transform="matrix(.14 0 0 -.14 7.2 177.674)"><defs><path id="HelveticaWorld-Regular-76" d="M17.672 8.594h36.531V0H8.11v71.781h9.563z"/><path id="HelveticaWorld-Regular-42" d="m5.906 64.594 10.5-3.797V71.78h6V60.797l10.5 3.797 2-5.516-10.781-3.36 6.688-9.234-4.938-3.375-6.484 9.375-6.5-9.375-4.875 3.375 6.687 9.235-10.797 3.36z"/></defs><use xlink:href="#HelveticaWorld-Regular-76"/><use xlink:href="#HelveticaWorld-Regular-42" x="55.615"/></g></g><g id="line2d_19"><defs><path id="mb6a845fe0e" stroke="#1f77b4" d="M0 3a3 3 0 1 0 0-6 3 3 0 0 0 0 6z"/></defs><g fill="#1f77b4" stroke="#1f77b4" clip-path="url(#pc552f892da)"><use xlink:href="#mb6a845fe0e" x="405.293" y="60.017"/><use xlink:href="#mb6a845fe0e" x="269.275" y="75.868"/><use xlink:href="#mb6a845fe0e" x="225.263" y="91.719"/><use xlink:href="#mb6a845fe0e" x="198.326" y="107.569"/><use xlink:href="#mb6a845fe0e" x="171.359" y="123.42"/><use xlink:href="#mb6a845fe0e" x="133.454" y="139.271"/><use xlink:href="#mb6a845fe0e" x="119.75" y="155.121"/><use xlink:href="#mb6a845fe0e" x="102.603" y="170.972"/><use xlink:href="#mb6a845fe0e" x="96.081" y="186.823"/><use xlink:href="#mb6a845fe0e" x="89.285" y="202.673"/><use xlink:href="#mb6a845fe0e" x="79.582" y="218.524"/><use xlink:href="#mb6a845fe0e" x="69.903" y="234.375"/><use xlink:href="#mb6a845fe0e" x="62.812" y="250.225"/><use xlink:href="#mb6a845fe0e" x="58.14" y="266.076"/><use xlink:href="#mb6a845fe0e" x="54.315" y="281.927"/><use xlink:href="#mb6a845fe0e" x="51.048" y="297.778"/><use xlink:href="#mb6a845fe0e" x="48.173" y="313.628"/></g></g><path id="line2d_20" fill="none" stroke="#ff7f0e" stroke-linecap="square" stroke-width="1.5" d="M405.293 47.516 269.275 88.154l-44.012 16.724-26.937 11.655-26.967 13.162-37.905 22.261-13.704 9.682-17.147 14.047-6.522 6.122-6.796 7.003-9.703 11.488-9.679 14.138-7.09 13.351-4.673 11.41-3.825 12.437-3.267 15.88-2.875 46.114" clip-path="url(#pc552f892da)"/><g id="text_16" fill="#969696" transform="matrix(.14 0 0 -.14 123.072 17.516)"><defs><path id="HelveticaWorld-Regular-70" d="M17.828 0H8.11v71.781h49.703v-8.594H17.828V41.22h35.156v-8.594H17.828z"/><path id="HelveticaWorld-Regular-97" d="M38.375 26.703q-.969-1.015-3.828-1.656-2.86-.625-10.672-1.656-5.766-.688-8.469-2.844-2.703-2.14-2.703-5.656 0-4.297 2.281-6.688 2.297-2.39 7.329-2.39 6.296 0 11.171 3.578 4.891 3.593 4.891 8.718zM6.203 36.375q.297 8.844 5.734 13.14 5.454 4.297 15.844 4.297 8.297 0 13.907-3.765 5.624-3.75 5.624-10.844V9.078Q47.313 6 50.094 6q1.125 0 2.89.39V0Q50.594-.984 48-.984q-4.5 0-6.703 1.921-2.188 1.938-2.281 6.047-7.516-8.5-18.891-8.5-7.422 0-11.922 4.204Q3.72 6.89 3.72 13.624q0 6.89 3.906 11.125Q11.531 29 19 29.89l15.516 1.891q4.203.64 4.203 6.203 0 4.11-3.047 6.297-3.047 2.203-9.25 2.203-5.516 0-8.485-2.437-2.953-2.438-3.53-7.672z"/><path id="HelveticaWorld-Regular-105" d="M6.594 61.813v9.968h8.781v-9.969zM15.375 0H6.594v52.297h8.781z"/><path id="HelveticaWorld-Regular-114" d="M15.375 0H6.594v52.297h8.297v-8.688h.203q5.703 10.203 14.687 10.203 1.422 0 2.297-.296V44.39h-3.266q-5.906 0-9.671-4.016-3.766-4-3.766-9.953z"/><path id="HelveticaWorld-Regular-99" d="M39.594 34.719q-1.89 11.187-12.39 11.187-6.5 0-10.454-5.203-3.953-5.203-3.953-14.484 0-10.11 3.656-15.11 3.672-5 10.64-5 4.688 0 8.11 3.438 3.422 3.437 4.39 8.953h8.5q-1.312-9.703-6.859-14.86-5.547-5.156-14.328-5.156-10.297 0-16.89 7.047-6.594 7.063-6.594 19.172 0 13.281 6.594 21.188 6.593 7.922 18.5 7.922 8.687 0 13.843-5.204 5.157-5.203 5.735-13.89z"/><path id="HelveticaWorld-Regular-104" d="M49.219 0h-8.844v34.188q0 6.296-2.438 9-2.437 2.718-7.953 2.718-6.797 0-10.703-4.406-3.906-4.39-3.906-12.984V0H6.594v71.781h8.781V45.312h.203q6 8.5 15.328 8.5 8.594 0 13.453-4.5 4.86-4.484 4.86-13.718z"/><path id="HelveticaWorld-Regular-108" d="M15.375 0H6.594v71.781h8.781z"/><path id="HelveticaWorld-Regular-100" d="M13.094 26.313q0-9.704 3.844-14.954 3.859-5.25 10.265-5.25 6.094 0 10.188 4.485 4.109 4.5 4.109 13.094 0 11.03-3.5 16.625-3.484 5.593-10.61 5.593-6.78 0-10.546-4.453-3.75-4.437-3.75-15.14zM50.39 0h-8.297v7.172h-.203q-4.97-8.688-15.078-8.688-10.891 0-16.86 8.297Q4 15.094 4 27.688q0 11.625 5.906 18.875 5.922 7.25 15.875 7.25 9.813 0 15.625-8.891l.203.594V71.78h8.782z"/><path id="HelveticaWorld-Regular-45" d="M28.906 23.188H4.391v8.984h24.515z"/><path id="HelveticaWorld-Regular-67" d="M58.016 50.203q-1.625 7.313-6.782 11.094-5.14 3.797-13.343 3.797-10.594 0-17.047-7.703-6.438-7.688-6.438-20.766 0-15.14 6.094-22.547 6.11-7.39 17.688-7.39 7.609 0 13.093 5.046 5.5 5.063 7.407 14.688h9.421Q66.22 12.594 57.625 5.344t-20.906-7.25q-14.703 0-23.516 10.11Q4.391 18.311 4.391 36.28q0 17.328 9.203 27.36 9.203 10.047 24.297 10.047 12.5 0 20.265-6.454 7.766-6.437 9.235-17.03z"/><path id="HelveticaWorld-Regular-101" d="M42.484 30.328q-.687 8.485-4.5 12.031-3.797 3.547-10.109 3.547-6.39 0-10.328-4.5-3.922-4.484-4.172-11.078zm8.391-13.922q-1.453-8.11-7.953-13.422-5.719-4.5-15.047-4.593-10.984.093-17.438 7.203Q4 12.704 4 24.704q0 13.78 6.64 21.437 6.641 7.672 18.47 7.672 10.593 0 16.546-7.922 5.953-7.907 5.953-22.594H13.375q0-8.203 3.813-12.703Q21 6.109 28.608 6.109q5.375 0 9.235 3.235 3.86 3.25 4.25 7.062z"/><path id="HelveticaWorld-Regular-110" d="M49.219 0h-8.844v32.172q0 7.422-2.594 10.578-2.578 3.156-8.578 3.156-5.906 0-9.875-4.5-3.953-4.484-3.953-12.89V0H6.594v52.297h8.297v-7.375h.203q6.203 8.89 15.812 8.89 8.89 0 13.594-4.718 4.719-4.703 4.719-13.5z"/><path id="HelveticaWorld-Regular-83" d="M50.39 50.781q-.296 6.844-5.109 10.719-4.797 3.875-12.656 3.875-7.922 0-12.172-3.25-4.234-3.234-4.234-9.344 0-3.265 1.843-5.61 1.86-2.343 6.641-3.468l20.516-4.687q8.297-1.813 12.297-6.875 4.015-5.047 4.015-12.313 0-10.64-7.812-16.187-7.813-5.547-20.313-5.547-9.531 0-15.031 2.437-5.484 2.453-9.734 7.766-4.25 5.328-4.25 14.89h9.093q0-8 5.313-12.406 5.328-4.39 14.5-4.39 8.89 0 13.844 3.156 4.953 3.156 4.953 8.953 0 5.281-2.953 7.89Q46.188 29 37.594 31l-15.469 3.625q-7.719 1.75-11.531 6.125Q6.78 45.125 6.78 51.516q0 9.672 6.516 15.922 6.531 6.25 18.203 6.25 13.172 0 20.328-5.5 7.156-5.485 7.688-17.407z"/><path id="HelveticaWorld-Regular-103" d="M12.984 26.313q0-9.61 3.813-14.907Q20.609 6.11 27.094 6.11q6.312 0 10.312 4.579 4 4.593 4 13 0 11.03-3.5 16.625-3.484 5.593-10.61 5.593-7.171 0-10.75-4.765-3.562-4.766-3.562-14.828zm36.828-23.33q0-12.609-6.062-18.797-6.047-6.203-18.266-6.203-8.78 0-13.984 4.047-5.203 4.048-5.984 11.58h8.796q.672-3.812 3.532-6.062 2.86-2.25 8.281-2.25 7.375 0 11.125 3.969 3.766 3.953 3.766 12.828v3.719h-.188q-4.937-7.329-13.922-7.329-11.187 0-17.093 8.25-5.907 8.25-5.907 20.953 0 11.625 5.953 18.875 5.97 7.25 15.829 7.25 9.906 0 15.625-8.89h.187v7.375h8.313z"/><path id="HelveticaWorld-Regular-116" d="M17.188 45.016V10.984q0-2 1.093-3.046 1.11-1.047 3.938-1.047h3.375V0Q20.797-.688 19-.688q-5.516 0-8.063 2.641-2.53 2.64-2.53 8.547v34.516H1.311v7.28h7.094v14.595h8.781V52.297h8.407v-7.281z"/><path id="HelveticaWorld-Regular-115" d="M36.078 37.406q-.187 4.688-3.344 6.735-3.14 2.047-9.047 2.047-4.296 0-7.359-1.907-3.047-1.89-3.047-5.468 0-2.829 1.797-4.172 1.813-1.344 7.828-2.86l8.688-2.187q7.906-2 11.297-5.11 3.406-3.093 3.406-8.656 0-7.719-5.64-12.531-5.641-4.813-15.063-4.813-11 0-16.64 4.563-5.626 4.578-5.735 13.75h8.5q.203-5.422 3.594-8.063 3.39-2.625 10.171-2.625 5.516 0 8.766 2.188 3.25 2.203 3.25 6.11 0 2.78-2.11 4.437-2.093 1.672-8.296 3.078l-10.203 2.5q-6.203 1.562-9.157 4.656-2.953 3.094-2.953 8.031 0 7.72 5.516 12.203 5.531 4.5 14.406 4.5 9.485 0 14.531-4.624 5.047-4.61 5.344-11.782z"/></defs><use xlink:href="#HelveticaWorld-Regular-70"/><use xlink:href="#HelveticaWorld-Regular-97" x="54.891"/><use xlink:href="#HelveticaWorld-Regular-105" x="109.822"/><use xlink:href="#HelveticaWorld-Regular-114" x="131.844"/><use xlink:href="#HelveticaWorld-Regular-99" x="163.412"/><use xlink:href="#HelveticaWorld-Regular-104" x="214.682"/><use xlink:href="#HelveticaWorld-Regular-105" x="269.857"/><use xlink:href="#HelveticaWorld-Regular-108" x="291.879"/><use xlink:href="#HelveticaWorld-Regular-100" x="313.9"/><use xlink:href="#HelveticaWorld-Regular-45" x="370.883"/><use xlink:href="#HelveticaWorld-Regular-67" x="404.184"/><use xlink:href="#HelveticaWorld-Regular-104" x="476.498"/><use xlink:href="#HelveticaWorld-Regular-101" x="531.674"/><use xlink:href="#HelveticaWorld-Regular-110" x="587.094"/><use xlink:href="#HelveticaWorld-Regular-32" x="642.27"/><use xlink:href="#HelveticaWorld-Regular-83" x="666.684"/><use xlink:href="#HelveticaWorld-Regular-76" x="732.895"/><use xlink:href="#HelveticaWorld-Regular-50" x="788.51"/><use xlink:href="#HelveticaWorld-Regular-32" x="844.125"/><use xlink:href="#HelveticaWorld-Regular-108" x="868.539"/><use xlink:href="#HelveticaWorld-Regular-105" x="890.561"/><use xlink:href="#HelveticaWorld-Regular-103" x="912.582"/><use xlink:href="#HelveticaWorld-Regular-104" x="968.49"/><use xlink:href="#HelveticaWorld-Regular-116" x="1023.666"/><use xlink:href="#HelveticaWorld-Regular-110" x="1051.352"/><use xlink:href="#HelveticaWorld-Regular-101" x="1106.527"/><use xlink:href="#HelveticaWorld-Regular-115" x="1161.947"/><use xlink:href="#HelveticaWorld-Regular-115" x="1211.947"/><use xlink:href="#HelveticaWorld-Regular-32" x="1261.947"/><use xlink:href="#HelveticaWorld-Regular-100" x="1286.361"/><use xlink:href="#HelveticaWorld-Regular-97" x="1343.344"/><use xlink:href="#HelveticaWorld-Regular-116" x="1398.275"/><use xlink:href="#HelveticaWorld-Regular-97" x="1425.961"/></g><g id="legend_1"><path id="patch_3" fill="#fff" stroke="#ccc" d="M217.842 306.628h177.651q2.8 0 2.8-2.8V265.12q0-2.8-2.8-2.8H217.842q-2.8 0-2.8 2.8v38.708q0 2.8 2.8 2.8z" opacity=".8"/><use xlink:href="#mb6a845fe0e" id="line2d_22" x="234.642" y="273.282" fill="#1f77b4" stroke="#1f77b4"/><g id="text_17" fill="#969696" transform="matrix(.14 0 0 -.14 259.842 278.182)"><defs><path id="HelveticaWorld-Regular-120" d="M49.031 0H37.703l-12.89 19.672L12.203 0H1.125l18.266 26.906L2 52.296h11.188l12.109-18.405L37.5 52.297h10.688l-17.579-25.39z"/><path id="HelveticaWorld-Regular-112" d="M14.984 23.688q0-8.407 4.094-13 4.11-4.579 10.219-4.579 6.687 0 10.39 5.438 3.72 5.453 3.72 14.765 0 10.22-3.563 14.907-3.563 4.687-10.735 4.687-6.984 0-10.562-5.5-3.563-5.5-3.563-16.718zm-8.39 28.609h8.297v-7.375h.203q5.61 8.89 15.625 8.89 10.11 0 15.937-7.359 5.828-7.344 5.828-18.766 0-12.796-5.953-21Q40.578-1.515 29.5-1.515q-9.094 0-13.922 7.032h-.203v-26.22H6.594z"/><path id="HelveticaWorld-Regular-109" d="M6.594 52.297h8.297v-7.375h.203q5.906 8.89 15.812 8.89 9.813 0 13.922-8.5 3.75 4.594 7.266 6.547 3.515 1.953 8.703 1.953 6.781 0 11.484-4.453Q77 44.922 77 36.187V0h-8.781v33.797q0 6.094-2.297 9.094-2.297 3.015-7.422 3.015-5.172 0-8.75-4.203-3.563-4.203-3.563-9.812V0h-8.78v36.188q0 4.53-2.11 7.124-2.094 2.594-6.094 2.594-6.297 0-10.062-4.687-3.766-4.688-3.766-12.703V0H6.594z"/><path id="HelveticaWorld-Regular-40" d="M29.781 73.297q-8.875-15.875-11.218-25.844-2.344-9.953-2.344-21.969 0-11.859 3.187-22.125Q22.61-6.89 29.891-20.703h-5.86Q15.72-8.593 11.25 2.187 6.781 12.985 6.781 26.125q0 12.36 4.047 23.563 4.063 11.203 12.86 23.609z"/><path id="HelveticaWorld-Regular-41" d="M3.516-20.703q8.796 15.922 11.14 25.86Q17 15.093 17 27.093q0 11.922-3.156 22.172T3.422 73.296h5.765q8.391-12.109 12.86-22.905 4.469-10.797 4.469-23.875 0-12.407-4.063-23.61-4.047-11.203-12.828-23.61z"/></defs><use xlink:href="#HelveticaWorld-Regular-101"/><use xlink:href="#HelveticaWorld-Regular-120" x="52.545"/><use xlink:href="#HelveticaWorld-Regular-112" x="102.545"/><use xlink:href="#HelveticaWorld-Regular-101" x="159.039"/><use xlink:href="#HelveticaWorld-Regular-114" x="214.459"/><use xlink:href="#HelveticaWorld-Regular-105" x="247.027"/><use xlink:href="#HelveticaWorld-Regular-109" x="269.049"/><use xlink:href="#HelveticaWorld-Regular-101" x="352.057"/><use xlink:href="#HelveticaWorld-Regular-110" x="407.477"/><use xlink:href="#HelveticaWorld-Regular-116" x="462.652"/><use xlink:href="#HelveticaWorld-Regular-97" x="490.338"/><use xlink:href="#HelveticaWorld-Regular-108" x="545.27"/><use xlink:href="#HelveticaWorld-Regular-32" x="567.291"/><use xlink:href="#HelveticaWorld-Regular-40" x="591.705"/><use xlink:href="#HelveticaWorld-Regular-115" x="625.006"/><use xlink:href="#HelveticaWorld-Regular-99" x="675.006"/><use xlink:href="#HelveticaWorld-Regular-97" x="726.275"/><use xlink:href="#HelveticaWorld-Regular-108" x="781.207"/><use xlink:href="#HelveticaWorld-Regular-101" x="803.229"/><use xlink:href="#HelveticaWorld-Regular-100" x="858.648"/><use xlink:href="#HelveticaWorld-Regular-41" x="915.631"/></g><path id="line2d_23" fill="none" stroke="#ff7f0e" stroke-linecap="square" stroke-width="1.5" d="M220.642 293.23h28"/><g id="text_18" fill="#969696" transform="matrix(.14 0 0 -.14 259.842 298.13)"><defs><path id="HelveticaWorld-Regular-73" d="M17.828 0H8.11v71.781h9.72z"/><path id="HelveticaWorld-Regular-69" d="M61.078 0H8.11v71.781h52.297v-8.594H17.828V41.22h39.25v-8.594h-39.25V8.594h43.25z"/><path id="HelveticaWorld-Regular-65" d="M44 29.5 33.406 61.078h-.203L21.687 29.5zm-25.297-8.594L11.188 0h-9.97l27 71.781h10.985L65.187 0H54.594l-7.078 20.906z"/><path id="HelveticaWorld-Regular-66" d="M8.11 71.781h31.484q9.281 0 14.797-5.031 5.515-5.031 5.515-13.031 0-4.844-2.422-8.828-2.406-3.97-7.187-6.172 6.687-2.532 9.828-6.735 3.156-4.203 3.156-10.797 0-9.265-6.687-15.234Q49.906 0 38.922 0H8.109zm9.562-63.484h20.703q7.625 0 11.422 3.531 3.812 3.547 3.812 9.563 0 6.093-4.25 9.093Q45.125 33.5 36.812 33.5h-19.14zm0 33.11h17.625q7.719 0 11.312 2.796 3.594 2.813 3.594 8.781 0 5.125-3.406 7.813-3.39 2.687-11.39 2.687H17.671z"/></defs><use xlink:href="#HelveticaWorld-Regular-67"/><use xlink:href="#HelveticaWorld-Regular-73" x="72.314"/><use xlink:href="#HelveticaWorld-Regular-69" x="98.096"/><use xlink:href="#HelveticaWorld-Regular-76" x="163.086"/><use xlink:href="#HelveticaWorld-Regular-65" x="218.701"/><use xlink:href="#HelveticaWorld-Regular-66" x="285.4"/></g></g></g></g><defs><clipPath id="pc552f892da"><path d="M48.173 47.516h357.12v266.112H48.173z"/></clipPath></defs></svg>