<svg xmlns="http://www.w3.org/2000/svg" xmlns:xlink="http://www.w3.org/1999/xlink" width="561.011" height="476.965" viewBox="0 0 420.759 357.724"><defs><style>*{stroke-linecap:butt;stroke-linejoin:round}</style></defs><g id="figure_1"><path id="patch_1" fill="none" d="M0 357.724h420.759V0H0z"/><g id="axes_1"><path id="patch_2" fill="none" d="M56.439 313.628h357.12V47.516H56.439z"/><path id="line2d_1" fill="none" stroke="gray" stroke-linecap="square" stroke-width="1.5" d="m245.628 180.676 88.85-94.946" clip-path="url(#p0a569a5e86)"/><path id="line2d_2" fill="none" stroke="gray" stroke-linecap="square" stroke-width="1.5" d="m245.628 180.676 19.324-108.757" clip-path="url(#p0a569a5e86)"/><path id="line2d_3" fill="none" stroke="gray" stroke-linecap="square" stroke-width="1.5" d="M245.628 180.676 215.78 60.506" clip-path="url(#p0a569a5e86)"/><path id="line2d_4" fill="none" stroke="gray" stroke-linecap="square" stroke-width="1.5" d="M245.628 180.676 176.946 67.798" clip-path="url(#p0a569a5e86)"/><path id="line2d_5" fill="none" stroke="gray" stroke-linecap="square" stroke-width="1.5" d="m245.628 180.676-122.9-103.047" clip-path="url(#p0a569a5e86)"/><path id="line2d_6" fill="none" stroke="gray" stroke-linecap="square" stroke-width="1.5" d="m245.628 180.676-86.954-11.79" clip-path="url(#p0a569a5e86)"/><path id="line2d_7" fill="none" stroke="gray" stroke-linecap="square" stroke-width="1.5" d="m245.628 180.676-60.506 22.522" clip-path="url(#p0a569a5e86)"/><path id="line2d_8" fill="none" stroke="gray" stroke-linecap="square" stroke-width="1.5" d="m245.628 180.676-30.24 48.095" clip-path="url(#p0a569a5e86)"/><path id="line2d_9" fill="none" stroke="gray" stroke-linecap="square" stroke-width="1.5" d="M245.628 180.676 307.6 301.532" clip-path="url(#p0a569a5e86)"/><path id="line2d_10" fill="none" stroke="gray" stroke-linecap="square" stroke-width="1.5" d="m245.628 180.676 89.922 81.546" clip-path="url(#p0a569a5e86)"/><path id="line2d_11" fill="none" stroke="gray" stroke-linecap="square" stroke-width="1.5" d="M245.628 180.676 347.27 237.07" clip-path="url(#p0a569a5e86)"/><path id="line2d_12" fill="none" stroke="gray" stroke-linecap="square" stroke-width="1.5" d="m245.628 180.676 93.669 14.26" clip-path="url(#p0a569a5e86)"/><g id="PathCollection_1"><defs><path id="C0_0_4793d6b211" d="M0 3a3 3 0 1 0 0-6 3 3 0 0 0 0 6z"/></defs><g clip-path="url(#p0a569a5e86)"><use xlink:href="#C0_0_4793d6b211" x="267.524" y="158.088" fill="#c78780" stroke="#c78780"/></g><g clip-path="url(#p0a569a5e86)"><use xlink:href="#C0_0_4793d6b211" x="289.706" y="137.253" fill="#e87562" stroke="#e87562"/></g><g clip-path="url(#p0a569a5e86)"><use xlink:href="#C0_0_4793d6b211" x="312.097" y="118.159" fill="#fff" stroke="#000"/></g><g clip-path="url(#p0a569a5e86)"><use xlink:href="#C0_0_4793d6b211" x="330.452" y="82.117" fill="#fff" stroke="#000"/></g></g><g id="PathCollection_2"><defs><path id="C1_0_e1219f7508" d="M0 3a3 3 0 1 0 0-6 3 3 0 0 0 0 6z"/></defs><g clip-path="url(#p0a569a5e86)"><use xlink:href="#C1_0_e1219f7508" x="246.324" y="158.712" fill="#e2c9b5" stroke="#e2c9b5"/></g><g clip-path="url(#p0a569a5e86)"><use xlink:href="#C1_0_e1219f7508" x="252.512" y="136.38" fill="#f6c592" stroke="#f6c592"/></g><g clip-path="url(#p0a569a5e86)"><use xlink:href="#C1_0_e1219f7508" x="257.864" y="109.205" fill="#fff" stroke="#000"/></g><g clip-path="url(#p0a569a5e86)"><use xlink:href="#C1_0_e1219f7508" x="266.245" y="72.157" fill="#fff" stroke="#000"/></g></g><g id="PathCollection_3"><defs><path id="C2_0_176ad0fee5" d="M0 3a3 3 0 1 0 0-6 3 3 0 0 0 0 6z"/></defs><g clip-path="url(#p0a569a5e86)"><use xlink:href="#C2_0_176ad0fee5" x="235.941" y="158.695" fill="#fff" stroke="#000"/></g><g clip-path="url(#p0a569a5e86)"><use xlink:href="#C2_0_176ad0fee5" x="230.51" y="133.926" fill="#fff" stroke="#000"/></g><g clip-path="url(#p0a569a5e86)"><use xlink:href="#C2_0_176ad0fee5" x="223.696" y="104.202" fill="#fff" stroke="#000"/></g><g clip-path="url(#p0a569a5e86)"><use xlink:href="#C2_0_176ad0fee5" x="219.643" y="59.612" fill="#fff" stroke="#000"/></g></g><g id="PathCollection_4"><defs><path id="C3_0_3000034f38" d="M0 3a3 3 0 1 0 0-6 3 3 0 0 0 0 6z"/></defs><g clip-path="url(#p0a569a5e86)"><use xlink:href="#C3_0_3000034f38" x="226.379" y="160.09" fill="#ecffe2" stroke="#ecffe2"/></g><g clip-path="url(#p0a569a5e86)"><use xlink:href="#C3_0_3000034f38" x="211.764" y="135.133" fill="#fff" stroke="#000"/></g><g clip-path="url(#p0a569a5e86)"><use xlink:href="#C3_0_3000034f38" x="196.929" y="105.954" fill="#fff" stroke="#000"/></g><g clip-path="url(#p0a569a5e86)"><use xlink:href="#C3_0_3000034f38" x="181.542" y="65.127" fill="#fff" stroke="#000"/></g></g><g id="PathCollection_5"><defs><path id="C4_0_0d65569897" d="M0 3a3 3 0 1 0 0-6 3 3 0 0 0 0 6z"/></defs><g clip-path="url(#p0a569a5e86)"><use xlink:href="#C4_0_0d65569897" x="214.9" y="160.667" fill="#c2efce" stroke="#c2efce"/></g><g clip-path="url(#p0a569a5e86)"><use xlink:href="#C4_0_0d65569897" x="187.495" y="135.074" fill="#9ef9a3" stroke="#9ef9a3"/></g><g clip-path="url(#p0a569a5e86)"><use xlink:href="#C4_0_0d65569897" x="158.184" y="106.825" fill="#fff" stroke="#000"/></g><g clip-path="url(#p0a569a5e86)"><use xlink:href="#C4_0_0d65569897" x="123.902" y="76.243" fill="#fff" stroke="#000"/></g></g><g id="PathCollection_6"><defs><path id="C5_0_22d58929c3" d="M0 3a3 3 0 1 0 0-6 3 3 0 0 0 0 6z"/></defs><g clip-path="url(#p0a569a5e86)"><use xlink:href="#C5_0_22d58929c3" x="225.28" y="175.929" fill="#d2f4f0" stroke="#d2f4f0"/></g><g clip-path="url(#p0a569a5e86)"><use xlink:href="#C5_0_22d58929c3" x="204.137" y="174.373" fill="#a6feed" stroke="#a6feed"/></g><g clip-path="url(#p0a569a5e86)"><use xlink:href="#C5_0_22d58929c3" x="182.42" y="173.12" fill="#fff" stroke="#000"/></g><g clip-path="url(#p0a569a5e86)"><use xlink:href="#C5_0_22d58929c3" x="158.666" y="168.945" fill="#fff" stroke="#000"/></g></g><g id="PathCollection_7"><defs><path id="C6_0_6e7de68c19" d="M0 3a3 3 0 1 0 0-6 3 3 0 0 0 0 6z"/></defs><g clip-path="url(#p0a569a5e86)"><use xlink:href="#C6_0_6e7de68c19" x="231.147" y="185.117" fill="#c4e2ee" stroke="#c4e2ee"/></g><g clip-path="url(#p0a569a5e86)"><use xlink:href="#C6_0_6e7de68c19" x="217.107" y="191.329" fill="#9fe9f8" stroke="#9fe9f8"/></g><g clip-path="url(#p0a569a5e86)"><use xlink:href="#C6_0_6e7de68c19" x="202.597" y="197.976" fill="#fff" stroke="#000"/></g><g clip-path="url(#p0a569a5e86)"><use xlink:href="#C6_0_6e7de68c19" x="184.89" y="202.567" fill="#fff" stroke="#000"/></g></g><g id="PathCollection_8"><defs><path id="C7_0_c3a4aeffed" d="M0 3a3 3 0 1 0 0-6 3 3 0 0 0 0 6z"/></defs><g clip-path="url(#p0a569a5e86)"><use xlink:href="#C7_0_c3a4aeffed" x="237.225" y="192.208" fill="#a0b6cf" stroke="#a0b6cf"/></g><g clip-path="url(#p0a569a5e86)"><use xlink:href="#C7_0_c3a4aeffed" x="228.416" y="203.783" fill="#7fbbe1" stroke="#7fbbe1"/></g><g clip-path="url(#p0a569a5e86)"><use xlink:href="#C7_0_c3a4aeffed" x="220.542" y="215.853" fill="#4cbff3" stroke="#4cbff3"/></g><g clip-path="url(#p0a569a5e86)"><use xlink:href="#C7_0_c3a4aeffed" x="218.239" y="230.449" fill="#fff" stroke="#000"/></g></g><g id="PathCollection_9"><defs><path id="C8_0_a69e9687ff" d="M0 3a3 3 0 1 0 0-6 3 3 0 0 0 0 6z"/></defs><g clip-path="url(#p0a569a5e86)"><use xlink:href="#C8_0_a69e9687ff" x="244.225" y="203.735" fill="#485c85" stroke="#485c85"/></g><g clip-path="url(#p0a569a5e86)"><use xlink:href="#C8_0_a69e9687ff" x="250.78" y="229.432" fill="#1e5ca9" stroke="#1e5ca9"/></g><g clip-path="url(#p0a569a5e86)"><use xlink:href="#C8_0_a69e9687ff" x="272.921" y="254.895" fill="#0754ce" stroke="#0754ce"/></g><g clip-path="url(#p0a569a5e86)"><use xlink:href="#C8_0_a69e9687ff" x="319.113" y="294.899" fill="#fff" stroke="#000"/></g></g><g id="PathCollection_10"><defs><path id="C9_0_590f5176c3" d="M0 3a3 3 0 1 0 0-6 3 3 0 0 0 0 6z"/></defs><g clip-path="url(#p0a569a5e86)"><use xlink:href="#C9_0_590f5176c3" x="264.915" y="198.348" fill="#9979a8" stroke="#9979a8"/></g><g clip-path="url(#p0a569a5e86)"><use xlink:href="#C9_0_590f5176c3" x="288.469" y="218.29" fill="#ac6bc6" stroke="#ac6bc6"/></g><g clip-path="url(#p0a569a5e86)"><use xlink:href="#C9_0_590f5176c3" x="309.942" y="239.294" fill="#b85be6" stroke="#b85be6"/></g><g clip-path="url(#p0a569a5e86)"><use xlink:href="#C9_0_590f5176c3" x="335.385" y="262.403" fill="#fff" stroke="#000"/></g></g><g id="PathCollection_11"><defs><path id="Ca_0_394e729a2f" d="M0 3a3 3 0 1 0 0-6 3 3 0 0 0 0 6z"/></defs><g clip-path="url(#p0a569a5e86)"><use xlink:href="#Ca_0_394e729a2f" x="268.92" y="193.443" fill="#c395c1" stroke="#c395c1"/></g><g clip-path="url(#p0a569a5e86)"><use xlink:href="#Ca_0_394e729a2f" x="294.754" y="206.087" fill="#df83d5" stroke="#df83d5"/></g><g clip-path="url(#p0a569a5e86)"><use xlink:href="#Ca_0_394e729a2f" x="320.705" y="219.395" fill="#f96cea" stroke="#f96cea"/></g><g clip-path="url(#p0a569a5e86)"><use xlink:href="#Ca_0_394e729a2f" x="345.951" y="239.385" fill="#fff" stroke="#000"/></g></g><g id="PathCollection_12"><defs><path id="Cb_0_44fdd5a245" d="M0 3a3 3 0 1 0 0-6 3 3 0 0 0 0 6z"/></defs><g clip-path="url(#p0a569a5e86)"><use xlink:href="#Cb_0_44fdd5a245" x="269.978" y="183.054" fill="#c990af" stroke="#c990af"/></g><g clip-path="url(#p0a569a5e86)"><use xlink:href="#Cb_0_44fdd5a245" x="295.308" y="190.473" fill="#e67fbb" stroke="#e67fbb"/></g><g clip-path="url(#p0a569a5e86)"><use xlink:href="#Cb_0_44fdd5a245" x="318.328" y="192.735" fill="#fff" stroke="#000"/></g><g clip-path="url(#p0a569a5e86)"><use xlink:href="#Cb_0_44fdd5a245" x="339.525" y="193.35" fill="#fff" stroke="#000"/></g></g><g id="matplotlib.axis_1"><g id="xtick_1"><g id="line2d_13"><defs><path id="m5454bde79b" stroke="#969696" stroke-width=".4" d="M0 0v3.5"/></defs><use xlink:href="#m5454bde79b" x="62.67" y="313.628" fill="#969696" stroke="#969696" stroke-width=".4"/></g><g id="text_1" fill="#969696" transform="matrix(.14 0 0 -.14 46.89 330.678)"><defs><path id="HelveticaWorld-Regular-8722" d="M54.594 21.578H4v7.328h50.594z"/><path id="HelveticaWorld-Regular-49" d="M35.89 0h-9.374v49.906H10.109v6.985q8.594.28 12.782 2.75Q27.094 62.109 29 70.313h6.89z"/><path id="HelveticaWorld-Regular-53" d="M14.703 40.922q5.813 4.39 13.625 4.39 9.469 0 16.281-6.296 6.813-6.297 6.813-16.22 0-10.78-6.578-17.796-6.563-7-18.422-7-10.313 0-16.266 5.047Q4.203 8.109 3.22 17.39h9.094q.671-5.672 4.437-8.672 3.766-3 10.453-3 6.485 0 10.64 4.484Q42 14.703 42 21.688q0 7.125-4.36 11.421-4.343 4.297-11.218 4.297-7.813 0-13.047-6.687l-7.563.39 5.266 37.594h36.438v-8.5H17.672z"/><path id="HelveticaWorld-Regular-48" d="M42.484 34.188q0 14.109-3.734 21.156-3.734 7.062-10.969 7.062-7.078 0-10.89-7.062-3.797-7.047-3.797-21.157 0-13.671 3.75-20.937Q20.609 6 27.78 6q7.235 0 10.969 7 3.734 7.016 3.734 21.188zm9.422 0q0-17.297-6.25-26.704-6.25-9.39-17.875-9.39-12.062 0-18.062 9.734-6 9.75-6 26.36 0 17.03 6.14 26.578 6.157 9.547 17.922 9.547 11.625 0 17.875-9.5t6.25-26.626z"/></defs><use xlink:href="#HelveticaWorld-Regular-8722"/><use xlink:href="#HelveticaWorld-Regular-49" x="58.594"/><use xlink:href="#HelveticaWorld-Regular-53" x="114.209"/><use xlink:href="#HelveticaWorld-Regular-48" x="169.824"/></g></g><g id="xtick_2"><use xlink:href="#m5454bde79b" id="line2d_14" x="121.593" y="313.628" fill="#969696" stroke="#969696" stroke-width=".4"/><g id="text_2" fill="#969696" transform="matrix(.14 0 0 -.14 105.813 330.678)"><use xlink:href="#HelveticaWorld-Regular-8722"/><use xlink:href="#HelveticaWorld-Regular-49" x="58.594"/><use xlink:href="#HelveticaWorld-Regular-48" x="114.209"/><use xlink:href="#HelveticaWorld-Regular-48" x="169.824"/></g></g><g id="xtick_3"><use xlink:href="#m5454bde79b" id="line2d_15" x="180.515" y="313.628" fill="#969696" stroke="#969696" stroke-width=".4"/><g id="text_3" fill="#969696" transform="matrix(.14 0 0 -.14 168.628 330.678)"><use xlink:href="#HelveticaWorld-Regular-8722"/><use xlink:href="#HelveticaWorld-Regular-53" x="58.594"/><use xlink:href="#HelveticaWorld-Regular-48" x="114.209"/></g></g><g id="xtick_4"><use xlink:href="#m5454bde79b" id="line2d_16" x="239.438" y="313.628" fill="#969696" stroke="#969696" stroke-width=".4"/><use xlink:href="#HelveticaWorld-Regular-48" id="text_4" fill="#969696" transform="matrix(.14 0 0 -.14 235.545 330.678)"/></g><g id="xtick_5"><use xlink:href="#m5454bde79b" id="line2d_17" x="298.36" y="313.628" fill="#969696" stroke="#969696" stroke-width=".4"/><g id="text_5" fill="#969696" transform="matrix(.14 0 0 -.14 290.575 330.678)"><use xlink:href="#HelveticaWorld-Regular-53"/><use xlink:href="#HelveticaWorld-Regular-48" x="55.615"/></g></g><g id="xtick_6"><use xlink:href="#m5454bde79b" id="line2d_18" x="357.283" y="313.628" fill="#969696" stroke="#969696" stroke-width=".4"/><g id="text_6" fill="#969696" transform="matrix(.14 0 0 -.14 345.605 330.678)"><use xlink:href="#HelveticaWorld-Regular-49"/><use xlink:href="#HelveticaWorld-Regular-48" x="55.615"/><use xlink:href="#HelveticaWorld-Regular-48" x="111.23"/></g></g><g id="text_7" fill="#969696" transform="matrix(.14 0 0 -.14 228.428 347.625)"><defs><path id="HelveticaWorld-Regular-97" d="M38.375 26.703q-.969-1.015-3.828-1.656-2.86-.625-10.672-1.656-5.766-.688-8.469-2.844-2.703-2.14-2.703-5.656 0-4.297 2.281-6.688 2.297-2.39 7.329-2.39 6.296 0 11.171 3.578 4.891 3.593 4.891 8.718zM6.203 36.375q.297 8.844 5.734 13.14 5.454 4.297 15.844 4.297 8.297 0 13.907-3.765 5.624-3.75 5.624-10.844V9.078Q47.313 6 50.094 6q1.125 0 2.89.39V0Q50.594-.984 48-.984q-4.5 0-6.703 1.921-2.188 1.938-2.281 6.047-7.516-8.5-18.891-8.5-7.422 0-11.922 4.204Q3.72 6.89 3.72 13.624q0 6.89 3.906 11.125Q11.531 29 19 29.89l15.516 1.891q4.203.64 4.203 6.203 0 4.11-3.047 6.297-3.047 2.203-9.25 2.203-5.516 0-8.485-2.437-2.953-2.438-3.53-7.672z"/><path id="HelveticaWorld-Regular-42" d="m5.906 64.594 10.5-3.797V71.78h6V60.797l10.5 3.797 2-5.516-10.781-3.36 6.688-9.234-4.938-3.375-6.484 9.375-6.5-9.375-4.875 3.375 6.687 9.235-10.797 3.36z"/></defs><use xlink:href="#HelveticaWorld-Regular-97"/><use xlink:href="#HelveticaWorld-Regular-42" x="54.932"/></g></g><g id="matplotlib.axis_2"><g id="ytick_1"><g id="line2d_19"><defs><path id="m6982dc3941" stroke="#969696" stroke-width=".3" d="M0 0h-3.5"/></defs><use xlink:href="#m6982dc3941" x="56.439" y="291.96" fill="#969696" stroke="#969696" stroke-width=".3"/></g><g id="text_8" fill="#969696" transform="matrix(.14 0 0 -.14 17.88 296.984)"><use xlink:href="#HelveticaWorld-Regular-8722"/><use xlink:href="#HelveticaWorld-Regular-49" x="58.594"/><use xlink:href="#HelveticaWorld-Regular-48" x="114.209"/><use xlink:href="#HelveticaWorld-Regular-48" x="169.824"/></g></g><g id="ytick_2"><use xlink:href="#m6982dc3941" id="line2d_20" x="56.439" y="233.037" fill="#969696" stroke="#969696" stroke-width=".3"/><g id="text_9" fill="#969696" transform="matrix(.14 0 0 -.14 25.665 238.062)"><use xlink:href="#HelveticaWorld-Regular-8722"/><use xlink:href="#HelveticaWorld-Regular-53" x="58.594"/><use xlink:href="#HelveticaWorld-Regular-48" x="114.209"/></g></g><g id="ytick_3"><use xlink:href="#m6982dc3941" id="line2d_21" x="56.439" y="174.114" fill="#969696" stroke="#969696" stroke-width=".3"/><use xlink:href="#HelveticaWorld-Regular-48" id="text_10" fill="#969696" transform="matrix(.14 0 0 -.14 41.653 179.14)"/></g><g id="ytick_4"><use xlink:href="#m6982dc3941" id="line2d_22" x="56.439" y="115.192" fill="#969696" stroke="#969696" stroke-width=".3"/><g id="text_11" fill="#969696" transform="matrix(.14 0 0 -.14 33.868 120.217)"><use xlink:href="#HelveticaWorld-Regular-53"/><use xlink:href="#HelveticaWorld-Regular-48" x="55.615"/></g></g><g id="ytick_5"><use xlink:href="#m6982dc3941" id="line2d_23" x="56.439" y="56.269" fill="#969696" stroke="#969696" stroke-width=".3"/><g id="text_12" fill="#969696" transform="matrix(.14 0 0 -.14 26.083 61.294)"><use xlink:href="#HelveticaWorld-Regular-49"/><use xlink:href="#HelveticaWorld-Regular-48" x="55.615"/><use xlink:href="#HelveticaWorld-Regular-48" x="111.23"/></g></g><g id="text_13" fill="#969696" transform="matrix(.14 0 0 -.14 7.2 177.674)"><defs><path id="HelveticaWorld-Regular-98" d="M43.406 26.313q0 10.5-3.718 15.046-3.704 4.547-10.579 4.547-6.984-.11-10.562-5.453Q14.984 35.11 14.984 25q0-10.297 4.297-14.594Q23.578 6.11 29.297 6.11q6.5 0 10.297 5.344 3.812 5.344 3.812 14.86zM6.594 0v71.781h8.781V45.703h.203q5.61 8.11 15.14 8.11 9.766 0 15.766-7.25t6-18.876q0-13.093-6.062-21.156Q40.375-1.516 29.5-1.516q-9.578 0-14.406 8.016h-.203V0z"/></defs><use xlink:href="#HelveticaWorld-Regular-98"/><use xlink:href="#HelveticaWorld-Regular-42" x="56.494"/></g></g><g id="text_14" fill="#969696" transform="matrix(.14 0 0 -.14 107.41 17.516)"><defs><path id="HelveticaWorld-Regular-72" d="M64.89 0h-9.718v33.5h-37.5V0H8.109v71.781h9.563V42.094h37.5V71.78h9.719z"/><path id="HelveticaWorld-Regular-117" d="M6.11 52.297h8.78V17.578q0-5.765 2.61-8.625Q20.125 6.11 25 6.11q6.781 0 10.594 4.797 3.812 4.813 3.812 12.578v28.813h8.782V0H39.89v7.625l-.188.188q-4.984-9.329-16.61-9.329-7.515 0-12.25 4.094Q6.11 6.688 6.11 14.703z"/><path id="HelveticaWorld-Regular-110" d="M49.219 0h-8.844v32.172q0 7.422-2.594 10.578-2.578 3.156-8.578 3.156-5.906 0-9.875-4.5-3.953-4.484-3.953-12.89V0H6.594v52.297h8.297v-7.375h.203q6.203 8.89 15.812 8.89 8.89 0 13.594-4.718 4.719-4.703 4.719-13.5z"/><path id="HelveticaWorld-Regular-103" d="M12.984 26.313q0-9.61 3.813-14.907Q20.609 6.11 27.094 6.11q6.312 0 10.312 4.579 4 4.593 4 13 0 11.03-3.5 16.625-3.484 5.593-10.61 5.593-7.171 0-10.75-4.765-3.562-4.766-3.562-14.828zm36.828-23.33q0-12.609-6.062-18.797-6.047-6.203-18.266-6.203-8.78 0-13.984 4.047-5.203 4.048-5.984 11.58h8.796q.672-3.812 3.532-6.062 2.86-2.25 8.281-2.25 7.375 0 11.125 3.969 3.766 3.953 3.766 12.828v3.719h-.188q-4.937-7.329-13.922-7.329-11.187 0-17.093 8.25-5.907 8.25-5.907 20.953 0 11.625 5.953 18.875 5.97 7.25 15.829 7.25 9.906 0 15.625-8.89h.187v7.375h8.313z"/><path id="HelveticaWorld-Regular-45" d="M28.906 23.188H4.391v8.984h24.515z"/><path id="HelveticaWorld-Regular-66" d="M8.11 71.781h31.484q9.281 0 14.797-5.031 5.515-5.031 5.515-13.031 0-4.844-2.422-8.828-2.406-3.97-7.187-6.172 6.687-2.532 9.828-6.735 3.156-4.203 3.156-10.797 0-9.265-6.687-15.234Q49.906 0 38.922 0H8.109zm9.562-63.484h20.703q7.625 0 11.422 3.531 3.812 3.547 3.812 9.563 0 6.093-4.25 9.093Q45.125 33.5 36.812 33.5h-19.14zm0 33.11h17.625q7.719 0 11.312 2.796 3.594 2.813 3.594 8.781 0 5.125-3.406 7.813-3.39 2.687-11.39 2.687H17.671z"/><path id="HelveticaWorld-Regular-101" d="M42.484 30.328q-.687 8.485-4.5 12.031-3.797 3.547-10.109 3.547-6.39 0-10.328-4.5-3.922-4.484-4.172-11.078zm8.391-13.922q-1.453-8.11-7.953-13.422-5.719-4.5-15.047-4.593-10.984.093-17.438 7.203Q4 12.704 4 24.704q0 13.78 6.64 21.437 6.641 7.672 18.47 7.672 10.593 0 16.546-7.922 5.953-7.907 5.953-22.594H13.375q0-8.203 3.813-12.703Q21 6.109 28.608 6.109q5.375 0 9.235 3.235 3.86 3.25 4.25 7.062z"/><path id="HelveticaWorld-Regular-114" d="M15.375 0H6.594v52.297h8.297v-8.688h.203q5.703 10.203 14.687 10.203 1.422 0 2.297-.296V44.39h-3.266q-5.906 0-9.671-4.016-3.766-4-3.766-9.953z"/><path id="HelveticaWorld-Regular-115" d="M36.078 37.406q-.187 4.688-3.344 6.735-3.14 2.047-9.047 2.047-4.296 0-7.359-1.907-3.047-1.89-3.047-5.468 0-2.829 1.797-4.172 1.813-1.344 7.828-2.86l8.688-2.187q7.906-2 11.297-5.11 3.406-3.093 3.406-8.656 0-7.719-5.64-12.531-5.641-4.813-15.063-4.813-11 0-16.64 4.563-5.626 4.578-5.735 13.75h8.5q.203-5.422 3.594-8.063 3.39-2.625 10.171-2.625 5.516 0 8.766 2.188 3.25 2.203 3.25 6.11 0 2.78-2.11 4.437-2.093 1.672-8.296 3.078l-10.203 2.5q-6.203 1.562-9.157 4.656-2.953 3.094-2.953 8.031 0 7.72 5.516 12.203 5.531 4.5 14.406 4.5 9.485 0 14.531-4.624 5.047-4.61 5.344-11.782z"/><path id="HelveticaWorld-Regular-104" d="M49.219 0h-8.844v34.188q0 6.296-2.438 9-2.437 2.718-7.953 2.718-6.797 0-10.703-4.406-3.906-4.39-3.906-12.984V0H6.594v71.781h8.781V45.312h.203q6 8.5 15.328 8.5 8.594 0 13.453-4.5 4.86-4.484 4.86-13.718z"/><path id="HelveticaWorld-Regular-108" d="M15.375 0H6.594v71.781h8.781z"/><path id="HelveticaWorld-Regular-105" d="M6.594 61.813v9.968h8.781v-9.969zM15.375 0H6.594v52.297h8.781z"/><path id="HelveticaWorld-Regular-116" d="M17.188 45.016V10.984q0-2 1.093-3.046 1.11-1.047 3.938-1.047h3.375V0Q20.797-.688 19-.688q-5.516 0-8.063 2.641-2.53 2.64-2.53 8.547v34.516H1.311v7.28h7.094v14.595h8.781V52.297h8.407v-7.281z"/><path id="HelveticaWorld-Regular-121" d="M39.016 52.297h9.562L29.891.984q-.5-1.375-.985-2.593-4.25-11.329-7.328-15.547-3.078-4.235-9.953-4.235-3.61 0-5.906.782v8.015q2.484-.89 5.468-.89 3.22 0 4.704 2.03 1.5 2.032 4.421 9.938L.875 52.297h9.922L24.812 9.719H25z"/><path id="HelveticaWorld-Regular-100" d="M13.094 26.313q0-9.704 3.844-14.954 3.859-5.25 10.265-5.25 6.094 0 10.188 4.485 4.109 4.5 4.109 13.094 0 11.03-3.5 16.625-3.484 5.593-10.61 5.593-6.78 0-10.546-4.453-3.75-4.437-3.75-15.14zM50.39 0h-8.297v7.172h-.203q-4.97-8.688-15.078-8.688-10.891 0-16.86 8.297Q4 15.094 4 27.688q0 11.625 5.906 18.875 5.922 7.25 15.875 7.25 9.813 0 15.625-8.891l.203.594V71.78h8.782z"/><path id="HelveticaWorld-Regular-102" d="M17.188 45.016V0H8.405v45.016H1.22v7.28h7.187v8.985q0 5.907 3.578 8.703 3.594 2.813 10.032 2.813 2.203 0 3.968-.188v-7.906q-1.562.188-3.578.188-2.922 0-4.078-1.438-1.14-1.437-1.14-4.656v-6.5h8.796v-7.281z"/><path id="HelveticaWorld-Regular-111" d="M12.703 26.219q0-8.735 3.953-14.375 3.953-5.64 11.219-5.64 7.531 0 11.438 5.905 3.906 5.907 3.906 14.11 0 8.297-3.907 14.078-3.906 5.797-11.437 5.797-6.969 0-11.078-5.453-4.094-5.438-4.094-14.422zm-8.984 0q0 11.672 6.484 19.625 6.5 7.968 17.672 7.968 11.438 0 17.875-8.062 6.453-8.047 6.453-19.531 0-11.516-6.406-19.625-6.39-8.11-17.922-8.11-11.078 0-17.625 7.86-6.531 7.86-6.531 19.875z"/><path id="HelveticaWorld-Regular-67" d="M58.016 50.203q-1.625 7.313-6.782 11.094-5.14 3.797-13.343 3.797-10.594 0-17.047-7.703-6.438-7.688-6.438-20.766 0-15.14 6.094-22.547 6.11-7.39 17.688-7.39 7.609 0 13.093 5.046 5.5 5.063 7.407 14.688h9.421Q66.22 12.594 57.625 5.344t-20.906-7.25q-14.703 0-23.516 10.11Q4.391 18.311 4.391 36.28q0 17.328 9.203 27.36 9.203 10.047 24.297 10.047 12.5 0 20.265-6.454 7.766-6.437 9.235-17.03z"/><path id="HelveticaWorld-Regular-73" d="M17.828 0H8.11v71.781h9.72z"/><path id="HelveticaWorld-Regular-69" d="M61.078 0H8.11v71.781h52.297v-8.594H17.828V41.22h39.25v-8.594h-39.25V8.594h43.25z"/><path id="HelveticaWorld-Regular-76" d="M17.672 8.594h36.531V0H8.11v71.781h9.563z"/><path id="HelveticaWorld-Regular-65" d="M44 29.5 33.406 61.078h-.203L21.687 29.5zm-25.297-8.594L11.188 0h-9.97l27 71.781h10.985L65.187 0H54.594l-7.078 20.906z"/></defs><use xlink:href="#HelveticaWorld-Regular-72"/><use xlink:href="#HelveticaWorld-Regular-117" x="72.998"/><use xlink:href="#HelveticaWorld-Regular-110" x="127.783"/><use xlink:href="#HelveticaWorld-Regular-103" x="182.959"/><use xlink:href="#HelveticaWorld-Regular-45" x="238.867"/><use xlink:href="#HelveticaWorld-Regular-66" x="272.168"/><use xlink:href="#HelveticaWorld-Regular-101" x="339.355"/><use xlink:href="#HelveticaWorld-Regular-114" x="394.775"/><use xlink:href="#HelveticaWorld-Regular-110" x="427.344"/><use xlink:href="#HelveticaWorld-Regular-115" x="482.52"/><use xlink:href="#HelveticaWorld-Regular-32" x="532.52"/><use xlink:href="#HelveticaWorld-Regular-104" x="556.934"/><use xlink:href="#HelveticaWorld-Regular-117" x="612.109"/><use xlink:href="#HelveticaWorld-Regular-101" x="666.895"/><use xlink:href="#HelveticaWorld-Regular-32" x="722.314"/><use xlink:href="#HelveticaWorld-Regular-108" x="746.729"/><use xlink:href="#HelveticaWorld-Regular-105" x="768.75"/><use xlink:href="#HelveticaWorld-Regular-110" x="790.771"/><use xlink:href="#HelveticaWorld-Regular-101" x="845.947"/><use xlink:href="#HelveticaWorld-Regular-97" x="901.367"/><use xlink:href="#HelveticaWorld-Regular-114" x="956.299"/><use xlink:href="#HelveticaWorld-Regular-105" x="988.867"/><use xlink:href="#HelveticaWorld-Regular-116" x="1010.889"/><use xlink:href="#HelveticaWorld-Regular-121" x="1038.574"/><use xlink:href="#HelveticaWorld-Regular-32" x="1088.184"/><use xlink:href="#HelveticaWorld-Regular-100" x="1112.598"/><use xlink:href="#HelveticaWorld-Regular-97" x="1169.58"/><use xlink:href="#HelveticaWorld-Regular-116" x="1224.512"/><use xlink:href="#HelveticaWorld-Regular-97" x="1252.197"/><use xlink:href="#HelveticaWorld-Regular-32" x="1307.129"/><use xlink:href="#HelveticaWorld-Regular-102" x="1331.543"/><use xlink:href="#HelveticaWorld-Regular-111" x="1357.229"/><use xlink:href="#HelveticaWorld-Regular-114" x="1413.137"/><use xlink:href="#HelveticaWorld-Regular-32" x="1445.705"/><use xlink:href="#HelveticaWorld-Regular-67" x="1470.119"/><use xlink:href="#HelveticaWorld-Regular-73" x="1542.434"/><use xlink:href="#HelveticaWorld-Regular-69" x="1568.215"/><use xlink:href="#HelveticaWorld-Regular-76" x="1633.205"/><use xlink:href="#HelveticaWorld-Regular-65" x="1688.82"/><use xlink:href="#HelveticaWorld-Regular-66" x="1755.52"/></g></g></g><defs><clipPath id="p0a569a5e86"><path d="M56.439 47.516h357.12v266.112H56.439z"/></clipPath></defs></svg>