<svg xmlns="http://www.w3.org/2000/svg" xmlns:xlink="http://www.w3.org/1999/xlink" width="545.554" height="396.254" viewBox="0 0 409.165 297.19"><defs><style>*{stroke-linecap:butt;stroke-linejoin:round}</style></defs><g id="figure_1"><path id="patch_1" fill="none" d="M0 297.19h409.165V0H0z"/><g id="axes_1"><path id="patch_2" fill="none" d="M44.845 273.312h357.12V7.2H44.845z"/><g id="matplotlib.axis_1"><g id="xtick_1"><g id="line2d_1"><defs><path id="me2cc207e71" stroke="#000" stroke-width=".8" d="M0 0v3.5"/></defs><use xlink:href="#me2cc207e71" x="88.991" y="273.312" stroke="#000" stroke-width=".8"/></g><g id="text_1"><defs><path id="DejaVuSans-8722" d="M10.594 35.5h62.593v-8.297H10.594z"/><path id="DejaVuSans-48" d="M31.781 66.406q-7.61 0-11.453-7.5Q16.5 51.422 16.5 36.375q0-14.984 3.828-22.484 3.844-7.5 11.453-7.5 7.672 0 11.5 7.5 3.844 7.5 3.844 22.484 0 15.047-3.844 22.531-3.828 7.5-11.5 7.5zm0 7.813q12.266 0 18.735-9.703 6.468-9.688 6.468-28.141 0-18.406-6.468-28.11-6.47-9.687-18.735-9.687-12.25 0-18.718 9.688-6.47 9.703-6.47 28.109 0 18.453 6.47 28.14Q19.53 74.22 31.78 74.22z"/><path id="DejaVuSans-46" d="M10.688 12.406H21V0H10.687z"/><path id="DejaVuSans-49" d="M12.406 8.297h16.11v55.625l-17.532-3.516v8.985l17.438 3.515h9.86V8.296H54.39V0H12.406z"/><path id="DejaVuSans-53" d="M10.797 72.906h38.719v-8.312H19.828v-17.86q2.14.735 4.281 1.094 2.157.36 4.313.36 12.203 0 19.328-6.688 7.14-6.688 7.14-18.11 0-11.765-7.328-18.296-7.328-6.516-20.656-6.516-4.593 0-9.36.781-4.75.782-9.827 2.344v9.922q4.39-2.39 9.078-3.563 4.687-1.171 9.906-1.171 8.453 0 13.375 4.437 4.938 4.438 4.938 12.063 0 7.609-4.938 12.047-4.922 4.453-13.375 4.453-3.953 0-7.89-.875-3.922-.875-8.016-2.735z"/></defs><g transform="matrix(.1 0 0 -.1 73.669 287.91)"><use xlink:href="#DejaVuSans-8722"/><use xlink:href="#DejaVuSans-48" x="83.789"/><use xlink:href="#DejaVuSans-46" x="147.412"/><use xlink:href="#DejaVuSans-49" x="179.199"/><use xlink:href="#DejaVuSans-53" x="242.822"/></g></g></g><g id="xtick_2"><use xlink:href="#me2cc207e71" id="line2d_2" x="134.147" y="273.312" stroke="#000" stroke-width=".8"/><g id="text_2" transform="matrix(.1 0 0 -.1 118.825 287.91)"><use xlink:href="#DejaVuSans-8722"/><use xlink:href="#DejaVuSans-48" x="83.789"/><use xlink:href="#DejaVuSans-46" x="147.412"/><use xlink:href="#DejaVuSans-49" x="179.199"/><use xlink:href="#DejaVuSans-48" x="242.822"/></g></g><g id="xtick_3"><use xlink:href="#me2cc207e71" id="line2d_3" x="179.304" y="273.312" stroke="#000" stroke-width=".8"/><g id="text_3" transform="matrix(.1 0 0 -.1 163.981 287.91)"><use xlink:href="#DejaVuSans-8722"/><use xlink:href="#DejaVuSans-48" x="83.789"/><use xlink:href="#DejaVuSans-46" x="147.412"/><use xlink:href="#DejaVuSans-48" x="179.199"/><use xlink:href="#DejaVuSans-53" x="242.822"/></g></g><g id="xtick_4"><use xlink:href="#me2cc207e71" id="line2d_4" x="224.46" y="273.312" stroke="#000" stroke-width=".8"/><g id="text_4" transform="matrix(.1 0 0 -.1 213.327 287.91)"><use xlink:href="#DejaVuSans-48"/><use xlink:href="#DejaVuSans-46" x="63.623"/><use xlink:href="#DejaVuSans-48" x="95.41"/><use xlink:href="#DejaVuSans-48" x="159.033"/></g></g><g id="xtick_5"><use xlink:href="#me2cc207e71" id="line2d_5" x="269.616" y="273.312" stroke="#000" stroke-width=".8"/><g id="text_5" transform="matrix(.1 0 0 -.1 258.483 287.91)"><use xlink:href="#DejaVuSans-48"/><use xlink:href="#DejaVuSans-46" x="63.623"/><use xlink:href="#DejaVuSans-48" x="95.41"/><use xlink:href="#DejaVuSans-53" x="159.033"/></g></g><g id="xtick_6"><use xlink:href="#me2cc207e71" id="line2d_6" x="314.772" y="273.312" stroke="#000" stroke-width=".8"/><g id="text_6" transform="matrix(.1 0 0 -.1 303.64 287.91)"><use xlink:href="#DejaVuSans-48"/><use xlink:href="#DejaVuSans-46" x="63.623"/><use xlink:href="#DejaVuSans-49" x="95.41"/><use xlink:href="#DejaVuSans-48" x="159.033"/></g></g><g id="xtick_7"><use xlink:href="#me2cc207e71" id="line2d_7" x="359.928" y="273.312" stroke="#000" stroke-width=".8"/><g id="text_7" transform="matrix(.1 0 0 -.1 348.795 287.91)"><use xlink:href="#DejaVuSans-48"/><use xlink:href="#DejaVuSans-46" x="63.623"/><use xlink:href="#DejaVuSans-49" x="95.41"/><use xlink:href="#DejaVuSans-53" x="159.033"/></g></g></g><g id="matplotlib.axis_2"><g id="ytick_1"><g id="line2d_8"><defs><path id="ma6cc128678" stroke="#000" stroke-width=".8" d="M0 0h-3.5"/></defs><use xlink:href="#ma6cc128678" x="44.845" y="261.363" stroke="#000" stroke-width=".8"/></g><g id="text_8" transform="matrix(.1 0 0 -.1 7.2 265.162)"><use xlink:href="#DejaVuSans-8722"/><use xlink:href="#DejaVuSans-48" x="83.789"/><use xlink:href="#DejaVuSans-46" x="147.412"/><use xlink:href="#DejaVuSans-49" x="179.199"/><use xlink:href="#DejaVuSans-53" x="242.822"/></g></g><g id="ytick_2"><use xlink:href="#ma6cc128678" id="line2d_9" x="44.845" y="216.207" stroke="#000" stroke-width=".8"/><g id="text_9" transform="matrix(.1 0 0 -.1 7.2 220.006)"><use xlink:href="#DejaVuSans-8722"/><use xlink:href="#DejaVuSans-48" x="83.789"/><use xlink:href="#DejaVuSans-46" x="147.412"/><use xlink:href="#DejaVuSans-49" x="179.199"/><use xlink:href="#DejaVuSans-48" x="242.822"/></g></g><g id="ytick_3"><use xlink:href="#ma6cc128678" id="line2d_10" x="44.845" y="171.05" stroke="#000" stroke-width=".8"/><g id="text_10" transform="matrix(.1 0 0 -.1 7.2 174.85)"><use xlink:href="#DejaVuSans-8722"/><use xlink:href="#DejaVuSans-48" x="83.789"/><use xlink:href="#DejaVuSans-46" x="147.412"/><use xlink:href="#DejaVuSans-48" x="179.199"/><use xlink:href="#DejaVuSans-53" x="242.822"/></g></g><g id="ytick_4"><use xlink:href="#ma6cc128678" id="line2d_11" x="44.845" y="125.894" stroke="#000" stroke-width=".8"/><g id="text_11" transform="matrix(.1 0 0 -.1 15.58 129.693)"><use xlink:href="#DejaVuSans-48"/><use xlink:href="#DejaVuSans-46" x="63.623"/><use xlink:href="#DejaVuSans-48" x="95.41"/><use xlink:href="#DejaVuSans-48" x="159.033"/></g></g><g id="ytick_5"><use xlink:href="#ma6cc128678" id="line2d_12" x="44.845" y="80.738" stroke="#000" stroke-width=".8"/><g id="text_12" transform="matrix(.1 0 0 -.1 15.58 84.537)"><use xlink:href="#DejaVuSans-48"/><use xlink:href="#DejaVuSans-46" x="63.623"/><use xlink:href="#DejaVuSans-48" x="95.41"/><use xlink:href="#DejaVuSans-53" x="159.033"/></g></g><g id="ytick_6"><use xlink:href="#ma6cc128678" id="line2d_13" x="44.845" y="35.582" stroke="#000" stroke-width=".8"/><g id="text_13" transform="matrix(.1 0 0 -.1 15.58 39.381)"><use xlink:href="#DejaVuSans-48"/><use xlink:href="#DejaVuSans-46" x="63.623"/><use xlink:href="#DejaVuSans-49" x="95.41"/><use xlink:href="#DejaVuSans-48" x="159.033"/></g></g></g><path id="line2d_14" fill="none" stroke="gray" stroke-linecap="square" stroke-width="1.5" d="m228.3 132.374 82.865-96.387" clip-path="url(#pb3d8ee72cb)"/><g id="line2d_15"><defs><path id="m1436a26284" stroke="#c78780" d="M0 3a3 3 0 1 0 0-6 3 3 0 0 0 0 6z"/></defs><g clip-path="url(#pb3d8ee72cb)"><use xlink:href="#m1436a26284" x="253.592" y="104.065" fill="#c78780" stroke="#c78780"/></g></g><g id="line2d_16"><defs><path id="mcbb03c2c56" stroke="#e87562" d="M0 3a3 3 0 1 0 0-6 3 3 0 0 0 0 6z"/></defs><g clip-path="url(#pb3d8ee72cb)"><use xlink:href="#mcbb03c2c56" x="274.947" y="79.032" fill="#e87562" stroke="#e87562"/></g></g><g id="line2d_17"><defs><path id="m98acf9e746" stroke="#000" d="M0 3a3 3 0 1 0 0-6 3 3 0 0 0 0 6z"/></defs><g clip-path="url(#pb3d8ee72cb)"><use xlink:href="#m98acf9e746" x="294.646" y="58.885" fill="#fff" stroke="#000"/></g></g><g id="line2d_18" clip-path="url(#pb3d8ee72cb)"><use xlink:href="#m98acf9e746" x="308.307" y="33.602" fill="#fff" stroke="#000"/></g><path id="line2d_19" fill="none" stroke="gray" stroke-linecap="square" stroke-width="1.5" d="m228.3 132.374 20.579-105.8" clip-path="url(#pb3d8ee72cb)"/><g id="line2d_20"><defs><path id="m98ce0f6e0b" stroke="#e2c9b5" d="M0 3a3 3 0 1 0 0-6 3 3 0 0 0 0 6z"/></defs><g clip-path="url(#pb3d8ee72cb)"><use xlink:href="#m98ce0f6e0b" x="232.973" y="107.971" fill="#e2c9b5" stroke="#e2c9b5"/></g></g><g id="line2d_21"><defs><path id="m493ddb30f2" stroke="#f6c592" d="M0 3a3 3 0 1 0 0-6 3 3 0 0 0 0 6z"/></defs><g clip-path="url(#pb3d8ee72cb)"><use xlink:href="#m493ddb30f2" x="239.704" y="83.151" fill="#f6c592" stroke="#f6c592"/></g></g><g id="line2d_22" clip-path="url(#pb3d8ee72cb)"><use xlink:href="#m98acf9e746" x="243.311" y="55.751" fill="#fff" stroke="#000"/></g><g id="line2d_23" clip-path="url(#pb3d8ee72cb)"><use xlink:href="#m98acf9e746" x="247.081" y="26.241" fill="#fff" stroke="#000"/></g><path id="line2d_24" fill="none" stroke="gray" stroke-linecap="square" stroke-width="1.5" d="M228.3 132.374 208.139 19.296" clip-path="url(#pb3d8ee72cb)"/><g id="line2d_25" clip-path="url(#pb3d8ee72cb)"><use xlink:href="#m98acf9e746" x="223.781" y="109.854" fill="#fff" stroke="#000"/></g><g id="line2d_26" clip-path="url(#pb3d8ee72cb)"><use xlink:href="#m98acf9e746" x="220.971" y="84.4" fill="#fff" stroke="#000"/></g><g id="line2d_27" clip-path="url(#pb3d8ee72cb)"><use xlink:href="#m98acf9e746" x="214.693" y="55.625" fill="#fff" stroke="#000"/></g><g id="line2d_28" clip-path="url(#pb3d8ee72cb)"><use xlink:href="#m98acf9e746" x="207.367" y="19.436" fill="#fff" stroke="#000"/></g><path id="line2d_29" fill="none" stroke="gray" stroke-linecap="square" stroke-width="1.5" d="M228.3 132.374 175.007 25.85" clip-path="url(#pb3d8ee72cb)"/><g id="line2d_30"><defs><path id="mf001e37f79" stroke="#ecffe2" d="M0 3a3 3 0 1 0 0-6 3 3 0 0 0 0 6z"/></defs><g clip-path="url(#pb3d8ee72cb)"><use xlink:href="#mf001e37f79" x="215.436" y="112.122" fill="#ecffe2" stroke="#ecffe2"/></g></g><g id="line2d_31" clip-path="url(#pb3d8ee72cb)"><use xlink:href="#m98acf9e746" x="205.167" y="86.937" fill="#fff" stroke="#000"/></g><g id="line2d_32" clip-path="url(#pb3d8ee72cb)"><use xlink:href="#m98acf9e746" x="192.559" y="58.793" fill="#fff" stroke="#000"/></g><g id="line2d_33" clip-path="url(#pb3d8ee72cb)"><use xlink:href="#m98acf9e746" x="176.661" y="25.037" fill="#fff" stroke="#000"/></g><path id="line2d_34" fill="none" stroke="gray" stroke-linecap="square" stroke-width="1.5" d="M228.3 132.374 130.649 35.9" clip-path="url(#pb3d8ee72cb)"/><g id="line2d_35"><defs><path id="m95c3163138" stroke="#c2efce" d="M0 3a3 3 0 1 0 0-6 3 3 0 0 0 0 6z"/></defs><g clip-path="url(#pb3d8ee72cb)"><use xlink:href="#m95c3163138" x="205.144" y="113.508" fill="#c2efce" stroke="#c2efce"/></g></g><g id="line2d_36"><defs><path id="m5dc6e3a50e" stroke="#9ef9a3" d="M0 3a3 3 0 1 0 0-6 3 3 0 0 0 0 6z"/></defs><g clip-path="url(#pb3d8ee72cb)"><use xlink:href="#m5dc6e3a50e" x="184.046" y="88.049" fill="#9ef9a3" stroke="#9ef9a3"/></g></g><g id="line2d_37" clip-path="url(#pb3d8ee72cb)"><use xlink:href="#m98acf9e746" x="159.737" y="61.208" fill="#fff" stroke="#000"/></g><g id="line2d_38" clip-path="url(#pb3d8ee72cb)"><use xlink:href="#m98acf9e746" x="130.638" y="35.91" fill="#fff" stroke="#000"/></g><path id="line2d_39" fill="none" stroke="gray" stroke-linecap="square" stroke-width="1.5" d="m228.3 132.374-72.278-5.056" clip-path="url(#pb3d8ee72cb)"/><g id="line2d_40"><defs><path id="m72c0e836ff" stroke="#d2f4f0" d="M0 3a3 3 0 1 0 0-6 3 3 0 0 0 0 6z"/></defs><g clip-path="url(#pb3d8ee72cb)"><use xlink:href="#m72c0e836ff" x="211.57" y="129.355" fill="#d2f4f0" stroke="#d2f4f0"/></g></g><g id="line2d_41"><defs><path id="m7347fa0f32" stroke="#a6feed" d="M0 3a3 3 0 1 0 0-6 3 3 0 0 0 0 6z"/></defs><g clip-path="url(#pb3d8ee72cb)"><use xlink:href="#m7347fa0f32" x="193.497" y="129.683" fill="#a6feed" stroke="#a6feed"/></g></g><g id="line2d_42" clip-path="url(#pb3d8ee72cb)"><use xlink:href="#m98acf9e746" x="175.082" y="130.31" fill="#fff" stroke="#000"/></g><g id="line2d_43" clip-path="url(#pb3d8ee72cb)"><use xlink:href="#m98acf9e746" x="155.993" y="127.763" fill="#fff" stroke="#000"/></g><path id="line2d_44" fill="none" stroke="gray" stroke-linecap="square" stroke-width="1.5" d="m228.3 132.374-61.557 31.828" clip-path="url(#pb3d8ee72cb)"/><g id="line2d_45"><defs><path id="m3ad6d8a4e8" stroke="#c4e2ee" d="M0 3a3 3 0 1 0 0-6 3 3 0 0 0 0 6z"/></defs><g clip-path="url(#pb3d8ee72cb)"><use xlink:href="#m3ad6d8a4e8" x="214.3" y="139.084" fill="#c4e2ee" stroke="#c4e2ee"/></g></g><g id="line2d_46"><defs><path id="m582e2ea0a2" stroke="#9fe9f8" d="M0 3a3 3 0 1 0 0-6 3 3 0 0 0 0 6z"/></defs><g clip-path="url(#pb3d8ee72cb)"><use xlink:href="#m582e2ea0a2" x="199.755" y="147.485" fill="#9fe9f8" stroke="#9fe9f8"/></g></g><g id="line2d_47" clip-path="url(#pb3d8ee72cb)"><use xlink:href="#m98acf9e746" x="184.232" y="156.418" fill="#fff" stroke="#000"/></g><g id="line2d_48" clip-path="url(#pb3d8ee72cb)"><use xlink:href="#m98acf9e746" x="166.308" y="163.347" fill="#fff" stroke="#000"/></g><path id="line2d_49" fill="none" stroke="gray" stroke-linecap="square" stroke-width="1.5" d="m228.3 132.374-50.272 61.385" clip-path="url(#pb3d8ee72cb)"/><g id="line2d_50"><defs><path id="m35adfc7923" stroke="#a0b6cf" d="M0 3a3 3 0 1 0 0-6 3 3 0 0 0 0 6z"/></defs><g clip-path="url(#pb3d8ee72cb)"><use xlink:href="#m35adfc7923" x="217.233" y="147.371" fill="#a0b6cf" stroke="#a0b6cf"/></g></g><g id="line2d_51"><defs><path id="m8b43cf1729" stroke="#7fbbe1" d="M0 3a3 3 0 1 0 0-6 3 3 0 0 0 0 6z"/></defs><g clip-path="url(#pb3d8ee72cb)"><use xlink:href="#m8b43cf1729" x="204.106" y="161.93" fill="#7fbbe1" stroke="#7fbbe1"/></g></g><g id="line2d_52"><defs><path id="m7cd0197789" stroke="#4cbff3" d="M0 3a3 3 0 1 0 0-6 3 3 0 0 0 0 6z"/></defs><g clip-path="url(#pb3d8ee72cb)"><use xlink:href="#m7cd0197789" x="190.157" y="176.903" fill="#4cbff3" stroke="#4cbff3"/></g></g><g id="line2d_53" clip-path="url(#pb3d8ee72cb)"><use xlink:href="#m98acf9e746" x="178.299" y="193.979" fill="#fff" stroke="#000"/></g><path id="line2d_54" fill="none" stroke="gray" stroke-linecap="square" stroke-width="1.5" d="m228.3 132.374-37.642 126.672" clip-path="url(#pb3d8ee72cb)"/><g id="line2d_55"><defs><path id="m6bbc70acd9" stroke="#485c85" d="M0 3a3 3 0 1 0 0-6 3 3 0 0 0 0 6z"/></defs><g clip-path="url(#pb3d8ee72cb)"><use xlink:href="#m6bbc70acd9" x="217.209" y="163.235" fill="#485c85" stroke="#485c85"/></g></g><g id="line2d_56"><defs><path id="ma720d8dfe2" stroke="#1e5ca9" d="M0 3a3 3 0 1 0 0-6 3 3 0 0 0 0 6z"/></defs><g clip-path="url(#pb3d8ee72cb)"><use xlink:href="#ma720d8dfe2" x="203.703" y="195.209" fill="#1e5ca9" stroke="#1e5ca9"/></g></g><g id="line2d_57"><defs><path id="md3a74b3d3f" stroke="#0754ce" d="M0 3a3 3 0 1 0 0-6 3 3 0 0 0 0 6z"/></defs><g clip-path="url(#pb3d8ee72cb)"><use xlink:href="#md3a74b3d3f" x="200.223" y="223.242" fill="#0754ce" stroke="#0754ce"/></g></g><g id="line2d_58" clip-path="url(#pb3d8ee72cb)"><use xlink:href="#m98acf9e746" x="198.934" y="261.216" fill="#fff" stroke="#000"/></g><path id="line2d_59" fill="none" stroke="gray" stroke-linecap="square" stroke-width="1.5" d="M228.3 132.374 278.107 216" clip-path="url(#pb3d8ee72cb)"/><g id="line2d_60"><defs><path id="ma4d839ed8d" stroke="#9979a8" d="M0 3a3 3 0 1 0 0-6 3 3 0 0 0 0 6z"/></defs><g clip-path="url(#pb3d8ee72cb)"><use xlink:href="#ma4d839ed8d" x="242.196" y="152.645" fill="#9979a8" stroke="#9979a8"/></g></g><g id="line2d_61"><defs><path id="m3275d6d693" stroke="#ac6bc6" d="M0 3a3 3 0 1 0 0-6 3 3 0 0 0 0 6z"/></defs><g clip-path="url(#pb3d8ee72cb)"><use xlink:href="#m3275d6d693" x="256.765" y="173.809" fill="#ac6bc6" stroke="#ac6bc6"/></g></g><g id="line2d_62"><defs><path id="mada868ad2b" stroke="#b85be6" d="M0 3a3 3 0 1 0 0-6 3 3 0 0 0 0 6z"/></defs><g clip-path="url(#pb3d8ee72cb)"><use xlink:href="#mada868ad2b" x="265.719" y="195.7" fill="#b85be6" stroke="#b85be6"/></g></g><g id="line2d_63" clip-path="url(#pb3d8ee72cb)"><use xlink:href="#m98acf9e746" x="274.13" y="218.244" fill="#fff" stroke="#000"/></g><path id="line2d_64" fill="none" stroke="gray" stroke-linecap="square" stroke-width="1.5" d="m228.3 132.374 77.394 51.978" clip-path="url(#pb3d8ee72cb)"/><g id="line2d_65"><defs><path id="m4a39f744fe" stroke="#c395c1" d="M0 3a3 3 0 1 0 0-6 3 3 0 0 0 0 6z"/></defs><g clip-path="url(#pb3d8ee72cb)"><use xlink:href="#m4a39f744fe" x="247.53" y="145.478" fill="#c395c1" stroke="#c395c1"/></g></g><g id="line2d_66"><defs><path id="m74a6d2d4d7" stroke="#df83d5" d="M0 3a3 3 0 1 0 0-6 3 3 0 0 0 0 6z"/></defs><g clip-path="url(#pb3d8ee72cb)"><use xlink:href="#m74a6d2d4d7" x="268.34" y="157.102" fill="#df83d5" stroke="#df83d5"/></g></g><g id="line2d_67"><defs><path id="m5e641cd8f7" stroke="#f96cea" d="M0 3a3 3 0 1 0 0-6 3 3 0 0 0 0 6z"/></defs><g clip-path="url(#pb3d8ee72cb)"><use xlink:href="#m5e641cd8f7" x="288.34" y="169.051" fill="#f96cea" stroke="#f96cea"/></g></g><g id="line2d_68" clip-path="url(#pb3d8ee72cb)"><use xlink:href="#m98acf9e746" x="302.995" y="188.161" fill="#fff" stroke="#000"/></g><path id="line2d_69" fill="none" stroke="gray" stroke-linecap="square" stroke-width="1.5" d="m228.3 132.374 87.71 6.618" clip-path="url(#pb3d8ee72cb)"/><g id="line2d_70"><defs><path id="ma5c2da2cdd" stroke="#c990af" d="M0 3a3 3 0 1 0 0-6 3 3 0 0 0 0 6z"/></defs><g clip-path="url(#pb3d8ee72cb)"><use xlink:href="#ma5c2da2cdd" x="251.643" y="133.079" fill="#c990af" stroke="#c990af"/></g></g><g id="line2d_71"><defs><path id="ma18dbce880" stroke="#e67fbb" d="M0 3a3 3 0 1 0 0-6 3 3 0 0 0 0 6z"/></defs><g clip-path="url(#pb3d8ee72cb)"><use xlink:href="#ma18dbce880" x="274.287" y="138.724" fill="#e67fbb" stroke="#e67fbb"/></g></g><g id="line2d_72" clip-path="url(#pb3d8ee72cb)"><use xlink:href="#m98acf9e746" x="295.991" y="138.395" fill="#fff" stroke="#000"/></g><g id="line2d_73" clip-path="url(#pb3d8ee72cb)"><use xlink:href="#m98acf9e746" x="316.173" y="136.269" fill="#fff" stroke="#000"/></g><path id="patch_3" fill="none" stroke="#000" stroke-linecap="square" stroke-width=".8" d="M44.845 273.312V7.2"/><path id="patch_4" fill="none" stroke="#000" stroke-linecap="square" stroke-width=".8" d="M401.965 273.312V7.2"/><path id="patch_5" fill="none" stroke="#000" stroke-linecap="square" stroke-width=".8" d="M44.845 273.312h357.12"/><path id="patch_6" fill="none" stroke="#000" stroke-linecap="square" stroke-width=".8" d="M44.845 7.2h357.12"/></g></g><defs><clipPath id="pb3d8ee72cb"><path d="M44.845 7.2h357.12v266.112H44.845z"/></clipPath></defs></svg>