<svg xmlns="http://www.w3.org/2000/svg" xmlns:xlink="http://www.w3.org/1999/xlink" width="548.78" height="476.965" viewBox="0 0 411.585 357.724"><defs><style>*{stroke-linecap:butt;stroke-linejoin:round}</style></defs><g id="figure_1"><path id="patch_1" fill="none" d="M0 357.724h411.585V0H0z"/><g id="axes_1"><path id="patch_2" fill="none" d="M47.265 313.628h357.12V47.516H47.265z"/><path id="line2d_1" fill="none" stroke="gray" stroke-linecap="square" stroke-width="1.5" d="m232.493 191.043 115.955-98.974" clip-path="url(#pad11e7d2f0)"/><path id="line2d_2" fill="none" stroke="gray" stroke-linecap="square" stroke-width="1.5" d="m232.493 191.043 17.026-120.842" clip-path="url(#pad11e7d2f0)"/><path id="line2d_3" fill="none" stroke="gray" stroke-linecap="square" stroke-width="1.5" d="m232.493 191.043-48.49-130.8" clip-path="url(#pad11e7d2f0)"/><path id="line2d_4" fill="none" stroke="gray" stroke-linecap="square" stroke-width="1.5" d="M232.493 191.043 138.082 68.711" clip-path="url(#pad11e7d2f0)"/><path id="line2d_5" fill="none" stroke="gray" stroke-linecap="square" stroke-width="1.5" d="M232.493 191.043 91.342 84.492" clip-path="url(#pad11e7d2f0)"/><path id="line2d_6" fill="none" stroke="gray" stroke-linecap="square" stroke-width="1.5" d="M232.493 191.043 107.69 171.16" clip-path="url(#pad11e7d2f0)"/><path id="line2d_7" fill="none" stroke="gray" stroke-linecap="square" stroke-width="1.5" d="m232.493 191.043-105.59 27.852" clip-path="url(#pad11e7d2f0)"/><path id="line2d_8" fill="none" stroke="gray" stroke-linecap="square" stroke-width="1.5" d="m232.493 191.043-72.563 64.846" clip-path="url(#pad11e7d2f0)"/><path id="line2d_9" fill="none" stroke="gray" stroke-linecap="square" stroke-width="1.5" d="m232.493 191.043-6.038 110.49" clip-path="url(#pad11e7d2f0)"/><path id="line2d_10" fill="none" stroke="gray" stroke-linecap="square" stroke-width="1.5" d="m232.493 191.043 92.028 69.59" clip-path="url(#pad11e7d2f0)"/><path id="line2d_11" fill="none" stroke="gray" stroke-linecap="square" stroke-width="1.5" d="m232.493 191.043 119.298 39.926" clip-path="url(#pad11e7d2f0)"/><path id="line2d_12" fill="none" stroke="gray" stroke-linecap="square" stroke-width="1.5" d="m232.493 191.043 127.816-.378" clip-path="url(#pad11e7d2f0)"/><g id="PathCollection_1"><defs><path id="C0_0_b9e97958cd" d="M0 3a3 3 0 1 0 0-6 3 3 0 0 0 0 6z"/></defs><g clip-path="url(#pad11e7d2f0)"><use xlink:href="#C0_0_b9e97958cd" x="272.16" y="150.512" fill="#c78780" stroke="#c78780"/></g><g clip-path="url(#pad11e7d2f0)"><use xlink:href="#C0_0_b9e97958cd" x="302.11" y="129.369" fill="#e87562" stroke="#e87562"/></g><g clip-path="url(#pad11e7d2f0)"><use xlink:href="#C0_0_b9e97958cd" x="329.565" y="114.978" fill="#fff" stroke="#000"/></g><g clip-path="url(#pad11e7d2f0)"><use xlink:href="#C0_0_b9e97958cd" x="347.633" y="91.121" fill="#fff" stroke="#000"/></g></g><g id="PathCollection_2"><defs><path id="C1_0_0dad34b4f1" d="M0 3a3 3 0 1 0 0-6 3 3 0 0 0 0 6z"/></defs><g clip-path="url(#pad11e7d2f0)"><use xlink:href="#C1_0_0dad34b4f1" x="233.622" y="150.7" fill="#e2c9b5" stroke="#e2c9b5"/></g><g clip-path="url(#pad11e7d2f0)"><use xlink:href="#C1_0_0dad34b4f1" x="242.343" y="124.703" fill="#f6c592" stroke="#f6c592"/></g><g clip-path="url(#pad11e7d2f0)"><use xlink:href="#C1_0_0dad34b4f1" x="246.113" y="98.618" fill="#fff" stroke="#000"/></g><g clip-path="url(#pad11e7d2f0)"><use xlink:href="#C1_0_0dad34b4f1" x="250.266" y="70.308" fill="#fff" stroke="#000"/></g></g><g id="PathCollection_3"><defs><path id="C2_0_f0a824cd9a" d="M0 3a3 3 0 1 0 0-6 3 3 0 0 0 0 6z"/></defs><g clip-path="url(#pad11e7d2f0)"><use xlink:href="#C2_0_f0a824cd9a" x="213.12" y="149.653" fill="#fff" stroke="#000"/></g><g clip-path="url(#pad11e7d2f0)"><use xlink:href="#C2_0_f0a824cd9a" x="205.909" y="120.259" fill="#fff" stroke="#000"/></g><g clip-path="url(#pad11e7d2f0)"><use xlink:href="#C2_0_f0a824cd9a" x="195.23" y="92.192" fill="#fff" stroke="#000"/></g><g clip-path="url(#pad11e7d2f0)"><use xlink:href="#C2_0_f0a824cd9a" x="185.738" y="59.612" fill="#fff" stroke="#000"/></g></g><g id="PathCollection_4"><defs><path id="C3_0_b0d2183bb1" d="M0 3a3 3 0 1 0 0-6 3 3 0 0 0 0 6z"/></defs><g clip-path="url(#pad11e7d2f0)"><use xlink:href="#C3_0_b0d2183bb1" x="192.528" y="151.148" fill="#ecffe2" stroke="#ecffe2"/></g><g clip-path="url(#pad11e7d2f0)"><use xlink:href="#C3_0_b0d2183bb1" x="174.973" y="121.436" fill="#fff" stroke="#000"/></g><g clip-path="url(#pad11e7d2f0)"><use xlink:href="#C3_0_b0d2183bb1" x="158.427" y="94.89" fill="#fff" stroke="#000"/></g><g clip-path="url(#pad11e7d2f0)"><use xlink:href="#C3_0_b0d2183bb1" x="141.525" y="66.129" fill="#fff" stroke="#000"/></g></g><g id="PathCollection_5"><defs><path id="C4_0_42b4f0eaef" d="M0 3a3 3 0 1 0 0-6 3 3 0 0 0 0 6z"/></defs><g clip-path="url(#pad11e7d2f0)"><use xlink:href="#C4_0_42b4f0eaef" x="171.381" y="153.411" fill="#c2efce" stroke="#c2efce"/></g><g clip-path="url(#pad11e7d2f0)"><use xlink:href="#C4_0_42b4f0eaef" x="141.995" y="124.639" fill="#9ef9a3" stroke="#9ef9a3"/></g><g clip-path="url(#pad11e7d2f0)"><use xlink:href="#C4_0_42b4f0eaef" x="116.92" y="101.448" fill="#fff" stroke="#000"/></g><g clip-path="url(#pad11e7d2f0)"><use xlink:href="#C4_0_42b4f0eaef" x="92.652" y="82.778" fill="#fff" stroke="#000"/></g></g><g id="PathCollection_6"><defs><path id="C5_0_c1cea762ee" d="M0 3a3 3 0 1 0 0-6 3 3 0 0 0 0 6z"/></defs><g clip-path="url(#pad11e7d2f0)"><use xlink:href="#C5_0_c1cea762ee" x="182.469" y="180.182" fill="#d2f4f0" stroke="#d2f4f0"/></g><g clip-path="url(#pad11e7d2f0)"><use xlink:href="#C5_0_c1cea762ee" x="150.847" y="177.381" fill="#a6feed" stroke="#a6feed"/></g><g clip-path="url(#pad11e7d2f0)"><use xlink:href="#C5_0_c1cea762ee" x="127.167" y="176.041" fill="#fff" stroke="#000"/></g><g clip-path="url(#pad11e7d2f0)"><use xlink:href="#C5_0_c1cea762ee" x="107.674" y="171.259" fill="#fff" stroke="#000"/></g></g><g id="PathCollection_7"><defs><path id="C6_0_49b38bf91d" d="M0 3a3 3 0 1 0 0-6 3 3 0 0 0 0 6z"/></defs><g clip-path="url(#pad11e7d2f0)"><use xlink:href="#C6_0_49b38bf91d" x="192.371" y="200.59" fill="#c4e2ee" stroke="#c4e2ee"/></g><g clip-path="url(#pad11e7d2f0)"><use xlink:href="#C6_0_49b38bf91d" x="166.034" y="208.28" fill="#9fe9f8" stroke="#9fe9f8"/></g><g clip-path="url(#pad11e7d2f0)"><use xlink:href="#C6_0_49b38bf91d" x="145.79" y="215.394" fill="#fff" stroke="#000"/></g><g clip-path="url(#pad11e7d2f0)"><use xlink:href="#C6_0_49b38bf91d" x="126.745" y="218.291" fill="#fff" stroke="#000"/></g></g><g id="PathCollection_8"><defs><path id="C7_0_180467b80e" d="M0 3a3 3 0 1 0 0-6 3 3 0 0 0 0 6z"/></defs><g clip-path="url(#pad11e7d2f0)"><use xlink:href="#C7_0_180467b80e" x="206.154" y="215.044" fill="#a0b6cf" stroke="#a0b6cf"/></g><g clip-path="url(#pad11e7d2f0)"><use xlink:href="#C7_0_180467b80e" x="184.542" y="230.872" fill="#7fbbe1" stroke="#7fbbe1"/></g><g clip-path="url(#pad11e7d2f0)"><use xlink:href="#C7_0_180467b80e" x="168.954" y="244.012" fill="#4cbff3" stroke="#4cbff3"/></g><g clip-path="url(#pad11e7d2f0)"><use xlink:href="#C7_0_180467b80e" x="162.472" y="258.625" fill="#fff" stroke="#000"/></g></g><g id="PathCollection_9"><defs><path id="C8_0_a6395f5722" d="M0 3a3 3 0 1 0 0-6 3 3 0 0 0 0 6z"/></defs><g clip-path="url(#pad11e7d2f0)"><use xlink:href="#C8_0_a6395f5722" x="217.195" y="232.241" fill="#485c85" stroke="#485c85"/></g><g clip-path="url(#pad11e7d2f0)"><use xlink:href="#C8_0_a6395f5722" x="210.036" y="260.861" fill="#1e5ca9" stroke="#1e5ca9"/></g><g clip-path="url(#pad11e7d2f0)"><use xlink:href="#C8_0_a6395f5722" x="223.231" y="280.475" fill="#0754ce" stroke="#0754ce"/></g><g clip-path="url(#pad11e7d2f0)"><use xlink:href="#C8_0_a6395f5722" x="247.32" y="300.699" fill="#fff" stroke="#000"/></g></g><g id="PathCollection_10"><defs><path id="C9_0_eeb86e32dd" d="M0 3a3 3 0 1 0 0-6 3 3 0 0 0 0 6z"/></defs><g clip-path="url(#pad11e7d2f0)"><use xlink:href="#C9_0_eeb86e32dd" x="266.556" y="214.507" fill="#9979a8" stroke="#9979a8"/></g><g clip-path="url(#pad11e7d2f0)"><use xlink:href="#C9_0_eeb86e32dd" x="292.877" y="232.879" fill="#ac6bc6" stroke="#ac6bc6"/></g><g clip-path="url(#pad11e7d2f0)"><use xlink:href="#C9_0_eeb86e32dd" x="308.464" y="249.004" fill="#b85be6" stroke="#b85be6"/></g><g clip-path="url(#pad11e7d2f0)"><use xlink:href="#C9_0_eeb86e32dd" x="323.141" y="262.421" fill="#fff" stroke="#000"/></g></g><g id="PathCollection_11"><defs><path id="Ca_0_160325fc50" d="M0 3a3 3 0 1 0 0-6 3 3 0 0 0 0 6z"/></defs><g clip-path="url(#pad11e7d2f0)"><use xlink:href="#Ca_0_160325fc50" x="274.713" y="204.394" fill="#c395c1" stroke="#c395c1"/></g><g clip-path="url(#pad11e7d2f0)"><use xlink:href="#Ca_0_160325fc50" x="306.975" y="213.749" fill="#df83d5" stroke="#df83d5"/></g><g clip-path="url(#pad11e7d2f0)"><use xlink:href="#Ca_0_160325fc50" x="332.688" y="221.6" fill="#f96cea" stroke="#f96cea"/></g><g clip-path="url(#pad11e7d2f0)"><use xlink:href="#Ca_0_160325fc50" x="350.491" y="234.661" fill="#fff" stroke="#000"/></g></g><g id="PathCollection_12"><defs><path id="Cb_0_80fea6a506" d="M0 3a3 3 0 1 0 0-6 3 3 0 0 0 0 6z"/></defs><g clip-path="url(#pad11e7d2f0)"><use xlink:href="#Cb_0_80fea6a506" x="278.277" y="186.821" fill="#c990af" stroke="#c990af"/></g><g clip-path="url(#pad11e7d2f0)"><use xlink:href="#Cb_0_80fea6a506" x="311.881" y="192.799" fill="#e67fbb" stroke="#e67fbb"/></g><g clip-path="url(#pad11e7d2f0)"><use xlink:href="#Cb_0_80fea6a506" x="338.248" y="191.886" fill="#fff" stroke="#000"/></g><g clip-path="url(#pad11e7d2f0)"><use xlink:href="#Cb_0_80fea6a506" x="360.304" y="189.936" fill="#fff" stroke="#000"/></g></g><g id="matplotlib.axis_1"><g id="xtick_1"><g id="line2d_13"><defs><path id="mb2634a5428" stroke="#969696" stroke-width=".4" d="M0 0v3.5"/></defs><use xlink:href="#mb2634a5428" x="86.653" y="313.628" fill="#969696" stroke="#969696" stroke-width=".4"/></g><g id="text_1" fill="#969696" transform="matrix(.14 0 0 -.14 74.766 330.678)"><defs><path id="HelveticaWorld-Regular-8722" d="M54.594 21.578H4v7.328h50.594z"/><path id="HelveticaWorld-Regular-52" d="M10.594 24.703h22.61v31.89h-.188zM42 17.093V0h-8.797v17.094H2.484v8.593L34.72 70.314H42v-45.61h10.297v-7.61z"/><path id="HelveticaWorld-Regular-48" d="M42.484 34.188q0 14.109-3.734 21.156-3.734 7.062-10.969 7.062-7.078 0-10.89-7.062-3.797-7.047-3.797-21.157 0-13.671 3.75-20.937Q20.609 6 27.78 6q7.235 0 10.969 7 3.734 7.016 3.734 21.188zm9.422 0q0-17.297-6.25-26.704-6.25-9.39-17.875-9.39-12.062 0-18.062 9.734-6 9.75-6 26.36 0 17.03 6.14 26.578 6.157 9.547 17.922 9.547 11.625 0 17.875-9.5t6.25-26.626z"/></defs><use xlink:href="#HelveticaWorld-Regular-8722"/><use xlink:href="#HelveticaWorld-Regular-52" x="58.594"/><use xlink:href="#HelveticaWorld-Regular-48" x="114.209"/></g></g><g id="xtick_2"><use xlink:href="#mb2634a5428" id="line2d_14" x="154.154" y="313.628" fill="#969696" stroke="#969696" stroke-width=".4"/><g id="text_2" fill="#969696" transform="matrix(.14 0 0 -.14 142.267 330.678)"><defs><path id="HelveticaWorld-Regular-50" d="M4.39 45.125q0 12.39 6.391 18.781 6.406 6.407 17.938 6.407 9.656 0 15.812-5.86 6.157-5.86 6.157-15.14 0-7.22-3.547-12.188-3.532-4.953-10.422-8.703l-12.11-6.64Q13.922 15.921 12.5 8.296h38.188V0H2.593q.39 9.906 4.297 16.5 3.906 6.594 12.203 11.375l12.593 7.328q5.032 2.89 7.329 5.984 2.297 3.094 2.297 8.516 0 5.375-3.766 9.031-3.75 3.672-10.156 3.672-7.078 0-10.594-4.672-3.516-4.656-3.61-12.609z"/></defs><use xlink:href="#HelveticaWorld-Regular-8722"/><use xlink:href="#HelveticaWorld-Regular-50" x="58.594"/><use xlink:href="#HelveticaWorld-Regular-48" x="114.209"/></g></g><g id="xtick_3"><use xlink:href="#mb2634a5428" id="line2d_15" x="221.656" y="313.628" fill="#969696" stroke="#969696" stroke-width=".4"/><use xlink:href="#HelveticaWorld-Regular-48" id="text_3" fill="#969696" transform="matrix(.14 0 0 -.14 217.763 330.678)"/></g><g id="xtick_4"><use xlink:href="#mb2634a5428" id="line2d_16" x="289.158" y="313.628" fill="#969696" stroke="#969696" stroke-width=".4"/><g id="text_4" fill="#969696" transform="matrix(.14 0 0 -.14 281.373 330.678)"><use xlink:href="#HelveticaWorld-Regular-50"/><use xlink:href="#HelveticaWorld-Regular-48" x="55.615"/></g></g><g id="xtick_5"><use xlink:href="#mb2634a5428" id="line2d_17" x="356.66" y="313.628" fill="#969696" stroke="#969696" stroke-width=".4"/><g id="text_5" fill="#969696" transform="matrix(.14 0 0 -.14 348.874 330.678)"><use xlink:href="#HelveticaWorld-Regular-52"/><use xlink:href="#HelveticaWorld-Regular-48" x="55.615"/></g></g><g id="text_6" fill="#969696" transform="matrix(.14 0 0 -.14 220.643 347.625)"><defs><path id="HelveticaWorld-Regular-97" d="M38.375 26.703q-.969-1.015-3.828-1.656-2.86-.625-10.672-1.656-5.766-.688-8.469-2.844-2.703-2.14-2.703-5.656 0-4.297 2.281-6.688 2.297-2.39 7.329-2.39 6.296 0 11.171 3.578 4.891 3.593 4.891 8.718zM6.203 36.375q.297 8.844 5.734 13.14 5.454 4.297 15.844 4.297 8.297 0 13.907-3.765 5.624-3.75 5.624-10.844V9.078Q47.313 6 50.094 6q1.125 0 2.89.39V0Q50.594-.984 48-.984q-4.5 0-6.703 1.921-2.188 1.938-2.281 6.047-7.516-8.5-18.891-8.5-7.422 0-11.922 4.204Q3.72 6.89 3.72 13.624q0 6.89 3.906 11.125Q11.531 29 19 29.89l15.516 1.891q4.203.64 4.203 6.203 0 4.11-3.047 6.297-3.047 2.203-9.25 2.203-5.516 0-8.485-2.437-2.953-2.438-3.53-7.672z"/><path id="HelveticaWorld-Regular-39" d="M5.906 71.781h7.282V46.297H5.905z"/></defs><use xlink:href="#HelveticaWorld-Regular-97"/><use xlink:href="#HelveticaWorld-Regular-39" x="54.932"/></g></g><g id="matplotlib.axis_2"><g id="ytick_1"><g id="line2d_18"><defs><path id="m38f6882063" stroke="#969696" stroke-width=".3" d="M0 0h-3.5"/></defs><use xlink:href="#m38f6882063" x="47.265" y="308.064" fill="#969696" stroke="#969696" stroke-width=".3"/></g><g id="text_7" fill="#969696" transform="matrix(.14 0 0 -.14 16.492 313.089)"><use xlink:href="#HelveticaWorld-Regular-8722"/><use xlink:href="#HelveticaWorld-Regular-52" x="58.594"/><use xlink:href="#HelveticaWorld-Regular-48" x="114.209"/></g></g><g id="ytick_2"><use xlink:href="#m38f6882063" id="line2d_19" x="47.265" y="274.313" fill="#969696" stroke="#969696" stroke-width=".3"/><g id="text_8" fill="#969696" transform="matrix(.14 0 0 -.14 16.492 279.338)"><defs><path id="HelveticaWorld-Regular-51" d="M22.406 39.984q2.203-.187 4.594-.187 6.203 0 9.781 2.86 3.594 2.859 3.594 8.656 0 4.687-3.344 7.89-3.343 3.203-9.64 3.203-6.985 0-10.235-4.11-3.234-4.093-3.437-10.983h-8.64q0 10.984 5.765 16.984 5.765 6.016 16.937 6.016 9.922 0 15.828-5.11 5.907-5.094 5.907-13.39 0-10.704-9.032-14.5v-.204q11.72-4 11.72-16.406 0-9.906-6.595-16.265-6.593-6.344-18.703-6.344-9.906 0-16.312 5.203Q4.204 8.5 3.422 21.484H12.5q.203-8.109 4-11.797Q20.313 6 27.484 6q6.938 0 11.141 3.86 4.203 3.859 4.203 9.718 0 6.406-4.016 9.672-4 3.266-12.39 3.266-2 0-4.016-.094z"/></defs><use xlink:href="#HelveticaWorld-Regular-8722"/><use xlink:href="#HelveticaWorld-Regular-51" x="58.594"/><use xlink:href="#HelveticaWorld-Regular-48" x="114.209"/></g></g><g id="ytick_3"><use xlink:href="#m38f6882063" id="line2d_20" x="47.265" y="240.562" fill="#969696" stroke="#969696" stroke-width=".3"/><g id="text_9" fill="#969696" transform="matrix(.14 0 0 -.14 16.492 245.587)"><use xlink:href="#HelveticaWorld-Regular-8722"/><use xlink:href="#HelveticaWorld-Regular-50" x="58.594"/><use xlink:href="#HelveticaWorld-Regular-48" x="114.209"/></g></g><g id="ytick_4"><use xlink:href="#m38f6882063" id="line2d_21" x="47.265" y="206.812" fill="#969696" stroke="#969696" stroke-width=".3"/><g id="text_10" fill="#969696" transform="matrix(.14 0 0 -.14 16.492 211.836)"><defs><path id="HelveticaWorld-Regular-49" d="M35.89 0h-9.374v49.906H10.109v6.985q8.594.28 12.782 2.75Q27.094 62.109 29 70.313h6.89z"/></defs><use xlink:href="#HelveticaWorld-Regular-8722"/><use xlink:href="#HelveticaWorld-Regular-49" x="58.594"/><use xlink:href="#HelveticaWorld-Regular-48" x="114.209"/></g></g><g id="ytick_5"><use xlink:href="#m38f6882063" id="line2d_22" x="47.265" y="173.061" fill="#969696" stroke="#969696" stroke-width=".3"/><use xlink:href="#HelveticaWorld-Regular-48" id="text_11" fill="#969696" transform="matrix(.14 0 0 -.14 32.48 178.085)"/></g><g id="ytick_6"><use xlink:href="#m38f6882063" id="line2d_23" x="47.265" y="139.31" fill="#969696" stroke="#969696" stroke-width=".3"/><g id="text_12" fill="#969696" transform="matrix(.14 0 0 -.14 24.695 144.334)"><use xlink:href="#HelveticaWorld-Regular-49"/><use xlink:href="#HelveticaWorld-Regular-48" x="55.615"/></g></g><g id="ytick_7"><use xlink:href="#m38f6882063" id="line2d_24" x="47.265" y="105.559" fill="#969696" stroke="#969696" stroke-width=".3"/><g id="text_13" fill="#969696" transform="matrix(.14 0 0 -.14 24.695 110.583)"><use xlink:href="#HelveticaWorld-Regular-50"/><use xlink:href="#HelveticaWorld-Regular-48" x="55.615"/></g></g><g id="ytick_8"><use xlink:href="#m38f6882063" id="line2d_25" x="47.265" y="71.808" fill="#969696" stroke="#969696" stroke-width=".3"/><g id="text_14" fill="#969696" transform="matrix(.14 0 0 -.14 24.695 76.833)"><use xlink:href="#HelveticaWorld-Regular-51"/><use xlink:href="#HelveticaWorld-Regular-48" x="55.615"/></g></g><g id="text_15" fill="#969696" transform="matrix(.14 0 0 -.14 7.2 177.674)"><defs><path id="HelveticaWorld-Regular-98" d="M43.406 26.313q0 10.5-3.718 15.046-3.704 4.547-10.579 4.547-6.984-.11-10.562-5.453Q14.984 35.11 14.984 25q0-10.297 4.297-14.594Q23.578 6.11 29.297 6.11q6.5 0 10.297 5.344 3.812 5.344 3.812 14.86zM6.594 0v71.781h8.781V45.703h.203q5.61 8.11 15.14 8.11 9.766 0 15.766-7.25t6-18.876q0-13.093-6.062-21.156Q40.375-1.516 29.5-1.516q-9.578 0-14.406 8.016h-.203V0z"/></defs><use xlink:href="#HelveticaWorld-Regular-98"/><use xlink:href="#HelveticaWorld-Regular-39" x="56.494"/></g></g><g id="text_16" fill="#969696" transform="matrix(.14 0 0 -.14 78.493 17.516)"><defs><path id="HelveticaWorld-Regular-72" d="M64.89 0h-9.718v33.5h-37.5V0H8.109v71.781h9.563V42.094h37.5V71.78h9.719z"/><path id="HelveticaWorld-Regular-117" d="M6.11 52.297h8.78V17.578q0-5.765 2.61-8.625Q20.125 6.11 25 6.11q6.781 0 10.594 4.797 3.812 4.813 3.812 12.578v28.813h8.782V0H39.89v7.625l-.188.188q-4.984-9.329-16.61-9.329-7.515 0-12.25 4.094Q6.11 6.688 6.11 14.703z"/><path id="HelveticaWorld-Regular-110" d="M49.219 0h-8.844v32.172q0 7.422-2.594 10.578-2.578 3.156-8.578 3.156-5.906 0-9.875-4.5-3.953-4.484-3.953-12.89V0H6.594v52.297h8.297v-7.375h.203q6.203 8.89 15.812 8.89 8.89 0 13.594-4.718 4.719-4.703 4.719-13.5z"/><path id="HelveticaWorld-Regular-103" d="M12.984 26.313q0-9.61 3.813-14.907Q20.609 6.11 27.094 6.11q6.312 0 10.312 4.579 4 4.593 4 13 0 11.03-3.5 16.625-3.484 5.593-10.61 5.593-7.171 0-10.75-4.765-3.562-4.766-3.562-14.828zm36.828-23.33q0-12.609-6.062-18.797-6.047-6.203-18.266-6.203-8.78 0-13.984 4.047-5.203 4.048-5.984 11.58h8.796q.672-3.812 3.532-6.062 2.86-2.25 8.281-2.25 7.375 0 11.125 3.969 3.766 3.953 3.766 12.828v3.719h-.188q-4.937-7.329-13.922-7.329-11.187 0-17.093 8.25-5.907 8.25-5.907 20.953 0 11.625 5.953 18.875 5.97 7.25 15.829 7.25 9.906 0 15.625-8.89h.187v7.375h8.313z"/><path id="HelveticaWorld-Regular-45" d="M28.906 23.188H4.391v8.984h24.515z"/><path id="HelveticaWorld-Regular-66" d="M8.11 71.781h31.484q9.281 0 14.797-5.031 5.515-5.031 5.515-13.031 0-4.844-2.422-8.828-2.406-3.97-7.187-6.172 6.687-2.532 9.828-6.735 3.156-4.203 3.156-10.797 0-9.265-6.687-15.234Q49.906 0 38.922 0H8.109zm9.562-63.484h20.703q7.625 0 11.422 3.531 3.812 3.547 3.812 9.563 0 6.093-4.25 9.093Q45.125 33.5 36.812 33.5h-19.14zm0 33.11h17.625q7.719 0 11.312 2.796 3.594 2.813 3.594 8.781 0 5.125-3.406 7.813-3.39 2.687-11.39 2.687H17.671z"/><path id="HelveticaWorld-Regular-101" d="M42.484 30.328q-.687 8.485-4.5 12.031-3.797 3.547-10.109 3.547-6.39 0-10.328-4.5-3.922-4.484-4.172-11.078zm8.391-13.922q-1.453-8.11-7.953-13.422-5.719-4.5-15.047-4.593-10.984.093-17.438 7.203Q4 12.704 4 24.704q0 13.78 6.64 21.437 6.641 7.672 18.47 7.672 10.593 0 16.546-7.922 5.953-7.907 5.953-22.594H13.375q0-8.203 3.813-12.703Q21 6.109 28.608 6.109q5.375 0 9.235 3.235 3.86 3.25 4.25 7.062z"/><path id="HelveticaWorld-Regular-114" d="M15.375 0H6.594v52.297h8.297v-8.688h.203q5.703 10.203 14.687 10.203 1.422 0 2.297-.296V44.39h-3.266q-5.906 0-9.671-4.016-3.766-4-3.766-9.953z"/><path id="HelveticaWorld-Regular-115" d="M36.078 37.406q-.187 4.688-3.344 6.735-3.14 2.047-9.047 2.047-4.296 0-7.359-1.907-3.047-1.89-3.047-5.468 0-2.829 1.797-4.172 1.813-1.344 7.828-2.86l8.688-2.187q7.906-2 11.297-5.11 3.406-3.093 3.406-8.656 0-7.719-5.64-12.531-5.641-4.813-15.063-4.813-11 0-16.64 4.563-5.626 4.578-5.735 13.75h8.5q.203-5.422 3.594-8.063 3.39-2.625 10.171-2.625 5.516 0 8.766 2.188 3.25 2.203 3.25 6.11 0 2.78-2.11 4.437-2.093 1.672-8.296 3.078l-10.203 2.5q-6.203 1.562-9.157 4.656-2.953 3.094-2.953 8.031 0 7.72 5.516 12.203 5.531 4.5 14.406 4.5 9.485 0 14.531-4.624 5.047-4.61 5.344-11.782z"/><path id="HelveticaWorld-Regular-104" d="M49.219 0h-8.844v34.188q0 6.296-2.438 9-2.437 2.718-7.953 2.718-6.797 0-10.703-4.406-3.906-4.39-3.906-12.984V0H6.594v71.781h8.781V45.312h.203q6 8.5 15.328 8.5 8.594 0 13.453-4.5 4.86-4.484 4.86-13.718z"/><path id="HelveticaWorld-Regular-108" d="M15.375 0H6.594v71.781h8.781z"/><path id="HelveticaWorld-Regular-105" d="M6.594 61.813v9.968h8.781v-9.969zM15.375 0H6.594v52.297h8.781z"/><path id="HelveticaWorld-Regular-116" d="M17.188 45.016V10.984q0-2 1.093-3.046 1.11-1.047 3.938-1.047h3.375V0Q20.797-.688 19-.688q-5.516 0-8.063 2.641-2.53 2.64-2.53 8.547v34.516H1.311v7.28h7.094v14.595h8.781V52.297h8.407v-7.281z"/><path id="HelveticaWorld-Regular-121" d="M39.016 52.297h9.562L29.891.984q-.5-1.375-.985-2.593-4.25-11.329-7.328-15.547-3.078-4.235-9.953-4.235-3.61 0-5.906.782v8.015q2.484-.89 5.468-.89 3.22 0 4.704 2.03 1.5 2.032 4.421 9.938L.875 52.297h9.922L24.812 9.719H25z"/><path id="HelveticaWorld-Regular-100" d="M13.094 26.313q0-9.704 3.844-14.954 3.859-5.25 10.265-5.25 6.094 0 10.188 4.485 4.109 4.5 4.109 13.094 0 11.03-3.5 16.625-3.484 5.593-10.61 5.593-6.78 0-10.546-4.453-3.75-4.437-3.75-15.14zM50.39 0h-8.297v7.172h-.203q-4.97-8.688-15.078-8.688-10.891 0-16.86 8.297Q4 15.094 4 27.688q0 11.625 5.906 18.875 5.922 7.25 15.875 7.25 9.813 0 15.625-8.891l.203.594V71.78h8.782z"/><path id="HelveticaWorld-Regular-102" d="M17.188 45.016V0H8.405v45.016H1.22v7.28h7.187v8.985q0 5.907 3.578 8.703 3.594 2.813 10.032 2.813 2.203 0 3.968-.188v-7.906q-1.562.188-3.578.188-2.922 0-4.078-1.438-1.14-1.437-1.14-4.656v-6.5h8.796v-7.281z"/><path id="HelveticaWorld-Regular-111" d="M12.703 26.219q0-8.735 3.953-14.375 3.953-5.64 11.219-5.64 7.531 0 11.438 5.905 3.906 5.907 3.906 14.11 0 8.297-3.907 14.078-3.906 5.797-11.437 5.797-6.969 0-11.078-5.453-4.094-5.438-4.094-14.422zm-8.984 0q0 11.672 6.484 19.625 6.5 7.968 17.672 7.968 11.438 0 17.875-8.062 6.453-8.047 6.453-19.531 0-11.516-6.406-19.625-6.39-8.11-17.922-8.11-11.078 0-17.625 7.86-6.531 7.86-6.531 19.875z"/><path id="HelveticaWorld-Regular-67" d="M58.016 50.203q-1.625 7.313-6.782 11.094-5.14 3.797-13.343 3.797-10.594 0-17.047-7.703-6.438-7.688-6.438-20.766 0-15.14 6.094-22.547 6.11-7.39 17.688-7.39 7.609 0 13.093 5.046 5.5 5.063 7.407 14.688h9.421Q66.22 12.594 57.625 5.344t-20.906-7.25q-14.703 0-23.516 10.11Q4.391 18.311 4.391 36.28q0 17.328 9.203 27.36 9.203 10.047 24.297 10.047 12.5 0 20.265-6.454 7.766-6.437 9.235-17.03z"/><path id="HelveticaWorld-Regular-65" d="M44 29.5 33.406 61.078h-.203L21.687 29.5zm-25.297-8.594L11.188 0h-9.97l27 71.781h10.985L65.187 0H54.594l-7.078 20.906z"/><path id="HelveticaWorld-Regular-77" d="M67.484 0v42.39q0 .829.094 8.126t.094 9.78h-.281L47.312 0h-9.609L17.578 60.203h-.297q0-3.61.094-10.297.11-6.687.11-7.515V0H8.108v71.781h13.86L42.39 11.078h.28l20.313 60.703h13.922V0z"/><path id="HelveticaWorld-Regular-54" d="M14.11 21.578q0-6.875 4.093-11.234Q22.313 6 28.906 6q6.297 0 10.032 4.438 3.734 4.453 3.734 11.687 0 6.297-3.688 10.547-3.687 4.25-10.468 4.25-6.594 0-10.5-4.156-3.907-4.157-3.907-11.188zM41.702 51.61q-.984 5.375-3.984 8.078-3 2.72-8.125 2.72-8.11 0-12.36-7.923-4.25-7.906-4.343-18.109l.203-.188q5.61 8.641 16.687 8.641 8.844 0 15.438-5.86 6.593-5.859 6.593-16.452 0-10.5-6.25-17.47-6.25-6.952-16.843-6.952-12.219 0-18.563 8.687-6.344 8.703-6.344 25.938 0 16.593 6.485 27.093 6.5 10.5 19.484 10.5 8.407 0 14.219-5.015 5.813-5 6.297-13.688z"/><path id="HelveticaWorld-Regular-40" d="M29.781 73.297q-8.875-15.875-11.218-25.844-2.344-9.953-2.344-21.969 0-11.859 3.187-22.125Q22.61-6.89 29.891-20.703h-5.86Q15.72-8.593 11.25 2.187 6.781 12.985 6.781 26.125q0 12.36 4.047 23.563 4.063 11.203 12.86 23.609z"/><path id="HelveticaWorld-Regular-85" d="M64.11 71.781V25.203q0-11.922-7.547-19.515-7.532-7.594-21.36-7.594-12.89 0-20.234 7-7.344 7.015-7.344 18.781v47.906h9.563V26.61q0-9.906 4.953-14.922 4.953-5 13.265-5 8.875 0 13.875 5 5.016 5.016 5.016 14.735v45.36z"/><path id="HelveticaWorld-Regular-83" d="M50.39 50.781q-.296 6.844-5.109 10.719-4.797 3.875-12.656 3.875-7.922 0-12.172-3.25-4.234-3.234-4.234-9.344 0-3.265 1.843-5.61 1.86-2.343 6.641-3.468l20.516-4.687q8.297-1.813 12.297-6.875 4.015-5.047 4.015-12.313 0-10.64-7.812-16.187-7.813-5.547-20.313-5.547-9.531 0-15.031 2.437-5.484 2.453-9.734 7.766-4.25 5.328-4.25 14.89h9.093q0-8 5.313-12.406 5.328-4.39 14.5-4.39 8.89 0 13.844 3.156 4.953 3.156 4.953 8.953 0 5.281-2.953 7.89Q46.188 29 37.594 31l-15.469 3.625q-7.719 1.75-11.531 6.125Q6.78 45.125 6.78 51.516q0 9.672 6.516 15.922 6.531 6.25 18.203 6.25 13.172 0 20.328-5.5 7.156-5.485 7.688-17.407z"/><path id="HelveticaWorld-Regular-41" d="M3.516-20.703q8.796 15.922 11.14 25.86Q17 15.093 17 27.093q0 11.922-3.156 22.172T3.422 73.296h5.765q8.391-12.109 12.86-22.905 4.469-10.797 4.469-23.875 0-12.407-4.063-23.61-4.047-11.203-12.828-23.61z"/></defs><use xlink:href="#HelveticaWorld-Regular-72"/><use xlink:href="#HelveticaWorld-Regular-117" x="72.998"/><use xlink:href="#HelveticaWorld-Regular-110" x="127.783"/><use xlink:href="#HelveticaWorld-Regular-103" x="182.959"/><use xlink:href="#HelveticaWorld-Regular-45" x="238.867"/><use xlink:href="#HelveticaWorld-Regular-66" x="272.168"/><use xlink:href="#HelveticaWorld-Regular-101" x="339.355"/><use xlink:href="#HelveticaWorld-Regular-114" x="394.775"/><use xlink:href="#HelveticaWorld-Regular-110" x="427.344"/><use xlink:href="#HelveticaWorld-Regular-115" x="482.52"/><use xlink:href="#HelveticaWorld-Regular-32" x="532.52"/><use xlink:href="#HelveticaWorld-Regular-104" x="556.934"/><use xlink:href="#HelveticaWorld-Regular-117" x="612.109"/><use xlink:href="#HelveticaWorld-Regular-101" x="666.895"/><use xlink:href="#HelveticaWorld-Regular-32" x="722.314"/><use xlink:href="#HelveticaWorld-Regular-108" x="746.729"/><use xlink:href="#HelveticaWorld-Regular-105" x="768.75"/><use xlink:href="#HelveticaWorld-Regular-110" x="790.771"/><use xlink:href="#HelveticaWorld-Regular-101" x="845.947"/><use xlink:href="#HelveticaWorld-Regular-97" x="901.367"/><use xlink:href="#HelveticaWorld-Regular-114" x="956.299"/><use xlink:href="#HelveticaWorld-Regular-105" x="988.867"/><use xlink:href="#HelveticaWorld-Regular-116" x="1010.889"/><use xlink:href="#HelveticaWorld-Regular-121" x="1038.574"/><use xlink:href="#HelveticaWorld-Regular-32" x="1088.184"/><use xlink:href="#HelveticaWorld-Regular-100" x="1112.598"/><use xlink:href="#HelveticaWorld-Regular-97" x="1169.58"/><use xlink:href="#HelveticaWorld-Regular-116" x="1224.512"/><use xlink:href="#HelveticaWorld-Regular-97" x="1252.197"/><use xlink:href="#HelveticaWorld-Regular-32" x="1307.129"/><use xlink:href="#HelveticaWorld-Regular-102" x="1331.543"/><use xlink:href="#HelveticaWorld-Regular-111" x="1357.229"/><use xlink:href="#HelveticaWorld-Regular-114" x="1413.137"/><use xlink:href="#HelveticaWorld-Regular-32" x="1445.705"/><use xlink:href="#HelveticaWorld-Regular-67" x="1470.119"/><use xlink:href="#HelveticaWorld-Regular-65" x="1540.684"/><use xlink:href="#HelveticaWorld-Regular-77" x="1607.383"/><use xlink:href="#HelveticaWorld-Regular-49" x="1692.393"/><use xlink:href="#HelveticaWorld-Regular-54" x="1748.008"/><use xlink:href="#HelveticaWorld-Regular-32" x="1803.623"/><use xlink:href="#HelveticaWorld-Regular-40" x="1828.037"/><use xlink:href="#HelveticaWorld-Regular-85" x="1861.338"/><use xlink:href="#HelveticaWorld-Regular-67" x="1932.92"/><use xlink:href="#HelveticaWorld-Regular-83" x="2005.234"/><use xlink:href="#HelveticaWorld-Regular-41" x="2071.445"/></g></g></g><defs><clipPath id="pad11e7d2f0"><path d="M47.265 47.516h357.12v266.112H47.265z"/></clipPath></defs></svg>