<svg xmlns="http://www.w3.org/2000/svg" xmlns:xlink="http://www.w3.org/1999/xlink" width="579.286" height="508.041" viewBox="0 0 434.465 381.03"><defs><style>*{stroke-linejoin:round;stroke-linecap:butt}</style></defs><g id="figure_1"><path id="patch_1" d="M0 381.03h434.465V0H0v381.03z" style="fill:none"/><g id="axes_1"><path id="patch_2" d="M35.745 323.252h357.12V57.14H35.745v266.112z" style="fill:none"/><g id="matplotlib.axis_1"><g id="xtick_1"><g id="line2d_1"><defs><path id="mf5df9c42fa" d="M0 0v3.5" style="stroke:#969696;stroke-width:.4"/></defs><use xlink:href="#mf5df9c42fa" x="35.745" y="323.252" style="fill:#969696;stroke:#969696;stroke-width:.4"/></g><g id="text_1" style="fill:#969696" transform="matrix(.14 0 0 -.14 24.972 340.192)"><defs><path id="MyriadPro-Regular-33" d="M269 211C474 77 883-70 1350-70c999 0 1517 582 1517 1248 0 582-416 966-928 1068v13c512 186 768 551 768 979 0 506-371 992-1190 992-448 0-871-160-1088-320l147-409c179 128 499 275 832 275 518 0 730-294 730-627 0-493-519-704-928-704H896v-423h314c544 0 1068-249 1075-832 6-345-218-806-941-806-390 0-762 160-922 262L269 211z" transform="scale(.01563)"/><path id="MyriadPro-Regular-30" d="M1677 4230c-845 0-1447-768-1447-2163C243 691 794-70 1606-70c922 0 1447 780 1447 2195 0 1325-499 2105-1376 2105zm-32-435c582 0 845-672 845-1696 0-1062-276-1734-852-1734-512 0-844 614-844 1696 0 1133 358 1734 851 1734z" transform="scale(.01563)"/></defs><use xlink:href="#MyriadPro-Regular-33"/><use xlink:href="#MyriadPro-Regular-30" x="51.3"/><use xlink:href="#MyriadPro-Regular-30" x="102.6"/></g></g><g id="xtick_2"><use xlink:href="#mf5df9c42fa" id="line2d_2" x="103.126" y="323.252" style="fill:#969696;stroke:#969696;stroke-width:.4"/><g id="text_2" style="fill:#969696" transform="matrix(.14 0 0 -.14 92.353 340.192)"><defs><path id="MyriadPro-Regular-34" d="M2560 0v1133h582v441h-582v2586h-608L96 1504v-371h1933V0h531zM666 1574v13l1017 1415c115 192 218 371 346 614h19c-13-218-19-435-19-653V1574H666z" transform="scale(.01563)"/></defs><use xlink:href="#MyriadPro-Regular-34"/><use xlink:href="#MyriadPro-Regular-30" x="51.3"/><use xlink:href="#MyriadPro-Regular-30" x="102.6"/></g></g><g id="xtick_3"><use xlink:href="#mf5df9c42fa" id="line2d_3" x="170.507" y="323.252" style="fill:#969696;stroke:#969696;stroke-width:.4"/><g id="text_3" style="fill:#969696" transform="matrix(.14 0 0 -.14 159.735 340.192)"><defs><path id="MyriadPro-Regular-35" d="M2771 4160H781L512 2163c154 19 339 45 576 45 832 0 1190-384 1197-922 0-556-455-902-986-902-377 0-717 128-889 230L269 186C467 58 851-70 1306-70c902 0 1548 608 1548 1420 0 525-268 884-595 1069-256 154-576 224-896 224-153 0-243-13-339-25l160 1068h1587v474z" transform="scale(.01563)"/></defs><use xlink:href="#MyriadPro-Regular-35"/><use xlink:href="#MyriadPro-Regular-30" x="51.3"/><use xlink:href="#MyriadPro-Regular-30" x="102.6"/></g></g><g id="xtick_4"><use xlink:href="#mf5df9c42fa" id="line2d_4" x="237.888" y="323.252" style="fill:#969696;stroke:#969696;stroke-width:.4"/><g id="text_4" style="fill:#969696" transform="matrix(.14 0 0 -.14 227.116 340.192)"><defs><path id="MyriadPro-Regular-36" d="M2662 4224c-102 0-243-6-409-32-525-64-986-275-1331-614-410-410-704-1056-704-1876C218 621 800-70 1690-70c864 0 1382 704 1382 1465 0 813-518 1344-1254 1344-461 0-807-217-1005-480h-19c96 685 563 1331 1446 1479 160 25 307 32 422 25v461zM1690 365c-589 0-903 505-916 1190 0 103 26 186 64 250 154 301 468 512 807 512 518 0 857-359 857-954s-326-998-806-998h-6z" transform="scale(.01563)"/></defs><use xlink:href="#MyriadPro-Regular-36"/><use xlink:href="#MyriadPro-Regular-30" x="51.3"/><use xlink:href="#MyriadPro-Regular-30" x="102.6"/></g></g><g id="xtick_5"><use xlink:href="#mf5df9c42fa" id="line2d_5" x="305.269" y="323.252" style="fill:#969696;stroke:#969696;stroke-width:.4"/><g id="text_5" style="fill:#969696" transform="matrix(.14 0 0 -.14 294.497 340.192)"><defs><path id="MyriadPro-Regular-37" d="M365 4160v-467h2035v-13L595 0h583l1811 3789v371H365z" transform="scale(.01563)"/></defs><use xlink:href="#MyriadPro-Regular-37"/><use xlink:href="#MyriadPro-Regular-30" x="51.3"/><use xlink:href="#MyriadPro-Regular-30" x="102.6"/></g></g><g id="xtick_6"><use xlink:href="#mf5df9c42fa" id="line2d_6" x="372.65" y="323.252" style="fill:#969696;stroke:#969696;stroke-width:.4"/><g id="text_6" style="fill:#969696" transform="matrix(.14 0 0 -.14 361.878 340.192)"><defs><path id="MyriadPro-Regular-38" d="M1062 2170c-512-218-825-589-825-1114C237 448 762-70 1632-70c794 0 1414 486 1414 1209 0 506-320 871-838 1075v20c512 243 685 620 685 972 0 519-403 1024-1210 1024-729 0-1286-448-1286-1107 0-358 198-717 659-934l6-19zm583-1831c-531 0-851 371-832 794 0 397 262 717 749 857 563-160 915-403 915-908 0-423-327-743-832-743zm6 3488c506 0 704-345 704-678 0-378-275-634-633-755-480 128-794 352-794 768 0 358 256 665 723 665z" transform="scale(.01563)"/></defs><use xlink:href="#MyriadPro-Regular-38"/><use xlink:href="#MyriadPro-Regular-30" x="51.3"/><use xlink:href="#MyriadPro-Regular-30" x="102.6"/></g></g><g id="text_7" style="fill:#969696" transform="matrix(.14 0 0 -.14 164.563 370.904)"><defs><path id="MyriadPro-Regular-77" d="M115 3098 1050 0h512l499 1472c109 333 205 653 281 1024h13c77-365 167-672 275-1018L3104 0h512l998 3098h-556l-442-1556c-102-364-186-691-237-1004h-19c-70 313-160 640-275 1011l-480 1549h-474l-505-1575c-103-339-205-672-276-985h-19c-57 320-141 640-230 985L691 3098H115z" transform="scale(.01563)"/><path id="MyriadPro-Regular-61" d="M2643 1901c0 621-230 1267-1177 1267-391 0-762-109-1018-275l128-371c218 140 518 230 806 230 634 0 704-461 704-717v-64C890 1978 224 1568 224 819c0-448 320-889 947-889 442 0 775 217 947 460h20l44-390h512c-38 211-51 474-51 742v1159zm-544-858c0-57-13-121-32-179-89-262-345-518-749-518-288 0-531 172-531 537 0 602 698 711 1312 698v-538z" transform="scale(.01563)"/><path id="MyriadPro-Regular-76" d="M83 3098 1261 0h537l1216 3098h-588l-602-1741c-102-282-192-538-262-794h-20c-64 256-147 512-249 794L685 3098H83z" transform="scale(.01563)"/><path id="MyriadPro-Regular-65" d="M2957 1446c6 58 19 148 19 263 0 569-269 1459-1280 1459-902 0-1453-736-1453-1670C243 563 813-70 1766-70c493 0 832 108 1031 198l-96 403c-211-89-455-160-858-160-563 0-1049 314-1062 1075h2176zM787 1850c45 390 295 915 864 915 634 0 787-557 781-915H787z" transform="scale(.01563)"/><path id="MyriadPro-Regular-6c" d="M467 0h563v4544H467V0z" transform="scale(.01563)"/><path id="MyriadPro-Regular-6e" d="M467 0h563v1862c0 96 13 192 39 263 96 313 384 576 755 576 531 0 717-416 717-915V0h563v1850c0 1062-666 1318-1094 1318-512 0-871-288-1024-582h-13l-32 512H442c19-256 25-519 25-839V0z" transform="scale(.01563)"/><path id="MyriadPro-Regular-67" d="M3110 2246c0 378 13 628 26 852h-493l-25-468h-13c-135 256-429 538-967 538-710 0-1395-595-1395-1645C243 666 794 13 1562 13c480 0 812 230 985 518h13V186c0-781-422-1082-998-1082-384 0-704 115-909 243l-141-429c250-166 659-256 1030-256 391 0 826 90 1127 372 301 268 441 704 441 1414v1798zm-556-928c0-96-13-204-45-300-122-359-435-576-781-576-608 0-915 505-915 1113 0 717 384 1171 921 1171 410 0 685-268 788-595 25-77 32-160 32-256v-557z" transform="scale(.01563)"/><path id="MyriadPro-Regular-74" d="M595 3667v-569H115v-429h480V979c0-365 58-640 218-806C947 19 1158-70 1421-70c217 0 390 38 499 83l-26 422c-83-25-172-38-326-38-314 0-422 217-422 601v1671h806v429h-806v742l-551-173z" transform="scale(.01563)"/><path id="MyriadPro-Regular-68" d="M467 0h563v1869c0 109 7 192 39 269 102 307 390 563 755 563 531 0 717-423 717-922V0h563v1843c0 1069-666 1325-1082 1325-211 0-409-64-576-160-172-96-313-237-403-397h-13v1933H467V0z" transform="scale(.01563)"/><path id="MyriadPro-Regular-5b" d="M1696-717v352H960v4403h736v352H525V-717h1171z" transform="scale(.01563)"/><path id="MyriadPro-Regular-6d" d="M467 0h551v1869c0 96 12 192 44 275 90 282 346 563 698 563 429 0 646-358 646-851V0h551v1914c0 102 19 204 45 281 96 275 345 512 665 512 455 0 672-358 672-953V0h551v1824c0 1075-608 1344-1018 1344-294 0-499-77-685-218-128-96-249-230-345-403h-13c-135 365-455 621-877 621-512 0-800-275-973-570h-19l-26 500H442c19-256 25-519 25-839V0z" transform="scale(.01563)"/><path id="MyriadPro-Regular-5d" d="M122 4390v-352h736V-365H122v-352h1171v5107H122z" transform="scale(.01563)"/></defs><use xlink:href="#MyriadPro-Regular-77"/><use xlink:href="#MyriadPro-Regular-61" x="73.6"/><use xlink:href="#MyriadPro-Regular-76" x="121.8"/><use xlink:href="#MyriadPro-Regular-65" x="169.9"/><use xlink:href="#MyriadPro-Regular-6c" x="220"/><use xlink:href="#MyriadPro-Regular-65" x="243.6"/><use xlink:href="#MyriadPro-Regular-6e" x="293.7"/><use xlink:href="#MyriadPro-Regular-67" x="349.2"/><use xlink:href="#MyriadPro-Regular-74" x="405.1"/><use xlink:href="#MyriadPro-Regular-68" x="438.2"/><use xlink:href="#MyriadPro-Regular-20" x="493.7"/><use xlink:href="#MyriadPro-Regular-5b" x="514.9"/><use xlink:href="#MyriadPro-Regular-6e" x="543.3"/><use xlink:href="#MyriadPro-Regular-6d" x="598.8"/><use xlink:href="#MyriadPro-Regular-5d" x="682.2"/></g></g><g id="matplotlib.axis_2"><g id="ytick_1"><path id="line2d_7" d="M35.745 323.252h357.12" clip-path="url(#pfcf2c494c8)" style="fill:none;stroke:#969696;stroke-width:.3;stroke-linecap:square"/><g id="line2d_8"><defs><path id="mf301205215" d="M0 0h-3.5" style="stroke:#969696;stroke-width:.3"/></defs><use xlink:href="#mf301205215" x="35.745" y="323.252" style="fill:#969696;stroke:#969696;stroke-width:.3"/></g><use xlink:href="#MyriadPro-Regular-30" id="text_8" style="fill:#969696" transform="matrix(.14 0 0 -.14 21.563 328.222)"/></g><g id="ytick_2"><path id="line2d_9" d="M35.745 272.39h357.12" clip-path="url(#pfcf2c494c8)" style="fill:none;stroke:#969696;stroke-width:.3;stroke-linecap:square"/><use xlink:href="#mf301205215" id="line2d_10" x="35.745" y="272.39" style="fill:#969696;stroke:#969696;stroke-width:.3"/><g id="text_9" style="fill:#969696" transform="matrix(.14 0 0 -.14 14.382 277.36)"><use xlink:href="#MyriadPro-Regular-35"/><use xlink:href="#MyriadPro-Regular-30" x="51.3"/></g></g><g id="ytick_3"><path id="line2d_11" d="M35.745 221.528h357.12" clip-path="url(#pfcf2c494c8)" style="fill:none;stroke:#969696;stroke-width:.3;stroke-linecap:square"/><use xlink:href="#mf301205215" id="line2d_12" x="35.745" y="221.528" style="fill:#969696;stroke:#969696;stroke-width:.3"/><g id="text_10" style="fill:#969696" transform="matrix(.14 0 0 -.14 7.2 226.498)"><defs><path id="MyriadPro-Regular-31" d="M1510 0h544v4160h-480l-908-486 108-429 724 390h12V0z" transform="scale(.01563)"/></defs><use xlink:href="#MyriadPro-Regular-31"/><use xlink:href="#MyriadPro-Regular-30" x="51.3"/><use xlink:href="#MyriadPro-Regular-30" x="102.6"/></g></g><g id="ytick_4"><path id="line2d_13" d="M35.745 170.666h357.12" clip-path="url(#pfcf2c494c8)" style="fill:none;stroke:#969696;stroke-width:.3;stroke-linecap:square"/><use xlink:href="#mf301205215" id="line2d_14" x="35.745" y="170.666" style="fill:#969696;stroke:#969696;stroke-width:.3"/><g id="text_11" style="fill:#969696" transform="matrix(.14 0 0 -.14 7.2 175.636)"><use xlink:href="#MyriadPro-Regular-31"/><use xlink:href="#MyriadPro-Regular-35" x="51.3"/><use xlink:href="#MyriadPro-Regular-30" x="102.6"/></g></g><g id="ytick_5"><path id="line2d_15" d="M35.745 119.804h357.12" clip-path="url(#pfcf2c494c8)" style="fill:none;stroke:#969696;stroke-width:.3;stroke-linecap:square"/><use xlink:href="#mf301205215" id="line2d_16" x="35.745" y="119.804" style="fill:#969696;stroke:#969696;stroke-width:.3"/><g id="text_12" style="fill:#969696" transform="matrix(.14 0 0 -.14 7.2 124.774)"><defs><path id="MyriadPro-Regular-32" d="M2944 0v467H1075v13l333 307c877 845 1434 1466 1434 2234 0 595-378 1209-1274 1209-480 0-890-179-1178-422l180-397c192 160 505 352 883 352 621 0 825-390 825-813-6-627-486-1164-1548-2176L288 346V0h2656z" transform="scale(.01563)"/></defs><use xlink:href="#MyriadPro-Regular-32"/><use xlink:href="#MyriadPro-Regular-30" x="51.3"/><use xlink:href="#MyriadPro-Regular-30" x="102.6"/></g></g><g id="ytick_6"><path id="line2d_17" d="M35.745 68.942h357.12" clip-path="url(#pfcf2c494c8)" style="fill:none;stroke:#969696;stroke-width:.3;stroke-linecap:square"/><use xlink:href="#mf301205215" id="line2d_18" x="35.745" y="68.942" style="fill:#969696;stroke:#969696;stroke-width:.3"/><g id="text_13" style="fill:#969696" transform="matrix(.14 0 0 -.14 7.2 73.912)"><use xlink:href="#MyriadPro-Regular-32"/><use xlink:href="#MyriadPro-Regular-35" x="51.3"/><use xlink:href="#MyriadPro-Regular-30" x="102.6"/></g></g></g><path id="line2d_19" d="m35.745 322.305 8.76-.591 8.085-.77 7.412-.94 6.738-1.078 6.064-1.178 6.065-1.394 6.064-1.628 6.064-1.878 5.39-1.89 5.391-2.106 5.39-2.33 5.391-2.557 5.39-2.789 5.391-3.02 5.39-3.252 6.065-3.934 6.064-4.218 6.065-4.495 6.064-4.762 6.738-5.59 6.738-5.883 7.412-6.787 7.412-7.085 8.086-8.03 9.433-9.702 10.781-11.44 13.476-14.655 44.472-48.654 11.455-12.043 10.107-10.308 9.433-9.306 8.76-8.335 8.76-8.017 8.085-7.099 8.086-6.797 7.412-5.956 7.412-5.686 7.411-5.412 7.412-5.134 7.412-4.854 7.412-4.574 7.412-4.293 7.412-4.015 1.348-.7h0" clip-path="url(#pfcf2c494c8)" style="fill:none;stroke:#1f77b4;stroke-width:1.5;stroke-linecap:square"/><path id="line2d_20" d="M35.745 323.252h10.107l3.369-.01 3.369-.193 3.369-.204 3.37-1.17 3.368-1.17 3.37-2.187 3.368-2.187 3.37-3 3.368-3.001 3.37-4.375 3.368-4.272 3.37-6.205 3.369-5.595 3.369-7.04 3.369-7.608 3.369-7.904 3.369-8.27 3.369-8.657 3.369-8.941 3.369-9.084 3.369-8.718 3.37-7.833 3.368-6.714 3.37-5.442 3.368-3.814 3.37-1.984 3.368-.56 3.37.407 3.368.509 3.37-.204 3.369-.508 3.369-.295 3.369.193 3.369.997 3.369 2.258 3.369 3.866 3.369 4.883 3.369 5.208 3.37 4.76 3.368 3.55 3.37 1.944 3.368.122 3.37-1.241 3.368-1.974 3.37-2.197 3.368-1.882 3.37-1.272 3.369-.478 3.369.377 3.369 1.21 3.369 1.841 3.369 2.188 3.369 2.39 3.369 2.41 3.369 2.27 3.369 2.013 3.37 1.547 3.368.885 3.37.437 3.368.214 3.37.091 3.368.041 3.37.061 3.368.142 3.37.061 3.369-.193 3.369-.213h3.369l3.369.305 3.369.691 3.369.936 3.369 1.018 3.369 1.322 3.369 1.82 3.37 2.045 3.368 1.994 3.37 1.974 3.368 1.973 3.37 1.994 3.368 2.034 3.37 2.137 3.368 2.034 3.37 1.933 3.369 1.627 3.369 1.323 3.369 1.322 3.369 1.017 3.369.713 3.369.406 3.369.102 3.369-.203 3.37-.305 3.368-.61" clip-path="url(#pfcf2c494c8)" style="fill:none;stroke:#ff7f0e;stroke-width:1.5;stroke-linecap:square"/><path id="line2d_21" d="m35.745 323.232 3.369-1.033 3.369-1.033 3.369-2.913 3.369-2.913 3.369-3.545 3.369-3.545 3.37-1.628 3.368-1.627 3.37-1.558 3.368-1.557 3.37-1.491 3.368-1.492 3.37-1.535 3.368-1.535 3.37 1.257 3.369 1.258 3.369-2.738 3.369-2.738 3.369-9.886 3.369-9.886 3.369-3.665 3.369-3.664 3.369-1.79 3.369-1.792 3.37 1.128 3.368 1.127 3.37-8.65 3.368-8.65 3.37-6.319 3.368-6.318 3.37-1.712 3.368-1.711 3.37-.385 3.369-.384 3.369-1.903 3.369-1.902 3.369 1.6 3.369 1.6 3.369-1.913 3.369-1.913 3.369-.452 3.37-.453 3.368-.262 3.37-.262 3.368-2.528 3.37-2.528 3.368.684 3.37.683 3.368-.794 3.37-.795 3.369 1.179 3.369 1.178 3.369 1.152 3.369 1.152 3.369-.602 3.369-.601 3.369 2.756 3.369 2.756 3.369-2.13 3.37-2.13 3.368-.805 3.37-.804 3.368.115 3.37.116 3.368 1.689 3.37 1.688 3.368-1.595 3.37-1.594 3.369 1.622 3.369 1.623 3.369-1.283 3.369-1.283 3.369-2.449 3.369-2.448 3.369 1.969 3.369 1.968 3.369 5.977 3.37 5.978 3.368-2.148 3.37-2.148 3.368-.653 3.37-.654 3.368 8.155 3.37 8.156 3.368-4.912 3.37-4.912 3.369-3.086 3.369-3.087 3.369 7.299 3.369 7.299 3.369 10.446 3.369 10.446 3.369-12.833 3.369-12.833 3.37 2.364 3.368 2.365 3.37-.652 3.368-.65 3.37 3.129 3.368 3.13 3.37 4.822 3.368 4.822 3.37-3.488 3.369-3.487 3.369-1.864 3.369-1.864" clip-path="url(#pfcf2c494c8)" style="fill:none;stroke:#2ca02c;stroke-width:1.5;stroke-linecap:square"/><path id="line2d_22" d="m35.745 323.217 3.369-1.658 3.369-1.658 3.369-8.617 3.369-8.617 3.369-8.554 3.369-8.553 3.37-1.473 3.368-1.472 3.37-2.525 3.368-2.524 3.37-.878 3.368-.878 3.37-2.773 3.368-2.772 3.37 1.075 3.369 1.075 3.369-2.377 3.369-2.376 3.369-14.296 3.369-14.295 3.369-4.441 3.369-4.441 3.369-.99 3.369-.99 3.37 3.433 3.368 3.433 3.37-9.248 3.368-9.248 3.37-6.176 3.368-6.176 3.37-.409 3.368-.41 3.37 1.502 3.369 1.501 3.369-.54 3.369-.54 3.369 3.617 3.369 3.618 3.369-.277 3.369-.277 3.369.79 3.37.79 3.368 1.532 3.37 1.532 3.368-1.475 3.37-1.475 3.368 1.67 3.37 1.67 3.368.183 3.37.183 3.369 2.058 3.369 2.058 3.369 1.865 3.369 1.864 3.369.278 3.369.278 3.369 3.612 3.369 3.613 3.369-.672 3.37-.672 3.368.207 3.37.207 3.368.967 3.37.966 3.368 2.244 3.37 2.243 3.368-.21 3.37-.208 3.369 1.868 3.369 1.868 3.369-.096 3.369-.095 3.369-1.05 3.369-1.05 3.369 2.032 3.369 2.031 3.369 4.356 3.37 4.355 3.368-.96 3.37-.96 3.368-1.394 3.37-1.394 3.368 6.483 3.37 6.482 3.368-4.212 3.37-4.212 3.369-2.646 3.369-2.645 3.369 5.846 3.369 5.846 3.369 8.735 3.369 8.736 3.369-10.37 3.369-10.369 3.37 1.74 3.368 1.742 3.37-.469 3.368-.469 3.37 2.468 3.368 2.468 3.37 3.811 3.368 3.811 3.37-2.788 3.369-2.788 3.369-1.46 3.369-1.461" clip-path="url(#pfcf2c494c8)" style="fill:none;stroke:#d62728;stroke-width:1.5;stroke-linecap:square"/><path id="line2d_23" d="m89.65 322.418 3.369-.204 3.369-.244 3.369-.183 3.369-1.15 3.369-11.993 3.369 11.861 3.369.255 3.369-.285 3.37-.275 3.368-.285 3.37-29.062 3.368 22.766 3.37 5.544 3.368-.234 3.37-.194 3.368-.152 3.37-.132 3.369-.082 3.369-.06 3.369-.011 3.369.02 3.369-.03 3.369.112 3.369.101 3.369.051h3.37l3.368-.112 3.37-.264 3.368-.498 3.37-.784 3.368-1.109 3.37-1.464 3.368-15.3 3.37 7.813 3.369 1.576 3.369-2.075 3.369-1.892 3.369-1.485 3.369-3.214 3.369-1.608 3.369 3.337 3.369.57 3.369.935 3.37 1.282 3.368 1.475 3.37 1.597 3.368 1.638 3.37 1.617 3.368 1.526 3.37 1.465 3.368 1.261 3.37 1.18 3.369 1.038 3.369.885 3.369.783 3.369.661 3.369.58 3.369.489 3.369.427 3.369.346 3.369.295 3.37.152 3.368.285 3.37.183 3.368.132 3.37.133 3.368.122 3.37.091 3.368.082 3.37.05 3.369.031 3.369.03 3.369.041h3.369l3.369.041 3.369-.03 3.369-.01 3.369.06 3.37.051 3.368.071" clip-path="url(#pfcf2c494c8)" style="fill:none;stroke:#9467bd;stroke-width:1.5;stroke-linecap:square"/><g id="text_14" style="fill:#1f77b4" transform="matrix(.14 0 0 -.14 403.578 60.724)"><defs><path id="MyriadPro-Regular-41" d="M2714 1357 3174 0h596L2298 4314h-672L160 0h576l448 1357h1530zm-1415 435 423 1248c83 262 153 525 217 781h13c64-250 128-506 224-787l422-1242H1299z" transform="scale(.01563)"/></defs><use xlink:href="#MyriadPro-Regular-41"/></g><g id="text_15" style="fill:#ff7f0e" transform="matrix(.14 0 0 -.14 403.578 275.104)"><defs><path id="MyriadPro-Regular-43" d="M3386 582c-224-108-570-179-909-179-1050 0-1658 679-1658 1735 0 1132 672 1779 1683 1779 359 0 660-77 871-179l134 454c-147 77-486 192-1024 192-1337 0-2253-915-2253-2266C230 704 1146-70 2362-70c524 0 934 108 1139 211l-115 441z" transform="scale(.01563)"/></defs><use xlink:href="#MyriadPro-Regular-43"/></g><g id="text_16" style="fill:#2ca02c" transform="matrix(.14 0 0 -.14 403.578 247.104)"><defs><path id="MyriadPro-Regular-44" d="M486 13c282-32 615-51 1012-51 838 0 1504 217 1907 620 403 397 621 973 621 1677 0 698-224 1197-608 1549-378 352-948 538-1748 538-441 0-844-39-1184-90V13zm557 3833c147 32 365 58 653 58 1178 0 1754-646 1747-1664 0-1165-646-1830-1837-1830-217 0-422 6-563 32v3404z" transform="scale(.01563)"/></defs><use xlink:href="#MyriadPro-Regular-44"/><use xlink:href="#MyriadPro-Regular-35" x="66.6"/><use xlink:href="#MyriadPro-Regular-30" x="117.9"/></g><g id="text_17" style="fill:#d62728" transform="matrix(.14 0 0 -.14 403.578 261.104)"><use xlink:href="#MyriadPro-Regular-44"/><use xlink:href="#MyriadPro-Regular-36" x="66.6"/><use xlink:href="#MyriadPro-Regular-35" x="117.9"/></g><g id="text_18" style="fill:#9467bd" transform="matrix(.14 0 0 -.14 403.578 326.623)"><defs><path id="MyriadPro-Regular-46" d="M486 0h557v1952h1632v461H1043v1433h1767v468H486V0z" transform="scale(.01563)"/></defs><use xlink:href="#MyriadPro-Regular-46"/><use xlink:href="#MyriadPro-Regular-32" x="48.7"/></g><g id="text_19" style="fill:#969696" transform="matrix(.14 0 0 -.14 113.497 17.14)"><defs><path id="MyriadPro-Regular-53" d="M269 211C499 58 954-70 1370-70c1017 0 1510 582 1510 1248 0 633-371 985-1101 1267-595 230-857 429-857 832 0 294 224 646 812 646 391 0 679-128 820-205l153 455c-192 109-512 211-953 211-839 0-1396-499-1396-1171 0-608 436-973 1140-1223 582-224 812-454 812-857 0-435-332-736-902-736-384 0-749 128-998 281L269 211z" transform="scale(.01563)"/><path id="MyriadPro-Regular-50" d="M486 0h557v1728c128-32 282-38 448-38 544 0 1024 160 1319 473 217 224 332 531 332 922 0 384-140 697-377 902-256 231-659 359-1210 359-448 0-800-39-1069-84V0zm557 3859c96 26 282 45 525 45 614 0 1018-275 1018-845 0-595-410-921-1082-921-186 0-339 12-461 44v1677z" transform="scale(.01563)"/><path id="MyriadPro-Regular-73" d="M250 147C467 19 781-70 1120-70c736 0 1158 390 1158 934 0 461-275 730-812 934-404 154-589 269-589 525 0 231 185 423 518 423 288 0 512-103 634-180l141 410c-173 102-448 192-762 192-666 0-1069-410-1069-909 0-371 263-678 819-877 416-153 576-300 576-569 0-256-192-461-601-461-282 0-576 115-743 224L250 147z" transform="scale(.01563)"/><path id="MyriadPro-Regular-6f" d="M1779 3168c-857 0-1536-608-1536-1645C243 544 890-70 1728-70c749 0 1542 499 1542 1644 0 948-601 1594-1491 1594zm-13-422c666 0 928-666 928-1191 0-697-403-1203-940-1203-551 0-941 512-941 1190 0 589 288 1204 953 1204z" transform="scale(.01563)"/><path id="MyriadPro-Regular-66" d="M1082 0v2669h748v429h-748v166c0 474 121 896 601 896 160 0 275-32 359-70l76 435c-108 45-281 89-480 89-262 0-544-83-755-288-262-249-358-646-358-1081v-147H90v-429h435V0h557z" transform="scale(.01563)"/><path id="MyriadPro-Regular-64" d="M2579 4544V2694h-13c-140 250-460 474-934 474-755 0-1395-634-1389-1664C243 563 819-70 1568-70c506 0 883 262 1056 608h13l25-538h506c-19 211-26 525-26 800v3744h-563zm0-3245c0-89-6-166-25-243-103-422-448-672-826-672-608 0-915 518-915 1146 0 684 345 1196 928 1196 422 0 729-294 813-652 19-71 25-167 25-237v-538z" transform="scale(.01563)"/><path id="MyriadPro-Regular-72" d="M467 0h557v1651c0 96 13 186 26 263 76 422 358 723 755 723 77 0 134-7 192-19v531c-51 13-96 19-160 19-378 0-717-262-858-678h-25l-20 608H442c19-288 25-602 25-967V0z" transform="scale(.01563)"/><path id="MyriadPro-Regular-69" d="M1030 0v3098H467V0h563zM749 4320c-205 0-352-154-352-352 0-192 141-346 339-346 224 0 365 154 358 346 0 198-134 352-345 352z" transform="scale(.01563)"/><path id="MyriadPro-Regular-75" d="M3059 3098h-563V1197c0-103-19-205-51-288-103-250-365-512-743-512-512 0-691 397-691 985v1716H448V1286C448 198 1030-70 1517-70c550 0 877 326 1024 576h13l32-506h499c-19 243-26 525-26 845v2253z" transform="scale(.01563)"/></defs><use xlink:href="#MyriadPro-Regular-53"/><use xlink:href="#MyriadPro-Regular-50" x="49.3"/><use xlink:href="#MyriadPro-Regular-44" x="102.5"/><use xlink:href="#MyriadPro-Regular-73" x="169.1"/><use xlink:href="#MyriadPro-Regular-20" x="208.7"/><use xlink:href="#MyriadPro-Regular-6f" x="229.9"/><use xlink:href="#MyriadPro-Regular-66" x="284.8"/><use xlink:href="#MyriadPro-Regular-20" x="314"/><use xlink:href="#MyriadPro-Regular-73" x="335.2"/><use xlink:href="#MyriadPro-Regular-6f" x="374.8"/><use xlink:href="#MyriadPro-Regular-6d" x="429.7"/><use xlink:href="#MyriadPro-Regular-65" x="513.1"/><use xlink:href="#MyriadPro-Regular-20" x="563.2"/><use xlink:href="#MyriadPro-Regular-73" x="584.4"/><use xlink:href="#MyriadPro-Regular-74" x="624"/><use xlink:href="#MyriadPro-Regular-61" x="657.1"/><use xlink:href="#MyriadPro-Regular-6e" x="705.3"/><use xlink:href="#MyriadPro-Regular-64" x="760.8"/><use xlink:href="#MyriadPro-Regular-61" x="817.2"/><use xlink:href="#MyriadPro-Regular-72" x="865.4"/><use xlink:href="#MyriadPro-Regular-64" x="898.1"/><use xlink:href="#MyriadPro-Regular-20" x="954.5"/><use xlink:href="#MyriadPro-Regular-69" x="975.7"/><use xlink:href="#MyriadPro-Regular-6c" x="999.1"/><use xlink:href="#MyriadPro-Regular-6c" x="1022.7"/><use xlink:href="#MyriadPro-Regular-75" x="1046.3"/><use xlink:href="#MyriadPro-Regular-6d" x="1101.4"/><use xlink:href="#MyriadPro-Regular-69" x="1184.8"/><use xlink:href="#MyriadPro-Regular-6e" x="1208.2"/><use xlink:href="#MyriadPro-Regular-61" x="1263.7"/><use xlink:href="#MyriadPro-Regular-6e" x="1311.9"/><use xlink:href="#MyriadPro-Regular-74" x="1367.4"/><use xlink:href="#MyriadPro-Regular-73" x="1400.5"/></g></g></g><defs><clipPath id="pfcf2c494c8"><path d="M35.745 57.14h357.12v266.112H35.745z"/></clipPath></defs></svg>