<svg xmlns="http://www.w3.org/2000/svg" xmlns:xlink="http://www.w3.org/1999/xlink" width="383.529" height="508.038" viewBox="0 0 287.647 381.028"><defs><style>*{stroke-linejoin:round;stroke-linecap:butt}</style></defs><g id="figure_1"><path id="patch_1" d="M0 381.028h287.647V0H0v381.028z" style="fill:none"/><g id="axes_1"><path id="patch_2" d="M61.795 323.405h218.652V57.293H61.795v266.112z" style="fill:none"/><g id="matplotlib.axis_1"><g id="xtick_1"><g id="line2d_1"><defs><path id="md2c24361bc" d="M0 0v3.5" style="stroke:#969696;stroke-width:.4"/></defs><use xlink:href="#md2c24361bc" x="93.222" y="323.405" style="fill:#969696;stroke:#969696;stroke-width:.4"/></g><g id="text_1" style="fill:#969696" transform="matrix(.14 0 0 -.14 81.868 340.345)"><defs><path id="MyriadPro-Regular-2212" d="M256 1901v-384h3302v384H256z" transform="scale(.01563)"/><path id="MyriadPro-Regular-35" d="M2771 4160H781L512 2163c154 19 339 45 576 45 832 0 1190-384 1197-922 0-556-455-902-986-902-377 0-717 128-889 230L269 186C467 58 851-70 1306-70c902 0 1548 608 1548 1420 0 525-268 884-595 1069-256 154-576 224-896 224-153 0-243-13-339-25l160 1068h1587v474z" transform="scale(.01563)"/><path id="MyriadPro-Regular-30" d="M1677 4230c-845 0-1447-768-1447-2163C243 691 794-70 1606-70c922 0 1447 780 1447 2195 0 1325-499 2105-1376 2105zm-32-435c582 0 845-672 845-1696 0-1062-276-1734-852-1734-512 0-844 614-844 1696 0 1133 358 1734 851 1734z" transform="scale(.01563)"/></defs><use xlink:href="#MyriadPro-Regular-2212"/><use xlink:href="#MyriadPro-Regular-35" x="59.6"/><use xlink:href="#MyriadPro-Regular-30" x="110.9"/></g></g><g id="xtick_2"><use xlink:href="#md2c24361bc" id="line2d_2" x="157.554" y="323.405" style="fill:#969696;stroke:#969696;stroke-width:.4"/><use xlink:href="#MyriadPro-Regular-30" id="text_2" style="fill:#969696" transform="matrix(.14 0 0 -.14 153.963 340.345)"/></g><g id="xtick_3"><use xlink:href="#md2c24361bc" id="line2d_3" x="221.887" y="323.405" style="fill:#969696;stroke:#969696;stroke-width:.4"/><g id="text_3" style="fill:#969696" transform="matrix(.14 0 0 -.14 214.705 340.345)"><use xlink:href="#MyriadPro-Regular-35"/><use xlink:href="#MyriadPro-Regular-30" x="51.3"/></g></g><g id="text_4" style="fill:#969696" transform="matrix(.14 0 0 -.14 164.842 371.057)"><defs><path id="MyriadPro-Regular-61" d="M2643 1901c0 621-230 1267-1177 1267-391 0-762-109-1018-275l128-371c218 140 518 230 806 230 634 0 704-461 704-717v-64C890 1978 224 1568 224 819c0-448 320-889 947-889 442 0 775 217 947 460h20l44-390h512c-38 211-51 474-51 742v1159zm-544-858c0-57-13-121-32-179-89-262-345-518-749-518-288 0-531 172-531 537 0 602 698 711 1312 698v-538z" transform="scale(.01563)"/><path id="MyriadPro-Regular-2a" d="m1722 4384-391-896h-13l-396 890-391-224 602-781v-13l-941 122v-436l947 122v-13l-608-781 365-230 416 902h13l384-896 403 231-614 768v13l966-116v436l-966-128v12l608 800-384 218z" transform="scale(.01563)"/></defs><use xlink:href="#MyriadPro-Regular-61"/><use xlink:href="#MyriadPro-Regular-2a" x="48.2"/></g></g><g id="matplotlib.axis_2"><g id="ytick_1"><g id="line2d_4"><defs><path id="m3a0a07b45b" d="M0 0h-3.5" style="stroke:#969696;stroke-width:.3"/></defs><use xlink:href="#m3a0a07b45b" x="61.795" y="322.527" style="fill:#969696;stroke:#969696;stroke-width:.3"/></g><g id="text_5" style="fill:#969696" transform="matrix(.14 0 0 -.14 32.088 327.497)"><defs><path id="MyriadPro-Regular-37" d="M365 4160v-467h2035v-13L595 0h583l1811 3789v371H365z" transform="scale(.01563)"/></defs><use xlink:href="#MyriadPro-Regular-2212"/><use xlink:href="#MyriadPro-Regular-37" x="59.6"/><use xlink:href="#MyriadPro-Regular-35" x="110.9"/></g></g><g id="ytick_2"><use xlink:href="#m3a0a07b45b" id="line2d_5" x="61.795" y="290.361" style="fill:#969696;stroke:#969696;stroke-width:.3"/><g id="text_6" style="fill:#969696" transform="matrix(.14 0 0 -.14 32.088 295.33)"><use xlink:href="#MyriadPro-Regular-2212"/><use xlink:href="#MyriadPro-Regular-35" x="59.6"/><use xlink:href="#MyriadPro-Regular-30" x="110.9"/></g></g><g id="ytick_3"><use xlink:href="#m3a0a07b45b" id="line2d_6" x="61.795" y="258.194" style="fill:#969696;stroke:#969696;stroke-width:.3"/><g id="text_7" style="fill:#969696" transform="matrix(.14 0 0 -.14 32.088 263.164)"><defs><path id="MyriadPro-Regular-32" d="M2944 0v467H1075v13l333 307c877 845 1434 1466 1434 2234 0 595-378 1209-1274 1209-480 0-890-179-1178-422l180-397c192 160 505 352 883 352 621 0 825-390 825-813-6-627-486-1164-1548-2176L288 346V0h2656z" transform="scale(.01563)"/></defs><use xlink:href="#MyriadPro-Regular-2212"/><use xlink:href="#MyriadPro-Regular-32" x="59.6"/><use xlink:href="#MyriadPro-Regular-35" x="110.9"/></g></g><g id="ytick_4"><use xlink:href="#m3a0a07b45b" id="line2d_7" x="61.795" y="226.028" style="fill:#969696;stroke:#969696;stroke-width:.3"/><use xlink:href="#MyriadPro-Regular-30" id="text_8" style="fill:#969696" transform="matrix(.14 0 0 -.14 47.613 230.998)"/></g><g id="ytick_5"><use xlink:href="#m3a0a07b45b" id="line2d_8" x="61.795" y="193.861" style="fill:#969696;stroke:#969696;stroke-width:.3"/><g id="text_9" style="fill:#969696" transform="matrix(.14 0 0 -.14 40.432 198.831)"><use xlink:href="#MyriadPro-Regular-32"/><use xlink:href="#MyriadPro-Regular-35" x="51.3"/></g></g><g id="ytick_6"><use xlink:href="#m3a0a07b45b" id="line2d_9" x="61.795" y="161.695" style="fill:#969696;stroke:#969696;stroke-width:.3"/><g id="text_10" style="fill:#969696" transform="matrix(.14 0 0 -.14 40.432 166.665)"><use xlink:href="#MyriadPro-Regular-35"/><use xlink:href="#MyriadPro-Regular-30" x="51.3"/></g></g><g id="ytick_7"><use xlink:href="#m3a0a07b45b" id="line2d_10" x="61.795" y="129.529" style="fill:#969696;stroke:#969696;stroke-width:.3"/><g id="text_11" style="fill:#969696" transform="matrix(.14 0 0 -.14 40.432 134.499)"><use xlink:href="#MyriadPro-Regular-37"/><use xlink:href="#MyriadPro-Regular-35" x="51.3"/></g></g><g id="ytick_8"><use xlink:href="#m3a0a07b45b" id="line2d_11" x="61.795" y="97.362" style="fill:#969696;stroke:#969696;stroke-width:.3"/><g id="text_12" style="fill:#969696" transform="matrix(.14 0 0 -.14 33.25 102.332)"><defs><path id="MyriadPro-Regular-31" d="M1510 0h544v4160h-480l-908-486 108-429 724 390h12V0z" transform="scale(.01563)"/></defs><use xlink:href="#MyriadPro-Regular-31"/><use xlink:href="#MyriadPro-Regular-30" x="51.3"/><use xlink:href="#MyriadPro-Regular-30" x="102.6"/></g></g><g id="ytick_9"><use xlink:href="#m3a0a07b45b" id="line2d_12" x="61.795" y="65.196" style="fill:#969696;stroke:#969696;stroke-width:.3"/><g id="text_13" style="fill:#969696" transform="matrix(.14 0 0 -.14 33.25 70.166)"><use xlink:href="#MyriadPro-Regular-31"/><use xlink:href="#MyriadPro-Regular-32" x="51.3"/><use xlink:href="#MyriadPro-Regular-35" x="102.6"/></g></g><g id="text_14" style="fill:#969696" transform="matrix(.14 0 0 -.14 7.2 187.578)"><defs><path id="MyriadPro-Regular-62" d="M467 800c0-275-13-589-25-800h486l26 512h19c230-410 589-582 1037-582 691 0 1388 550 1388 1657 7 941-537 1581-1305 1581-499 0-858-224-1056-570h-13v1946H467V800zm557 998c0 90 19 167 32 231 115 429 474 691 858 691 601 0 921-531 921-1152 0-710-352-1190-941-1190-409 0-736 268-844 659-13 64-26 134-26 205v556z" transform="scale(.01563)"/></defs><use xlink:href="#MyriadPro-Regular-62"/><use xlink:href="#MyriadPro-Regular-2a" x="56.9"/></g></g><path id="patch_3" d="M149.541 278.722c-.71-.975-1.467-1.856-2.103-2.449-.636-.592-1.1-.848-1.288-.71-.189.137-.087.656.282 1.443s.975 1.778 1.686 2.753c.71.976 1.467 1.857 2.103 2.45.636.592 1.1.847 1.288.71.189-.138.087-.657-.282-1.444-.369-.787-.975-1.777-1.686-2.753z" clip-path="url(#p069c6561da)" style="fill:#969696"/><path id="patch_4" d="M160.98 104.685c.84.2 1.882-.595 2.896-2.211 1.013-1.617 1.917-3.922 2.51-6.408.594-2.487.829-4.952.654-6.852-.174-1.9-.745-3.08-1.585-3.28-.84-.201-1.882.594-2.896 2.21-1.014 1.617-1.917 3.922-2.511 6.409-.593 2.486-.829 4.951-.654 6.851.174 1.9.745 3.08 1.585 3.281z" clip-path="url(#p069c6561da)" style="fill:#969696"/><path id="patch_5" d="M201.084 222.88a2.538 2.538 0 0 0 1.775-.417c.501-.35.825-.871.9-1.449a2.101 2.101 0 0 0-.5-1.63 2.538 2.538 0 0 0-1.608-.858 2.538 2.538 0 0 0-1.774.417c-.502.35-.826.872-.9 1.449a2.101 2.101 0 0 0 .5 1.63c.395.467.973.776 1.607.859z" clip-path="url(#p069c6561da)" style="fill:#969696"/><path id="patch_6" d="M134.756 224.382c.3.132.622.18.896.133.273-.047.477-.185.564-.384.088-.198.053-.441-.096-.676a1.603 1.603 0 0 0-.701-.572c-.3-.132-.622-.18-.896-.133-.273.047-.476.185-.564.384-.088.198-.053.442.096.676.15.234.402.44.701.572z" clip-path="url(#p069c6561da)" style="fill:#969696"/><path id="patch_7" d="M182.531 241.817c.363.323.804.529 1.227.571.422.043.791-.081 1.026-.344.234-.263.315-.644.224-1.059-.091-.415-.346-.83-.709-1.153-.363-.323-.804-.529-1.227-.571-.422-.043-.791.08-1.026.344-.234.263-.315.644-.224 1.059.091.414.346.83.709 1.153z" clip-path="url(#p069c6561da)" style="fill:#969696"/><path id="patch_8" d="M156.361 235.618c.233-.06.422-.251.526-.533.104-.282.114-.632.028-.971a1.676 1.676 0 0 0-.487-.841c-.226-.198-.484-.277-.717-.218-.233.06-.422.251-.526.533a1.676 1.676 0 0 0-.028.971c.086.34.262.643.487.841.226.199.484.277.717.218z" clip-path="url(#p069c6561da)" style="fill:#969696"/><path id="patch_9" d="M154.346 222.431c.316.012.627-.195.865-.576.239-.38.384-.903.405-1.453.02-.55-.085-1.082-.294-1.48-.208-.397-.503-.627-.82-.64-.315-.011-.627.196-.865.577-.238.38-.384.903-.405 1.453-.02.55.085 1.082.294 1.48.209.397.504.627.82.64z" clip-path="url(#p069c6561da)" style="fill:#969696"/><path id="patch_10" d="M225.777 169.104c-.61 1.636-1.027 3.268-1.16 4.536-.133 1.268.03 2.069.452 2.226.422.158 1.069-.341 1.798-1.387.73-1.046 1.483-2.552 2.092-4.188.61-1.636 1.027-3.268 1.16-4.536.133-1.268-.03-2.07-.452-2.226-.422-.158-1.069.341-1.798 1.387-.73 1.046-1.483 2.552-2.092 4.188z" clip-path="url(#p069c6561da)" style="fill:#969696"/><path id="patch_11" d="M115.619 177.76c-.504-1.064-1.212-1.978-1.968-2.54-.756-.563-1.498-.729-2.063-.461-.565.267-.906.947-.949 1.888-.043.941.216 2.068.72 3.131.505 1.064 1.213 1.978 1.969 2.54.755.563 1.497.73 2.062.461.565-.267.906-.947.95-1.888.042-.941-.217-2.068-.721-3.131z" clip-path="url(#p069c6561da)" style="fill:#969696"/><path id="patch_12" d="M132.886 157.063c.513-.02.984-.62 1.307-1.672.324-1.05.475-2.465.42-3.932-.056-1.467-.313-2.866-.715-3.89-.402-1.023-.916-1.587-1.43-1.568-.513.02-.983.62-1.307 1.672-.323 1.05-.474 2.465-.419 3.932.056 1.467.313 2.866.715 3.89.402 1.023.916 1.587 1.43 1.568z" clip-path="url(#p069c6561da)" style="fill:#969696"/><path id="patch_13" d="M125.868 179.24c.432-.18.709-.684.77-1.402.06-.717-.101-1.59-.448-2.425-.347-.835-.852-1.565-1.403-2.028-.55-.464-1.103-.623-1.536-.443-.432.18-.71.683-.77 1.4-.06.718.1 1.59.448 2.426.347.835.851 1.565 1.403 2.028.55.464 1.103.623 1.536.443z" clip-path="url(#p069c6561da)" style="fill:#969696"/><path id="patch_14" d="M147.7 205.816c.288-.082.49-.426.56-.955.068-.53 0-1.201-.19-1.867-.19-.666-.488-1.272-.827-1.685-.34-.412-.692-.597-.98-.515-.29.083-.49.427-.56.956-.07.53-.001 1.2.19 1.867.19.666.488 1.272.827 1.684.338.413.691.598.98.515z" clip-path="url(#p069c6561da)" style="fill:#969696"/><path id="patch_15" d="M143.817 177.182c.386-.018.736-.454.974-1.213.238-.759.344-1.778.294-2.833-.05-1.054-.25-2.059-.558-2.792-.308-.733-.698-1.135-1.084-1.117-.386.018-.736.455-.974 1.214-.238.758-.344 1.777-.294 2.832.05 1.055.25 2.06.558 2.793.308.733.698 1.134 1.084 1.116z" clip-path="url(#p069c6561da)" style="fill:#969696"/><path id="patch_16" d="M129.236 221.602c.247-.249.351-.62.29-1.03-.062-.41-.284-.826-.618-1.158-.335-.331-.753-.55-1.164-.608-.41-.058-.78.049-1.027.298-.247.249-.351.62-.29 1.03.062.41.285.827.619 1.158.334.331.752.55 1.163.608.411.058.78-.049 1.027-.298z" clip-path="url(#p069c6561da)" style="fill:#969696"/><path id="patch_17" d="M117.577 234.444c.622-.122 1.182-.425 1.557-.841.375-.417.534-.913.442-1.38-.092-.467-.427-.867-.931-1.11-.505-.244-1.138-.313-1.76-.19-.622.122-1.182.424-1.557.84-.375.417-.534.914-.442 1.38.092.468.427.867.932 1.111.504.244 1.137.312 1.759.19z" clip-path="url(#p069c6561da)" style="fill:#969696"/><path id="patch_18" d="M125.196 236.427c.56-.114 1.07-.35 1.42-.658.348-.307.508-.66.442-.98-.065-.321-.35-.583-.792-.73-.441-.145-1.004-.163-1.563-.05-.559.115-1.07.352-1.419.659-.349.307-.508.66-.443.98.065.32.35.583.792.73.442.145 1.004.163 1.563.049z" clip-path="url(#p069c6561da)" style="fill:#969696"/><path id="patch_19" d="M129.863 246.295a2.182 2.182 0 0 0 1.522-.166c.45-.236.768-.628.881-1.09a1.692 1.692 0 0 0-.276-1.372 2.182 2.182 0 0 0-1.271-.854 2.182 2.182 0 0 0-1.523.167c-.45.235-.768.627-.881 1.088-.114.462-.014.956.276 1.374.29.417.748.724 1.272.853z" clip-path="url(#p069c6561da)" style="fill:#969696"/><path id="patch_20" d="M140.119 235.512c.26.094.565.032.848-.172.282-.204.52-.535.658-.918.139-.384.169-.789.083-1.127-.086-.338-.281-.58-.542-.675-.26-.094-.566-.033-.848.172-.283.204-.52.534-.658.918-.14.383-.169.789-.083 1.127.086.337.281.58.542.675z" clip-path="url(#p069c6561da)" style="fill:#969696"/><path id="patch_21" d="M153.681 237.901c.232.002.455-.155.62-.436.166-.282.26-.664.264-1.063.003-.4-.087-.783-.248-1.066-.162-.284-.383-.444-.614-.446-.232-.001-.455.156-.62.437-.166.28-.26.663-.264 1.062-.003.4.087.783.248 1.067.162.283.383.443.614.445z" clip-path="url(#p069c6561da)" style="fill:#969696"/><path id="patch_22" d="M161.96 233.63c.32.005.627-.153.856-.438.23-.285.361-.674.367-1.08.005-.408-.116-.8-.337-1.092-.221-.291-.524-.457-.843-.462-.318-.004-.626.154-.855.439-.23.285-.361.674-.367 1.081-.005.407.116.8.337 1.091.221.291.524.457.843.462z" clip-path="url(#p069c6561da)" style="fill:#969696"/><path id="patch_23" d="M166.984 215.399c.323.118.694.063 1.032-.153.337-.216.615-.576.77-1 .155-.423.176-.876.057-1.26-.118-.383-.366-.664-.688-.783-.323-.118-.694-.063-1.032.153-.338.216-.615.576-.77 1-.155.423-.176.876-.058 1.26.119.383.366.664.689.783z" clip-path="url(#p069c6561da)" style="fill:#969696"/><path id="patch_24" d="M159.35 200.437c.342.042.697-.137.986-.497.29-.36.49-.873.557-1.424.068-.551-.003-1.097-.197-1.516-.193-.42-.494-.679-.836-.72-.342-.043-.696.136-.985.496-.29.36-.49.873-.558 1.424-.067.551.003 1.097.197 1.516.194.42.495.679.836.72z" clip-path="url(#p069c6561da)" style="fill:#969696"/><path id="patch_25" d="M186.544 203.732c.657-.434 1.19-.999 1.48-1.569.292-.57.317-1.1.07-1.473-.246-.373-.743-.558-1.382-.515-.639.044-1.367.312-2.024.746s-1.19.999-1.48 1.57c-.292.57-.317 1.1-.07 1.472.246.373.743.558 1.382.515.638-.044 1.367-.312 2.024-.746z" clip-path="url(#p069c6561da)" style="fill:#969696"/><path id="patch_26" d="M179.038 218.143c-.3-.334-.755-.505-1.265-.474-.51.03-1.034.26-1.455.639-.421.378-.706.873-.792 1.377-.086.504.035.975.335 1.31.3.334.755.504 1.265.473.51-.03 1.034-.26 1.455-.638.421-.378.706-.874.792-1.378.086-.503-.035-.974-.335-1.309z" clip-path="url(#p069c6561da)" style="fill:#969696"/><path id="patch_27" d="M169.457 189.127c.264.143.643.05 1.053-.26.41-.308.818-.809 1.133-1.39.315-.58.512-1.195.547-1.707.036-.513-.093-.881-.358-1.025-.264-.143-.644-.05-1.054.26-.41.308-.817.809-1.132 1.39-.315.58-.512 1.195-.547 1.707-.036.513.093.881.358 1.025z" clip-path="url(#p069c6561da)" style="fill:#969696"/><path id="patch_28" d="M182.496 149.17c.417.125.966-.257 1.526-1.06s1.086-1.963 1.462-3.223c.376-1.26.57-2.519.541-3.498-.029-.979-.28-1.599-.696-1.723-.417-.124-.966.258-1.526 1.06-.56.804-1.086 1.964-1.462 3.224-.376 1.26-.57 2.519-.541 3.498.029.979.28 1.599.696 1.723z" clip-path="url(#p069c6561da)" style="fill:#969696"/><path id="patch_29" d="M158.593 148.922c.43.05.936-.712 1.407-2.118.47-1.405.868-3.34 1.104-5.377.236-2.037.291-4.011.154-5.487-.137-1.476-.456-2.333-.886-2.383-.43-.05-.936.712-1.406 2.117-.471 1.406-.868 3.34-1.104 5.378-.236 2.037-.292 4.011-.155 5.487.137 1.476.456 2.333.886 2.383z" clip-path="url(#p069c6561da)" style="fill:#969696"/><path id="patch_30" d="M191.85 180.703c-.865.802-1.59 1.683-2.017 2.45-.426.765-.52 1.354-.258 1.636.261.282.855.233 1.651-.135s1.73-1.025 2.594-1.827c.865-.802 1.59-1.683 2.017-2.45.427-.765.52-1.354.258-1.636-.261-.281-.855-.233-1.651.135s-1.73 1.025-2.594 1.827z" clip-path="url(#p069c6561da)" style="fill:#969696"/><path id="patch_31" d="M100.39 221.806c1.281.22 2.53.306 3.474.237.944-.068 1.505-.284 1.56-.6.054-.316-.403-.707-1.27-1.086-.867-.38-2.073-.716-3.353-.936-1.28-.22-2.53-.305-3.474-.237-.944.068-1.505.284-1.559.6-.054.317.402.708 1.27 1.087.866.379 2.072.715 3.353.935z" clip-path="url(#p069c6561da)" style="fill:#969696"/><path id="patch_32" d="M123.492 264.299a1.974 1.974 0 0 0 1.192-.77 1.64 1.64 0 0 0 .283-1.3 1.64 1.64 0 0 0-.792-1.067 1.974 1.974 0 0 0-1.404-.211 1.974 1.974 0 0 0-1.192.77 1.64 1.64 0 0 0-.283 1.299c.095.444.38.828.792 1.068.412.24.917.316 1.404.211z" clip-path="url(#p069c6561da)" style="fill:#969696"/><path id="patch_33" d="M182.699 285.913c1.015 1.008 2.043 1.92 2.858 2.535.815.615 1.35.882 1.488.743.138-.139-.133-.672-.752-1.484-.62-.81-1.538-1.833-2.553-2.842-1.014-1.008-2.042-1.92-2.857-2.535-.815-.615-1.35-.882-1.489-.743-.138.139.133.673.752 1.484.62.811 1.538 1.833 2.553 2.842z" clip-path="url(#p069c6561da)" style="fill:#969696"/><path id="patch_34" d="M177.974 266.9c-.118.115.074.539.534 1.178.46.64 1.15 1.441 1.919 2.23.769.788 1.553 1.498 2.18 1.974.628.476 1.047.679 1.165.563.119-.115-.073-.54-.533-1.178-.46-.64-1.15-1.442-1.92-2.23-.768-.788-1.553-1.499-2.18-1.975-.627-.475-1.046-.678-1.165-.562z" clip-path="url(#p069c6561da)" style="fill:#969696"/><path id="patch_35" d="M217.784 200.336c-.808.542-1.472 1.227-1.845 1.905-.374.677-.426 1.293-.147 1.71.28.416.869.601 1.638.513.768-.088 1.654-.442 2.462-.984.808-.541 1.471-1.226 1.845-1.904.373-.678.426-1.293.146-1.71-.28-.417-.868-.601-1.637-.513-.769.088-1.655.442-2.462.983z" clip-path="url(#p069c6561da)" style="fill:#969696"/><path id="patch_36" d="M141.9 238.074c.248.097.549.033.833-.178.285-.211.532-.552.686-.947.153-.396.202-.813.134-1.161-.067-.349-.245-.599-.494-.695-.25-.097-.55-.033-.834.178-.285.21-.532.552-.686.947-.153.395-.202.813-.134 1.161.067.348.245.598.494.695z" clip-path="url(#p069c6561da)" style="fill:#969696"/><path id="patch_37" d="M138.007 241.693c.369-.097.7-.276.92-.497.22-.22.312-.465.255-.68-.057-.215-.258-.383-.558-.466-.3-.083-.677-.075-1.045.023-.368.097-.7.276-.92.497-.22.22-.311.465-.255.68.057.215.258.382.559.466.3.083.676.075 1.044-.023z" clip-path="url(#p069c6561da)" style="fill:#969696"/><path id="patch_38" d="M154.114 235.557c.18.041.374-.015.54-.155.164-.14.288-.354.342-.593a1.097 1.097 0 0 0-.055-.682.623.623 0 0 0-.419-.372c-.18-.04-.373.015-.539.156-.165.14-.288.353-.342.592-.054.239-.035.484.054.682.089.198.24.332.42.372z" clip-path="url(#p069c6561da)" style="fill:#969696"/><path id="patch_39" d="M172.385 217.518c.185.141.472.133.797-.022.326-.155.664-.445.94-.805.276-.361.466-.763.53-1.119.065-.355-.004-.634-.189-.775-.185-.142-.472-.134-.798.021-.325.155-.663.445-.939.806-.276.36-.467.763-.53 1.118-.065.355.003.634.189.776z" clip-path="url(#p069c6561da)" style="fill:#969696"/><path id="patch_40" d="M151.921 233.321a.45.45 0 0 0 .395.046.735.735 0 0 0 .375-.288.735.735 0 0 0 .134-.453.45.45 0 0 0-.185-.353.45.45 0 0 0-.395-.045.735.735 0 0 0-.375.288.735.735 0 0 0-.134.453.45.45 0 0 0 .185.352z" clip-path="url(#p069c6561da)" style="fill:#969696"/><path id="patch_41" d="M152.803 236.17c.31-.324.495-.742.514-1.162.02-.42-.128-.81-.411-1.08a1.392 1.392 0 0 0-1.097-.368 1.816 1.816 0 0 0-1.14.562c-.31.323-.495.74-.514 1.16-.02.421.129.81.411 1.082.283.271.678.403 1.097.367.42-.037.83-.239 1.14-.562z" clip-path="url(#p069c6561da)" style="fill:#969696"/><path id="patch_42" d="M141.279 245.39c.266-.262.381-.656.32-1.096-.063-.44-.296-.89-.65-1.253-.355-.361-.8-.605-1.24-.676-.438-.072-.834.035-1.1.296-.267.26-.382.654-.32 1.095.062.44.296.89.65 1.252.354.362.8.606 1.238.677.439.071.835-.035 1.102-.296z" clip-path="url(#p069c6561da)" style="fill:#969696"/><path id="patch_43" d="M117.838 228.848c.845.063 1.665-.004 2.28-.187.615-.182.973-.465.997-.787.024-.321-.288-.654-.87-.926-.58-.272-1.381-.46-2.226-.523-.846-.063-1.666.004-2.28.186-.615.183-.974.466-.998.787-.024.322.289.655.87.927.58.272 1.381.46 2.227.523z" clip-path="url(#p069c6561da)" style="fill:#969696"/><path id="patch_44" d="M119.812 242.086c.598-.187 1.14-.466 1.507-.776s.53-.623.45-.873c-.078-.25-.39-.416-.868-.46-.478-.044-1.083.036-1.68.224-.598.187-1.14.466-1.507.776-.367.309-.53.623-.45.873.078.25.39.416.868.46.478.044 1.083-.036 1.68-.224z" clip-path="url(#p069c6561da)" style="fill:#969696"/><path id="patch_45" d="M92.244 192.85c1.01.413 2.063.606 2.926.537.862-.069 1.464-.394 1.673-.905.209-.51.007-1.165-.56-1.818-.567-.653-1.454-1.252-2.465-1.666-1.011-.413-2.064-.606-2.926-.537-.863.069-1.465.394-1.674.905-.208.51-.007 1.165.56 1.818.568.653 1.455 1.252 2.466 1.666z" clip-path="url(#p069c6561da)" style="fill:#969696"/><path id="patch_46" d="M154.494 225.674c.304-.013.584-.304.778-.81.193-.505.285-1.182.254-1.883-.03-.701-.18-1.368-.418-1.855-.237-.486-.54-.752-.845-.739-.305.014-.585.305-.778.81-.194.505-.286 1.183-.255 1.884.03.701.181 1.368.418 1.854.237.487.541.753.846.74z" clip-path="url(#p069c6561da)" style="fill:#969696"/><path id="patch_47" d="M162.389 250.326c.196-.09.29-.378.264-.804-.027-.426-.174-.953-.408-1.466-.233-.513-.535-.97-.839-1.269-.304-.3-.584-.417-.78-.328-.195.089-.29.378-.263.804.026.426.173.953.407 1.466.233.513.535.969.84 1.269.303.3.583.417.779.328z" clip-path="url(#p069c6561da)" style="fill:#969696"/><path id="patch_48" d="M191.425 253.769c.57.575 1.214 1.032 1.788 1.27.574.238 1.033.236 1.275-.003.241-.24.247-.698.014-1.275-.232-.576-.684-1.224-1.254-1.8-.57-.575-1.214-1.032-1.788-1.27-.575-.237-1.033-.236-1.275.004s-.247.698-.015 1.274c.233.577.684 1.224 1.255 1.8z" clip-path="url(#p069c6561da)" style="fill:#969696"/><path id="patch_49" d="M189.837 242.137c-.348.262-.515.734-.465 1.313.051.58.315 1.217.734 1.774.42.557.96.987 1.503 1.195.542.209 1.042.179 1.39-.083.348-.262.515-.735.465-1.314-.051-.579-.315-1.217-.734-1.774-.42-.556-.96-.986-1.503-1.195-.542-.208-1.042-.178-1.39.084z" clip-path="url(#p069c6561da)" style="fill:#969696"/><path id="patch_50" d="M192.86 243.21c-.346-.486-.83-.844-1.345-.995-.515-.152-1.019-.084-1.401.188-.383.272-.612.726-.638 1.262-.025.537.154 1.11.5 1.597.346.486.83.844 1.345.996.515.151 1.019.083 1.401-.189.383-.272.612-.726.638-1.262.025-.536-.154-1.11-.5-1.597z" clip-path="url(#p069c6561da)" style="fill:#969696"/><path id="patch_51" d="M212.867 161.014c-.96.93-1.71 1.997-2.086 2.965-.377.97-.348 1.761.078 2.201.427.44 1.218.494 2.198.148.98-.347 2.07-1.063 3.028-1.993.96-.93 1.71-1.996 2.086-2.965.377-.969.349-1.76-.078-2.201-.427-.44-1.217-.493-2.197-.147s-2.07 1.063-3.03 1.992z" clip-path="url(#p069c6561da)" style="fill:#969696"/><path id="patch_52" d="M152.935 227.906a.77.77 0 0 0-.189.625c.029.239.152.473.342.65.19.178.433.284.673.296a.77.77 0 0 0 .61-.233.77.77 0 0 0 .19-.625 1.08 1.08 0 0 0-.343-.65 1.08 1.08 0 0 0-.673-.296.77.77 0 0 0-.61.233z" clip-path="url(#p069c6561da)" style="fill:#969696"/><path id="patch_53" d="M118.736 270.909c.496-.058.927-.486 1.2-1.19.273-.704.365-1.626.256-2.564-.11-.938-.411-1.815-.839-2.437-.427-.623-.946-.94-1.44-.882-.496.058-.928.486-1.2 1.19-.274.704-.366 1.626-.256 2.564.11.938.41 1.815.838 2.437.428.622.946.94 1.441.882z" clip-path="url(#p069c6561da)" style="fill:#969696"/><path id="patch_54" d="M122.083 198.617c.793.293 1.632.363 2.331.194.7-.168 1.203-.56 1.399-1.092.196-.53.068-1.156-.354-1.739-.422-.582-1.106-1.074-1.899-1.366-.793-.293-1.632-.363-2.331-.195-.7.169-1.203.562-1.399 1.093-.196.53-.069 1.156.354 1.738.422.583 1.105 1.075 1.899 1.367z" clip-path="url(#p069c6561da)" style="fill:#969696"/><path id="patch_55" d="M135.485 246.502c.474-.243.876-.578 1.117-.93.242-.354.304-.697.172-.954-.131-.257-.446-.407-.874-.417-.428-.01-.934.12-1.408.364-.474.242-.876.577-1.117.93-.242.354-.304.697-.172.954s.446.407.874.417c.428.01.935-.121 1.408-.364z" clip-path="url(#p069c6561da)" style="fill:#969696"/><path id="patch_56" d="M150.832 118.031c.617.078 1.29-.496 1.872-1.597.583-1.1 1.026-2.637 1.233-4.27.207-1.635.16-3.234-.129-4.444-.29-1.211-.798-1.935-1.415-2.013-.616-.079-1.29.496-1.872 1.596-.582 1.1-1.025 2.637-1.232 4.271-.207 1.635-.16 3.233.129 4.444.289 1.21.798 1.935 1.414 2.013z" clip-path="url(#p069c6561da)" style="fill:#969696"/><path id="patch_57" d="M110.5 251.173c-.374-.281-.88-.353-1.409-.2-.528.151-1.034.516-1.407 1.012-.372.497-.581 1.085-.58 1.634.001.55.212 1.017.587 1.298.374.28.881.353 1.41.2.527-.152 1.034-.516 1.406-1.013.373-.496.581-1.084.58-1.634-.001-.55-.212-1.016-.586-1.297z" clip-path="url(#p069c6561da)" style="fill:#969696"/><path id="patch_58" d="M172.798 278.19c.153-.156-.015-.614-.467-1.274-.451-.66-1.15-1.468-1.941-2.245-.792-.778-1.611-1.462-2.28-1.902-.667-.44-1.128-.6-1.28-.445-.154.156.014.614.466 1.274.451.66 1.15 1.468 1.941 2.246.792.777 1.612 1.462 2.28 1.902.667.44 1.128.6 1.28.444z" clip-path="url(#p069c6561da)" style="fill:#969696"/><path id="patch_59" d="M233.135 227.277c.601.205 1.24.222 1.774.045.535-.176.923-.53 1.078-.985.155-.454.065-.972-.25-1.438-.316-.466-.831-.844-1.433-1.049-.6-.205-1.24-.221-1.774-.045-.535.176-.922.53-1.077.985-.156.454-.065.972.25 1.438.316.467.83.844 1.432 1.05z" clip-path="url(#p069c6561da)" style="fill:#969696"/><path id="patch_60" d="M128.674 255.67c.643-.182 1.22-.494 1.606-.868.385-.373.547-.778.45-1.125-.099-.347-.448-.608-.972-.725-.524-.117-1.18-.08-1.823.1-.643.182-1.22.494-1.606.868-.386.373-.547.778-.45 1.125.099.347.448.608.972.725.524.117 1.18.08 1.823-.1z" clip-path="url(#p069c6561da)" style="fill:#969696"/><path id="patch_61" d="M107.898 187.913c-.345.518-.414 1.19-.19 1.869.223.677.72 1.305 1.38 1.745.662.44 1.433.655 2.144.6.711-.056 1.305-.38 1.65-.898.346-.52.414-1.191.19-1.87-.222-.677-.72-1.305-1.38-1.745-.661-.44-1.432-.655-2.144-.6-.711.057-1.305.38-1.65.899z" clip-path="url(#p069c6561da)" style="fill:#969696"/><path id="patch_62" d="M223.457 162.814c-.64 1.568-1.05 3.154-1.14 4.41-.092 1.256.144 2.08.655 2.288.512.209 1.256-.214 2.07-1.175.814-.961 1.63-2.382 2.27-3.95.64-1.568 1.05-3.154 1.141-4.41.091-1.256-.145-2.08-.656-2.288-.511-.208-1.255.214-2.07 1.175-.813.961-1.63 2.382-2.27 3.95z" clip-path="url(#p069c6561da)" style="fill:#969696"/><path id="patch_63" d="M210.832 156.594c.606 0 1.188-.417 1.616-1.16.429-.744.67-1.753.67-2.805 0-1.051-.24-2.06-.668-2.804-.428-.744-1.01-1.162-1.616-1.162-.606 0-1.187.417-1.616 1.16-.428.744-.67 1.753-.67 2.805 0 1.052.24 2.06.669 2.804.428.744 1.01 1.162 1.615 1.162z" clip-path="url(#p069c6561da)" style="fill:#969696"/><path id="patch_64" d="M93.137 167.417c-.547.707-.607 1.744-.169 2.881.439 1.137 1.34 2.283 2.507 3.184 1.167.902 2.503 1.485 3.714 1.623 1.211.137 2.198-.183 2.745-.89.546-.707.607-1.743.168-2.88-.438-1.138-1.34-2.284-2.507-3.185-1.166-.901-2.502-1.485-3.713-1.622-1.212-.138-2.2.182-2.745.89z" clip-path="url(#p069c6561da)" style="fill:#969696"/><path id="patch_65" d="M243.297 159.762c-.557-.29-1.406.037-2.36.908-.954.872-1.935 2.217-2.728 3.74-.793 1.523-1.332 3.098-1.499 4.38-.166 1.281.053 2.164.61 2.454.556.29 1.405-.037 2.359-.909s1.936-2.217 2.728-3.74c.793-1.522 1.332-3.098 1.499-4.38.167-1.28-.052-2.164-.609-2.453z" clip-path="url(#p069c6561da)" style="fill:#969696"/><path id="patch_66" d="M100.858 176.294c-1-.674-2.112-1.095-3.09-1.169-.98-.074-1.745.205-2.129.774-.384.57-.355 1.384.08 2.263.436.88 1.243 1.753 2.243 2.427 1 .674 2.111 1.095 3.09 1.169.979.074 1.744-.205 2.128-.774.384-.57.355-1.384-.08-2.263-.436-.88-1.242-1.753-2.242-2.427z" clip-path="url(#p069c6561da)" style="fill:#969696"/><path id="patch_67" d="M155.6 222.214c.216-.088.36-.33.4-.67.039-.341-.03-.754-.19-1.148-.16-.394-.4-.736-.667-.952-.267-.217-.538-.288-.754-.2-.217.088-.36.33-.4.67-.04.34.029.754.19 1.147.16.394.4.737.666.953.267.216.538.288.755.2z" clip-path="url(#p069c6561da)" style="fill:#969696"/><path id="patch_68" d="M220.98 180.446c.333.316.888.37 1.543.15.656-.22 1.358-.694 1.952-1.32.595-.626 1.033-1.352 1.218-2.018.186-.665.103-1.217-.23-1.532-.332-.316-.886-.37-1.542-.15-.655.219-1.357.694-1.952 1.32-.594.626-1.032 1.352-1.218 2.017-.185.666-.103 1.217.23 1.533z" clip-path="url(#p069c6561da)" style="fill:#969696"/><path id="patch_69" d="M157.62 225.986c.135.017.274-.047.388-.177a.98.98 0 0 0 .216-.515.98.98 0 0 0-.082-.554c-.078-.153-.197-.25-.332-.266-.135-.017-.274.046-.388.176a.98.98 0 0 0-.216.516c-.025.2.004.4.082.553.077.154.197.25.332.267z" clip-path="url(#p069c6561da)" style="fill:#969696"/><path id="patch_70" d="M153.878 172.818c.37.057.779-.247 1.138-.846.36-.599.64-1.443.78-2.347.14-.904.127-1.793-.035-2.473-.163-.68-.461-1.093-.83-1.15-.37-.057-.779.247-1.138.846-.36.599-.64 1.443-.78 2.347-.14.904-.127 1.793.035 2.473.163.68.461 1.093.83 1.15z" clip-path="url(#p069c6561da)" style="fill:#969696"/><path id="patch_71" d="M198.865 180.754c.695-.756 1.23-1.602 1.487-2.351.258-.75.216-1.342-.115-1.647-.33-.304-.924-.296-1.65.023-.725.32-1.523.923-2.218 1.68-.695.755-1.23 1.6-1.488 2.35-.257.75-.216 1.342.115 1.646.33.305.925.297 1.65-.022.726-.32 1.524-.923 2.219-1.68z" clip-path="url(#p069c6561da)" style="fill:#969696"/><path id="patch_72" d="M173.74 247.025c.27-.145.373-.572.288-1.187-.085-.614-.352-1.366-.741-2.09-.39-.725-.87-1.361-1.337-1.77-.466-.41-.88-.559-1.15-.414-.269.145-.373.572-.288 1.187.085.614.352 1.367.742 2.09.39.725.87 1.362 1.336 1.771.466.41.88.558 1.15.413z" clip-path="url(#p069c6561da)" style="fill:#969696"/><path id="patch_73" d="M151.023 258.431c.377-.109.673-.44.823-.921.15-.48.141-1.072-.024-1.644-.165-.571-.473-1.076-.856-1.403-.383-.327-.81-.45-1.187-.34-.377.108-.673.44-.823.92-.15.481-.141 1.073.024 1.644.165.571.472 1.076.856 1.403.383.327.81.45 1.187.341z" clip-path="url(#p069c6561da)" style="fill:#969696"/><path id="patch_74" d="M133.56 228.015c.568.111 1.148.037 1.612-.205.465-.242.776-.633.864-1.086.09-.454-.052-.933-.39-1.332-.34-.4-.85-.686-1.417-.798-.568-.11-1.149-.037-1.613.205-.465.242-.776.633-.864 1.086-.089.454.052.933.39 1.332.34.4.85.687 1.417.798z" clip-path="url(#p069c6561da)" style="fill:#969696"/><path id="patch_75" d="M157.262 226.282c.205-.052.37-.228.458-.49.088-.262.092-.588.011-.907a1.648 1.648 0 0 0-.44-.792c-.203-.188-.431-.265-.636-.213-.205.052-.37.228-.458.49a1.648 1.648 0 0 0-.011.906c.08.319.239.604.44.793.203.188.431.265.636.213z" clip-path="url(#p069c6561da)" style="fill:#969696"/><path id="patch_76" d="M157.763 226.02c.19.011.38-.11.527-.335.148-.226.241-.538.26-.868.018-.33-.04-.65-.161-.891-.122-.241-.297-.382-.487-.393-.19-.01-.38.11-.527.336-.147.226-.24.538-.259.868-.018.33.04.65.16.891.122.24.297.382.487.393z" clip-path="url(#p069c6561da)" style="fill:#969696"/><path id="patch_77" d="M209.916 194.236c.289.316.854.356 1.57.111.717-.244 1.528-.754 2.253-1.415.726-.662 1.307-1.423 1.617-2.114.309-.692.32-1.258.032-1.574-.288-.316-.853-.356-1.57-.111-.717.244-1.527.754-2.253 1.415-.725.662-1.307 1.423-1.616 2.114-.309.692-.32 1.258-.033 1.574z" clip-path="url(#p069c6561da)" style="fill:#969696"/><path id="patch_78" d="M149.494 170.115c.591.058 1.201-.321 1.695-1.053s.831-1.758.938-2.852c.107-1.093-.025-2.165-.368-2.979-.342-.814-.867-1.304-1.458-1.362-.592-.058-1.201.321-1.695 1.054-.494.732-.832 1.758-.939 2.851-.107 1.093.026 2.165.368 2.98.343.813.868 1.303 1.459 1.361z" clip-path="url(#p069c6561da)" style="fill:#969696"/><path id="patch_79" d="M116.214 226.653c.864.038 1.701-.1 2.326-.382.625-.283.987-.688 1.007-1.126.02-.438-.306-.874-.903-1.21-.598-.338-1.419-.549-2.283-.587-.865-.038-1.702.099-2.327.382-.625.282-.987.687-1.006 1.125-.02.439.305.874.903 1.211.597.337 1.418.548 2.283.587z" clip-path="url(#p069c6561da)" style="fill:#969696"/><path id="patch_80" d="M162.08 261.147c-.243.138-.227.71.045 1.59.273.88.778 1.996 1.406 3.103.629 1.107 1.328 2.114 1.944 2.799.616.685 1.098.992 1.341.854.243-.138.227-.71-.045-1.59-.272-.88-.778-1.996-1.406-3.103-.628-1.107-1.327-2.114-1.943-2.799-.616-.685-1.1-.992-1.342-.854z" clip-path="url(#p069c6561da)" style="fill:#969696"/><path id="patch_81" d="M203.603 194.23c-.644.471-1.147 1.08-1.398 1.693-.25.614-.228 1.18.062 1.577.29.396.823.59 1.484.536.66-.053 1.393-.347 2.037-.818.644-.471 1.146-1.08 1.397-1.693.25-.614.228-1.18-.061-1.577-.29-.396-.824-.59-1.484-.536-.66.053-1.393.347-2.037.818z" clip-path="url(#p069c6561da)" style="fill:#969696"/><path id="patch_82" d="M116.777 226.051c.898.177 1.792.182 2.485.013.692-.169 1.128-.497 1.21-.913.082-.415-.196-.884-.773-1.303-.577-.42-1.406-.754-2.303-.931-.898-.177-1.792-.182-2.485-.013-.692.168-1.128.497-1.21.912-.082.416.196.885.773 1.304.577.42 1.406.754 2.303.931z" clip-path="url(#p069c6561da)" style="fill:#969696"/><path id="patch_83" d="M158.388 263.399c-.716-.893-1.462-1.702-2.073-2.248-.612-.547-1.04-.786-1.19-.666-.15.12-.01.59.39 1.306.4.716 1.028 1.62 1.743 2.513.716.893 1.462 1.702 2.074 2.248.611.547 1.04.787 1.19.667.149-.12.008-.59-.392-1.307-.4-.716-1.027-1.62-1.742-2.513z" clip-path="url(#p069c6561da)" style="fill:#969696"/><path id="patch_84" d="M174.733 242.693c.3-.203.423-.639.345-1.211-.079-.573-.354-1.236-.765-1.843-.41-.607-.924-1.109-1.426-1.395-.503-.286-.954-.332-1.253-.13-.3.203-.424.64-.345 1.212.078.573.353 1.235.764 1.843.411.607.924 1.108 1.427 1.394.502.286.953.333 1.253.13z" clip-path="url(#p069c6561da)" style="fill:#969696"/><path id="patch_85" d="M166.607 135.255c.635-.075 1.163-.831 1.468-2.1.304-1.27.36-2.95.155-4.67-.205-1.72-.653-3.34-1.247-4.503-.594-1.162-1.285-1.773-1.92-1.697-.636.075-1.164.831-1.468 2.1-.305 1.27-.36 2.95-.156 4.67.205 1.72.654 3.34 1.248 4.503.594 1.162 1.285 1.773 1.92 1.697z" clip-path="url(#p069c6561da)" style="fill:#969696"/><path id="patch_86" d="M165.427 216.517c.314.006.62-.172.848-.494.23-.321.363-.762.372-1.223.01-.461-.107-.906-.323-1.237-.216-.33-.514-.52-.829-.526-.314-.007-.62.17-.848.493-.23.322-.363.762-.372 1.223-.01.462.107.907.323 1.237.216.331.514.52.829.527z" clip-path="url(#p069c6561da)" style="fill:#969696"/><path id="patch_87" d="M143.031 235.504a.75.75 0 0 0 .649.122c.244-.058.478-.214.652-.432.173-.219.272-.482.273-.733a.748.748 0 0 0-.265-.604.748.748 0 0 0-.648-.122 1.214 1.214 0 0 0-.653.432 1.214 1.214 0 0 0-.273.733.748.748 0 0 0 .265.604z" clip-path="url(#p069c6561da)" style="fill:#969696"/><path id="patch_88" d="M227.327 177.533c-.718.556-1.296 1.233-1.607 1.881-.31.648-.329 1.214-.05 1.573.278.36.831.483 1.536.344.705-.14 1.504-.531 2.223-1.088.718-.557 1.296-1.234 1.607-1.881.31-.648.329-1.214.05-1.574-.278-.359-.83-.483-1.536-.343-.705.14-1.504.53-2.223 1.088z" clip-path="url(#p069c6561da)" style="fill:#969696"/><path id="patch_89" d="M141.624 247.443c.317.101.67.047.979-.151.31-.198.552-.523.673-.904s.112-.787-.027-1.127c-.138-.34-.394-.589-.711-.69-.317-.1-.67-.046-.98.152-.31.198-.551.523-.673.904-.12.38-.111.786.027 1.127.139.34.395.589.712.69z" clip-path="url(#p069c6561da)" style="fill:#969696"/><path id="patch_90" d="M175.002 224.645c.428.083.888-.089 1.276-.477.39-.388.676-.961.798-1.593.121-.631.068-1.27-.15-1.775-.216-.505-.578-.835-1.007-.917-.428-.082-.887.09-1.276.477-.389.389-.676.962-.797 1.593-.122.632-.068 1.27.148 1.775.217.505.58.835 1.008.917z" clip-path="url(#p069c6561da)" style="fill:#969696"/><path id="patch_91" d="M109.156 212.898c.93.362 1.912.483 2.726.338.814-.145 1.395-.545 1.615-1.112.22-.567.06-1.254-.443-1.91-.503-.656-1.309-1.228-2.24-1.59-.931-.36-1.912-.482-2.726-.337-.814.145-1.395.545-1.615 1.112-.22.566-.061 1.253.442 1.91.503.656 1.31 1.228 2.24 1.59z" clip-path="url(#p069c6561da)" style="fill:#969696"/><path id="patch_92" d="M106.876 217.103c1.055.338 2.112.521 2.939.509.826-.013 1.355-.22 1.468-.575.114-.355-.196-.83-.861-1.32-.666-.49-1.633-.956-2.688-1.294-1.055-.338-2.112-.52-2.939-.508-.826.012-1.355.22-1.469.574-.113.356.197.831.862 1.321.666.49 1.633.956 2.688 1.293z" clip-path="url(#p069c6561da)" style="fill:#969696"/><path id="patch_93" d="M153.767 255.113c.159-.121.155-.44-.009-.885s-.475-.981-.864-1.49c-.39-.51-.827-.949-1.214-1.223-.388-.274-.694-.36-.852-.24-.158.122-.155.44.009.885.164.446.475.982.865 1.49.39.51.826.95 1.214 1.224.387.274.693.36.851.239z" clip-path="url(#p069c6561da)" style="fill:#969696"/><path id="patch_94" d="M110.089 240.513c.612-.22 1.133-.613 1.45-1.09.317-.478.402-1.002.238-1.457-.164-.455-.564-.803-1.113-.969-.548-.166-1.2-.135-1.812.086-.612.22-1.134.613-1.45 1.09-.317.478-.403 1.002-.239 1.457.164.455.565.804 1.113.97.549.165 1.201.134 1.813-.087z" clip-path="url(#p069c6561da)" style="fill:#969696"/><path id="patch_95" d="M187.769 225.99c.747-.04 1.453-.285 1.961-.68.509-.394.778-.905.75-1.42-.029-.517-.353-.995-.902-1.33-.55-.336-1.278-.5-2.026-.46-.747.042-1.453.287-1.961.681-.509.394-.778.906-.75 1.422.029.515.354.994.902 1.329.55.335 1.278.5 2.026.459z" clip-path="url(#p069c6561da)" style="fill:#969696"/><path id="patch_96" d="M193.528 185.142c-.377-.255-.967-.162-1.64.258-.673.42-1.374 1.133-1.948 1.982-.574.85-.975 1.766-1.115 2.547-.139.78-.005 1.363.373 1.618.377.255.967.163 1.64-.257.673-.42 1.374-1.134 1.948-1.983.574-.85.975-1.765 1.114-2.546.14-.781.006-1.364-.372-1.619z" clip-path="url(#p069c6561da)" style="fill:#969696"/><path id="patch_97" d="M134.162 204.433c.571.63 1.24 1.123 1.859 1.372.619.25 1.138.235 1.442-.041.304-.277.37-.792.18-1.432-.188-.64-.615-1.353-1.186-1.982-.572-.63-1.24-1.123-1.86-1.373-.619-.25-1.137-.234-1.442.042-.304.276-.369.791-.18 1.431.188.64.616 1.354 1.187 1.983z" clip-path="url(#p069c6561da)" style="fill:#969696"/><path id="patch_98" d="M146.932 223.534c.29.262.666.406 1.043.4.377-.006.724-.16.966-.43.242-.268.358-.63.324-1.006a1.537 1.537 0 0 0-.509-.994 1.537 1.537 0 0 0-1.043-.4c-.376.006-.724.16-.966.43-.242.269-.358.63-.324 1.006.035.375.218.733.509.994z" clip-path="url(#p069c6561da)" style="fill:#969696"/><path id="patch_99" d="M157.3 225.375c.116.061.263.052.41-.026a.94.94 0 0 0 .37-.39.94.94 0 0 0 .115-.526c-.017-.165-.092-.293-.209-.354-.116-.062-.263-.052-.41.026a.94.94 0 0 0-.37.39.94.94 0 0 0-.115.526c.017.165.093.292.209.354z" clip-path="url(#p069c6561da)" style="fill:#969696"/><path id="patch_100" d="M157.51 200.902c.262-.006.509-.244.685-.661.176-.418.267-.98.254-1.565-.013-.585-.13-1.143-.324-1.553-.194-.409-.451-.635-.713-.63-.262.006-.508.244-.684.662-.176.417-.268.98-.255 1.565.013.584.13 1.143.324 1.552.195.409.451.636.713.63z" clip-path="url(#p069c6561da)" style="fill:#969696"/><path id="patch_101" d="M129.959 226.062c.598.105 1.196.064 1.663-.112.466-.176.763-.473.824-.826.062-.353-.117-.733-.497-1.057-.379-.323-.928-.563-1.526-.667-.599-.104-1.197-.064-1.663.112-.467.176-.763.473-.825.826-.061.353.117.733.497 1.057.38.323.929.563 1.527.667z" clip-path="url(#p069c6561da)" style="fill:#969696"/><path id="patch_102" d="M144.878 225.476c.316-.01.616-.124.834-.318a.926.926 0 0 0 .328-.717.926.926 0 0 0-.37-.696 1.318 1.318 0 0 0-.851-.268c-.316.01-.616.124-.834.318a.926.926 0 0 0-.328.717.926.926 0 0 0 .37.696c.229.18.535.277.851.268z" clip-path="url(#p069c6561da)" style="fill:#969696"/><path id="patch_103" d="M215.675 227.84c1.175-.286 2.253-.765 2.996-1.332.743-.566 1.09-1.173.964-1.688-.125-.514-.712-.894-1.632-1.055-.92-.162-2.098-.091-3.273.195-1.176.286-2.254.766-2.997 1.332-.743.566-1.09 1.173-.964 1.688.125.514.712.894 1.632 1.056.92.16 2.098.09 3.274-.196z" clip-path="url(#p069c6561da)" style="fill:#969696"/><path id="patch_104" d="M187.458 226.093c.56.22 1.154.29 1.65.192.495-.097.852-.353.993-.71.14-.358.053-.788-.244-1.197-.297-.409-.779-.762-1.34-.982-.56-.22-1.153-.29-1.648-.192-.496.097-.853.352-.994.71-.14.358-.053.788.244 1.197.297.408.779.762 1.34.982z" clip-path="url(#p069c6561da)" style="fill:#969696"/><path id="patch_105" d="M157.068 225.08a.827.827 0 0 0 .702-.184 1.31 1.31 0 0 0 .44-.73 1.31 1.31 0 0 0-.078-.848.827.827 0 0 0-.552-.47.827.827 0 0 0-.702.183 1.31 1.31 0 0 0-.44.73 1.31 1.31 0 0 0 .078.848c.119.247.317.417.552.47z" clip-path="url(#p069c6561da)" style="fill:#969696"/><path id="patch_106" d="M142.683 225.712c.348.17.72.254 1.035.234.315-.02.547-.144.644-.343.098-.2.053-.458-.124-.72-.177-.26-.472-.503-.82-.673-.348-.17-.72-.255-1.035-.234-.315.02-.547.144-.644.343-.098.199-.053.458.124.719.177.261.472.504.82.674z" clip-path="url(#p069c6561da)" style="fill:#969696"/><path id="patch_107" d="M190.436 227.862c.46-.106.873-.336 1.147-.64.273-.303.385-.656.31-.98-.074-.325-.328-.594-.706-.749-.378-.154-.85-.182-1.31-.077-.46.106-.873.336-1.146.64-.274.303-.385.656-.311.98.074.325.328.594.706.748.378.155.85.183 1.31.078z" clip-path="url(#p069c6561da)" style="fill:#969696"/><path id="patch_108" d="M193.97 261.352c-.999-.664-2.017-1.212-2.83-1.522-.813-.31-1.354-.358-1.504-.132-.15.225.104.706.704 1.335.601.63 1.5 1.356 2.5 2.02 1 .665 2.018 1.212 2.83 1.522.814.31 1.355.358 1.505.133.15-.226-.104-.706-.705-1.336-.6-.629-1.5-1.356-2.5-2.02z" clip-path="url(#p069c6561da)" style="fill:#969696"/><path id="patch_109" d="M210.187 226.469c.851-.134 1.64-.436 2.192-.842.553-.405.825-.88.756-1.32-.069-.44-.473-.81-1.123-1.026-.65-.217-1.494-.264-2.345-.13-.85.133-1.639.435-2.192.84-.553.406-.824.881-.755 1.321.068.44.473.81 1.123 1.026.65.217 1.494.264 2.344.13z" clip-path="url(#p069c6561da)" style="fill:#969696"/><path id="patch_110" d="M189.688 224.558c.77.054 1.519-.038 2.081-.256.563-.218.893-.544.918-.906.026-.362-.256-.73-.783-1.025-.526-.294-1.255-.49-2.025-.543-.77-.054-1.519.038-2.08.256-.563.218-.893.544-.919.906-.025.362.257.73.783 1.025.527.294 1.255.49 2.025.543z" clip-path="url(#p069c6561da)" style="fill:#969696"/><path id="patch_111" d="M215.472 165.472c.346.293 1.065.118 1.999-.488.933-.606 2.005-1.593 2.979-2.743.974-1.15 1.77-2.37 2.214-3.39.444-1.02.5-1.759.153-2.052-.346-.293-1.066-.117-2 .488-.933.606-2.004 1.593-2.978 2.743-.974 1.15-1.77 2.37-2.215 3.39-.444 1.02-.498 1.759-.152 2.052z" clip-path="url(#p069c6561da)" style="fill:#969696"/><path id="patch_112" d="M229.176 209.894c1.09-.352 2.068-.894 2.721-1.507.653-.613.927-1.247.76-1.763-.166-.515-.759-.87-1.647-.985-.888-.115-2 .018-3.089.37-1.09.351-2.069.894-2.722 1.507-.653.613-.926 1.247-.76 1.762.167.515.76.87 1.647.985.889.116 2-.017 3.09-.369z" clip-path="url(#p069c6561da)" style="fill:#969696"/><path id="patch_113" d="M102.705 225.736c1.088-.002 2.131-.174 2.9-.479.769-.305 1.2-.718 1.2-1.149 0-.43-.433-.843-1.203-1.147-.769-.303-1.812-.473-2.9-.472-1.088 0-2.131.173-2.9.478-.769.305-1.2.719-1.2 1.15 0 .43.433.842 1.202 1.146.77.304 1.813.474 2.901.473z" clip-path="url(#p069c6561da)" style="fill:#969696"/><path id="patch_114" d="M141.617 284.37c.435-.123.695-.794.723-1.865.027-1.07-.18-2.454-.575-3.845-.395-1.39-.947-2.675-1.534-3.571-.587-.896-1.162-1.33-1.597-1.207-.435.124-.695.795-.722 1.866-.028 1.071.178 2.454.574 3.845.395 1.39.947 2.676 1.534 3.572.587.896 1.162 1.33 1.597 1.206z" clip-path="url(#p069c6561da)" style="fill:#969696"/><path id="patch_115" d="M96.13 168.874c1.53 1.452 3.209 2.621 4.666 3.25 1.458.63 2.576.67 3.108.109.532-.56.434-1.675-.271-3.098-.706-1.422-1.962-3.037-3.492-4.488-1.53-1.452-3.208-2.621-4.666-3.251-1.458-.63-2.576-.669-3.108-.108-.532.56-.434 1.675.272 3.097.705 1.423 1.961 3.038 3.491 4.49z" clip-path="url(#p069c6561da)" style="fill:#969696"/><path id="patch_116" d="M220.817 251.303c.867.289 1.755.398 2.468.303.713-.095 1.193-.386 1.334-.81.141-.422-.068-.943-.582-1.447-.514-.503-1.29-.948-2.157-1.237-.867-.29-1.755-.398-2.468-.303-.713.095-1.193.386-1.334.809-.141.423.068.944.582 1.447.514.504 1.29.949 2.157 1.238z" clip-path="url(#p069c6561da)" style="fill:#969696"/><path id="patch_117" d="M145.756 126.61c.671.106 1.46-.706 2.19-2.258.732-1.552 1.348-3.717 1.711-6.018.364-2.3.446-4.55.23-6.251-.218-1.702-.717-2.718-1.388-2.824-.67-.106-1.458.706-2.19 2.258s-1.347 3.717-1.71 6.018c-.364 2.3-.447 4.55-.23 6.252.218 1.701.717 2.717 1.387 2.823z" clip-path="url(#p069c6561da)" style="fill:#969696"/><path id="patch_118" d="M100.666 236.292c.976.077 1.927-.04 2.644-.324.717-.285 1.141-.714 1.179-1.193.038-.48-.314-.97-.977-1.363-.664-.393-1.585-.657-2.561-.734-.976-.077-1.928.04-2.645.325-.716.284-1.14.713-1.178 1.192-.038.48.314.97.977 1.363.664.393 1.585.657 2.561.734z" clip-path="url(#p069c6561da)" style="fill:#969696"/><path id="patch_119" d="M201.281 242.818c.34-.297.41-.873.195-1.6-.214-.728-.696-1.548-1.338-2.28-.642-.73-1.392-1.314-2.086-1.62-.693-.307-1.274-.312-1.613-.014-.339.298-.409.874-.194 1.601.214.728.695 1.547 1.337 2.278.642.732 1.393 1.315 2.086 1.621.694.307 1.274.312 1.613.014z" clip-path="url(#p069c6561da)" style="fill:#969696"/><path id="patch_120" d="M124.89 263.538c.688-.116 1.314-.43 1.74-.875.426-.445.617-.982.53-1.494-.086-.512-.443-.957-.99-1.237-.549-.28-1.244-.372-1.933-.256-.688.116-1.315.431-1.74.876-.427.444-.617.981-.531 1.494.086.512.443.957.991 1.237.548.28 1.243.372 1.932.255z" clip-path="url(#p069c6561da)" style="fill:#969696"/><path id="patch_121" d="M151.422 146.224c.938-.056 1.799-.768 2.393-1.98.594-1.21.872-2.822.774-4.48-.1-1.657-.567-3.224-1.3-4.356-.733-1.133-1.673-1.737-2.611-1.682-.939.056-1.8.768-2.394 1.98-.593 1.21-.872 2.823-.773 4.48.098 1.657.566 3.224 1.3 4.357.733 1.132 1.672 1.737 2.61 1.68z" clip-path="url(#p069c6561da)" style="fill:#969696"/><path id="patch_122" d="M160.078 279.927c.343-.249.454-.787.31-1.495-.145-.709-.534-1.53-1.08-2.284-.547-.753-1.208-1.377-1.837-1.734s-1.175-.417-1.517-.169c-.343.249-.454.787-.31 1.495.145.709.533 1.53 1.08 2.284.547.753 1.208 1.377 1.837 1.734s1.175.417 1.517.169z" clip-path="url(#p069c6561da)" style="fill:#969696"/><path id="patch_123" d="M240.734 229.74c-.302-.409-.824-.63-1.452-.615-.627.015-1.309.266-1.894.698-.586.431-1.027 1.008-1.228 1.603-.2.594-.143 1.159.159 1.568.302.41.824.632 1.451.616.628-.015 1.31-.266 1.895-.697.585-.432 1.027-1.008 1.227-1.603.2-.595.144-1.16-.158-1.57z" clip-path="url(#p069c6561da)" style="fill:#969696"/><path id="patch_124" d="M140.393 141.425c.78-.211 1.365-1.012 1.628-2.227.263-1.214.182-2.744-.226-4.25-.408-1.507-1.109-2.868-1.948-3.785-.84-.916-1.75-1.312-2.53-1.101-.779.21-1.364 1.012-1.627 2.226-.263 1.215-.181 2.744.226 4.25.408 1.507 1.109 2.869 1.948 3.785.84.916 1.75 1.313 2.53 1.102z" clip-path="url(#p069c6561da)" style="fill:#969696"/><path id="patch_125" d="M115.854 208.756c1.11.377 2.231.575 3.116.549.884-.027 1.46-.274 1.6-.687.141-.414-.166-.96-.852-1.52-.685-.558-1.695-1.084-2.805-1.461s-2.232-.574-3.116-.548c-.885.026-1.46.273-1.601.687-.14.413.166.96.852 1.519.686.559 1.695 1.085 2.806 1.461z" clip-path="url(#p069c6561da)" style="fill:#969696"/><path id="patch_126" d="M181.447 218.946c.687-.134 1.318-.407 1.753-.759.436-.351.64-.753.57-1.116-.071-.364-.412-.659-.948-.82-.536-.163-1.223-.178-1.91-.044-.687.134-1.317.407-1.753.759-.435.351-.64.753-.57 1.116.072.364.413.659.948.82.536.163 1.223.178 1.91.044z" clip-path="url(#p069c6561da)" style="fill:#969696"/><path id="patch_127" d="M187.679 226.146c.827.077 1.638-.046 2.255-.342.617-.295.99-.739 1.036-1.233.045-.494-.24-.999-.791-1.402-.553-.404-1.328-.674-2.154-.75-.827-.078-1.639.045-2.256.34-.617.296-.99.74-1.035 1.234-.046.494.239.999.79 1.402.553.404 1.328.674 2.155.75z" clip-path="url(#p069c6561da)" style="fill:#969696"/><path id="patch_128" d="M149.3 247.313c.371-.09.678-.379.853-.802.175-.424.204-.947.08-1.455-.123-.509-.39-.96-.739-1.257-.35-.296-.754-.411-1.125-.321-.371.09-.678.379-.853.802-.175.423-.204.947-.08 1.455.123.508.389.96.739 1.256.35.296.754.412 1.125.322z" clip-path="url(#p069c6561da)" style="fill:#969696"/><path id="patch_129" d="M249.957 225.385c.764-.352 1.417-.86 1.817-1.412.4-.553.513-1.104.315-1.533-.198-.43-.69-.701-1.37-.756-.68-.054-1.491.113-2.254.465-.764.352-1.417.86-1.817 1.412-.4.553-.513 1.104-.315 1.533.198.43.69.701 1.37.756.68.054 1.491-.113 2.254-.465z" clip-path="url(#p069c6561da)" style="fill:#969696"/><path id="patch_130" d="M204.894 221.823c.629-.282 1.171-.69 1.507-1.131.337-.442.44-.883.285-1.226-.154-.343-.551-.56-1.105-.602-.554-.042-1.218.092-1.848.375-.629.282-1.171.69-1.507 1.131-.337.442-.44.883-.285 1.226.154.343.551.56 1.105.602.554.043 1.218-.092 1.848-.375z" clip-path="url(#p069c6561da)" style="fill:#969696"/><path id="patch_131" d="M142.57 248.215a1.86 1.86 0 0 0 .788-.925c.135-.368.11-.74-.07-1.033-.18-.295-.498-.487-.886-.536a1.866 1.866 0 0 0-1.184.276c-.37.225-.653.558-.787.926-.135.367-.11.739.07 1.033.18.294.498.487.886.535.388.049.814-.05 1.184-.276z" clip-path="url(#p069c6561da)" style="fill:#969696"/><path id="patch_132" d="M116.706 216.655c.69.266 1.42.348 2.027.228.607-.12 1.042-.433 1.21-.87.17-.435.056-.96-.313-1.457-.369-.496-.964-.925-1.654-1.191-.69-.267-1.42-.349-2.026-.229-.607.12-1.043.433-1.211.87-.169.436-.056.96.313 1.457.37.497.964.926 1.654 1.192z" clip-path="url(#p069c6561da)" style="fill:#969696"/><path id="patch_133" d="M156.219 257.356c.196-.106.288-.386.255-.78-.033-.392-.187-.865-.43-1.315-.242-.45-.553-.839-.863-1.082-.31-.243-.595-.32-.791-.214-.196.106-.288.386-.255.779.032.392.187.866.43 1.315.242.45.553.84.863 1.082.31.243.595.32.79.215z" clip-path="url(#p069c6561da)" style="fill:#969696"/><path id="patch_134" d="M113.056 171.217c-.669-1.317-1.583-2.443-2.542-3.128-.959-.685-1.883-.875-2.57-.526-.687.349-1.08 1.207-1.092 2.385-.013 1.178.356 2.58 1.025 3.898.669 1.318 1.583 2.444 2.542 3.129.958.685 1.883.874 2.57.526.686-.349 1.08-1.207 1.092-2.385.013-1.178-.356-2.58-1.025-3.899z" clip-path="url(#p069c6561da)" style="fill:#969696"/><g id="text_15" style="fill:#969696" transform="matrix(.14 0 0 -.14 90.065 17.293)"><defs><path id="MyriadPro-Regular-4c" d="M486 0h2400v467H1043v3847H486V0z" transform="scale(.01563)"/><path id="MyriadPro-Regular-75" d="M3059 3098h-563V1197c0-103-19-205-51-288-103-250-365-512-743-512-512 0-691 397-691 985v1716H448V1286C448 198 1030-70 1517-70c550 0 877 326 1024 576h13l32-506h499c-19 243-26 525-26 845v2253z" transform="scale(.01563)"/><path id="MyriadPro-Regular-6f" d="M1779 3168c-857 0-1536-608-1536-1645C243 544 890-70 1728-70c749 0 1542 499 1542 1644 0 948-601 1594-1491 1594zm-13-422c666 0 928-666 928-1191 0-697-403-1203-940-1203-551 0-941 512-941 1190 0 589 288 1204 953 1204z" transform="scale(.01563)"/><path id="MyriadPro-Regular-2d" d="M192 1939v-416h1581v416H192z" transform="scale(.01563)"/><path id="MyriadPro-Regular-52" d="M486 0h557v1869h525c506-19 736-243 864-839 122-537 218-902 288-1030h576c-90 166-192 582-333 1184-102 448-301 755-633 870v20c454 153 812 531 812 1100 0 333-121 628-339 820-269 243-653 352-1248 352-384 0-787-32-1069-90V0zm557 3866c90 25 282 51 551 51 588-7 992-250 992-807 0-492-378-819-973-819h-570v1575z" transform="scale(.01563)"/><path id="MyriadPro-Regular-69" d="M1030 0v3098H467V0h563zM749 4320c-205 0-352-154-352-352 0-192 141-346 339-346 224 0 365 154 358 346 0 198-134 352-345 352z" transform="scale(.01563)"/><path id="MyriadPro-Regular-67" d="M3110 2246c0 378 13 628 26 852h-493l-25-468h-13c-135 256-429 538-967 538-710 0-1395-595-1395-1645C243 666 794 13 1562 13c480 0 812 230 985 518h13V186c0-781-422-1082-998-1082-384 0-704 115-909 243l-141-429c250-166 659-256 1030-256 391 0 826 90 1127 372 301 268 441 704 441 1414v1798zm-556-928c0-96-13-204-45-300-122-359-435-576-781-576-608 0-915 505-915 1113 0 717 384 1171 921 1171 410 0 685-268 788-595 25-77 32-160 32-256v-557z" transform="scale(.01563)"/><path id="MyriadPro-Regular-65" d="M2957 1446c6 58 19 148 19 263 0 569-269 1459-1280 1459-902 0-1453-736-1453-1670C243 563 813-70 1766-70c493 0 832 108 1031 198l-96 403c-211-89-455-160-858-160-563 0-1049 314-1062 1075h2176zM787 1850c45 390 295 915 864 915 634 0 787-557 781-915H787z" transform="scale(.01563)"/><path id="MyriadPro-Regular-6c" d="M467 0h563v4544H467V0z" transform="scale(.01563)"/><path id="MyriadPro-Regular-70" d="M467-1267h557V416h13c185-307 544-486 953-486 730 0 1408 550 1408 1664 0 940-563 1574-1312 1574-505 0-870-224-1100-602h-13l-26 532H442c12-295 25-615 25-1012v-3353zm557 3059c0 77 19 160 38 230 109 423 468 698 852 698 595 0 921-531 921-1152 0-710-345-1197-941-1197-403 0-742 269-844 659-13 71-26 148-26 231v531z" transform="scale(.01563)"/><path id="MyriadPro-Regular-73" d="M250 147C467 19 781-70 1120-70c736 0 1158 390 1158 934 0 461-275 730-812 934-404 154-589 269-589 525 0 231 185 423 518 423 288 0 512-103 634-180l141 410c-173 102-448 192-762 192-666 0-1069-410-1069-909 0-371 263-678 819-877 416-153 576-300 576-569 0-256-192-461-601-461-282 0-576 115-743 224L250 147z" transform="scale(.01563)"/><path id="MyriadPro-Regular-66" d="M1082 0v2669h748v429h-748v166c0 474 121 896 601 896 160 0 275-32 359-70l76 435c-108 45-281 89-480 89-262 0-544-83-755-288-262-249-358-646-358-1081v-147H90v-429h435V0h557z" transform="scale(.01563)"/><path id="MyriadPro-Regular-72" d="M467 0h557v1651c0 96 13 186 26 263 76 422 358 723 755 723 77 0 134-7 192-19v531c-51 13-96 19-160 19-378 0-717-262-858-678h-25l-20 608H442c19-288 25-602 25-967V0z" transform="scale(.01563)"/><path id="MyriadPro-Regular-43" d="M3386 582c-224-108-570-179-909-179-1050 0-1658 679-1658 1735 0 1132 672 1779 1683 1779 359 0 660-77 871-179l134 454c-147 77-486 192-1024 192-1337 0-2253-915-2253-2266C230 704 1146-70 2362-70c524 0 934 108 1139 211l-115 441z" transform="scale(.01563)"/><path id="MyriadPro-Regular-49" d="M486 4314V0h557v4314H486z" transform="scale(.01563)"/><path id="MyriadPro-Regular-45" d="M2720 2483H1043v1363h1773v468H486V0h2426v467H1043v1555h1677v461z" transform="scale(.01563)"/><path id="MyriadPro-Regular-41" d="M2714 1357 3174 0h596L2298 4314h-672L160 0h576l448 1357h1530zm-1415 435 423 1248c83 262 153 525 217 781h13c64-250 128-506 224-787l422-1242H1299z" transform="scale(.01563)"/><path id="MyriadPro-Regular-42" d="M486 13c186-26 480-51 864-51 704 0 1191 128 1492 403 217 211 364 493 364 864 0 640-480 979-889 1081v13c454 167 729 531 729 947 0 340-134 596-358 762-269 218-627 314-1184 314-390 0-774-39-1018-90V13zm557 3865c90 20 237 39 493 39 563 0 947-199 947-704 0-416-345-723-934-723h-506v1388zm0-1811h461c608 0 1114-243 1114-832 0-627-532-838-1108-838-198 0-358 6-467 25v1645z" transform="scale(.01563)"/></defs><use xlink:href="#MyriadPro-Regular-4c"/><use xlink:href="#MyriadPro-Regular-75" x="47.2"/><use xlink:href="#MyriadPro-Regular-6f" x="102.3"/><use xlink:href="#MyriadPro-Regular-2d" x="157.2"/><use xlink:href="#MyriadPro-Regular-52" x="187.9"/><use xlink:href="#MyriadPro-Regular-69" x="241.7"/><use xlink:href="#MyriadPro-Regular-67" x="265.1"/><use xlink:href="#MyriadPro-Regular-67" x="321"/><use xlink:href="#MyriadPro-Regular-20" x="376.9"/><use xlink:href="#MyriadPro-Regular-65" x="398.1"/><use xlink:href="#MyriadPro-Regular-6c" x="448.2"/><use xlink:href="#MyriadPro-Regular-6c" x="471.8"/><use xlink:href="#MyriadPro-Regular-69" x="495.4"/><use xlink:href="#MyriadPro-Regular-70" x="518.8"/><use xlink:href="#MyriadPro-Regular-73" x="575.7"/><use xlink:href="#MyriadPro-Regular-65" x="615.3"/><use xlink:href="#MyriadPro-Regular-73" x="665.4"/><use xlink:href="#MyriadPro-Regular-20" x="705"/><use xlink:href="#MyriadPro-Regular-66" x="726.2"/><use xlink:href="#MyriadPro-Regular-6f" x="755.4"/><use xlink:href="#MyriadPro-Regular-72" x="810.3"/><use xlink:href="#MyriadPro-Regular-20" x="843"/><use xlink:href="#MyriadPro-Regular-43" x="864.2"/><use xlink:href="#MyriadPro-Regular-49" x="922.2"/><use xlink:href="#MyriadPro-Regular-45" x="946.1"/><use xlink:href="#MyriadPro-Regular-4c" x="995.3"/><use xlink:href="#MyriadPro-Regular-41" x="1042.5"/><use xlink:href="#MyriadPro-Regular-42" x="1103.7"/></g></g></g><defs><clipPath id="p069c6561da"><path d="M61.795 57.293h218.652v266.112H61.795z"/></clipPath></defs></svg>