<svg xmlns="http://www.w3.org/2000/svg" xmlns:xlink="http://www.w3.org/1999/xlink" width="458.214" height="476.965" viewBox="0 0 343.661 357.724"><defs><style>*{stroke-linecap:butt;stroke-linejoin:round}</style></defs><g id="figure_1"><path id="patch_1" fill="none" d="M0 357.724h343.66V0H0z"/><g id="axes_1"><path id="patch_2" fill="none" d="M47.265 313.628h289.196V47.516H47.265z"/><path id="patch_3" fill="#969696" d="M133.844 273.945c.296-.15.402-.649.293-1.387-.11-.738-.424-1.655-.875-2.549-.45-.894-1.001-1.692-1.53-2.218-.528-.526-.992-.738-1.289-.588-.296.15-.402.648-.293 1.386.11.738.424 1.655.875 2.549.45.894 1.001 1.692 1.53 2.218.528.527.992.738 1.289.589z" clip-path="url(#p1900be925e)"/><path id="patch_4" fill="#969696" d="M170.794 81.973c-.789-.652-1.855-.902-2.965-.696-1.109.207-2.17.853-2.95 1.797-.78.944-1.215 2.109-1.208 3.237.006 1.128.453 2.129 1.242 2.78.789.652 1.855.903 2.965.696 1.11-.206 2.17-.853 2.95-1.797.78-.944 1.215-2.108 1.209-3.237-.007-1.128-.454-2.128-1.243-2.78z" clip-path="url(#p1900be925e)"/><path id="patch_5" fill="#969696" d="M239.542 191.644c.782.193 1.596.12 2.262-.2.666-.322 1.13-.866 1.29-1.513.16-.648.002-1.346-.438-1.94-.44-.594-1.127-1.036-1.909-1.23-.782-.193-1.596-.12-2.262.2-.666.322-1.13.866-1.29 1.514-.16.647-.002 1.345.438 1.94.44.593 1.127 1.036 1.909 1.229z" clip-path="url(#p1900be925e)"/><path id="patch_6" fill="#969696" d="M130.326 195.102c.302-.244.485-.61.508-1.018a1.692 1.692 0 0 0-.382-1.154 1.692 1.692 0 0 0-1.05-.614c-.403-.061-.8.042-1.101.286a1.403 1.403 0 0 0-.509 1.019c-.023.407.114.822.383 1.154a1.69 1.69 0 0 0 1.05.613c.403.062.799-.041 1.1-.286z" clip-path="url(#p1900be925e)"/><path id="patch_7" fill="#969696" d="M220.438 219.45c.602-.353 1.062-.893 1.277-1.503.215-.61.168-1.24-.13-1.75-.299-.51-.824-.86-1.461-.971-.637-.112-1.333.023-1.936.375-.602.353-1.062.893-1.277 1.503-.215.61-.168 1.24.13 1.75.298.51.824.86 1.46.971.638.112 1.334-.023 1.937-.375z" clip-path="url(#p1900be925e)"/><path id="patch_8" fill="#969696" d="M165.108 219.081c.49-.362.797-.933.852-1.586a2.833 2.833 0 0 0-.562-1.896 2.833 2.833 0 0 0-1.647-1.097c-.64-.14-1.275-.016-1.766.346-.491.362-.798.933-.852 1.586a2.833 2.833 0 0 0 .562 1.896 2.833 2.833 0 0 0 1.647 1.097c.64.14 1.275.016 1.766-.346z" clip-path="url(#p1900be925e)"/><path id="patch_9" fill="#969696" d="M161.205 190.802c.488.4 1.207.478 1.998.218.79-.26 1.588-.839 2.217-1.607.63-.769 1.04-1.665 1.139-2.491.1-.826-.12-1.516-.608-1.916-.489-.4-1.207-.478-1.998-.218-.79.26-1.588.839-2.218 1.607-.629.769-1.038 1.665-1.138 2.491-.1.826.12 1.516.608 1.916z" clip-path="url(#p1900be925e)"/><path id="patch_10" fill="#969696" d="M274.003 147.137c.536.355 1.344.252 2.247-.286.902-.538 1.825-1.467 2.566-2.584.74-1.116 1.238-2.328 1.383-3.37.145-1.04-.074-1.824-.61-2.18-.536-.355-1.344-.253-2.246.286-.903.538-1.826 1.467-2.567 2.584-.74 1.116-1.238 2.328-1.383 3.37-.145 1.04.075 1.824.61 2.18z" clip-path="url(#p1900be925e)"/><path id="patch_11" fill="#969696" d="M112.395 145.651c.66-.34 1.104-1.036 1.232-1.937.128-.9-.07-1.931-.55-2.865-.48-.934-1.202-1.695-2.01-2.115-.806-.42-1.63-.466-2.292-.126-.66.34-1.104 1.037-1.232 1.937-.128.9.07 1.932.55 2.865.48.934 1.203 1.695 2.01 2.115.806.42 1.63.466 2.292.126z" clip-path="url(#p1900be925e)"/><path id="patch_12" fill="#969696" d="M134.758 121.694c.621-.168 1.104-.748 1.341-1.612.238-.864.211-1.941-.074-2.994-.285-1.054-.806-1.997-1.447-2.623-.641-.626-1.35-.883-1.972-.715-.621.169-1.104.749-1.342 1.613-.237.863-.21 1.94.075 2.994.285 1.053.806 1.997 1.447 2.623.64.625 1.35.883 1.972.714z" clip-path="url(#p1900be925e)"/><path id="patch_13" fill="#969696" d="M126.032 140.853c.463-.354.705-.957.673-1.678-.032-.721-.335-1.5-.844-2.166-.508-.666-1.18-1.164-1.867-1.385-.687-.22-1.333-.146-1.796.207-.463.354-.705.957-.673 1.678.032.721.336 1.5.844 2.166.508.666 1.18 1.164 1.867 1.385.687.221 1.333.146 1.796-.207z" clip-path="url(#p1900be925e)"/><path id="patch_14" fill="#969696" d="M155.679 167.866c.48-.193.824-.673.953-1.333.13-.66.036-1.447-.262-2.188-.297-.74-.773-1.374-1.324-1.76-.55-.388-1.13-.497-1.61-.304-.481.193-.824.673-.954 1.333-.13.66-.036 1.447.262 2.188.297.74.773 1.374 1.324 1.761.55.387 1.13.496 1.61.303z" clip-path="url(#p1900be925e)"/><path id="patch_15" fill="#969696" d="M151.198 138.763c.538-.111.978-.582 1.224-1.309s.277-1.65.087-2.566c-.19-.916-.586-1.75-1.1-2.32-.515-.569-1.106-.826-1.644-.714-.538.111-.978.582-1.224 1.31-.246.726-.277 1.649-.087 2.565.19.916.586 1.75 1.1 2.32.515.569 1.106.826 1.644.714z" clip-path="url(#p1900be925e)"/><path id="patch_16" fill="#969696" d="M118.715 192.494c.514.023 1.017-.206 1.4-.635.382-.43.613-1.025.64-1.654.027-.63-.15-1.242-.494-1.703-.344-.461-.826-.733-1.34-.755-.513-.022-1.016.206-1.398.636-.383.429-.613 1.024-.64 1.654-.028.629.15 1.242.494 1.703.343.46.825.732 1.338.754z" clip-path="url(#p1900be925e)"/><path id="patch_17" fill="#969696" d="M102.02 211.638c.512.346 1.17.43 1.832.232.66-.197 1.27-.66 1.692-1.284.423-.626.625-1.363.562-2.05-.062-.686-.385-1.267-.897-1.613-.512-.346-1.17-.43-1.831-.232-.66.198-1.27.66-1.692 1.285-.423.625-.626 1.362-.563 2.05.063.686.386 1.266.898 1.612z" clip-path="url(#p1900be925e)"/><path id="patch_18" fill="#969696" d="M112.322 215.358c.644-.233 1.196-.642 1.532-1.135.337-.494.431-1.033.263-1.498-.168-.465-.586-.819-1.16-.983-.574-.164-1.26-.125-1.903.108-.645.233-1.196.64-1.532 1.134-.337.494-.431 1.033-.263 1.498.168.465.585.819 1.16.983.574.164 1.26.125 1.903-.107z" clip-path="url(#p1900be925e)"/><path id="patch_19" fill="#969696" d="M118.707 230.954c.53-.36.871-.954.947-1.65.076-.695-.12-1.436-.543-2.06-.423-.623-1.04-1.078-1.714-1.264-.675-.186-1.352-.088-1.882.272-.53.36-.871.953-.947 1.649-.076.695.12 1.437.542 2.06.424.623 1.04 1.078 1.715 1.265.674.186 1.352.088 1.882-.272z" clip-path="url(#p1900be925e)"/><path id="patch_20" fill="#969696" d="M131.897 215.99c.413.15.907.023 1.375-.353.467-.375.87-.97 1.118-1.652.249-.682.323-1.396.207-1.984-.115-.589-.412-1.004-.825-1.154-.412-.15-.907-.024-1.374.352-.468.376-.87.97-1.118 1.652-.25.682-.324 1.396-.208 1.985.116.588.413 1.003.825 1.154z" clip-path="url(#p1900be925e)"/><path id="patch_21" fill="#969696" d="M156.99 223.208c.541.035 1.08-.22 1.496-.71.416-.491.677-1.177.725-1.906.048-.73-.121-1.443-.47-1.983-.35-.541-.85-.865-1.39-.9-.541-.036-1.08.22-1.496.71-.416.49-.677 1.176-.725 1.905-.048.73.121 1.443.47 1.984.349.54.849.864 1.39.9z" clip-path="url(#p1900be925e)"/><path id="patch_22" fill="#969696" d="M177.817 214.289c.516.43 1.266.538 2.086.297.82-.24 1.643-.808 2.287-1.58.644-.77 1.056-1.681 1.147-2.53.09-.85-.15-1.57-.665-2-.516-.432-1.267-.539-2.087-.298-.82.24-1.642.809-2.286 1.58-.644.77-1.056 1.681-1.147 2.53-.09.85.149 1.57.665 2.001z" clip-path="url(#p1900be925e)"/><path id="patch_23" fill="#969696" d="M190.532 181.635a2.52 2.52 0 0 0 1.341-1.101c.282-.497.34-1.055.162-1.55-.179-.496-.58-.888-1.114-1.092a2.52 2.52 0 0 0-1.735.008 2.52 2.52 0 0 0-1.341 1.101c-.282.497-.34 1.055-.162 1.55.179.496.58.888 1.113 1.092a2.52 2.52 0 0 0 1.736-.008z" clip-path="url(#p1900be925e)"/><path id="patch_24" fill="#969696" d="M176.126 163.563a2.019 2.019 0 0 0 1.473-.659c.39-.42.608-.99.606-1.582a2.318 2.318 0 0 0-.616-1.579 2.019 2.019 0 0 0-1.477-.65 2.019 2.019 0 0 0-1.474.66c-.39.42-.608.99-.606 1.582a2.32 2.32 0 0 0 .616 1.578c.393.418.924.652 1.478.65z" clip-path="url(#p1900be925e)"/><path id="patch_25" fill="#969696" d="M217.024 169.683c.97-.262 1.846-.719 2.434-1.268.588-.55.84-1.149.7-1.664-.138-.515-.658-.905-1.443-1.084-.784-.18-1.77-.132-2.742.13-.97.262-1.846.719-2.434 1.269-.588.55-.84 1.148-.7 1.663.138.516.658.906 1.443 1.085.785.179 1.77.132 2.742-.13z" clip-path="url(#p1900be925e)"/><path id="patch_26" fill="#969696" d="M207.583 189.775c.774-.21 1.45-.66 1.877-1.254.428-.594.572-1.282.402-1.912-.17-.63-.642-1.15-1.31-1.448-.669-.297-1.48-.346-2.255-.137-.774.21-1.45.661-1.877 1.255-.428.593-.572 1.281-.402 1.91.17.63.642 1.152 1.31 1.45.669.296 1.48.346 2.255.136z" clip-path="url(#p1900be925e)"/><path id="patch_27" fill="#969696" d="M193.748 149.09c-.296-.303-.77-.406-1.32-.287-.551.12-1.131.451-1.614.922-.483.472-.828 1.044-.96 1.59-.133.548-.041 1.025.254 1.328.295.302.77.405 1.32.286.55-.12 1.13-.45 1.613-.922.483-.471.829-1.043.961-1.59.133-.548.041-1.025-.254-1.328z" clip-path="url(#p1900be925e)"/><path id="patch_28" fill="#969696" d="M201.758 119.652c.586.2 1.263.058 1.88-.395.618-.453 1.126-1.18 1.414-2.02.287-.842.33-1.728.119-2.464-.211-.736-.66-1.262-1.245-1.463-.587-.2-1.263-.058-1.88.395-.618.453-1.127 1.18-1.414 2.02-.288.842-.33 1.728-.12 2.464.212.736.66 1.262 1.246 1.463z" clip-path="url(#p1900be925e)"/><path id="patch_29" fill="#969696" d="M168.69 116.423c.597-.04 1.135-.617 1.494-1.607.36-.99.511-2.31.422-3.672-.089-1.36-.41-2.65-.896-3.586-.485-.935-1.092-1.438-1.69-1.399-.596.039-1.133.617-1.492 1.607-.36.99-.512 2.31-.423 3.672.089 1.36.411 2.65.896 3.586.485.934 1.093 1.438 1.69 1.399z" clip-path="url(#p1900be925e)"/><path id="patch_30" fill="#969696" d="M223.665 149.938c1.103-.558 2.08-1.254 2.716-1.935.635-.68.877-1.29.672-1.696-.205-.405-.84-.571-1.764-.463-.925.108-2.065.482-3.168 1.04-1.104.558-2.08 1.254-2.716 1.935-.635.681-.877 1.291-.672 1.696.205.405.84.572 1.764.464.925-.109 2.065-.483 3.168-1.04z" clip-path="url(#p1900be925e)"/><path id="patch_31" fill="#969696" d="M92.364 193.516c.97.243 1.945.303 2.709.168.763-.136 1.253-.455 1.362-.89.108-.434-.174-.947-.783-1.425-.61-.479-1.499-.884-2.47-1.127-.97-.243-1.945-.303-2.709-.168-.763.135-1.253.455-1.362.89-.108.434.174.947.783 1.425.61.479 1.499.884 2.47 1.127z" clip-path="url(#p1900be925e)"/><path id="patch_32" fill="#969696" d="M106.906 251.6c.454.238.98.291 1.463.149a1.839 1.839 0 0 0 1.114-.908c.23-.439.27-.954.113-1.433a1.963 1.963 0 0 0-.955-1.118 1.963 1.963 0 0 0-1.464-.149 1.839 1.839 0 0 0-1.114.908 1.84 1.84 0 0 0-.112 1.433c.158.478.502.88.955 1.118z" clip-path="url(#p1900be925e)"/><path id="patch_33" fill="#969696" d="M176.854 276.744c.69.652 1.464 1.157 2.152 1.405.689.248 1.235.22 1.518-.081.283-.3.281-.847-.006-1.52-.288-.673-.837-1.417-1.527-2.068s-1.464-1.156-2.152-1.405c-.689-.248-1.235-.219-1.518.082-.283.3-.281.846.006 1.52.288.672.837 1.416 1.527 2.067z" clip-path="url(#p1900be925e)"/><path id="patch_34" fill="#969696" d="M190.745 261.613c.67.596 1.413 1.057 2.063 1.28.65.223 1.157.19 1.407-.09.25-.282.223-.788-.074-1.408-.297-.62-.84-1.304-1.51-1.9-.671-.597-1.413-1.057-2.064-1.28-.65-.223-1.157-.191-1.407.09-.25.28-.223.787.074 1.407s.841 1.304 1.511 1.9z" clip-path="url(#p1900be925e)"/><path id="patch_35" fill="#969696" d="M267.94 171.994c1.096-.327 2.084-.85 2.747-1.454.663-.604.948-1.24.79-1.767-.157-.527-.743-.903-1.63-1.045-.885-.142-1.998-.038-3.093.29-1.096.326-2.084.85-2.747 1.453-.664.604-.948 1.24-.79 1.767.157.528.743.904 1.629 1.045.886.142 1.999.038 3.094-.289z" clip-path="url(#p1900be925e)"/><path id="patch_36" fill="#969696" d="M134.389 220.793c.419.164.927.05 1.413-.316s.91-.956 1.178-1.64c.268-.682.36-1.403.253-2.002-.106-.6-.4-1.028-.82-1.193-.418-.164-.926-.05-1.412.316-.486.366-.91.956-1.178 1.639-.269.683-.36 1.403-.254 2.003.106.599.401 1.028.82 1.193z" clip-path="url(#p1900be925e)"/><path id="patch_37" fill="#969696" d="M129.18 225.645c.52-.094.993-.324 1.316-.638.323-.315.469-.69.405-1.04-.063-.352-.33-.651-.743-.833-.413-.182-.937-.231-1.457-.137s-.994.324-1.317.638c-.323.315-.468.69-.405 1.04.064.352.331.651.744.833.412.182.937.231 1.457.137z" clip-path="url(#p1900be925e)"/><path id="patch_38" fill="#969696" d="M158.51 218.288c.29.318.717.487 1.185.47.468-.016.94-.216 1.312-.556a2.08 2.08 0 0 0 .67-1.259c.057-.465-.075-.905-.366-1.222-.29-.318-.717-.487-1.185-.47-.469.016-.94.216-1.312.557-.372.34-.613.793-.67 1.258-.057.465.074.905.365 1.222z" clip-path="url(#p1900be925e)"/><path id="patch_39" fill="#969696" d="M203.81 182.937c.515-.394.916-.895 1.114-1.39.198-.496.177-.948-.058-1.255-.235-.307-.665-.445-1.195-.383s-1.118.318-1.634.712c-.515.395-.916.895-1.114 1.391-.198.496-.177.947.058 1.254.235.307.665.445 1.195.383.53-.061 1.118-.318 1.634-.712z" clip-path="url(#p1900be925e)"/><path id="patch_40" fill="#969696" d="M156.525 213.418c.273-.234.46-.545.52-.864.06-.319-.01-.62-.197-.837-.187-.217-.474-.333-.799-.321-.324.012-.66.15-.932.384s-.459.544-.52.863c-.06.32.011.62.198.838.187.217.474.333.798.32.325-.011.66-.15.932-.383z" clip-path="url(#p1900be925e)"/><path id="patch_41" fill="#969696" d="M152.992 220.644c.898-.157 1.706-.612 2.246-1.266.54-.655.768-1.454.634-2.222-.134-.769-.62-1.444-1.35-1.876-.73-.433-1.644-.588-2.542-.43-.898.156-1.706.611-2.246 1.266-.54.654-.768 1.453-.634 2.222.134.768.62 1.443 1.35 1.875.73.433 1.644.588 2.542.431z" clip-path="url(#p1900be925e)"/><path id="patch_42" fill="#969696" d="M132.502 232.252c.417-.354.603-.944.518-1.64-.085-.697-.435-1.443-.971-2.074-.537-.63-1.217-1.095-1.891-1.291-.674-.196-1.287-.107-1.703.247-.416.354-.602.945-.517 1.641.085.697.434 1.443.97 2.074.538.63 1.218 1.095 1.892 1.29.673.196 1.286.107 1.702-.247z" clip-path="url(#p1900be925e)"/><path id="patch_43" fill="#969696" d="M106.619 203.331c.842.06 1.664-.08 2.285-.389.62-.31.99-.764 1.025-1.263.036-.498-.264-1-.834-1.396-.57-.395-1.364-.65-2.206-.711-.842-.06-1.664.08-2.285.39-.62.309-.99.763-1.025 1.262-.036.498.264 1 .834 1.396.57.395 1.364.651 2.206.711z" clip-path="url(#p1900be925e)"/><path id="patch_44" fill="#969696" d="M108.476 223.225c.562-.271 1.039-.66 1.325-1.083.286-.422.358-.842.2-1.168-.157-.326-.53-.53-1.04-.569-.508-.038-1.11.093-1.671.364-.562.272-1.038.662-1.324 1.084-.287.422-.359.842-.202 1.168.158.325.532.53 1.04.568.509.039 1.11-.092 1.672-.364z" clip-path="url(#p1900be925e)"/><path id="patch_45" fill="#969696" d="M87.973 159.443c.838.248 1.712.247 2.428 0 .717-.247 1.22-.721 1.395-1.318.177-.597.013-1.268-.455-1.865s-1.201-1.071-2.039-1.319c-.837-.247-1.71-.247-2.428 0-.717.248-1.218.722-1.395 1.319-.176.597-.012 1.268.456 1.865.467.597 1.2 1.071 2.038 1.318z" clip-path="url(#p1900be925e)"/><path id="patch_46" fill="#969696" d="M159.818 197.752c.621.225 1.415-.102 2.205-.91s1.513-2.03 2.009-3.399c.496-1.368.725-2.77.636-3.896-.089-1.127-.488-1.887-1.11-2.112-.621-.226-1.415.102-2.205.91s-1.513 2.03-2.009 3.398c-.496 1.368-.725 2.77-.636 3.897.089 1.127.488 1.886 1.11 2.112z" clip-path="url(#p1900be925e)"/><path id="patch_47" fill="#969696" d="M173.263 241.964c.47-.215.797-.69.91-1.32.113-.63.003-1.365-.306-2.042-.31-.676-.793-1.24-1.344-1.567-.55-.327-1.124-.39-1.594-.175-.47.215-.797.69-.91 1.32-.113.63-.003 1.365.306 2.042.31.676.793 1.24 1.344 1.567.55.327 1.124.39 1.594.175z" clip-path="url(#p1900be925e)"/><path id="patch_48" fill="#969696" d="M225.148 234.427c.573.573 1.304.94 2.031 1.022.728.082 1.393-.128 1.85-.585.455-.457.665-1.122.583-1.85-.083-.727-.451-1.457-1.024-2.03-.573-.572-1.304-.94-2.032-1.022-.727-.082-1.392.129-1.848.586-.457.456-.666 1.121-.584 1.849.083.728.451 1.458 1.024 2.03z" clip-path="url(#p1900be925e)"/><path id="patch_49" fill="#969696" d="M227.763 224.083c.663-.144 1.23-.606 1.574-1.286.344-.68.438-1.52.261-2.339-.176-.817-.61-1.545-1.204-2.022-.594-.477-1.3-.664-1.964-.52-.664.143-1.23.605-1.575 1.285-.344.68-.438 1.521-.261 2.339.177.818.61 1.545 1.204 2.022.594.477 1.301.664 1.965.52z" clip-path="url(#p1900be925e)"/><path id="patch_50" fill="#969696" d="M225.974 223.803c.607.243 1.308.18 1.948-.173.64-.354 1.167-.97 1.464-1.714.298-.743.342-1.553.123-2.251-.219-.698-.683-1.226-1.29-1.47-.608-.243-1.309-.18-1.949.173-.64.354-1.166.97-1.464 1.714-.298.744-.342 1.554-.123 2.251.219.698.683 1.227 1.29 1.47z" clip-path="url(#p1900be925e)"/><path id="patch_51" fill="#969696" d="M250.411 137.137c1.268-.35 2.416-.93 3.193-1.614.776-.683 1.116-1.413.946-2.03-.17-.617-.837-1.07-1.853-1.26-1.017-.188-2.3-.098-3.568.251-1.268.35-2.417.93-3.193 1.613-.776.684-1.116 1.414-.946 2.031.17.617.836 1.07 1.853 1.26 1.017.188 2.3.098 3.568-.251z" clip-path="url(#p1900be925e)"/><path id="patch_52" fill="#969696" d="M160.298 202.763a2.435 2.435 0 0 0-1.48-.849c-.56-.084-1.102.06-1.506.401-.404.341-.638.851-.65 1.417-.011.566.2 1.143.588 1.602.388.46.92.766 1.48.85.56.083 1.102-.06 1.506-.402.404-.34.638-.85.65-1.417a2.435 2.435 0 0 0-.588-1.602z" clip-path="url(#p1900be925e)"/><path id="patch_53" fill="#969696" d="M102.13 257.86c.478.005.943-.378 1.29-1.066.347-.689.548-1.626.56-2.605.012-.979-.167-1.92-.497-2.617-.331-.696-.786-1.091-1.265-1.097-.48-.006-.943.378-1.29 1.066-.348.689-.55 1.625-.561 2.605-.012.979.167 1.92.498 2.617.33.696.785 1.091 1.264 1.097z" clip-path="url(#p1900be925e)"/><path id="patch_54" fill="#969696" d="M118.353 160.66c1.002.033 1.972-.202 2.696-.654.724-.452 1.144-1.084 1.167-1.757.022-.673-.355-1.331-1.047-1.83-.693-.5-1.645-.8-2.647-.833-1.002-.033-1.972.202-2.696.654-.725.452-1.144 1.084-1.167 1.757-.022.673.354 1.331 1.047 1.83.693.5 1.645.8 2.647.833z" clip-path="url(#p1900be925e)"/><path id="patch_55" fill="#969696" d="M124.842 232.384c.643-.27 1.194-.685 1.532-1.152.338-.468.435-.95.271-1.34-.164-.39-.577-.657-1.148-.742-.57-.085-1.252.02-1.894.29-.643.27-1.194.685-1.532 1.153-.338.467-.436.949-.271 1.34.164.39.577.656 1.147.741.57.085 1.252-.02 1.895-.29z" clip-path="url(#p1900be925e)"/><path id="patch_56" fill="#969696" d="M156.099 96.68c.75-.168 1.393-.67 1.787-1.4.394-.728.508-1.622.316-2.486-.192-.863-.674-1.625-1.34-2.117-.667-.493-1.462-.675-2.212-.509-.75.167-1.393.67-1.788 1.399-.394.728-.508 1.623-.316 2.486.193.864.675 1.625 1.341 2.118.666.492 1.462.675 2.212.508z" clip-path="url(#p1900be925e)"/><path id="patch_57" fill="#969696" d="M94.304 238.87c.43.117.914-.037 1.347-.429.433-.39.779-.987.961-1.658.183-.67.188-1.36.013-1.916-.174-.557-.513-.936-.943-1.053-.43-.117-.914.037-1.347.428-.433.391-.779.988-.961 1.658-.183.67-.188 1.36-.014 1.917.175.557.514.935.944 1.052z" clip-path="url(#p1900be925e)"/><path id="patch_58" fill="#969696" d="M167.073 270.13c.835.604 1.726 1.06 2.476 1.265.75.207 1.299.147 1.524-.165.226-.312.11-.852-.32-1.5-.431-.647-1.143-1.35-1.978-1.954-.835-.604-1.726-1.059-2.476-1.265-.75-.206-1.299-.147-1.525.165-.225.313-.11.852.321 1.5.431.647 1.143 1.35 1.978 1.954z" clip-path="url(#p1900be925e)"/><path id="patch_59" fill="#969696" d="M286.48 195.97c.727.056 1.44-.08 1.982-.38.541-.299.867-.737.904-1.218.038-.48-.215-.964-.703-1.344-.488-.38-1.171-.626-1.9-.683-.727-.057-1.44.079-1.982.378-.541.3-.867.738-.905 1.219-.037.48.216.964.704 1.344.488.38 1.171.626 1.9.683z" clip-path="url(#p1900be925e)"/><path id="patch_60" fill="#969696" d="M114.63 243.246c.763-.07 1.478-.317 1.987-.69.51-.372.774-.839.732-1.296-.041-.458-.384-.87-.953-1.144-.568-.275-1.316-.39-2.079-.321-.762.07-1.477.317-1.987.69-.51.372-.773.838-.732 1.296.042.458.385.869.953 1.144.569.274 1.317.39 2.08.32z" clip-path="url(#p1900be925e)"/><path id="patch_61" fill="#969696" d="M105.182 155.07a3.054 3.054 0 0 0 2.046-.815 2.557 2.557 0 0 0 .822-1.898 2.557 2.557 0 0 0-.884-1.87 3.051 3.051 0 0 0-2.071-.748 3.054 3.054 0 0 0-2.046.814 2.557 2.557 0 0 0-.822 1.899c.012.707.33 1.38.884 1.87.554.492 1.299.76 2.071.748z" clip-path="url(#p1900be925e)"/><path id="patch_62" fill="#969696" d="M267.01 141.027c.569.508 1.44.63 2.421.34.983-.291 1.996-.97 2.817-1.889.82-.918 1.383-2 1.562-3.01.179-1.008-.04-1.86-.607-2.367-.568-.508-1.439-.63-2.421-.34-.982.291-1.995.97-2.816 1.889-.821.918-1.383 2.001-1.562 3.01-.18 1.008.039 1.86.607 2.367z" clip-path="url(#p1900be925e)"/><path id="patch_63" fill="#969696" d="M241.573 128.281c.775.596 1.673.967 2.496 1.032.822.064 1.502-.183 1.89-.688.388-.505.452-1.225.177-2.004-.274-.778-.864-1.55-1.64-2.145-.775-.596-1.673-.967-2.496-1.032-.822-.064-1.502.183-1.89.688-.387.505-.451 1.225-.177 2.003.274.779.864 1.55 1.64 2.146z" clip-path="url(#p1900be925e)"/><path id="patch_64" fill="#969696" d="M93.476 140.277c1.137.476 2.365.607 3.411.364 1.047-.243 1.828-.84 2.17-1.66.343-.82.22-1.794-.342-2.71-.562-.916-1.517-1.698-2.654-2.174-1.138-.476-2.365-.606-3.412-.363-1.046.243-1.827.84-2.17 1.659-.342.82-.22 1.795.343 2.71.562.916 1.516 1.698 2.654 2.174z" clip-path="url(#p1900be925e)"/><path id="patch_65" fill="#969696" d="M288.928 144.103c.974-.863 1.707-1.919 2.037-2.934.33-1.015.231-1.907-.276-2.48-.507-.572-1.38-.778-2.428-.572-1.048.206-2.184.806-3.158 1.67-.974.863-1.707 1.918-2.038 2.934-.33 1.015-.23 1.907.277 2.48.507.572 1.38.778 2.428.572 1.047-.206 2.183-.807 3.158-1.67z" clip-path="url(#p1900be925e)"/><path id="patch_66" fill="#969696" d="M93.66 145.091c.915.464 1.916.665 2.783.56.866-.106 1.527-.509 1.837-1.12.31-.613.243-1.384-.185-2.145-.428-.76-1.183-1.448-2.099-1.912-.916-.463-1.917-.664-2.783-.559-.867.105-1.528.508-1.838 1.12-.31.613-.243 1.384.185 2.144.429.761 1.184 1.449 2.1 1.912z" clip-path="url(#p1900be925e)"/><path id="patch_67" fill="#969696" d="M166.59 190.188c.497-.269.85-.754.984-1.348a2.655 2.655 0 0 0-.276-1.823 2.655 2.655 0 0 0-1.373-1.23c-.57-.216-1.17-.186-1.667.083-.497.268-.851.753-.984 1.348a2.655 2.655 0 0 0 .275 1.823c.31.573.803 1.015 1.374 1.23.57.215 1.17.185 1.666-.083z" clip-path="url(#p1900be925e)"/><path id="patch_68" fill="#969696" d="M264.307 150.924c.775-.27 1.453-.718 1.884-1.245.43-.526.58-1.09.414-1.564-.165-.475-.632-.824-1.297-.97-.665-.144-1.474-.074-2.248.196-.775.27-1.453.717-1.884 1.244-.43.527-.58 1.09-.414 1.565.165.475.632.823 1.297.968.665.146 1.473.076 2.248-.194z" clip-path="url(#p1900be925e)"/><path id="patch_69" fill="#969696" d="M169.972 197.482c.336.201.781.19 1.236-.03.455-.22.884-.633 1.19-1.146.308-.514.469-1.086.448-1.591-.02-.505-.22-.902-.557-1.104-.337-.201-.781-.19-1.237.03-.455.22-.883.633-1.19 1.146-.307.514-.468 1.086-.448 1.591.02.505.222.903.558 1.104z" clip-path="url(#p1900be925e)"/><path id="patch_70" fill="#969696" d="M166.003 136.303c.535.067 1.086-.17 1.532-.662.446-.49.75-1.194.845-1.956.095-.761-.026-1.518-.337-2.103-.311-.586-.787-.953-1.322-1.02-.535-.067-1.086.172-1.532.663-.446.49-.75 1.194-.845 1.956-.095.76.026 1.518.337 2.103.311.586.787.953 1.322 1.02z" clip-path="url(#p1900be925e)"/><path id="patch_71" fill="#969696" d="M229.682 148.982c.905-.463 1.676-1.096 2.143-1.76.468-.665.593-1.306.35-1.783-.244-.476-.838-.75-1.65-.76-.812-.009-1.777.246-2.682.709-.905.462-1.676 1.096-2.143 1.76-.468.664-.593 1.305-.35 1.782.244.476.838.75 1.65.76.812.01 1.777-.245 2.682-.708z" clip-path="url(#p1900be925e)"/><path id="patch_72" fill="#969696" d="M198.64 232.8c.656-.158 1.182-.74 1.46-1.619.28-.878.29-1.981.03-3.066-.26-1.085-.77-2.063-1.418-2.72-.648-.655-1.38-.935-2.036-.778-.656.157-1.18.74-1.46 1.618-.28.879-.29 1.982-.03 3.067.26 1.085.771 2.063 1.419 2.719.648.656 1.38.936 2.036.778z" clip-path="url(#p1900be925e)"/><path id="patch_73" fill="#969696" d="M148.37 251.225c.488-.485.743-1.164.709-1.889a3.03 3.03 0 0 0-.892-1.974 3.03 3.03 0 0 0-1.969-.903c-.724-.04-1.405.212-1.893.697s-.743 1.164-.709 1.889a3.03 3.03 0 0 0 .891 1.974 3.03 3.03 0 0 0 1.97.904c.724.038 1.405-.213 1.893-.698z" clip-path="url(#p1900be925e)"/><path id="patch_74" fill="#969696" d="M126.575 201.654a3.327 3.327 0 0 0 1.152-2.07c.104-.785-.11-1.546-.597-2.116-.486-.57-1.204-.9-1.995-.921a3.327 3.327 0 0 0-2.226.812 3.327 3.327 0 0 0-1.152 2.07c-.104.785.11 1.546.597 2.116.486.57 1.203.9 1.995.921a3.327 3.327 0 0 0 2.226-.812z" clip-path="url(#p1900be925e)"/><path id="patch_75" fill="#969696" d="M167.702 198.77c.585.107 1.206-.115 1.725-.615.52-.501.895-1.24 1.044-2.056.15-.815.06-1.64-.248-2.292-.309-.652-.81-1.079-1.396-1.186-.585-.107-1.206.114-1.725.615-.52.5-.895 1.24-1.044 2.056-.149.815-.06 1.64.249 2.292.308.652.81 1.079 1.395 1.186z" clip-path="url(#p1900be925e)"/><path id="patch_76" fill="#969696" d="M169.284 198.165c.489.21 1.096.086 1.69-.342.592-.429 1.121-1.128 1.47-1.944.35-.815.491-1.68.392-2.405-.098-.725-.428-1.25-.917-1.46-.489-.209-1.096-.086-1.69.343-.592.428-1.121 1.128-1.47 1.943-.35.816-.491 1.681-.392 2.406.098.725.428 1.25.917 1.459z" clip-path="url(#p1900be925e)"/><path id="patch_77" fill="#969696" d="M253.928 161.456c.913-.433 1.703-1.028 2.196-1.653.494-.626.651-1.23.437-1.68-.214-.45-.782-.71-1.578-.721-.797-.012-1.757.225-2.67.66-.912.433-1.701 1.028-2.195 1.653-.494.625-.651 1.23-.437 1.68.214.45.782.71 1.578.72.797.013 1.757-.225 2.67-.659z" clip-path="url(#p1900be925e)"/><path id="patch_78" fill="#969696" d="M160.717 134.562a2.984 2.984 0 0 0 2.155-1.08 3.526 3.526 0 0 0 .81-2.424 3.533 3.533 0 0 0-1.008-2.349c-.609-.608-1.413-.931-2.237-.897-.823.034-1.599.423-2.155 1.08a3.533 3.533 0 0 0-.81 2.424c.037.895.4 1.74 1.008 2.349.609.609 1.414.932 2.237.897z" clip-path="url(#p1900be925e)"/><path id="patch_79" fill="#969696" d="M104.607 200.189c.894-.113 1.72-.477 2.295-1.01.575-.534.852-1.194.771-1.835-.081-.642-.514-1.212-1.204-1.585-.69-.374-1.58-.52-2.475-.407-.894.113-1.72.477-2.295 1.01-.575.534-.852 1.194-.771 1.835.08.642.514 1.212 1.204 1.585.69.374 1.58.52 2.475.407z" clip-path="url(#p1900be925e)"/><path id="patch_80" fill="#969696" d="M169.362 264.102c.541-.234.866-.906.904-1.867.038-.96-.215-2.132-.702-3.256-.488-1.125-1.17-2.11-1.898-2.74-.727-.628-1.44-.85-1.98-.615-.541.234-.866.906-.904 1.867-.038.96.215 2.132.703 3.256.487 1.125 1.17 2.11 1.897 2.739.727.63 1.44.85 1.98.616z" clip-path="url(#p1900be925e)"/><path id="patch_81" fill="#969696" d="M245.386 164.371c.937-.185 1.792-.58 2.377-1.096.586-.517.854-1.115.746-1.66-.108-.547-.583-.997-1.322-1.252-.738-.255-1.68-.294-2.615-.109-.937.185-1.792.58-2.377 1.097-.586.517-.854 1.114-.746 1.66.108.546.583.996 1.322 1.251.738.255 1.679.295 2.615.11z" clip-path="url(#p1900be925e)"/><path id="patch_82" fill="#969696" d="M104.717 199.35c.916.202 1.85.145 2.596-.159.747-.303 1.244-.828 1.382-1.458.139-.631-.093-1.316-.643-1.904-.55-.588-1.374-1.032-2.29-1.234-.917-.2-1.85-.144-2.597.16-.746.303-1.243.828-1.381 1.459-.139.63.092 1.315.642 1.903.55.589 1.374 1.032 2.29 1.234z" clip-path="url(#p1900be925e)"/><path id="patch_83" fill="#969696" d="M157.74 261.545c.262-.217.2-.807-.176-1.64-.375-.832-1.031-1.838-1.825-2.798-.793-.96-1.66-1.793-2.406-2.317-.747-.525-1.315-.697-1.578-.48-.263.218-.2.808.175 1.64.375.832 1.032 1.839 1.825 2.798.794.96 1.66 1.793 2.407 2.318.747.524 1.314.697 1.577.48z" clip-path="url(#p1900be925e)"/><path id="patch_84" fill="#969696" d="M202.152 225.232c.717-.26 1.265-.897 1.523-1.77.258-.875.204-1.915-.15-2.89-.353-.977-.977-1.81-1.734-2.317-.757-.507-1.586-.646-2.303-.386-.718.26-1.266.897-1.524 1.77-.257.875-.204 1.914.15 2.89.353.977.977 1.81 1.734 2.317.757.507 1.586.645 2.304.386z" clip-path="url(#p1900be925e)"/><path id="patch_85" fill="#969696" d="M178.896 107.941c.513-.442.658-1.269.403-2.299s-.889-2.178-1.762-3.192c-.874-1.015-1.916-1.812-2.897-2.217-.98-.405-1.82-.384-2.333.058-.513.442-.658 1.27-.403 2.3.255 1.029.889 2.178 1.763 3.192.873 1.014 1.915 1.812 2.896 2.216.98.405 1.82.384 2.333-.058z" clip-path="url(#p1900be925e)"/><path id="patch_86" fill="#969696" d="M187.178 182.93a1.975 1.975 0 0 0 1.126-1.113c.213-.52.217-1.12.011-1.665a2.285 2.285 0 0 0-1.109-1.243 1.975 1.975 0 0 0-1.58-.092 1.975 1.975 0 0 0-1.125 1.112 2.285 2.285 0 0 0-.012 1.666 2.29 2.29 0 0 0 1.109 1.243c.504.25 1.073.283 1.58.092z" clip-path="url(#p1900be925e)"/><path id="patch_87" fill="#969696" d="M137.976 216.338c.321.187.729.195 1.134.022.405-.174.774-.514 1.026-.947.252-.432.366-.92.317-1.358-.048-.438-.256-.79-.577-.976-.32-.187-.728-.195-1.133-.021-.405.173-.774.513-1.026.946-.252.432-.366.92-.317 1.359.048.437.256.789.576.975z" clip-path="url(#p1900be925e)"/><path id="patch_88" fill="#969696" d="M271.994 152.244c.898-.22 1.717-.607 2.275-1.08.558-.471.81-.988.701-1.437-.109-.448-.57-.792-1.284-.954-.712-.162-1.618-.13-2.516.088-.899.22-1.717.607-2.276 1.08-.558.471-.81.988-.7 1.437.108.448.57.792 1.283.954.713.162 1.618.13 2.517-.088z" clip-path="url(#p1900be925e)"/><path id="patch_89" fill="#969696" d="M133.32 235.598a2 2 0 0 0 1.586-.213c.489-.29.856-.77 1.02-1.334a2.299 2.299 0 0 0-.141-1.674 2 2 0 0 0-1.222-1.033 2 2 0 0 0-1.586.213c-.489.29-.856.77-1.02 1.335a2.299 2.299 0 0 0 .142 1.674 2 2 0 0 0 1.222 1.032z" clip-path="url(#p1900be925e)"/><path id="patch_90" fill="#969696" d="M204.11 194.494c.698-.01 1.362-.377 1.846-1.018.484-.642.749-1.507.736-2.404-.013-.897-.303-1.754-.805-2.381-.503-.628-1.177-.975-1.875-.965-.697.01-1.361.377-1.845 1.018-.485.642-.75 1.507-.736 2.404.013.898.302 1.754.805 2.382.502.627 1.177.974 1.874.964z" clip-path="url(#p1900be925e)"/><path id="patch_91" fill="#969696" d="M100.235 181.585c.923.198 1.879.06 2.657-.382.778-.443 1.315-1.155 1.492-1.98.178-.825-.02-1.695-.547-2.418-.527-.724-1.342-1.242-2.265-1.44-.923-.199-1.88-.061-2.658.382-.778.442-1.315 1.155-1.492 1.98-.177.824.02 1.694.547 2.418.528.723 1.343 1.241 2.266 1.44z" clip-path="url(#p1900be925e)"/><path id="patch_92" fill="#969696" d="M97.54 186.654c.899.389 1.844.57 2.627.505.783-.066 1.34-.374 1.548-.856.208-.481.05-1.098-.438-1.713-.489-.615-1.269-1.18-2.168-1.568-.9-.389-1.844-.57-2.627-.504-.783.066-1.34.373-1.548.855-.209.482-.05 1.098.438 1.713.488.616 1.268 1.18 2.167 1.568z" clip-path="url(#p1900be925e)"/><path id="patch_93" fill="#969696" d="M151.019 247.206c.275-.217.333-.686.161-1.305-.172-.618-.56-1.335-1.078-1.993-.518-.658-1.125-1.203-1.686-1.515-.56-.311-1.03-.365-1.306-.148-.275.217-.333.686-.161 1.305.172.618.56 1.335 1.078 1.993.518.658 1.125 1.203 1.686 1.515.56.312 1.03.365 1.306.148z" clip-path="url(#p1900be925e)"/><path id="patch_94" fill="#969696" d="M95.302 220.15c.501.206 1.09.138 1.639-.188.548-.326 1.01-.884 1.284-1.552.275-.667.339-1.389.178-2.006-.16-.617-.532-1.08-1.033-1.286-.5-.206-1.09-.138-1.638.188-.548.326-1.01.885-1.284 1.552-.275.667-.339 1.389-.178 2.006.16.618.531 1.08 1.032 1.286z" clip-path="url(#p1900be925e)"/><path id="patch_95" fill="#969696" d="M221.422 196.13c1.012-.012 1.98-.292 2.69-.778.71-.487 1.104-1.14 1.096-1.816-.008-.675-.418-1.318-1.14-1.787-.722-.47-1.696-.726-2.708-.714-1.012.013-1.98.293-2.69.78-.71.486-1.104 1.14-1.096 1.815.009.675.419 1.319 1.14 1.788.722.469 1.696.725 2.708.713z" clip-path="url(#p1900be925e)"/><path id="patch_96" fill="#969696" d="M222.054 156.867c.733-.647 1.282-1.442 1.525-2.21.244-.768.163-1.447-.225-1.887-.388-.44-1.051-.605-1.844-.459-.793.146-1.65.592-2.383 1.238-.733.647-1.282 1.442-1.525 2.21-.244.768-.163 1.447.225 1.887.388.44 1.051.605 1.844.459.793-.146 1.65-.592 2.383-1.238z" clip-path="url(#p1900be925e)"/><path id="patch_97" fill="#969696" d="M133.888 168.298c.802.575 1.72.921 2.549.962.829.041 1.503-.226 1.872-.743.37-.517.406-1.24.1-2.012-.307-.772-.93-1.528-1.733-2.103-.803-.575-1.72-.92-2.549-.962-.829-.04-1.503.227-1.873.743-.37.517-.405 1.241-.099 2.013.306.771.93 1.528 1.733 2.102z" clip-path="url(#p1900be925e)"/><path id="patch_98" fill="#969696" d="M150.045 193.929c.631-.484 1.09-1.141 1.273-1.827.184-.685.078-1.342-.294-1.827-.372-.485-.979-.758-1.688-.758-.71 0-1.463.271-2.095.755-.631.484-1.09 1.141-1.273 1.826-.184.686-.078 1.343.294 1.828.371.485.979.757 1.688.758.71 0 1.463-.271 2.095-.755z" clip-path="url(#p1900be925e)"/><path id="patch_99" fill="#969696" d="M171.986 195.32c.47-.313.855-.711 1.07-1.108.217-.396.245-.757.08-1.005-.164-.247-.509-.36-.958-.313-.448.047-.965.249-1.435.562-.47.313-.855.712-1.07 1.108-.217.396-.245.758-.08 1.005.164.247.509.36.957.313.45-.046.966-.248 1.436-.562z" clip-path="url(#p1900be925e)"/><path id="patch_100" fill="#969696" d="M173.071 163.277c.417-.078.77-.406.98-.912.21-.506.263-1.148.144-1.786-.119-.638-.398-1.22-.777-1.616-.379-.396-.825-.575-1.242-.497-.417.077-.77.405-.98.911-.21.506-.263 1.149-.144 1.787.119.638.398 1.219.777 1.615.379.396.826.575 1.242.498z" clip-path="url(#p1900be925e)"/><path id="patch_101" fill="#969696" d="M120.588 198.96c.768.005 1.507-.229 2.053-.65.546-.421.855-.995.86-1.595.003-.6-.299-1.178-.84-1.606-.54-.428-1.277-.671-2.045-.676-.769-.005-1.508.23-2.054.65-.546.422-.855.996-.859 1.596-.003.6.298 1.178.84 1.606.54.428 1.276.67 2.045.675z" clip-path="url(#p1900be925e)"/><path id="patch_102" fill="#969696" d="M143.657 196.853c.517-.323.917-.787 1.111-1.289.194-.502.168-1-.074-1.387s-.68-.629-1.216-.673c-.536-.045-1.128.112-1.645.435-.516.324-.916.787-1.11 1.29-.195.501-.168 1 .074 1.387.242.386.68.628 1.216.673.536.044 1.128-.112 1.644-.436z" clip-path="url(#p1900be925e)"/><path id="patch_103" fill="#969696" d="M259.271 196.926c1.374-.344 2.636-.896 3.508-1.534.873-.64 1.284-1.312 1.144-1.872-.14-.56-.82-.96-1.89-1.113-1.07-.152-2.444-.045-3.818.299-1.373.343-2.635.895-3.508 1.534-.872.639-1.284 1.312-1.144 1.871.14.56.82.96 1.89 1.113 1.07.153 2.444.045 3.818-.298z" clip-path="url(#p1900be925e)"/><path id="patch_104" fill="#969696" d="M224.938 195.734c.833.263 1.693.322 2.391.163.698-.16 1.177-.523 1.33-1.011.155-.488-.028-1.06-.508-1.592-.48-.53-1.218-.977-2.051-1.24-.833-.263-1.694-.321-2.391-.162-.698.16-1.177.523-1.331 1.01-.154.489.029 1.061.509 1.592.48.531 1.218.977 2.05 1.24z" clip-path="url(#p1900be925e)"/><path id="patch_105" fill="#969696" d="M171.096 194.922c.673-.407 1.213-.972 1.501-1.57.288-.598.301-1.18.036-1.62-.266-.439-.788-.698-1.452-.72-.663-.023-1.414.194-2.087.6-.673.408-1.213.973-1.502 1.571-.288.598-.3 1.18-.035 1.62.265.439.788.698 1.451.72.664.023 1.415-.193 2.088-.6z" clip-path="url(#p1900be925e)"/><path id="patch_106" fill="#969696" d="M138.982 197.66c.532.276 1.125.382 1.648.293.524-.089.935-.364 1.143-.766.209-.401.198-.896-.03-1.375-.23-.48-.657-.904-1.188-1.18-.532-.276-1.125-.381-1.648-.293-.524.09-.935.365-1.143.766-.209.402-.198.896.031 1.376.228.479.656.903 1.187 1.18z" clip-path="url(#p1900be925e)"/><path id="patch_107" fill="#969696" d="M229.245 197.949c.656-.15 1.246-.466 1.64-.876.395-.411.561-.884.463-1.315-.099-.43-.454-.784-.987-.983-.534-.198-1.203-.226-1.859-.076-.656.15-1.246.466-1.64.876-.395.411-.561.884-.463 1.315.099.43.454.784.987.983.534.198 1.203.226 1.859.076z" clip-path="url(#p1900be925e)"/><path id="patch_108" fill="#969696" d="M222.692 247.01c1.158.341 2.322.488 3.236.406.913-.08 1.503-.383 1.638-.84.135-.456-.196-1.03-.92-1.595-.722-.564-1.779-1.074-2.937-1.416-1.157-.342-2.32-.488-3.235-.407-.914.081-1.503.384-1.638.84-.135.457.196 1.03.919 1.595.723.565 1.78 1.074 2.937 1.416z" clip-path="url(#p1900be925e)"/><path id="patch_109" fill="#969696" d="M250.648 195.74c.982-.162 1.892-.514 2.529-.98.637-.464.949-1.003.867-1.498-.082-.495-.55-.906-1.303-1.141-.753-.235-1.728-.276-2.71-.114-.983.162-1.892.515-2.53.98-.636.464-.948 1.003-.866 1.498.081.496.55.906 1.303 1.141.752.236 1.727.277 2.71.114z" clip-path="url(#p1900be925e)"/><path id="patch_110" fill="#969696" d="M226.06 193.828c1.069.075 2.108-.037 2.887-.311.779-.274 1.235-.688 1.267-1.15.033-.464-.361-.937-1.095-1.317-.733-.38-1.746-.636-2.815-.71-1.07-.076-2.109.036-2.888.31-.78.275-1.235.689-1.267 1.151-.033.463.361.936 1.094 1.316.734.38 1.747.636 2.816.711z" clip-path="url(#p1900be925e)"/><path id="patch_111" fill="#969696" d="M256.392 136.181c1.143-.628 2.14-1.41 2.771-2.175.631-.766.846-1.45.596-1.905-.25-.454-.943-.64-1.927-.518-.984.123-2.18.544-3.322 1.172-1.142.628-2.14 1.41-2.77 2.176-.632.765-.846 1.45-.597 1.904.25.454.943.64 1.928.518.984-.123 2.179-.544 3.321-1.172z" clip-path="url(#p1900be925e)"/><path id="patch_112" fill="#969696" d="M274.675 178.875c1.249-.203 2.413-.607 3.235-1.124.823-.517 1.237-1.103 1.15-1.63-.085-.528-.664-.953-1.608-1.182-.943-.229-2.176-.243-3.425-.04-1.249.204-2.412.608-3.235 1.125-.822.516-1.236 1.103-1.15 1.63.085.527.664.952 1.608 1.181.944.23 2.176.244 3.425.04z" clip-path="url(#p1900be925e)"/><path id="patch_113" fill="#969696" d="M92.14 199.16c.93-.139 1.79-.5 2.388-1.007.598-.506.886-1.115.8-1.693-.085-.577-.538-1.077-1.256-1.388-.72-.311-1.647-.408-2.578-.27-.931.138-1.79.5-2.388 1.006-.598.506-.886 1.115-.8 1.693.085.577.537 1.077 1.256 1.388.72.311 1.646.408 2.578.27z" clip-path="url(#p1900be925e)"/><path id="patch_114" fill="#969696" d="M125.042 275.563c.597-.055 1.123-.622 1.462-1.575.34-.954.463-2.217.345-3.512-.119-1.294-.47-2.514-.976-3.39-.506-.877-1.126-1.339-1.723-1.284-.598.055-1.124.621-1.463 1.575-.339.954-.463 2.217-.344 3.511.118 1.294.469 2.514.975 3.39.506.877 1.126 1.34 1.724 1.285z" clip-path="url(#p1900be925e)"/><path id="patch_115" fill="#969696" d="M94.775 136.578c1.415.972 2.948 1.648 4.261 1.88 1.313.232 2.3 0 2.742-.643.442-.644.303-1.647-.385-2.79-.688-1.142-1.87-2.33-3.285-3.302s-2.948-1.648-4.261-1.88c-1.313-.232-2.3 0-2.742.643-.442.644-.304 1.647.385 2.79.688 1.142 1.87 2.33 3.285 3.302z" clip-path="url(#p1900be925e)"/><path id="patch_116" fill="#969696" d="M267.947 222.073c1.033-.036 2.017-.274 2.735-.662.718-.389 1.111-.896 1.093-1.41-.018-.513-.445-.991-1.188-1.329-.743-.338-1.741-.507-2.774-.471-1.033.035-2.017.274-2.735.662-.718.389-1.111.895-1.093 1.409.017.513.445.992 1.188 1.33.743.337 1.74.507 2.774.471z" clip-path="url(#p1900be925e)"/><path id="patch_117" fill="#969696" d="M152.119 102.619c.818.086 1.661-.373 2.342-1.278s1.145-2.181 1.29-3.547c.143-1.366-.043-2.71-.52-3.738-.477-1.027-1.205-1.653-2.024-1.74-.819-.086-1.662.374-2.343 1.279-.68.904-1.144 2.18-1.289 3.547-.144 1.366.043 2.71.52 3.738.477 1.027 1.205 1.652 2.024 1.739z" clip-path="url(#p1900be925e)"/><path id="patch_118" fill="#969696" d="M87.94 213.572c.776.21 1.588.164 2.257-.13.669-.294 1.14-.81 1.31-1.436.169-.625.023-1.309-.406-1.9-.43-.59-1.107-1.041-1.883-1.251-.777-.21-1.589-.164-2.257.13-.67.294-1.14.81-1.31 1.436-.169.625-.023 1.309.406 1.9.43.59 1.107 1.041 1.883 1.251z" clip-path="url(#p1900be925e)"/><path id="patch_119" fill="#969696" d="M242.893 216.31c.537-.432.78-1.187.673-2.096-.107-.91-.553-1.9-1.24-2.753-.688-.854-1.56-1.5-2.427-1.797-.866-.298-1.655-.221-2.192.211-.537.433-.779 1.187-.673 2.097.107.91.553 1.9 1.24 2.753.688.854 1.561 1.5 2.427 1.797.866.298 1.655.221 2.192-.211z" clip-path="url(#p1900be925e)"/><path id="patch_120" fill="#969696" d="M108.634 251.759c.771.155 1.558.07 2.186-.234.628-.305 1.048-.805 1.165-1.39.118-.587-.075-1.21-.537-1.734s-1.155-.905-1.925-1.06c-.771-.155-1.558-.071-2.186.234-.628.304-1.048.805-1.165 1.39-.118.586.075 1.21.537 1.734s1.155.905 1.925 1.06z" clip-path="url(#p1900be925e)"/><path id="patch_121" fill="#969696" d="M162.185 108.676c-1.06-.851-2.33-1.353-3.528-1.395-1.199-.041-2.23.38-2.865 1.172-.636.792-.825 1.889-.525 3.05.3 1.162 1.064 2.293 2.124 3.144 1.06.85 2.33 1.352 3.528 1.394 1.199.042 2.23-.38 2.865-1.171.636-.792.825-1.89.525-3.051-.3-1.162-1.064-2.292-2.124-3.143z" clip-path="url(#p1900be925e)"/><path id="patch_122" fill="#969696" d="M150.232 273.8c.802.53 1.709.83 2.521.834.813.004 1.464-.29 1.811-.814.347-.525.36-1.239.039-1.985-.322-.745-.954-1.462-1.756-1.993-.802-.53-1.709-.83-2.521-.833-.813-.004-1.464.289-1.81.813-.348.525-.362 1.24-.04 1.985.322.746.954 1.463 1.756 1.993z" clip-path="url(#p1900be925e)"/><path id="patch_123" fill="#969696" d="M285.837 201.133c.67-.434 1.21-1.007 1.503-1.591.293-.585.315-1.133.06-1.526-.254-.392-.764-.595-1.417-.566-.653.03-1.396.29-2.066.725-.669.434-1.21 1.007-1.503 1.591-.293.584-.315 1.133-.06 1.525.254.393.764.596 1.418.567.653-.03 1.396-.29 2.065-.725z" clip-path="url(#p1900be925e)"/><path id="patch_124" fill="#969696" d="M142.374 110.824c1.01.813 2.178 1.346 3.247 1.482 1.068.135 1.95-.138 2.45-.76.5-.621.58-1.54.219-2.555-.361-1.015-1.131-2.043-2.142-2.856-1.01-.813-2.178-1.347-3.247-1.482-1.068-.136-1.95.137-2.45.759-.5.622-.58 1.541-.219 2.556.36 1.015 1.131 2.042 2.142 2.856z" clip-path="url(#p1900be925e)"/><path id="patch_125" fill="#969696" d="M108.274 174.975c1.191.263 2.386.283 3.32.054.934-.228 1.531-.686 1.66-1.272.13-.586-.219-1.253-.97-1.854-.75-.6-1.842-1.086-3.033-1.349-1.192-.263-2.386-.283-3.32-.055-.934.229-1.532.686-1.661 1.273-.13.586.22 1.253.97 1.853.75.601 1.842 1.086 3.034 1.35z" clip-path="url(#p1900be925e)"/><path id="patch_126" fill="#969696" d="M214.208 186.304c1.07-.087 2.08-.36 2.808-.76.73-.401 1.117-.896 1.078-1.376-.039-.48-.5-.907-1.284-1.186-.784-.278-1.825-.387-2.894-.3-1.07.086-2.08.36-2.809.76-.729.4-1.116.896-1.078 1.376.04.48.501.907 1.285 1.185.783.279 1.824.387 2.894.3z" clip-path="url(#p1900be925e)"/><path id="patch_127" fill="#969696" d="M221.117 196.37c1.117.111 2.214-.036 3.05-.41.835-.373 1.34-.943 1.405-1.583.064-.64-.318-1.3-1.063-1.831-.745-.532-1.79-.894-2.908-1.006-1.117-.112-2.215.035-3.05.408-.836.374-1.341.944-1.405 1.584-.064.64.318 1.3 1.062 1.831.745.533 1.791.894 2.909 1.006z" clip-path="url(#p1900be925e)"/><path id="patch_128" fill="#969696" d="M147.507 236.769c.56-.396.905-1.049.958-1.815.053-.766-.19-1.582-.676-2.27-.486-.687-1.174-1.19-1.913-1.396-.74-.206-1.47-.1-2.03.297-.561.395-.906 1.048-.959 1.814-.053.766.19 1.583.676 2.27.486.688 1.174 1.19 1.914 1.396.74.206 1.47.1 2.03-.296z" clip-path="url(#p1900be925e)"/><path id="patch_129" fill="#969696" d="M295.727 193.834c.793-.313 1.493-.768 1.944-1.265.452-.497.62-.995.466-1.385-.154-.39-.617-.64-1.286-.695-.67-.055-1.491.09-2.284.403-.793.312-1.492.767-1.944 1.264-.452.497-.62.995-.465 1.386.154.39.616.64 1.286.695.669.054 1.49-.09 2.283-.403z" clip-path="url(#p1900be925e)"/><path id="patch_130" fill="#969696" d="M250.274 190.214c.875-.276 1.662-.708 2.187-1.202.525-.493.745-1.008.612-1.431-.133-.423-.609-.72-1.322-.824-.713-.104-1.605-.008-2.48.267-.876.276-1.663.708-2.188 1.202-.524.493-.745 1.008-.612 1.431.133.423.609.72 1.322.824.713.104 1.605.008 2.48-.267z" clip-path="url(#p1900be925e)"/><path id="patch_131" fill="#969696" d="M133.816 237.01c.66-.099 1.264-.4 1.676-.838.412-.438.6-.977.523-1.498-.078-.52-.415-.981-.937-1.28-.522-.299-1.186-.411-1.847-.313-.66.099-1.263.4-1.676.838-.412.438-.6.977-.522 1.498.077.52.414.98.936 1.28.522.298 1.187.41 1.847.312z" clip-path="url(#p1900be925e)"/><path id="patch_132" fill="#969696" d="M107.358 185.911c.758.1 1.521-.077 2.122-.49.6-.415.988-1.033 1.078-1.72.09-.685-.124-1.383-.596-1.939a3.046 3.046 0 0 0-1.922-1.024 3.046 3.046 0 0 0-2.122.491c-.6.414-.989 1.033-1.079 1.719-.09.685.124 1.383.596 1.939a3.046 3.046 0 0 0 1.923 1.024z" clip-path="url(#p1900be925e)"/><path id="patch_133" fill="#969696" d="M154.528 250.045c.378-.215.626-.625.687-1.14.061-.516-.068-1.094-.36-1.607-.292-.514-.722-.92-1.196-1.132-.474-.21-.953-.208-1.332.007-.379.215-.626.626-.687 1.14-.062.516.068 1.094.36 1.608.291.513.722.92 1.196 1.131.474.211.953.209 1.332-.007z" clip-path="url(#p1900be925e)"/><path id="patch_134" fill="#969696" d="M109.71 140.302c.692-.49 1.061-1.377 1.026-2.465-.036-1.087-.473-2.287-1.215-3.335-.742-1.048-1.73-1.858-2.743-2.252-1.015-.395-1.974-.34-2.666.15s-1.06 1.376-1.025 2.464c.035 1.088.472 2.288 1.214 3.335.743 1.048 1.73 1.858 2.744 2.253 1.014.394 1.973.34 2.665-.15z" clip-path="url(#p1900be925e)"/><g id="matplotlib.axis_1"><g id="xtick_1"><g id="line2d_1"><defs><path id="ma1bf32a28a" stroke="#969696" stroke-width=".4" d="M0 0v3.5"/></defs><use xlink:href="#ma1bf32a28a" x="109.305" y="313.628" fill="#969696" stroke="#969696" stroke-width=".4"/></g><g id="text_1" fill="#969696" transform="matrix(.14 0 0 -.14 97.418 330.678)"><defs><path id="HelveticaWorld-Regular-8722" d="M54.594 21.578H4v7.328h50.594z"/><path id="HelveticaWorld-Regular-50" d="M4.39 45.125q0 12.39 6.391 18.781 6.406 6.407 17.938 6.407 9.656 0 15.812-5.86 6.157-5.86 6.157-15.14 0-7.22-3.547-12.188-3.532-4.953-10.422-8.703l-12.11-6.64Q13.922 15.921 12.5 8.296h38.188V0H2.593q.39 9.906 4.297 16.5 3.906 6.594 12.203 11.375l12.593 7.328q5.032 2.89 7.329 5.984 2.297 3.094 2.297 8.516 0 5.375-3.766 9.031-3.75 3.672-10.156 3.672-7.078 0-10.594-4.672-3.516-4.656-3.61-12.609z"/><path id="HelveticaWorld-Regular-48" d="M42.484 34.188q0 14.109-3.734 21.156-3.734 7.062-10.969 7.062-7.078 0-10.89-7.062-3.797-7.047-3.797-21.157 0-13.671 3.75-20.937Q20.609 6 27.78 6q7.235 0 10.969 7 3.734 7.016 3.734 21.188zm9.422 0q0-17.297-6.25-26.704-6.25-9.39-17.875-9.39-12.062 0-18.062 9.734-6 9.75-6 26.36 0 17.03 6.14 26.578 6.157 9.547 17.922 9.547 11.625 0 17.875-9.5t6.25-26.626z"/></defs><use xlink:href="#HelveticaWorld-Regular-8722"/><use xlink:href="#HelveticaWorld-Regular-50" x="58.594"/><use xlink:href="#HelveticaWorld-Regular-48" x="114.209"/></g></g><g id="xtick_2"><use xlink:href="#ma1bf32a28a" id="line2d_2" x="173.384" y="313.628" fill="#969696" stroke="#969696" stroke-width=".4"/><use xlink:href="#HelveticaWorld-Regular-48" id="text_2" fill="#969696" transform="matrix(.14 0 0 -.14 169.492 330.678)"/></g><g id="xtick_3"><use xlink:href="#ma1bf32a28a" id="line2d_3" x="237.464" y="313.628" fill="#969696" stroke="#969696" stroke-width=".4"/><g id="text_3" fill="#969696" transform="matrix(.14 0 0 -.14 229.679 330.678)"><use xlink:href="#HelveticaWorld-Regular-50"/><use xlink:href="#HelveticaWorld-Regular-48" x="55.615"/></g></g><g id="xtick_4"><use xlink:href="#ma1bf32a28a" id="line2d_4" x="301.543" y="313.628" fill="#969696" stroke="#969696" stroke-width=".4"/><g id="text_4" fill="#969696" transform="matrix(.14 0 0 -.14 293.758 330.678)"><defs><path id="HelveticaWorld-Regular-52" d="M10.594 24.703h22.61v31.89h-.188zM42 17.093V0h-8.797v17.094H2.484v8.593L34.72 70.314H42v-45.61h10.297v-7.61z"/></defs><use xlink:href="#HelveticaWorld-Regular-52"/><use xlink:href="#HelveticaWorld-Regular-48" x="55.615"/></g></g><g id="text_5" fill="#969696" transform="matrix(.14 0 0 -.14 186.68 347.625)"><defs><path id="HelveticaWorld-Regular-97" d="M38.375 26.703q-.969-1.015-3.828-1.656-2.86-.625-10.672-1.656-5.766-.688-8.469-2.844-2.703-2.14-2.703-5.656 0-4.297 2.281-6.688 2.297-2.39 7.329-2.39 6.296 0 11.171 3.578 4.891 3.593 4.891 8.718zM6.203 36.375q.297 8.844 5.734 13.14 5.454 4.297 15.844 4.297 8.297 0 13.907-3.765 5.624-3.75 5.624-10.844V9.078Q47.313 6 50.094 6q1.125 0 2.89.39V0Q50.594-.984 48-.984q-4.5 0-6.703 1.921-2.188 1.938-2.281 6.047-7.516-8.5-18.891-8.5-7.422 0-11.922 4.204Q3.72 6.89 3.72 13.624q0 6.89 3.906 11.125Q11.531 29 19 29.89l15.516 1.891q4.203.64 4.203 6.203 0 4.11-3.047 6.297-3.047 2.203-9.25 2.203-5.516 0-8.485-2.437-2.953-2.438-3.53-7.672z"/><path id="HelveticaWorld-Regular-39" d="M5.906 71.781h7.282V46.297H5.905z"/></defs><use xlink:href="#HelveticaWorld-Regular-97"/><use xlink:href="#HelveticaWorld-Regular-39" x="54.932"/></g></g><g id="matplotlib.axis_2"><g id="ytick_1"><g id="line2d_5"><defs><path id="m4c78715b4b" stroke="#969696" stroke-width=".3" d="M0 0h-3.5"/></defs><use xlink:href="#m4c78715b4b" x="47.265" y="292.174" fill="#969696" stroke="#969696" stroke-width=".3"/></g><g id="text_6" fill="#969696" transform="matrix(.14 0 0 -.14 16.492 297.199)"><defs><path id="HelveticaWorld-Regular-51" d="M22.406 39.984q2.203-.187 4.594-.187 6.203 0 9.781 2.86 3.594 2.859 3.594 8.656 0 4.687-3.344 7.89-3.343 3.203-9.64 3.203-6.985 0-10.235-4.11-3.234-4.093-3.437-10.983h-8.64q0 10.984 5.765 16.984 5.765 6.016 16.937 6.016 9.922 0 15.828-5.11 5.907-5.094 5.907-13.39 0-10.704-9.032-14.5v-.204q11.72-4 11.72-16.406 0-9.906-6.595-16.265-6.593-6.344-18.703-6.344-9.906 0-16.312 5.203Q4.204 8.5 3.422 21.484H12.5q.203-8.109 4-11.797Q20.313 6 27.484 6q6.938 0 11.141 3.86 4.203 3.859 4.203 9.718 0 6.406-4.016 9.672-4 3.266-12.39 3.266-2 0-4.016-.094z"/></defs><use xlink:href="#HelveticaWorld-Regular-8722"/><use xlink:href="#HelveticaWorld-Regular-51" x="58.594"/><use xlink:href="#HelveticaWorld-Regular-48" x="114.209"/></g></g><g id="ytick_2"><use xlink:href="#m4c78715b4b" id="line2d_6" x="47.265" y="260.134" fill="#969696" stroke="#969696" stroke-width=".3"/><g id="text_7" fill="#969696" transform="matrix(.14 0 0 -.14 16.492 265.16)"><use xlink:href="#HelveticaWorld-Regular-8722"/><use xlink:href="#HelveticaWorld-Regular-50" x="58.594"/><use xlink:href="#HelveticaWorld-Regular-48" x="114.209"/></g></g><g id="ytick_3"><use xlink:href="#m4c78715b4b" id="line2d_7" x="47.265" y="228.095" fill="#969696" stroke="#969696" stroke-width=".3"/><g id="text_8" fill="#969696" transform="matrix(.14 0 0 -.14 16.492 233.12)"><defs><path id="HelveticaWorld-Regular-49" d="M35.89 0h-9.374v49.906H10.109v6.985q8.594.28 12.782 2.75Q27.094 62.109 29 70.313h6.89z"/></defs><use xlink:href="#HelveticaWorld-Regular-8722"/><use xlink:href="#HelveticaWorld-Regular-49" x="58.594"/><use xlink:href="#HelveticaWorld-Regular-48" x="114.209"/></g></g><g id="ytick_4"><use xlink:href="#m4c78715b4b" id="line2d_8" x="47.265" y="196.055" fill="#969696" stroke="#969696" stroke-width=".3"/><use xlink:href="#HelveticaWorld-Regular-48" id="text_9" fill="#969696" transform="matrix(.14 0 0 -.14 32.48 201.08)"/></g><g id="ytick_5"><use xlink:href="#m4c78715b4b" id="line2d_9" x="47.265" y="164.015" fill="#969696" stroke="#969696" stroke-width=".3"/><g id="text_10" fill="#969696" transform="matrix(.14 0 0 -.14 24.695 169.04)"><use xlink:href="#HelveticaWorld-Regular-49"/><use xlink:href="#HelveticaWorld-Regular-48" x="55.615"/></g></g><g id="ytick_6"><use xlink:href="#m4c78715b4b" id="line2d_10" x="47.265" y="131.976" fill="#969696" stroke="#969696" stroke-width=".3"/><g id="text_11" fill="#969696" transform="matrix(.14 0 0 -.14 24.695 137)"><use xlink:href="#HelveticaWorld-Regular-50"/><use xlink:href="#HelveticaWorld-Regular-48" x="55.615"/></g></g><g id="ytick_7"><use xlink:href="#m4c78715b4b" id="line2d_11" x="47.265" y="99.936" fill="#969696" stroke="#969696" stroke-width=".3"/><g id="text_12" fill="#969696" transform="matrix(.14 0 0 -.14 24.695 104.96)"><use xlink:href="#HelveticaWorld-Regular-51"/><use xlink:href="#HelveticaWorld-Regular-48" x="55.615"/></g></g><g id="ytick_8"><use xlink:href="#m4c78715b4b" id="line2d_12" x="47.265" y="67.896" fill="#969696" stroke="#969696" stroke-width=".3"/><g id="text_13" fill="#969696" transform="matrix(.14 0 0 -.14 24.695 72.921)"><use xlink:href="#HelveticaWorld-Regular-52"/><use xlink:href="#HelveticaWorld-Regular-48" x="55.615"/></g></g><g id="text_14" fill="#969696" transform="matrix(.14 0 0 -.14 7.2 177.674)"><defs><path id="HelveticaWorld-Regular-98" d="M43.406 26.313q0 10.5-3.718 15.046-3.704 4.547-10.579 4.547-6.984-.11-10.562-5.453Q14.984 35.11 14.984 25q0-10.297 4.297-14.594Q23.578 6.11 29.297 6.11q6.5 0 10.297 5.344 3.812 5.344 3.812 14.86zM6.594 0v71.781h8.781V45.703h.203q5.61 8.11 15.14 8.11 9.766 0 15.766-7.25t6-18.876q0-13.093-6.062-21.156Q40.375-1.516 29.5-1.516q-9.578 0-14.406 8.016h-.203V0z"/></defs><use xlink:href="#HelveticaWorld-Regular-98"/><use xlink:href="#HelveticaWorld-Regular-39" x="56.494"/></g></g><g id="text_15" fill="#969696" transform="matrix(.14 0 0 -.14 82.646 17.516)"><defs><path id="HelveticaWorld-Regular-76" d="M17.672 8.594h36.531V0H8.11v71.781h9.563z"/><path id="HelveticaWorld-Regular-117" d="M6.11 52.297h8.78V17.578q0-5.765 2.61-8.625Q20.125 6.11 25 6.11q6.781 0 10.594 4.797 3.812 4.813 3.812 12.578v28.813h8.782V0H39.89v7.625l-.188.188q-4.984-9.329-16.61-9.329-7.515 0-12.25 4.094Q6.11 6.688 6.11 14.703z"/><path id="HelveticaWorld-Regular-111" d="M12.703 26.219q0-8.735 3.953-14.375 3.953-5.64 11.219-5.64 7.531 0 11.438 5.905 3.906 5.907 3.906 14.11 0 8.297-3.907 14.078-3.906 5.797-11.437 5.797-6.969 0-11.078-5.453-4.094-5.438-4.094-14.422zm-8.984 0q0 11.672 6.484 19.625 6.5 7.968 17.672 7.968 11.438 0 17.875-8.062 6.453-8.047 6.453-19.531 0-11.516-6.406-19.625-6.39-8.11-17.922-8.11-11.078 0-17.625 7.86-6.531 7.86-6.531 19.875z"/><path id="HelveticaWorld-Regular-45" d="M28.906 23.188H4.391v8.984h24.515z"/><path id="HelveticaWorld-Regular-82" d="M17.828 39.11h22.453q7.813 0 11.203 3.203 3.407 3.203 3.407 9.203 0 5.468-2.938 8.718-2.922 3.25-10.062 3.25H17.828zm0-39.11H8.11v71.781h33.203q11.563 0 17.516-4.937 5.969-4.922 5.969-14.36 0-6.187-2.39-10.343-2.391-4.157-7.516-6.844 4.39-1.61 6.343-4.516 1.953-2.906 2.25-9l.625-13.375q.094-3.328 1.047-4.672.953-1.343 2.672-2.125V0H55.812q-.921 2.688-1.312 8.156-.39 5.469-.39 9.86 0 2.203-.391 4.5-.39 2.297-1.719 4.14-1.313 1.86-3.86 3-2.53 1.157-6.828 1.157H17.828z"/><path id="HelveticaWorld-Regular-105" d="M6.594 61.813v9.968h8.781v-9.969zM15.375 0H6.594v52.297h8.781z"/><path id="HelveticaWorld-Regular-103" d="M12.984 26.313q0-9.61 3.813-14.907Q20.609 6.11 27.094 6.11q6.312 0 10.312 4.579 4 4.593 4 13 0 11.03-3.5 16.625-3.484 5.593-10.61 5.593-7.171 0-10.75-4.765-3.562-4.766-3.562-14.828zm36.828-23.33q0-12.609-6.062-18.797-6.047-6.203-18.266-6.203-8.78 0-13.984 4.047-5.203 4.048-5.984 11.58h8.796q.672-3.812 3.532-6.062 2.86-2.25 8.281-2.25 7.375 0 11.125 3.969 3.766 3.953 3.766 12.828v3.719h-.188q-4.937-7.329-13.922-7.329-11.187 0-17.093 8.25-5.907 8.25-5.907 20.953 0 11.625 5.953 18.875 5.97 7.25 15.829 7.25 9.906 0 15.625-8.89h.187v7.375h8.313z"/><path id="HelveticaWorld-Regular-101" d="M42.484 30.328q-.687 8.485-4.5 12.031-3.797 3.547-10.109 3.547-6.39 0-10.328-4.5-3.922-4.484-4.172-11.078zm8.391-13.922q-1.453-8.11-7.953-13.422-5.719-4.5-15.047-4.593-10.984.093-17.438 7.203Q4 12.704 4 24.704q0 13.78 6.64 21.437 6.641 7.672 18.47 7.672 10.593 0 16.546-7.922 5.953-7.907 5.953-22.594H13.375q0-8.203 3.813-12.703Q21 6.109 28.608 6.109q5.375 0 9.235 3.235 3.86 3.25 4.25 7.062z"/><path id="HelveticaWorld-Regular-108" d="M15.375 0H6.594v71.781h8.781z"/><path id="HelveticaWorld-Regular-112" d="M14.984 23.688q0-8.407 4.094-13 4.11-4.579 10.219-4.579 6.687 0 10.39 5.438 3.72 5.453 3.72 14.765 0 10.22-3.563 14.907-3.563 4.687-10.735 4.687-6.984 0-10.562-5.5-3.563-5.5-3.563-16.718zm-8.39 28.609h8.297v-7.375h.203q5.61 8.89 15.625 8.89 10.11 0 15.937-7.359 5.828-7.344 5.828-18.766 0-12.796-5.953-21Q40.578-1.515 29.5-1.515q-9.094 0-13.922 7.032h-.203v-26.22H6.594z"/><path id="HelveticaWorld-Regular-115" d="M36.078 37.406q-.187 4.688-3.344 6.735-3.14 2.047-9.047 2.047-4.296 0-7.359-1.907-3.047-1.89-3.047-5.468 0-2.829 1.797-4.172 1.813-1.344 7.828-2.86l8.688-2.187q7.906-2 11.297-5.11 3.406-3.093 3.406-8.656 0-7.719-5.64-12.531-5.641-4.813-15.063-4.813-11 0-16.64 4.563-5.626 4.578-5.735 13.75h8.5q.203-5.422 3.594-8.063 3.39-2.625 10.171-2.625 5.516 0 8.766 2.188 3.25 2.203 3.25 6.11 0 2.78-2.11 4.437-2.093 1.672-8.296 3.078l-10.203 2.5q-6.203 1.562-9.157 4.656-2.953 3.094-2.953 8.031 0 7.72 5.516 12.203 5.531 4.5 14.406 4.5 9.485 0 14.531-4.624 5.047-4.61 5.344-11.782z"/><path id="HelveticaWorld-Regular-102" d="M17.188 45.016V0H8.405v45.016H1.22v7.28h7.187v8.985q0 5.907 3.578 8.703 3.594 2.813 10.032 2.813 2.203 0 3.968-.188v-7.906q-1.562.188-3.578.188-2.922 0-4.078-1.438-1.14-1.437-1.14-4.656v-6.5h8.796v-7.281z"/><path id="HelveticaWorld-Regular-114" d="M15.375 0H6.594v52.297h8.297v-8.688h.203q5.703 10.203 14.687 10.203 1.422 0 2.297-.296V44.39h-3.266q-5.906 0-9.671-4.016-3.766-4-3.766-9.953z"/><path id="HelveticaWorld-Regular-67" d="M58.016 50.203q-1.625 7.313-6.782 11.094-5.14 3.797-13.343 3.797-10.594 0-17.047-7.703-6.438-7.688-6.438-20.766 0-15.14 6.094-22.547 6.11-7.39 17.688-7.39 7.609 0 13.093 5.046 5.5 5.063 7.407 14.688h9.421Q66.22 12.594 57.625 5.344t-20.906-7.25q-14.703 0-23.516 10.11Q4.391 18.311 4.391 36.28q0 17.328 9.203 27.36 9.203 10.047 24.297 10.047 12.5 0 20.265-6.454 7.766-6.437 9.235-17.03z"/><path id="HelveticaWorld-Regular-65" d="M44 29.5 33.406 61.078h-.203L21.687 29.5zm-25.297-8.594L11.188 0h-9.97l27 71.781h10.985L65.187 0H54.594l-7.078 20.906z"/><path id="HelveticaWorld-Regular-77" d="M67.484 0v42.39q0 .829.094 8.126t.094 9.78h-.281L47.312 0h-9.609L17.578 60.203h-.297q0-3.61.094-10.297.11-6.687.11-7.515V0H8.108v71.781h13.86L42.39 11.078h.28l20.313 60.703h13.922V0z"/><path id="HelveticaWorld-Regular-54" d="M14.11 21.578q0-6.875 4.093-11.234Q22.313 6 28.906 6q6.297 0 10.032 4.438 3.734 4.453 3.734 11.687 0 6.297-3.688 10.547-3.687 4.25-10.468 4.25-6.594 0-10.5-4.156-3.907-4.157-3.907-11.188zM41.702 51.61q-.984 5.375-3.984 8.078-3 2.72-8.125 2.72-8.11 0-12.36-7.923-4.25-7.906-4.343-18.109l.203-.188q5.61 8.641 16.687 8.641 8.844 0 15.438-5.86 6.593-5.859 6.593-16.452 0-10.5-6.25-17.47-6.25-6.952-16.843-6.952-12.219 0-18.563 8.687-6.344 8.703-6.344 25.938 0 16.593 6.485 27.093 6.5 10.5 19.484 10.5 8.407 0 14.219-5.015 5.813-5 6.297-13.688z"/><path id="HelveticaWorld-Regular-40" d="M29.781 73.297q-8.875-15.875-11.218-25.844-2.344-9.953-2.344-21.969 0-11.859 3.187-22.125Q22.61-6.89 29.891-20.703h-5.86Q15.72-8.593 11.25 2.187 6.781 12.985 6.781 26.125q0 12.36 4.047 23.563 4.063 11.203 12.86 23.609z"/><path id="HelveticaWorld-Regular-85" d="M64.11 71.781V25.203q0-11.922-7.547-19.515-7.532-7.594-21.36-7.594-12.89 0-20.234 7-7.344 7.015-7.344 18.781v47.906h9.563V26.61q0-9.906 4.953-14.922 4.953-5 13.265-5 8.875 0 13.875 5 5.016 5.016 5.016 14.735v45.36z"/><path id="HelveticaWorld-Regular-83" d="M50.39 50.781q-.296 6.844-5.109 10.719-4.797 3.875-12.656 3.875-7.922 0-12.172-3.25-4.234-3.234-4.234-9.344 0-3.265 1.843-5.61 1.86-2.343 6.641-3.468l20.516-4.687q8.297-1.813 12.297-6.875 4.015-5.047 4.015-12.313 0-10.64-7.812-16.187-7.813-5.547-20.313-5.547-9.531 0-15.031 2.437-5.484 2.453-9.734 7.766-4.25 5.328-4.25 14.89h9.093q0-8 5.313-12.406 5.328-4.39 14.5-4.39 8.89 0 13.844 3.156 4.953 3.156 4.953 8.953 0 5.281-2.953 7.89Q46.188 29 37.594 31l-15.469 3.625q-7.719 1.75-11.531 6.125Q6.78 45.125 6.78 51.516q0 9.672 6.516 15.922 6.531 6.25 18.203 6.25 13.172 0 20.328-5.5 7.156-5.485 7.688-17.407z"/><path id="HelveticaWorld-Regular-41" d="M3.516-20.703q8.796 15.922 11.14 25.86Q17 15.093 17 27.093q0 11.922-3.156 22.172T3.422 73.296h5.765q8.391-12.109 12.86-22.905 4.469-10.797 4.469-23.875 0-12.407-4.063-23.61-4.047-11.203-12.828-23.61z"/></defs><use xlink:href="#HelveticaWorld-Regular-76"/><use xlink:href="#HelveticaWorld-Regular-117" x="55.615"/><use xlink:href="#HelveticaWorld-Regular-111" x="110.4"/><use xlink:href="#HelveticaWorld-Regular-45" x="166.309"/><use xlink:href="#HelveticaWorld-Regular-82" x="199.609"/><use xlink:href="#HelveticaWorld-Regular-105" x="270.996"/><use xlink:href="#HelveticaWorld-Regular-103" x="293.018"/><use xlink:href="#HelveticaWorld-Regular-103" x="348.926"/><use xlink:href="#HelveticaWorld-Regular-32" x="404.834"/><use xlink:href="#HelveticaWorld-Regular-101" x="429.248"/><use xlink:href="#HelveticaWorld-Regular-108" x="484.668"/><use xlink:href="#HelveticaWorld-Regular-108" x="506.689"/><use xlink:href="#HelveticaWorld-Regular-105" x="528.711"/><use xlink:href="#HelveticaWorld-Regular-112" x="550.732"/><use xlink:href="#HelveticaWorld-Regular-115" x="607.227"/><use xlink:href="#HelveticaWorld-Regular-101" x="657.227"/><use xlink:href="#HelveticaWorld-Regular-115" x="712.646"/><use xlink:href="#HelveticaWorld-Regular-32" x="762.646"/><use xlink:href="#HelveticaWorld-Regular-102" x="787.061"/><use xlink:href="#HelveticaWorld-Regular-111" x="812.746"/><use xlink:href="#HelveticaWorld-Regular-114" x="868.654"/><use xlink:href="#HelveticaWorld-Regular-32" x="901.223"/><use xlink:href="#HelveticaWorld-Regular-67" x="925.637"/><use xlink:href="#HelveticaWorld-Regular-65" x="996.201"/><use xlink:href="#HelveticaWorld-Regular-77" x="1062.9"/><use xlink:href="#HelveticaWorld-Regular-49" x="1147.91"/><use xlink:href="#HelveticaWorld-Regular-54" x="1203.525"/><use xlink:href="#HelveticaWorld-Regular-32" x="1259.141"/><use xlink:href="#HelveticaWorld-Regular-40" x="1283.555"/><use xlink:href="#HelveticaWorld-Regular-85" x="1316.855"/><use xlink:href="#HelveticaWorld-Regular-67" x="1388.438"/><use xlink:href="#HelveticaWorld-Regular-83" x="1460.752"/><use xlink:href="#HelveticaWorld-Regular-41" x="1526.963"/></g></g></g><defs><clipPath id="p1900be925e"><path d="M47.265 47.516h289.196v266.112H47.265z"/></clipPath></defs></svg>