<svg xmlns="http://www.w3.org/2000/svg" xmlns:xlink="http://www.w3.org/1999/xlink" width="462.737" height="508.038" viewBox="0 0 347.053 381.028"><defs><style>*{stroke-linejoin:round;stroke-linecap:butt}</style></defs><g id="figure_1"><path id="patch_1" d="M0 381.028h347.053V0H0v381.028z" style="fill:none"/><g id="axes_1"><path id="patch_2" d="M52.758 323.405h287.095V57.293H52.758v266.112z" style="fill:none"/><g id="matplotlib.axis_1"><g id="xtick_1"><g id="line2d_1"><defs><path id="mae05c6d9d2" d="M0 0v3.5" style="stroke:#969696;stroke-width:.4"/></defs><use xlink:href="#mae05c6d9d2" x="112.903" y="323.405" style="fill:#969696;stroke:#969696;stroke-width:.4"/></g><g id="text_1" style="fill:#969696" transform="matrix(.14 0 0 -.14 104.272 340.345)"><defs><path id="MyriadPro-Regular-30" d="M1677 4230c-845 0-1447-768-1447-2163C243 691 794-70 1606-70c922 0 1447 780 1447 2195 0 1325-499 2105-1376 2105zm-32-435c582 0 845-672 845-1696 0-1062-276-1734-852-1734-512 0-844 614-844 1696 0 1133 358 1734 851 1734z" transform="scale(.01563)"/><path id="MyriadPro-Regular-2e" d="M710-70c237 0 384 172 384 403 0 237-153 403-377 403S333 570 333 333c0-231 153-403 371-403h6z" transform="scale(.01563)"/><path id="MyriadPro-Regular-32" d="M2944 0v467H1075v13l333 307c877 845 1434 1466 1434 2234 0 595-378 1209-1274 1209-480 0-890-179-1178-422l180-397c192 160 505 352 883 352 621 0 825-390 825-813-6-627-486-1164-1548-2176L288 346V0h2656z" transform="scale(.01563)"/></defs><use xlink:href="#MyriadPro-Regular-30"/><use xlink:href="#MyriadPro-Regular-2e" x="51.3"/><use xlink:href="#MyriadPro-Regular-32" x="72"/></g></g><g id="xtick_2"><use xlink:href="#mae05c6d9d2" id="line2d_2" x="201.066" y="323.405" style="fill:#969696;stroke:#969696;stroke-width:.4"/><g id="text_2" style="fill:#969696" transform="matrix(.14 0 0 -.14 192.436 340.345)"><defs><path id="MyriadPro-Regular-34" d="M2560 0v1133h582v441h-582v2586h-608L96 1504v-371h1933V0h531zM666 1574v13l1017 1415c115 192 218 371 346 614h19c-13-218-19-435-19-653V1574H666z" transform="scale(.01563)"/></defs><use xlink:href="#MyriadPro-Regular-30"/><use xlink:href="#MyriadPro-Regular-2e" x="51.3"/><use xlink:href="#MyriadPro-Regular-34" x="72"/></g></g><g id="xtick_3"><use xlink:href="#mae05c6d9d2" id="line2d_3" x="289.23" y="323.405" style="fill:#969696;stroke:#969696;stroke-width:.4"/><g id="text_3" style="fill:#969696" transform="matrix(.14 0 0 -.14 280.599 340.345)"><defs><path id="MyriadPro-Regular-36" d="M2662 4224c-102 0-243-6-409-32-525-64-986-275-1331-614-410-410-704-1056-704-1876C218 621 800-70 1690-70c864 0 1382 704 1382 1465 0 813-518 1344-1254 1344-461 0-807-217-1005-480h-19c96 685 563 1331 1446 1479 160 25 307 32 422 25v461zM1690 365c-589 0-903 505-916 1190 0 103 26 186 64 250 154 301 468 512 807 512 518 0 857-359 857-954s-326-998-806-998h-6z" transform="scale(.01563)"/></defs><use xlink:href="#MyriadPro-Regular-30"/><use xlink:href="#MyriadPro-Regular-2e" x="51.3"/><use xlink:href="#MyriadPro-Regular-36" x="72"/></g></g><g id="text_4" style="fill:#969696" transform="matrix(.14 0 0 -.14 193.065 371.057)"><defs><path id="MyriadPro-Regular-78" d="m102 3098 1050-1517L51 0h621l448 698c115 185 224 345 326 537h13c109-185 211-358 333-537L2246 0h640L1798 1600l1056 1498h-608l-435-660c-102-166-205-326-307-512h-19c-103 173-199 333-314 506l-441 666H102z" transform="scale(.01563)"/></defs><use xlink:href="#MyriadPro-Regular-78"/></g></g><g id="matplotlib.axis_2"><g id="ytick_1"><g id="line2d_4"><defs><path id="me13c239250" d="M0 0h-3.5" style="stroke:#969696;stroke-width:.3"/></defs><use xlink:href="#me13c239250" x="52.758" y="299.319" style="fill:#969696;stroke:#969696;stroke-width:.3"/></g><g id="text_5" style="fill:#969696" transform="matrix(.14 0 0 -.14 28.497 304.289)"><defs><path id="MyriadPro-Regular-31" d="M1510 0h544v4160h-480l-908-486 108-429 724 390h12V0z" transform="scale(.01563)"/></defs><use xlink:href="#MyriadPro-Regular-30"/><use xlink:href="#MyriadPro-Regular-2e" x="51.3"/><use xlink:href="#MyriadPro-Regular-31" x="72"/></g></g><g id="ytick_2"><use xlink:href="#me13c239250" id="line2d_5" x="52.758" y="255.237" style="fill:#969696;stroke:#969696;stroke-width:.3"/><g id="text_6" style="fill:#969696" transform="matrix(.14 0 0 -.14 28.497 260.207)"><use xlink:href="#MyriadPro-Regular-30"/><use xlink:href="#MyriadPro-Regular-2e" x="51.3"/><use xlink:href="#MyriadPro-Regular-32" x="72"/></g></g><g id="ytick_3"><use xlink:href="#me13c239250" id="line2d_6" x="52.758" y="211.156" style="fill:#969696;stroke:#969696;stroke-width:.3"/><g id="text_7" style="fill:#969696" transform="matrix(.14 0 0 -.14 28.497 216.126)"><defs><path id="MyriadPro-Regular-33" d="M269 211C474 77 883-70 1350-70c999 0 1517 582 1517 1248 0 582-416 966-928 1068v13c512 186 768 551 768 979 0 506-371 992-1190 992-448 0-871-160-1088-320l147-409c179 128 499 275 832 275 518 0 730-294 730-627 0-493-519-704-928-704H896v-423h314c544 0 1068-249 1075-832 6-345-218-806-941-806-390 0-762 160-922 262L269 211z" transform="scale(.01563)"/></defs><use xlink:href="#MyriadPro-Regular-30"/><use xlink:href="#MyriadPro-Regular-2e" x="51.3"/><use xlink:href="#MyriadPro-Regular-33" x="72"/></g></g><g id="ytick_4"><use xlink:href="#me13c239250" id="line2d_7" x="52.758" y="167.074" style="fill:#969696;stroke:#969696;stroke-width:.3"/><g id="text_8" style="fill:#969696" transform="matrix(.14 0 0 -.14 28.497 172.044)"><use xlink:href="#MyriadPro-Regular-30"/><use xlink:href="#MyriadPro-Regular-2e" x="51.3"/><use xlink:href="#MyriadPro-Regular-34" x="72"/></g></g><g id="ytick_5"><use xlink:href="#me13c239250" id="line2d_8" x="52.758" y="122.992" style="fill:#969696;stroke:#969696;stroke-width:.3"/><g id="text_9" style="fill:#969696" transform="matrix(.14 0 0 -.14 28.497 127.962)"><defs><path id="MyriadPro-Regular-35" d="M2771 4160H781L512 2163c154 19 339 45 576 45 832 0 1190-384 1197-922 0-556-455-902-986-902-377 0-717 128-889 230L269 186C467 58 851-70 1306-70c902 0 1548 608 1548 1420 0 525-268 884-595 1069-256 154-576 224-896 224-153 0-243-13-339-25l160 1068h1587v474z" transform="scale(.01563)"/></defs><use xlink:href="#MyriadPro-Regular-30"/><use xlink:href="#MyriadPro-Regular-2e" x="51.3"/><use xlink:href="#MyriadPro-Regular-35" x="72"/></g></g><g id="ytick_6"><use xlink:href="#me13c239250" id="line2d_9" x="52.758" y="78.911" style="fill:#969696;stroke:#969696;stroke-width:.3"/><g id="text_10" style="fill:#969696" transform="matrix(.14 0 0 -.14 28.497 83.88)"><use xlink:href="#MyriadPro-Regular-30"/><use xlink:href="#MyriadPro-Regular-2e" x="51.3"/><use xlink:href="#MyriadPro-Regular-36" x="72"/></g></g><g id="text_11" style="fill:#969696" transform="matrix(.14 0 0 -.14 7.2 187.256)"><defs><path id="MyriadPro-Regular-79" d="M58 3098 1203 243c26-70 39-115 39-147s-20-77-45-134c-128-288-320-506-474-628-166-140-352-230-493-275l141-473c141 25 416 121 691 364 384 333 660 877 1063 1940l845 2208h-596l-614-1818c-77-224-141-461-198-646h-13c-51 185-128 428-199 633L672 3098H58z" transform="scale(.01563)"/></defs><use xlink:href="#MyriadPro-Regular-79"/></g></g><path id="patch_3" d="M92.306 267.244c.183.066.512-.294.917-1.002.404-.709.85-1.707 1.238-2.775.39-1.068.69-2.12.835-2.922.146-.802.125-1.29-.058-1.357-.183-.066-.513.294-.917 1.002-.405.709-.85 1.707-1.239 2.775-.389 1.068-.69 2.12-.835 2.922-.145.802-.124 1.29.059 1.357z" clip-path="url(#pcb39cfa11e)" style="fill:#969696"/><path id="patch_4" d="M235.258 130.947c1.056-.056 2.056-.343 2.78-.8.725-.455 1.115-1.043 1.084-1.633-.031-.59-.48-1.133-1.248-1.51-.769-.379-1.793-.56-2.85-.505-1.055.056-2.055.343-2.78.8-.724.455-1.114 1.043-1.083 1.633.031.59.48 1.133 1.248 1.51.769.379 1.793.56 2.849.505z" clip-path="url(#pcb39cfa11e)" style="fill:#969696"/><path id="patch_5" d="M195.54 209.083c.627-.306 1.16-.739 1.484-1.203.322-.464.408-.922.237-1.273-.171-.35-.584-.565-1.149-.596-.565-.032-1.234.123-1.862.429-.627.306-1.161.738-1.484 1.203-.323.464-.408.922-.237 1.272.171.35.584.565 1.149.597.564.031 1.234-.123 1.862-.429z" clip-path="url(#pcb39cfa11e)" style="fill:#969696"/><path id="patch_6" d="M133.868 179.855c.447.136.956.003 1.416-.371.46-.374.832-.958 1.036-1.624.203-.666.221-1.358.049-1.925-.172-.568-.52-.963-.966-1.1-.447-.136-.956-.003-1.416.371-.46.374-.833.958-1.036 1.624-.204.666-.221 1.358-.05 1.926.173.567.52.962.967 1.099z" clip-path="url(#pcb39cfa11e)" style="fill:#969696"/><path id="patch_7" d="M170.607 243.164c.886-.597 1.618-1.342 2.037-2.071.42-.729.49-1.382.197-1.816-.292-.434-.925-.613-1.757-.498-.833.116-1.798.516-2.684 1.113-.885.597-1.617 1.342-2.036 2.07-.42.73-.49 1.383-.198 1.817.293.434.925.613 1.758.498.833-.116 1.798-.516 2.683-1.113z" clip-path="url(#pcb39cfa11e)" style="fill:#969696"/><path id="patch_8" d="M152.362 207.578c.136.122.39.1.709-.06.318-.16.673-.446.987-.795.314-.348.562-.732.688-1.065.126-.333.12-.589-.015-.71-.136-.123-.391-.102-.71.059-.317.16-.672.446-.986.795-.315.349-.562.732-.688 1.065-.126.333-.12.589.015.711z" clip-path="url(#pcb39cfa11e)" style="fill:#969696"/><path id="patch_9" d="M165.142 194.158c.379-.365.695-.764.88-1.109.184-.344.222-.606.104-.728-.117-.121-.38-.093-.731.08-.35.172-.76.474-1.14.84-.378.365-.694.764-.878 1.108-.185.345-.223.607-.105.728.117.122.38.094.731-.079.351-.172.76-.474 1.14-.84z" clip-path="url(#pcb39cfa11e)" style="fill:#969696"/><path id="patch_10" d="M298.866 197.535c1.646-.029 3.222-.214 4.381-.516 1.16-.301 1.807-.694 1.8-1.092-.007-.397-.668-.767-1.837-1.028s-2.75-.391-4.397-.363c-1.646.029-3.222.215-4.381.516-1.16.302-1.807.694-1.8 1.092.007.398.668.768 1.837 1.029 1.169.26 2.75.39 4.397.362z" clip-path="url(#pcb39cfa11e)" style="fill:#969696"/><path id="patch_11" d="M167.256 137.604c.58.177 1.297-.185 1.996-1.006.7-.82 1.322-2.034 1.73-3.372.41-1.338.572-2.692.452-3.763-.12-1.072-.514-1.773-1.093-1.95-.58-.178-1.297.184-1.996 1.005-.699.821-1.322 2.034-1.73 3.372-.41 1.338-.572 2.692-.452 3.764.12 1.071.514 1.773 1.093 1.95z" clip-path="url(#pcb39cfa11e)" style="fill:#969696"/><path id="patch_12" d="M198.427 124.067c.445.312 1.16.2 1.986-.31.826-.51 1.697-1.377 2.42-2.41.724-1.033 1.241-2.148 1.438-3.099.196-.951.057-1.66-.389-1.972-.445-.312-1.16-.2-1.986.31-.826.51-1.697 1.376-2.42 2.41-.724 1.033-1.24 2.147-1.438 3.098-.196.951-.056 1.66.389 1.973z" clip-path="url(#pcb39cfa11e)" style="fill:#969696"/><path id="patch_13" d="M177.876 139.595c.431.157.985-.076 1.538-.648.554-.572 1.063-1.437 1.414-2.403.352-.966.518-1.955.461-2.749-.056-.794-.33-1.329-.761-1.485-.432-.157-.985.076-1.539.648-.553.572-1.062 1.436-1.413 2.402-.352.967-.518 1.956-.462 2.75.057.794.33 1.328.762 1.485z" clip-path="url(#pcb39cfa11e)" style="fill:#969696"/><path id="patch_14" d="M173.08 175.752c.216.14.604-.004 1.078-.4.474-.395.996-1.01 1.45-1.71.454-.7.804-1.427.973-2.02.169-.594.142-1.007-.074-1.147-.216-.14-.604.003-1.078.399-.474.395-.995 1.01-1.45 1.71-.454.7-.804 1.427-.973 2.02-.168.595-.142 1.007.074 1.148z" clip-path="url(#pcb39cfa11e)" style="fill:#969696"/><path id="patch_15" d="M192.667 148.682c.28.226.828.095 1.526-.363.698-.458 1.488-1.206 2.196-2.08.707-.875 1.275-1.803 1.578-2.58.303-.779.317-1.343.038-1.569-.28-.226-.829-.096-1.527.362-.698.459-1.487 1.207-2.195 2.081-.708.874-1.276 1.802-1.579 2.58-.303.778-.316 1.342-.037 1.569z" clip-path="url(#pcb39cfa11e)" style="fill:#969696"/><path id="patch_16" d="M147.232 185.426c.25.14.589.094.942-.125.352-.218.69-.593.938-1.04.249-.449.387-.934.386-1.349-.001-.415-.143-.726-.393-.865-.25-.138-.59-.093-.942.125-.352.219-.69.594-.938 1.042-.249.448-.388.933-.386 1.348.001.414.143.726.393.864z" clip-path="url(#pcb39cfa11e)" style="fill:#969696"/><path id="patch_17" d="M132.768 194.043c.49-.41.857-.923 1.024-1.426.166-.503.118-.956-.135-1.257-.253-.302-.69-.428-1.215-.352-.524.077-1.094.35-1.582.76-.489.41-.857.924-1.024 1.427-.166.503-.118.955.136 1.257.253.302.69.428 1.214.351.525-.076 1.094-.35 1.582-.76z" clip-path="url(#pcb39cfa11e)" style="fill:#969696"/><path id="patch_18" d="M134.981 198.653c.46-.185.854-.476 1.097-.809.243-.333.315-.68.2-.965-.115-.285-.408-.485-.814-.555-.406-.07-.892-.006-1.351.18-.46.185-.854.476-1.097.809-.243.333-.315.68-.2.965.116.285.409.485.815.555.406.07.892.006 1.35-.18z" clip-path="url(#pcb39cfa11e)" style="fill:#969696"/><path id="patch_19" d="M129.442 209.58c.237.22.621.264 1.068.12.447-.143.92-.462 1.315-.886.396-.423.68-.918.793-1.374.112-.455.042-.836-.195-1.056-.237-.221-.621-.265-1.068-.121-.447.144-.92.462-1.315.886-.396.424-.68.918-.793 1.374-.112.456-.042.836.195 1.057z" clip-path="url(#pcb39cfa11e)" style="fill:#969696"/><path id="patch_20" d="M145.917 201.212c.378-.329.694-.697.88-1.024.185-.326.223-.585.107-.718-.116-.134-.377-.131-.727.006-.349.138-.757.4-1.135.729-.378.328-.694.696-.88 1.023-.185.327-.224.585-.107.719.116.133.377.131.726-.007.35-.138.758-.4 1.136-.728z" clip-path="url(#pcb39cfa11e)" style="fill:#969696"/><path id="patch_21" d="M151.91 206.831c.344-.343.632-.714.801-1.03.17-.316.206-.552.102-.656-.104-.104-.34-.068-.657.101-.316.17-.686.457-1.03.8-.343.344-.63.715-.8 1.03-.17.317-.206.553-.102.657.104.104.34.068.657-.102.316-.169.687-.457 1.03-.8z" clip-path="url(#pcb39cfa11e)" style="fill:#969696"/><path id="patch_22" d="M160.767 205.759c.387-.337.703-.723.88-1.073.176-.35.197-.636.06-.794-.138-.159-.425-.177-.796-.052-.371.126-.797.386-1.184.722-.387.337-.704.723-.88 1.073-.176.35-.198.636-.06.794.138.16.424.178.795.052.372-.126.798-.386 1.185-.722z" clip-path="url(#pcb39cfa11e)" style="fill:#969696"/><path id="patch_23" d="M180.337 191.778c.468-.316.862-.7 1.096-1.067.234-.367.288-.687.15-.891-.137-.203-.454-.273-.882-.194-.428.08-.931.301-1.4.617-.468.316-.862.7-1.096 1.066-.234.368-.288.688-.15.892.137.203.454.273.882.194.428-.08.932-.302 1.4-.617z" clip-path="url(#pcb39cfa11e)" style="fill:#969696"/><path id="patch_24" d="M188.06 175.441c.514-.431.938-.928 1.178-1.38.24-.453.277-.824.102-1.032-.175-.208-.547-.236-1.034-.078-.487.158-1.05.489-1.564.92-.514.432-.938.928-1.178 1.38-.24.453-.276.824-.102 1.032.175.208.547.236 1.034.078.487-.157 1.05-.489 1.564-.92z" clip-path="url(#pcb39cfa11e)" style="fill:#969696"/><path id="patch_25" d="M202.47 189.959c.843-.164 1.624-.46 2.171-.826.548-.365.817-.768.748-1.12-.068-.353-.469-.626-1.113-.76-.644-.133-1.48-.116-2.322.048-.842.164-1.623.46-2.17.826-.548.365-.817.768-.748 1.12.068.353.469.626 1.113.76.644.133 1.48.116 2.322-.048z" clip-path="url(#pcb39cfa11e)" style="fill:#969696"/><path id="patch_26" d="M181.344 200.3c.591-.288 1.105-.675 1.427-1.075.323-.4.428-.782.293-1.06-.136-.277-.5-.429-1.015-.421-.514.007-1.135.174-1.727.462-.591.289-1.105.676-1.428 1.076-.322.4-.427.782-.292 1.06.136.277.5.43 1.015.421.514-.007 1.135-.174 1.727-.462z" clip-path="url(#pcb39cfa11e)" style="fill:#969696"/><path id="patch_27" d="M205.103 171.052c.686-.305 1.305-.688 1.719-1.063.414-.375.59-.712.49-.937-.1-.225-.468-.32-1.024-.263-.556.057-1.254.26-1.94.566-.687.306-1.305.688-1.72 1.064-.414.375-.59.712-.49.937.1.225.468.32 1.025.262.556-.057 1.254-.26 1.94-.566z" clip-path="url(#pcb39cfa11e)" style="fill:#969696"/><path id="patch_28" d="M243.332 152.645c.921-.264 1.764-.66 2.343-1.1.58-.441.847-.89.744-1.249-.103-.358-.568-.597-1.292-.664-.724-.067-1.65.044-2.57.309-.922.264-1.766.66-2.345 1.1-.579.44-.846.89-.743 1.248.103.359.567.598 1.292.665.724.066 1.649-.045 2.57-.309z" clip-path="url(#pcb39cfa11e)" style="fill:#969696"/><path id="patch_29" d="M227.751 135.004c1.123-.786 2.101-1.682 2.719-2.49.617-.808.824-1.462.575-1.819-.25-.356-.936-.386-1.906-.082-.97.304-2.147.917-3.27 1.703-1.123.786-2.101 1.682-2.719 2.49-.617.808-.824 1.463-.574 1.82.25.356.935.385 1.905.081.971-.304 2.147-.916 3.27-1.703z" clip-path="url(#pcb39cfa11e)" style="fill:#969696"/><path id="patch_30" d="M223.976 178.434c1.222-.129 2.382-.372 3.224-.675.842-.303 1.298-.642 1.266-.943-.031-.3-.547-.537-1.434-.658-.887-.122-2.072-.118-3.294.01-1.223.129-2.383.371-3.225.675-.842.303-1.298.642-1.266.942.032.3.547.538 1.434.66.887.12 2.072.117 3.295-.011z" clip-path="url(#pcb39cfa11e)" style="fill:#969696"/><path id="patch_31" d="M116.311 165.871c.51-.412.634-1.257.347-2.348-.287-1.091-.963-2.34-1.879-3.47-.915-1.13-1.996-2.051-3.003-2.56-1.008-.507-1.86-.56-2.37-.148-.509.412-.633 1.257-.346 2.348.287 1.091.963 2.34 1.879 3.47.915 1.13 1.996 2.051 3.003 2.56 1.008.507 1.86.56 2.37.148z" clip-path="url(#pcb39cfa11e)" style="fill:#969696"/><path id="patch_32" d="M93.683 237.794c.25.21.668.203 1.16-.023.492-.226 1.018-.65 1.462-1.18.444-.53.771-1.12.908-1.644.137-.524.072-.936-.179-1.147-.25-.21-.668-.202-1.16.024-.491.225-1.017.65-1.462 1.18-.444.529-.77 1.12-.908 1.644-.136.523-.072.936.179 1.146z" clip-path="url(#pcb39cfa11e)" style="fill:#969696"/><path id="patch_33" d="M100.782 289.018c.205.075.54-.236.933-.864s.81-1.521 1.16-2.484c.35-.962.605-1.915.708-2.648.103-.733.046-1.187-.16-1.262-.204-.074-.54.237-.932.864-.392.628-.81 1.522-1.16 2.484-.35.963-.605 1.915-.708 2.648-.103.734-.045 1.188.16 1.262z" clip-path="url(#pcb39cfa11e)" style="fill:#969696"/><path id="patch_34" d="M117.102 274.922c.2.08.55-.23.971-.863.421-.633.88-1.537 1.274-2.514.395-.977.694-1.946.83-2.694.137-.748.102-1.214-.1-1.295-.2-.081-.55.23-.971.862-.421.634-.88 1.538-1.274 2.515-.395.976-.693 1.945-.83 2.694-.137.748-.101 1.213.1 1.295z" clip-path="url(#pcb39cfa11e)" style="fill:#969696"/><path id="patch_35" d="M254.978 208.72c1.46 0 2.86-.193 3.892-.538 1.033-.346 1.613-.814 1.613-1.302 0-.488-.58-.957-1.613-1.302-1.032-.345-2.432-.54-3.892-.54s-2.86.195-3.892.54c-1.032.345-1.612.814-1.612 1.302 0 .488.58.956 1.612 1.302 1.032.345 2.432.539 3.892.539z" clip-path="url(#pcb39cfa11e)" style="fill:#969696"/><path id="patch_36" d="M144.876 204.063c.4-.335.74-.709.945-1.037.206-.33.26-.587.151-.717-.109-.13-.372-.12-.731.025-.36.145-.786.415-1.186.75-.4.336-.74.709-.945 1.038-.206.328-.26.586-.151.716.109.13.372.12.731-.025.36-.145.786-.415 1.186-.75z" clip-path="url(#pcb39cfa11e)" style="fill:#969696"/><path id="patch_37" d="M118.04 216.332c.54-.287.997-.682 1.268-1.095.27-.414.334-.813.176-1.11-.158-.298-.525-.47-1.02-.476-.494-.007-1.075.151-1.617.439-.54.288-.997.682-1.268 1.096-.27.413-.334.813-.176 1.11.158.298.525.468 1.02.475.494.007 1.075-.15 1.617-.439z" clip-path="url(#pcb39cfa11e)" style="fill:#969696"/><path id="patch_38" d="M144.922 212.443c.449-.39.821-.83 1.037-1.223.215-.393.254-.707.11-.874-.145-.166-.461-.17-.88-.012-.42.158-.908.466-1.356.856-.449.39-.822.83-1.037 1.224-.215.393-.255.707-.11.873.144.166.461.17.88.013.42-.159.907-.467 1.356-.857z" clip-path="url(#pcb39cfa11e)" style="fill:#969696"/><path id="patch_39" d="M202.48 194.26c1.03-.376 1.971-.864 2.616-1.358.645-.494.94-.953.823-1.277-.118-.324-.64-.486-1.452-.45-.811.037-1.846.267-2.875.642-1.03.375-1.97.863-2.616 1.357-.644.494-.94.953-.823 1.277.118.324.64.486 1.452.45.811-.036 1.846-.267 2.876-.642z" clip-path="url(#pcb39cfa11e)" style="fill:#969696"/><path id="patch_40" d="M139.849 211.218c.416-.325.764-.704.965-1.053.201-.35.24-.64.109-.81-.132-.168-.424-.2-.812-.09-.387.111-.84.356-1.256.682-.416.325-.763.704-.965 1.054-.201.349-.24.64-.109.809.132.168.424.2.812.09.387-.111.84-.356 1.256-.682z" clip-path="url(#pcb39cfa11e)" style="fill:#969696"/><path id="patch_41" d="M154.003 204.115c.35-.255.639-.565.8-.863.163-.298.186-.56.064-.726-.12-.167-.376-.226-.71-.164-.333.062-.717.24-1.068.494-.35.255-.638.565-.8.863-.162.298-.185.56-.064.726.122.167.377.226.71.164.334-.062.718-.24 1.068-.494z" clip-path="url(#pcb39cfa11e)" style="fill:#969696"/><path id="patch_42" d="M140.546 208.946c.184.129.457.113.76-.043s.61-.44.855-.789c.245-.349.406-.735.449-1.073.043-.338-.036-.6-.22-.729-.184-.128-.457-.113-.76.043s-.61.44-.855.789c-.245.35-.406.735-.449 1.073-.043.338.036.6.22.729z" clip-path="url(#pcb39cfa11e)" style="fill:#969696"/><path id="patch_43" d="M122.463 185.185c.697.453 1.502.68 2.236.629.734-.05 1.338-.374 1.678-.898.34-.525.39-1.208.138-1.899-.252-.69-.786-1.334-1.484-1.787-.697-.453-1.501-.679-2.235-.628-.735.05-1.338.373-1.679.898-.34.524-.39 1.207-.138 1.898.253.692.786 1.334 1.484 1.787z" clip-path="url(#pcb39cfa11e)" style="fill:#969696"/><path id="patch_44" d="M102.5 209.27c.765-.357 1.428-.849 1.845-1.367.416-.518.551-1.02.376-1.397-.176-.377-.648-.597-1.312-.61-.665-.015-1.468.177-2.232.534-.765.356-1.428.848-1.845 1.366-.416.518-.551 1.021-.376 1.398.176.376.648.596 1.313.61.664.014 1.467-.178 2.232-.535z" clip-path="url(#pcb39cfa11e)" style="fill:#969696"/><path id="patch_45" d="M144.513 135.009c.665-.166 1.185-.792 1.448-1.74.262-.95.245-2.143-.048-3.32-.293-1.175-.839-2.237-1.516-2.952-.677-.714-1.43-1.022-2.095-.857-.664.166-1.185.792-1.448 1.74-.262.95-.245 2.143.048 3.32.294 1.175.839 2.237 1.516 2.952.677.714 1.43 1.022 2.095.857z" clip-path="url(#pcb39cfa11e)" style="fill:#969696"/><path id="patch_46" d="M161.298 197.395c.115.108.398.025.786-.228.389-.254.851-.658 1.285-1.124.435-.465.806-.955 1.032-1.36.225-.405.288-.693.173-.8-.115-.108-.398-.026-.787.228-.388.253-.85.658-1.285 1.123-.434.466-.805.956-1.031 1.361-.226.405-.288.693-.173.8z" clip-path="url(#pcb39cfa11e)" style="fill:#969696"/><path id="patch_47" d="M139.042 228.234c.158.106.476-.04.886-.406.41-.366.876-.923 1.297-1.548.421-.625.763-1.266.95-1.783.186-.517.202-.867.044-.973-.158-.107-.476.04-.886.406-.41.366-.876.923-1.297 1.548-.422.624-.763 1.266-.95 1.783-.186.516-.202.867-.044.973z" clip-path="url(#pcb39cfa11e)" style="fill:#969696"/><path id="patch_48" d="M157.4 246.298c.327.229.842.159 1.433-.194.59-.353 1.209-.96 1.718-1.687.51-.728.868-1.516.998-2.192.13-.676.019-1.184-.307-1.412-.327-.228-.842-.159-1.433.194-.59.353-1.209.96-1.718 1.687-.51.728-.868 1.516-.998 2.192-.13.676-.019 1.184.308 1.412z" clip-path="url(#pcb39cfa11e)" style="fill:#969696"/><path id="patch_49" d="M166.508 225.256c.233.217.642.226 1.137.026.495-.201 1.036-.595 1.503-1.096.468-.501.823-1.068.989-1.576.165-.508.127-.916-.106-1.133-.233-.217-.642-.227-1.137-.026-.495.2-1.036.595-1.503 1.096-.467.5-.823 1.068-.988 1.576-.166.508-.128.915.105 1.133z" clip-path="url(#pcb39cfa11e)" style="fill:#969696"/><path id="patch_50" d="M169.004 224.274c.506-.41.913-.898 1.133-1.357.22-.46.233-.853.038-1.094-.195-.24-.582-.309-1.078-.19-.495.12-1.057.417-1.562.826-.505.41-.913.897-1.132 1.357-.22.46-.234.853-.039 1.093s.583.31 1.078.19c.495-.12 1.057-.416 1.562-.825z" clip-path="url(#pcb39cfa11e)" style="fill:#969696"/><path id="patch_51" d="M262.147 179.297c1.315.185 2.602.184 3.577-.002.974-.185 1.557-.54 1.62-.988.063-.448-.4-.95-1.285-1.398-.886-.447-2.123-.802-3.438-.987-1.315-.184-2.602-.184-3.577.002-.974.185-1.557.541-1.62.988-.063.448.4.95 1.285 1.398.886.447 2.122.802 3.438.987z" clip-path="url(#pcb39cfa11e)" style="fill:#969696"/><path id="patch_52" d="M155.624 200.816c.154.144.403.173.693.08.29-.092.596-.298.852-.572.255-.274.44-.594.511-.89.072-.295.026-.541-.128-.685-.154-.144-.403-.172-.693-.08-.29.092-.596.298-.852.572-.255.274-.44.594-.511.89-.072.295-.026.542.128.685z" clip-path="url(#pcb39cfa11e)" style="fill:#969696"/><path id="patch_53" d="M92.88 239.518c.255.16.757-.098 1.395-.716.637-.617 1.358-1.545 2.004-2.578.646-1.034 1.163-2.088 1.44-2.932.275-.844.286-1.408.03-1.568-.255-.16-.757.098-1.395.716-.637.617-1.358 1.545-2.004 2.578-.646 1.034-1.163 2.088-1.44 2.932-.275.844-.286 1.408-.03 1.568z" clip-path="url(#pcb39cfa11e)" style="fill:#969696"/><path id="patch_54" d="M161.557 140.392c.912-.112 1.727-.701 2.266-1.638.54-.936.76-2.144.61-3.356-.149-1.212-.654-2.33-1.403-3.109-.75-.778-1.684-1.152-2.595-1.04-.912.112-1.727.7-2.266 1.637-.54.937-.759 2.144-.61 3.356.149 1.213.654 2.33 1.404 3.109.75.778 1.683 1.152 2.594 1.04z" clip-path="url(#pcb39cfa11e)" style="fill:#969696"/><path id="patch_55" d="M114.21 220.869c.714-.412 1.33-.926 1.715-1.427.384-.5.503-.949.332-1.245-.171-.296-.619-.417-1.245-.335-.626.082-1.379.36-2.093.772-.714.413-1.33.926-1.715 1.427-.384.5-.504.949-.332 1.245.17.297.618.417 1.244.335.626-.082 1.38-.36 2.093-.772z" clip-path="url(#pcb39cfa11e)" style="fill:#969696"/><path id="patch_56" d="M226.547 126.247c.707-.33 1.296-.835 1.638-1.406.342-.57.41-1.159.187-1.636-.223-.477-.717-.804-1.374-.909-.657-.105-1.423.022-2.13.351-.706.33-1.295.835-1.637 1.406-.342.57-.41 1.159-.187 1.636.223.478.717.805 1.374.91.657.104 1.423-.023 2.13-.352z" clip-path="url(#pcb39cfa11e)" style="fill:#969696"/><path id="patch_57" d="M100.77 218.004c.241.21.692.16 1.254-.142.561-.3 1.187-.827 1.74-1.462.552-.636.986-1.329 1.206-1.926.22-.598.207-1.052-.034-1.262-.242-.21-.693-.16-1.255.141-.561.301-1.187.827-1.74 1.463-.552.635-.986 1.328-1.206 1.926-.22.598-.207 1.052.034 1.262z" clip-path="url(#pcb39cfa11e)" style="fill:#969696"/><path id="patch_58" d="M108.648 269.296c.232.071.564-.218.922-.804.358-.586.714-1.42.99-2.32.274-.9.446-1.79.476-2.476.03-.686-.082-1.112-.314-1.182-.232-.071-.563.218-.922.804-.358.586-.714 1.42-.989 2.32-.275.9-.447 1.79-.477 2.476-.03.686.082 1.112.314 1.182z" clip-path="url(#pcb39cfa11e)" style="fill:#969696"/><path id="patch_59" d="M241.363 236.93c.894-.224 1.705-.626 2.253-1.12.548-.494.79-1.039.671-1.514-.118-.476-.587-.844-1.303-1.022-.716-.179-1.62-.154-2.515.069-.894.223-1.704.626-2.253 1.12-.548.493-.79 1.038-.671 1.514.119.475.587.843 1.304 1.021.716.179 1.62.154 2.514-.069z" clip-path="url(#pcb39cfa11e)" style="fill:#969696"/><path id="patch_60" d="M108.39 226.658c.654-.333 1.213-.786 1.554-1.258.342-.473.438-.927.267-1.262-.17-.335-.595-.525-1.178-.526-.583-.002-1.278.185-1.932.518-.653.333-1.213.786-1.554 1.258-.342.473-.438.927-.267 1.262.171.336.595.525 1.178.526.583.002 1.278-.185 1.932-.518z" clip-path="url(#pcb39cfa11e)" style="fill:#969696"/><path id="patch_61" d="M155.14 127.276c.826.086 1.669-.31 2.343-1.1.674-.792 1.123-1.915 1.25-3.12.127-1.207-.08-2.398-.574-3.312-.495-.915-1.237-1.477-2.063-1.564-.826-.087-1.669.31-2.342 1.1-.674.792-1.124 1.914-1.25 3.12-.127 1.207.08 2.398.574 3.312.494.914 1.236 1.477 2.062 1.564z" clip-path="url(#pcb39cfa11e)" style="fill:#969696"/><path id="patch_62" d="M291.286 190.914c1.479.051 2.904-.08 3.96-.364 1.058-.284 1.66-.699 1.676-1.152.016-.454-.556-.91-1.59-1.267-1.035-.357-2.448-.587-3.927-.639-1.479-.051-2.904.08-3.96.364-1.058.284-1.66.699-1.676 1.152-.016.454.556.91 1.59 1.267 1.036.357 2.448.587 3.927.639z" clip-path="url(#pcb39cfa11e)" style="fill:#969696"/><path id="patch_63" d="M267.847 173.234c.721-.153 1.367-.517 1.795-1.012.428-.495.603-1.08.487-1.626-.116-.547-.514-1.01-1.106-1.288-.592-.278-1.33-.348-2.052-.195-.721.154-1.367.518-1.795 1.012-.427.495-.603 1.08-.486 1.627.116.546.514 1.01 1.106 1.287.592.278 1.33.348 2.051.195z" clip-path="url(#pcb39cfa11e)" style="fill:#969696"/><path id="patch_64" d="M162.44 122.532c.909-.095 1.71-.84 2.23-2.07.52-1.229.716-2.843.543-4.486-.173-1.643-.7-3.181-1.463-4.276-.764-1.094-1.704-1.655-2.612-1.56-.907.096-1.71.84-2.23 2.07-.52 1.229-.714 2.843-.542 4.486.173 1.643.7 3.181 1.464 4.276.764 1.094 1.703 1.655 2.61 1.56z" clip-path="url(#pcb39cfa11e)" style="fill:#969696"/><path id="patch_65" d="M291.668 198.718c1.586.028 3.11-.126 4.236-.427 1.127-.302 1.765-.727 1.773-1.181.008-.454-.615-.901-1.73-1.242-1.116-.34-2.633-.548-4.219-.576-1.585-.027-3.11.127-4.236.428-1.127.302-1.764.727-1.772 1.181-.008.454.614.901 1.73 1.242 1.115.34 2.633.548 4.218.575z" clip-path="url(#pcb39cfa11e)" style="fill:#969696"/><path id="patch_66" d="M154.211 102.218c.89-.222 1.561-1.162 1.867-2.615.306-1.452.221-3.298-.236-5.13-.457-1.832-1.248-3.502-2.2-4.64-.952-1.14-1.987-1.655-2.876-1.433-.89.222-1.561 1.163-1.867 2.615-.306 1.452-.221 3.298.236 5.13.456 1.833 1.248 3.502 2.2 4.64.952 1.14 1.987 1.655 2.876 1.433z" clip-path="url(#pcb39cfa11e)" style="fill:#969696"/><path id="patch_67" d="M164.275 194.462c.141.099.381.043.668-.154.286-.197.596-.52.86-.898.265-.377.462-.779.55-1.116.087-.336.057-.581-.084-.68-.14-.098-.381-.043-.668.154-.286.197-.596.52-.86.898-.265.378-.462.78-.55 1.116-.087.337-.057.581.084.68z" clip-path="url(#pcb39cfa11e)" style="fill:#969696"/><path id="patch_68" d="M256.081 191.419c.93-.033 1.819-.2 2.468-.465.65-.265 1.008-.606.996-.948-.012-.342-.393-.657-1.06-.876-.666-.22-1.563-.324-2.494-.291-.93.032-1.818.2-2.468.464-.65.265-1.008.606-.996.948.012.342.393.658 1.06.877.666.219 1.564.323 2.494.29z" clip-path="url(#pcb39cfa11e)" style="fill:#969696"/><path id="patch_69" d="M164.06 197.783c.278-.241.51-.513.644-.755s.16-.435.072-.536c-.088-.1-.282-.102-.54-.003-.259.1-.56.291-.838.532-.277.242-.509.513-.643.756-.134.242-.16.434-.073.535.088.101.283.102.541.003.258-.1.56-.29.837-.532z" clip-path="url(#pcb39cfa11e)" style="fill:#969696"/><path id="patch_70" d="M203.151 153.59c.687-.556 1.27-1.183 1.62-1.742.352-.56.442-1.006.252-1.242-.19-.235-.646-.24-1.267-.013-.62.227-1.354.667-2.041 1.224-.687.556-1.27 1.183-1.621 1.742-.351.56-.441 1.006-.25 1.241.19.236.645.24 1.266.013.62-.227 1.354-.667 2.041-1.223z" clip-path="url(#pcb39cfa11e)" style="fill:#969696"/><path id="patch_71" d="M227.228 179.74c1.034-.164 2.004-.452 2.697-.802.694-.35 1.054-.733 1.002-1.064-.053-.331-.514-.584-1.281-.702-.768-.119-1.78-.093-2.813.07-1.034.164-2.004.453-2.697.803-.694.35-1.054.732-1.002 1.063.053.331.514.584 1.281.703.768.118 1.78.093 2.813-.071z" clip-path="url(#pcb39cfa11e)" style="fill:#969696"/><path id="patch_72" d="M152.563 225.752c.224.151.659-.03 1.208-.502.55-.473 1.169-1.2 1.722-2.02.553-.82.994-1.665 1.227-2.352.233-.687.237-1.157.013-1.308-.224-.151-.658.03-1.207.502-.55.473-1.17 1.2-1.722 2.02-.553.82-.995 1.665-1.227 2.352-.233.686-.238 1.157-.014 1.308z" clip-path="url(#pcb39cfa11e)" style="fill:#969696"/><path id="patch_73" d="M125.022 231.272c.21.176.611.106 1.116-.193.504-.3 1.07-.806 1.574-1.406.504-.6.904-1.246 1.111-1.795.208-.549.207-.956-.003-1.132-.21-.177-.611-.107-1.116.193-.504.3-1.07.805-1.574 1.406-.504.6-.904 1.246-1.111 1.795-.208.548-.207.956.003 1.132z" clip-path="url(#pcb39cfa11e)" style="fill:#969696"/><path id="patch_74" d="M150.063 190.615c-.251-.251-.64-.343-1.082-.256-.442.087-.9.345-1.274.72-.373.373-.632.831-.72 1.273-.086.442.006.83.257 1.082.25.25.64.343 1.082.256.441-.087.9-.346 1.273-.72.374-.374.633-.832.72-1.274.087-.441-.005-.83-.256-1.081z" clip-path="url(#pcb39cfa11e)" style="fill:#969696"/><path id="patch_75" d="M161.964 198.452c.13.114.372.089.671-.07.3-.157.633-.435.925-.772.293-.337.522-.705.637-1.024.115-.318.106-.561-.025-.674-.13-.114-.372-.089-.671.069-.3.158-.632.436-.925.773-.293.337-.522.705-.637 1.023-.115.319-.106.562.025.675z" clip-path="url(#pcb39cfa11e)" style="fill:#969696"/><path id="patch_76" d="M164.202 197.68c.307-.287.566-.6.719-.871.153-.271.188-.478.098-.574-.09-.097-.299-.076-.58.058-.28.133-.611.37-.918.656-.307.286-.566.6-.719.87-.153.271-.188.478-.098.574.09.097.299.076.58-.057.28-.134.611-.37.918-.657z" clip-path="url(#pcb39cfa11e)" style="fill:#969696"/><path id="patch_77" d="M239.4 194.387c1.176-.103 2.293-.339 3.104-.656.81-.318 1.25-.69 1.219-1.037-.03-.346-.527-.637-1.38-.81-.854-.171-1.995-.21-3.172-.107s-2.294.34-3.105.657c-.81.317-1.249.69-1.219 1.036.03.347.527.638 1.38.81.855.172 1.995.21 3.172.107z" clip-path="url(#pcb39cfa11e)" style="fill:#969696"/><path id="patch_78" d="M198.006 155.62c.707-.636 1.276-1.368 1.58-2.035.306-.666.322-1.213.047-1.519-.276-.306-.821-.346-1.516-.113-.695.234-1.482.723-2.19 1.36-.706.636-1.275 1.368-1.58 2.035-.305.667-.322 1.213-.046 1.52.275.305.82.346 1.515.112.695-.234 1.483-.723 2.19-1.36z" clip-path="url(#pcb39cfa11e)" style="fill:#969696"/><path id="patch_79" d="M134.468 185.62a2.681 2.681 0 0 0 1.813-.605c.49-.41.777-.982.798-1.586a2.174 2.174 0 0 0-.685-1.639 2.681 2.681 0 0 0-1.767-.73 2.681 2.681 0 0 0-1.814.605c-.49.411-.776.982-.797 1.587a2.174 2.174 0 0 0 .685 1.638c.46.445 1.095.707 1.767.73z" clip-path="url(#pcb39cfa11e)" style="fill:#969696"/><path id="patch_80" d="M118.714 253.406c.213.123.71-.268 1.384-1.085.673-.818 1.466-1.996 2.205-3.276.739-1.28 1.363-2.555 1.734-3.547.372-.992.46-1.618.247-1.742-.213-.123-.71.268-1.384 1.085-.673.818-1.466 1.996-2.205 3.276-.739 1.28-1.363 2.555-1.734 3.547-.372.992-.46 1.618-.247 1.742z" clip-path="url(#pcb39cfa11e)" style="fill:#969696"/><path id="patch_81" d="M238.216 193.937c1.073-.075 2.09-.33 2.826-.709.736-.378 1.13-.85 1.099-1.31-.032-.46-.49-.873-1.271-1.145-.782-.273-1.824-.384-2.896-.309-1.073.075-2.09.33-2.826.709-.736.378-1.131.85-1.099 1.31.032.461.49.873 1.271 1.145.781.273 1.823.384 2.896.309z" clip-path="url(#pcb39cfa11e)" style="fill:#969696"/><path id="patch_82" d="M136.811 185.382c.52-.276.886-.788 1.02-1.425.132-.636.02-1.344-.31-1.967-.332-.624-.857-1.112-1.459-1.357-.601-.246-1.231-.229-1.75.048-.52.276-.887.789-1.02 1.425s-.022 1.344.31 1.967c.331.624.856 1.112 1.458 1.357.601.246 1.231.229 1.751-.048z" clip-path="url(#pcb39cfa11e)" style="fill:#969696"/><path id="patch_83" d="M111.611 255.083c.195.071.556-.337 1.002-1.134.447-.797.943-1.918 1.379-3.117.436-1.198.777-2.376.947-3.273.17-.898.157-1.442-.039-1.513-.195-.071-.555.337-1.002 1.134-.446.797-.942 1.918-1.378 3.117-.436 1.198-.777 2.376-.948 3.273-.17.898-.156 1.442.04 1.513z" clip-path="url(#pcb39cfa11e)" style="fill:#969696"/><path id="patch_84" d="M158.041 220.32c.263.177.697.078 1.206-.275.509-.352 1.051-.93 1.508-1.607.456-.677.79-1.397.926-2 .136-.605.065-1.044-.198-1.221-.264-.178-.697-.08-1.206.273-.51.353-1.051.932-1.508 1.608-.456.677-.79 1.396-.926 2-.136.604-.065 1.044.198 1.221z" clip-path="url(#pcb39cfa11e)" style="fill:#969696"/><path id="patch_85" d="M230.03 139.449c.493.307 1.17.276 1.88-.088.712-.364 1.4-1.03 1.914-1.852.513-.822.81-1.733.826-2.532.015-.798-.253-1.42-.746-1.728-.492-.307-1.168-.276-1.88.088-.71.364-1.399 1.03-1.912 1.852-.514.822-.811 1.733-.826 2.532-.016.799.252 1.42.745 1.728z" clip-path="url(#pcb39cfa11e)" style="fill:#969696"/><path id="patch_86" d="M178.592 191.546c.445-.387.81-.828 1.015-1.226.206-.398.235-.722.08-.899-.153-.177-.478-.193-.9-.045-.424.148-.911.448-1.356.834-.444.387-.81.828-1.015 1.226-.205.399-.234.722-.08.899.154.177.478.193.901.045.423-.148.91-.448 1.355-.834z" clip-path="url(#pcb39cfa11e)" style="fill:#969696"/><path id="patch_87" d="M130.98 207.959c.516-.449.937-.965 1.169-1.436.232-.47.257-.855.07-1.071-.188-.217-.574-.245-1.072-.08-.498.164-1.068.509-1.584.957-.516.45-.937.966-1.17 1.436-.232.47-.257.856-.069 1.072.188.216.573.245 1.071.08.498-.164 1.068-.51 1.585-.958z" clip-path="url(#pcb39cfa11e)" style="fill:#969696"/><path id="patch_88" d="M264.518 195.357c1 .088 1.972.034 2.7-.149.73-.183 1.156-.48 1.186-.826.03-.346-.338-.713-1.024-1.02-.686-.306-1.633-.528-2.634-.615-1-.088-1.972-.034-2.7.149-.729.183-1.156.48-1.186.826-.03.346.338.713 1.024 1.02.686.306 1.634.528 2.634.615z" clip-path="url(#pcb39cfa11e)" style="fill:#969696"/><path id="patch_89" d="M132.841 215.443c.414-.385.75-.822.932-1.212.182-.391.197-.704.042-.871-.156-.167-.47-.174-.872-.019s-.86.459-1.275.844c-.413.386-.748.823-.93 1.213-.183.39-.198.704-.043.871.156.167.47.174.872.019s.86-.459 1.274-.845z" clip-path="url(#pcb39cfa11e)" style="fill:#969696"/><path id="patch_90" d="M177.205 201.495c.606-.44 1.124-.95 1.439-1.417.315-.467.402-.854.242-1.074-.16-.22-.554-.257-1.096-.101-.542.155-1.187.49-1.793.93-.606.44-1.123.95-1.439 1.418-.315.467-.402.853-.242 1.074.16.22.554.256 1.096.1.542-.155 1.187-.49 1.793-.93z" clip-path="url(#pcb39cfa11e)" style="fill:#969696"/><path id="patch_91" d="M142.328 169.622c.68.072 1.37-.235 1.922-.853.55-.617.916-1.495 1.015-2.44.1-.944-.076-1.879-.486-2.597-.41-.719-1.023-1.162-1.702-1.234-.68-.071-1.371.236-1.922.853-.55.617-.916 1.495-1.015 2.44-.1.944.075 1.879.486 2.597.41.719 1.022 1.163 1.702 1.234z" clip-path="url(#pcb39cfa11e)" style="fill:#969696"/><path id="patch_92" d="M130.151 165.03c.577-.246.934-.943.992-1.94.058-.996-.187-2.21-.682-3.375-.494-1.164-1.197-2.184-1.954-2.834-.757-.65-1.507-.879-2.083-.634-.577.245-.933.942-.991 1.939-.059.996.187 2.21.68 3.375.495 1.164 1.198 2.184 1.955 2.834.758.65 1.507.879 2.083.634z" clip-path="url(#pcb39cfa11e)" style="fill:#969696"/><path id="patch_93" d="M111.972 246.29c.24.096.615-.168 1.042-.736.427-.568.871-1.393 1.235-2.294.364-.9.617-1.802.705-2.507.087-.706.002-1.156-.238-1.253-.24-.097-.615.167-1.042.735-.427.568-.872 1.393-1.235 2.294-.364.9-.618 1.802-.705 2.507-.088.706-.002 1.156.238 1.253z" clip-path="url(#pcb39cfa11e)" style="fill:#969696"/><path id="patch_94" d="M115.542 198.807c.575-.575 1.002-1.251 1.186-1.88.185-.628.112-1.158-.203-1.472-.314-.314-.843-.387-1.472-.203-.629.185-1.305.611-1.88 1.186s-1.001 1.251-1.186 1.88c-.184.628-.111 1.158.203 1.472.314.314.844.387 1.473.203.628-.184 1.304-.611 1.88-1.186z" clip-path="url(#pcb39cfa11e)" style="fill:#969696"/><path id="patch_95" d="M180.64 206.135c.56-.16 1.056-.454 1.38-.817.325-.362.45-.763.35-1.115-.102-.352-.42-.626-.888-.76-.466-.136-1.043-.122-1.603.038-.559.16-1.056.454-1.38.816-.324.363-.45.764-.349 1.116.101.352.42.625.887.76.467.136 1.044.122 1.603-.038z" clip-path="url(#pcb39cfa11e)" style="fill:#969696"/><path id="patch_96" d="M207.998 184.206c.902-.329 1.73-.749 2.3-1.168.57-.42.836-.804.74-1.069-.097-.264-.548-.388-1.254-.342-.706.045-1.61.255-2.513.583-.902.328-1.73.749-2.3 1.168-.57.42-.836.804-.74 1.068.097.265.548.388 1.254.343.706-.045 1.61-.255 2.513-.583z" clip-path="url(#pcb39cfa11e)" style="fill:#969696"/><path id="patch_97" d="M165.058 177.203c.311.09.688-.098 1.047-.52.359-.424.672-1.048.869-1.735.197-.687.262-1.382.182-1.93-.08-.55-.3-.908-.612-.997-.31-.09-.687.098-1.047.52-.359.424-.671 1.048-.869 1.735-.197.687-.262 1.382-.182 1.93.081.55.301.908.612.997z" clip-path="url(#pcb39cfa11e)" style="fill:#969696"/><path id="patch_98" d="M160.375 193.804c.277-.267.482-.586.571-.885.09-.3.054-.556-.097-.712-.15-.156-.405-.2-.708-.122-.302.079-.628.273-.904.54-.277.267-.482.586-.571.885-.09.3-.054.556.097.712.15.156.405.2.708.122.302-.079.627-.273.904-.54z" clip-path="url(#pcb39cfa11e)" style="fill:#969696"/><path id="patch_99" d="M164.582 197.112c.295-.2.548-.434.704-.652.156-.219.202-.403.128-.513-.074-.11-.262-.137-.523-.074-.261.063-.574.21-.869.409a2.832 2.832 0 0 0-.704.652c-.156.218-.202.403-.128.513.075.11.263.136.524.074.26-.063.573-.21.868-.41z" clip-path="url(#pcb39cfa11e)" style="fill:#969696"/><path id="patch_100" d="M186.873 172.657c.178.172.566.11 1.08-.17.514-.281 1.112-.759 1.661-1.327.55-.57 1.006-1.183 1.268-1.706.263-.524.31-.915.133-1.086-.178-.172-.566-.11-1.08.17-.515.281-1.112.758-1.661 1.327-.55.569-1.006 1.183-1.268 1.706-.263.524-.31.914-.133 1.086z" clip-path="url(#pcb39cfa11e)" style="fill:#969696"/><path id="patch_101" d="M142.274 188.753c.39.284.89.385 1.387.282a2.11 2.11 0 0 0 1.265-.833 2.11 2.11 0 0 0 .401-1.46 1.742 1.742 0 0 0-.697-1.232 1.742 1.742 0 0 0-1.388-.283 2.11 2.11 0 0 0-1.264.833 2.11 2.11 0 0 0-.402 1.46c.056.505.307.949.698 1.233z" clip-path="url(#pcb39cfa11e)" style="fill:#969696"/><path id="patch_102" d="M155.176 192.888c.308-.241.544-.55.655-.857.11-.307.088-.59-.064-.783-.151-.194-.42-.284-.744-.251-.326.033-.682.187-.99.428-.308.241-.544.55-.655.857-.11.307-.088.589.063.783.152.194.42.284.745.251.325-.033.681-.187.99-.428z" clip-path="url(#pcb39cfa11e)" style="fill:#969696"/><path id="patch_103" d="M205.003 220.285c1.247.022 2.446-.144 3.334-.46.887-.316 1.39-.757 1.399-1.226.008-.468-.48-.927-1.356-1.274-.876-.346-2.068-.554-3.315-.575-1.247-.022-2.447.143-3.334.46-.888.315-1.391.756-1.4 1.225-.007.469.48.927 1.356 1.274.876.347 2.069.554 3.316.576z" clip-path="url(#pcb39cfa11e)" style="fill:#969696"/><path id="patch_104" d="M192.685 211.864c.565-.34 1.001-.842 1.212-1.397.21-.555.178-1.117-.09-1.562-.266-.444-.747-.736-1.336-.81-.589-.075-1.237.073-1.802.413-.565.34-1.001.842-1.212 1.397-.21.555-.178 1.116.09 1.561.266.445.747.737 1.336.812.589.074 1.237-.075 1.802-.414z" clip-path="url(#pcb39cfa11e)" style="fill:#969696"/><path id="patch_105" d="M164.828 196.752c.333-.27.607-.586.761-.879.154-.292.175-.536.06-.68-.117-.143-.36-.173-.678-.083-.318.09-.684.292-1.018.562-.333.27-.607.586-.761.879-.154.292-.175.536-.06.68.117.143.36.173.678.083.318-.09.684-.292 1.018-.562z" clip-path="url(#pcb39cfa11e)" style="fill:#969696"/><path id="patch_106" d="M150.086 192.206c.32.08.672-.02.978-.279.305-.258.539-.654.65-1.1.111-.446.09-.905-.058-1.277-.148-.372-.411-.626-.732-.706-.32-.08-.673.02-.978.28-.305.258-.54.654-.65 1.1-.112.446-.091.905.057 1.277.148.372.412.626.733.705z" clip-path="url(#pcb39cfa11e)" style="fill:#969696"/><path id="patch_107" d="M192.127 214.635c.66-.165 1.258-.457 1.665-.812.406-.355.588-.745.503-1.083-.084-.338-.427-.597-.953-.72-.525-.123-1.191-.1-1.85.065-.66.164-1.259.456-1.665.812-.407.355-.588.744-.504 1.083.084.338.427.597.953.72.526.122 1.192.099 1.851-.065z" clip-path="url(#pcb39cfa11e)" style="fill:#969696"/><path id="patch_108" d="M148.702 253.007c.375.046.775-.247 1.114-.812.338-.566.586-1.36.69-2.206.104-.847.055-1.677-.136-2.308-.192-.63-.51-1.011-.884-1.057-.375-.046-.775.246-1.113.812-.339.566-.587 1.36-.691 2.206-.104.846-.055 1.676.137 2.307.19.631.509 1.012.883 1.058z" clip-path="url(#pcb39cfa11e)" style="fill:#969696"/><path id="patch_109" d="M195.712 214.209c.721-.013 1.41-.166 1.917-.425.506-.259.786-.603.78-.957-.006-.353-.299-.688-.813-.929-.515-.241-1.21-.37-1.93-.357-.722.013-1.412.165-1.918.424-.506.26-.786.604-.78.957.006.354.298.688.813.93.515.24 1.21.37 1.93.357z" clip-path="url(#pcb39cfa11e)" style="fill:#969696"/><path id="patch_110" d="M187.868 208.459c.615.13 1.239.094 1.735-.101.496-.196.823-.534.91-.941.086-.408-.075-.85-.449-1.23-.373-.38-.928-.668-1.543-.798-.615-.131-1.239-.095-1.735.1-.496.196-.823.535-.91.942-.086.407.075.85.449 1.23.373.38.928.667 1.543.798z" clip-path="url(#pcb39cfa11e)" style="fill:#969696"/><path id="patch_111" d="M265.78 180.868c1.433.1 2.817.067 3.847-.093 1.029-.16 1.62-.433 1.643-.76.023-.326-.525-.68-1.522-.98-.997-.303-2.362-.528-3.796-.629-1.433-.1-2.816-.066-3.846.094-1.03.16-1.62.433-1.643.76-.023.326.524.679 1.521.98.998.302 2.363.528 3.796.628z" clip-path="url(#pcb39cfa11e)" style="fill:#969696"/><path id="patch_112" d="M235.724 213.173c1.255.088 2.472-.013 3.383-.28.91-.266 1.44-.677 1.473-1.142.032-.465-.435-.946-1.3-1.336-.864-.391-2.055-.66-3.31-.748-1.256-.088-2.473.013-3.383.28-.91.266-1.44.677-1.473 1.142-.033.465.435.946 1.3 1.337.864.39 2.055.66 3.31.747z" clip-path="url(#pcb39cfa11e)" style="fill:#969696"/><path id="patch_113" d="M123.747 179.252c.807.278 1.664.301 2.383.066.719-.236 1.241-.712 1.452-1.323.21-.61.091-1.307-.33-1.935-.422-.629-1.112-1.138-1.918-1.415-.807-.278-1.664-.302-2.383-.066-.719.236-1.24.711-1.451 1.322-.21.611-.092 1.308.33 1.936.421.628 1.111 1.137 1.917 1.415z" clip-path="url(#pcb39cfa11e)" style="fill:#969696"/><path id="patch_114" d="M103.345 249.394c.21.137.727-.217 1.436-.984.71-.767 1.553-1.884 2.346-3.105.793-1.221 1.47-2.447 1.883-3.407.412-.96.525-1.576.315-1.712-.21-.137-.727.217-1.436.984-.71.767-1.554 1.884-2.347 3.105-.793 1.221-1.47 2.447-1.882 3.407-.412.96-.525 1.576-.315 1.712z" clip-path="url(#pcb39cfa11e)" style="fill:#969696"/><path id="patch_115" d="M166.343 131.579c.694-.049 1.303-.912 1.692-2.4.39-1.487.528-3.477.384-5.532-.144-2.055-.557-4.007-1.15-5.426-.592-1.419-1.316-2.189-2.01-2.14-.694.048-1.303.911-1.692 2.399-.39 1.487-.528 3.478-.384 5.533.144 2.055.558 4.007 1.15 5.426.593 1.419 1.316 2.189 2.01 2.14z" clip-path="url(#pcb39cfa11e)" style="fill:#969696"/><path id="patch_116" d="M194.345 259.16c.985-.173 1.885-.59 2.503-1.16.617-.569.902-1.243.79-1.875-.11-.63-.609-1.167-1.384-1.491-.775-.324-1.764-.408-2.749-.234-.984.173-1.885.59-2.502 1.16-.618.57-.903 1.244-.791 1.875.111.631.61 1.168 1.384 1.491.775.324 1.764.408 2.749.235z" clip-path="url(#pcb39cfa11e)" style="fill:#969696"/><path id="patch_117" d="M217.436 132.195c1.072-.751 1.988-1.633 2.546-2.452.557-.818.71-1.507.426-1.913-.284-.406-.984-.498-1.943-.254-.96.244-2.102.803-3.175 1.554s-1.99 1.633-2.547 2.452c-.557.819-.71 1.507-.426 1.913.285.407.984.498 1.944.254s2.102-.803 3.175-1.554z" clip-path="url(#pcb39cfa11e)" style="fill:#969696"/><path id="patch_118" d="M118.85 192.256a2.531 2.531 0 0 0 1.305-1.414c.23-.624.203-1.31-.076-1.91a2.481 2.481 0 0 0-1.414-1.286 2.531 2.531 0 0 0-1.923.09 2.531 2.531 0 0 0-1.305 1.415 2.48 2.48 0 0 0 1.49 3.196 2.531 2.531 0 0 0 1.923-.09z" clip-path="url(#pcb39cfa11e)" style="fill:#969696"/><path id="patch_119" d="M180.547 236.433c.416.349 1.129.31 1.98-.108.853-.418 1.775-1.18 2.563-2.12.79-.941 1.38-1.981 1.644-2.893.264-.912.178-1.62-.238-1.969s-1.128-.31-1.98.108c-.852.418-1.774 1.18-2.563 2.12-.788.94-1.38 1.981-1.644 2.893-.263.911-.178 1.62.238 1.969z" clip-path="url(#pcb39cfa11e)" style="fill:#969696"/><path id="patch_120" d="M113.639 225.364c.512-.414.911-.925 1.11-1.419.2-.494.182-.931-.048-1.216-.23-.284-.655-.392-1.18-.3-.524.092-1.107.377-1.618.79-.512.415-.911.926-1.11 1.42-.2.494-.182.931.048 1.216.23.284.655.392 1.18.3.524-.092 1.106-.377 1.618-.791z" clip-path="url(#pcb39cfa11e)" style="fill:#969696"/><path id="patch_121" d="M207.864 144.087c.525.457 1.33.548 2.236.255.907-.294 1.842-.948 2.6-1.82.757-.871 1.275-1.889 1.44-2.827.164-.94-.038-1.723-.563-2.18-.525-.456-1.33-.548-2.237-.254-.907.294-1.842.948-2.6 1.82-.757.871-1.275 1.888-1.44 2.827-.164.94.039 1.723.564 2.18z" clip-path="url(#pcb39cfa11e)" style="fill:#969696"/><path id="patch_122" d="M114.657 250.211c.254.146.66.004 1.131-.397.47-.4.966-1.026 1.378-1.739.411-.713.705-1.455.817-2.062.112-.608.032-1.032-.222-1.178-.254-.146-.66-.004-1.13.397-.471.4-.967 1.026-1.378 1.739-.412.713-.706 1.455-.818 2.062-.111.608-.031 1.032.222 1.178z" clip-path="url(#pcb39cfa11e)" style="fill:#969696"/><path id="patch_123" d="M218.67 232.908c.97-.223 1.87-.566 2.503-.951.634-.385.948-.782.874-1.103-.074-.321-.53-.54-1.269-.61-.738-.068-1.697.02-2.667.243-.97.224-1.87.566-2.504.951-.633.386-.947.783-.873 1.104.074.32.53.54 1.269.609.738.068 1.697-.019 2.667-.243z" clip-path="url(#pcb39cfa11e)" style="fill:#969696"/><path id="patch_124" d="M203.484 137.428c.548.244 1.246.09 1.941-.427.695-.518 1.33-1.357 1.764-2.332.434-.976.633-2.01.553-2.872-.08-.862-.434-1.484-.982-1.728s-1.247-.09-1.941.427c-.695.517-1.33 1.356-1.764 2.332-.435.976-.634 2.009-.553 2.871.08.863.434 1.485.982 1.729z" clip-path="url(#pcb39cfa11e)" style="fill:#969696"/><path id="patch_125" d="M150.356 165.412c.548-.233.904-.857.99-1.735.084-.878-.109-1.938-.537-2.947-.428-1.008-1.057-1.884-1.747-2.432-.69-.55-1.387-.727-1.935-.494-.548.233-.904.857-.99 1.735-.084.878.109 1.938.537 2.946.428 1.01 1.057 1.884 1.747 2.433.69.549 1.387.727 1.935.494z" clip-path="url(#pcb39cfa11e)" style="fill:#969696"/><path id="patch_126" d="M192.808 201.084c.842-.015 1.647-.203 2.237-.524.59-.32.917-.747.91-1.185-.008-.44-.35-.854-.951-1.154-.601-.3-1.412-.46-2.254-.445-.842.015-1.647.203-2.237.524-.59.32-.917.747-.91 1.185.008.439.35.854.951 1.154.601.3 1.412.46 2.254.445z" clip-path="url(#pcb39cfa11e)" style="fill:#969696"/><path id="patch_127" d="M179.628 206.185c.525-.074 1.006-.299 1.339-.626.332-.327.488-.729.433-1.117-.054-.389-.315-.732-.725-.955-.41-.223-.934-.306-1.459-.233-.524.074-1.006.3-1.338.626-.332.327-.488.73-.434 1.118.055.388.316.732.725.954.41.223.935.307 1.46.233z" clip-path="url(#pcb39cfa11e)" style="fill:#969696"/><path id="patch_128" d="M143.92 211.752c.146.131.418.111.756-.056.338-.168.714-.469 1.046-.837.332-.369.592-.775.724-1.128.13-.354.122-.627-.024-.758-.146-.132-.418-.112-.756.055-.338.168-.715.47-1.047.838-.331.368-.592.774-.723 1.128-.131.353-.123.626.024.758z" clip-path="url(#pcb39cfa11e)" style="fill:#969696"/><path id="patch_129" d="M230.795 229.597c.965-.084 1.88-.292 2.543-.578.663-.286 1.02-.626.992-.946-.028-.32-.439-.593-1.141-.759-.703-.166-1.64-.212-2.605-.128-.966.085-1.88.293-2.544.578-.663.286-1.02.626-.991.946.028.32.438.593 1.14.76.703.166 1.64.212 2.606.127z" clip-path="url(#pcb39cfa11e)" style="fill:#969696"/><path id="patch_130" d="M219.894 217.702c1.138-.1 2.214-.36 2.993-.723.779-.364 1.196-.802 1.16-1.217-.037-.416-.523-.774-1.354-.998-.83-.223-1.935-.292-3.073-.193-1.138.1-2.214.36-2.993.724-.779.364-1.196.802-1.16 1.217.037.415.523.774 1.354.997.83.224 1.935.293 3.073.193z" clip-path="url(#pcb39cfa11e)" style="fill:#969696"/><path id="patch_131" d="M131.68 216.747c.449-.326.82-.721 1.03-1.1.21-.377.242-.707.09-.915-.151-.209-.475-.28-.9-.197-.424.083-.914.313-1.363.639-.448.326-.818.721-1.028 1.1-.21.377-.243.707-.092.915.152.21.476.28.9.197.424-.083.915-.313 1.363-.639z" clip-path="url(#pcb39cfa11e)" style="fill:#969696"/><path id="patch_132" d="M143.876 176.062c.502.116 1.045-.042 1.51-.439.465-.397.814-1 .97-1.677.156-.676.107-1.372-.137-1.932-.244-.56-.663-.94-1.164-1.056-.502-.116-1.045.042-1.51.439-.465.396-.814 1-.97 1.677-.156.676-.107 1.371.137 1.932.244.56.663.94 1.164 1.056z" clip-path="url(#pcb39cfa11e)" style="fill:#969696"/><path id="patch_133" d="M111.657 249.87c.21.131.588-.028 1.052-.442.465-.414.977-1.048 1.424-1.764.448-.716.794-1.455.962-2.054.168-.599.145-1.009-.064-1.14-.21-.13-.588.029-1.052.442-.465.414-.977 1.049-1.425 1.765-.447.716-.793 1.455-.961 2.054-.169.598-.146 1.008.064 1.14z" clip-path="url(#pcb39cfa11e)" style="fill:#969696"/><path id="patch_134" d="M169.07 122.505c.831.147 1.759-.446 2.577-1.648.818-1.202 1.461-2.915 1.787-4.761.325-1.847.307-3.676-.05-5.085-.359-1.41-1.027-2.284-1.859-2.43-.832-.147-1.759.446-2.577 1.648-.818 1.201-1.461 2.914-1.787 4.76-.325 1.847-.307 3.676.05 5.086.359 1.409 1.027 2.283 1.859 2.43z" clip-path="url(#pcb39cfa11e)" style="fill:#969696"/><g id="text_12" style="fill:#969696" transform="matrix(.14 0 0 -.14 125.486 17.293)"><defs><path id="MyriadPro-Regular-4c" d="M486 0h2400v467H1043v3847H486V0z" transform="scale(.01563)"/><path id="MyriadPro-Regular-75" d="M3059 3098h-563V1197c0-103-19-205-51-288-103-250-365-512-743-512-512 0-691 397-691 985v1716H448V1286C448 198 1030-70 1517-70c550 0 877 326 1024 576h13l32-506h499c-19 243-26 525-26 845v2253z" transform="scale(.01563)"/><path id="MyriadPro-Regular-6f" d="M1779 3168c-857 0-1536-608-1536-1645C243 544 890-70 1728-70c749 0 1542 499 1542 1644 0 948-601 1594-1491 1594zm-13-422c666 0 928-666 928-1191 0-697-403-1203-940-1203-551 0-941 512-941 1190 0 589 288 1204 953 1204z" transform="scale(.01563)"/><path id="MyriadPro-Regular-2d" d="M192 1939v-416h1581v416H192z" transform="scale(.01563)"/><path id="MyriadPro-Regular-52" d="M486 0h557v1869h525c506-19 736-243 864-839 122-537 218-902 288-1030h576c-90 166-192 582-333 1184-102 448-301 755-633 870v20c454 153 812 531 812 1100 0 333-121 628-339 820-269 243-653 352-1248 352-384 0-787-32-1069-90V0zm557 3866c90 25 282 51 551 51 588-7 992-250 992-807 0-492-378-819-973-819h-570v1575z" transform="scale(.01563)"/><path id="MyriadPro-Regular-69" d="M1030 0v3098H467V0h563zM749 4320c-205 0-352-154-352-352 0-192 141-346 339-346 224 0 365 154 358 346 0 198-134 352-345 352z" transform="scale(.01563)"/><path id="MyriadPro-Regular-67" d="M3110 2246c0 378 13 628 26 852h-493l-25-468h-13c-135 256-429 538-967 538-710 0-1395-595-1395-1645C243 666 794 13 1562 13c480 0 812 230 985 518h13V186c0-781-422-1082-998-1082-384 0-704 115-909 243l-141-429c250-166 659-256 1030-256 391 0 826 90 1127 372 301 268 441 704 441 1414v1798zm-556-928c0-96-13-204-45-300-122-359-435-576-781-576-608 0-915 505-915 1113 0 717 384 1171 921 1171 410 0 685-268 788-595 25-77 32-160 32-256v-557z" transform="scale(.01563)"/><path id="MyriadPro-Regular-65" d="M2957 1446c6 58 19 148 19 263 0 569-269 1459-1280 1459-902 0-1453-736-1453-1670C243 563 813-70 1766-70c493 0 832 108 1031 198l-96 403c-211-89-455-160-858-160-563 0-1049 314-1062 1075h2176zM787 1850c45 390 295 915 864 915 634 0 787-557 781-915H787z" transform="scale(.01563)"/><path id="MyriadPro-Regular-6c" d="M467 0h563v4544H467V0z" transform="scale(.01563)"/><path id="MyriadPro-Regular-70" d="M467-1267h557V416h13c185-307 544-486 953-486 730 0 1408 550 1408 1664 0 940-563 1574-1312 1574-505 0-870-224-1100-602h-13l-26 532H442c12-295 25-615 25-1012v-3353zm557 3059c0 77 19 160 38 230 109 423 468 698 852 698 595 0 921-531 921-1152 0-710-345-1197-941-1197-403 0-742 269-844 659-13 71-26 148-26 231v531z" transform="scale(.01563)"/><path id="MyriadPro-Regular-73" d="M250 147C467 19 781-70 1120-70c736 0 1158 390 1158 934 0 461-275 730-812 934-404 154-589 269-589 525 0 231 185 423 518 423 288 0 512-103 634-180l141 410c-173 102-448 192-762 192-666 0-1069-410-1069-909 0-371 263-678 819-877 416-153 576-300 576-569 0-256-192-461-601-461-282 0-576 115-743 224L250 147z" transform="scale(.01563)"/><path id="MyriadPro-Regular-66" d="M1082 0v2669h748v429h-748v166c0 474 121 896 601 896 160 0 275-32 359-70l76 435c-108 45-281 89-480 89-262 0-544-83-755-288-262-249-358-646-358-1081v-147H90v-429h435V0h557z" transform="scale(.01563)"/><path id="MyriadPro-Regular-72" d="M467 0h557v1651c0 96 13 186 26 263 76 422 358 723 755 723 77 0 134-7 192-19v531c-51 13-96 19-160 19-378 0-717-262-858-678h-25l-20 608H442c19-288 25-602 25-967V0z" transform="scale(.01563)"/><path id="MyriadPro-Regular-59" d="M2010 0v1837l1446 2477h-634l-620-1191c-167-326-314-608-436-889h-12c-135 300-263 563-429 889L717 4314H83l1363-2484V0h564z" transform="scale(.01563)"/></defs><use xlink:href="#MyriadPro-Regular-4c"/><use xlink:href="#MyriadPro-Regular-75" x="47.2"/><use xlink:href="#MyriadPro-Regular-6f" x="102.3"/><use xlink:href="#MyriadPro-Regular-2d" x="157.2"/><use xlink:href="#MyriadPro-Regular-52" x="187.9"/><use xlink:href="#MyriadPro-Regular-69" x="241.7"/><use xlink:href="#MyriadPro-Regular-67" x="265.1"/><use xlink:href="#MyriadPro-Regular-67" x="321"/><use xlink:href="#MyriadPro-Regular-20" x="376.9"/><use xlink:href="#MyriadPro-Regular-65" x="398.1"/><use xlink:href="#MyriadPro-Regular-6c" x="448.2"/><use xlink:href="#MyriadPro-Regular-6c" x="471.8"/><use xlink:href="#MyriadPro-Regular-69" x="495.4"/><use xlink:href="#MyriadPro-Regular-70" x="518.8"/><use xlink:href="#MyriadPro-Regular-73" x="575.7"/><use xlink:href="#MyriadPro-Regular-65" x="615.3"/><use xlink:href="#MyriadPro-Regular-73" x="665.4"/><use xlink:href="#MyriadPro-Regular-20" x="705"/><use xlink:href="#MyriadPro-Regular-66" x="726.2"/><use xlink:href="#MyriadPro-Regular-6f" x="755.4"/><use xlink:href="#MyriadPro-Regular-72" x="810.3"/><use xlink:href="#MyriadPro-Regular-20" x="843"/><use xlink:href="#MyriadPro-Regular-78" x="864.2"/><use xlink:href="#MyriadPro-Regular-79" x="910.5"/><use xlink:href="#MyriadPro-Regular-59" x="957.6"/></g></g></g><defs><clipPath id="pcb39cfa11e"><path d="M52.758 57.293h287.095v266.112H52.758z"/></clipPath></defs></svg>