<svg xmlns="http://www.w3.org/2000/svg" xmlns:xlink="http://www.w3.org/1999/xlink" width="473.992" height="508.038" viewBox="0 0 355.494 381.028"><defs><style>*{stroke-linejoin:round;stroke-linecap:butt}</style></defs><g id="figure_1"><path id="patch_1" d="M0 381.028h355.494V0H0v381.028z" style="fill:none"/><g id="axes_1"><path id="patch_2" d="M60.205 323.405h288.09V57.293H60.204v266.112z" style="fill:none"/><g id="matplotlib.axis_1"><g id="xtick_1"><g id="line2d_1"><defs><path id="m2ab44e3448" d="M0 0v3.5" style="stroke:#969696;stroke-width:.4"/></defs><use xlink:href="#m2ab44e3448" x="69.892" y="323.405" style="fill:#969696;stroke:#969696;stroke-width:.4"/></g><g id="text_1" style="fill:#969696" transform="matrix(.14 0 0 -.14 58.539 340.345)"><defs><path id="MyriadPro-Regular-2212" d="M256 1901v-384h3302v384H256z" transform="scale(.01563)"/><path id="MyriadPro-Regular-34" d="M2560 0v1133h582v441h-582v2586h-608L96 1504v-371h1933V0h531zM666 1574v13l1017 1415c115 192 218 371 346 614h19c-13-218-19-435-19-653V1574H666z" transform="scale(.01563)"/><path id="MyriadPro-Regular-30" d="M1677 4230c-845 0-1447-768-1447-2163C243 691 794-70 1606-70c922 0 1447 780 1447 2195 0 1325-499 2105-1376 2105zm-32-435c582 0 845-672 845-1696 0-1062-276-1734-852-1734-512 0-844 614-844 1696 0 1133 358 1734 851 1734z" transform="scale(.01563)"/></defs><use xlink:href="#MyriadPro-Regular-2212"/><use xlink:href="#MyriadPro-Regular-34" x="59.6"/><use xlink:href="#MyriadPro-Regular-30" x="110.9"/></g></g><g id="xtick_2"><use xlink:href="#m2ab44e3448" id="line2d_2" x="128.051" y="323.405" style="fill:#969696;stroke:#969696;stroke-width:.4"/><g id="text_2" style="fill:#969696" transform="matrix(.14 0 0 -.14 116.698 340.345)"><defs><path id="MyriadPro-Regular-32" d="M2944 0v467H1075v13l333 307c877 845 1434 1466 1434 2234 0 595-378 1209-1274 1209-480 0-890-179-1178-422l180-397c192 160 505 352 883 352 621 0 825-390 825-813-6-627-486-1164-1548-2176L288 346V0h2656z" transform="scale(.01563)"/></defs><use xlink:href="#MyriadPro-Regular-2212"/><use xlink:href="#MyriadPro-Regular-32" x="59.6"/><use xlink:href="#MyriadPro-Regular-30" x="110.9"/></g></g><g id="xtick_3"><use xlink:href="#m2ab44e3448" id="line2d_3" x="186.209" y="323.405" style="fill:#969696;stroke:#969696;stroke-width:.4"/><use xlink:href="#MyriadPro-Regular-30" id="text_3" style="fill:#969696" transform="matrix(.14 0 0 -.14 182.619 340.345)"/></g><g id="xtick_4"><use xlink:href="#m2ab44e3448" id="line2d_4" x="244.368" y="323.405" style="fill:#969696;stroke:#969696;stroke-width:.4"/><g id="text_4" style="fill:#969696" transform="matrix(.14 0 0 -.14 237.187 340.345)"><use xlink:href="#MyriadPro-Regular-32"/><use xlink:href="#MyriadPro-Regular-30" x="51.3"/></g></g><g id="xtick_5"><use xlink:href="#m2ab44e3448" id="line2d_5" x="302.527" y="323.405" style="fill:#969696;stroke:#969696;stroke-width:.4"/><g id="text_5" style="fill:#969696" transform="matrix(.14 0 0 -.14 295.346 340.345)"><use xlink:href="#MyriadPro-Regular-34"/><use xlink:href="#MyriadPro-Regular-30" x="51.3"/></g></g><g id="text_6" style="fill:#969696" transform="matrix(.14 0 0 -.14 199.56 371.057)"><defs><path id="MyriadPro-Regular-61" d="M2643 1901c0 621-230 1267-1177 1267-391 0-762-109-1018-275l128-371c218 140 518 230 806 230 634 0 704-461 704-717v-64C890 1978 224 1568 224 819c0-448 320-889 947-889 442 0 775 217 947 460h20l44-390h512c-38 211-51 474-51 742v1159zm-544-858c0-57-13-121-32-179-89-262-345-518-749-518-288 0-531 172-531 537 0 602 698 711 1312 698v-538z" transform="scale(.01563)"/><path id="MyriadPro-Regular-27" d="m326 4429 103-1536h345l109 1536H326z" transform="scale(.01563)"/></defs><use xlink:href="#MyriadPro-Regular-61"/><use xlink:href="#MyriadPro-Regular-27" x="48.2"/></g></g><g id="matplotlib.axis_2"><g id="ytick_1"><g id="line2d_6"><defs><path id="m92f01c6909" d="M0 0h-3.5" style="stroke:#969696;stroke-width:.3"/></defs><use xlink:href="#m92f01c6909" x="60.205" y="321.593" style="fill:#969696;stroke:#969696;stroke-width:.3"/></g><g id="text_7" style="fill:#969696" transform="matrix(.14 0 0 -.14 30.5 326.563)"><use xlink:href="#MyriadPro-Regular-2212"/><use xlink:href="#MyriadPro-Regular-34" x="59.6"/><use xlink:href="#MyriadPro-Regular-30" x="110.9"/></g></g><g id="ytick_2"><use xlink:href="#m92f01c6909" id="line2d_7" x="60.205" y="263.434" style="fill:#969696;stroke:#969696;stroke-width:.3"/><g id="text_8" style="fill:#969696" transform="matrix(.14 0 0 -.14 30.5 268.404)"><use xlink:href="#MyriadPro-Regular-2212"/><use xlink:href="#MyriadPro-Regular-32" x="59.6"/><use xlink:href="#MyriadPro-Regular-30" x="110.9"/></g></g><g id="ytick_3"><use xlink:href="#m92f01c6909" id="line2d_8" x="60.205" y="205.275" style="fill:#969696;stroke:#969696;stroke-width:.3"/><use xlink:href="#MyriadPro-Regular-30" id="text_9" style="fill:#969696" transform="matrix(.14 0 0 -.14 46.024 210.245)"/></g><g id="ytick_4"><use xlink:href="#m92f01c6909" id="line2d_9" x="60.205" y="147.116" style="fill:#969696;stroke:#969696;stroke-width:.3"/><g id="text_10" style="fill:#969696" transform="matrix(.14 0 0 -.14 38.842 152.086)"><use xlink:href="#MyriadPro-Regular-32"/><use xlink:href="#MyriadPro-Regular-30" x="51.3"/></g></g><g id="ytick_5"><use xlink:href="#m92f01c6909" id="line2d_10" x="60.205" y="88.958" style="fill:#969696;stroke:#969696;stroke-width:.3"/><g id="text_11" style="fill:#969696" transform="matrix(.14 0 0 -.14 38.842 93.928)"><use xlink:href="#MyriadPro-Regular-34"/><use xlink:href="#MyriadPro-Regular-30" x="51.3"/></g></g><g id="text_12" style="fill:#969696" transform="matrix(.14 0 0 -.14 7.2 187.578)"><defs><path id="MyriadPro-Regular-62" d="M467 800c0-275-13-589-25-800h486l26 512h19c230-410 589-582 1037-582 691 0 1388 550 1388 1657 7 941-537 1581-1305 1581-499 0-858-224-1056-570h-13v1946H467V800zm557 998c0 90 19 167 32 231 115 429 474 691 858 691 601 0 921-531 921-1152 0-710-352-1190-941-1190-409 0-736 268-844 659-13 64-26 134-26 205v556z" transform="scale(.01563)"/></defs><use xlink:href="#MyriadPro-Regular-62"/><use xlink:href="#MyriadPro-Regular-27" x="56.9"/></g></g><path id="patch_3" d="M146.55 283.392c.29-.153.386-.65.264-1.38-.121-.732-.45-1.638-.913-2.52-.462-.881-1.022-1.666-1.554-2.182-.533-.515-.996-.72-1.287-.567-.29.153-.385.65-.264 1.38.122.732.45 1.638.913 2.52.463.882 1.022 1.667 1.555 2.182.533.515.996.72 1.286.567z" clip-path="url(#p8874b97f0e)" style="fill:#969696"/><path id="patch_4" d="M183.687 97.932c.83-.86 1.339-1.963 1.415-3.063.077-1.1-.286-2.11-1.008-2.805-.721-.696-1.743-1.021-2.84-.904-1.097.116-2.18.666-3.009 1.526-.83.861-1.339 1.963-1.415 3.063-.077 1.1.286 2.11 1.008 2.806.721.695 1.743 1.02 2.84.904 1.097-.117 2.18-.666 3.01-1.527z" clip-path="url(#p8874b97f0e)" style="fill:#969696"/><path id="patch_5" d="M253.02 200.622c.76.225 1.566.187 2.239-.107.672-.294 1.157-.82 1.347-1.46.19-.641.069-1.346-.335-1.958-.405-.613-1.06-1.084-1.82-1.309-.762-.225-1.568-.187-2.24.107-.672.294-1.157.82-1.347 1.46-.19.641-.069 1.346.335 1.958.404.613 1.06 1.084 1.82 1.309z" clip-path="url(#p8874b97f0e)" style="fill:#969696"/><path id="patch_6" d="M142.11 204.26c.327-.22.545-.575.605-.985.06-.41-.043-.843-.285-1.203a1.723 1.723 0 0 0-1.008-.716 1.423 1.423 0 0 0-1.14.19c-.328.22-.546.575-.606.986-.06.41.043.843.285 1.203.243.36.605.617 1.008.716.403.099.814.03 1.14-.19z" clip-path="url(#p8874b97f0e)" style="fill:#969696"/><path id="patch_7" d="M234.52 228.967c.591-.39 1.027-.962 1.213-1.589.186-.626.106-1.257-.222-1.753-.327-.495-.876-.816-1.526-.89-.65-.074-1.346.103-1.936.494-.59.39-1.027.962-1.213 1.588-.185.627-.106 1.257.222 1.753s.877.816 1.526.89c.65.075 1.346-.103 1.937-.493z" clip-path="url(#p8874b97f0e)" style="fill:#969696"/><path id="patch_8" d="M178.269 228.634c.486-.397.774-.997.798-1.67.025-.672-.215-1.362-.666-1.916-.452-.555-1.079-.93-1.742-1.042-.664-.113-1.31.047-1.797.443-.486.396-.774.997-.798 1.67-.025.672.215 1.361.666 1.916.452.555 1.079.93 1.742 1.042.664.112 1.31-.047 1.797-.443z" clip-path="url(#p8874b97f0e)" style="fill:#969696"/><path id="patch_9" d="M174.412 199.507c.496.418 1.228.515 2.035.27.807-.245 1.623-.813 2.268-1.578.645-.765 1.066-1.665 1.171-2.502.105-.837-.115-1.542-.61-1.96-.497-.418-1.23-.516-2.036-.27-.807.245-1.623.813-2.268 1.578-.645.765-1.066 1.665-1.171 2.502-.105.837.115 1.542.61 1.96z" clip-path="url(#p8874b97f0e)" style="fill:#969696"/><path id="patch_10" d="M286.771 156.415c.538.338 1.329.224 2.199-.317.87-.54 1.75-1.464 2.443-2.566.693-1.103 1.145-2.295 1.255-3.313.11-1.019-.13-1.781-.666-2.12-.538-.337-1.329-.223-2.2.317-.87.541-1.748 1.464-2.442 2.567-.693 1.102-1.145 2.294-1.255 3.313-.11 1.018.129 1.78.666 2.119z" clip-path="url(#p8874b97f0e)" style="fill:#969696"/><path id="patch_11" d="M125.174 154.482c.67-.323 1.135-1 1.292-1.885.158-.885-.004-1.903-.451-2.832-.447-.928-1.142-1.69-1.931-2.119-.79-.428-1.61-.488-2.28-.166-.67.323-1.135 1-1.293 1.885-.157.885.005 1.903.452 2.832.447.928 1.141 1.69 1.93 2.12.79.428 1.61.487 2.28.165z" clip-path="url(#p8874b97f0e)" style="fill:#969696"/><path id="patch_12" d="M147.727 130.508c.624-.163 1.115-.728 1.365-1.573.251-.844.24-1.898-.028-2.93-.269-1.03-.774-1.955-1.405-2.57-.63-.614-1.335-.869-1.958-.706-.624.162-1.115.728-1.365 1.572-.251.844-.24 1.898.028 2.93.269 1.031.774 1.956 1.405 2.57.63.615 1.335.869 1.958.707z" clip-path="url(#p8874b97f0e)" style="fill:#969696"/><path id="patch_13" d="M138.85 149.524c.466-.355.715-.956.692-1.67-.024-.713-.317-1.481-.815-2.135-.499-.655-1.162-1.14-1.844-1.352-.682-.212-1.327-.131-1.793.224-.466.355-.714.955-.691 1.67.023.713.316 1.481.815 2.135.498.654 1.161 1.14 1.843 1.352.682.212 1.327.131 1.793-.224z" clip-path="url(#p8874b97f0e)" style="fill:#969696"/><path id="patch_14" d="M168.525 176.315c.49-.197.84-.682.973-1.348.133-.667.04-1.46-.26-2.205-.3-.745-.783-1.382-1.34-1.77-.559-.387-1.147-.494-1.636-.297-.489.197-.839.681-.972 1.348-.134.666-.04 1.459.26 2.204.3.745.782 1.382 1.34 1.77.558.387 1.146.495 1.635.298z" clip-path="url(#p8874b97f0e)" style="fill:#969696"/><path id="patch_15" d="M164.112 147.228c.542-.11.99-.576 1.243-1.294.253-.718.292-1.631.109-2.537-.184-.905-.576-1.73-1.09-2.293-.513-.563-1.106-.817-1.648-.707-.543.11-.99.575-1.243 1.294-.254.718-.293 1.63-.11 2.536.184.906.576 1.73 1.09 2.294.513.562 1.106.817 1.649.707z" clip-path="url(#p8874b97f0e)" style="fill:#969696"/><path id="patch_16" d="M131.124 201.435c.511.03 1.016-.195 1.404-.625.387-.429.626-1.028.663-1.665.037-.637-.13-1.26-.466-1.732-.335-.471-.81-.753-1.322-.782-.51-.03-1.015.194-1.403.624-.388.43-.626 1.029-.663 1.666-.037.637.13 1.26.466 1.731.335.472.81.753 1.321.783z" clip-path="url(#p8874b97f0e)" style="fill:#969696"/><path id="patch_17" d="M114.713 220.835c.527.316 1.187.363 1.833.13.647-.234 1.228-.728 1.616-1.374.388-.646.55-1.391.451-2.072-.098-.68-.45-1.24-.977-1.556-.526-.316-1.186-.363-1.833-.13-.646.234-1.227.728-1.615 1.374-.388.646-.55 1.391-.452 2.072.099.68.45 1.24.977 1.556z" clip-path="url(#p8874b97f0e)" style="fill:#969696"/><path id="patch_18" d="M124.82 224.56c.637-.236 1.179-.648 1.506-1.145.328-.498.415-1.04.241-1.51-.173-.468-.592-.824-1.164-.99-.572-.164-1.251-.125-1.888.11-.636.235-1.178.647-1.505 1.144-.328.498-.415 1.04-.242 1.51.173.468.592.824 1.165.99.572.164 1.251.125 1.888-.11z" clip-path="url(#p8874b97f0e)" style="fill:#969696"/><path id="patch_19" d="M131.252 240.324c.527-.353.865-.943.938-1.64.074-.697-.123-1.444-.546-2.077-.424-.632-1.04-1.098-1.712-1.296-.672-.198-1.346-.11-1.873.243-.528.353-.865.943-.939 1.64-.073.696.123 1.443.547 2.076.423.632 1.039 1.099 1.711 1.296.673.198 1.347.11 1.874-.242z" clip-path="url(#p8874b97f0e)" style="fill:#969696"/><path id="patch_20" d="M144.385 225.327c.42.146.918.01 1.385-.378.467-.388.865-.996 1.107-1.69.241-.694.306-1.418.181-2.012-.126-.594-.432-1.01-.85-1.156-.42-.145-.918-.01-1.385.378-.467.388-.865.996-1.107 1.69-.242.695-.307 1.418-.181 2.013.125.594.431 1.01.85 1.155z" clip-path="url(#p8874b97f0e)" style="fill:#969696"/><path id="patch_21" d="M169.924 232.826c.557.03 1.107-.234 1.53-.737.423-.502.683-1.201.724-1.943.041-.741-.14-1.465-.505-2.01-.364-.547-.882-.871-1.439-.902-.556-.031-1.107.234-1.53.736-.422.503-.683 1.202-.724 1.943-.041.742.14 1.465.505 2.011s.882.87 1.439.902z" clip-path="url(#p8874b97f0e)" style="fill:#969696"/><path id="patch_22" d="M191.37 223.682c.532.427 1.3.518 2.132.252.834-.266 1.665-.867 2.31-1.67.647-.804 1.055-1.745 1.135-2.616.08-.87-.173-1.6-.705-2.028-.532-.428-1.3-.519-2.132-.253-.833.266-1.665.867-2.31 1.671-.647.804-1.055 1.745-1.135 2.616-.08.87.173 1.6.705 2.028z" clip-path="url(#p8874b97f0e)" style="fill:#969696"/><path id="patch_23" d="M204.087 190.326a2.543 2.543 0 0 0 1.393-1.08c.3-.499.375-1.066.208-1.578s-.562-.926-1.099-1.151a2.543 2.543 0 0 0-1.761-.051 2.543 2.543 0 0 0-1.393 1.08c-.3.498-.375 1.066-.208 1.577.167.512.562.926 1.099 1.152.536.225 1.17.244 1.761.05z" clip-path="url(#p8874b97f0e)" style="fill:#969696"/><path id="patch_24" d="M189.426 171.935a2.067 2.067 0 0 0 1.478-.711 2.317 2.317 0 0 0 .565-1.611 2.317 2.317 0 0 0-.678-1.567 2.067 2.067 0 0 0-1.525-.605 2.067 2.067 0 0 0-1.478.712 2.317 2.317 0 0 0-.565 1.61c.02.596.265 1.16.678 1.567.413.407.961.625 1.525.605z" clip-path="url(#p8874b97f0e)" style="fill:#969696"/><path id="patch_25" d="M230.717 178.396c.968-.25 1.843-.698 2.431-1.244.59-.547.844-1.147.709-1.67-.135-.523-.65-.925-1.43-1.117-.779-.193-1.76-.16-2.729.09-.967.25-1.842.698-2.43 1.244-.59.547-.845 1.147-.71 1.67.136.523.65.924 1.43 1.117.78.193 1.762.16 2.73-.09z" clip-path="url(#p8874b97f0e)" style="fill:#969696"/><path id="patch_26" d="M221.412 198.674c.777-.21 1.454-.665 1.882-1.267.428-.601.57-1.299.398-1.94-.173-.64-.648-1.172-1.32-1.477-.672-.305-1.486-.358-2.264-.149-.777.21-1.455.666-1.882 1.267-.428.602-.571 1.3-.398 1.94.173.642.647 1.173 1.32 1.478.672.305 1.486.358 2.264.148z" clip-path="url(#p8874b97f0e)" style="fill:#969696"/><path id="patch_27" d="M206.447 160.432c.488-.463.84-1.03.976-1.578.137-.547.049-1.028-.246-1.339-.294-.31-.77-.424-1.324-.316-.554.108-1.139.429-1.627.892-.489.463-.84 1.03-.977 1.578-.137.547-.048 1.029.246 1.34.295.31.771.423 1.325.315.553-.108 1.138-.429 1.627-.892z" clip-path="url(#p8874b97f0e)" style="fill:#969696"/><path id="patch_28" d="M214.941 128.446c.59.196 1.263.057 1.873-.386.61-.442 1.107-1.154 1.381-1.976.274-.823.303-1.69.08-2.41-.222-.72-.678-1.236-1.267-1.432-.589-.196-1.262-.057-1.873.385-.61.443-1.107 1.154-1.38 1.977-.275.823-.304 1.69-.081 2.41.222.72.678 1.236 1.267 1.432z" clip-path="url(#p8874b97f0e)" style="fill:#969696"/><path id="patch_29" d="M181.767 125.133c.597-.04 1.135-.608 1.494-1.576.36-.968.51-2.26.42-3.589-.09-1.329-.413-2.588-.9-3.499-.485-.911-1.094-1.4-1.692-1.36-.598.04-1.136.607-1.495 1.576-.359.968-.51 2.259-.42 3.588.09 1.33.413 2.588.9 3.5.486.91 1.095 1.4 1.693 1.36z" clip-path="url(#p8874b97f0e)" style="fill:#969696"/><path id="patch_30" d="M237.118 158.679c1.09-.54 2.055-1.22 2.683-1.891.628-.671.867-1.278.664-1.687-.202-.41-.83-.587-1.744-.495-.914.093-2.04.448-3.13.988-1.09.54-2.056 1.22-2.684 1.89-.627.672-.866 1.278-.664 1.687.203.41.83.587 1.744.495.914-.092 2.04-.448 3.13-.987z" clip-path="url(#p8874b97f0e)" style="fill:#969696"/><path id="patch_31" d="M104.732 202.59c.952.244 1.91.305 2.662.17.753-.137 1.239-.458 1.351-.894.112-.437-.159-.953-.753-1.434-.594-.482-1.463-.89-2.415-1.134-.953-.244-1.91-.306-2.663-.17-.753.136-1.239.457-1.35.894-.113.436.158.952.752 1.433.594.482 1.463.89 2.416 1.134z" clip-path="url(#p8874b97f0e)" style="fill:#969696"/><path id="patch_32" d="M119.254 260.775c.411.307.922.446 1.418.388.496-.059.938-.31 1.228-.7.29-.39.405-.884.319-1.377a1.994 1.994 0 0 0-.778-1.248 1.994 1.994 0 0 0-1.418-.387c-.496.058-.938.31-1.228.7a1.78 1.78 0 0 0-.319 1.376c.086.493.366.942.778 1.248z" clip-path="url(#p8874b97f0e)" style="fill:#969696"/><path id="patch_33" d="M189.84 286.54c.698.631 1.477 1.114 2.166 1.344.689.23 1.23.187 1.506-.119.276-.305.263-.849-.036-1.51-.299-.662-.859-1.388-1.557-2.018-.698-.63-1.477-1.113-2.166-1.343-.689-.23-1.23-.187-1.506.119-.276.305-.263.849.036 1.51.299.662.859 1.388 1.557 2.018z" clip-path="url(#p8874b97f0e)" style="fill:#969696"/><path id="patch_34" d="M203.976 271.592c.675.58 1.421 1.024 2.074 1.231.652.208 1.157.163 1.404-.124.247-.287.216-.793-.087-1.407s-.853-1.285-1.528-1.866c-.676-.581-1.422-1.024-2.074-1.232-.652-.207-1.157-.163-1.404.125-.247.287-.216.793.087 1.407s.853 1.285 1.528 1.866z" clip-path="url(#p8874b97f0e)" style="fill:#969696"/><path id="patch_35" d="M281.046 181.1c1.062-.318 2.018-.833 2.657-1.431.64-.598.91-1.23.751-1.758-.158-.528-.732-.908-1.594-1.056-.863-.148-1.945-.052-3.007.266-1.062.319-2.018.834-2.657 1.432-.64.598-.91 1.23-.752 1.758.158.528.732.907 1.595 1.055.863.148 1.944.053 3.007-.266z" clip-path="url(#p8874b97f0e)" style="fill:#969696"/><path id="patch_36" d="M146.918 230.223c.427.16.94.039 1.426-.339.486-.377.906-.979 1.167-1.673.26-.693.341-1.423.224-2.027-.118-.604-.424-1.034-.85-1.194-.428-.16-.94-.039-1.427.339-.486.377-.906.979-1.167 1.673-.26.693-.341 1.423-.223 2.027.117.604.423 1.034.85 1.194z" clip-path="url(#p8874b97f0e)" style="fill:#969696"/><path id="patch_37" d="M141.25 235.33c.523-.084 1.003-.306 1.333-.619.33-.312.483-.689.426-1.047-.057-.358-.32-.668-.73-.863-.412-.194-.937-.256-1.46-.172-.524.083-1.004.306-1.334.618-.33.313-.483.69-.426 1.048.057.358.32.668.731.862.41.194.936.256 1.46.173z" clip-path="url(#p8874b97f0e)" style="fill:#969696"/><path id="patch_38" d="M171.067 228.043c.29.338.723.528 1.205.528.482 0 .973-.188 1.366-.525.392-.337.653-.794.726-1.27.073-.477-.05-.934-.339-1.271-.29-.338-.723-.528-1.205-.528-.482 0-.973.188-1.366.525a2.121 2.121 0 0 0-.726 1.27c-.073.477.05.934.339 1.271z" clip-path="url(#p8874b97f0e)" style="fill:#969696"/><path id="patch_39" d="M217.698 191.682c.52-.403.922-.914 1.118-1.42.196-.508.169-.969-.074-1.283-.244-.314-.683-.454-1.223-.391s-1.135.325-1.655.728c-.52.403-.922.914-1.118 1.421-.195.507-.169.968.075 1.282.243.314.683.455 1.222.392.54-.064 1.136-.326 1.655-.729z" clip-path="url(#p8874b97f0e)" style="fill:#969696"/><path id="patch_40" d="M169.244 221.419c-.191-.227-.487-.35-.822-.343a1.575 1.575 0 0 0-.963.383 1.575 1.575 0 0 0-.539.885c-.063.33.009.641.2.869.192.227.488.35.823.342.335-.007.681-.145.963-.383.281-.238.475-.556.539-.885.063-.329-.009-.64-.2-.868z" clip-path="url(#p8874b97f0e)" style="fill:#969696"/><path id="patch_41" d="M165.82 230.121c.923-.127 1.765-.561 2.342-1.208.576-.647.84-1.453.731-2.242-.108-.788-.579-1.493-1.308-1.96-.73-.468-1.658-.66-2.582-.533-.923.127-1.766.561-2.342 1.208-.577.647-.84 1.453-.732 2.242.108.788.579 1.493 1.308 1.96.73.468 1.659.66 2.582.533z" clip-path="url(#p8874b97f0e)" style="fill:#969696"/><path id="patch_42" d="M145.225 241.668c.415-.353.596-.946.504-1.647-.092-.702-.45-1.455-.994-2.094-.544-.64-1.231-1.112-1.91-1.315-.677-.202-1.291-.118-1.705.235-.415.353-.596.946-.504 1.647.092.702.45 1.455.994 2.094.544.64 1.231 1.112 1.91 1.315.677.202 1.29.118 1.705-.235z" clip-path="url(#p8874b97f0e)" style="fill:#969696"/><path id="patch_43" d="M118.814 212.494c.833.064 1.648-.074 2.265-.385.616-.311.985-.769 1.024-1.273.039-.504-.255-1.013-.816-1.416-.562-.402-1.346-.664-2.18-.728-.832-.065-1.647.074-2.264.385-.617.31-.985.769-1.024 1.273-.04.504.254 1.013.816 1.415.562.402 1.345.664 2.179.729z" clip-path="url(#p8874b97f0e)" style="fill:#969696"/><path id="patch_44" d="M120.631 232.657c.554-.27 1.023-.66 1.301-1.083.28-.423.346-.846.186-1.175-.16-.33-.534-.537-1.04-.58-.505-.041-1.1.087-1.655.357-.554.27-1.022.66-1.3 1.083-.28.423-.346.846-.186 1.175.16.329.534.537 1.04.579.504.042 1.1-.086 1.654-.356z" clip-path="url(#p8874b97f0e)" style="fill:#969696"/><path id="patch_45" d="M101.014 168.478c.82.227 1.673.206 2.37-.057.697-.264 1.183-.75 1.349-1.35.166-.6 0-1.266-.463-1.85-.462-.586-1.183-1.042-2.003-1.269-.82-.227-1.672-.206-2.37.058-.697.264-1.182.75-1.348 1.35-.166.6 0 1.265.462 1.85.463.585 1.183 1.041 2.003 1.268z" clip-path="url(#p8874b97f0e)" style="fill:#969696"/><path id="patch_46" d="M172.987 206.553c.638.24 1.457-.08 2.277-.891.82-.81 1.574-2.046 2.096-3.432.522-1.387.77-2.812.687-3.963-.082-1.15-.486-1.931-1.124-2.171-.638-.24-1.457.08-2.277.891-.82.81-1.574 2.046-2.096 3.432-.522 1.387-.77 2.812-.687 3.963.082 1.15.486 1.931 1.124 2.171z" clip-path="url(#p8874b97f0e)" style="fill:#969696"/><path id="patch_47" d="M186.424 251.863c.476-.226.805-.71.915-1.347.11-.637-.007-1.374-.327-2.05-.32-.675-.816-1.233-1.38-1.55-.562-.318-1.146-.37-1.622-.144-.476.225-.805.71-.916 1.347-.11.637.008 1.374.328 2.05.32.674.816 1.232 1.379 1.55.563.318 1.146.37 1.623.144z" clip-path="url(#p8874b97f0e)" style="fill:#969696"/><path id="patch_48" d="M242.621 244.368c.472-.45.705-1.11.648-1.838-.057-.727-.4-1.461-.951-2.04-.552-.58-1.27-.956-1.993-1.047-.724-.092-1.395.11-1.867.559-.471.45-.704 1.11-.647 1.838.056.728.399 1.462.95 2.04.553.58 1.27.956 1.994 1.048.723.091 1.395-.11 1.866-.56z" clip-path="url(#p8874b97f0e)" style="fill:#969696"/><path id="patch_49" d="M241.316 233.357c.665-.113 1.247-.55 1.618-1.215.37-.664.5-1.502.359-2.328-.141-.827-.54-1.575-1.11-2.079-.57-.504-1.264-.724-1.93-.61-.664.113-1.246.55-1.617 1.215-.37.664-.5 1.502-.359 2.328.14.827.54 1.575 1.11 2.079.57.504 1.264.724 1.929.61z" clip-path="url(#p8874b97f0e)" style="fill:#969696"/><path id="patch_50" d="M239.652 233.066c.6.24 1.294.174 1.931-.186s1.163-.983 1.464-1.732c.3-.75.35-1.564.138-2.263-.211-.7-.667-1.229-1.267-1.47-.6-.24-1.295-.173-1.932.187-.636.36-1.163.983-1.463 1.732-.3.75-.35 1.564-.139 2.263.212.7.668 1.229 1.268 1.47z" clip-path="url(#p8874b97f0e)" style="fill:#969696"/><path id="patch_51" d="M263.315 146.29c1.239-.317 2.364-.867 3.128-1.528.765-.661 1.105-1.38.947-1.996-.158-.617-.803-1.083-1.79-1.294-.989-.212-2.24-.152-3.479.166-1.24.318-2.365.868-3.129 1.529-.764.66-1.105 1.379-.946 1.996.158.617.802 1.082 1.79 1.294.988.212 2.24.152 3.479-.166z" clip-path="url(#p8874b97f0e)" style="fill:#969696"/><path id="patch_52" d="M173.105 211.975a2.53 2.53 0 0 0-1.527-.89c-.579-.091-1.14.054-1.559.404-.419.35-.662.875-.676 1.46a2.53 2.53 0 0 0 .602 1.663c.4.479.949.799 1.528.89.578.091 1.139-.054 1.558-.404.42-.35.662-.875.676-1.46a2.53 2.53 0 0 0-.602-1.663z" clip-path="url(#p8874b97f0e)" style="fill:#969696"/><path id="patch_53" d="M114.977 267.004c.472-.004.922-.393 1.25-1.08.328-.688.508-1.619.5-2.587-.01-.969-.205-1.896-.546-2.578-.34-.682-.797-1.063-1.27-1.058-.472.004-.922.393-1.25 1.08-.328.688-.508 1.619-.5 2.587.01.969.206 1.896.546 2.578.34.682.797 1.063 1.27 1.058z" clip-path="url(#p8874b97f0e)" style="fill:#969696"/><path id="patch_54" d="M130.826 169.299c1 .004 1.96-.26 2.67-.735.708-.475 1.108-1.122 1.11-1.798.004-.676-.39-1.326-1.096-1.807-.705-.48-1.662-.753-2.662-.757-1-.004-1.96.26-2.669.735-.709.475-1.109 1.121-1.111 1.797-.003.676.391 1.326 1.096 1.807.705.481 1.663.754 2.662.758z" clip-path="url(#p8874b97f0e)" style="fill:#969696"/><path id="patch_55" d="M137.032 242.051c.643-.261 1.196-.67 1.536-1.136.34-.466.44-.952.28-1.35-.163-.398-.573-.675-1.142-.772-.57-.097-1.25-.004-1.893.257s-1.196.67-1.536 1.136c-.34.466-.44.952-.28 1.35.162.398.573.676 1.142.772.57.097 1.25.004 1.893-.257z" clip-path="url(#p8874b97f0e)" style="fill:#969696"/><path id="patch_56" d="M169.319 106.053c.741-.18 1.372-.684 1.754-1.4.381-.716.482-1.585.28-2.417-.203-.832-.692-1.558-1.36-2.018-.667-.46-1.459-.618-2.2-.437-.743.18-1.374.684-1.755 1.4-.381.715-.482 1.585-.28 2.416.203.832.692 1.558 1.36 2.019.667.46 1.459.617 2.2.437z" clip-path="url(#p8874b97f0e)" style="fill:#969696"/><path id="patch_57" d="M107.103 248.055c.428.103.902-.065 1.319-.465.416-.4.74-1.002.9-1.67.162-.67.146-1.353-.043-1.898-.188-.546-.535-.91-.963-1.014-.427-.102-.901.065-1.318.465-.416.4-.74 1.002-.9 1.671-.162.67-.146 1.352.043 1.898.188.546.535.91.962 1.013z" clip-path="url(#p8874b97f0e)" style="fill:#969696"/><path id="patch_58" d="M180.005 279.956c.846.59 1.745 1.032 2.499 1.228.753.195 1.299.129 1.518-.185.218-.313.092-.849-.352-1.488-.445-.64-1.17-1.33-2.016-1.92-.847-.59-1.746-1.032-2.5-1.227-.753-.196-1.299-.13-1.518.184-.218.314-.092.85.353 1.488.444.64 1.169 1.33 2.016 1.92z" clip-path="url(#p8874b97f0e)" style="fill:#969696"/><path id="patch_59" d="M299.054 205.1c.7.062 1.389-.07 1.914-.365.525-.295.843-.73.884-1.208.042-.478-.197-.96-.663-1.342-.466-.38-1.121-.629-1.822-.69-.7-.06-1.39.07-1.914.366-.525.295-.843.73-.884 1.207-.042.479.197.961.663 1.342.466.382 1.121.63 1.822.69z" clip-path="url(#p8874b97f0e)" style="fill:#969696"/><path id="patch_60" d="M127.03 252.725c.76-.049 1.475-.278 1.99-.637.515-.36.788-.819.758-1.277-.03-.459-.36-.88-.917-1.169-.557-.29-1.296-.424-2.055-.375-.758.05-1.474.279-1.989.638-.515.359-.788.818-.758 1.277.03.459.36.879.917 1.168.557.29 1.296.425 2.055.375z" clip-path="url(#p8874b97f0e)" style="fill:#969696"/><path id="patch_61" d="M118.205 163.82a3.018 3.018 0 0 0 1.88-1.11 2.55 2.55 0 0 0 .519-1.992 2.552 2.552 0 0 0-1.149-1.709 3.018 3.018 0 0 0-2.142-.423 3.018 3.018 0 0 0-1.881 1.109 2.552 2.552 0 0 0-.518 1.993 2.552 2.552 0 0 0 1.148 1.708c.617.4 1.388.553 2.143.424z" clip-path="url(#p8874b97f0e)" style="fill:#969696"/><path id="patch_62" d="M279.833 150.315c.576.49 1.436.6 2.39.305.953-.295 1.923-.97 2.695-1.878.772-.908 1.284-1.973 1.423-2.962.138-.988-.108-1.819-.684-2.31-.576-.49-1.435-.6-2.389-.304-.954.295-1.923.97-2.696 1.878-.772.907-1.284 1.972-1.422 2.96-.139.99.107 1.82.683 2.31z" clip-path="url(#p8874b97f0e)" style="fill:#969696"/><path id="patch_63" d="M254.548 137.355c.767.605 1.655.992 2.468 1.077.813.085 1.484-.14 1.866-.624.382-.484.443-1.19.17-1.96-.272-.77-.856-1.543-1.624-2.148-.767-.604-1.655-.992-2.468-1.077-.812-.085-1.483.14-1.865.624-.382.485-.444 1.19-.171 1.96.272.77.857 1.543 1.624 2.148z" clip-path="url(#p8874b97f0e)" style="fill:#969696"/><path id="patch_64" d="M106.767 149.419c1.118.434 2.318.522 3.335.245 1.018-.277 1.77-.896 2.09-1.722.32-.825.183-1.79-.381-2.68-.564-.89-1.51-1.635-2.628-2.069-1.118-.434-2.318-.522-3.336-.246-1.017.277-1.769.897-2.089 1.722-.32.826-.183 1.79.38 2.68.565.891 1.51 1.635 2.629 2.07z" clip-path="url(#p8874b97f0e)" style="fill:#969696"/><path id="patch_65" d="M297.14 149.407c-.917.85-1.593 1.886-1.879 2.88-.285.993-.156 1.863.358 2.418.514.555 1.372.75 2.384.541 1.013-.208 2.097-.803 3.015-1.654.918-.85 1.594-1.886 1.879-2.88.285-.993.157-1.863-.358-2.418-.514-.555-1.372-.75-2.384-.541-1.013.209-2.097.804-3.015 1.654z" clip-path="url(#p8874b97f0e)" style="fill:#969696"/><path id="patch_66" d="M106.548 154.076c.897.441 1.878.619 2.728.494.849-.125 1.496-.542 1.8-1.159.302-.617.236-1.384-.184-2.132-.42-.748-1.16-1.417-2.058-1.857-.898-.441-1.88-.619-2.728-.494-.85.125-1.497.541-1.8 1.159-.303.617-.237 1.384.183 2.132.42.748 1.161 1.416 2.059 1.857z" clip-path="url(#p8874b97f0e)" style="fill:#969696"/><path id="patch_67" d="M179.93 198.922c.484-.306.807-.823.897-1.438.09-.616-.059-1.28-.415-1.844-.356-.565-.89-.986-1.485-1.17-.594-.184-1.2-.115-1.684.19-.485.305-.807.823-.898 1.438-.09.616.06 1.279.415 1.844.357.565.89.986 1.485 1.17.595.183 1.2.115 1.685-.19z" clip-path="url(#p8874b97f0e)" style="fill:#969696"/><path id="patch_68" d="M277.095 160.144c.751-.254 1.408-.686 1.826-1.202.418-.515.562-1.072.402-1.548-.16-.475-.613-.83-1.258-.987-.645-.157-1.43-.103-2.181.151-.752.254-1.409.686-1.827 1.202-.417.516-.562 1.073-.401 1.548.16.476.613.83 1.258.988.645.156 1.43.102 2.18-.152z" clip-path="url(#p8874b97f0e)" style="fill:#969696"/><path id="patch_69" d="M183.194 206.457c.35.216.813.214 1.288-.003.475-.218.923-.634 1.245-1.157.322-.523.493-1.11.473-1.632-.02-.522-.227-.937-.576-1.152-.35-.216-.813-.214-1.289.003-.475.218-.923.634-1.245 1.157-.322.523-.492 1.11-.473 1.632.02.522.227.937.577 1.152z" clip-path="url(#p8874b97f0e)" style="fill:#969696"/><path id="patch_70" d="M179.072 144.766c.538.073 1.094-.155 1.547-.634.453-.48.764-1.171.866-1.923.102-.75-.014-1.5-.322-2.083-.308-.583-.784-.952-1.322-1.025-.538-.073-1.095.156-1.547.635-.453.48-.764 1.171-.866 1.922-.102.752.014 1.501.322 2.084.308.583.784.951 1.322 1.024z" clip-path="url(#p8874b97f0e)" style="fill:#969696"/><path id="patch_71" d="M243.055 157.814c.891-.445 1.651-1.063 2.112-1.717.46-.655.585-1.293.345-1.774-.24-.482-.824-.766-1.625-.792-.8-.026-1.75.21-2.642.654-.892.445-1.651 1.062-2.112 1.717-.461.655-.585 1.293-.345 1.774.24.481.824.766 1.624.792.8.026 1.751-.21 2.643-.654z" clip-path="url(#p8874b97f0e)" style="fill:#969696"/><path id="patch_72" d="M212.22 242.457c.667-.15 1.21-.728 1.507-1.61.298-.88.328-1.992.083-3.089s-.745-2.09-1.39-2.76c-.645-.671-1.381-.964-2.048-.815-.666.149-1.208.728-1.506 1.609-.298.88-.328 1.992-.083 3.09.245 1.096.745 2.09 1.39 2.76.644.67 1.381.963 2.048.815z" clip-path="url(#p8874b97f0e)" style="fill:#969696"/><path id="patch_73" d="M157.366 260.901a3.093 3.093 0 0 0 2.046.774c.728-.01 1.39-.305 1.838-.822.45-.517.65-1.214.556-1.936a3.093 3.093 0 0 0-1.054-1.916 3.093 3.093 0 0 0-2.045-.774c-.728.01-1.39.305-1.839.822-.449.517-.648 1.214-.555 1.936a3.093 3.093 0 0 0 1.053 1.916z" clip-path="url(#p8874b97f0e)" style="fill:#969696"/><path id="patch_74" d="M139.22 210.543a3.354 3.354 0 0 0 1.01-2.163c.048-.797-.222-1.546-.75-2.084-.53-.537-1.275-.82-2.072-.783a3.354 3.354 0 0 0-2.18.976 3.354 3.354 0 0 0-1.01 2.163c-.048.797.222 1.546.75 2.084.53.537 1.275.82 2.072.783a3.354 3.354 0 0 0 2.18-.976z" clip-path="url(#p8874b97f0e)" style="fill:#969696"/><path id="patch_75" d="M180.89 207.737c.612.118 1.263-.102 1.81-.61.548-.51.946-1.267 1.108-2.105.162-.838.074-1.689-.244-2.365-.319-.676-.842-1.122-1.454-1.24-.612-.119-1.263.1-1.81.61-.548.509-.947 1.266-1.108 2.104-.162.838-.074 1.689.244 2.365.319.676.841 1.123 1.454 1.24z" clip-path="url(#p8874b97f0e)" style="fill:#969696"/><path id="patch_76" d="M182.654 207.095c.498.222 1.123.104 1.738-.328s1.17-1.143 1.542-1.977c.371-.833.53-1.72.44-2.467-.089-.746-.42-1.29-.917-1.513-.498-.222-1.124-.104-1.739.328s-1.17 1.144-1.541 1.977c-.372.833-.53 1.72-.44 2.467.089.747.419 1.29.917 1.513z" clip-path="url(#p8874b97f0e)" style="fill:#969696"/><path id="patch_77" d="M267.147 170.487c.888-.424 1.653-1.009 2.128-1.627.475-.618.621-1.219.406-1.67-.215-.45-.774-.715-1.553-.734-.78-.02-1.716.207-2.603.63-.887.423-1.653 1.008-2.128 1.627-.475.618-.62 1.218-.406 1.67.216.45.774.715 1.554.734.78.02 1.715-.207 2.602-.63z" clip-path="url(#p8874b97f0e)" style="fill:#969696"/><path id="patch_78" d="M173.738 143.134a3.028 3.028 0 0 0 2.195-1.002 3.442 3.442 0 0 0 .884-2.365 3.442 3.442 0 0 0-.944-2.34 3.028 3.028 0 0 0-2.22-.947 3.028 3.028 0 0 0-2.195 1.003 3.442 3.442 0 0 0-.885 2.364 3.44 3.44 0 0 0 .945 2.341 3.028 3.028 0 0 0 2.22.946z" clip-path="url(#p8874b97f0e)" style="fill:#969696"/><path id="patch_79" d="M117.105 209.251c.882-.122 1.693-.495 2.253-1.038s.825-1.211.736-1.857c-.09-.645-.525-1.216-1.212-1.586-.687-.37-1.569-.51-2.45-.388-.883.122-1.693.495-2.253 1.038-.561.543-.826 1.211-.736 1.857.089.645.525 1.216 1.212 1.587.687.37 1.568.51 2.45.387z" clip-path="url(#p8874b97f0e)" style="fill:#969696"/><path id="patch_80" d="M182.36 273.918c.543-.244.865-.92.896-1.876.031-.957-.232-2.118-.732-3.226-.499-1.109-1.194-2.075-1.93-2.686-.738-.611-1.457-.817-2-.573-.543.245-.865.92-.896 1.877-.03.957.232 2.117.732 3.226.499 1.109 1.194 2.075 1.93 2.686.738.61 1.457.817 2 .572z" clip-path="url(#p8874b97f0e)" style="fill:#969696"/><path id="patch_81" d="M258.826 173.298c.92-.17 1.762-.55 2.34-1.058.58-.509.848-1.103.746-1.653-.1-.55-.563-1.01-1.285-1.28-.721-.269-1.644-.325-2.563-.156-.92.17-1.762.55-2.34 1.058-.58.509-.848 1.103-.747 1.653.102.55.564 1.01 1.286 1.28.721.269 1.644.325 2.563.156z" clip-path="url(#p8874b97f0e)" style="fill:#969696"/><path id="patch_82" d="M117.145 208.403c.903.209 1.828.157 2.57-.144.743-.301 1.243-.827 1.39-1.461.146-.635-.073-1.326-.608-1.923-.535-.596-1.343-1.048-2.247-1.257-.903-.208-1.828-.157-2.57.145-.743.3-1.243.826-1.39 1.46-.146.635.073 1.327.608 1.923.535.596 1.343 1.049 2.247 1.257z" clip-path="url(#p8874b97f0e)" style="fill:#969696"/><path id="patch_83" d="M170.53 271.44c.26-.221.187-.812-.202-1.642-.39-.83-1.063-1.831-1.873-2.784-.81-.953-1.69-1.779-2.446-2.297-.757-.517-1.328-.684-1.588-.463-.26.221-.187.811.202 1.641s1.063 1.832 1.873 2.785c.81.953 1.69 1.779 2.446 2.296.757.518 1.328.684 1.587.464z" clip-path="url(#p8874b97f0e)" style="fill:#969696"/><path id="patch_84" d="M215.804 234.76c.732-.246 1.3-.877 1.581-1.754.28-.877.25-1.927-.085-2.92-.335-.994-.947-1.848-1.701-2.376-.754-.528-1.59-.685-2.32-.439-.733.247-1.301.878-1.582 1.755-.28.877-.25 1.927.085 2.92.335.994.947 1.848 1.701 2.376.755.528 1.59.686 2.321.439z" clip-path="url(#p8874b97f0e)" style="fill:#969696"/><path id="patch_85" d="M192.017 116.895c.496-.447.62-1.265.345-2.274-.275-1.01-.926-2.127-1.81-3.106-.884-.98-1.928-1.743-2.904-2.12-.975-.376-1.802-.337-2.297.11-.496.447-.62 1.265-.345 2.274.275 1.01.926 2.127 1.81 3.106.884.98 1.929 1.743 2.904 2.12.975.376 1.802.337 2.297-.11z" clip-path="url(#p8874b97f0e)" style="fill:#969696"/><path id="patch_86" d="M200.85 191.56a2.003 2.003 0 0 0 1.076-1.2 2.349 2.349 0 0 0-.09-1.701 2.349 2.349 0 0 0-1.204-1.207 2.003 2.003 0 0 0-1.612-.005 2.003 2.003 0 0 0-1.076 1.2 2.349 2.349 0 0 0 .09 1.702c.243.546.676.98 1.204 1.207a2.003 2.003 0 0 0 1.612.005z" clip-path="url(#p8874b97f0e)" style="fill:#969696"/><path id="patch_87" d="M150.084 225.977c.332.184.749.183 1.157-.002.409-.184.777-.538 1.022-.982.246-.445.35-.945.289-1.389-.062-.444-.283-.797-.615-.98-.332-.184-.749-.184-1.158 0-.408.185-.776.539-1.022.984-.246.444-.35.944-.288 1.388.061.444.282.797.615.98z" clip-path="url(#p8874b97f0e)" style="fill:#969696"/><path id="patch_88" d="M284.606 161.53c.869-.203 1.661-.574 2.202-1.034.541-.46.786-.97.682-1.417-.104-.448-.55-.797-1.238-.97-.688-.174-1.563-.157-2.432.045-.87.202-1.661.574-2.202 1.034-.541.46-.787.969-.682 1.417.104.447.549.796 1.237.97.689.173 1.564.157 2.433-.045z" clip-path="url(#p8874b97f0e)" style="fill:#969696"/><path id="patch_89" d="M146.09 245.272a2.033 2.033 0 0 0 1.562-.413 2.29 2.29 0 0 0 .85-1.454 2.29 2.29 0 0 0-.362-1.646 2.033 2.033 0 0 0-1.36-.872 2.033 2.033 0 0 0-1.563.413 2.29 2.29 0 0 0-.849 1.454 2.29 2.29 0 0 0 .362 1.646c.323.472.812.785 1.36.872z" clip-path="url(#p8874b97f0e)" style="fill:#969696"/><path id="patch_90" d="M217.945 203.453c.702-.015 1.367-.392 1.85-1.047.482-.655.742-1.536.723-2.448-.02-.912-.317-1.781-.827-2.416-.51-.634-1.19-.982-1.892-.967-.702.015-1.367.392-1.85 1.047-.482.655-.742 1.536-.723 2.448.02.912.317 1.781.827 2.416.51.634 1.19.982 1.892.967z" clip-path="url(#p8874b97f0e)" style="fill:#969696"/><path id="patch_91" d="M112.952 190.536c.913.172 1.85.006 2.607-.463.756-.468 1.27-1.2 1.427-2.034.157-.835-.055-1.703-.589-2.415a3.674 3.674 0 0 0-2.259-1.38 3.674 3.674 0 0 0-2.606.463c-.757.469-1.27 1.2-1.427 2.035-.158.834.054 1.703.588 2.414a3.674 3.674 0 0 0 2.26 1.38z" clip-path="url(#p8874b97f0e)" style="fill:#969696"/><path id="patch_92" d="M109.92 195.643c.881.392 1.812.575 2.587.51.775-.065 1.331-.373 1.546-.856.214-.483.07-1.102-.403-1.72-.472-.619-1.233-1.186-2.115-1.577-.881-.391-1.812-.575-2.588-.51-.775.065-1.33.373-1.545.857-.214.483-.07 1.102.403 1.72.472.618 1.232 1.185 2.114 1.576z" clip-path="url(#p8874b97f0e)" style="fill:#969696"/><path id="patch_93" d="M163.576 257.259c.274-.221.323-.696.139-1.319-.185-.623-.59-1.344-1.124-2.005-.534-.66-1.155-1.205-1.726-1.516-.572-.31-1.046-.36-1.32-.14-.272.222-.322.696-.137 1.32.184.623.588 1.344 1.123 2.004.534.66 1.156 1.206 1.727 1.516.57.31 1.045.361 1.318.14z" clip-path="url(#p8874b97f0e)" style="fill:#969696"/><path id="patch_94" d="M107.956 229.373c.503.183 1.084.09 1.614-.258s.966-.924 1.212-1.6c.245-.676.281-1.397.099-2.005-.182-.607-.568-1.051-1.071-1.234-.504-.184-1.084-.09-1.614.258s-.966.924-1.212 1.6-.282 1.397-.1 2.004c.183.608.568 1.052 1.072 1.235z" clip-path="url(#p8874b97f0e)" style="fill:#969696"/><path id="patch_95" d="M235.194 205.119c1.005-.008 1.966-.287 2.673-.775.707-.488 1.1-1.146 1.095-1.828-.005-.682-.41-1.333-1.124-1.81-.714-.476-1.68-.74-2.685-.732-1.005.008-1.967.287-2.674.775-.707.488-1.1 1.146-1.095 1.828.005.682.41 1.333 1.124 1.81.715.476 1.68.74 2.686.732z" clip-path="url(#p8874b97f0e)" style="fill:#969696"/><path id="patch_96" d="M235.582 165.614c.72-.638 1.254-1.426 1.485-2.19.232-.763.142-1.441-.25-1.884-.393-.442-1.055-.613-1.84-.475-.787.139-1.633.575-2.352 1.212-.72.638-1.254 1.426-1.485 2.19-.232.764-.142 1.441.25 1.884.393.442 1.055.613 1.84.475.787-.139 1.633-.575 2.352-1.212z" clip-path="url(#p8874b97f0e)" style="fill:#969696"/><path id="patch_97" d="M146.655 176.914c.806.567 1.726.902 2.557.932.832.03 1.507-.249 1.877-.774.37-.526.404-1.255.095-2.028-.308-.772-.934-1.525-1.74-2.092-.806-.568-1.726-.903-2.558-.933-.831-.03-1.506.25-1.876.775-.37.525-.404 1.254-.096 2.027.309.773.935 1.526 1.741 2.093z" clip-path="url(#p8874b97f0e)" style="fill:#969696"/><path id="patch_98" d="M162.876 202.75c.647-.495 1.117-1.167 1.308-1.866.19-.699.085-1.368-.293-1.86-.377-.493-.996-.769-1.72-.766-.725.002-1.496.282-2.142.778-.647.496-1.118 1.167-1.308 1.866-.19.699-.085 1.368.292 1.86.378.493.997.769 1.721.767.725-.003 1.495-.283 2.142-.779z" clip-path="url(#p8874b97f0e)" style="fill:#969696"/><path id="patch_99" d="M185.185 204.341c.487-.293.893-.677 1.127-1.066.235-.39.28-.753.125-1.01-.155-.257-.497-.386-.95-.36-.454.025-.983.205-1.47.498-.487.294-.893.678-1.127 1.067-.235.39-.28.752-.125 1.01.155.256.497.386.95.36.454-.026.983-.205 1.47-.499z" clip-path="url(#p8874b97f0e)" style="fill:#969696"/><path id="patch_100" d="M186.216 171.615c.424-.082.781-.416.993-.929.212-.512.26-1.16.136-1.802-.125-.642-.413-1.225-.8-1.62-.389-.396-.845-.572-1.27-.49-.423.082-.78.417-.992.929-.212.512-.261 1.16-.136 1.802.124.642.412 1.225.8 1.62.388.396.845.572 1.269.49z" clip-path="url(#p8874b97f0e)" style="fill:#969696"/><path id="patch_101" d="M132.902 208.023c.767 0 1.503-.241 2.046-.672.542-.43.848-1.015.848-1.624 0-.61-.304-1.195-.846-1.626-.542-.432-1.278-.674-2.045-.675-.767 0-1.503.241-2.046.672-.543.43-.848 1.015-.848 1.624 0 .61.303 1.195.846 1.626.542.432 1.277.674 2.045.675z" clip-path="url(#p8874b97f0e)" style="fill:#969696"/><path id="patch_102" d="M156.15 205.83c.522-.338.922-.818 1.113-1.333.19-.515.156-1.023-.096-1.413-.253-.39-.703-.63-1.25-.666-.548-.037-1.15.133-1.672.471-.522.338-.923.818-1.113 1.333-.191.514-.156 1.023.096 1.413.253.39.703.63 1.25.666.548.037 1.15-.133 1.672-.471z" clip-path="url(#p8874b97f0e)" style="fill:#969696"/><path id="patch_103" d="M272.548 206c1.337-.347 2.562-.9 3.405-1.54.844-.639 1.236-1.312 1.092-1.87-.144-.558-.814-.957-1.862-1.107-1.047-.15-2.387-.04-3.724.306-1.337.346-2.562.9-3.406 1.539-.843.64-1.236 1.312-1.091 1.87.144.559.814.957 1.861 1.107 1.048.15 2.388.04 3.725-.306z" clip-path="url(#p8874b97f0e)" style="fill:#969696"/><path id="patch_104" d="M238.791 204.795c.827.274 1.685.341 2.384.187.7-.154 1.185-.516 1.347-1.008.163-.492-.01-1.072-.479-1.613-.469-.541-1.197-1-2.024-1.273-.827-.274-1.685-.341-2.384-.187-.7.154-1.185.516-1.347 1.008-.163.491.01 1.072.479 1.613.47.541 1.197.999 2.024 1.273z" clip-path="url(#p8874b97f0e)" style="fill:#969696"/><path id="patch_105" d="M184.334 203.904c.697-.38 1.266-.925 1.583-1.517.317-.592.355-1.181.106-1.639-.249-.457-.764-.746-1.433-.8-.67-.056-1.437.126-2.134.505-.697.38-1.267.925-1.584 1.517-.317.592-.355 1.181-.106 1.639.25.457.765.746 1.434.8.669.056 1.436-.126 2.134-.505z" clip-path="url(#p8874b97f0e)" style="fill:#969696"/><path id="patch_106" d="M151.217 206.716c.536.287 1.137.4 1.67.314.534-.085.957-.363 1.176-.772.218-.408.215-.914-.01-1.406-.224-.491-.651-.929-1.187-1.216-.536-.287-1.138-.4-1.671-.314-.534.086-.957.363-1.175.772-.219.408-.216.914.009 1.406.224.492.652.93 1.188 1.216z" clip-path="url(#p8874b97f0e)" style="fill:#969696"/><path id="patch_107" d="M243.138 207.05c.65-.155 1.233-.478 1.619-.896.386-.418.544-.897.44-1.332-.105-.435-.464-.79-.998-.987-.533-.197-1.199-.22-1.849-.064-.65.156-1.233.48-1.619.897-.386.418-.544.897-.44 1.332.105.435.464.79.998.987.533.197 1.199.22 1.849.064z" clip-path="url(#p8874b97f0e)" style="fill:#969696"/><path id="patch_108" d="M236.236 256.51c1.148.323 2.3.449 3.204.351.903-.097 1.484-.41 1.613-.87.129-.461-.204-1.03-.925-1.583-.72-.553-1.771-1.045-2.92-1.367-1.148-.322-2.3-.448-3.204-.35-.903.097-1.484.41-1.613.87s.204 1.03.925 1.583c.72.553 1.771 1.045 2.92 1.367z" clip-path="url(#p8874b97f0e)" style="fill:#969696"/><path id="patch_109" d="M264.035 204.784c.96-.163 1.846-.517 2.465-.982.618-.466.919-1.006.835-1.502-.085-.495-.547-.905-1.284-1.14-.738-.236-1.692-.276-2.651-.113-.96.163-1.846.516-2.465.982-.619.466-.92 1.006-.835 1.501.084.496.546.906 1.284 1.141s1.692.276 2.65.113z" clip-path="url(#p8874b97f0e)" style="fill:#969696"/><path id="patch_110" d="M239.86 202.845c1.06.08 2.093-.03 2.868-.303.775-.275 1.23-.691 1.266-1.159.035-.467-.353-.947-1.078-1.334-.726-.388-1.73-.65-2.79-.73-1.062-.08-2.094.03-2.87.303-.774.275-1.23.691-1.265 1.159-.035.467.353.947 1.078 1.334.726.388 1.73.65 2.79.73z" clip-path="url(#p8874b97f0e)" style="fill:#969696"/><path id="patch_111" d="M269.195 145.43c1.107-.602 2.07-1.36 2.68-2.106.608-.747.81-1.422.564-1.876-.247-.455-.924-.652-1.881-.548-.958.104-2.118.5-3.225 1.101-1.108.602-2.072 1.36-2.68 2.106-.608.747-.812 1.422-.565 1.876.247.455.924.652 1.882.548.957-.104 2.117-.5 3.225-1.102z" clip-path="url(#p8874b97f0e)" style="fill:#969696"/><path id="patch_112" d="M287.434 188.031c1.207-.194 2.33-.59 3.124-1.099.793-.509 1.192-1.09 1.107-1.616-.085-.526-.646-.953-1.559-1.188-.913-.234-2.104-.256-3.31-.062-1.207.195-2.331.59-3.124 1.1-.794.509-1.192 1.09-1.107 1.616.085.526.645.953 1.558 1.187.914.234 2.105.257 3.311.062z" clip-path="url(#p8874b97f0e)" style="fill:#969696"/><path id="patch_113" d="M104.81 208.222c.913-.145 1.75-.514 2.33-1.026.58-.512.853-1.126.761-1.705-.092-.579-.542-1.077-1.252-1.384-.71-.307-1.621-.398-2.533-.253-.911.145-1.75.514-2.329 1.026-.58.512-.853 1.125-.761 1.705.092.579.543 1.077 1.252 1.384.71.307 1.621.398 2.533.253z" clip-path="url(#p8874b97f0e)" style="fill:#969696"/><path id="patch_114" d="M137.98 284.662c.593-.065 1.106-.632 1.426-1.576.32-.944.422-2.188.282-3.458s-.51-2.462-1.027-3.314c-.518-.852-1.142-1.294-1.734-1.229-.593.066-1.106.633-1.426 1.577-.32.944-.422 2.188-.282 3.457.14 1.27.509 2.462 1.027 3.314.518.852 1.141 1.294 1.734 1.229z" clip-path="url(#p8874b97f0e)" style="fill:#969696"/><path id="patch_115" d="M108.122 145.756c1.377.937 2.873 1.578 4.157 1.785 1.284.206 2.25-.04 2.689-.685.437-.644.31-1.634-.355-2.751-.664-1.118-1.812-2.272-3.19-3.208-1.378-.936-2.873-1.578-4.157-1.784-1.284-.206-2.251.04-2.689.684-.438.644-.31 1.634.355 2.752.664 1.117 1.812 2.271 3.19 3.207z" clip-path="url(#p8874b97f0e)" style="fill:#969696"/><path id="patch_116" d="M281.143 231.226c1.004-.05 1.958-.3 2.65-.697.692-.397 1.067-.908 1.042-1.42-.025-.512-.448-.984-1.176-1.311-.728-.327-1.702-.484-2.706-.434-1.004.05-1.958.3-2.65.697-.692.397-1.067.908-1.042 1.42.025.512.448.984 1.176 1.31.728.328 1.702.484 2.706.435z" clip-path="url(#p8874b97f0e)" style="fill:#969696"/><path id="patch_117" d="M165.306 111.938c.81.097 1.651-.336 2.337-1.203.685-.867 1.159-2.097 1.317-3.42.159-1.323-.011-2.631-.473-3.635-.46-1.005-1.175-1.623-1.986-1.72-.81-.097-1.651.335-2.336 1.202-.686.867-1.16 2.098-1.318 3.42-.158 1.324.012 2.632.473 3.636.461 1.004 1.176 1.623 1.986 1.72z" clip-path="url(#p8874b97f0e)" style="fill:#969696"/><path id="patch_118" d="M100.611 222.627c.751.243 1.551.23 2.223-.033.672-.263 1.161-.757 1.36-1.373.2-.615.091-1.302-.3-1.91-.39-.606-1.032-1.084-1.783-1.326-.751-.243-1.551-.231-2.223.032-.672.264-1.161.758-1.36 1.373-.2.616-.091 1.303.3 1.91.39.606 1.032 1.084 1.783 1.327z" clip-path="url(#p8874b97f0e)" style="fill:#969696"/><path id="patch_119" d="M256.505 225.62c.55-.418.814-1.162.736-2.07-.077-.909-.491-1.906-1.15-2.773-.66-.867-1.51-1.532-2.364-1.85-.854-.318-1.642-.262-2.191.156-.55.417-.814 1.162-.737 2.07.078.908.492 1.905 1.151 2.772.659.867 1.51 1.533 2.363 1.85.855.318 1.643.262 2.192-.155z" clip-path="url(#p8874b97f0e)" style="fill:#969696"/><path id="patch_120" d="M121.312 260.939c.76.188 1.544.141 2.182-.13.637-.272 1.075-.745 1.217-1.318.141-.572-.024-1.195-.461-1.733-.437-.537-1.11-.945-1.87-1.133-.759-.189-1.544-.142-2.181.13-.638.27-1.075.745-1.217 1.317-.142.572.024 1.195.46 1.733.438.537 1.11.945 1.87 1.134z" clip-path="url(#p8874b97f0e)" style="fill:#969696"/><path id="patch_121" d="M170.711 123.728c1.082.794 2.354 1.235 3.538 1.226 1.184-.009 2.182-.468 2.775-1.275.592-.807.731-1.896.386-3.029-.346-1.132-1.148-2.214-2.229-3.008-1.081-.794-2.354-1.235-3.538-1.226-1.183.009-2.181.468-2.774 1.275-.593.807-.732 1.896-.386 3.029.345 1.132 1.147 2.214 2.228 3.008z" clip-path="url(#p8874b97f0e)" style="fill:#969696"/><path id="patch_122" d="M163.194 283.266c.816.513 1.73.797 2.54.789.81-.008 1.45-.307 1.779-.83.328-.524.32-1.23-.025-1.963-.345-.733-.997-1.433-1.814-1.946-.816-.513-1.73-.796-2.54-.788-.81.007-1.45.306-1.779.83-.329.524-.32 1.23.025 1.963.345.733.997 1.432 1.814 1.945z" clip-path="url(#p8874b97f0e)" style="fill:#969696"/><path id="patch_123" d="M298.309 210.16c.638-.442 1.145-1.017 1.41-1.596.266-.58.268-1.118.006-1.496-.262-.377-.766-.564-1.402-.518-.636.046-1.352.32-1.99.763-.637.442-1.145 1.016-1.41 1.596-.266.58-.268 1.118-.006 1.495.262.378.767.564 1.403.519.636-.046 1.351-.32 1.989-.763z" clip-path="url(#p8874b97f0e)" style="fill:#969696"/><path id="patch_124" d="M155.693 120.047c1.011.77 2.172 1.26 3.225 1.36 1.053.102 1.913-.194 2.39-.822.478-.627.535-1.535.157-2.523-.378-.988-1.158-1.977-2.17-2.747-1.012-.77-2.172-1.26-3.225-1.36-1.053-.101-1.913.195-2.391.822-.478.628-.534 1.535-.156 2.524.377.988 1.158 1.976 2.17 2.746z" clip-path="url(#p8874b97f0e)" style="fill:#969696"/><path id="patch_125" d="M120.812 183.824c1.179.25 2.36.257 3.282.016.923-.241 1.512-.71 1.639-1.301.126-.592-.222-1.26-.966-1.856-.744-.597-1.825-1.073-3.004-1.324-1.179-.251-2.36-.257-3.282-.016-.923.241-1.512.71-1.638 1.301-.127.592.22 1.26.965 1.856.744.596 1.825 1.072 3.004 1.324z" clip-path="url(#p8874b97f0e)" style="fill:#969696"/><path id="patch_126" d="M228.074 195.193c1.071-.08 2.085-.352 2.816-.754.732-.403 1.123-.904 1.086-1.393-.037-.489-.498-.926-1.281-1.214-.784-.29-1.827-.406-2.898-.326-1.072.08-2.085.352-2.817.755-.732.402-1.122.903-1.086 1.392.037.489.498.926 1.282 1.215.783.288 1.826.405 2.898.325z" clip-path="url(#p8874b97f0e)" style="fill:#969696"/><path id="patch_127" d="M234.87 205.347c1.109.119 2.2-.024 3.033-.396.832-.372 1.34-.944 1.408-1.59.07-.645-.304-1.31-1.04-1.851-.734-.54-1.77-.911-2.878-1.03-1.109-.12-2.2.023-3.033.395-.832.373-1.34.944-1.408 1.59-.07.645.304 1.311 1.04 1.852.734.54 1.77.91 2.878 1.03z" clip-path="url(#p8874b97f0e)" style="fill:#969696"/><path id="patch_128" d="M160.495 246.279c.55-.417.87-1.086.894-1.861.024-.775-.253-1.593-.769-2.273-.515-.68-1.228-1.167-1.98-1.353-.753-.186-1.485-.057-2.034.359-.549.416-.87 1.086-.894 1.86-.023.776.254 1.593.77 2.273.515.68 1.228 1.167 1.98 1.354.753.186 1.484.057 2.033-.36z" clip-path="url(#p8874b97f0e)" style="fill:#969696"/><path id="patch_129" d="M307.737 202.944c.757-.314 1.42-.767 1.843-1.26.423-.492.572-.984.413-1.366-.158-.382-.611-.624-1.259-.672-.647-.048-1.436.101-2.193.415-.757.314-1.42.767-1.843 1.26-.424.492-.572.983-.414 1.366.159.382.612.624 1.26.672.647.048 1.436-.101 2.193-.415z" clip-path="url(#p8874b97f0e)" style="fill:#969696"/><path id="patch_130" d="M263.933 199.278c.858-.278 1.625-.713 2.134-1.21.509-.496.718-1.014.58-1.438-.137-.424-.61-.72-1.313-.825-.704-.103-1.58-.005-2.438.273-.857.278-1.625.713-2.134 1.21-.509.496-.717 1.013-.58 1.437.138.425.61.721 1.314.825.703.103 1.58.006 2.437-.272z" clip-path="url(#p8874b97f0e)" style="fill:#969696"/><path id="patch_131" d="M146.237 246.646c.667-.07 1.285-.348 1.717-.77.432-.423.644-.957.589-1.484-.056-.527-.374-1.005-.886-1.328-.51-.323-1.173-.465-1.84-.395s-1.285.348-1.717.77c-.433.423-.645.957-.589 1.484.056.527.374 1.005.885 1.328.511.323 1.173.465 1.84.395z" clip-path="url(#p8874b97f0e)" style="fill:#969696"/><path id="patch_132" d="M119.977 194.847c.753.07 1.5-.139 2.078-.58a2.533 2.533 0 0 0 1.004-1.776 2.533 2.533 0 0 0-.66-1.93 2.975 2.975 0 0 0-1.935-.954 2.98 2.98 0 0 0-2.078.58 2.533 2.533 0 0 0-1.003 1.776c-.065.695.172 1.39.659 1.93a2.974 2.974 0 0 0 1.935.954z" clip-path="url(#p8874b97f0e)" style="fill:#969696"/><path id="patch_133" d="M167.208 260.087c.372-.231.605-.654.647-1.176.041-.52-.112-1.098-.426-1.604s-.763-.9-1.249-1.093c-.485-.194-.968-.173-1.34.058-.373.231-.606.654-.648 1.176-.041.521.112 1.098.426 1.604s.763.9 1.249 1.093c.486.194.968.173 1.34-.058z" clip-path="url(#p8874b97f0e)" style="fill:#969696"/><path id="patch_134" d="M122.524 149.165c.7-.481 1.09-1.354 1.082-2.425-.007-1.07-.41-2.253-1.121-3.286-.71-1.034-1.67-1.834-2.667-2.224-.998-.39-1.951-.34-2.651.142-.7.48-1.09 1.353-1.082 2.424.007 1.071.41 2.253 1.12 3.287.711 1.033 1.67 1.833 2.668 2.224.997.39 1.951.339 2.651-.142z" clip-path="url(#p8874b97f0e)" style="fill:#969696"/><g id="text_13" style="fill:#969696" transform="matrix(.14 0 0 -.14 105.1 17.293)"><defs><path id="MyriadPro-Regular-4c" d="M486 0h2400v467H1043v3847H486V0z" transform="scale(.01563)"/><path id="MyriadPro-Regular-75" d="M3059 3098h-563V1197c0-103-19-205-51-288-103-250-365-512-743-512-512 0-691 397-691 985v1716H448V1286C448 198 1030-70 1517-70c550 0 877 326 1024 576h13l32-506h499c-19 243-26 525-26 845v2253z" transform="scale(.01563)"/><path id="MyriadPro-Regular-6f" d="M1779 3168c-857 0-1536-608-1536-1645C243 544 890-70 1728-70c749 0 1542 499 1542 1644 0 948-601 1594-1491 1594zm-13-422c666 0 928-666 928-1191 0-697-403-1203-940-1203-551 0-941 512-941 1190 0 589 288 1204 953 1204z" transform="scale(.01563)"/><path id="MyriadPro-Regular-2d" d="M192 1939v-416h1581v416H192z" transform="scale(.01563)"/><path id="MyriadPro-Regular-52" d="M486 0h557v1869h525c506-19 736-243 864-839 122-537 218-902 288-1030h576c-90 166-192 582-333 1184-102 448-301 755-633 870v20c454 153 812 531 812 1100 0 333-121 628-339 820-269 243-653 352-1248 352-384 0-787-32-1069-90V0zm557 3866c90 25 282 51 551 51 588-7 992-250 992-807 0-492-378-819-973-819h-570v1575z" transform="scale(.01563)"/><path id="MyriadPro-Regular-69" d="M1030 0v3098H467V0h563zM749 4320c-205 0-352-154-352-352 0-192 141-346 339-346 224 0 365 154 358 346 0 198-134 352-345 352z" transform="scale(.01563)"/><path id="MyriadPro-Regular-67" d="M3110 2246c0 378 13 628 26 852h-493l-25-468h-13c-135 256-429 538-967 538-710 0-1395-595-1395-1645C243 666 794 13 1562 13c480 0 812 230 985 518h13V186c0-781-422-1082-998-1082-384 0-704 115-909 243l-141-429c250-166 659-256 1030-256 391 0 826 90 1127 372 301 268 441 704 441 1414v1798zm-556-928c0-96-13-204-45-300-122-359-435-576-781-576-608 0-915 505-915 1113 0 717 384 1171 921 1171 410 0 685-268 788-595 25-77 32-160 32-256v-557z" transform="scale(.01563)"/><path id="MyriadPro-Regular-65" d="M2957 1446c6 58 19 148 19 263 0 569-269 1459-1280 1459-902 0-1453-736-1453-1670C243 563 813-70 1766-70c493 0 832 108 1031 198l-96 403c-211-89-455-160-858-160-563 0-1049 314-1062 1075h2176zM787 1850c45 390 295 915 864 915 634 0 787-557 781-915H787z" transform="scale(.01563)"/><path id="MyriadPro-Regular-6c" d="M467 0h563v4544H467V0z" transform="scale(.01563)"/><path id="MyriadPro-Regular-70" d="M467-1267h557V416h13c185-307 544-486 953-486 730 0 1408 550 1408 1664 0 940-563 1574-1312 1574-505 0-870-224-1100-602h-13l-26 532H442c12-295 25-615 25-1012v-3353zm557 3059c0 77 19 160 38 230 109 423 468 698 852 698 595 0 921-531 921-1152 0-710-345-1197-941-1197-403 0-742 269-844 659-13 71-26 148-26 231v531z" transform="scale(.01563)"/><path id="MyriadPro-Regular-73" d="M250 147C467 19 781-70 1120-70c736 0 1158 390 1158 934 0 461-275 730-812 934-404 154-589 269-589 525 0 231 185 423 518 423 288 0 512-103 634-180l141 410c-173 102-448 192-762 192-666 0-1069-410-1069-909 0-371 263-678 819-877 416-153 576-300 576-569 0-256-192-461-601-461-282 0-576 115-743 224L250 147z" transform="scale(.01563)"/><path id="MyriadPro-Regular-66" d="M1082 0v2669h748v429h-748v166c0 474 121 896 601 896 160 0 275-32 359-70l76 435c-108 45-281 89-480 89-262 0-544-83-755-288-262-249-358-646-358-1081v-147H90v-429h435V0h557z" transform="scale(.01563)"/><path id="MyriadPro-Regular-72" d="M467 0h557v1651c0 96 13 186 26 263 76 422 358 723 755 723 77 0 134-7 192-19v531c-51 13-96 19-160 19-378 0-717-262-858-678h-25l-20 608H442c19-288 25-602 25-967V0z" transform="scale(.01563)"/><path id="MyriadPro-Regular-43" d="M3386 582c-224-108-570-179-909-179-1050 0-1658 679-1658 1735 0 1132 672 1779 1683 1779 359 0 660-77 871-179l134 454c-147 77-486 192-1024 192-1337 0-2253-915-2253-2266C230 704 1146-70 2362-70c524 0 934 108 1139 211l-115 441z" transform="scale(.01563)"/><path id="MyriadPro-Regular-41" d="M2714 1357 3174 0h596L2298 4314h-672L160 0h576l448 1357h1530zm-1415 435 423 1248c83 262 153 525 217 781h13c64-250 128-506 224-787l422-1242H1299z" transform="scale(.01563)"/><path id="MyriadPro-Regular-4d" d="M4230 0h544l-268 4314h-711l-768-2087c-192-544-345-1017-454-1453h-19c-109 448-256 922-436 1453l-736 2087H672L371 0h531l116 1850c38 646 70 1369 83 1907h13c121-512 294-1069 499-1677L2310 26h423l761 2092c218 589 397 1133 544 1639h20c-7-538 32-1261 64-1863L4230 0z" transform="scale(.01563)"/><path id="MyriadPro-Regular-31" d="M1510 0h544v4160h-480l-908-486 108-429 724 390h12V0z" transform="scale(.01563)"/><path id="MyriadPro-Regular-36" d="M2662 4224c-102 0-243-6-409-32-525-64-986-275-1331-614-410-410-704-1056-704-1876C218 621 800-70 1690-70c864 0 1382 704 1382 1465 0 813-518 1344-1254 1344-461 0-807-217-1005-480h-19c96 685 563 1331 1446 1479 160 25 307 32 422 25v461zM1690 365c-589 0-903 505-916 1190 0 103 26 186 64 250 154 301 468 512 807 512 518 0 857-359 857-954s-326-998-806-998h-6z" transform="scale(.01563)"/><path id="MyriadPro-Regular-28" d="M1248 4442c-403-538-832-1357-838-2618 0-1248 435-2067 838-2598h442C1235-134 883 685 883 1824c0 1158 339 1990 807 2618h-442z" transform="scale(.01563)"/><path id="MyriadPro-Regular-55" d="M480 4314V1773C480 435 1146-70 2029-70c934 0 1632 544 1632 1868v2516h-563V1760c0-954-410-1376-1050-1376-576 0-1005 410-1005 1376v2554H480z" transform="scale(.01563)"/><path id="MyriadPro-Regular-53" d="M269 211C499 58 954-70 1370-70c1017 0 1510 582 1510 1248 0 633-371 985-1101 1267-595 230-857 429-857 832 0 294 224 646 812 646 391 0 679-128 820-205l153 455c-192 109-512 211-953 211-839 0-1396-499-1396-1171 0-608 436-973 1140-1223 582-224 812-454 812-857 0-435-332-736-902-736-384 0-749 128-998 281L269 211z" transform="scale(.01563)"/><path id="MyriadPro-Regular-29" d="M563-774c410 544 839 1356 839 2611 0 1261-429 2080-839 2605H128c461-634 806-1453 806-2599C934 691 582-141 128-774h435z" transform="scale(.01563)"/></defs><use xlink:href="#MyriadPro-Regular-4c"/><use xlink:href="#MyriadPro-Regular-75" x="47.2"/><use xlink:href="#MyriadPro-Regular-6f" x="102.3"/><use xlink:href="#MyriadPro-Regular-2d" x="157.2"/><use xlink:href="#MyriadPro-Regular-52" x="187.9"/><use xlink:href="#MyriadPro-Regular-69" x="241.7"/><use xlink:href="#MyriadPro-Regular-67" x="265.1"/><use xlink:href="#MyriadPro-Regular-67" x="321"/><use xlink:href="#MyriadPro-Regular-20" x="376.9"/><use xlink:href="#MyriadPro-Regular-65" x="398.1"/><use xlink:href="#MyriadPro-Regular-6c" x="448.2"/><use xlink:href="#MyriadPro-Regular-6c" x="471.8"/><use xlink:href="#MyriadPro-Regular-69" x="495.4"/><use xlink:href="#MyriadPro-Regular-70" x="518.8"/><use xlink:href="#MyriadPro-Regular-73" x="575.7"/><use xlink:href="#MyriadPro-Regular-65" x="615.3"/><use xlink:href="#MyriadPro-Regular-73" x="665.4"/><use xlink:href="#MyriadPro-Regular-20" x="705"/><use xlink:href="#MyriadPro-Regular-66" x="726.2"/><use xlink:href="#MyriadPro-Regular-6f" x="755.4"/><use xlink:href="#MyriadPro-Regular-72" x="810.3"/><use xlink:href="#MyriadPro-Regular-20" x="843"/><use xlink:href="#MyriadPro-Regular-43" x="864.2"/><use xlink:href="#MyriadPro-Regular-41" x="922.2"/><use xlink:href="#MyriadPro-Regular-4d" x="983.4"/><use xlink:href="#MyriadPro-Regular-31" x="1063.8"/><use xlink:href="#MyriadPro-Regular-36" x="1115.1"/><use xlink:href="#MyriadPro-Regular-20" x="1166.4"/><use xlink:href="#MyriadPro-Regular-28" x="1187.6"/><use xlink:href="#MyriadPro-Regular-55" x="1216"/><use xlink:href="#MyriadPro-Regular-43" x="1280.7"/><use xlink:href="#MyriadPro-Regular-53" x="1338.7"/><use xlink:href="#MyriadPro-Regular-29" x="1388"/></g></g></g><defs><clipPath id="p8874b97f0e"><path d="M60.205 57.293h288.089v266.112H60.205z"/></clipPath></defs></svg>