<svg xmlns="http://www.w3.org/2000/svg" xmlns:xlink="http://www.w3.org/1999/xlink" width="564.853" height="508.038" viewBox="0 0 423.64 381.028"><defs><style>*{stroke-linejoin:round;stroke-linecap:butt}</style></defs><g id="figure_1"><path id="patch_1" d="M0 381.028h423.64V0H0v381.028z" style="fill:none"/><g id="axes_1"><path id="patch_2" d="M60.205 323.405h349.233V57.293H60.205v266.112z" style="fill:none"/><g id="matplotlib.axis_1"><g id="xtick_1"><g id="line2d_1"><defs><path id="mdf93ac4044" d="M0 0v3.5" style="stroke:#969696;stroke-width:.4"/></defs><use xlink:href="#mdf93ac4044" x="91.932" y="323.405" style="fill:#969696;stroke:#969696;stroke-width:.4"/></g><g id="text_1" style="fill:#969696" transform="matrix(.14 0 0 -.14 80.579 340.345)"><defs><path id="MyriadPro-Regular-2212" d="M256 1901v-384h3302v384H256z" transform="scale(.01563)"/><path id="MyriadPro-Regular-36" d="M2662 4224c-102 0-243-6-409-32-525-64-986-275-1331-614-410-410-704-1056-704-1876C218 621 800-70 1690-70c864 0 1382 704 1382 1465 0 813-518 1344-1254 1344-461 0-807-217-1005-480h-19c96 685 563 1331 1446 1479 160 25 307 32 422 25v461zM1690 365c-589 0-903 505-916 1190 0 103 26 186 64 250 154 301 468 512 807 512 518 0 857-359 857-954s-326-998-806-998h-6z" transform="scale(.01563)"/><path id="MyriadPro-Regular-30" d="M1677 4230c-845 0-1447-768-1447-2163C243 691 794-70 1606-70c922 0 1447 780 1447 2195 0 1325-499 2105-1376 2105zm-32-435c582 0 845-672 845-1696 0-1062-276-1734-852-1734-512 0-844 614-844 1696 0 1133 358 1734 851 1734z" transform="scale(.01563)"/></defs><use xlink:href="#MyriadPro-Regular-2212"/><use xlink:href="#MyriadPro-Regular-36" x="59.6"/><use xlink:href="#MyriadPro-Regular-30" x="110.9"/></g></g><g id="xtick_2"><use xlink:href="#mdf93ac4044" id="line2d_2" x="137.264" y="323.405" style="fill:#969696;stroke:#969696;stroke-width:.4"/><g id="text_2" style="fill:#969696" transform="matrix(.14 0 0 -.14 125.91 340.345)"><defs><path id="MyriadPro-Regular-34" d="M2560 0v1133h582v441h-582v2586h-608L96 1504v-371h1933V0h531zM666 1574v13l1017 1415c115 192 218 371 346 614h19c-13-218-19-435-19-653V1574H666z" transform="scale(.01563)"/></defs><use xlink:href="#MyriadPro-Regular-2212"/><use xlink:href="#MyriadPro-Regular-34" x="59.6"/><use xlink:href="#MyriadPro-Regular-30" x="110.9"/></g></g><g id="xtick_3"><use xlink:href="#mdf93ac4044" id="line2d_3" x="182.596" y="323.405" style="fill:#969696;stroke:#969696;stroke-width:.4"/><g id="text_3" style="fill:#969696" transform="matrix(.14 0 0 -.14 171.243 340.345)"><defs><path id="MyriadPro-Regular-32" d="M2944 0v467H1075v13l333 307c877 845 1434 1466 1434 2234 0 595-378 1209-1274 1209-480 0-890-179-1178-422l180-397c192 160 505 352 883 352 621 0 825-390 825-813-6-627-486-1164-1548-2176L288 346V0h2656z" transform="scale(.01563)"/></defs><use xlink:href="#MyriadPro-Regular-2212"/><use xlink:href="#MyriadPro-Regular-32" x="59.6"/><use xlink:href="#MyriadPro-Regular-30" x="110.9"/></g></g><g id="xtick_4"><use xlink:href="#mdf93ac4044" id="line2d_4" x="227.929" y="323.405" style="fill:#969696;stroke:#969696;stroke-width:.4"/><use xlink:href="#MyriadPro-Regular-30" id="text_4" style="fill:#969696" transform="matrix(.14 0 0 -.14 224.338 340.345)"/></g><g id="xtick_5"><use xlink:href="#mdf93ac4044" id="line2d_5" x="273.261" y="323.405" style="fill:#969696;stroke:#969696;stroke-width:.4"/><g id="text_5" style="fill:#969696" transform="matrix(.14 0 0 -.14 266.08 340.345)"><use xlink:href="#MyriadPro-Regular-32"/><use xlink:href="#MyriadPro-Regular-30" x="51.3"/></g></g><g id="xtick_6"><use xlink:href="#mdf93ac4044" id="line2d_6" x="318.594" y="323.405" style="fill:#969696;stroke:#969696;stroke-width:.4"/><g id="text_6" style="fill:#969696" transform="matrix(.14 0 0 -.14 311.412 340.345)"><use xlink:href="#MyriadPro-Regular-34"/><use xlink:href="#MyriadPro-Regular-30" x="51.3"/></g></g><g id="xtick_7"><use xlink:href="#mdf93ac4044" id="line2d_7" x="363.926" y="323.405" style="fill:#969696;stroke:#969696;stroke-width:.4"/><g id="text_7" style="fill:#969696" transform="matrix(.14 0 0 -.14 356.744 340.345)"><use xlink:href="#MyriadPro-Regular-36"/><use xlink:href="#MyriadPro-Regular-30" x="51.3"/></g></g><g id="xtick_8"><use xlink:href="#mdf93ac4044" id="line2d_8" x="409.258" y="323.405" style="fill:#969696;stroke:#969696;stroke-width:.4"/><g id="text_8" style="fill:#969696" transform="matrix(.14 0 0 -.14 402.077 340.345)"><defs><path id="MyriadPro-Regular-38" d="M1062 2170c-512-218-825-589-825-1114C237 448 762-70 1632-70c794 0 1414 486 1414 1209 0 506-320 871-838 1075v20c512 243 685 620 685 972 0 519-403 1024-1210 1024-729 0-1286-448-1286-1107 0-358 198-717 659-934l6-19zm583-1831c-531 0-851 371-832 794 0 397 262 717 749 857 563-160 915-403 915-908 0-423-327-743-832-743zm6 3488c506 0 704-345 704-678 0-378-275-634-633-755-480 128-794 352-794 768 0 358 256 665 723 665z" transform="scale(.01563)"/></defs><use xlink:href="#MyriadPro-Regular-38"/><use xlink:href="#MyriadPro-Regular-30" x="51.3"/></g></g><g id="text_9" style="fill:#969696" transform="matrix(.14 0 0 -.14 230.132 371.057)"><defs><path id="MyriadPro-Regular-61" d="M2643 1901c0 621-230 1267-1177 1267-391 0-762-109-1018-275l128-371c218 140 518 230 806 230 634 0 704-461 704-717v-64C890 1978 224 1568 224 819c0-448 320-889 947-889 442 0 775 217 947 460h20l44-390h512c-38 211-51 474-51 742v1159zm-544-858c0-57-13-121-32-179-89-262-345-518-749-518-288 0-531 172-531 537 0 602 698 711 1312 698v-538z" transform="scale(.01563)"/><path id="MyriadPro-Regular-27" d="m326 4429 103-1536h345l109 1536H326z" transform="scale(.01563)"/></defs><use xlink:href="#MyriadPro-Regular-61"/><use xlink:href="#MyriadPro-Regular-27" x="48.2"/></g></g><g id="matplotlib.axis_2"><g id="ytick_1"><g id="line2d_9"><defs><path id="m44201777dd" d="M0 0h-3.5" style="stroke:#969696;stroke-width:.3"/></defs><use xlink:href="#m44201777dd" x="60.205" y="296.427" style="fill:#969696;stroke:#969696;stroke-width:.3"/></g><g id="text_10" style="fill:#969696" transform="matrix(.14 0 0 -.14 30.5 301.397)"><use xlink:href="#MyriadPro-Regular-2212"/><use xlink:href="#MyriadPro-Regular-36" x="59.6"/><use xlink:href="#MyriadPro-Regular-30" x="110.9"/></g></g><g id="ytick_2"><use xlink:href="#m44201777dd" id="line2d_10" x="60.205" y="251.094" style="fill:#969696;stroke:#969696;stroke-width:.3"/><g id="text_11" style="fill:#969696" transform="matrix(.14 0 0 -.14 30.5 256.064)"><use xlink:href="#MyriadPro-Regular-2212"/><use xlink:href="#MyriadPro-Regular-34" x="59.6"/><use xlink:href="#MyriadPro-Regular-30" x="110.9"/></g></g><g id="ytick_3"><use xlink:href="#m44201777dd" id="line2d_11" x="60.205" y="205.762" style="fill:#969696;stroke:#969696;stroke-width:.3"/><g id="text_12" style="fill:#969696" transform="matrix(.14 0 0 -.14 30.5 210.732)"><use xlink:href="#MyriadPro-Regular-2212"/><use xlink:href="#MyriadPro-Regular-32" x="59.6"/><use xlink:href="#MyriadPro-Regular-30" x="110.9"/></g></g><g id="ytick_4"><use xlink:href="#m44201777dd" id="line2d_12" x="60.205" y="160.429" style="fill:#969696;stroke:#969696;stroke-width:.3"/><use xlink:href="#MyriadPro-Regular-30" id="text_13" style="fill:#969696" transform="matrix(.14 0 0 -.14 46.024 165.4)"/></g><g id="ytick_5"><use xlink:href="#m44201777dd" id="line2d_13" x="60.205" y="115.097" style="fill:#969696;stroke:#969696;stroke-width:.3"/><g id="text_14" style="fill:#969696" transform="matrix(.14 0 0 -.14 38.842 120.067)"><use xlink:href="#MyriadPro-Regular-32"/><use xlink:href="#MyriadPro-Regular-30" x="51.3"/></g></g><g id="ytick_6"><use xlink:href="#m44201777dd" id="line2d_14" x="60.205" y="69.765" style="fill:#969696;stroke:#969696;stroke-width:.3"/><g id="text_15" style="fill:#969696" transform="matrix(.14 0 0 -.14 38.842 74.735)"><use xlink:href="#MyriadPro-Regular-34"/><use xlink:href="#MyriadPro-Regular-30" x="51.3"/></g></g><g id="text_16" style="fill:#969696" transform="matrix(.14 0 0 -.14 7.2 187.578)"><defs><path id="MyriadPro-Regular-62" d="M467 800c0-275-13-589-25-800h486l26 512h19c230-410 589-582 1037-582 691 0 1388 550 1388 1657 7 941-537 1581-1305 1581-499 0-858-224-1056-570h-13v1946H467V800zm557 998c0 90 19 167 32 231 115 429 474 691 858 691 601 0 921-531 921-1152 0-710-352-1190-941-1190-409 0-736 268-844 659-13 64-26 134-26 205v556z" transform="scale(.01563)"/></defs><use xlink:href="#MyriadPro-Regular-62"/><use xlink:href="#MyriadPro-Regular-27" x="56.9"/></g></g><path id="patch_3" d="M155.17 141.918c1.99-1.107 3.299-3.243 3.641-5.939.342-2.695-.311-5.73-1.816-8.435-1.506-2.705-3.74-4.86-6.21-5.99-2.471-1.13-4.977-1.144-6.966-.037-1.989 1.107-3.299 3.243-3.64 5.938-.343 2.696.31 5.73 1.816 8.435 1.505 2.706 3.739 4.86 6.21 5.99 2.47 1.131 4.976 1.144 6.965.038z" clip-path="url(#peeea5c0367)" style="fill:#969696"/><path id="patch_4" d="M360.063 183.128c1.459-.318 2.694-1.378 3.434-2.945.739-1.567.922-3.515.508-5.413-.414-1.898-1.39-3.593-2.715-4.71s-2.89-1.567-4.349-1.248c-1.459.318-2.694 1.377-3.433 2.944-.74 1.568-.922 3.515-.509 5.413.414 1.899 1.391 3.593 2.716 4.71 1.324 1.118 2.888 1.567 4.348 1.249z" clip-path="url(#peeea5c0367)" style="fill:#969696"/><path id="patch_5" d="M175.671 156.76c2.16-.767 3.71-2.965 4.312-6.11.602-3.145.205-6.98-1.104-10.661-1.308-3.681-3.42-6.907-5.872-8.967-2.451-2.06-5.042-2.786-7.2-2.019-2.16.767-3.71 2.966-4.312 6.11-.602 3.146-.205 6.981 1.103 10.662 1.308 3.68 3.42 6.906 5.872 8.966 2.452 2.06 5.042 2.787 7.201 2.02z" clip-path="url(#peeea5c0367)" style="fill:#969696"/><path id="patch_6" d="M131.954 130.1c1.544-.865 2.539-2.561 2.766-4.716.227-2.155-.333-4.592-1.556-6.774-1.222-2.183-3.009-3.932-4.965-4.864-1.956-.931-3.923-.969-5.466-.104-1.544.865-2.539 2.562-2.766 4.717-.227 2.155.333 4.592 1.555 6.774 1.223 2.182 3.01 3.932 4.966 4.863 1.956.932 3.922.97 5.466.104z" clip-path="url(#peeea5c0367)" style="fill:#969696"/><path id="patch_7" d="M320.665 148.295c1.493-.431 2.67-1.73 3.27-3.608.602-1.878.578-4.184-.065-6.41-.644-2.224-1.854-4.187-3.365-5.455-1.51-1.268-3.198-1.738-4.691-1.307-1.493.432-2.67 1.73-3.27 3.609-.602 1.878-.578 4.184.065 6.409.643 2.225 1.854 4.188 3.364 5.456 1.511 1.268 3.199 1.738 4.692 1.306z" clip-path="url(#peeea5c0367)" style="fill:#969696"/><path id="patch_8" d="M115.017 122.703c1.24-.593 1.91-2.246 1.865-4.597-.046-2.35-.805-5.205-2.11-7.936-1.305-2.732-3.05-5.116-4.85-6.629-1.8-1.512-3.507-2.029-4.747-1.436-1.24.592-1.911 2.246-1.865 4.596.046 2.35.805 5.206 2.11 7.937 1.305 2.731 3.05 5.116 4.85 6.628 1.799 1.512 3.507 2.03 4.747 1.437z" clip-path="url(#peeea5c0367)" style="fill:#969696"/><path id="patch_9" d="M364.61 161.8c1.04-.9 1.503-2.38 1.289-4.112-.215-1.733-1.09-3.577-2.432-5.128-1.343-1.55-3.044-2.68-4.728-3.14-1.685-.459-3.215-.212-4.254.689-1.04.9-1.503 2.38-1.288 4.112.214 1.733 1.09 3.577 2.432 5.128 1.343 1.55 3.043 2.68 4.728 3.14 1.684.459 3.214.211 4.254-.689z" clip-path="url(#peeea5c0367)" style="fill:#969696"/><path id="patch_10" d="M192.21 106.373c1.27-.81 1.745-2.752 1.32-5.4-.425-2.647-1.715-5.783-3.586-8.717-1.87-2.935-4.17-5.428-6.39-6.93-2.222-1.502-4.183-1.891-5.454-1.081-1.27.81-1.745 2.752-1.32 5.4.425 2.647 1.715 5.783 3.586 8.718 1.87 2.934 4.17 5.427 6.39 6.929 2.222 1.502 4.183 1.891 5.454 1.081z" clip-path="url(#peeea5c0367)" style="fill:#969696"/><path id="patch_11" d="M167.254 235.527c3.654 2.425 7.358 4.449 10.298 5.627 2.94 1.177 4.874 1.413 5.378.653.504-.759-.464-2.45-2.691-4.702-2.227-2.251-5.531-4.879-9.185-7.304-3.653-2.424-7.358-4.449-10.297-5.626-2.94-1.178-4.875-1.413-5.379-.654-.504.76.464 2.45 2.691 4.702 2.228 2.252 5.532 4.88 9.185 7.304z" clip-path="url(#peeea5c0367)" style="fill:#969696"/><path id="patch_12" d="M326.023 181.824c1.273-.708 2.034-2.215 2.115-4.188.08-1.973-.525-4.252-1.684-6.334-1.158-2.082-2.775-3.797-4.495-4.769-1.719-.971-3.4-1.119-4.673-.41-1.273.708-2.034 2.214-2.115 4.187-.08 1.974.525 4.252 1.684 6.334 1.158 2.082 2.775 3.798 4.495 4.77 1.719.97 3.4 1.118 4.673.41z" clip-path="url(#peeea5c0367)" style="fill:#969696"/><path id="patch_13" d="M224.405 125.747c3.507 2.93 7.38 5.131 10.764 6.12 3.385.988 6.006.683 7.285-.849 1.28-1.531 1.113-4.164-.463-7.319-1.575-3.154-4.43-6.573-7.938-9.502-3.507-2.93-7.38-5.131-10.764-6.12-3.385-.988-6.005-.683-7.285.849-1.28 1.531-1.113 4.164.463 7.319 1.575 3.154 4.43 6.573 7.938 9.502z" clip-path="url(#peeea5c0367)" style="fill:#969696"/><path id="patch_14" d="M271.497 172.03c2.357 2.634 5.074 4.752 7.552 5.89 2.479 1.136 4.516 1.198 5.663.17 1.148-1.026 1.312-3.058.456-5.646-.855-2.59-2.66-5.524-5.018-8.158-2.357-2.634-5.074-4.753-7.553-5.89-2.478-1.137-4.515-1.198-5.662-.172-1.148 1.027-1.312 3.059-.456 5.648.855 2.588 2.66 5.523 5.018 8.157z" clip-path="url(#peeea5c0367)" style="fill:#969696"/><path id="patch_15" d="M192.872 217.495c3.692 3.796 7.682 7 11.092 8.907s5.961 2.36 7.091 1.262c1.13-1.1.748-3.662-1.064-7.124-1.811-3.461-4.904-7.539-8.596-11.335-3.692-3.796-7.682-7-11.092-8.907s-5.96-2.36-7.091-1.262c-1.13 1.1-.747 3.662 1.064 7.124 1.812 3.461 4.904 7.539 8.596 11.335z" clip-path="url(#peeea5c0367)" style="fill:#969696"/><path id="patch_16" d="M119.992 163.37c-1.14 1.022-1.483 2.838-.954 5.05.528 2.21 1.886 4.635 3.773 6.74 1.888 2.104 4.151 3.717 6.292 4.482 2.14.765 3.983.62 5.123-.401 1.14-1.023 1.483-2.84.955-5.05-.53-2.211-1.887-4.636-3.774-6.74-1.888-2.105-4.151-3.717-6.292-4.483-2.14-.765-3.983-.62-5.123.401z" clip-path="url(#peeea5c0367)" style="fill:#969696"/><path id="patch_17" d="M253.392 266.065c3.208 1.265 6.453 2.051 9.022 2.184s4.25-.397 4.676-1.475c.425-1.077-.441-2.614-2.409-4.27-1.967-1.657-4.875-3.3-8.082-4.565-3.208-1.266-6.453-2.052-9.022-2.185s-4.251.398-4.676 1.475c-.425 1.078.441 2.614 2.409 4.271 1.967 1.657 4.875 3.299 8.082 4.565z" clip-path="url(#peeea5c0367)" style="fill:#969696"/><path id="patch_18" d="M319.343 242.842c1.184-.702 1.857-2.154 1.873-4.036.015-1.882-.63-4.041-1.792-6-1.163-1.96-2.748-3.561-4.407-4.45-1.66-.89-3.256-.994-4.44-.292-1.184.702-1.858 2.154-1.873 4.036-.015 1.883.63 4.041 1.792 6 1.162 1.96 2.748 3.561 4.407 4.45 1.659.89 3.256.994 4.44.292z" clip-path="url(#peeea5c0367)" style="fill:#969696"/><path id="patch_19" d="M274.274 289.098c1.995.087 3.926-.22 5.367-.853 1.441-.634 2.275-1.543 2.318-2.526.043-.984-.708-1.962-2.088-2.72-1.38-.757-3.277-1.231-5.272-1.319-1.995-.087-3.926.22-5.367.854-1.441.633-2.275 1.542-2.318 2.526-.044.983.708 1.961 2.088 2.719 1.38.757 3.277 1.231 5.272 1.319z" clip-path="url(#peeea5c0367)" style="fill:#969696"/><path id="patch_20" d="M359.678 209.07c1.736-.599 3.046-2.2 3.643-4.453.597-2.254.432-4.974-.46-7.562-.891-2.589-2.436-4.834-4.294-6.242-1.857-1.408-3.877-1.863-5.612-1.265-1.736.598-3.047 2.2-3.644 4.453s-.431 4.973.46 7.562c.892 2.588 2.437 4.834 4.294 6.241 1.858 1.408 3.877 1.863 5.613 1.265z" clip-path="url(#peeea5c0367)" style="fill:#969696"/><path id="patch_21" d="M313.054 121.237c1.268-1.13 1.813-2.969 1.514-5.11-.3-2.14-1.418-4.408-3.109-6.304-1.69-1.896-3.817-3.265-5.91-3.805-2.092-.541-3.98-.21-5.248.922-1.268 1.131-1.813 2.97-1.514 5.11.3 2.14 1.418 4.408 3.109 6.304 1.69 1.896 3.817 3.265 5.91 3.806 2.092.54 3.98.209 5.248-.923z" clip-path="url(#peeea5c0367)" style="fill:#969696"/><path id="patch_22" d="M216.574 177.09c2.656-.455 4.907-2.63 6.255-6.046 1.35-3.416 1.686-7.794.938-12.17-.75-4.377-2.523-8.394-4.93-11.167-2.408-2.773-5.254-4.076-7.91-3.621-2.656.454-4.906 2.629-6.255 6.045-1.349 3.416-1.686 7.794-.937 12.17.749 4.376 2.522 8.393 4.93 11.167 2.408 2.773 5.253 4.076 7.91 3.621z" clip-path="url(#peeea5c0367)" style="fill:#969696"/><path id="patch_23" d="M362.427 124.341c-1.386-1.492-3.191-2.483-5.017-2.753-1.825-.27-3.522.201-4.717 1.312-1.195 1.11-1.79 2.768-1.654 4.608.136 1.84.991 3.713 2.378 5.205 1.386 1.493 3.191 2.483 5.017 2.753 1.825.27 3.522-.201 4.717-1.311 1.195-1.11 1.79-2.768 1.654-4.608-.136-1.84-.99-3.713-2.378-5.206z" clip-path="url(#peeea5c0367)" style="fill:#969696"/><path id="patch_24" d="M116.368 146.45c1.19-.764 1.936-2.112 2.074-3.747.139-1.635-.342-3.423-1.336-4.971s-2.42-2.729-3.965-3.283c-1.544-.554-3.08-.436-4.27.328-1.19.764-1.936 2.112-2.075 3.747-.138 1.635.342 3.423 1.337 4.971.994 1.548 2.42 2.729 3.964 3.283 1.545.554 3.08.436 4.27-.328z" clip-path="url(#peeea5c0367)" style="fill:#969696"/><path id="patch_25" d="M275.36 217.984c1.266-.88 1.89-2.576 1.733-4.717-.158-2.14-1.084-4.55-2.574-6.698-1.49-2.148-3.423-3.86-5.373-4.757-1.95-.897-3.758-.907-5.025-.028-1.268.88-1.891 2.576-1.734 4.717.158 2.14 1.084 4.55 2.574 6.699 1.49 2.148 3.423 3.859 5.373 4.756 1.95.897 3.758.907 5.025.028z" clip-path="url(#peeea5c0367)" style="fill:#969696"/><path id="patch_26" d="M323.782 223.222c1.222-.424 2.043-1.839 2.283-3.93.241-2.093-.119-4.692-1-7.226s-2.212-4.796-3.698-6.287c-1.487-1.492-3.009-2.09-4.23-1.666-1.221.425-2.043 1.839-2.283 3.93-.24 2.093.12 4.692 1 7.226.881 2.534 2.212 4.796 3.699 6.287 1.486 1.492 3.008 2.09 4.23 1.666z" clip-path="url(#peeea5c0367)" style="fill:#969696"/><path id="patch_27" d="M272.495 115.84c1.172-1.094 1.268-3.246.265-5.98-1.002-2.736-3.02-5.831-5.609-8.605-2.59-2.774-5.539-5-8.198-6.187-2.66-1.188-4.813-1.24-5.985-.146-1.172 1.094-1.268 3.246-.266 5.98 1.002 2.736 3.02 5.831 5.61 8.605 2.589 2.774 5.538 5 8.198 6.187 2.66 1.188 4.813 1.24 5.985.146z" clip-path="url(#peeea5c0367)" style="fill:#969696"/><g id="text_17" style="fill:#969696" transform="matrix(.14 0 0 -.14 132.472 17.293)"><defs><path id="MyriadPro-Regular-4d" d="M4230 0h544l-268 4314h-711l-768-2087c-192-544-345-1017-454-1453h-19c-109 448-256 922-436 1453l-736 2087H672L371 0h531l116 1850c38 646 70 1369 83 1907h13c121-512 294-1069 499-1677L2310 26h423l761 2092c218 589 397 1133 544 1639h20c-7-538 32-1261 64-1863L4230 0z" transform="scale(.01563)"/><path id="MyriadPro-Regular-63" d="M2579 538c-160-71-371-154-691-154-614 0-1075 442-1075 1158 0 647 384 1172 1094 1172 307 0 519-71 653-148l128 436c-154 76-448 160-781 160-1011 0-1664-692-1664-1645C243 570 851-70 1786-70c416 0 742 108 889 185l-96 423z" transform="scale(.01563)"/><path id="MyriadPro-Regular-41" d="M2714 1357 3174 0h596L2298 4314h-672L160 0h576l448 1357h1530zm-1415 435 423 1248c83 262 153 525 217 781h13c64-250 128-506 224-787l422-1242H1299z" transform="scale(.01563)"/><path id="MyriadPro-Regular-64" d="M2579 4544V2694h-13c-140 250-460 474-934 474-755 0-1395-634-1389-1664C243 563 819-70 1568-70c506 0 883 262 1056 608h13l25-538h506c-19 211-26 525-26 800v3744h-563zm0-3245c0-89-6-166-25-243-103-422-448-672-826-672-608 0-915 518-915 1146 0 684 345 1196 928 1196 422 0 729-294 813-652 19-71 25-167 25-237v-538z" transform="scale(.01563)"/><path id="MyriadPro-Regular-6d" d="M467 0h551v1869c0 96 12 192 44 275 90 282 346 563 698 563 429 0 646-358 646-851V0h551v1914c0 102 19 204 45 281 96 275 345 512 665 512 455 0 672-358 672-953V0h551v1824c0 1075-608 1344-1018 1344-294 0-499-77-685-218-128-96-249-230-345-403h-13c-135 365-455 621-877 621-512 0-800-275-973-570h-19l-26 500H442c19-256 25-519 25-839V0z" transform="scale(.01563)"/><path id="MyriadPro-Regular-65" d="M2957 1446c6 58 19 148 19 263 0 569-269 1459-1280 1459-902 0-1453-736-1453-1670C243 563 813-70 1766-70c493 0 832 108 1031 198l-96 403c-211-89-455-160-858-160-563 0-1049 314-1062 1075h2176zM787 1850c45 390 295 915 864 915 634 0 787-557 781-915H787z" transform="scale(.01563)"/><path id="MyriadPro-Regular-6c" d="M467 0h563v4544H467V0z" transform="scale(.01563)"/><path id="MyriadPro-Regular-69" d="M1030 0v3098H467V0h563zM749 4320c-205 0-352-154-352-352 0-192 141-346 339-346 224 0 365 154 358 346 0 198-134 352-345 352z" transform="scale(.01563)"/><path id="MyriadPro-Regular-70" d="M467-1267h557V416h13c185-307 544-486 953-486 730 0 1408 550 1408 1664 0 940-563 1574-1312 1574-505 0-870-224-1100-602h-13l-26 532H442c12-295 25-615 25-1012v-3353zm557 3059c0 77 19 160 38 230 109 423 468 698 852 698 595 0 921-531 921-1152 0-710-345-1197-941-1197-403 0-742 269-844 659-13 71-26 148-26 231v531z" transform="scale(.01563)"/><path id="MyriadPro-Regular-73" d="M250 147C467 19 781-70 1120-70c736 0 1158 390 1158 934 0 461-275 730-812 934-404 154-589 269-589 525 0 231 185 423 518 423 288 0 512-103 634-180l141 410c-173 102-448 192-762 192-666 0-1069-410-1069-909 0-371 263-678 819-877 416-153 576-300 576-569 0-256-192-461-601-461-282 0-576 115-743 224L250 147z" transform="scale(.01563)"/><path id="MyriadPro-Regular-66" d="M1082 0v2669h748v429h-748v166c0 474 121 896 601 896 160 0 275-32 359-70l76 435c-108 45-281 89-480 89-262 0-544-83-755-288-262-249-358-646-358-1081v-147H90v-429h435V0h557z" transform="scale(.01563)"/><path id="MyriadPro-Regular-6f" d="M1779 3168c-857 0-1536-608-1536-1645C243 544 890-70 1728-70c749 0 1542 499 1542 1644 0 948-601 1594-1491 1594zm-13-422c666 0 928-666 928-1191 0-697-403-1203-940-1203-551 0-941 512-941 1190 0 589 288 1204 953 1204z" transform="scale(.01563)"/><path id="MyriadPro-Regular-72" d="M467 0h557v1651c0 96 13 186 26 263 76 422 358 723 755 723 77 0 134-7 192-19v531c-51 13-96 19-160 19-378 0-717-262-858-678h-25l-20 608H442c19-288 25-602 25-967V0z" transform="scale(.01563)"/><path id="MyriadPro-Regular-43" d="M3386 582c-224-108-570-179-909-179-1050 0-1658 679-1658 1735 0 1132 672 1779 1683 1779 359 0 660-77 871-179l134 454c-147 77-486 192-1024 192-1337 0-2253-915-2253-2266C230 704 1146-70 2362-70c524 0 934 108 1139 211l-115 441z" transform="scale(.01563)"/><path id="MyriadPro-Regular-31" d="M1510 0h544v4160h-480l-908-486 108-429 724 390h12V0z" transform="scale(.01563)"/><path id="MyriadPro-Regular-28" d="M1248 4442c-403-538-832-1357-838-2618 0-1248 435-2067 838-2598h442C1235-134 883 685 883 1824c0 1158 339 1990 807 2618h-442z" transform="scale(.01563)"/><path id="MyriadPro-Regular-55" d="M480 4314V1773C480 435 1146-70 2029-70c934 0 1632 544 1632 1868v2516h-563V1760c0-954-410-1376-1050-1376-576 0-1005 410-1005 1376v2554H480z" transform="scale(.01563)"/><path id="MyriadPro-Regular-53" d="M269 211C499 58 954-70 1370-70c1017 0 1510 582 1510 1248 0 633-371 985-1101 1267-595 230-857 429-857 832 0 294 224 646 812 646 391 0 679-128 820-205l153 455c-192 109-512 211-953 211-839 0-1396-499-1396-1171 0-608 436-973 1140-1223 582-224 812-454 812-857 0-435-332-736-902-736-384 0-749 128-998 281L269 211z" transform="scale(.01563)"/><path id="MyriadPro-Regular-29" d="M563-774c410 544 839 1356 839 2611 0 1261-429 2080-839 2605H128c461-634 806-1453 806-2599C934 691 582-141 128-774h435z" transform="scale(.01563)"/></defs><use xlink:href="#MyriadPro-Regular-4d"/><use xlink:href="#MyriadPro-Regular-61" x="80.4"/><use xlink:href="#MyriadPro-Regular-63" x="128.6"/><use xlink:href="#MyriadPro-Regular-41" x="173.4"/><use xlink:href="#MyriadPro-Regular-64" x="234.6"/><use xlink:href="#MyriadPro-Regular-61" x="291"/><use xlink:href="#MyriadPro-Regular-6d" x="339.2"/><use xlink:href="#MyriadPro-Regular-20" x="422.6"/><use xlink:href="#MyriadPro-Regular-65" x="443.8"/><use xlink:href="#MyriadPro-Regular-6c" x="493.9"/><use xlink:href="#MyriadPro-Regular-6c" x="517.5"/><use xlink:href="#MyriadPro-Regular-69" x="541.1"/><use xlink:href="#MyriadPro-Regular-70" x="564.5"/><use xlink:href="#MyriadPro-Regular-73" x="621.4"/><use xlink:href="#MyriadPro-Regular-65" x="661"/><use xlink:href="#MyriadPro-Regular-73" x="711.1"/><use xlink:href="#MyriadPro-Regular-20" x="750.7"/><use xlink:href="#MyriadPro-Regular-66" x="771.9"/><use xlink:href="#MyriadPro-Regular-6f" x="801.1"/><use xlink:href="#MyriadPro-Regular-72" x="856"/><use xlink:href="#MyriadPro-Regular-20" x="888.7"/><use xlink:href="#MyriadPro-Regular-43" x="909.9"/><use xlink:href="#MyriadPro-Regular-41" x="967.9"/><use xlink:href="#MyriadPro-Regular-4d" x="1029.1"/><use xlink:href="#MyriadPro-Regular-31" x="1109.5"/><use xlink:href="#MyriadPro-Regular-36" x="1160.8"/><use xlink:href="#MyriadPro-Regular-20" x="1212.1"/><use xlink:href="#MyriadPro-Regular-28" x="1233.3"/><use xlink:href="#MyriadPro-Regular-55" x="1261.7"/><use xlink:href="#MyriadPro-Regular-43" x="1326.4"/><use xlink:href="#MyriadPro-Regular-53" x="1384.4"/><use xlink:href="#MyriadPro-Regular-29" x="1433.7"/></g></g></g><defs><clipPath id="peeea5c0367"><path d="M60.205 57.293h349.233v266.112H60.205z"/></clipPath></defs></svg>