<svg xmlns="http://www.w3.org/2000/svg" xmlns:xlink="http://www.w3.org/1999/xlink" width="531.876" height="508.038" viewBox="0 0 398.907 381.028"><defs><style>*{stroke-linejoin:round;stroke-linecap:butt}</style></defs><g id="figure_1"><path id="patch_1" d="M0 381.028h398.907V0H0v381.028z" style="fill:none"/><g id="axes_1"><path id="patch_2" d="M68.976 323.405h322.731V57.293H68.977v266.112z" style="fill:none"/><g id="matplotlib.axis_1"><g id="xtick_1"><g id="line2d_1"><defs><path id="mb47d3b3123" d="M0 0v3.5" style="stroke:#969696;stroke-width:.4"/></defs><use xlink:href="#mb47d3b3123" x="83.238" y="323.405" style="fill:#969696;stroke:#969696;stroke-width:.4"/></g><g id="text_1" style="fill:#969696" transform="matrix(.14 0 0 -.14 68.294 340.345)"><defs><path id="MyriadPro-Regular-2212" d="M256 1901v-384h3302v384H256z" transform="scale(.01563)"/><path id="MyriadPro-Regular-32" d="M2944 0v467H1075v13l333 307c877 845 1434 1466 1434 2234 0 595-378 1209-1274 1209-480 0-890-179-1178-422l180-397c192 160 505 352 883 352 621 0 825-390 825-813-6-627-486-1164-1548-2176L288 346V0h2656z" transform="scale(.01563)"/><path id="MyriadPro-Regular-30" d="M1677 4230c-845 0-1447-768-1447-2163C243 691 794-70 1606-70c922 0 1447 780 1447 2195 0 1325-499 2105-1376 2105zm-32-435c582 0 845-672 845-1696 0-1062-276-1734-852-1734-512 0-844 614-844 1696 0 1133 358 1734 851 1734z" transform="scale(.01563)"/></defs><use xlink:href="#MyriadPro-Regular-2212"/><use xlink:href="#MyriadPro-Regular-32" x="59.6"/><use xlink:href="#MyriadPro-Regular-30" x="110.9"/><use xlink:href="#MyriadPro-Regular-30" x="162.2"/></g></g><g id="xtick_2"><use xlink:href="#mb47d3b3123" id="line2d_2" x="154.805" y="323.405" style="fill:#969696;stroke:#969696;stroke-width:.4"/><g id="text_2" style="fill:#969696" transform="matrix(.14 0 0 -.14 139.86 340.345)"><defs><path id="MyriadPro-Regular-31" d="M1510 0h544v4160h-480l-908-486 108-429 724 390h12V0z" transform="scale(.01563)"/></defs><use xlink:href="#MyriadPro-Regular-2212"/><use xlink:href="#MyriadPro-Regular-31" x="59.6"/><use xlink:href="#MyriadPro-Regular-30" x="110.9"/><use xlink:href="#MyriadPro-Regular-30" x="162.2"/></g></g><g id="xtick_3"><use xlink:href="#mb47d3b3123" id="line2d_3" x="226.371" y="323.405" style="fill:#969696;stroke:#969696;stroke-width:.4"/><use xlink:href="#MyriadPro-Regular-30" id="text_3" style="fill:#969696" transform="matrix(.14 0 0 -.14 222.78 340.345)"/></g><g id="xtick_4"><use xlink:href="#mb47d3b3123" id="line2d_4" x="297.938" y="323.405" style="fill:#969696;stroke:#969696;stroke-width:.4"/><g id="text_4" style="fill:#969696" transform="matrix(.14 0 0 -.14 287.166 340.345)"><use xlink:href="#MyriadPro-Regular-31"/><use xlink:href="#MyriadPro-Regular-30" x="51.3"/><use xlink:href="#MyriadPro-Regular-30" x="102.6"/></g></g><g id="xtick_5"><use xlink:href="#mb47d3b3123" id="line2d_5" x="369.505" y="323.405" style="fill:#969696;stroke:#969696;stroke-width:.4"/><g id="text_5" style="fill:#969696" transform="matrix(.14 0 0 -.14 358.732 340.345)"><use xlink:href="#MyriadPro-Regular-32"/><use xlink:href="#MyriadPro-Regular-30" x="51.3"/><use xlink:href="#MyriadPro-Regular-30" x="102.6"/></g></g><g id="text_6" style="fill:#969696" transform="matrix(.14 0 0 -.14 224.062 371.057)"><defs><path id="MyriadPro-Regular-61" d="M2643 1901c0 621-230 1267-1177 1267-391 0-762-109-1018-275l128-371c218 140 518 230 806 230 634 0 704-461 704-717v-64C890 1978 224 1568 224 819c0-448 320-889 947-889 442 0 775 217 947 460h20l44-390h512c-38 211-51 474-51 742v1159zm-544-858c0-57-13-121-32-179-89-262-345-518-749-518-288 0-531 172-531 537 0 602 698 711 1312 698v-538z" transform="scale(.01563)"/><path id="MyriadPro-Regular-2a" d="m1722 4384-391-896h-13l-396 890-391-224 602-781v-13l-941 122v-436l947 122v-13l-608-781 365-230 416 902h13l384-896 403 231-614 768v13l966-116v436l-966-128v12l608 800-384 218z" transform="scale(.01563)"/></defs><use xlink:href="#MyriadPro-Regular-61"/><use xlink:href="#MyriadPro-Regular-2a" x="48.2"/></g></g><g id="matplotlib.axis_2"><g id="ytick_1"><g id="line2d_6"><defs><path id="m3c32e074fc" d="M0 0h-3.5" style="stroke:#969696;stroke-width:.3"/></defs><use xlink:href="#m3c32e074fc" x="68.976" y="320.606" style="fill:#969696;stroke:#969696;stroke-width:.3"/></g><g id="text_7" style="fill:#969696" transform="matrix(.14 0 0 -.14 32.088 325.576)"><defs><path id="MyriadPro-Regular-35" d="M2771 4160H781L512 2163c154 19 339 45 576 45 832 0 1190-384 1197-922 0-556-455-902-986-902-377 0-717 128-889 230L269 186C467 58 851-70 1306-70c902 0 1548 608 1548 1420 0 525-268 884-595 1069-256 154-576 224-896 224-153 0-243-13-339-25l160 1068h1587v474z" transform="scale(.01563)"/></defs><use xlink:href="#MyriadPro-Regular-2212"/><use xlink:href="#MyriadPro-Regular-32" x="59.6"/><use xlink:href="#MyriadPro-Regular-35" x="110.9"/><use xlink:href="#MyriadPro-Regular-30" x="162.2"/></g></g><g id="ytick_2"><use xlink:href="#m3c32e074fc" id="line2d_7" x="68.976" y="284.823" style="fill:#969696;stroke:#969696;stroke-width:.3"/><g id="text_8" style="fill:#969696" transform="matrix(.14 0 0 -.14 32.088 289.793)"><use xlink:href="#MyriadPro-Regular-2212"/><use xlink:href="#MyriadPro-Regular-32" x="59.6"/><use xlink:href="#MyriadPro-Regular-30" x="110.9"/><use xlink:href="#MyriadPro-Regular-30" x="162.2"/></g></g><g id="ytick_3"><use xlink:href="#m3c32e074fc" id="line2d_8" x="68.976" y="249.039" style="fill:#969696;stroke:#969696;stroke-width:.3"/><g id="text_9" style="fill:#969696" transform="matrix(.14 0 0 -.14 32.088 254.01)"><use xlink:href="#MyriadPro-Regular-2212"/><use xlink:href="#MyriadPro-Regular-31" x="59.6"/><use xlink:href="#MyriadPro-Regular-35" x="110.9"/><use xlink:href="#MyriadPro-Regular-30" x="162.2"/></g></g><g id="ytick_4"><use xlink:href="#m3c32e074fc" id="line2d_9" x="68.976" y="213.256" style="fill:#969696;stroke:#969696;stroke-width:.3"/><g id="text_10" style="fill:#969696" transform="matrix(.14 0 0 -.14 32.088 218.226)"><use xlink:href="#MyriadPro-Regular-2212"/><use xlink:href="#MyriadPro-Regular-31" x="59.6"/><use xlink:href="#MyriadPro-Regular-30" x="110.9"/><use xlink:href="#MyriadPro-Regular-30" x="162.2"/></g></g><g id="ytick_5"><use xlink:href="#m3c32e074fc" id="line2d_10" x="68.976" y="177.473" style="fill:#969696;stroke:#969696;stroke-width:.3"/><g id="text_11" style="fill:#969696" transform="matrix(.14 0 0 -.14 39.27 182.443)"><use xlink:href="#MyriadPro-Regular-2212"/><use xlink:href="#MyriadPro-Regular-35" x="59.6"/><use xlink:href="#MyriadPro-Regular-30" x="110.9"/></g></g><g id="ytick_6"><use xlink:href="#m3c32e074fc" id="line2d_11" x="68.976" y="141.689" style="fill:#969696;stroke:#969696;stroke-width:.3"/><use xlink:href="#MyriadPro-Regular-30" id="text_12" style="fill:#969696" transform="matrix(.14 0 0 -.14 54.795 146.66)"/></g><g id="ytick_7"><use xlink:href="#m3c32e074fc" id="line2d_12" x="68.976" y="105.906" style="fill:#969696;stroke:#969696;stroke-width:.3"/><g id="text_13" style="fill:#969696" transform="matrix(.14 0 0 -.14 47.613 110.876)"><use xlink:href="#MyriadPro-Regular-35"/><use xlink:href="#MyriadPro-Regular-30" x="51.3"/></g></g><g id="ytick_8"><use xlink:href="#m3c32e074fc" id="line2d_13" x="68.976" y="70.123" style="fill:#969696;stroke:#969696;stroke-width:.3"/><g id="text_14" style="fill:#969696" transform="matrix(.14 0 0 -.14 40.432 75.093)"><use xlink:href="#MyriadPro-Regular-31"/><use xlink:href="#MyriadPro-Regular-30" x="51.3"/><use xlink:href="#MyriadPro-Regular-30" x="102.6"/></g></g><g id="text_15" style="fill:#969696" transform="matrix(.14 0 0 -.14 7.2 187.578)"><defs><path id="MyriadPro-Regular-62" d="M467 800c0-275-13-589-25-800h486l26 512h19c230-410 589-582 1037-582 691 0 1388 550 1388 1657 7 941-537 1581-1305 1581-499 0-858-224-1056-570h-13v1946H467V800zm557 998c0 90 19 167 32 231 115 429 474 691 858 691 601 0 921-531 921-1152 0-710-352-1190-941-1190-409 0-736 268-844 659-13 64-26 134-26 205v556z" transform="scale(.01563)"/></defs><use xlink:href="#MyriadPro-Regular-62"/><use xlink:href="#MyriadPro-Regular-2a" x="56.9"/></g></g><path id="patch_3" d="M176.36 125.992c2.504 1.78 5.273 2.97 7.696 3.31 2.424.34 4.303-.197 5.226-1.495.922-1.299.81-3.25-.308-5.427-1.12-2.176-3.156-4.398-5.661-6.178-2.505-1.779-5.274-2.97-7.697-3.31-2.424-.34-4.303.198-5.225 1.496-.922 1.298-.812 3.25.308 5.426 1.119 2.176 3.155 4.399 5.66 6.178z" clip-path="url(#p233e38ffc7)" style="fill:#969696"/><path id="patch_4" d="M321.239 166.737c1.052-.791 1.475-2.33 1.176-4.277-.299-1.948-1.296-4.145-2.771-6.108-1.476-1.963-3.309-3.532-5.096-4.36-1.788-.83-3.384-.85-4.436-.06-1.052.791-1.476 2.33-1.177 4.277.3 1.948 1.297 4.145 2.772 6.108 1.475 1.963 3.309 3.532 5.096 4.36 1.788.83 3.383.85 4.436.06z" clip-path="url(#p233e38ffc7)" style="fill:#969696"/><path id="patch_5" d="M206.16 138.573c.955-.812 1.16-2.424.573-4.483-.587-2.058-1.92-4.395-3.705-6.496-1.785-2.1-3.877-3.792-5.814-4.704-1.937-.912-3.562-.968-4.516-.157-.954.811-1.16 2.424-.573 4.482.588 2.059 1.92 4.396 3.706 6.496 1.785 2.1 3.876 3.793 5.813 4.704 1.937.912 3.562.969 4.516.158z" clip-path="url(#p233e38ffc7)" style="fill:#969696"/><path id="patch_6" d="M147.506 115.069c3.128 1.58 6.432 2.493 9.186 2.538 2.754.044 4.732-.783 5.499-2.3.767-1.518.26-3.602-1.41-5.792s-4.364-4.31-7.492-5.89-6.432-2.494-9.186-2.538c-2.754-.045-4.732.783-5.499 2.3-.767 1.518-.26 3.602 1.41 5.792s4.364 4.31 7.492 5.89z" clip-path="url(#p233e38ffc7)" style="fill:#969696"/><path id="patch_7" d="M275.955 132.836c1.194-.07 2.296-.89 3.063-2.277.766-1.389 1.135-3.232 1.024-5.125-.11-1.894-.691-3.682-1.614-4.971-.924-1.29-2.113-1.974-3.308-1.905-1.195.07-2.297.89-3.063 2.278-.767 1.388-1.135 3.231-1.025 5.124.111 1.894.692 3.682 1.615 4.971.923 1.29 2.113 1.975 3.308 1.905z" clip-path="url(#p233e38ffc7)" style="fill:#969696"/><path id="patch_8" d="M119.206 88.843c-4.49-2.675-9.232-4.513-13.18-5.107-3.948-.594-6.782.104-7.876 1.94-1.094 1.835-.359 4.659 2.042 7.85 2.402 3.19 6.274 6.485 10.764 9.161 4.49 2.676 9.23 4.513 13.18 5.107 3.948.594 6.78-.103 7.875-1.94 1.094-1.835.36-4.659-2.042-7.849-2.401-3.19-6.273-6.486-10.763-9.162z" clip-path="url(#p233e38ffc7)" style="fill:#969696"/><path id="patch_9" d="M317.652 144.373c.963-.89 1.284-2.394.892-4.183-.391-1.789-1.463-3.716-2.979-5.357-1.516-1.64-3.352-2.861-5.105-3.393-1.752-.531-3.277-.33-4.24.559-.962.889-1.283 2.394-.892 4.183.392 1.788 1.464 3.716 2.98 5.356 1.516 1.641 3.352 2.862 5.104 3.393 1.753.532 3.278.33 4.24-.558z" clip-path="url(#p233e38ffc7)" style="fill:#969696"/><path id="patch_10" d="M207.465 107.454c.937-.3 1.426-1.867 1.36-4.357-.066-2.49-.683-5.698-1.713-8.919-1.031-3.22-2.392-6.191-3.784-8.257-1.392-2.065-2.7-3.057-3.638-2.757-.937.3-1.426 1.867-1.36 4.357.066 2.49.683 5.698 1.714 8.92 1.03 3.22 2.392 6.19 3.783 8.256 1.392 2.065 2.7 3.057 3.638 2.757z" clip-path="url(#p233e38ffc7)" style="fill:#969696"/><path id="patch_11" d="M206.236 189.313c3.138 1.609 6.304 2.846 8.803 3.438 2.498.592 4.124.492 4.52-.28.395-.771-.472-2.15-2.411-3.833-1.939-1.683-4.791-3.533-7.93-5.142-3.137-1.61-6.304-2.846-8.802-3.438-2.498-.593-4.124-.492-4.52.28-.395.77.472 2.15 2.41 3.833 1.94 1.683 4.792 3.533 7.93 5.142z" clip-path="url(#p233e38ffc7)" style="fill:#969696"/><path id="patch_12" d="M285.223 159.491c.785-.656.973-1.964.52-3.635-.452-1.671-1.507-3.57-2.933-5.276-1.426-1.707-3.106-3.084-4.67-3.827-1.563-.743-2.883-.792-3.67-.136-.785.657-.972 1.964-.52 3.636.453 1.67 1.508 3.569 2.934 5.276 1.425 1.707 3.105 3.084 4.669 3.827 1.564.743 2.884.792 3.67.135z" clip-path="url(#p233e38ffc7)" style="fill:#969696"/><path id="patch_13" d="M231.215 125.49c1.065-.614 1.566-2.109 1.391-4.154-.174-2.045-1.01-4.475-2.322-6.754-1.313-2.279-2.995-4.22-4.677-5.398-1.682-1.177-3.225-1.494-4.29-.88-1.066.614-1.567 2.108-1.392 4.153.174 2.045 1.01 4.475 2.322 6.754 1.313 2.279 2.995 4.22 4.677 5.398 1.682 1.177 3.225 1.494 4.29.88z" clip-path="url(#p233e38ffc7)" style="fill:#969696"/><path id="patch_14" d="M244.919 147.677c1.43 1.512 3.028 2.747 4.444 3.434 1.416.686 2.533.768 3.105.226.573-.54.554-1.66-.052-3.113-.606-1.452-1.75-3.117-3.18-4.63-1.429-1.512-3.027-2.747-4.443-3.433-1.416-.687-2.533-.769-3.106-.227-.572.541-.553 1.661.053 3.113.606 1.452 1.75 3.118 3.179 4.63z" clip-path="url(#p233e38ffc7)" style="fill:#969696"/><path id="patch_15" d="M217.134 167.458c1.946 2.312 4.07 4.314 5.905 5.564s3.229 1.646 3.876 1.1c.648-.544.495-1.986-.424-4.006-.919-2.02-2.529-4.456-4.475-6.768-1.947-2.313-4.072-4.314-5.906-5.564-1.834-1.25-3.229-1.646-3.876-1.101-.648.545-.495 1.986.424 4.007.919 2.02 2.529 4.455 4.476 6.768z" clip-path="url(#p233e38ffc7)" style="fill:#969696"/><path id="patch_16" d="M154.577 150.76c3.85 1.02 7.676 1.5 10.633 1.336 2.958-.164 4.806-.96 5.138-2.213.332-1.253-.88-2.86-3.368-4.467-2.488-1.607-6.05-3.083-9.9-4.104-3.85-1.02-7.675-1.5-10.633-1.337-2.957.165-4.805.961-5.137 2.214-.332 1.252.88 2.86 3.367 4.467 2.488 1.607 6.05 3.083 9.9 4.104z" clip-path="url(#p233e38ffc7)" style="fill:#969696"/><path id="patch_17" d="M291.836 235.623c.41-.491-.904-2.386-3.652-5.268-2.748-2.882-6.706-6.515-11.002-10.1-4.297-3.584-8.58-6.827-11.908-9.014-3.328-2.188-5.428-3.14-5.837-2.65-.41.492.904 2.387 3.652 5.269s6.706 6.515 11.002 10.1c4.296 3.584 8.58 6.827 11.908 9.014 3.327 2.187 5.427 3.14 5.837 2.649z" clip-path="url(#p233e38ffc7)" style="fill:#969696"/><path id="patch_18" d="M316.807 224.262c.476-.478-.423-2.282-2.497-5.013s-5.155-6.167-8.564-9.55c-3.408-3.384-6.867-6.44-9.613-8.493-2.746-2.054-4.557-2.94-5.032-2.46-.475.478.423 2.282 2.498 5.013 2.074 2.731 5.155 6.167 8.563 9.55 3.409 3.384 6.867 6.44 9.614 8.493 2.746 2.054 4.556 2.94 5.031 2.46z" clip-path="url(#p233e38ffc7)" style="fill:#969696"/><path id="patch_19" d="M361.81 298.22c.391-.493-.942-2.317-3.706-5.072-2.764-2.755-6.732-6.215-11.03-9.617-4.298-3.403-8.576-6.471-11.892-8.529-3.315-2.058-5.397-2.937-5.787-2.444-.39.493.943 2.318 3.706 5.072 2.764 2.755 6.732 6.215 11.03 9.618 4.299 3.402 8.577 6.47 11.892 8.528 3.316 2.058 5.398 2.937 5.788 2.444z" clip-path="url(#p233e38ffc7)" style="fill:#969696"/><path id="patch_20" d="M335.916 198.413c1.035-.935.807-3.185-.635-6.253-1.442-3.068-3.98-6.704-7.055-10.108-3.075-3.403-6.436-6.295-9.343-8.04-2.907-1.745-5.122-2.2-6.157-1.264-1.036.936-.808 3.186.634 6.254 1.443 3.068 3.98 6.704 7.056 10.107 3.075 3.403 6.436 6.296 9.342 8.04 2.907 1.746 5.122 2.2 6.158 1.264z" clip-path="url(#p233e38ffc7)" style="fill:#969696"/><path id="patch_21" d="M269.907 111.66c1.342.016 2.64-.786 3.606-2.23.967-1.443 1.524-3.41 1.549-5.467.025-2.058-.484-4.038-1.416-5.505-.931-1.466-2.208-2.3-3.55-2.316-1.342-.016-2.64.786-3.606 2.23-.967 1.443-1.524 3.41-1.549 5.468-.025 2.057.484 4.037 1.416 5.504.93 1.466 2.208 2.3 3.55 2.316z" clip-path="url(#p233e38ffc7)" style="fill:#969696"/><path id="patch_22" d="M225.703 145.906c.684-.381 1.035-1.295.976-2.54-.06-1.245-.525-2.72-1.293-4.101-.768-1.38-1.777-2.554-2.803-3.26-1.027-.708-1.989-.891-2.673-.51-.684.38-1.035 1.294-.976 2.54.06 1.245.525 2.72 1.293 4.1.768 1.38 1.777 2.554 2.804 3.26 1.027.708 1.988.891 2.672.51z" clip-path="url(#p233e38ffc7)" style="fill:#969696"/><path id="patch_23" d="M309.024 116.68c1.627-.054 3.16-.912 4.263-2.386 1.103-1.473 1.685-3.442 1.619-5.473-.067-2.03-.777-3.957-1.974-5.355-1.197-1.398-2.783-2.154-4.41-2.1-1.626.053-3.16.91-4.262 2.384-1.103 1.474-1.685 3.443-1.619 5.473.067 2.031.777 3.958 1.974 5.356 1.197 1.398 2.783 2.154 4.41 2.1z" clip-path="url(#p233e38ffc7)" style="fill:#969696"/><path id="patch_24" d="M121.892 126.951c4.015.724 7.96.896 10.966.48 3.007-.418 4.829-1.39 5.066-2.703.236-1.314-1.132-2.86-3.803-4.301-2.672-1.44-6.43-2.657-10.444-3.38-4.015-.724-7.96-.897-10.967-.48-3.006.417-4.829 1.39-5.065 2.703-.237 1.313 1.131 2.86 3.803 4.301 2.671 1.44 6.428 2.657 10.444 3.38z" clip-path="url(#p233e38ffc7)" style="fill:#969696"/><path id="patch_25" d="M255.936 175.634c.446-.376.25-1.476-.546-3.059-.795-1.583-2.125-3.52-3.695-5.382-1.57-1.863-3.253-3.501-4.679-4.553-1.425-1.052-2.476-1.432-2.922-1.057-.445.376-.248 1.476.547 3.059.795 1.583 2.124 3.52 3.695 5.382 1.57 1.863 3.253 3.501 4.678 4.553 1.426 1.052 2.477 1.432 2.922 1.057z" clip-path="url(#p233e38ffc7)" style="fill:#969696"/><path id="patch_26" d="M302.373 199.229c.564-.485.083-2.138-1.336-4.596-1.42-2.459-3.662-5.52-6.233-8.513-2.57-2.992-5.26-5.67-7.478-7.442-2.216-1.773-3.779-2.497-4.343-2.012-.563.484-.083 2.138 1.336 4.596 1.42 2.458 3.662 5.52 6.233 8.512 2.57 2.992 5.261 5.67 7.478 7.443 2.216 1.773 3.779 2.497 4.343 2.012z" clip-path="url(#p233e38ffc7)" style="fill:#969696"/><path id="patch_27" d="M247.292 111.569c1.11-.297 1.899-1.608 2.194-3.646.296-2.038.073-4.635-.618-7.22-.692-2.584-1.796-4.946-3.069-6.564-1.273-1.617-2.612-2.36-3.721-2.063-1.11.297-1.899 1.608-2.194 3.646-.295 2.037-.073 4.634.618 7.22.692 2.584 1.796 4.945 3.069 6.563 1.273 1.618 2.612 2.36 3.721 2.064z" clip-path="url(#p233e38ffc7)" style="fill:#969696"/><g id="text_16" style="fill:#969696" transform="matrix(.14 0 0 -.14 146.087 17.293)"><defs><path id="MyriadPro-Regular-4d" d="M4230 0h544l-268 4314h-711l-768-2087c-192-544-345-1017-454-1453h-19c-109 448-256 922-436 1453l-736 2087H672L371 0h531l116 1850c38 646 70 1369 83 1907h13c121-512 294-1069 499-1677L2310 26h423l761 2092c218 589 397 1133 544 1639h20c-7-538 32-1261 64-1863L4230 0z" transform="scale(.01563)"/><path id="MyriadPro-Regular-63" d="M2579 538c-160-71-371-154-691-154-614 0-1075 442-1075 1158 0 647 384 1172 1094 1172 307 0 519-71 653-148l128 436c-154 76-448 160-781 160-1011 0-1664-692-1664-1645C243 570 851-70 1786-70c416 0 742 108 889 185l-96 423z" transform="scale(.01563)"/><path id="MyriadPro-Regular-41" d="M2714 1357 3174 0h596L2298 4314h-672L160 0h576l448 1357h1530zm-1415 435 423 1248c83 262 153 525 217 781h13c64-250 128-506 224-787l422-1242H1299z" transform="scale(.01563)"/><path id="MyriadPro-Regular-64" d="M2579 4544V2694h-13c-140 250-460 474-934 474-755 0-1395-634-1389-1664C243 563 819-70 1568-70c506 0 883 262 1056 608h13l25-538h506c-19 211-26 525-26 800v3744h-563zm0-3245c0-89-6-166-25-243-103-422-448-672-826-672-608 0-915 518-915 1146 0 684 345 1196 928 1196 422 0 729-294 813-652 19-71 25-167 25-237v-538z" transform="scale(.01563)"/><path id="MyriadPro-Regular-6d" d="M467 0h551v1869c0 96 12 192 44 275 90 282 346 563 698 563 429 0 646-358 646-851V0h551v1914c0 102 19 204 45 281 96 275 345 512 665 512 455 0 672-358 672-953V0h551v1824c0 1075-608 1344-1018 1344-294 0-499-77-685-218-128-96-249-230-345-403h-13c-135 365-455 621-877 621-512 0-800-275-973-570h-19l-26 500H442c19-256 25-519 25-839V0z" transform="scale(.01563)"/><path id="MyriadPro-Regular-65" d="M2957 1446c6 58 19 148 19 263 0 569-269 1459-1280 1459-902 0-1453-736-1453-1670C243 563 813-70 1766-70c493 0 832 108 1031 198l-96 403c-211-89-455-160-858-160-563 0-1049 314-1062 1075h2176zM787 1850c45 390 295 915 864 915 634 0 787-557 781-915H787z" transform="scale(.01563)"/><path id="MyriadPro-Regular-6c" d="M467 0h563v4544H467V0z" transform="scale(.01563)"/><path id="MyriadPro-Regular-69" d="M1030 0v3098H467V0h563zM749 4320c-205 0-352-154-352-352 0-192 141-346 339-346 224 0 365 154 358 346 0 198-134 352-345 352z" transform="scale(.01563)"/><path id="MyriadPro-Regular-70" d="M467-1267h557V416h13c185-307 544-486 953-486 730 0 1408 550 1408 1664 0 940-563 1574-1312 1574-505 0-870-224-1100-602h-13l-26 532H442c12-295 25-615 25-1012v-3353zm557 3059c0 77 19 160 38 230 109 423 468 698 852 698 595 0 921-531 921-1152 0-710-345-1197-941-1197-403 0-742 269-844 659-13 71-26 148-26 231v531z" transform="scale(.01563)"/><path id="MyriadPro-Regular-73" d="M250 147C467 19 781-70 1120-70c736 0 1158 390 1158 934 0 461-275 730-812 934-404 154-589 269-589 525 0 231 185 423 518 423 288 0 512-103 634-180l141 410c-173 102-448 192-762 192-666 0-1069-410-1069-909 0-371 263-678 819-877 416-153 576-300 576-569 0-256-192-461-601-461-282 0-576 115-743 224L250 147z" transform="scale(.01563)"/><path id="MyriadPro-Regular-66" d="M1082 0v2669h748v429h-748v166c0 474 121 896 601 896 160 0 275-32 359-70l76 435c-108 45-281 89-480 89-262 0-544-83-755-288-262-249-358-646-358-1081v-147H90v-429h435V0h557z" transform="scale(.01563)"/><path id="MyriadPro-Regular-6f" d="M1779 3168c-857 0-1536-608-1536-1645C243 544 890-70 1728-70c749 0 1542 499 1542 1644 0 948-601 1594-1491 1594zm-13-422c666 0 928-666 928-1191 0-697-403-1203-940-1203-551 0-941 512-941 1190 0 589 288 1204 953 1204z" transform="scale(.01563)"/><path id="MyriadPro-Regular-72" d="M467 0h557v1651c0 96 13 186 26 263 76 422 358 723 755 723 77 0 134-7 192-19v531c-51 13-96 19-160 19-378 0-717-262-858-678h-25l-20 608H442c19-288 25-602 25-967V0z" transform="scale(.01563)"/><path id="MyriadPro-Regular-43" d="M3386 582c-224-108-570-179-909-179-1050 0-1658 679-1658 1735 0 1132 672 1779 1683 1779 359 0 660-77 871-179l134 454c-147 77-486 192-1024 192-1337 0-2253-915-2253-2266C230 704 1146-70 2362-70c524 0 934 108 1139 211l-115 441z" transform="scale(.01563)"/><path id="MyriadPro-Regular-49" d="M486 4314V0h557v4314H486z" transform="scale(.01563)"/><path id="MyriadPro-Regular-45" d="M2720 2483H1043v1363h1773v468H486V0h2426v467H1043v1555h1677v461z" transform="scale(.01563)"/><path id="MyriadPro-Regular-4c" d="M486 0h2400v467H1043v3847H486V0z" transform="scale(.01563)"/><path id="MyriadPro-Regular-42" d="M486 13c186-26 480-51 864-51 704 0 1191 128 1492 403 217 211 364 493 364 864 0 640-480 979-889 1081v13c454 167 729 531 729 947 0 340-134 596-358 762-269 218-627 314-1184 314-390 0-774-39-1018-90V13zm557 3865c90 20 237 39 493 39 563 0 947-199 947-704 0-416-345-723-934-723h-506v1388zm0-1811h461c608 0 1114-243 1114-832 0-627-532-838-1108-838-198 0-358 6-467 25v1645z" transform="scale(.01563)"/></defs><use xlink:href="#MyriadPro-Regular-4d"/><use xlink:href="#MyriadPro-Regular-61" x="80.4"/><use xlink:href="#MyriadPro-Regular-63" x="128.6"/><use xlink:href="#MyriadPro-Regular-41" x="173.4"/><use xlink:href="#MyriadPro-Regular-64" x="234.6"/><use xlink:href="#MyriadPro-Regular-61" x="291"/><use xlink:href="#MyriadPro-Regular-6d" x="339.2"/><use xlink:href="#MyriadPro-Regular-20" x="422.6"/><use xlink:href="#MyriadPro-Regular-65" x="443.8"/><use xlink:href="#MyriadPro-Regular-6c" x="493.9"/><use xlink:href="#MyriadPro-Regular-6c" x="517.5"/><use xlink:href="#MyriadPro-Regular-69" x="541.1"/><use xlink:href="#MyriadPro-Regular-70" x="564.5"/><use xlink:href="#MyriadPro-Regular-73" x="621.4"/><use xlink:href="#MyriadPro-Regular-65" x="661"/><use xlink:href="#MyriadPro-Regular-73" x="711.1"/><use xlink:href="#MyriadPro-Regular-20" x="750.7"/><use xlink:href="#MyriadPro-Regular-66" x="771.9"/><use xlink:href="#MyriadPro-Regular-6f" x="801.1"/><use xlink:href="#MyriadPro-Regular-72" x="856"/><use xlink:href="#MyriadPro-Regular-20" x="888.7"/><use xlink:href="#MyriadPro-Regular-43" x="909.9"/><use xlink:href="#MyriadPro-Regular-49" x="967.9"/><use xlink:href="#MyriadPro-Regular-45" x="991.8"/><use xlink:href="#MyriadPro-Regular-4c" x="1041"/><use xlink:href="#MyriadPro-Regular-41" x="1088.2"/><use xlink:href="#MyriadPro-Regular-42" x="1149.4"/></g></g></g><defs><clipPath id="p233e38ffc7"><path d="M68.976 57.293h322.731v266.112H68.976z"/></clipPath></defs></svg>