<svg xmlns="http://www.w3.org/2000/svg" xmlns:xlink="http://www.w3.org/1999/xlink" width="344.775" height="508.038" viewBox="0 0 258.581 381.028"><defs><style>*{stroke-linejoin:round;stroke-linecap:butt}</style></defs><g id="figure_1"><path id="patch_1" d="M0 381.028h258.581V0H0v381.028z" style="fill:none"/><g id="axes_1"><path id="patch_2" d="M52.758 323.405h198.623V57.293H52.758v266.112z" style="fill:none"/><g id="matplotlib.axis_1"><g id="xtick_1"><g id="line2d_1"><defs><path id="m52bfe4583f" d="M0 0v3.5" style="stroke:#969696;stroke-width:.4"/></defs><use xlink:href="#m52bfe4583f" x="102.185" y="323.405" style="fill:#969696;stroke:#969696;stroke-width:.4"/></g><g id="text_1" style="fill:#969696" transform="matrix(.14 0 0 -.14 93.554 340.345)"><defs><path id="MyriadPro-Regular-30" d="M1677 4230c-845 0-1447-768-1447-2163C243 691 794-70 1606-70c922 0 1447 780 1447 2195 0 1325-499 2105-1376 2105zm-32-435c582 0 845-672 845-1696 0-1062-276-1734-852-1734-512 0-844 614-844 1696 0 1133 358 1734 851 1734z" transform="scale(.01563)"/><path id="MyriadPro-Regular-2e" d="M710-70c237 0 384 172 384 403 0 237-153 403-377 403S333 570 333 333c0-231 153-403 371-403h6z" transform="scale(.01563)"/><path id="MyriadPro-Regular-32" d="M2944 0v467H1075v13l333 307c877 845 1434 1466 1434 2234 0 595-378 1209-1274 1209-480 0-890-179-1178-422l180-397c192 160 505 352 883 352 621 0 825-390 825-813-6-627-486-1164-1548-2176L288 346V0h2656z" transform="scale(.01563)"/></defs><use xlink:href="#MyriadPro-Regular-30"/><use xlink:href="#MyriadPro-Regular-2e" x="51.3"/><use xlink:href="#MyriadPro-Regular-32" x="72"/></g></g><g id="xtick_2"><use xlink:href="#m52bfe4583f" id="line2d_2" x="163.206" y="323.405" style="fill:#969696;stroke:#969696;stroke-width:.4"/><g id="text_2" style="fill:#969696" transform="matrix(.14 0 0 -.14 154.575 340.345)"><defs><path id="MyriadPro-Regular-34" d="M2560 0v1133h582v441h-582v2586h-608L96 1504v-371h1933V0h531zM666 1574v13l1017 1415c115 192 218 371 346 614h19c-13-218-19-435-19-653V1574H666z" transform="scale(.01563)"/></defs><use xlink:href="#MyriadPro-Regular-30"/><use xlink:href="#MyriadPro-Regular-2e" x="51.3"/><use xlink:href="#MyriadPro-Regular-34" x="72"/></g></g><g id="xtick_3"><use xlink:href="#m52bfe4583f" id="line2d_3" x="224.227" y="323.405" style="fill:#969696;stroke:#969696;stroke-width:.4"/><g id="text_3" style="fill:#969696" transform="matrix(.14 0 0 -.14 215.596 340.345)"><defs><path id="MyriadPro-Regular-36" d="M2662 4224c-102 0-243-6-409-32-525-64-986-275-1331-614-410-410-704-1056-704-1876C218 621 800-70 1690-70c864 0 1382 704 1382 1465 0 813-518 1344-1254 1344-461 0-807-217-1005-480h-19c96 685 563 1331 1446 1479 160 25 307 32 422 25v461zM1690 365c-589 0-903 505-916 1190 0 103 26 186 64 250 154 301 468 512 807 512 518 0 857-359 857-954s-326-998-806-998h-6z" transform="scale(.01563)"/></defs><use xlink:href="#MyriadPro-Regular-30"/><use xlink:href="#MyriadPro-Regular-2e" x="51.3"/><use xlink:href="#MyriadPro-Regular-36" x="72"/></g></g><g id="text_4" style="fill:#969696" transform="matrix(.14 0 0 -.14 148.829 371.057)"><defs><path id="MyriadPro-Regular-78" d="m102 3098 1050-1517L51 0h621l448 698c115 185 224 345 326 537h13c109-185 211-358 333-537L2246 0h640L1798 1600l1056 1498h-608l-435-660c-102-166-205-326-307-512h-19c-103 173-199 333-314 506l-441 666H102z" transform="scale(.01563)"/></defs><use xlink:href="#MyriadPro-Regular-78"/></g></g><g id="matplotlib.axis_2"><g id="ytick_1"><g id="line2d_4"><defs><path id="m2e3e6728e9" d="M0 0h-3.5" style="stroke:#969696;stroke-width:.3"/></defs><use xlink:href="#m2e3e6728e9" x="52.758" y="302.78" style="fill:#969696;stroke:#969696;stroke-width:.3"/></g><g id="text_5" style="fill:#969696" transform="matrix(.14 0 0 -.14 28.497 307.75)"><use xlink:href="#MyriadPro-Regular-30"/><use xlink:href="#MyriadPro-Regular-2e" x="51.3"/><use xlink:href="#MyriadPro-Regular-30" x="72"/></g></g><g id="ytick_2"><use xlink:href="#m2e3e6728e9" id="line2d_5" x="52.758" y="272.27" style="fill:#969696;stroke:#969696;stroke-width:.3"/><g id="text_6" style="fill:#969696" transform="matrix(.14 0 0 -.14 28.497 277.24)"><defs><path id="MyriadPro-Regular-31" d="M1510 0h544v4160h-480l-908-486 108-429 724 390h12V0z" transform="scale(.01563)"/></defs><use xlink:href="#MyriadPro-Regular-30"/><use xlink:href="#MyriadPro-Regular-2e" x="51.3"/><use xlink:href="#MyriadPro-Regular-31" x="72"/></g></g><g id="ytick_3"><use xlink:href="#m2e3e6728e9" id="line2d_6" x="52.758" y="241.759" style="fill:#969696;stroke:#969696;stroke-width:.3"/><g id="text_7" style="fill:#969696" transform="matrix(.14 0 0 -.14 28.497 246.73)"><use xlink:href="#MyriadPro-Regular-30"/><use xlink:href="#MyriadPro-Regular-2e" x="51.3"/><use xlink:href="#MyriadPro-Regular-32" x="72"/></g></g><g id="ytick_4"><use xlink:href="#m2e3e6728e9" id="line2d_7" x="52.758" y="211.249" style="fill:#969696;stroke:#969696;stroke-width:.3"/><g id="text_8" style="fill:#969696" transform="matrix(.14 0 0 -.14 28.497 216.219)"><defs><path id="MyriadPro-Regular-33" d="M269 211C474 77 883-70 1350-70c999 0 1517 582 1517 1248 0 582-416 966-928 1068v13c512 186 768 551 768 979 0 506-371 992-1190 992-448 0-871-160-1088-320l147-409c179 128 499 275 832 275 518 0 730-294 730-627 0-493-519-704-928-704H896v-423h314c544 0 1068-249 1075-832 6-345-218-806-941-806-390 0-762 160-922 262L269 211z" transform="scale(.01563)"/></defs><use xlink:href="#MyriadPro-Regular-30"/><use xlink:href="#MyriadPro-Regular-2e" x="51.3"/><use xlink:href="#MyriadPro-Regular-33" x="72"/></g></g><g id="ytick_5"><use xlink:href="#m2e3e6728e9" id="line2d_8" x="52.758" y="180.738" style="fill:#969696;stroke:#969696;stroke-width:.3"/><g id="text_9" style="fill:#969696" transform="matrix(.14 0 0 -.14 28.497 185.708)"><use xlink:href="#MyriadPro-Regular-30"/><use xlink:href="#MyriadPro-Regular-2e" x="51.3"/><use xlink:href="#MyriadPro-Regular-34" x="72"/></g></g><g id="ytick_6"><use xlink:href="#m2e3e6728e9" id="line2d_9" x="52.758" y="150.228" style="fill:#969696;stroke:#969696;stroke-width:.3"/><g id="text_10" style="fill:#969696" transform="matrix(.14 0 0 -.14 28.497 155.198)"><defs><path id="MyriadPro-Regular-35" d="M2771 4160H781L512 2163c154 19 339 45 576 45 832 0 1190-384 1197-922 0-556-455-902-986-902-377 0-717 128-889 230L269 186C467 58 851-70 1306-70c902 0 1548 608 1548 1420 0 525-268 884-595 1069-256 154-576 224-896 224-153 0-243-13-339-25l160 1068h1587v474z" transform="scale(.01563)"/></defs><use xlink:href="#MyriadPro-Regular-30"/><use xlink:href="#MyriadPro-Regular-2e" x="51.3"/><use xlink:href="#MyriadPro-Regular-35" x="72"/></g></g><g id="ytick_7"><use xlink:href="#m2e3e6728e9" id="line2d_10" x="52.758" y="119.717" style="fill:#969696;stroke:#969696;stroke-width:.3"/><g id="text_11" style="fill:#969696" transform="matrix(.14 0 0 -.14 28.497 124.687)"><use xlink:href="#MyriadPro-Regular-30"/><use xlink:href="#MyriadPro-Regular-2e" x="51.3"/><use xlink:href="#MyriadPro-Regular-36" x="72"/></g></g><g id="ytick_8"><use xlink:href="#m2e3e6728e9" id="line2d_11" x="52.758" y="89.207" style="fill:#969696;stroke:#969696;stroke-width:.3"/><g id="text_12" style="fill:#969696" transform="matrix(.14 0 0 -.14 28.497 94.177)"><defs><path id="MyriadPro-Regular-37" d="M365 4160v-467h2035v-13L595 0h583l1811 3789v371H365z" transform="scale(.01563)"/></defs><use xlink:href="#MyriadPro-Regular-30"/><use xlink:href="#MyriadPro-Regular-2e" x="51.3"/><use xlink:href="#MyriadPro-Regular-37" x="72"/></g></g><g id="ytick_9"><use xlink:href="#m2e3e6728e9" id="line2d_12" x="52.758" y="58.697" style="fill:#969696;stroke:#969696;stroke-width:.3"/><g id="text_13" style="fill:#969696" transform="matrix(.14 0 0 -.14 28.497 63.667)"><defs><path id="MyriadPro-Regular-38" d="M1062 2170c-512-218-825-589-825-1114C237 448 762-70 1632-70c794 0 1414 486 1414 1209 0 506-320 871-838 1075v20c512 243 685 620 685 972 0 519-403 1024-1210 1024-729 0-1286-448-1286-1107 0-358 198-717 659-934l6-19zm583-1831c-531 0-851 371-832 794 0 397 262 717 749 857 563-160 915-403 915-908 0-423-327-743-832-743zm6 3488c506 0 704-345 704-678 0-378-275-634-633-755-480 128-794 352-794 768 0 358 256 665 723 665z" transform="scale(.01563)"/></defs><use xlink:href="#MyriadPro-Regular-30"/><use xlink:href="#MyriadPro-Regular-2e" x="51.3"/><use xlink:href="#MyriadPro-Regular-38" x="72"/></g></g><g id="text_14" style="fill:#969696" transform="matrix(.14 0 0 -.14 7.2 187.256)"><defs><path id="MyriadPro-Regular-79" d="M58 3098 1203 243c26-70 39-115 39-147s-20-77-45-134c-128-288-320-506-474-628-166-140-352-230-493-275l141-473c141 25 416 121 691 364 384 333 660 877 1063 1940l845 2208h-596l-614-1818c-77-224-141-461-198-646h-13c-51 185-128 428-199 633L672 3098H58z" transform="scale(.01563)"/></defs><use xlink:href="#MyriadPro-Regular-79"/></g></g><path id="patch_3" d="M119.523 179.238c1.723.045 3.414-1.361 4.7-3.909 1.285-2.548 2.06-6.029 2.156-9.677.095-3.648-.499-7.164-1.65-9.776-1.151-2.61-2.767-4.103-4.49-4.148-1.723-.045-3.414 1.361-4.7 3.909-1.285 2.548-2.06 6.029-2.156 9.677-.095 3.648.499 7.165 1.65 9.776 1.152 2.611 2.767 4.104 4.49 4.148z" clip-path="url(#p7b32ba1403)" style="fill:#969696"/><path id="patch_4" d="M177.17 244.904c1.95-1.119 3.667-2.46 4.773-3.726 1.106-1.266 1.51-2.355 1.125-3.028-.386-.672-1.53-.872-3.182-.556-1.652.316-3.675 1.122-5.625 2.24-1.95 1.12-3.667 2.46-4.774 3.726-1.106 1.267-1.51 2.356-1.125 3.029.386.672 1.53.872 3.182.556 1.652-.316 3.676-1.122 5.626-2.24z" clip-path="url(#p7b32ba1403)" style="fill:#969696"/><path id="patch_5" d="M123.442 197.148c1.178.314 2.641-.632 4.065-2.63 1.425-1.996 2.695-4.881 3.53-8.02.836-3.138 1.17-6.272.927-8.713-.242-2.441-1.04-3.989-2.22-4.303-1.178-.314-2.64.632-4.065 2.629-1.424 1.997-2.694 4.882-3.53 8.02-.836 3.138-1.169 6.273-.927 8.714.243 2.44 1.041 3.989 2.22 4.303z" clip-path="url(#p7b32ba1403)" style="fill:#969696"/><path id="patch_6" d="M108.898 151.306c1.827-.342 3.259-2.39 3.979-5.694.72-3.305.67-7.595-.14-11.927-.808-4.331-2.31-8.35-4.175-11.172-1.865-2.822-3.94-4.215-5.767-3.874-1.828.342-3.26 2.39-3.98 5.695-.72 3.304-.67 7.595.14 11.926.809 4.332 2.311 8.35 4.176 11.172 1.865 2.822 3.94 4.215 5.767 3.874z" clip-path="url(#p7b32ba1403)" style="fill:#969696"/><path id="patch_7" d="M187.592 213.978c1.987-1.093 3.734-2.43 4.857-3.716 1.123-1.285 1.53-2.414 1.132-3.138-.399-.724-1.57-.984-3.257-.722-1.687.261-3.751 1.023-5.738 2.117-1.987 1.094-3.735 2.431-4.858 3.716-1.123 1.286-1.53 2.415-1.131 3.139.398.724 1.57.983 3.257.722 1.687-.262 3.75-1.024 5.738-2.118z" clip-path="url(#p7b32ba1403)" style="fill:#969696"/><path id="patch_8" d="M93.24 121.611c1.882-.45 3.02-3.655 3.167-8.907.147-5.251-.711-12.121-2.385-19.097-1.674-6.975-4.026-13.486-6.54-18.1-2.513-4.613-4.982-6.952-6.863-6.5-1.881.451-3.02 3.655-3.167 8.907-.146 5.251.712 12.121 2.386 19.097 1.673 6.975 4.026 13.487 6.54 18.1 2.513 4.613 4.982 6.952 6.863 6.5z" clip-path="url(#p7b32ba1403)" style="fill:#969696"/><path id="patch_9" d="M198.55 233.831c1.696-.99 3.135-2.26 4-3.533.864-1.273 1.084-2.444.611-3.254-.473-.81-1.6-1.195-3.133-1.068-1.534.127-3.348.754-5.044 1.744-1.696.99-3.134 2.26-3.999 3.533-.865 1.273-1.085 2.444-.612 3.254s1.6 1.194 3.134 1.068c1.534-.127 3.348-.754 5.044-1.744z" clip-path="url(#p7b32ba1403)" style="fill:#969696"/><path id="patch_10" d="M152.687 163.468c.975.341 2.375-.663 3.892-2.79 1.517-2.128 3.028-5.205 4.2-8.555 1.17-3.35 1.907-6.698 2.046-9.307.14-2.61-.33-4.267-1.305-4.608-.974-.34-2.374.663-3.891 2.79-1.518 2.128-3.028 5.206-4.2 8.555-1.171 3.35-1.907 6.698-2.046 9.307-.14 2.61.33 4.268 1.304 4.608z" clip-path="url(#p7b32ba1403)" style="fill:#969696"/><path id="patch_11" d="M91.26 247.857c.74-.155 1.314-.946 1.596-2.2.283-1.252.251-2.865-.088-4.483-.34-1.617-.958-3.107-1.72-4.14-.764-1.034-1.607-1.528-2.347-1.373-.739.155-1.313.946-1.596 2.2-.283 1.253-.25 2.866.089 4.483.339 1.617.958 3.107 1.72 4.14.763 1.035 1.607 1.529 2.346 1.373z" clip-path="url(#p7b32ba1403)" style="fill:#969696"/><path id="patch_12" d="M165.423 225.32c-.558-.57-1.648-.575-3.03-.013-1.383.562-2.945 1.645-4.342 3.011-1.397 1.366-2.516 2.903-3.109 4.272-.593 1.37-.613 2.46-.055 3.03.558.571 1.648.576 3.03.014 1.383-.562 2.945-1.646 4.342-3.012 1.397-1.365 2.515-2.902 3.109-4.272.593-1.369.613-2.459.055-3.03z" clip-path="url(#p7b32ba1403)" style="fill:#969696"/><path id="patch_13" d="M153.849 192.812c1.112.535 2.682 0 4.365-1.485 1.683-1.485 3.34-3.8 4.608-6.436 1.268-2.635 2.042-5.376 2.153-7.618.11-2.242-.453-3.802-1.565-4.337-1.112-.535-2.682 0-4.365 1.485-1.683 1.485-3.34 3.8-4.609 6.436-1.268 2.635-2.042 5.376-2.152 7.618-.11 2.242.453 3.802 1.565 4.337z" clip-path="url(#p7b32ba1403)" style="fill:#969696"/><path id="patch_14" d="M142.97 222.359c.672.34 1.648.01 2.714-.919 1.066-.927 2.134-2.376 2.97-4.028.835-1.652 1.37-3.371 1.485-4.78.116-1.408-.197-2.39-.869-2.73-.672-.34-1.648-.01-2.714.918s-2.134 2.377-2.97 4.03c-.835 1.65-1.37 3.37-1.485 4.778-.115 1.409.197 2.39.869 2.73z" clip-path="url(#p7b32ba1403)" style="fill:#969696"/><path id="patch_15" d="M107.425 235.527c.617.226 1.557-.508 2.613-2.04 1.056-1.533 2.141-3.738 3.017-6.131.876-2.393 1.471-4.778 1.654-6.63.183-1.852-.061-3.02-.678-3.245-.617-.226-1.557.508-2.613 2.04-1.056 1.533-2.141 3.738-3.017 6.131-.876 2.393-1.471 4.778-1.654 6.63-.183 1.852.06 3.02.678 3.245z" clip-path="url(#p7b32ba1403)" style="fill:#969696"/><path id="patch_16" d="M91.477 201.893c1.452-.546 2.43-2.173 2.717-4.523.288-2.35-.136-5.232-1.18-8.01-1.045-2.778-2.623-5.226-4.388-6.805-1.764-1.579-3.571-2.16-5.023-1.614-1.452.546-2.429 2.173-2.717 4.523-.288 2.35.136 5.232 1.18 8.01 1.045 2.778 2.623 5.226 4.388 6.805 1.764 1.579 3.571 2.16 5.023 1.614z" clip-path="url(#p7b32ba1403)" style="fill:#969696"/><path id="patch_17" d="M96.417 273.002c.397.115.968-.43 1.587-1.517.619-1.085 1.235-2.623 1.713-4.273.478-1.651.778-3.28.835-4.529.057-1.248-.134-2.014-.532-2.13-.397-.114-.968.431-1.587 1.517-.619 1.086-1.235 2.623-1.713 4.274-.478 1.65-.778 3.28-.835 4.528-.057 1.249.135 2.015.532 2.13z" clip-path="url(#p7b32ba1403)" style="fill:#969696"/><path id="patch_18" d="M114.048 270.574c.335.243 1.11-.148 2.155-1.089 1.044-.94 2.273-2.353 3.416-3.926 1.142-1.573 2.105-3.179 2.675-4.463.571-1.285.704-2.143.37-2.386-.336-.243-1.111.148-2.156 1.089-1.044.94-2.273 2.353-3.415 3.926-1.143 1.573-2.105 3.179-2.676 4.463-.571 1.285-.704 2.143-.369 2.386z" clip-path="url(#p7b32ba1403)" style="fill:#969696"/><path id="patch_19" d="M88.854 287.729c.26.125.628-.002 1.023-.352.395-.35.785-.895 1.084-1.516.299-.62.482-1.265.51-1.792.027-.528-.104-.894-.364-1.02-.26-.125-.628.002-1.023.352-.395.35-.785.896-1.083 1.516-.299.62-.482 1.265-.51 1.793-.027.527.103.893.363 1.019z" clip-path="url(#p7b32ba1403)" style="fill:#969696"/><path id="patch_20" d="M154.443 258.573c2.286-1.77 4.277-3.729 5.535-5.444 1.257-1.716 1.679-3.049 1.17-3.705-.507-.656-1.903-.582-3.879.206-1.976.788-4.37 2.225-6.657 3.995-2.286 1.77-4.278 3.73-5.535 5.445-1.258 1.715-1.68 3.048-1.171 3.704.508.656 1.903.582 3.88-.206 1.975-.788 4.37-2.225 6.657-3.995z" clip-path="url(#p7b32ba1403)" style="fill:#969696"/><path id="patch_21" d="M203.597 199.632c1.82-.822 3.39-1.993 4.368-3.256.978-1.263 1.283-2.515.847-3.48-.436-.965-1.576-1.564-3.17-1.665-1.595-.102-3.512.303-5.331 1.124-1.819.822-3.39 1.993-4.368 3.256-.978 1.263-1.283 2.515-.847 3.48.436.965 1.577 1.564 3.17 1.666 1.595.1 3.513-.304 5.331-1.125z" clip-path="url(#p7b32ba1403)" style="fill:#969696"/><path id="patch_22" d="M136.328 205.52c.958-1.565 1.655-3.202 1.937-4.55.282-1.35.126-2.3-.433-2.641-.559-.342-1.475-.048-2.548.817-1.072.865-2.213 2.23-3.17 3.796-.958 1.566-1.655 3.203-1.937 4.552-.282 1.348-.126 2.298.433 2.64.559.342 1.475.048 2.548-.817 1.072-.865 2.213-2.231 3.17-3.796z" clip-path="url(#p7b32ba1403)" style="fill:#969696"/><path id="patch_23" d="M223.852 220.021c1.898-.447 3.63-1.255 4.814-2.244 1.184-.989 1.723-2.079 1.499-3.03-.224-.95-1.194-1.685-2.695-2.04-1.5-.356-3.41-.305-5.31.143-1.898.447-3.63 1.255-4.813 2.244-1.184.989-1.723 2.079-1.5 3.03.225.95 1.194 1.685 2.695 2.04 1.501.357 3.411.305 5.31-.143z" clip-path="url(#p7b32ba1403)" style="fill:#969696"/><path id="patch_24" d="M86.38 156.724c1.604-.652 2.588-2.636 2.738-5.517.15-2.881-.549-6.422-1.94-9.845-1.392-3.422-3.364-6.445-5.482-8.404-2.117-1.959-4.208-2.693-5.81-2.041-1.604.652-2.589 2.637-2.738 5.518-.15 2.88.548 6.422 1.94 9.844 1.392 3.422 3.364 6.445 5.481 8.404 2.118 1.96 4.208 2.693 5.812 2.041z" clip-path="url(#p7b32ba1403)" style="fill:#969696"/><path id="patch_25" d="M127.511 235.555c.87-1.637 1.545-3.292 1.874-4.602.33-1.31.287-2.167-.118-2.383-.406-.215-1.14.228-2.042 1.233-.903 1.005-1.899 2.49-2.77 4.126-.87 1.637-1.545 3.292-1.874 4.602-.33 1.31-.287 2.167.119 2.382.405.216 1.14-.228 2.042-1.233.902-1.004 1.898-2.489 2.769-4.125z" clip-path="url(#p7b32ba1403)" style="fill:#969696"/><path id="patch_26" d="M127.04 259.868c.377.313 1.335-.106 2.662-1.163 1.328-1.058 2.916-2.668 4.416-4.477 1.5-1.808 2.79-3.668 3.583-5.168.794-1.5 1.028-2.519.65-2.832-.377-.313-1.335.106-2.662 1.163-1.328 1.058-2.917 2.668-4.416 4.477-1.5 1.809-2.79 3.668-3.583 5.168-.794 1.5-1.028 2.519-.65 2.832z" clip-path="url(#p7b32ba1403)" style="fill:#969696"/><path id="patch_27" d="M179.328 188.494c.878.69 2.337.565 4.054-.345 1.718-.91 3.554-2.53 5.104-4.506 1.55-1.976 2.688-4.145 3.163-6.03.475-1.885.249-3.33-.63-4.02-.879-.69-2.337-.565-4.055.344-1.717.91-3.553 2.532-5.103 4.507-1.55 1.976-2.688 4.145-3.163 6.03-.475 1.884-.249 3.33.63 4.02z" clip-path="url(#p7b32ba1403)" style="fill:#969696"/><g id="text_15" style="fill:#969696" transform="matrix(.14 0 0 -.14 74.46 17.293)"><defs><path id="MyriadPro-Regular-4d" d="M4230 0h544l-268 4314h-711l-768-2087c-192-544-345-1017-454-1453h-19c-109 448-256 922-436 1453l-736 2087H672L371 0h531l116 1850c38 646 70 1369 83 1907h13c121-512 294-1069 499-1677L2310 26h423l761 2092c218 589 397 1133 544 1639h20c-7-538 32-1261 64-1863L4230 0z" transform="scale(.01563)"/><path id="MyriadPro-Regular-61" d="M2643 1901c0 621-230 1267-1177 1267-391 0-762-109-1018-275l128-371c218 140 518 230 806 230 634 0 704-461 704-717v-64C890 1978 224 1568 224 819c0-448 320-889 947-889 442 0 775 217 947 460h20l44-390h512c-38 211-51 474-51 742v1159zm-544-858c0-57-13-121-32-179-89-262-345-518-749-518-288 0-531 172-531 537 0 602 698 711 1312 698v-538z" transform="scale(.01563)"/><path id="MyriadPro-Regular-63" d="M2579 538c-160-71-371-154-691-154-614 0-1075 442-1075 1158 0 647 384 1172 1094 1172 307 0 519-71 653-148l128 436c-154 76-448 160-781 160-1011 0-1664-692-1664-1645C243 570 851-70 1786-70c416 0 742 108 889 185l-96 423z" transform="scale(.01563)"/><path id="MyriadPro-Regular-41" d="M2714 1357 3174 0h596L2298 4314h-672L160 0h576l448 1357h1530zm-1415 435 423 1248c83 262 153 525 217 781h13c64-250 128-506 224-787l422-1242H1299z" transform="scale(.01563)"/><path id="MyriadPro-Regular-64" d="M2579 4544V2694h-13c-140 250-460 474-934 474-755 0-1395-634-1389-1664C243 563 819-70 1568-70c506 0 883 262 1056 608h13l25-538h506c-19 211-26 525-26 800v3744h-563zm0-3245c0-89-6-166-25-243-103-422-448-672-826-672-608 0-915 518-915 1146 0 684 345 1196 928 1196 422 0 729-294 813-652 19-71 25-167 25-237v-538z" transform="scale(.01563)"/><path id="MyriadPro-Regular-6d" d="M467 0h551v1869c0 96 12 192 44 275 90 282 346 563 698 563 429 0 646-358 646-851V0h551v1914c0 102 19 204 45 281 96 275 345 512 665 512 455 0 672-358 672-953V0h551v1824c0 1075-608 1344-1018 1344-294 0-499-77-685-218-128-96-249-230-345-403h-13c-135 365-455 621-877 621-512 0-800-275-973-570h-19l-26 500H442c19-256 25-519 25-839V0z" transform="scale(.01563)"/><path id="MyriadPro-Regular-65" d="M2957 1446c6 58 19 148 19 263 0 569-269 1459-1280 1459-902 0-1453-736-1453-1670C243 563 813-70 1766-70c493 0 832 108 1031 198l-96 403c-211-89-455-160-858-160-563 0-1049 314-1062 1075h2176zM787 1850c45 390 295 915 864 915 634 0 787-557 781-915H787z" transform="scale(.01563)"/><path id="MyriadPro-Regular-6c" d="M467 0h563v4544H467V0z" transform="scale(.01563)"/><path id="MyriadPro-Regular-69" d="M1030 0v3098H467V0h563zM749 4320c-205 0-352-154-352-352 0-192 141-346 339-346 224 0 365 154 358 346 0 198-134 352-345 352z" transform="scale(.01563)"/><path id="MyriadPro-Regular-70" d="M467-1267h557V416h13c185-307 544-486 953-486 730 0 1408 550 1408 1664 0 940-563 1574-1312 1574-505 0-870-224-1100-602h-13l-26 532H442c12-295 25-615 25-1012v-3353zm557 3059c0 77 19 160 38 230 109 423 468 698 852 698 595 0 921-531 921-1152 0-710-345-1197-941-1197-403 0-742 269-844 659-13 71-26 148-26 231v531z" transform="scale(.01563)"/><path id="MyriadPro-Regular-73" d="M250 147C467 19 781-70 1120-70c736 0 1158 390 1158 934 0 461-275 730-812 934-404 154-589 269-589 525 0 231 185 423 518 423 288 0 512-103 634-180l141 410c-173 102-448 192-762 192-666 0-1069-410-1069-909 0-371 263-678 819-877 416-153 576-300 576-569 0-256-192-461-601-461-282 0-576 115-743 224L250 147z" transform="scale(.01563)"/><path id="MyriadPro-Regular-66" d="M1082 0v2669h748v429h-748v166c0 474 121 896 601 896 160 0 275-32 359-70l76 435c-108 45-281 89-480 89-262 0-544-83-755-288-262-249-358-646-358-1081v-147H90v-429h435V0h557z" transform="scale(.01563)"/><path id="MyriadPro-Regular-6f" d="M1779 3168c-857 0-1536-608-1536-1645C243 544 890-70 1728-70c749 0 1542 499 1542 1644 0 948-601 1594-1491 1594zm-13-422c666 0 928-666 928-1191 0-697-403-1203-940-1203-551 0-941 512-941 1190 0 589 288 1204 953 1204z" transform="scale(.01563)"/><path id="MyriadPro-Regular-72" d="M467 0h557v1651c0 96 13 186 26 263 76 422 358 723 755 723 77 0 134-7 192-19v531c-51 13-96 19-160 19-378 0-717-262-858-678h-25l-20 608H442c19-288 25-602 25-967V0z" transform="scale(.01563)"/><path id="MyriadPro-Regular-59" d="M2010 0v1837l1446 2477h-634l-620-1191c-167-326-314-608-436-889h-12c-135 300-263 563-429 889L717 4314H83l1363-2484V0h564z" transform="scale(.01563)"/></defs><use xlink:href="#MyriadPro-Regular-4d"/><use xlink:href="#MyriadPro-Regular-61" x="80.4"/><use xlink:href="#MyriadPro-Regular-63" x="128.6"/><use xlink:href="#MyriadPro-Regular-41" x="173.4"/><use xlink:href="#MyriadPro-Regular-64" x="234.6"/><use xlink:href="#MyriadPro-Regular-61" x="291"/><use xlink:href="#MyriadPro-Regular-6d" x="339.2"/><use xlink:href="#MyriadPro-Regular-20" x="422.6"/><use xlink:href="#MyriadPro-Regular-65" x="443.8"/><use xlink:href="#MyriadPro-Regular-6c" x="493.9"/><use xlink:href="#MyriadPro-Regular-6c" x="517.5"/><use xlink:href="#MyriadPro-Regular-69" x="541.1"/><use xlink:href="#MyriadPro-Regular-70" x="564.5"/><use xlink:href="#MyriadPro-Regular-73" x="621.4"/><use xlink:href="#MyriadPro-Regular-65" x="661"/><use xlink:href="#MyriadPro-Regular-73" x="711.1"/><use xlink:href="#MyriadPro-Regular-20" x="750.7"/><use xlink:href="#MyriadPro-Regular-66" x="771.9"/><use xlink:href="#MyriadPro-Regular-6f" x="801.1"/><use xlink:href="#MyriadPro-Regular-72" x="856"/><use xlink:href="#MyriadPro-Regular-20" x="888.7"/><use xlink:href="#MyriadPro-Regular-78" x="909.9"/><use xlink:href="#MyriadPro-Regular-79" x="956.2"/><use xlink:href="#MyriadPro-Regular-59" x="1003.3"/><use xlink:href="#MyriadPro-Regular-31" x="1057.4"/></g></g></g><defs><clipPath id="p7b32ba1403"><path d="M52.758 57.293h198.623v266.112H52.758z"/></clipPath></defs></svg>