<svg xmlns="http://www.w3.org/2000/svg" xmlns:xlink="http://www.w3.org/1999/xlink" width="329.274" height="476.799" viewBox="0 0 246.956 357.599"><defs><style>*{stroke-linecap:butt;stroke-linejoin:round}</style></defs><g id="figure_1"><path id="patch_1" fill="none" d="M0 357.6h246.956V0H0z"/><g id="axes_1"><path id="patch_2" fill="none" d="M41.133 313.504h198.623V47.392H41.133z"/><path id="patch_3" fill="#969696" d="M107.897 169.337c1.724.045 3.414-1.362 4.7-3.91 1.286-2.547 2.061-6.028 2.156-9.676.095-3.648-.498-7.165-1.65-9.776-1.15-2.611-2.766-4.104-4.49-4.149-1.722-.045-3.413 1.362-4.699 3.91-1.285 2.547-2.061 6.028-2.156 9.676-.095 3.648.498 7.165 1.65 9.776 1.151 2.612 2.766 4.104 4.49 4.149z" clip-path="url(#p30200b1b5d)"/><path id="patch_4" fill="#969696" d="M165.544 235.003c1.95-1.12 3.667-2.46 4.773-3.726 1.107-1.267 1.511-2.356 1.126-3.028-.386-.672-1.53-.873-3.182-.557-1.652.316-3.676 1.122-5.626 2.241-1.95 1.119-3.667 2.46-4.773 3.726-1.106 1.266-1.511 2.356-1.125 3.028.385.672 1.53.872 3.182.557 1.651-.316 3.675-1.122 5.625-2.241z" clip-path="url(#p30200b1b5d)"/><path id="patch_5" fill="#969696" d="M111.816 187.246c1.179.314 2.642-.632 4.066-2.629 1.424-1.997 2.694-4.882 3.53-8.02.836-3.138 1.17-6.273.927-8.714-.243-2.44-1.04-3.989-2.22-4.302-1.178-.314-2.64.631-4.065 2.628-1.424 1.997-2.694 4.883-3.53 8.02-.836 3.139-1.17 6.273-.927 8.714.242 2.441 1.04 3.99 2.22 4.303z" clip-path="url(#p30200b1b5d)"/><path id="patch_6" fill="#969696" d="M97.272 141.404c1.828-.341 3.26-2.39 3.98-5.694.72-3.304.67-7.595-.14-11.926-.809-4.332-2.311-8.351-4.176-11.173-1.864-2.821-3.939-4.215-5.767-3.873-1.827.341-3.259 2.39-3.979 5.694-.72 3.305-.67 7.595.14 11.927.809 4.331 2.31 8.35 4.175 11.172 1.865 2.821 3.94 4.215 5.767 3.873z" clip-path="url(#p30200b1b5d)"/><path id="patch_7" fill="#969696" d="M175.966 204.077c1.987-1.094 3.735-2.431 4.858-3.716 1.123-1.286 1.53-2.415 1.131-3.139-.398-.724-1.57-.983-3.257-.722-1.687.262-3.75 1.024-5.738 2.118-1.987 1.093-3.734 2.43-4.857 3.716-1.123 1.285-1.53 2.414-1.132 3.138.399.724 1.57.984 3.257.722 1.687-.261 3.751-1.023 5.738-2.117z" clip-path="url(#p30200b1b5d)"/><path id="patch_8" fill="#969696" d="M81.615 111.71c1.881-.451 3.02-3.656 3.167-8.907.146-5.252-.712-12.122-2.385-19.097-1.674-6.976-4.027-13.487-6.54-18.1-2.514-4.614-4.983-6.952-6.864-6.5-1.88.45-3.02 3.655-3.166 8.906-.147 5.252.711 12.122 2.385 19.097 1.674 6.976 4.026 13.487 6.54 18.1 2.513 4.614 4.982 6.952 6.863 6.5z" clip-path="url(#p30200b1b5d)"/><path id="patch_9" fill="#969696" d="M186.925 223.93c1.696-.99 3.135-2.261 4-3.534.864-1.273 1.084-2.443.61-3.254-.472-.81-1.6-1.194-3.133-1.067-1.533.126-3.348.754-5.043 1.743-1.696.99-3.135 2.26-4 3.534-.864 1.273-1.084 2.443-.611 3.253.473.81 1.6 1.195 3.134 1.068 1.533-.127 3.347-.754 5.043-1.743z" clip-path="url(#p30200b1b5d)"/><path id="patch_10" fill="#969696" d="M141.062 153.567c.974.34 2.374-.663 3.892-2.791 1.517-2.128 3.028-5.205 4.199-8.555 1.171-3.35 1.907-6.697 2.047-9.307.139-2.61-.33-4.267-1.305-4.608-.975-.34-2.375.664-3.892 2.791-1.517 2.128-3.028 5.205-4.2 8.555-1.17 3.35-1.907 6.697-2.046 9.307-.14 2.61.33 4.267 1.305 4.608z" clip-path="url(#p30200b1b5d)"/><path id="patch_11" fill="#969696" d="M79.635 237.956c.739-.155 1.313-.946 1.596-2.2.283-1.253.251-2.866-.088-4.483-.34-1.617-.959-3.107-1.721-4.141-.763-1.034-1.607-1.528-2.346-1.373-.74.155-1.313.947-1.596 2.2-.283 1.253-.251 2.866.088 4.483.34 1.618.959 3.107 1.721 4.141.763 1.034 1.607 1.528 2.346 1.373z" clip-path="url(#p30200b1b5d)"/><path id="patch_12" fill="#969696" d="M153.797 215.419c-.558-.571-1.648-.576-3.03-.014-1.383.563-2.944 1.646-4.341 3.012-1.398 1.366-2.516 2.902-3.11 4.272-.593 1.37-.613 2.46-.055 3.03.558.57 1.649.575 3.031.013 1.382-.562 2.944-1.645 4.341-3.011 1.397-1.366 2.516-2.903 3.11-4.272.592-1.37.612-2.46.054-3.03z" clip-path="url(#p30200b1b5d)"/><path id="patch_13" fill="#969696" d="M142.223 182.91c1.112.535 2.682.001 4.365-1.484 1.683-1.485 3.341-3.8 4.609-6.436 1.268-2.636 2.042-5.376 2.152-7.618.11-2.242-.452-3.802-1.564-4.337-1.112-.535-2.683-.001-4.366 1.484-1.682 1.485-3.34 3.8-4.608 6.436-1.268 2.636-2.042 5.376-2.153 7.618-.11 2.242.453 3.802 1.565 4.337z" clip-path="url(#p30200b1b5d)"/><path id="patch_14" fill="#969696" d="M131.344 212.457c.672.34 1.649.01 2.714-.918 1.066-.928 2.135-2.377 2.97-4.029.835-1.651 1.37-3.37 1.485-4.779.116-1.408-.196-2.39-.868-2.73-.672-.34-1.648-.01-2.714.918-1.066.927-2.134 2.377-2.97 4.029-.835 1.651-1.37 3.37-1.485 4.779-.116 1.408.197 2.39.868 2.73z" clip-path="url(#p30200b1b5d)"/><path id="patch_15" fill="#969696" d="M95.8 225.625c.617.226 1.557-.508 2.613-2.04 1.055-1.532 2.14-3.738 3.017-6.13.876-2.394 1.47-4.779 1.654-6.63.183-1.852-.061-3.02-.679-3.246-.617-.226-1.557.508-2.613 2.04-1.055 1.533-2.14 3.739-3.017 6.132-.876 2.392-1.47 4.777-1.654 6.63-.183 1.851.061 3.019.679 3.244z" clip-path="url(#p30200b1b5d)"/><path id="patch_16" fill="#969696" d="M79.852 191.991c1.451-.545 2.429-2.172 2.717-4.523.288-2.35-.137-5.231-1.181-8.01-1.044-2.778-2.622-5.226-4.387-6.805-1.765-1.578-3.572-2.159-5.023-1.613-1.452.545-2.43 2.172-2.718 4.522-.288 2.35.137 5.232 1.181 8.01 1.044 2.779 2.622 5.227 4.387 6.805 1.765 1.58 3.572 2.16 5.024 1.614z" clip-path="url(#p30200b1b5d)"/><path id="patch_17" fill="#969696" d="M84.791 263.1c.398.115.969-.43 1.588-1.516.619-1.086 1.235-2.623 1.713-4.274.477-1.65.778-3.28.835-4.528.057-1.249-.135-2.015-.532-2.13-.397-.115-.968.43-1.587 1.517-.62 1.085-1.235 2.623-1.713 4.273-.478 1.651-.778 3.28-.835 4.528-.057 1.249.134 2.015.531 2.13z" clip-path="url(#p30200b1b5d)"/><path id="patch_18" fill="#969696" d="M102.423 260.673c.335.243 1.11-.149 2.154-1.09 1.045-.94 2.274-2.352 3.416-3.925 1.142-1.574 2.105-3.18 2.676-4.464.571-1.284.704-2.143.369-2.386-.335-.243-1.11.149-2.155 1.09-1.045.94-2.274 2.352-3.416 3.925-1.142 1.574-2.105 3.18-2.676 4.464-.57 1.284-.703 2.142-.368 2.386z" clip-path="url(#p30200b1b5d)"/><path id="patch_19" fill="#969696" d="M77.229 277.827c.26.125.628-.001 1.023-.351.395-.35.785-.896 1.084-1.516.298-.62.482-1.266.509-1.793.027-.527-.103-.894-.363-1.019-.26-.125-.628.001-1.023.352-.395.35-.785.895-1.084 1.516-.299.62-.482 1.265-.51 1.792-.027.527.104.894.364 1.019z" clip-path="url(#p30200b1b5d)"/><path id="patch_20" fill="#969696" d="M142.817 248.671c2.287-1.77 4.278-3.728 5.535-5.444 1.258-1.716 1.68-3.048 1.171-3.704-.508-.656-1.903-.582-3.88.205-1.975.788-4.37 2.225-6.657 3.996-2.286 1.77-4.277 3.729-5.535 5.444-1.257 1.716-1.679 3.048-1.17 3.704.507.657 1.903.582 3.879-.205 1.976-.788 4.37-2.225 6.657-3.996z" clip-path="url(#p30200b1b5d)"/><path id="patch_21" fill="#969696" d="M191.972 189.73c1.819-.821 3.39-1.993 4.368-3.256.978-1.263 1.282-2.515.847-3.48-.436-.965-1.577-1.564-3.171-1.665-1.594-.101-3.512.303-5.33 1.125-1.82.821-3.39 1.993-4.369 3.256-.978 1.263-1.282 2.515-.846 3.48.436.965 1.576 1.564 3.17 1.665 1.595.101 3.512-.303 5.331-1.125z" clip-path="url(#p30200b1b5d)"/><path id="patch_22" fill="#969696" d="M124.703 195.619c.958-1.565 1.654-3.203 1.936-4.551.282-1.35.127-2.3-.432-2.641-.56-.342-1.476-.048-2.548.817-1.073.865-2.213 2.231-3.17 3.797-.959 1.565-1.655 3.202-1.937 4.551-.282 1.349-.127 2.299.432 2.64.56.343 1.476.049 2.548-.817 1.073-.865 2.213-2.23 3.17-3.796z" clip-path="url(#p30200b1b5d)"/><path id="patch_23" fill="#969696" d="M212.226 210.12c1.899-.448 3.63-1.255 4.815-2.244 1.183-.99 1.723-2.08 1.498-3.03-.224-.951-1.193-1.685-2.694-2.041-1.501-.356-3.411-.304-5.31.143-1.898.448-3.63 1.255-4.814 2.244-1.184.99-1.723 2.08-1.499 3.03.225.951 1.194 1.685 2.695 2.041 1.5.356 3.411.304 5.31-.143z" clip-path="url(#p30200b1b5d)"/><path id="patch_24" fill="#969696" d="M74.755 146.823c1.603-.652 2.588-2.637 2.737-5.518.15-2.88-.548-6.422-1.94-9.844-1.392-3.422-3.363-6.446-5.481-8.404-2.118-1.96-4.208-2.694-5.811-2.042-1.603.652-2.588 2.637-2.738 5.518-.15 2.88.549 6.422 1.94 9.844 1.392 3.423 3.364 6.446 5.482 8.405 2.117 1.959 4.208 2.693 5.811 2.04z" clip-path="url(#p30200b1b5d)"/><path id="patch_25" fill="#969696" d="M115.886 225.653c.87-1.637 1.545-3.292 1.874-4.602.33-1.31.286-2.167-.119-2.382-.405-.216-1.14.228-2.042 1.233-.902 1.004-1.898 2.489-2.77 4.125-.87 1.637-1.544 3.293-1.873 4.602-.33 1.31-.287 2.167.118 2.383.405.215 1.14-.228 2.042-1.233.903-1.005 1.899-2.49 2.77-4.126z" clip-path="url(#p30200b1b5d)"/><path id="patch_26" fill="#969696" d="M115.414 249.966c.378.313 1.335-.105 2.663-1.163 1.327-1.057 2.916-2.668 4.416-4.476 1.5-1.809 2.789-3.668 3.582-5.168.794-1.5 1.028-2.52.65-2.832-.377-.313-1.334.105-2.662 1.163-1.327 1.057-2.916 2.668-4.416 4.476-1.5 1.809-2.789 3.668-3.582 5.168-.794 1.5-1.028 2.52-.65 2.832z" clip-path="url(#p30200b1b5d)"/><path id="patch_27" fill="#969696" d="M167.702 178.592c.879.69 2.337.566 4.055-.344 1.717-.91 3.553-2.531 5.104-4.507 1.55-1.976 2.688-4.145 3.163-6.03.475-1.884.248-3.33-.63-4.02-.879-.689-2.338-.565-4.055.345-1.717.91-3.553 2.53-5.104 4.507-1.55 1.976-2.688 4.145-3.163 6.03-.475 1.884-.248 3.33.63 4.02z" clip-path="url(#p30200b1b5d)"/><g id="matplotlib.axis_1"><g id="xtick_1"><g id="line2d_1"><defs><path id="mb99a558432" stroke="#969696" stroke-width=".4" d="M0 0v3.5"/></defs><use xlink:href="#mb99a558432" x="90.56" y="313.504" fill="#969696" stroke="#969696" stroke-width=".4"/></g><g id="text_1" fill="#969696" transform="matrix(.14 0 0 -.14 80.83 330.553)"><defs><path id="HelveticaWorld-Regular-48" d="M42.484 34.188q0 14.109-3.734 21.156-3.734 7.062-10.969 7.062-7.078 0-10.89-7.062-3.797-7.047-3.797-21.157 0-13.671 3.75-20.937Q20.609 6 27.78 6q7.235 0 10.969 7 3.734 7.016 3.734 21.188zm9.422 0q0-17.297-6.25-26.704-6.25-9.39-17.875-9.39-12.062 0-18.062 9.734-6 9.75-6 26.36 0 17.03 6.14 26.578 6.157 9.547 17.922 9.547 11.625 0 17.875-9.5t6.25-26.626z"/><path id="HelveticaWorld-Regular-46" d="M19.094 0H8.687v10.594h10.407z"/><path id="HelveticaWorld-Regular-50" d="M4.39 45.125q0 12.39 6.391 18.781 6.406 6.407 17.938 6.407 9.656 0 15.812-5.86 6.157-5.86 6.157-15.14 0-7.22-3.547-12.188-3.532-4.953-10.422-8.703l-12.11-6.64Q13.922 15.921 12.5 8.296h38.188V0H2.593q.39 9.906 4.297 16.5 3.906 6.594 12.203 11.375l12.593 7.328q5.032 2.89 7.329 5.984 2.297 3.094 2.297 8.516 0 5.375-3.766 9.031-3.75 3.672-10.156 3.672-7.078 0-10.594-4.672-3.516-4.656-3.61-12.609z"/></defs><use xlink:href="#HelveticaWorld-Regular-48"/><use xlink:href="#HelveticaWorld-Regular-46" x="55.615"/><use xlink:href="#HelveticaWorld-Regular-50" x="83.398"/></g></g><g id="xtick_2"><use xlink:href="#mb99a558432" id="line2d_2" x="151.58" y="313.504" fill="#969696" stroke="#969696" stroke-width=".4"/><g id="text_2" fill="#969696" transform="matrix(.14 0 0 -.14 141.85 330.553)"><defs><path id="HelveticaWorld-Regular-52" d="M10.594 24.703h22.61v31.89h-.188zM42 17.093V0h-8.797v17.094H2.484v8.593L34.72 70.314H42v-45.61h10.297v-7.61z"/></defs><use xlink:href="#HelveticaWorld-Regular-48"/><use xlink:href="#HelveticaWorld-Regular-46" x="55.615"/><use xlink:href="#HelveticaWorld-Regular-52" x="83.398"/></g></g><g id="xtick_3"><use xlink:href="#mb99a558432" id="line2d_3" x="212.601" y="313.504" fill="#969696" stroke="#969696" stroke-width=".4"/><g id="text_3" fill="#969696" transform="matrix(.14 0 0 -.14 202.871 330.553)"><defs><path id="HelveticaWorld-Regular-54" d="M14.11 21.578q0-6.875 4.093-11.234Q22.313 6 28.906 6q6.297 0 10.032 4.438 3.734 4.453 3.734 11.687 0 6.297-3.688 10.547-3.687 4.25-10.468 4.25-6.594 0-10.5-4.156-3.907-4.157-3.907-11.188zM41.702 51.61q-.984 5.375-3.984 8.078-3 2.72-8.125 2.72-8.11 0-12.36-7.923-4.25-7.906-4.343-18.109l.203-.188q5.61 8.641 16.687 8.641 8.844 0 15.438-5.86 6.593-5.859 6.593-16.452 0-10.5-6.25-17.47-6.25-6.952-16.843-6.952-12.219 0-18.563 8.687-6.344 8.703-6.344 25.938 0 16.593 6.485 27.093 6.5 10.5 19.484 10.5 8.407 0 14.219-5.015 5.813-5 6.297-13.688z"/></defs><use xlink:href="#HelveticaWorld-Regular-48"/><use xlink:href="#HelveticaWorld-Regular-46" x="55.615"/><use xlink:href="#HelveticaWorld-Regular-54" x="83.398"/></g></g><g id="text_4" fill="#969696" transform="matrix(.14 0 0 -.14 136.944 347.5)"><defs><path id="HelveticaWorld-Regular-120" d="M49.031 0H37.703l-12.89 19.672L12.203 0H1.125l18.266 26.906L2 52.296h11.188l12.109-18.405L37.5 52.297h10.688l-17.579-25.39z"/></defs><use xlink:href="#HelveticaWorld-Regular-120"/></g></g><g id="matplotlib.axis_2"><g id="ytick_1"><g id="line2d_4"><defs><path id="m0fcb49e530" stroke="#969696" stroke-width=".3" d="M0 0h-3.5"/></defs><use xlink:href="#m0fcb49e530" x="41.133" y="292.879" fill="#969696" stroke="#969696" stroke-width=".3"/></g><g id="text_5" fill="#969696" transform="matrix(.14 0 0 -.14 14.673 297.903)"><use xlink:href="#HelveticaWorld-Regular-48"/><use xlink:href="#HelveticaWorld-Regular-46" x="55.615"/><use xlink:href="#HelveticaWorld-Regular-48" x="83.398"/></g></g><g id="ytick_2"><use xlink:href="#m0fcb49e530" id="line2d_5" x="41.133" y="262.368" fill="#969696" stroke="#969696" stroke-width=".3"/><g id="text_6" fill="#969696" transform="matrix(.14 0 0 -.14 14.673 267.393)"><defs><path id="HelveticaWorld-Regular-49" d="M35.89 0h-9.374v49.906H10.109v6.985q8.594.28 12.782 2.75Q27.094 62.109 29 70.313h6.89z"/></defs><use xlink:href="#HelveticaWorld-Regular-48"/><use xlink:href="#HelveticaWorld-Regular-46" x="55.615"/><use xlink:href="#HelveticaWorld-Regular-49" x="83.398"/></g></g><g id="ytick_3"><use xlink:href="#m0fcb49e530" id="line2d_6" x="41.133" y="231.858" fill="#969696" stroke="#969696" stroke-width=".3"/><g id="text_7" fill="#969696" transform="matrix(.14 0 0 -.14 14.673 236.882)"><use xlink:href="#HelveticaWorld-Regular-48"/><use xlink:href="#HelveticaWorld-Regular-46" x="55.615"/><use xlink:href="#HelveticaWorld-Regular-50" x="83.398"/></g></g><g id="ytick_4"><use xlink:href="#m0fcb49e530" id="line2d_7" x="41.133" y="201.347" fill="#969696" stroke="#969696" stroke-width=".3"/><g id="text_8" fill="#969696" transform="matrix(.14 0 0 -.14 14.673 206.372)"><defs><path id="HelveticaWorld-Regular-51" d="M22.406 39.984q2.203-.187 4.594-.187 6.203 0 9.781 2.86 3.594 2.859 3.594 8.656 0 4.687-3.344 7.89-3.343 3.203-9.64 3.203-6.985 0-10.235-4.11-3.234-4.093-3.437-10.983h-8.64q0 10.984 5.765 16.984 5.765 6.016 16.937 6.016 9.922 0 15.828-5.11 5.907-5.094 5.907-13.39 0-10.704-9.032-14.5v-.204q11.72-4 11.72-16.406 0-9.906-6.595-16.265-6.593-6.344-18.703-6.344-9.906 0-16.312 5.203Q4.204 8.5 3.422 21.484H12.5q.203-8.109 4-11.797Q20.313 6 27.484 6q6.938 0 11.141 3.86 4.203 3.859 4.203 9.718 0 6.406-4.016 9.672-4 3.266-12.39 3.266-2 0-4.016-.094z"/></defs><use xlink:href="#HelveticaWorld-Regular-48"/><use xlink:href="#HelveticaWorld-Regular-46" x="55.615"/><use xlink:href="#HelveticaWorld-Regular-51" x="83.398"/></g></g><g id="ytick_5"><use xlink:href="#m0fcb49e530" id="line2d_8" x="41.133" y="170.837" fill="#969696" stroke="#969696" stroke-width=".3"/><g id="text_9" fill="#969696" transform="matrix(.14 0 0 -.14 14.673 175.861)"><use xlink:href="#HelveticaWorld-Regular-48"/><use xlink:href="#HelveticaWorld-Regular-46" x="55.615"/><use xlink:href="#HelveticaWorld-Regular-52" x="83.398"/></g></g><g id="ytick_6"><use xlink:href="#m0fcb49e530" id="line2d_9" x="41.133" y="140.326" fill="#969696" stroke="#969696" stroke-width=".3"/><g id="text_10" fill="#969696" transform="matrix(.14 0 0 -.14 14.673 145.351)"><defs><path id="HelveticaWorld-Regular-53" d="M14.703 40.922q5.813 4.39 13.625 4.39 9.469 0 16.281-6.296 6.813-6.297 6.813-16.22 0-10.78-6.578-17.796-6.563-7-18.422-7-10.313 0-16.266 5.047Q4.203 8.109 3.22 17.39h9.094q.671-5.672 4.437-8.672 3.766-3 10.453-3 6.485 0 10.64 4.484Q42 14.703 42 21.688q0 7.125-4.36 11.421-4.343 4.297-11.218 4.297-7.813 0-13.047-6.687l-7.563.39 5.266 37.594h36.438v-8.5H17.672z"/></defs><use xlink:href="#HelveticaWorld-Regular-48"/><use xlink:href="#HelveticaWorld-Regular-46" x="55.615"/><use xlink:href="#HelveticaWorld-Regular-53" x="83.398"/></g></g><g id="ytick_7"><use xlink:href="#m0fcb49e530" id="line2d_10" x="41.133" y="109.816" fill="#969696" stroke="#969696" stroke-width=".3"/><g id="text_11" fill="#969696" transform="matrix(.14 0 0 -.14 14.673 114.84)"><use xlink:href="#HelveticaWorld-Regular-48"/><use xlink:href="#HelveticaWorld-Regular-46" x="55.615"/><use xlink:href="#HelveticaWorld-Regular-54" x="83.398"/></g></g><g id="ytick_8"><use xlink:href="#m0fcb49e530" id="line2d_11" x="41.133" y="79.305" fill="#969696" stroke="#969696" stroke-width=".3"/><g id="text_12" fill="#969696" transform="matrix(.14 0 0 -.14 14.673 84.33)"><defs><path id="HelveticaWorld-Regular-55" d="M3.719 68.797h48.578v-7.719Q42.28 50.875 33.984 33.484 25.687 16.11 23.391 0h-9.672q1.469 13.281 9.719 30.531 8.25 17.266 18.953 29.672H3.719z"/></defs><use xlink:href="#HelveticaWorld-Regular-48"/><use xlink:href="#HelveticaWorld-Regular-46" x="55.615"/><use xlink:href="#HelveticaWorld-Regular-55" x="83.398"/></g></g><g id="ytick_9"><use xlink:href="#m0fcb49e530" id="line2d_12" x="41.133" y="48.795" fill="#969696" stroke="#969696" stroke-width=".3"/><g id="text_13" fill="#969696" transform="matrix(.14 0 0 -.14 14.673 53.82)"><defs><path id="HelveticaWorld-Regular-56" d="M27.594 40.578q5.422 0 8.953 3.094 3.547 3.11 3.547 8.234 0 4.594-3.407 7.547-3.39 2.953-9.687 2.953-5.61 0-8.672-3.11-3.047-3.093-3.047-7.874 0-5.125 3.813-7.984 3.812-2.86 8.5-2.86zm.093-7.562q-6.78 0-10.64-3.766-3.86-3.766-3.86-9.234 0-6.297 3.907-10.157Q21 6 28.219 6q6.406 0 10.234 3.86 3.828 3.859 3.828 10.265 0 5.469-3.828 9.172-3.828 3.719-10.766 3.719zM49.22 52.203q0-10.594-9.032-14.797 6.204-2.781 8.86-7.36 2.656-4.562 2.656-9.733 0-10.016-6.453-16.125-6.438-6.094-17.375-6.094-9.563 0-16.813 5.25-7.25 5.25-7.25 17.062 0 11.922 11.907 16.907-9.516 3.796-9.516 13.671 0 8.297 5.64 13.813 5.641 5.516 15.641 5.516 10.016 0 15.875-5.204 5.86-5.203 5.86-12.906z"/></defs><use xlink:href="#HelveticaWorld-Regular-48"/><use xlink:href="#HelveticaWorld-Regular-46" x="55.615"/><use xlink:href="#HelveticaWorld-Regular-56" x="83.398"/></g></g><g id="text_14" fill="#969696" transform="matrix(.14 0 0 -.14 7.2 177.453)"><defs><path id="HelveticaWorld-Regular-121" d="M39.016 52.297h9.562L29.891.984q-.5-1.375-.985-2.593-4.25-11.329-7.328-15.547-3.078-4.235-9.953-4.235-3.61 0-5.906.782v8.015q2.484-.89 5.468-.89 3.22 0 4.704 2.03 1.5 2.032 4.421 9.938L.875 52.297h9.922L24.812 9.719H25z"/></defs><use xlink:href="#HelveticaWorld-Regular-121"/></g></g><g id="text_15" fill="#969696" transform="matrix(.14 0 0 -.14 53.098 17.392)"><defs><path id="HelveticaWorld-Regular-77" d="M67.484 0v42.39q0 .829.094 8.126t.094 9.78h-.281L47.312 0h-9.609L17.578 60.203h-.297q0-3.61.094-10.297.11-6.687.11-7.515V0H8.108v71.781h13.86L42.39 11.078h.28l20.313 60.703h13.922V0z"/><path id="HelveticaWorld-Regular-97" d="M38.375 26.703q-.969-1.015-3.828-1.656-2.86-.625-10.672-1.656-5.766-.688-8.469-2.844-2.703-2.14-2.703-5.656 0-4.297 2.281-6.688 2.297-2.39 7.329-2.39 6.296 0 11.171 3.578 4.891 3.593 4.891 8.718zM6.203 36.375q.297 8.844 5.734 13.14 5.454 4.297 15.844 4.297 8.297 0 13.907-3.765 5.624-3.75 5.624-10.844V9.078Q47.313 6 50.094 6q1.125 0 2.89.39V0Q50.594-.984 48-.984q-4.5 0-6.703 1.921-2.188 1.938-2.281 6.047-7.516-8.5-18.891-8.5-7.422 0-11.922 4.204Q3.72 6.89 3.72 13.624q0 6.89 3.906 11.125Q11.531 29 19 29.89l15.516 1.891q4.203.64 4.203 6.203 0 4.11-3.047 6.297-3.047 2.203-9.25 2.203-5.516 0-8.485-2.437-2.953-2.438-3.53-7.672z"/><path id="HelveticaWorld-Regular-99" d="M39.594 34.719q-1.89 11.187-12.39 11.187-6.5 0-10.454-5.203-3.953-5.203-3.953-14.484 0-10.11 3.656-15.11 3.672-5 10.64-5 4.688 0 8.11 3.438 3.422 3.437 4.39 8.953h8.5q-1.312-9.703-6.859-14.86-5.547-5.156-14.328-5.156-10.297 0-16.89 7.047-6.594 7.063-6.594 19.172 0 13.281 6.594 21.188 6.593 7.922 18.5 7.922 8.687 0 13.843-5.204 5.157-5.203 5.735-13.89z"/><path id="HelveticaWorld-Regular-65" d="M44 29.5 33.406 61.078h-.203L21.687 29.5zm-25.297-8.594L11.188 0h-9.97l27 71.781h10.985L65.187 0H54.594l-7.078 20.906z"/><path id="HelveticaWorld-Regular-100" d="M13.094 26.313q0-9.704 3.844-14.954 3.859-5.25 10.265-5.25 6.094 0 10.188 4.485 4.109 4.5 4.109 13.094 0 11.03-3.5 16.625-3.484 5.593-10.61 5.593-6.78 0-10.546-4.453-3.75-4.437-3.75-15.14zM50.39 0h-8.297v7.172h-.203q-4.97-8.688-15.078-8.688-10.891 0-16.86 8.297Q4 15.094 4 27.688q0 11.625 5.906 18.875 5.922 7.25 15.875 7.25 9.813 0 15.625-8.891l.203.594V71.78h8.782z"/><path id="HelveticaWorld-Regular-109" d="M6.594 52.297h8.297v-7.375h.203q5.906 8.89 15.812 8.89 9.813 0 13.922-8.5 3.75 4.594 7.266 6.547 3.515 1.953 8.703 1.953 6.781 0 11.484-4.453Q77 44.922 77 36.187V0h-8.781v33.797q0 6.094-2.297 9.094-2.297 3.015-7.422 3.015-5.172 0-8.75-4.203-3.563-4.203-3.563-9.812V0h-8.78v36.188q0 4.53-2.11 7.124-2.094 2.594-6.094 2.594-6.297 0-10.062-4.687-3.766-4.688-3.766-12.703V0H6.594z"/><path id="HelveticaWorld-Regular-101" d="M42.484 30.328q-.687 8.485-4.5 12.031-3.797 3.547-10.109 3.547-6.39 0-10.328-4.5-3.922-4.484-4.172-11.078zm8.391-13.922q-1.453-8.11-7.953-13.422-5.719-4.5-15.047-4.593-10.984.093-17.438 7.203Q4 12.704 4 24.704q0 13.78 6.64 21.437 6.641 7.672 18.47 7.672 10.593 0 16.546-7.922 5.953-7.907 5.953-22.594H13.375q0-8.203 3.813-12.703Q21 6.109 28.608 6.109q5.375 0 9.235 3.235 3.86 3.25 4.25 7.062z"/><path id="HelveticaWorld-Regular-108" d="M15.375 0H6.594v71.781h8.781z"/><path id="HelveticaWorld-Regular-105" d="M6.594 61.813v9.968h8.781v-9.969zM15.375 0H6.594v52.297h8.781z"/><path id="HelveticaWorld-Regular-112" d="M14.984 23.688q0-8.407 4.094-13 4.11-4.579 10.219-4.579 6.687 0 10.39 5.438 3.72 5.453 3.72 14.765 0 10.22-3.563 14.907-3.563 4.687-10.735 4.687-6.984 0-10.562-5.5-3.563-5.5-3.563-16.718zm-8.39 28.609h8.297v-7.375h.203q5.61 8.89 15.625 8.89 10.11 0 15.937-7.359 5.828-7.344 5.828-18.766 0-12.796-5.953-21Q40.578-1.515 29.5-1.515q-9.094 0-13.922 7.032h-.203v-26.22H6.594z"/><path id="HelveticaWorld-Regular-115" d="M36.078 37.406q-.187 4.688-3.344 6.735-3.14 2.047-9.047 2.047-4.296 0-7.359-1.907-3.047-1.89-3.047-5.468 0-2.829 1.797-4.172 1.813-1.344 7.828-2.86l8.688-2.187q7.906-2 11.297-5.11 3.406-3.093 3.406-8.656 0-7.719-5.64-12.531-5.641-4.813-15.063-4.813-11 0-16.64 4.563-5.626 4.578-5.735 13.75h8.5q.203-5.422 3.594-8.063 3.39-2.625 10.171-2.625 5.516 0 8.766 2.188 3.25 2.203 3.25 6.11 0 2.78-2.11 4.437-2.093 1.672-8.296 3.078l-10.203 2.5q-6.203 1.562-9.157 4.656-2.953 3.094-2.953 8.031 0 7.72 5.516 12.203 5.531 4.5 14.406 4.5 9.485 0 14.531-4.624 5.047-4.61 5.344-11.782z"/><path id="HelveticaWorld-Regular-102" d="M17.188 45.016V0H8.405v45.016H1.22v7.28h7.187v8.985q0 5.907 3.578 8.703 3.594 2.813 10.032 2.813 2.203 0 3.968-.188v-7.906q-1.562.188-3.578.188-2.922 0-4.078-1.438-1.14-1.437-1.14-4.656v-6.5h8.796v-7.281z"/><path id="HelveticaWorld-Regular-111" d="M12.703 26.219q0-8.735 3.953-14.375 3.953-5.64 11.219-5.64 7.531 0 11.438 5.905 3.906 5.907 3.906 14.11 0 8.297-3.907 14.078-3.906 5.797-11.437 5.797-6.969 0-11.078-5.453-4.094-5.438-4.094-14.422zm-8.984 0q0 11.672 6.484 19.625 6.5 7.968 17.672 7.968 11.438 0 17.875-8.062 6.453-8.047 6.453-19.531 0-11.516-6.406-19.625-6.39-8.11-17.922-8.11-11.078 0-17.625 7.86-6.531 7.86-6.531 19.875z"/><path id="HelveticaWorld-Regular-114" d="M15.375 0H6.594v52.297h8.297v-8.688h.203q5.703 10.203 14.687 10.203 1.422 0 2.297-.296V44.39h-3.266q-5.906 0-9.671-4.016-3.766-4-3.766-9.953z"/><path id="HelveticaWorld-Regular-89" d="M37.313 0h-9.72v28.906L.485 71.781h11.329l20.609-34.469 20.562 34.47h11.422L37.312 28.905z"/><path id="HelveticaWorld-Regular-95" d="M0-12.313v4.891h55.61v-4.89z"/></defs><use xlink:href="#HelveticaWorld-Regular-77"/><use xlink:href="#HelveticaWorld-Regular-97" x="85.01"/><use xlink:href="#HelveticaWorld-Regular-99" x="139.941"/><use xlink:href="#HelveticaWorld-Regular-65" x="191.211"/><use xlink:href="#HelveticaWorld-Regular-100" x="256.41"/><use xlink:href="#HelveticaWorld-Regular-97" x="313.393"/><use xlink:href="#HelveticaWorld-Regular-109" x="368.324"/><use xlink:href="#HelveticaWorld-Regular-32" x="451.332"/><use xlink:href="#HelveticaWorld-Regular-101" x="475.746"/><use xlink:href="#HelveticaWorld-Regular-108" x="531.166"/><use xlink:href="#HelveticaWorld-Regular-108" x="553.188"/><use xlink:href="#HelveticaWorld-Regular-105" x="575.209"/><use xlink:href="#HelveticaWorld-Regular-112" x="597.23"/><use xlink:href="#HelveticaWorld-Regular-115" x="653.725"/><use xlink:href="#HelveticaWorld-Regular-101" x="703.725"/><use xlink:href="#HelveticaWorld-Regular-115" x="759.145"/><use xlink:href="#HelveticaWorld-Regular-32" x="809.145"/><use xlink:href="#HelveticaWorld-Regular-102" x="833.559"/><use xlink:href="#HelveticaWorld-Regular-111" x="859.244"/><use xlink:href="#HelveticaWorld-Regular-114" x="915.152"/><use xlink:href="#HelveticaWorld-Regular-32" x="947.721"/><use xlink:href="#HelveticaWorld-Regular-120" x="972.135"/><use xlink:href="#HelveticaWorld-Regular-121" x="1022.135"/><use xlink:href="#HelveticaWorld-Regular-89" x="1071.744"/><use xlink:href="#HelveticaWorld-Regular-95" x="1136.539"/><use xlink:href="#HelveticaWorld-Regular-49" x="1192.154"/></g></g></g><defs><clipPath id="p30200b1b5d"><path d="M41.133 47.392h198.623v266.112H41.133z"/></clipPath></defs></svg>