<svg xmlns="http://www.w3.org/2000/svg" xmlns:xlink="http://www.w3.org/1999/xlink" width="539.92" height="476.965" viewBox="0 0 404.94 357.724"><defs><style>*{stroke-linecap:butt;stroke-linejoin:round}</style></defs><g id="figure_1"><path id="patch_1" fill="none" d="M0 357.724h404.94V0H0z"/><g id="axes_1"><path id="patch_2" fill="none" d="M47.265 313.628H397.74V47.516H47.265z"/><path id="patch_3" fill="#969696" d="M145.153 133.26c2.008-1.172 3.273-3.426 3.519-6.267.245-2.84-.55-6.035-2.21-8.88-1.661-2.845-4.052-5.11-6.645-6.293-2.594-1.184-5.179-1.19-7.186-.019-2.008 1.171-3.273 3.426-3.518 6.266-.246 2.84.55 6.035 2.21 8.88 1.66 2.846 4.05 5.11 6.644 6.293 2.594 1.184 5.179 1.19 7.186.02z" clip-path="url(#p25e12b7041)"/><path id="patch_4" fill="#969696" d="M347.873 173.59c1.513-.3 2.812-1.353 3.612-2.928.8-1.575 1.035-3.543.654-5.47-.381-1.929-1.348-3.66-2.687-4.811-1.34-1.152-2.942-1.631-4.454-1.332-1.513.299-2.812 1.352-3.612 2.927-.8 1.575-1.035 3.543-.654 5.471.381 1.928 1.348 3.659 2.687 4.81 1.34 1.152 2.942 1.631 4.454 1.332z" clip-path="url(#p25e12b7041)"/><path id="patch_5" fill="#969696" d="M166.576 149.679c2.186-.812 3.703-3.15 4.218-6.499.515-3.348-.015-7.434-1.473-11.357-1.458-3.923-3.725-7.363-6.301-9.563-2.577-2.2-5.253-2.979-7.438-2.167-2.186.813-3.704 3.15-4.218 6.499-.515 3.348.015 7.434 1.473 11.357 1.457 3.923 3.724 7.363 6.3 9.563 2.577 2.2 5.253 2.98 7.439 2.167z" clip-path="url(#p25e12b7041)"/><path id="patch_6" fill="#969696" d="M120.782 120.226c1.557-.935 2.506-2.739 2.638-5.014.132-2.275-.564-4.836-1.935-7.119-1.37-2.283-3.304-4.1-5.374-5.054-2.07-.953-4.109-.963-5.666-.028-1.557.936-2.506 2.74-2.638 5.015-.132 2.275.564 4.836 1.935 7.118 1.37 2.283 3.304 4.101 5.374 5.054 2.07.953 4.109.963 5.666.028z" clip-path="url(#p25e12b7041)"/><path id="patch_7" fill="#969696" d="M307.982 139.139c1.524-.365 2.77-1.616 3.462-3.479.694-1.862.778-4.184.235-6.453-.544-2.27-1.67-4.3-3.131-5.648-1.461-1.346-3.138-1.898-4.662-1.534-1.523.365-2.769 1.616-3.462 3.479-.693 1.862-.777 4.184-.234 6.453.543 2.27 1.67 4.3 3.13 5.648 1.462 1.346 3.139 1.898 4.662 1.534z" clip-path="url(#p25e12b7041)"/><path id="patch_8" fill="#969696" d="M102.791 112.104c1.268-.638 1.91-2.394 1.783-4.88-.127-2.485-1.011-5.498-2.458-8.375-1.448-2.877-3.34-5.384-5.26-6.967-1.92-1.583-3.712-2.114-4.98-1.476-1.269.638-1.91 2.393-1.784 4.878.127 2.486 1.011 5.5 2.459 8.377 1.447 2.877 3.34 5.383 5.26 6.966 1.92 1.584 3.712 2.115 4.98 1.477z" clip-path="url(#p25e12b7041)"/><path id="patch_9" fill="#969696" d="M352.856 151.783c1.07-.949 1.549-2.474 1.333-4.24-.216-1.767-1.11-3.63-2.484-5.18-1.375-1.55-3.118-2.659-4.846-3.084-1.729-.425-3.3-.13-4.37.818-1.07.949-1.549 2.475-1.333 4.241.216 1.767 1.11 3.63 2.484 5.18 1.375 1.549 3.118 2.658 4.846 3.083 1.729.425 3.3.13 4.37-.818z" clip-path="url(#p25e12b7041)"/><path id="patch_10" fill="#969696" d="M182.367 97.272c1.266-.81 1.689-2.823 1.176-5.597-.513-2.774-1.92-6.082-3.911-9.195-1.992-3.114-4.405-5.778-6.708-7.407-2.303-1.63-4.308-2.09-5.574-1.28-1.265.81-1.688 2.823-1.175 5.597.513 2.773 1.92 6.081 3.911 9.195 1.991 3.113 4.404 5.778 6.707 7.407 2.303 1.629 4.309 2.09 5.574 1.28z" clip-path="url(#p25e12b7041)"/><path id="patch_11" fill="#969696" d="M159.427 227.538c3.746 2.267 7.527 4.127 10.513 5.172 2.986 1.045 4.932 1.189 5.41.4.477-.79-.554-2.446-2.864-4.607-2.31-2.16-5.713-4.647-9.458-6.914-3.745-2.266-7.527-4.127-10.513-5.171-2.986-1.045-4.932-1.19-5.409-.4-.477.789.553 2.446 2.863 4.606 2.31 2.16 5.713 4.648 9.458 6.914z" clip-path="url(#p25e12b7041)"/><path id="patch_12" fill="#969696" d="M313.25 172.634c1.295-.706 2.089-2.204 2.207-4.165.118-1.96-.45-4.223-1.577-6.29s-2.722-3.77-4.435-4.731c-1.712-.963-3.401-1.107-4.696-.401-1.294.706-2.087 2.204-2.205 4.165-.119 1.96.449 4.223 1.576 6.29s2.723 3.77 4.435 4.732c1.712.962 3.402 1.106 4.696.4z" clip-path="url(#p25e12b7041)"/><path id="patch_13" fill="#969696" d="M232.19 123.795c1.331-1.462 1.259-4.094-.203-7.317-1.461-3.223-4.192-6.774-7.59-9.87-3.4-3.096-7.188-5.485-10.533-6.64-3.345-1.156-5.973-.984-7.304.478-1.332 1.462-1.26 4.094.202 7.317s4.192 6.774 7.591 9.87c3.399 3.096 7.188 5.485 10.532 6.64 3.345 1.156 5.973.984 7.305-.478z" clip-path="url(#p25e12b7041)"/><path id="patch_14" fill="#969696" d="M256.151 150.672c-1.156.99-1.409 2.94-.7 5.423.707 2.482 2.316 5.294 4.473 7.816 2.157 2.522 4.686 4.548 7.029 5.631 2.343 1.084 4.309 1.137 5.465.148 1.157-.989 1.409-2.94.701-5.422-.708-2.483-2.317-5.295-4.474-7.816-2.157-2.522-4.686-4.548-7.029-5.632-2.343-1.084-4.309-1.137-5.465-.148z" clip-path="url(#p25e12b7041)"/><path id="patch_15" fill="#969696" d="M186.31 209.547c3.61 3.38 7.507 6.16 10.832 7.726 3.326 1.565 5.808 1.79 6.901.623s.707-3.63-1.072-6.846c-1.78-3.216-4.808-6.922-8.418-10.303-3.61-3.381-7.507-6.16-10.832-7.726-3.325-1.566-5.808-1.79-6.901-.623s-.707 3.63 1.073 6.845c1.78 3.216 4.808 6.923 8.417 10.304z" clip-path="url(#p25e12b7041)"/><path id="patch_16" fill="#969696" d="M124.074 171.29c1.137-1.062 1.41-2.956.757-5.264-.651-2.308-2.174-4.842-4.232-7.044-2.059-2.202-4.484-3.892-6.743-4.698-2.26-.806-4.167-.662-5.304.4-1.136 1.063-1.408 2.956-.757 5.265.652 2.308 2.175 4.842 4.233 7.044s4.484 3.892 6.743 4.698c2.259.806 4.167.662 5.303-.4z" clip-path="url(#p25e12b7041)"/><path id="patch_17" fill="#969696" d="M242.592 255.518c3.044 1.315 6.148 2.151 8.627 2.325 2.479.174 4.131-.33 4.593-1.398.461-1.069-.306-2.616-2.132-4.301-1.827-1.685-4.564-3.37-7.608-4.685-3.044-1.315-6.148-2.151-8.627-2.325-2.479-.174-4.131.33-4.593 1.398-.461 1.069.306 2.616 2.132 4.301 1.827 1.685 4.564 3.371 7.608 4.685z" clip-path="url(#p25e12b7041)"/><path id="patch_18" fill="#969696" d="M306.791 233.297c1.161-.699 1.803-2.153 1.783-4.043-.02-1.89-.698-4.062-1.886-6.036-1.189-1.974-2.79-3.59-4.451-4.492-1.661-.902-3.247-1.016-4.408-.317-1.161.7-1.802 2.154-1.783 4.044.02 1.89.698 4.061 1.886 6.036 1.189 1.974 2.79 3.59 4.451 4.491 1.661.902 3.247 1.016 4.408.317z" clip-path="url(#p25e12b7041)"/><path id="patch_19" fill="#969696" d="M262.833 279.424c1.938.143 3.826-.12 5.25-.734 1.422-.613 2.264-1.526 2.339-2.537.075-1.01-.623-2.037-1.94-2.853-1.318-.817-3.147-1.356-5.085-1.5-1.937-.143-3.826.121-5.25.734-1.422.614-2.264 1.526-2.339 2.537-.075 1.011.623 2.038 1.94 2.854 1.318.816 3.147 1.355 5.085 1.499z" clip-path="url(#p25e12b7041)"/><path id="patch_20" fill="#969696" d="M347.597 199.805c1.777-.633 3.11-2.277 3.71-4.57.597-2.293.411-5.048-.52-7.657-.93-2.61-2.527-4.862-4.441-6.26-1.914-1.397-3.987-1.826-5.763-1.193-1.777.633-3.111 2.277-3.71 4.57-.598 2.293-.411 5.048.519 7.657.93 2.61 2.528 4.861 4.442 6.26 1.913 1.397 3.987 1.826 5.763 1.193z" clip-path="url(#p25e12b7041)"/><path id="patch_21" fill="#969696" d="M300.667 111.87c1.352-1.1 2.012-2.937 1.835-5.107-.176-2.169-1.175-4.493-2.777-6.46-1.602-1.968-3.675-3.418-5.763-4.03-2.089-.613-4.022-.34-5.374.761-1.352 1.1-2.012 2.938-1.835 5.107.176 2.17 1.176 4.494 2.777 6.461 1.602 1.967 3.675 3.417 5.763 4.03 2.089.613 4.022.339 5.374-.762z" clip-path="url(#p25e12b7041)"/><path id="patch_22" fill="#969696" d="M218.459 173.872c2.34-1.569 3.412-4.826 2.977-9.055-.435-4.229-2.34-9.084-5.295-13.495-2.956-4.412-6.722-8.021-10.467-10.032-3.746-2.01-7.165-2.259-9.506-.69-2.342 1.568-3.413 4.825-2.978 9.054.435 4.229 2.34 9.084 5.296 13.496 2.955 4.412 6.72 8.02 10.466 10.031 3.746 2.01 7.165 2.26 9.507.69z" clip-path="url(#p25e12b7041)"/><path id="patch_23" fill="#969696" d="M341.576 122.26c1.398 1.508 3.237 2.494 5.112 2.739 1.876.245 3.633-.27 4.887-1.432 1.254-1.162 1.9-2.875 1.799-4.764-.103-1.888-.946-3.797-2.344-5.305-1.398-1.509-3.237-2.494-5.112-2.74-1.875-.245-3.633.27-4.887 1.432-1.253 1.162-1.9 2.876-1.798 4.764.102 1.888.945 3.797 2.343 5.306z" clip-path="url(#p25e12b7041)"/><path id="patch_24" fill="#969696" d="M104.738 136.785c1.188-.838 1.879-2.279 1.92-4.004.04-1.726-.572-3.595-1.702-5.197-1.13-1.602-2.687-2.805-4.326-3.345-1.64-.54-3.228-.372-4.416.467-1.188.838-1.879 2.279-1.92 4.004-.04 1.726.572 3.595 1.702 5.197 1.13 1.602 2.687 2.805 4.326 3.345 1.64.54 3.228.372 4.416-.467z" clip-path="url(#p25e12b7041)"/><path id="patch_25" fill="#969696" d="M263.436 207.941c1.204-.808 1.803-2.413 1.664-4.46-.14-2.048-1.005-4.372-2.406-6.46-1.4-2.087-3.223-3.768-5.066-4.673-1.842-.905-3.554-.959-4.758-.15-1.205.808-1.803 2.413-1.664 4.46.14 2.048 1.004 4.372 2.406 6.46 1.4 2.087 3.223 3.768 5.065 4.673 1.843.905 3.555.959 4.759.15z" clip-path="url(#p25e12b7041)"/><path id="patch_26" fill="#969696" d="M311.068 213.74c1.214-.436 2.02-1.854 2.241-3.942.22-2.088-.163-4.675-1.066-7.193-.903-2.517-2.252-4.758-3.749-6.23-1.497-1.472-3.02-2.055-4.235-1.619-1.215.436-2.021 1.854-2.242 3.942-.22 2.088.163 4.676 1.066 7.193.903 2.517 2.252 4.759 3.75 6.23 1.497 1.472 3.02 2.055 4.235 1.62z" clip-path="url(#p25e12b7041)"/><path id="patch_27" fill="#969696" d="M260.923 107.272c1.21-1.065 1.37-3.223.446-5.998-.925-2.774-2.86-5.94-5.377-8.798-2.518-2.859-5.414-5.177-8.05-6.445-2.635-1.268-4.796-1.382-6.006-.316-1.21 1.065-1.37 3.223-.445 5.998.925 2.775 2.86 5.94 5.377 8.799 2.518 2.858 5.413 5.177 8.05 6.444 2.635 1.268 4.796 1.382 6.005.316z" clip-path="url(#p25e12b7041)"/><g id="matplotlib.axis_1"><g id="xtick_1"><g id="line2d_1"><defs><path id="m1e706549aa" stroke="#969696" stroke-width=".4" d="M0 0v3.5"/></defs><use xlink:href="#m1e706549aa" x="65.482" y="313.628" fill="#969696" stroke="#969696" stroke-width=".4"/></g><g id="text_1" fill="#969696" transform="matrix(.14 0 0 -.14 53.595 330.678)"><defs><path id="HelveticaWorld-Regular-8722" d="M54.594 21.578H4v7.328h50.594z"/><path id="HelveticaWorld-Regular-54" d="M14.11 21.578q0-6.875 4.093-11.234Q22.313 6 28.906 6q6.297 0 10.032 4.438 3.734 4.453 3.734 11.687 0 6.297-3.688 10.547-3.687 4.25-10.468 4.25-6.594 0-10.5-4.156-3.907-4.157-3.907-11.188zM41.702 51.61q-.984 5.375-3.984 8.078-3 2.72-8.125 2.72-8.11 0-12.36-7.923-4.25-7.906-4.343-18.109l.203-.188q5.61 8.641 16.687 8.641 8.844 0 15.438-5.86 6.593-5.859 6.593-16.452 0-10.5-6.25-17.47-6.25-6.952-16.843-6.952-12.219 0-18.563 8.687-6.344 8.703-6.344 25.938 0 16.593 6.485 27.093 6.5 10.5 19.484 10.5 8.407 0 14.219-5.015 5.813-5 6.297-13.688z"/><path id="HelveticaWorld-Regular-48" d="M42.484 34.188q0 14.109-3.734 21.156-3.734 7.062-10.969 7.062-7.078 0-10.89-7.062-3.797-7.047-3.797-21.157 0-13.671 3.75-20.937Q20.609 6 27.78 6q7.235 0 10.969 7 3.734 7.016 3.734 21.188zm9.422 0q0-17.297-6.25-26.704-6.25-9.39-17.875-9.39-12.062 0-18.062 9.734-6 9.75-6 26.36 0 17.03 6.14 26.578 6.157 9.547 17.922 9.547 11.625 0 17.875-9.5t6.25-26.626z"/></defs><use xlink:href="#HelveticaWorld-Regular-8722"/><use xlink:href="#HelveticaWorld-Regular-54" x="58.594"/><use xlink:href="#HelveticaWorld-Regular-48" x="114.209"/></g></g><g id="xtick_2"><use xlink:href="#m1e706549aa" id="line2d_2" x="115.046" y="313.628" fill="#969696" stroke="#969696" stroke-width=".4"/><g id="text_2" fill="#969696" transform="matrix(.14 0 0 -.14 103.16 330.678)"><defs><path id="HelveticaWorld-Regular-52" d="M10.594 24.703h22.61v31.89h-.188zM42 17.093V0h-8.797v17.094H2.484v8.593L34.72 70.314H42v-45.61h10.297v-7.61z"/></defs><use xlink:href="#HelveticaWorld-Regular-8722"/><use xlink:href="#HelveticaWorld-Regular-52" x="58.594"/><use xlink:href="#HelveticaWorld-Regular-48" x="114.209"/></g></g><g id="xtick_3"><use xlink:href="#m1e706549aa" id="line2d_3" x="164.61" y="313.628" fill="#969696" stroke="#969696" stroke-width=".4"/><g id="text_3" fill="#969696" transform="matrix(.14 0 0 -.14 152.723 330.678)"><defs><path id="HelveticaWorld-Regular-50" d="M4.39 45.125q0 12.39 6.391 18.781 6.406 6.407 17.938 6.407 9.656 0 15.812-5.86 6.157-5.86 6.157-15.14 0-7.22-3.547-12.188-3.532-4.953-10.422-8.703l-12.11-6.64Q13.922 15.921 12.5 8.296h38.188V0H2.593q.39 9.906 4.297 16.5 3.906 6.594 12.203 11.375l12.593 7.328q5.032 2.89 7.329 5.984 2.297 3.094 2.297 8.516 0 5.375-3.766 9.031-3.75 3.672-10.156 3.672-7.078 0-10.594-4.672-3.516-4.656-3.61-12.609z"/></defs><use xlink:href="#HelveticaWorld-Regular-8722"/><use xlink:href="#HelveticaWorld-Regular-50" x="58.594"/><use xlink:href="#HelveticaWorld-Regular-48" x="114.209"/></g></g><g id="xtick_4"><use xlink:href="#m1e706549aa" id="line2d_4" x="214.174" y="313.628" fill="#969696" stroke="#969696" stroke-width=".4"/><use xlink:href="#HelveticaWorld-Regular-48" id="text_4" fill="#969696" transform="matrix(.14 0 0 -.14 210.281 330.678)"/></g><g id="xtick_5"><use xlink:href="#m1e706549aa" id="line2d_5" x="263.738" y="313.628" fill="#969696" stroke="#969696" stroke-width=".4"/><g id="text_5" fill="#969696" transform="matrix(.14 0 0 -.14 255.953 330.678)"><use xlink:href="#HelveticaWorld-Regular-50"/><use xlink:href="#HelveticaWorld-Regular-48" x="55.615"/></g></g><g id="xtick_6"><use xlink:href="#m1e706549aa" id="line2d_6" x="313.302" y="313.628" fill="#969696" stroke="#969696" stroke-width=".4"/><g id="text_6" fill="#969696" transform="matrix(.14 0 0 -.14 305.517 330.678)"><use xlink:href="#HelveticaWorld-Regular-52"/><use xlink:href="#HelveticaWorld-Regular-48" x="55.615"/></g></g><g id="xtick_7"><use xlink:href="#m1e706549aa" id="line2d_7" x="362.866" y="313.628" fill="#969696" stroke="#969696" stroke-width=".4"/><g id="text_7" fill="#969696" transform="matrix(.14 0 0 -.14 355.081 330.678)"><use xlink:href="#HelveticaWorld-Regular-54"/><use xlink:href="#HelveticaWorld-Regular-48" x="55.615"/></g></g><g id="text_8" fill="#969696" transform="matrix(.14 0 0 -.14 217.32 347.625)"><defs><path id="HelveticaWorld-Regular-97" d="M38.375 26.703q-.969-1.015-3.828-1.656-2.86-.625-10.672-1.656-5.766-.688-8.469-2.844-2.703-2.14-2.703-5.656 0-4.297 2.281-6.688 2.297-2.39 7.329-2.39 6.296 0 11.171 3.578 4.891 3.593 4.891 8.718zM6.203 36.375q.297 8.844 5.734 13.14 5.454 4.297 15.844 4.297 8.297 0 13.907-3.765 5.624-3.75 5.624-10.844V9.078Q47.313 6 50.094 6q1.125 0 2.89.39V0Q50.594-.984 48-.984q-4.5 0-6.703 1.921-2.188 1.938-2.281 6.047-7.516-8.5-18.891-8.5-7.422 0-11.922 4.204Q3.72 6.89 3.72 13.624q0 6.89 3.906 11.125Q11.531 29 19 29.89l15.516 1.891q4.203.64 4.203 6.203 0 4.11-3.047 6.297-3.047 2.203-9.25 2.203-5.516 0-8.485-2.437-2.953-2.438-3.53-7.672z"/><path id="HelveticaWorld-Regular-39" d="M5.906 71.781h7.282V46.297H5.905z"/></defs><use xlink:href="#HelveticaWorld-Regular-97"/><use xlink:href="#HelveticaWorld-Regular-39" x="54.932"/></g></g><g id="matplotlib.axis_2"><g id="ytick_1"><g id="line2d_8"><defs><path id="m77b5c82580" stroke="#969696" stroke-width=".3" d="M0 0h-3.5"/></defs><use xlink:href="#m77b5c82580" x="47.265" y="296.607" fill="#969696" stroke="#969696" stroke-width=".3"/></g><g id="text_9" fill="#969696" transform="matrix(.14 0 0 -.14 16.492 301.631)"><use xlink:href="#HelveticaWorld-Regular-8722"/><use xlink:href="#HelveticaWorld-Regular-54" x="58.594"/><use xlink:href="#HelveticaWorld-Regular-48" x="114.209"/></g></g><g id="ytick_2"><use xlink:href="#m77b5c82580" id="line2d_9" x="47.265" y="247.043" fill="#969696" stroke="#969696" stroke-width=".3"/><g id="text_10" fill="#969696" transform="matrix(.14 0 0 -.14 16.492 252.067)"><use xlink:href="#HelveticaWorld-Regular-8722"/><use xlink:href="#HelveticaWorld-Regular-52" x="58.594"/><use xlink:href="#HelveticaWorld-Regular-48" x="114.209"/></g></g><g id="ytick_3"><use xlink:href="#m77b5c82580" id="line2d_10" x="47.265" y="197.478" fill="#969696" stroke="#969696" stroke-width=".3"/><g id="text_11" fill="#969696" transform="matrix(.14 0 0 -.14 16.492 202.503)"><use xlink:href="#HelveticaWorld-Regular-8722"/><use xlink:href="#HelveticaWorld-Regular-50" x="58.594"/><use xlink:href="#HelveticaWorld-Regular-48" x="114.209"/></g></g><g id="ytick_4"><use xlink:href="#m77b5c82580" id="line2d_11" x="47.265" y="147.914" fill="#969696" stroke="#969696" stroke-width=".3"/><use xlink:href="#HelveticaWorld-Regular-48" id="text_12" fill="#969696" transform="matrix(.14 0 0 -.14 32.48 152.94)"/></g><g id="ytick_5"><use xlink:href="#m77b5c82580" id="line2d_12" x="47.265" y="98.35" fill="#969696" stroke="#969696" stroke-width=".3"/><g id="text_13" fill="#969696" transform="matrix(.14 0 0 -.14 24.695 103.375)"><use xlink:href="#HelveticaWorld-Regular-50"/><use xlink:href="#HelveticaWorld-Regular-48" x="55.615"/></g></g><g id="ytick_6"><use xlink:href="#m77b5c82580" id="line2d_13" x="47.265" y="48.786" fill="#969696" stroke="#969696" stroke-width=".3"/><g id="text_14" fill="#969696" transform="matrix(.14 0 0 -.14 24.695 53.81)"><use xlink:href="#HelveticaWorld-Regular-52"/><use xlink:href="#HelveticaWorld-Regular-48" x="55.615"/></g></g><g id="text_15" fill="#969696" transform="matrix(.14 0 0 -.14 7.2 177.674)"><defs><path id="HelveticaWorld-Regular-98" d="M43.406 26.313q0 10.5-3.718 15.046-3.704 4.547-10.579 4.547-6.984-.11-10.562-5.453Q14.984 35.11 14.984 25q0-10.297 4.297-14.594Q23.578 6.11 29.297 6.11q6.5 0 10.297 5.344 3.812 5.344 3.812 14.86zM6.594 0v71.781h8.781V45.703h.203q5.61 8.11 15.14 8.11 9.766 0 15.766-7.25t6-18.876q0-13.093-6.062-21.156Q40.375-1.516 29.5-1.516q-9.578 0-14.406 8.016h-.203V0z"/></defs><use xlink:href="#HelveticaWorld-Regular-98"/><use xlink:href="#HelveticaWorld-Regular-39" x="56.494"/></g></g><g id="text_16" fill="#969696" transform="matrix(.14 0 0 -.14 110.027 17.516)"><defs><path id="HelveticaWorld-Regular-77" d="M67.484 0v42.39q0 .829.094 8.126t.094 9.78h-.281L47.312 0h-9.609L17.578 60.203h-.297q0-3.61.094-10.297.11-6.687.11-7.515V0H8.108v71.781h13.86L42.39 11.078h.28l20.313 60.703h13.922V0z"/><path id="HelveticaWorld-Regular-99" d="M39.594 34.719q-1.89 11.187-12.39 11.187-6.5 0-10.454-5.203-3.953-5.203-3.953-14.484 0-10.11 3.656-15.11 3.672-5 10.64-5 4.688 0 8.11 3.438 3.422 3.437 4.39 8.953h8.5q-1.312-9.703-6.859-14.86-5.547-5.156-14.328-5.156-10.297 0-16.89 7.047-6.594 7.063-6.594 19.172 0 13.281 6.594 21.188 6.593 7.922 18.5 7.922 8.687 0 13.843-5.204 5.157-5.203 5.735-13.89z"/><path id="HelveticaWorld-Regular-65" d="M44 29.5 33.406 61.078h-.203L21.687 29.5zm-25.297-8.594L11.188 0h-9.97l27 71.781h10.985L65.187 0H54.594l-7.078 20.906z"/><path id="HelveticaWorld-Regular-100" d="M13.094 26.313q0-9.704 3.844-14.954 3.859-5.25 10.265-5.25 6.094 0 10.188 4.485 4.109 4.5 4.109 13.094 0 11.03-3.5 16.625-3.484 5.593-10.61 5.593-6.78 0-10.546-4.453-3.75-4.437-3.75-15.14zM50.39 0h-8.297v7.172h-.203q-4.97-8.688-15.078-8.688-10.891 0-16.86 8.297Q4 15.094 4 27.688q0 11.625 5.906 18.875 5.922 7.25 15.875 7.25 9.813 0 15.625-8.891l.203.594V71.78h8.782z"/><path id="HelveticaWorld-Regular-109" d="M6.594 52.297h8.297v-7.375h.203q5.906 8.89 15.812 8.89 9.813 0 13.922-8.5 3.75 4.594 7.266 6.547 3.515 1.953 8.703 1.953 6.781 0 11.484-4.453Q77 44.922 77 36.187V0h-8.781v33.797q0 6.094-2.297 9.094-2.297 3.015-7.422 3.015-5.172 0-8.75-4.203-3.563-4.203-3.563-9.812V0h-8.78v36.188q0 4.53-2.11 7.124-2.094 2.594-6.094 2.594-6.297 0-10.062-4.687-3.766-4.688-3.766-12.703V0H6.594z"/><path id="HelveticaWorld-Regular-101" d="M42.484 30.328q-.687 8.485-4.5 12.031-3.797 3.547-10.109 3.547-6.39 0-10.328-4.5-3.922-4.484-4.172-11.078zm8.391-13.922q-1.453-8.11-7.953-13.422-5.719-4.5-15.047-4.593-10.984.093-17.438 7.203Q4 12.704 4 24.704q0 13.78 6.64 21.437 6.641 7.672 18.47 7.672 10.593 0 16.546-7.922 5.953-7.907 5.953-22.594H13.375q0-8.203 3.813-12.703Q21 6.109 28.608 6.109q5.375 0 9.235 3.235 3.86 3.25 4.25 7.062z"/><path id="HelveticaWorld-Regular-108" d="M15.375 0H6.594v71.781h8.781z"/><path id="HelveticaWorld-Regular-105" d="M6.594 61.813v9.968h8.781v-9.969zM15.375 0H6.594v52.297h8.781z"/><path id="HelveticaWorld-Regular-112" d="M14.984 23.688q0-8.407 4.094-13 4.11-4.579 10.219-4.579 6.687 0 10.39 5.438 3.72 5.453 3.72 14.765 0 10.22-3.563 14.907-3.563 4.687-10.735 4.687-6.984 0-10.562-5.5-3.563-5.5-3.563-16.718zm-8.39 28.609h8.297v-7.375h.203q5.61 8.89 15.625 8.89 10.11 0 15.937-7.359 5.828-7.344 5.828-18.766 0-12.796-5.953-21Q40.578-1.515 29.5-1.515q-9.094 0-13.922 7.032h-.203v-26.22H6.594z"/><path id="HelveticaWorld-Regular-115" d="M36.078 37.406q-.187 4.688-3.344 6.735-3.14 2.047-9.047 2.047-4.296 0-7.359-1.907-3.047-1.89-3.047-5.468 0-2.829 1.797-4.172 1.813-1.344 7.828-2.86l8.688-2.187q7.906-2 11.297-5.11 3.406-3.093 3.406-8.656 0-7.719-5.64-12.531-5.641-4.813-15.063-4.813-11 0-16.64 4.563-5.626 4.578-5.735 13.75h8.5q.203-5.422 3.594-8.063 3.39-2.625 10.171-2.625 5.516 0 8.766 2.188 3.25 2.203 3.25 6.11 0 2.78-2.11 4.437-2.093 1.672-8.296 3.078l-10.203 2.5q-6.203 1.562-9.157 4.656-2.953 3.094-2.953 8.031 0 7.72 5.516 12.203 5.531 4.5 14.406 4.5 9.485 0 14.531-4.624 5.047-4.61 5.344-11.782z"/><path id="HelveticaWorld-Regular-102" d="M17.188 45.016V0H8.405v45.016H1.22v7.28h7.187v8.985q0 5.907 3.578 8.703 3.594 2.813 10.032 2.813 2.203 0 3.968-.188v-7.906q-1.562.188-3.578.188-2.922 0-4.078-1.438-1.14-1.437-1.14-4.656v-6.5h8.796v-7.281z"/><path id="HelveticaWorld-Regular-111" d="M12.703 26.219q0-8.735 3.953-14.375 3.953-5.64 11.219-5.64 7.531 0 11.438 5.905 3.906 5.907 3.906 14.11 0 8.297-3.907 14.078-3.906 5.797-11.437 5.797-6.969 0-11.078-5.453-4.094-5.438-4.094-14.422zm-8.984 0q0 11.672 6.484 19.625 6.5 7.968 17.672 7.968 11.438 0 17.875-8.062 6.453-8.047 6.453-19.531 0-11.516-6.406-19.625-6.39-8.11-17.922-8.11-11.078 0-17.625 7.86-6.531 7.86-6.531 19.875z"/><path id="HelveticaWorld-Regular-114" d="M15.375 0H6.594v52.297h8.297v-8.688h.203q5.703 10.203 14.687 10.203 1.422 0 2.297-.296V44.39h-3.266q-5.906 0-9.671-4.016-3.766-4-3.766-9.953z"/><path id="HelveticaWorld-Regular-67" d="M58.016 50.203q-1.625 7.313-6.782 11.094-5.14 3.797-13.343 3.797-10.594 0-17.047-7.703-6.438-7.688-6.438-20.766 0-15.14 6.094-22.547 6.11-7.39 17.688-7.39 7.609 0 13.093 5.046 5.5 5.063 7.407 14.688h9.421Q66.22 12.594 57.625 5.344t-20.906-7.25q-14.703 0-23.516 10.11Q4.391 18.311 4.391 36.28q0 17.328 9.203 27.36 9.203 10.047 24.297 10.047 12.5 0 20.265-6.454 7.766-6.437 9.235-17.03z"/><path id="HelveticaWorld-Regular-49" d="M35.89 0h-9.374v49.906H10.109v6.985q8.594.28 12.782 2.75Q27.094 62.109 29 70.313h6.89z"/><path id="HelveticaWorld-Regular-40" d="M29.781 73.297q-8.875-15.875-11.218-25.844-2.344-9.953-2.344-21.969 0-11.859 3.187-22.125Q22.61-6.89 29.891-20.703h-5.86Q15.72-8.593 11.25 2.187 6.781 12.985 6.781 26.125q0 12.36 4.047 23.563 4.063 11.203 12.86 23.609z"/><path id="HelveticaWorld-Regular-85" d="M64.11 71.781V25.203q0-11.922-7.547-19.515-7.532-7.594-21.36-7.594-12.89 0-20.234 7-7.344 7.015-7.344 18.781v47.906h9.563V26.61q0-9.906 4.953-14.922 4.953-5 13.265-5 8.875 0 13.875 5 5.016 5.016 5.016 14.735v45.36z"/><path id="HelveticaWorld-Regular-83" d="M50.39 50.781q-.296 6.844-5.109 10.719-4.797 3.875-12.656 3.875-7.922 0-12.172-3.25-4.234-3.234-4.234-9.344 0-3.265 1.843-5.61 1.86-2.343 6.641-3.468l20.516-4.687q8.297-1.813 12.297-6.875 4.015-5.047 4.015-12.313 0-10.64-7.812-16.187-7.813-5.547-20.313-5.547-9.531 0-15.031 2.437-5.484 2.453-9.734 7.766-4.25 5.328-4.25 14.89h9.093q0-8 5.313-12.406 5.328-4.39 14.5-4.39 8.89 0 13.844 3.156 4.953 3.156 4.953 8.953 0 5.281-2.953 7.89Q46.188 29 37.594 31l-15.469 3.625q-7.719 1.75-11.531 6.125Q6.78 45.125 6.78 51.516q0 9.672 6.516 15.922 6.531 6.25 18.203 6.25 13.172 0 20.328-5.5 7.156-5.485 7.688-17.407z"/><path id="HelveticaWorld-Regular-41" d="M3.516-20.703q8.796 15.922 11.14 25.86Q17 15.093 17 27.093q0 11.922-3.156 22.172T3.422 73.296h5.765q8.391-12.109 12.86-22.905 4.469-10.797 4.469-23.875 0-12.407-4.063-23.61-4.047-11.203-12.828-23.61z"/></defs><use xlink:href="#HelveticaWorld-Regular-77"/><use xlink:href="#HelveticaWorld-Regular-97" x="85.01"/><use xlink:href="#HelveticaWorld-Regular-99" x="139.941"/><use xlink:href="#HelveticaWorld-Regular-65" x="191.211"/><use xlink:href="#HelveticaWorld-Regular-100" x="256.41"/><use xlink:href="#HelveticaWorld-Regular-97" x="313.393"/><use xlink:href="#HelveticaWorld-Regular-109" x="368.324"/><use xlink:href="#HelveticaWorld-Regular-32" x="451.332"/><use xlink:href="#HelveticaWorld-Regular-101" x="475.746"/><use xlink:href="#HelveticaWorld-Regular-108" x="531.166"/><use xlink:href="#HelveticaWorld-Regular-108" x="553.188"/><use xlink:href="#HelveticaWorld-Regular-105" x="575.209"/><use xlink:href="#HelveticaWorld-Regular-112" x="597.23"/><use xlink:href="#HelveticaWorld-Regular-115" x="653.725"/><use xlink:href="#HelveticaWorld-Regular-101" x="703.725"/><use xlink:href="#HelveticaWorld-Regular-115" x="759.145"/><use xlink:href="#HelveticaWorld-Regular-32" x="809.145"/><use xlink:href="#HelveticaWorld-Regular-102" x="833.559"/><use xlink:href="#HelveticaWorld-Regular-111" x="859.244"/><use xlink:href="#HelveticaWorld-Regular-114" x="915.152"/><use xlink:href="#HelveticaWorld-Regular-32" x="947.721"/><use xlink:href="#HelveticaWorld-Regular-67" x="972.135"/><use xlink:href="#HelveticaWorld-Regular-65" x="1042.699"/><use xlink:href="#HelveticaWorld-Regular-77" x="1109.398"/><use xlink:href="#HelveticaWorld-Regular-49" x="1194.408"/><use xlink:href="#HelveticaWorld-Regular-54" x="1250.023"/><use xlink:href="#HelveticaWorld-Regular-32" x="1305.639"/><use xlink:href="#HelveticaWorld-Regular-40" x="1330.053"/><use xlink:href="#HelveticaWorld-Regular-85" x="1363.354"/><use xlink:href="#HelveticaWorld-Regular-67" x="1434.936"/><use xlink:href="#HelveticaWorld-Regular-83" x="1507.25"/><use xlink:href="#HelveticaWorld-Regular-41" x="1573.461"/></g></g></g><defs><clipPath id="p25e12b7041"><path d="M47.265 47.516H397.74v266.112H47.265z"/></clipPath></defs></svg>