<svg xmlns="http://www.w3.org/2000/svg" xmlns:xlink="http://www.w3.org/1999/xlink" width="550.631" height="476.965" viewBox="0 0 412.973 357.724"><defs><style>*{stroke-linecap:butt;stroke-linejoin:round}</style></defs><g id="figure_1"><path id="patch_1" fill="none" d="M0 357.724h412.973V0H0z"/><g id="axes_1"><path id="patch_2" fill="none" d="M48.653 313.628h357.12V47.516H48.653z"/><path id="line2d_1" fill="none" stroke="gray" stroke-linecap="square" stroke-width="1.5" d="m211.028 223.84-17.766 77.646" clip-path="url(#p017cffb432)"/><path id="line2d_2" fill="none" stroke="gray" stroke-linecap="square" stroke-width="1.5" d="m211.028 223.84-104.296-47.236" clip-path="url(#p017cffb432)"/><path id="line2d_3" fill="none" stroke="gray" stroke-linecap="square" stroke-width="1.5" d="m211.028 223.84 138.091-54.886" clip-path="url(#p017cffb432)"/><path id="line2d_4" fill="none" stroke="gray" stroke-linecap="square" stroke-width="1.5" d="m211.028 223.84-1.5-164.228" clip-path="url(#p017cffb432)"/><g id="PathCollection_1"><defs><path id="C0_0_4d6764e6f4" d="M0 3a3 3 0 1 0 0-6 3 3 0 0 0 0 6z"/></defs><g clip-path="url(#p017cffb432)"><use xlink:href="#C0_0_4d6764e6f4" x="193.467" y="301.532" fill="#fff" stroke="#000"/></g><g clip-path="url(#p017cffb432)"><use xlink:href="#C0_0_4d6764e6f4" x="204.934" y="260.324" fill="#a7cafa" stroke="#a7cafa"/></g><g clip-path="url(#p017cffb432)"><use xlink:href="#C0_0_4d6764e6f4" x="191.742" y="298.196" fill="#40abf3" stroke="#40abf3"/></g><g clip-path="url(#p017cffb432)"><use xlink:href="#C0_0_4d6764e6f4" x="203.776" y="261.997" fill="#26547d" stroke="#26547d"/></g><g clip-path="url(#p017cffb432)"><use xlink:href="#C0_0_4d6764e6f4" x="199.237" y="284.816" fill="#fff" stroke="#000"/></g><g clip-path="url(#p017cffb432)"><use xlink:href="#C0_0_4d6764e6f4" x="193.231" y="297.729" fill="#fff" stroke="#000"/></g><g clip-path="url(#p017cffb432)"><use xlink:href="#C0_0_4d6764e6f4" x="203.975" y="254.013" fill="#6182a9" stroke="#6182a9"/></g><g clip-path="url(#p017cffb432)"><use xlink:href="#C0_0_4d6764e6f4" x="196.46" y="279.439" fill="#3b85bd" stroke="#3b85bd"/></g><g clip-path="url(#p017cffb432)"><use xlink:href="#C0_0_4d6764e6f4" x="206.187" y="253.807" fill="#335377" stroke="#335377"/></g></g><g id="PathCollection_2"><defs><path id="C1_0_8f687b65f6" d="M0 3a3 3 0 1 0 0-6 3 3 0 0 0 0 6z"/></defs><g clip-path="url(#p017cffb432)"><use xlink:href="#C1_0_8f687b65f6" x="181.842" y="209.063" fill="#658684" stroke="#658684"/></g><g clip-path="url(#p017cffb432)"><use xlink:href="#C1_0_8f687b65f6" x="185.593" y="217.685" fill="#abcdd4" stroke="#abcdd4"/></g><g clip-path="url(#p017cffb432)"><use xlink:href="#C1_0_8f687b65f6" x="180.692" y="203.008" fill="#3a5751" stroke="#3a5751"/></g><g clip-path="url(#p017cffb432)"><use xlink:href="#C1_0_8f687b65f6" x="105.307" y="179.884" fill="#56deb3" stroke="#56deb3"/></g><g clip-path="url(#p017cffb432)"><use xlink:href="#C1_0_8f687b65f6" x="141.886" y="196.866" fill="#84d7c2" stroke="#84d7c2"/></g><g clip-path="url(#p017cffb432)"><use xlink:href="#C1_0_8f687b65f6" x="166.221" y="208.698" fill="#9bd2cc" stroke="#9bd2cc"/></g><g clip-path="url(#p017cffb432)"><use xlink:href="#C1_0_8f687b65f6" x="134.493" y="185.596" fill="#368e71" stroke="#368e71"/></g><g clip-path="url(#p017cffb432)"><use xlink:href="#C1_0_8f687b65f6" x="161.142" y="198.514" fill="#548a7c" stroke="#548a7c"/></g><g clip-path="url(#p017cffb432)"><use xlink:href="#C1_0_8f687b65f6" x="166.531" y="196.278" fill="#2d594c" stroke="#2d594c"/></g></g><g id="PathCollection_3"><defs><path id="C2_0_9701170904" d="M0 3a3 3 0 1 0 0-6 3 3 0 0 0 0 6z"/></defs><g clip-path="url(#p017cffb432)"><use xlink:href="#C2_0_9701170904" x="325.075" y="181.408" fill="#ff7493" stroke="#ff7493"/></g><g clip-path="url(#p017cffb432)"><use xlink:href="#C2_0_9701170904" x="295.743" y="195.46" fill="#e8839e" stroke="#e8839e"/></g><g clip-path="url(#p017cffb432)"><use xlink:href="#C2_0_9701170904" x="260.645" y="213.574" fill="#f1b6d1" stroke="#f1b6d1"/></g><g clip-path="url(#p017cffb432)"><use xlink:href="#C2_0_9701170904" x="348.68" y="167.862" fill="#e43b65" stroke="#e43b65"/></g><g clip-path="url(#p017cffb432)"><use xlink:href="#C2_0_9701170904" x="326.423" y="174.617" fill="#d64d6a" stroke="#d64d6a"/></g><g clip-path="url(#p017cffb432)"><use xlink:href="#C2_0_9701170904" x="296.748" y="190.145" fill="#c15e76" stroke="#c15e76"/></g><g clip-path="url(#p017cffb432)"><use xlink:href="#C2_0_9701170904" x="261.637" y="205.387" fill="#a76e82" stroke="#a76e82"/></g><g clip-path="url(#p017cffb432)"><use xlink:href="#C2_0_9701170904" x="299.71" y="181.741" fill="#8e2b42" stroke="#8e2b42"/></g><g clip-path="url(#p017cffb432)"><use xlink:href="#C2_0_9701170904" x="267.293" y="199.199" fill="#793d4e" stroke="#793d4e"/></g></g><g id="PathCollection_4"><defs><path id="C3_0_cf851c2c89" d="M0 3a3 3 0 1 0 0-6 3 3 0 0 0 0 6z"/></defs><g clip-path="url(#p017cffb432)"><use xlink:href="#C3_0_cf851c2c89" x="208.001" y="59.633" fill="#eac342" stroke="#eac342"/></g><g clip-path="url(#p017cffb432)"><use xlink:href="#C3_0_cf851c2c89" x="208.098" y="108.014" fill="#e3c474" stroke="#e3c474"/></g><g clip-path="url(#p017cffb432)"><use xlink:href="#C3_0_cf851c2c89" x="209.998" y="145.759" fill="#dcc496" stroke="#dcc496"/></g><g clip-path="url(#p017cffb432)"><use xlink:href="#C3_0_cf851c2c89" x="211.266" y="177.044" fill="#d4c5b1" stroke="#d4c5b1"/></g><g clip-path="url(#p017cffb432)"><use xlink:href="#C3_0_cf851c2c89" x="215.637" y="167.385" fill="#604d37" stroke="#604d37"/></g><g clip-path="url(#p017cffb432)"><use xlink:href="#C3_0_cf851c2c89" x="215.226" y="187.16" fill="#5b4e45" stroke="#5b4e45"/></g><g clip-path="url(#p017cffb432)"><use xlink:href="#C3_0_cf851c2c89" x="210.88" y="179.462" fill="#8a7d6d" stroke="#8a7d6d"/></g><g clip-path="url(#p017cffb432)"><use xlink:href="#C3_0_cf851c2c89" x="209.863" y="119.709" fill="#957c3b" stroke="#957c3b"/></g><g clip-path="url(#p017cffb432)"><use xlink:href="#C3_0_cf851c2c89" x="210.733" y="162.03" fill="#8e7d5f" stroke="#8e7d5f"/></g></g><g id="matplotlib.axis_1"><g id="xtick_1"><g id="line2d_5"><defs><path id="mac696151f2" stroke="#969696" stroke-width=".4" d="M0 0v3.5"/></defs><use xlink:href="#mac696151f2" x="99.301" y="313.628" fill="#969696" stroke="#969696" stroke-width=".4"/></g><g id="text_1" fill="#969696" transform="matrix(.14 0 0 -.14 87.414 330.678)"><defs><path id="HelveticaWorld-Regular-8722" d="M54.594 21.578H4v7.328h50.594z"/><path id="HelveticaWorld-Regular-53" d="M14.703 40.922q5.813 4.39 13.625 4.39 9.469 0 16.281-6.296 6.813-6.297 6.813-16.22 0-10.78-6.578-17.796-6.563-7-18.422-7-10.313 0-16.266 5.047Q4.203 8.109 3.22 17.39h9.094q.671-5.672 4.437-8.672 3.766-3 10.453-3 6.485 0 10.64 4.484Q42 14.703 42 21.688q0 7.125-4.36 11.421-4.343 4.297-11.218 4.297-7.813 0-13.047-6.687l-7.563.39 5.266 37.594h36.438v-8.5H17.672z"/><path id="HelveticaWorld-Regular-48" d="M42.484 34.188q0 14.109-3.734 21.156-3.734 7.062-10.969 7.062-7.078 0-10.89-7.062-3.797-7.047-3.797-21.157 0-13.671 3.75-20.937Q20.609 6 27.78 6q7.235 0 10.969 7 3.734 7.016 3.734 21.188zm9.422 0q0-17.297-6.25-26.704-6.25-9.39-17.875-9.39-12.062 0-18.062 9.734-6 9.75-6 26.36 0 17.03 6.14 26.578 6.157 9.547 17.922 9.547 11.625 0 17.875-9.5t6.25-26.626z"/></defs><use xlink:href="#HelveticaWorld-Regular-8722"/><use xlink:href="#HelveticaWorld-Regular-53" x="58.594"/><use xlink:href="#HelveticaWorld-Regular-48" x="114.209"/></g></g><g id="xtick_2"><use xlink:href="#mac696151f2" id="line2d_6" x="152.934" y="313.628" fill="#969696" stroke="#969696" stroke-width=".4"/><g id="text_2" fill="#969696" transform="matrix(.14 0 0 -.14 141.047 330.678)"><defs><path id="HelveticaWorld-Regular-50" d="M4.39 45.125q0 12.39 6.391 18.781 6.406 6.407 17.938 6.407 9.656 0 15.812-5.86 6.157-5.86 6.157-15.14 0-7.22-3.547-12.188-3.532-4.953-10.422-8.703l-12.11-6.64Q13.922 15.921 12.5 8.296h38.188V0H2.593q.39 9.906 4.297 16.5 3.906 6.594 12.203 11.375l12.593 7.328q5.032 2.89 7.329 5.984 2.297 3.094 2.297 8.516 0 5.375-3.766 9.031-3.75 3.672-10.156 3.672-7.078 0-10.594-4.672-3.516-4.656-3.61-12.609z"/></defs><use xlink:href="#HelveticaWorld-Regular-8722"/><use xlink:href="#HelveticaWorld-Regular-50" x="58.594"/><use xlink:href="#HelveticaWorld-Regular-53" x="114.209"/></g></g><g id="xtick_3"><use xlink:href="#mac696151f2" id="line2d_7" x="206.567" y="313.628" fill="#969696" stroke="#969696" stroke-width=".4"/><use xlink:href="#HelveticaWorld-Regular-48" id="text_3" fill="#969696" transform="matrix(.14 0 0 -.14 202.674 330.678)"/></g><g id="xtick_4"><use xlink:href="#mac696151f2" id="line2d_8" x="260.2" y="313.628" fill="#969696" stroke="#969696" stroke-width=".4"/><g id="text_4" fill="#969696" transform="matrix(.14 0 0 -.14 252.415 330.678)"><use xlink:href="#HelveticaWorld-Regular-50"/><use xlink:href="#HelveticaWorld-Regular-53" x="55.615"/></g></g><g id="xtick_5"><use xlink:href="#mac696151f2" id="line2d_9" x="313.833" y="313.628" fill="#969696" stroke="#969696" stroke-width=".4"/><g id="text_5" fill="#969696" transform="matrix(.14 0 0 -.14 306.048 330.678)"><use xlink:href="#HelveticaWorld-Regular-53"/><use xlink:href="#HelveticaWorld-Regular-48" x="55.615"/></g></g><g id="xtick_6"><use xlink:href="#mac696151f2" id="line2d_10" x="367.466" y="313.628" fill="#969696" stroke="#969696" stroke-width=".4"/><g id="text_6" fill="#969696" transform="matrix(.14 0 0 -.14 359.68 330.678)"><defs><path id="HelveticaWorld-Regular-55" d="M3.719 68.797h48.578v-7.719Q42.28 50.875 33.984 33.484 25.687 16.11 23.391 0h-9.672q1.469 13.281 9.719 30.531 8.25 17.266 18.953 29.672H3.719z"/></defs><use xlink:href="#HelveticaWorld-Regular-55"/><use xlink:href="#HelveticaWorld-Regular-53" x="55.615"/></g></g><g id="text_7" fill="#969696" transform="matrix(.14 0 0 -.14 220.643 347.625)"><defs><path id="HelveticaWorld-Regular-97" d="M38.375 26.703q-.969-1.015-3.828-1.656-2.86-.625-10.672-1.656-5.766-.688-8.469-2.844-2.703-2.14-2.703-5.656 0-4.297 2.281-6.688 2.297-2.39 7.329-2.39 6.296 0 11.171 3.578 4.891 3.593 4.891 8.718zM6.203 36.375q.297 8.844 5.734 13.14 5.454 4.297 15.844 4.297 8.297 0 13.907-3.765 5.624-3.75 5.624-10.844V9.078Q47.313 6 50.094 6q1.125 0 2.89.39V0Q50.594-.984 48-.984q-4.5 0-6.703 1.921-2.188 1.938-2.281 6.047-7.516-8.5-18.891-8.5-7.422 0-11.922 4.204Q3.72 6.89 3.72 13.624q0 6.89 3.906 11.125Q11.531 29 19 29.89l15.516 1.891q4.203.64 4.203 6.203 0 4.11-3.047 6.297-3.047 2.203-9.25 2.203-5.516 0-8.485-2.437-2.953-2.438-3.53-7.672z"/><path id="HelveticaWorld-Regular-42" d="m5.906 64.594 10.5-3.797V71.78h6V60.797l10.5 3.797 2-5.516-10.781-3.36 6.688-9.234-4.938-3.375-6.484 9.375-6.5-9.375-4.875 3.375 6.687 9.235-10.797 3.36z"/></defs><use xlink:href="#HelveticaWorld-Regular-97"/><use xlink:href="#HelveticaWorld-Regular-42" x="54.932"/></g></g><g id="matplotlib.axis_2"><g id="ytick_1"><g id="line2d_11"><defs><path id="ma2b6c5cf01" stroke="#969696" stroke-width=".3" d="M0 0h-3.5"/></defs><use xlink:href="#ma2b6c5cf01" x="48.653" y="288.1" fill="#969696" stroke="#969696" stroke-width=".3"/></g><g id="text_8" fill="#969696" transform="matrix(.14 0 0 -.14 17.88 293.125)"><defs><path id="HelveticaWorld-Regular-52" d="M10.594 24.703h22.61v31.89h-.188zM42 17.093V0h-8.797v17.094H2.484v8.593L34.72 70.314H42v-45.61h10.297v-7.61z"/></defs><use xlink:href="#HelveticaWorld-Regular-8722"/><use xlink:href="#HelveticaWorld-Regular-52" x="58.594"/><use xlink:href="#HelveticaWorld-Regular-48" x="114.209"/></g></g><g id="ytick_2"><use xlink:href="#ma2b6c5cf01" id="line2d_12" x="48.653" y="245.194" fill="#969696" stroke="#969696" stroke-width=".3"/><g id="text_9" fill="#969696" transform="matrix(.14 0 0 -.14 17.88 250.218)"><use xlink:href="#HelveticaWorld-Regular-8722"/><use xlink:href="#HelveticaWorld-Regular-50" x="58.594"/><use xlink:href="#HelveticaWorld-Regular-48" x="114.209"/></g></g><g id="ytick_3"><use xlink:href="#ma2b6c5cf01" id="line2d_13" x="48.653" y="202.287" fill="#969696" stroke="#969696" stroke-width=".3"/><use xlink:href="#HelveticaWorld-Regular-48" id="text_10" fill="#969696" transform="matrix(.14 0 0 -.14 33.868 207.312)"/></g><g id="ytick_4"><use xlink:href="#ma2b6c5cf01" id="line2d_14" x="48.653" y="159.381" fill="#969696" stroke="#969696" stroke-width=".3"/><g id="text_11" fill="#969696" transform="matrix(.14 0 0 -.14 26.083 164.405)"><use xlink:href="#HelveticaWorld-Regular-50"/><use xlink:href="#HelveticaWorld-Regular-48" x="55.615"/></g></g><g id="ytick_5"><use xlink:href="#ma2b6c5cf01" id="line2d_15" x="48.653" y="116.474" fill="#969696" stroke="#969696" stroke-width=".3"/><g id="text_12" fill="#969696" transform="matrix(.14 0 0 -.14 26.083 121.499)"><use xlink:href="#HelveticaWorld-Regular-52"/><use xlink:href="#HelveticaWorld-Regular-48" x="55.615"/></g></g><g id="ytick_6"><use xlink:href="#ma2b6c5cf01" id="line2d_16" x="48.653" y="73.568" fill="#969696" stroke="#969696" stroke-width=".3"/><g id="text_13" fill="#969696" transform="matrix(.14 0 0 -.14 26.083 78.592)"><defs><path id="HelveticaWorld-Regular-54" d="M14.11 21.578q0-6.875 4.093-11.234Q22.313 6 28.906 6q6.297 0 10.032 4.438 3.734 4.453 3.734 11.687 0 6.297-3.688 10.547-3.687 4.25-10.468 4.25-6.594 0-10.5-4.156-3.907-4.157-3.907-11.188zM41.702 51.61q-.984 5.375-3.984 8.078-3 2.72-8.125 2.72-8.11 0-12.36-7.923-4.25-7.906-4.343-18.109l.203-.188q5.61 8.641 16.687 8.641 8.844 0 15.438-5.86 6.593-5.859 6.593-16.452 0-10.5-6.25-17.47-6.25-6.952-16.843-6.952-12.219 0-18.563 8.687-6.344 8.703-6.344 25.938 0 16.593 6.485 27.093 6.5 10.5 19.484 10.5 8.407 0 14.219-5.015 5.813-5 6.297-13.688z"/></defs><use xlink:href="#HelveticaWorld-Regular-54"/><use xlink:href="#HelveticaWorld-Regular-48" x="55.615"/></g></g><g id="text_14" fill="#969696" transform="matrix(.14 0 0 -.14 7.2 177.674)"><defs><path id="HelveticaWorld-Regular-98" d="M43.406 26.313q0 10.5-3.718 15.046-3.704 4.547-10.579 4.547-6.984-.11-10.562-5.453Q14.984 35.11 14.984 25q0-10.297 4.297-14.594Q23.578 6.11 29.297 6.11q6.5 0 10.297 5.344 3.812 5.344 3.812 14.86zM6.594 0v71.781h8.781V45.703h.203q5.61 8.11 15.14 8.11 9.766 0 15.766-7.25t6-18.876q0-13.093-6.062-21.156Q40.375-1.516 29.5-1.516q-9.578 0-14.406 8.016h-.203V0z"/></defs><use xlink:href="#HelveticaWorld-Regular-98"/><use xlink:href="#HelveticaWorld-Regular-42" x="56.494"/></g></g><g id="text_15" fill="#969696" transform="matrix(.14 0 0 -.14 122.971 17.516)"><defs><path id="HelveticaWorld-Regular-88" d="M64.313 0H52.297L33.016 29.5 13.094 0H1.422l25.672 36.813L2.984 71.78h12.204l18.218-27.5 18.203 27.5h11.578L39.11 36.812z"/><path id="HelveticaWorld-Regular-105" d="M6.594 61.813v9.968h8.781v-9.969zM15.375 0H6.594v52.297h8.781z"/><path id="HelveticaWorld-Regular-111" d="M12.703 26.219q0-8.735 3.953-14.375 3.953-5.64 11.219-5.64 7.531 0 11.438 5.905 3.906 5.907 3.906 14.11 0 8.297-3.907 14.078-3.906 5.797-11.437 5.797-6.969 0-11.078-5.453-4.094-5.438-4.094-14.422zm-8.984 0q0 11.672 6.484 19.625 6.5 7.968 17.672 7.968 11.438 0 17.875-8.062 6.453-8.047 6.453-19.531 0-11.516-6.406-19.625-6.39-8.11-17.922-8.11-11.078 0-17.625 7.86-6.531 7.86-6.531 19.875z"/><path id="HelveticaWorld-Regular-104" d="M49.219 0h-8.844v34.188q0 6.296-2.438 9-2.437 2.718-7.953 2.718-6.797 0-10.703-4.406-3.906-4.39-3.906-12.984V0H6.594v71.781h8.781V45.312h.203q6 8.5 15.328 8.5 8.594 0 13.453-4.5 4.86-4.484 4.86-13.718z"/><path id="HelveticaWorld-Regular-117" d="M6.11 52.297h8.78V17.578q0-5.765 2.61-8.625Q20.125 6.11 25 6.11q6.781 0 10.594 4.797 3.812 4.813 3.812 12.578v28.813h8.782V0H39.89v7.625l-.188.188q-4.984-9.329-16.61-9.329-7.515 0-12.25 4.094Q6.11 6.688 6.11 14.703z"/><path id="HelveticaWorld-Regular-101" d="M42.484 30.328q-.687 8.485-4.5 12.031-3.797 3.547-10.109 3.547-6.39 0-10.328-4.5-3.922-4.484-4.172-11.078zm8.391-13.922q-1.453-8.11-7.953-13.422-5.719-4.5-15.047-4.593-10.984.093-17.438 7.203Q4 12.704 4 24.704q0 13.78 6.64 21.437 6.641 7.672 18.47 7.672 10.593 0 16.546-7.922 5.953-7.907 5.953-22.594H13.375q0-8.203 3.813-12.703Q21 6.109 28.608 6.109q5.375 0 9.235 3.235 3.86 3.25 4.25 7.062z"/><path id="HelveticaWorld-Regular-108" d="M15.375 0H6.594v71.781h8.781z"/><path id="HelveticaWorld-Regular-110" d="M49.219 0h-8.844v32.172q0 7.422-2.594 10.578-2.578 3.156-8.578 3.156-5.906 0-9.875-4.5-3.953-4.484-3.953-12.89V0H6.594v52.297h8.297v-7.375h.203q6.203 8.89 15.812 8.89 8.89 0 13.594-4.718 4.719-4.703 4.719-13.5z"/><path id="HelveticaWorld-Regular-114" d="M15.375 0H6.594v52.297h8.297v-8.688h.203q5.703 10.203 14.687 10.203 1.422 0 2.297-.296V44.39h-3.266q-5.906 0-9.671-4.016-3.766-4-3.766-9.953z"/><path id="HelveticaWorld-Regular-116" d="M17.188 45.016V10.984q0-2 1.093-3.046 1.11-1.047 3.938-1.047h3.375V0Q20.797-.688 19-.688q-5.516 0-8.063 2.641-2.53 2.64-2.53 8.547v34.516H1.311v7.28h7.094v14.595h8.781V52.297h8.407v-7.281z"/><path id="HelveticaWorld-Regular-121" d="M39.016 52.297h9.562L29.891.984q-.5-1.375-.985-2.593-4.25-11.329-7.328-15.547-3.078-4.235-9.953-4.235-3.61 0-5.906.782v8.015q2.484-.89 5.468-.89 3.22 0 4.704 2.03 1.5 2.032 4.421 9.938L.875 52.297h9.922L24.812 9.719H25z"/><path id="HelveticaWorld-Regular-100" d="M13.094 26.313q0-9.704 3.844-14.954 3.859-5.25 10.265-5.25 6.094 0 10.188 4.485 4.109 4.5 4.109 13.094 0 11.03-3.5 16.625-3.484 5.593-10.61 5.593-6.78 0-10.546-4.453-3.75-4.437-3.75-15.14zM50.39 0h-8.297v7.172h-.203q-4.97-8.688-15.078-8.688-10.891 0-16.86 8.297Q4 15.094 4 27.688q0 11.625 5.906 18.875 5.922 7.25 15.875 7.25 9.813 0 15.625-8.891l.203.594V71.78h8.782z"/><path id="HelveticaWorld-Regular-102" d="M17.188 45.016V0H8.405v45.016H1.22v7.28h7.187v8.985q0 5.907 3.578 8.703 3.594 2.813 10.032 2.813 2.203 0 3.968-.188v-7.906q-1.562.188-3.578.188-2.922 0-4.078-1.438-1.14-1.437-1.14-4.656v-6.5h8.796v-7.281z"/><path id="HelveticaWorld-Regular-67" d="M58.016 50.203q-1.625 7.313-6.782 11.094-5.14 3.797-13.343 3.797-10.594 0-17.047-7.703-6.438-7.688-6.438-20.766 0-15.14 6.094-22.547 6.11-7.39 17.688-7.39 7.609 0 13.093 5.046 5.5 5.063 7.407 14.688h9.421Q66.22 12.594 57.625 5.344t-20.906-7.25q-14.703 0-23.516 10.11Q4.391 18.311 4.391 36.28q0 17.328 9.203 27.36 9.203 10.047 24.297 10.047 12.5 0 20.265-6.454 7.766-6.437 9.235-17.03z"/><path id="HelveticaWorld-Regular-73" d="M17.828 0H8.11v71.781h9.72z"/><path id="HelveticaWorld-Regular-69" d="M61.078 0H8.11v71.781h52.297v-8.594H17.828V41.22h39.25v-8.594h-39.25V8.594h43.25z"/><path id="HelveticaWorld-Regular-76" d="M17.672 8.594h36.531V0H8.11v71.781h9.563z"/><path id="HelveticaWorld-Regular-65" d="M44 29.5 33.406 61.078h-.203L21.687 29.5zm-25.297-8.594L11.188 0h-9.97l27 71.781h10.985L65.187 0H54.594l-7.078 20.906z"/><path id="HelveticaWorld-Regular-66" d="M8.11 71.781h31.484q9.281 0 14.797-5.031 5.515-5.031 5.515-13.031 0-4.844-2.422-8.828-2.406-3.97-7.187-6.172 6.687-2.532 9.828-6.735 3.156-4.203 3.156-10.797 0-9.265-6.687-15.234Q49.906 0 38.922 0H8.109zm9.562-63.484h20.703q7.625 0 11.422 3.531 3.812 3.547 3.812 9.563 0 6.093-4.25 9.093Q45.125 33.5 36.812 33.5h-19.14zm0 33.11h17.625q7.719 0 11.312 2.796 3.594 2.813 3.594 8.781 0 5.125-3.406 7.813-3.39 2.687-11.39 2.687H17.671z"/></defs><use xlink:href="#HelveticaWorld-Regular-88"/><use xlink:href="#HelveticaWorld-Regular-105" x="66.113"/><use xlink:href="#HelveticaWorld-Regular-97" x="88.135"/><use xlink:href="#HelveticaWorld-Regular-111" x="143.066"/><use xlink:href="#HelveticaWorld-Regular-32" x="198.975"/><use xlink:href="#HelveticaWorld-Regular-104" x="223.389"/><use xlink:href="#HelveticaWorld-Regular-117" x="278.564"/><use xlink:href="#HelveticaWorld-Regular-101" x="333.35"/><use xlink:href="#HelveticaWorld-Regular-32" x="388.77"/><use xlink:href="#HelveticaWorld-Regular-108" x="413.184"/><use xlink:href="#HelveticaWorld-Regular-105" x="435.205"/><use xlink:href="#HelveticaWorld-Regular-110" x="457.227"/><use xlink:href="#HelveticaWorld-Regular-101" x="512.402"/><use xlink:href="#HelveticaWorld-Regular-97" x="567.822"/><use xlink:href="#HelveticaWorld-Regular-114" x="622.754"/><use xlink:href="#HelveticaWorld-Regular-105" x="655.322"/><use xlink:href="#HelveticaWorld-Regular-116" x="677.344"/><use xlink:href="#HelveticaWorld-Regular-121" x="705.029"/><use xlink:href="#HelveticaWorld-Regular-32" x="754.639"/><use xlink:href="#HelveticaWorld-Regular-100" x="779.053"/><use xlink:href="#HelveticaWorld-Regular-97" x="836.035"/><use xlink:href="#HelveticaWorld-Regular-116" x="890.967"/><use xlink:href="#HelveticaWorld-Regular-97" x="918.652"/><use xlink:href="#HelveticaWorld-Regular-32" x="973.584"/><use xlink:href="#HelveticaWorld-Regular-102" x="997.998"/><use xlink:href="#HelveticaWorld-Regular-111" x="1023.684"/><use xlink:href="#HelveticaWorld-Regular-114" x="1079.592"/><use xlink:href="#HelveticaWorld-Regular-32" x="1112.16"/><use xlink:href="#HelveticaWorld-Regular-67" x="1136.574"/><use xlink:href="#HelveticaWorld-Regular-73" x="1208.889"/><use xlink:href="#HelveticaWorld-Regular-69" x="1234.67"/><use xlink:href="#HelveticaWorld-Regular-76" x="1299.66"/><use xlink:href="#HelveticaWorld-Regular-65" x="1355.275"/><use xlink:href="#HelveticaWorld-Regular-66" x="1421.975"/></g></g></g><defs><clipPath id="p017cffb432"><path d="M48.653 47.516h357.12v266.112H48.653z"/></clipPath></defs></svg>