<svg xmlns="http://www.w3.org/2000/svg" xmlns:xlink="http://www.w3.org/1999/xlink" width="550.984" height="476.799" viewBox="0 0 413.238 357.599"><defs><style>*{stroke-linecap:butt;stroke-linejoin:round}</style></defs><g id="figure_1"><path id="patch_1" fill="none" d="M0 357.6h413.238V0H0z"/><g id="axes_1"><path id="patch_2" fill="none" d="M48.918 313.504h357.12V47.392H48.918z"/><path id="line2d_1" fill="none" stroke="gray" stroke-linecap="square" stroke-width="1.5" d="M174.06 208.878 65.64 306.005" clip-path="url(#pb1a5132d6b)"/><path id="line2d_2" fill="none" stroke="gray" stroke-linecap="square" stroke-width="1.5" d="m174.06 208.878-39.925-85.493" clip-path="url(#pb1a5132d6b)"/><path id="line2d_3" fill="none" stroke="gray" stroke-linecap="square" stroke-width="1.5" d="m174.06 208.878 215.745 16.196" clip-path="url(#pb1a5132d6b)"/><path id="line2d_4" fill="none" stroke="gray" stroke-linecap="square" stroke-width="1.5" d="M174.06 208.878 321.78 58.391" clip-path="url(#pb1a5132d6b)"/><g id="PathCollection_1"><defs><path id="C0_0_67898008d1" d="M0 3a3 3 0 1 0 0-6 3 3 0 0 0 0 6z"/></defs><g clip-path="url(#pb1a5132d6b)"><use xlink:href="#C0_0_67898008d1" x="93.462" y="278.338" fill="#fff" stroke="#000"/></g><g clip-path="url(#pb1a5132d6b)"><use xlink:href="#C0_0_67898008d1" x="135.664" y="243.052" fill="#a7cafa" stroke="#a7cafa"/></g><g clip-path="url(#pb1a5132d6b)"><use xlink:href="#C0_0_67898008d1" x="81.541" y="288.15" fill="#40abf3" stroke="#40abf3"/></g><g clip-path="url(#pb1a5132d6b)"><use xlink:href="#C0_0_67898008d1" x="86.271" y="292.432" fill="#26547d" stroke="#26547d"/></g><g clip-path="url(#pb1a5132d6b)"><use xlink:href="#C0_0_67898008d1" x="110.674" y="264.544" fill="#fff" stroke="#000"/></g><g clip-path="url(#pb1a5132d6b)"><use xlink:href="#C0_0_67898008d1" x="65.151" y="305.457" fill="#fff" stroke="#000"/></g><g clip-path="url(#pb1a5132d6b)"><use xlink:href="#C0_0_67898008d1" x="122.117" y="255.607" fill="#6182a9" stroke="#6182a9"/></g><g clip-path="url(#pb1a5132d6b)"><use xlink:href="#C0_0_67898008d1" x="86.639" y="285.076" fill="#3b85bd" stroke="#3b85bd"/></g><g clip-path="url(#pb1a5132d6b)"><use xlink:href="#C0_0_67898008d1" x="101.388" y="280.058" fill="#335377" stroke="#335377"/></g></g><g id="PathCollection_2"><defs><path id="C1_0_690101cf9e" d="M0 3a3 3 0 1 0 0-6 3 3 0 0 0 0 6z"/></defs><g clip-path="url(#pb1a5132d6b)"><use xlink:href="#C1_0_690101cf9e" x="157.248" y="184.097" fill="#658684" stroke="#658684"/></g><g clip-path="url(#pb1a5132d6b)"><use xlink:href="#C1_0_690101cf9e" x="161.379" y="194.86" fill="#abcdd4" stroke="#abcdd4"/></g><g clip-path="url(#pb1a5132d6b)"><use xlink:href="#C1_0_690101cf9e" x="153.635" y="170.107" fill="#3a5751" stroke="#3a5751"/></g><g clip-path="url(#pb1a5132d6b)"><use xlink:href="#C1_0_690101cf9e" x="135.984" y="122.545" fill="#56deb3" stroke="#56deb3"/></g><g clip-path="url(#pb1a5132d6b)"><use xlink:href="#C1_0_690101cf9e" x="148.492" y="156.917" fill="#84d7c2" stroke="#84d7c2"/></g><g clip-path="url(#pb1a5132d6b)"><use xlink:href="#C1_0_690101cf9e" x="155.642" y="178.806" fill="#9bd2cc" stroke="#9bd2cc"/></g><g clip-path="url(#pb1a5132d6b)"><use xlink:href="#C1_0_690101cf9e" x="137.504" y="122.025" fill="#368e71" stroke="#368e71"/></g><g clip-path="url(#pb1a5132d6b)"><use xlink:href="#C1_0_690101cf9e" x="149.496" y="157.696" fill="#548a7c" stroke="#548a7c"/></g><g clip-path="url(#pb1a5132d6b)"><use xlink:href="#C1_0_690101cf9e" x="145.076" y="145.43" fill="#2d594c" stroke="#2d594c"/></g></g><g id="PathCollection_3"><defs><path id="C2_0_b106fcbefe" d="M0 3a3 3 0 1 0 0-6 3 3 0 0 0 0 6z"/></defs><g clip-path="url(#pb1a5132d6b)"><use xlink:href="#C2_0_b106fcbefe" x="320.136" y="217.02" fill="#ff7493" stroke="#ff7493"/></g><g clip-path="url(#pb1a5132d6b)"><use xlink:href="#C2_0_b106fcbefe" x="277.151" y="216.586" fill="#e8839e" stroke="#e8839e"/></g><g clip-path="url(#pb1a5132d6b)"><use xlink:href="#C2_0_b106fcbefe" x="220.042" y="215.544" fill="#f1b6d1" stroke="#f1b6d1"/></g><g clip-path="url(#pb1a5132d6b)"><use xlink:href="#C2_0_b106fcbefe" x="389.738" y="225.947" fill="#e43b65" stroke="#e43b65"/></g><g clip-path="url(#pb1a5132d6b)"><use xlink:href="#C2_0_b106fcbefe" x="357.291" y="218.939" fill="#d64d6a" stroke="#d64d6a"/></g><g clip-path="url(#pb1a5132d6b)"><use xlink:href="#C2_0_b106fcbefe" x="303.407" y="217.87" fill="#c15e76" stroke="#c15e76"/></g><g clip-path="url(#pb1a5132d6b)"><use xlink:href="#C2_0_b106fcbefe" x="244.051" y="217.158" fill="#a76e82" stroke="#a76e82"/></g><g clip-path="url(#pb1a5132d6b)"><use xlink:href="#C2_0_b106fcbefe" x="367.112" y="223.301" fill="#8e2b42" stroke="#8e2b42"/></g><g clip-path="url(#pb1a5132d6b)"><use xlink:href="#C2_0_b106fcbefe" x="284.813" y="223.013" fill="#793d4e" stroke="#793d4e"/></g></g><g id="PathCollection_4"><defs><path id="C3_0_faebb8a004" d="M0 3a3 3 0 1 0 0-6 3 3 0 0 0 0 6z"/></defs><g clip-path="url(#pb1a5132d6b)"><use xlink:href="#C3_0_faebb8a004" x="318.127" y="54.89" fill="#eac342" stroke="#eac342"/></g><g clip-path="url(#pb1a5132d6b)"><use xlink:href="#C3_0_faebb8a004" x="281.041" y="93.862" fill="#e3c474" stroke="#e3c474"/></g><g clip-path="url(#pb1a5132d6b)"><use xlink:href="#C3_0_faebb8a004" x="248.584" y="130.359" fill="#dcc496" stroke="#dcc496"/></g><g clip-path="url(#pb1a5132d6b)"><use xlink:href="#C3_0_faebb8a004" x="219.505" y="162.144" fill="#d4c5b1" stroke="#d4c5b1"/></g><g clip-path="url(#pb1a5132d6b)"><use xlink:href="#C3_0_faebb8a004" x="269.608" y="127.393" fill="#604d37" stroke="#604d37"/></g><g clip-path="url(#pb1a5132d6b)"><use xlink:href="#C3_0_faebb8a004" x="232.445" y="163.352" fill="#5b4e45" stroke="#5b4e45"/></g><g clip-path="url(#pb1a5132d6b)"><use xlink:href="#C3_0_faebb8a004" x="226.875" y="156.124" fill="#8a7d6d" stroke="#8a7d6d"/></g><g clip-path="url(#pb1a5132d6b)"><use xlink:href="#C3_0_faebb8a004" x="300.645" y="77.954" fill="#957c3b" stroke="#957c3b"/></g><g clip-path="url(#pb1a5132d6b)"><use xlink:href="#C3_0_faebb8a004" x="250" y="132.01" fill="#8e7d5f" stroke="#8e7d5f"/></g></g><g id="matplotlib.axis_1"><g id="xtick_1"><g id="line2d_5"><defs><path id="m84a3fe6da0" stroke="#969696" stroke-width=".4" d="M0 0v3.5"/></defs><use xlink:href="#m84a3fe6da0" x="75.622" y="313.504" fill="#969696" stroke="#969696" stroke-width=".4"/></g><g id="text_1" fill="#969696" transform="matrix(.14 0 0 -.14 61.999 330.553)"><defs><path id="HelveticaWorld-Regular-48" d="M42.484 34.188q0 14.109-3.734 21.156-3.734 7.062-10.969 7.062-7.078 0-10.89-7.062-3.797-7.047-3.797-21.157 0-13.671 3.75-20.937Q20.609 6 27.78 6q7.235 0 10.969 7 3.734 7.016 3.734 21.188zm9.422 0q0-17.297-6.25-26.704-6.25-9.39-17.875-9.39-12.062 0-18.062 9.734-6 9.75-6 26.36 0 17.03 6.14 26.578 6.157 9.547 17.922 9.547 11.625 0 17.875-9.5t6.25-26.626z"/><path id="HelveticaWorld-Regular-46" d="M19.094 0H8.687v10.594h10.407z"/><path id="HelveticaWorld-Regular-50" d="M4.39 45.125q0 12.39 6.391 18.781 6.406 6.407 17.938 6.407 9.656 0 15.812-5.86 6.157-5.86 6.157-15.14 0-7.22-3.547-12.188-3.532-4.953-10.422-8.703l-12.11-6.64Q13.922 15.921 12.5 8.296h38.188V0H2.593q.39 9.906 4.297 16.5 3.906 6.594 12.203 11.375l12.593 7.328q5.032 2.89 7.329 5.984 2.297 3.094 2.297 8.516 0 5.375-3.766 9.031-3.75 3.672-10.156 3.672-7.078 0-10.594-4.672-3.516-4.656-3.61-12.609z"/></defs><use xlink:href="#HelveticaWorld-Regular-48"/><use xlink:href="#HelveticaWorld-Regular-46" x="55.615"/><use xlink:href="#HelveticaWorld-Regular-50" x="83.398"/><use xlink:href="#HelveticaWorld-Regular-48" x="139.014"/></g></g><g id="xtick_2"><use xlink:href="#m84a3fe6da0" id="line2d_6" x="126.948" y="313.504" fill="#969696" stroke="#969696" stroke-width=".4"/><g id="text_2" fill="#969696" transform="matrix(.14 0 0 -.14 113.325 330.553)"><defs><path id="HelveticaWorld-Regular-53" d="M14.703 40.922q5.813 4.39 13.625 4.39 9.469 0 16.281-6.296 6.813-6.297 6.813-16.22 0-10.78-6.578-17.796-6.563-7-18.422-7-10.313 0-16.266 5.047Q4.203 8.109 3.22 17.39h9.094q.671-5.672 4.437-8.672 3.766-3 10.453-3 6.485 0 10.64 4.484Q42 14.703 42 21.688q0 7.125-4.36 11.421-4.343 4.297-11.218 4.297-7.813 0-13.047-6.687l-7.563.39 5.266 37.594h36.438v-8.5H17.672z"/></defs><use xlink:href="#HelveticaWorld-Regular-48"/><use xlink:href="#HelveticaWorld-Regular-46" x="55.615"/><use xlink:href="#HelveticaWorld-Regular-50" x="83.398"/><use xlink:href="#HelveticaWorld-Regular-53" x="139.014"/></g></g><g id="xtick_3"><use xlink:href="#m84a3fe6da0" id="line2d_7" x="178.274" y="313.504" fill="#969696" stroke="#969696" stroke-width=".4"/><g id="text_3" fill="#969696" transform="matrix(.14 0 0 -.14 164.651 330.553)"><defs><path id="HelveticaWorld-Regular-51" d="M22.406 39.984q2.203-.187 4.594-.187 6.203 0 9.781 2.86 3.594 2.859 3.594 8.656 0 4.687-3.344 7.89-3.343 3.203-9.64 3.203-6.985 0-10.235-4.11-3.234-4.093-3.437-10.983h-8.64q0 10.984 5.765 16.984 5.765 6.016 16.937 6.016 9.922 0 15.828-5.11 5.907-5.094 5.907-13.39 0-10.704-9.032-14.5v-.204q11.72-4 11.72-16.406 0-9.906-6.595-16.265-6.593-6.344-18.703-6.344-9.906 0-16.312 5.203Q4.204 8.5 3.422 21.484H12.5q.203-8.109 4-11.797Q20.313 6 27.484 6q6.938 0 11.141 3.86 4.203 3.859 4.203 9.718 0 6.406-4.016 9.672-4 3.266-12.39 3.266-2 0-4.016-.094z"/></defs><use xlink:href="#HelveticaWorld-Regular-48"/><use xlink:href="#HelveticaWorld-Regular-46" x="55.615"/><use xlink:href="#HelveticaWorld-Regular-51" x="83.398"/><use xlink:href="#HelveticaWorld-Regular-48" x="139.014"/></g></g><g id="xtick_4"><use xlink:href="#m84a3fe6da0" id="line2d_8" x="229.6" y="313.504" fill="#969696" stroke="#969696" stroke-width=".4"/><g id="text_4" fill="#969696" transform="matrix(.14 0 0 -.14 215.977 330.553)"><use xlink:href="#HelveticaWorld-Regular-48"/><use xlink:href="#HelveticaWorld-Regular-46" x="55.615"/><use xlink:href="#HelveticaWorld-Regular-51" x="83.398"/><use xlink:href="#HelveticaWorld-Regular-53" x="139.014"/></g></g><g id="xtick_5"><use xlink:href="#m84a3fe6da0" id="line2d_9" x="280.926" y="313.504" fill="#969696" stroke="#969696" stroke-width=".4"/><g id="text_5" fill="#969696" transform="matrix(.14 0 0 -.14 267.303 330.553)"><defs><path id="HelveticaWorld-Regular-52" d="M10.594 24.703h22.61v31.89h-.188zM42 17.093V0h-8.797v17.094H2.484v8.593L34.72 70.314H42v-45.61h10.297v-7.61z"/></defs><use xlink:href="#HelveticaWorld-Regular-48"/><use xlink:href="#HelveticaWorld-Regular-46" x="55.615"/><use xlink:href="#HelveticaWorld-Regular-52" x="83.398"/><use xlink:href="#HelveticaWorld-Regular-48" x="139.014"/></g></g><g id="xtick_6"><use xlink:href="#m84a3fe6da0" id="line2d_10" x="332.252" y="313.504" fill="#969696" stroke="#969696" stroke-width=".4"/><g id="text_6" fill="#969696" transform="matrix(.14 0 0 -.14 318.63 330.553)"><use xlink:href="#HelveticaWorld-Regular-48"/><use xlink:href="#HelveticaWorld-Regular-46" x="55.615"/><use xlink:href="#HelveticaWorld-Regular-52" x="83.398"/><use xlink:href="#HelveticaWorld-Regular-53" x="139.014"/></g></g><g id="xtick_7"><use xlink:href="#m84a3fe6da0" id="line2d_11" x="383.578" y="313.504" fill="#969696" stroke="#969696" stroke-width=".4"/><g id="text_7" fill="#969696" transform="matrix(.14 0 0 -.14 369.955 330.553)"><use xlink:href="#HelveticaWorld-Regular-48"/><use xlink:href="#HelveticaWorld-Regular-46" x="55.615"/><use xlink:href="#HelveticaWorld-Regular-53" x="83.398"/><use xlink:href="#HelveticaWorld-Regular-48" x="139.014"/></g></g><g id="text_8" fill="#969696" transform="matrix(.14 0 0 -.14 223.978 347.5)"><defs><path id="HelveticaWorld-Regular-120" d="M49.031 0H37.703l-12.89 19.672L12.203 0H1.125l18.266 26.906L2 52.296h11.188l12.109-18.405L37.5 52.297h10.688l-17.579-25.39z"/></defs><use xlink:href="#HelveticaWorld-Regular-120"/></g></g><g id="matplotlib.axis_2"><g id="ytick_1"><g id="line2d_12"><defs><path id="m8941aadb1d" stroke="#969696" stroke-width=".3" d="M0 0h-3.5"/></defs><use xlink:href="#m8941aadb1d" x="48.918" y="267.135" fill="#969696" stroke="#969696" stroke-width=".3"/></g><g id="text_9" fill="#969696" transform="matrix(.14 0 0 -.14 14.673 272.16)"><use xlink:href="#HelveticaWorld-Regular-48"/><use xlink:href="#HelveticaWorld-Regular-46" x="55.615"/><use xlink:href="#HelveticaWorld-Regular-50" x="83.398"/><use xlink:href="#HelveticaWorld-Regular-53" x="139.014"/></g></g><g id="ytick_2"><use xlink:href="#m8941aadb1d" id="line2d_13" x="48.918" y="215.809" fill="#969696" stroke="#969696" stroke-width=".3"/><g id="text_10" fill="#969696" transform="matrix(.14 0 0 -.14 14.673 220.834)"><use xlink:href="#HelveticaWorld-Regular-48"/><use xlink:href="#HelveticaWorld-Regular-46" x="55.615"/><use xlink:href="#HelveticaWorld-Regular-51" x="83.398"/><use xlink:href="#HelveticaWorld-Regular-48" x="139.014"/></g></g><g id="ytick_3"><use xlink:href="#m8941aadb1d" id="line2d_14" x="48.918" y="164.483" fill="#969696" stroke="#969696" stroke-width=".3"/><g id="text_11" fill="#969696" transform="matrix(.14 0 0 -.14 14.673 169.508)"><use xlink:href="#HelveticaWorld-Regular-48"/><use xlink:href="#HelveticaWorld-Regular-46" x="55.615"/><use xlink:href="#HelveticaWorld-Regular-51" x="83.398"/><use xlink:href="#HelveticaWorld-Regular-53" x="139.014"/></g></g><g id="ytick_4"><use xlink:href="#m8941aadb1d" id="line2d_15" x="48.918" y="113.157" fill="#969696" stroke="#969696" stroke-width=".3"/><g id="text_12" fill="#969696" transform="matrix(.14 0 0 -.14 14.673 118.182)"><use xlink:href="#HelveticaWorld-Regular-48"/><use xlink:href="#HelveticaWorld-Regular-46" x="55.615"/><use xlink:href="#HelveticaWorld-Regular-52" x="83.398"/><use xlink:href="#HelveticaWorld-Regular-48" x="139.014"/></g></g><g id="ytick_5"><use xlink:href="#m8941aadb1d" id="line2d_16" x="48.918" y="61.831" fill="#969696" stroke="#969696" stroke-width=".3"/><g id="text_13" fill="#969696" transform="matrix(.14 0 0 -.14 14.673 66.855)"><use xlink:href="#HelveticaWorld-Regular-48"/><use xlink:href="#HelveticaWorld-Regular-46" x="55.615"/><use xlink:href="#HelveticaWorld-Regular-52" x="83.398"/><use xlink:href="#HelveticaWorld-Regular-53" x="139.014"/></g></g><g id="text_14" fill="#969696" transform="matrix(.14 0 0 -.14 7.2 177.453)"><defs><path id="HelveticaWorld-Regular-121" d="M39.016 52.297h9.562L29.891.984q-.5-1.375-.985-2.593-4.25-11.329-7.328-15.547-3.078-4.235-9.953-4.235-3.61 0-5.906.782v8.015q2.484-.89 5.468-.89 3.22 0 4.704 2.03 1.5 2.032 4.421 9.938L.875 52.297h9.922L24.812 9.719H25z"/></defs><use xlink:href="#HelveticaWorld-Regular-121"/></g></g><g id="text_15" fill="#969696" transform="matrix(.14 0 0 -.14 128.623 17.392)"><defs><path id="HelveticaWorld-Regular-88" d="M64.313 0H52.297L33.016 29.5 13.094 0H1.422l25.672 36.813L2.984 71.78h12.204l18.218-27.5 18.203 27.5h11.578L39.11 36.812z"/><path id="HelveticaWorld-Regular-105" d="M6.594 61.813v9.968h8.781v-9.969zM15.375 0H6.594v52.297h8.781z"/><path id="HelveticaWorld-Regular-97" d="M38.375 26.703q-.969-1.015-3.828-1.656-2.86-.625-10.672-1.656-5.766-.688-8.469-2.844-2.703-2.14-2.703-5.656 0-4.297 2.281-6.688 2.297-2.39 7.329-2.39 6.296 0 11.171 3.578 4.891 3.593 4.891 8.718zM6.203 36.375q.297 8.844 5.734 13.14 5.454 4.297 15.844 4.297 8.297 0 13.907-3.765 5.624-3.75 5.624-10.844V9.078Q47.313 6 50.094 6q1.125 0 2.89.39V0Q50.594-.984 48-.984q-4.5 0-6.703 1.921-2.188 1.938-2.281 6.047-7.516-8.5-18.891-8.5-7.422 0-11.922 4.204Q3.72 6.89 3.72 13.624q0 6.89 3.906 11.125Q11.531 29 19 29.89l15.516 1.891q4.203.64 4.203 6.203 0 4.11-3.047 6.297-3.047 2.203-9.25 2.203-5.516 0-8.485-2.437-2.953-2.438-3.53-7.672z"/><path id="HelveticaWorld-Regular-111" d="M12.703 26.219q0-8.735 3.953-14.375 3.953-5.64 11.219-5.64 7.531 0 11.438 5.905 3.906 5.907 3.906 14.11 0 8.297-3.907 14.078-3.906 5.797-11.437 5.797-6.969 0-11.078-5.453-4.094-5.438-4.094-14.422zm-8.984 0q0 11.672 6.484 19.625 6.5 7.968 17.672 7.968 11.438 0 17.875-8.062 6.453-8.047 6.453-19.531 0-11.516-6.406-19.625-6.39-8.11-17.922-8.11-11.078 0-17.625 7.86-6.531 7.86-6.531 19.875z"/><path id="HelveticaWorld-Regular-104" d="M49.219 0h-8.844v34.188q0 6.296-2.438 9-2.437 2.718-7.953 2.718-6.797 0-10.703-4.406-3.906-4.39-3.906-12.984V0H6.594v71.781h8.781V45.312h.203q6 8.5 15.328 8.5 8.594 0 13.453-4.5 4.86-4.484 4.86-13.718z"/><path id="HelveticaWorld-Regular-117" d="M6.11 52.297h8.78V17.578q0-5.765 2.61-8.625Q20.125 6.11 25 6.11q6.781 0 10.594 4.797 3.812 4.813 3.812 12.578v28.813h8.782V0H39.89v7.625l-.188.188q-4.984-9.329-16.61-9.329-7.515 0-12.25 4.094Q6.11 6.688 6.11 14.703z"/><path id="HelveticaWorld-Regular-101" d="M42.484 30.328q-.687 8.485-4.5 12.031-3.797 3.547-10.109 3.547-6.39 0-10.328-4.5-3.922-4.484-4.172-11.078zm8.391-13.922q-1.453-8.11-7.953-13.422-5.719-4.5-15.047-4.593-10.984.093-17.438 7.203Q4 12.704 4 24.704q0 13.78 6.64 21.437 6.641 7.672 18.47 7.672 10.593 0 16.546-7.922 5.953-7.907 5.953-22.594H13.375q0-8.203 3.813-12.703Q21 6.109 28.608 6.109q5.375 0 9.235 3.235 3.86 3.25 4.25 7.062z"/><path id="HelveticaWorld-Regular-108" d="M15.375 0H6.594v71.781h8.781z"/><path id="HelveticaWorld-Regular-110" d="M49.219 0h-8.844v32.172q0 7.422-2.594 10.578-2.578 3.156-8.578 3.156-5.906 0-9.875-4.5-3.953-4.484-3.953-12.89V0H6.594v52.297h8.297v-7.375h.203q6.203 8.89 15.812 8.89 8.89 0 13.594-4.718 4.719-4.703 4.719-13.5z"/><path id="HelveticaWorld-Regular-114" d="M15.375 0H6.594v52.297h8.297v-8.688h.203q5.703 10.203 14.687 10.203 1.422 0 2.297-.296V44.39h-3.266q-5.906 0-9.671-4.016-3.766-4-3.766-9.953z"/><path id="HelveticaWorld-Regular-116" d="M17.188 45.016V10.984q0-2 1.093-3.046 1.11-1.047 3.938-1.047h3.375V0Q20.797-.688 19-.688q-5.516 0-8.063 2.641-2.53 2.64-2.53 8.547v34.516H1.311v7.28h7.094v14.595h8.781V52.297h8.407v-7.281z"/><path id="HelveticaWorld-Regular-100" d="M13.094 26.313q0-9.704 3.844-14.954 3.859-5.25 10.265-5.25 6.094 0 10.188 4.485 4.109 4.5 4.109 13.094 0 11.03-3.5 16.625-3.484 5.593-10.61 5.593-6.78 0-10.546-4.453-3.75-4.437-3.75-15.14zM50.39 0h-8.297v7.172h-.203q-4.97-8.688-15.078-8.688-10.891 0-16.86 8.297Q4 15.094 4 27.688q0 11.625 5.906 18.875 5.922 7.25 15.875 7.25 9.813 0 15.625-8.891l.203.594V71.78h8.782z"/><path id="HelveticaWorld-Regular-102" d="M17.188 45.016V0H8.405v45.016H1.22v7.28h7.187v8.985q0 5.907 3.578 8.703 3.594 2.813 10.032 2.813 2.203 0 3.968-.188v-7.906q-1.562.188-3.578.188-2.922 0-4.078-1.438-1.14-1.437-1.14-4.656v-6.5h8.796v-7.281z"/><path id="HelveticaWorld-Regular-89" d="M37.313 0h-9.72v28.906L.485 71.781h11.329l20.609-34.469 20.562 34.47h11.422L37.312 28.905z"/><path id="HelveticaWorld-Regular-95" d="M0-12.313v4.891h55.61v-4.89z"/><path id="HelveticaWorld-Regular-49" d="M35.89 0h-9.374v49.906H10.109v6.985q8.594.28 12.782 2.75Q27.094 62.109 29 70.313h6.89z"/></defs><use xlink:href="#HelveticaWorld-Regular-88"/><use xlink:href="#HelveticaWorld-Regular-105" x="66.113"/><use xlink:href="#HelveticaWorld-Regular-97" x="88.135"/><use xlink:href="#HelveticaWorld-Regular-111" x="143.066"/><use xlink:href="#HelveticaWorld-Regular-32" x="198.975"/><use xlink:href="#HelveticaWorld-Regular-104" x="223.389"/><use xlink:href="#HelveticaWorld-Regular-117" x="278.564"/><use xlink:href="#HelveticaWorld-Regular-101" x="333.35"/><use xlink:href="#HelveticaWorld-Regular-32" x="388.77"/><use xlink:href="#HelveticaWorld-Regular-108" x="413.184"/><use xlink:href="#HelveticaWorld-Regular-105" x="435.205"/><use xlink:href="#HelveticaWorld-Regular-110" x="457.227"/><use xlink:href="#HelveticaWorld-Regular-101" x="512.402"/><use xlink:href="#HelveticaWorld-Regular-97" x="567.822"/><use xlink:href="#HelveticaWorld-Regular-114" x="622.754"/><use xlink:href="#HelveticaWorld-Regular-105" x="655.322"/><use xlink:href="#HelveticaWorld-Regular-116" x="677.344"/><use xlink:href="#HelveticaWorld-Regular-121" x="705.029"/><use xlink:href="#HelveticaWorld-Regular-32" x="754.639"/><use xlink:href="#HelveticaWorld-Regular-100" x="779.053"/><use xlink:href="#HelveticaWorld-Regular-97" x="836.035"/><use xlink:href="#HelveticaWorld-Regular-116" x="890.967"/><use xlink:href="#HelveticaWorld-Regular-97" x="918.652"/><use xlink:href="#HelveticaWorld-Regular-32" x="973.584"/><use xlink:href="#HelveticaWorld-Regular-102" x="997.998"/><use xlink:href="#HelveticaWorld-Regular-111" x="1023.684"/><use xlink:href="#HelveticaWorld-Regular-114" x="1079.592"/><use xlink:href="#HelveticaWorld-Regular-32" x="1112.16"/><use xlink:href="#HelveticaWorld-Regular-120" x="1136.574"/><use xlink:href="#HelveticaWorld-Regular-121" x="1186.574"/><use xlink:href="#HelveticaWorld-Regular-89" x="1236.184"/><use xlink:href="#HelveticaWorld-Regular-95" x="1300.979"/><use xlink:href="#HelveticaWorld-Regular-49" x="1356.594"/></g></g></g><defs><clipPath id="pb1a5132d6b"><path d="M48.918 47.392h357.12v266.112H48.918z"/></clipPath></defs></svg>